<svg version="1.1" xmlns="http://www.w3.org/2000/svg" viewBox="-299.49402987139115 -306.1417332834646 594.2047264094489 612.2834665669292" fill="none" stroke="black" stroke-width="0.6%" vector-effect="non-scaling-stroke">
    <path d="M 290.93117 102.98454 A 302.3622047244095 302.3622047244095 0 1 1 290.93117 -102.98454 A 117.16535433070867 117.16535433070867 0 0 0 290.93117 102.98454 Z" />
    <path d="M 271.94919 -100.05514 A 6.614173228346452 6.614173228346452 0 0 0 274.58597 -101.99375 A 6.614173228346452 6.614173228346452 0 1 0 271.94919 -100.05514 Z" />
    <path d="M 211.95129 -97.21527 L 225.0509 -95.37424 L 230.00633 -83.10913 L 221.86215 -72.68505 L 208.76254 -74.52608 L 203.80711 -86.79119 L 211.95129 -97.21527 Z" />
    <path d="M 13.26188 -283.46457 A 6.614173228346457 6.614173228346457 0 0 0 12.45219 -286.63557 A 6.614173228346457 6.614173228346457 0 1 0 13.26188 -283.46457 Z" />
    <path d="M -6.58064 -226.77165 L 0.03353 -238.22774 L 13.26188 -238.22774 L 19.87605 -226.77165 L 13.26188 -215.31557 L 0.03353 -215.31557 L -6.58064 -226.77165 Z" />
    <path d="M -215.75666 -175.87555 A 6.614173228346467 6.614173228346467 0 0 0 -218.77642 -177.13726 A 6.614173228346467 6.614173228346467 0 1 0 -215.75666 -175.87555 Z" />
    <path d="M -182.42121 -125.90996 L -187.58994 -138.08672 L -179.62892 -148.65135 L -166.49917 -147.03922 L -161.33045 -134.86246 L -169.29147 -124.29783 L -182.42121 -125.90996 Z" />
    <path d="M 266.99376 112.32025 A 6.614173228346452 6.614173228346452 0 0 0 270.23718 112.7574 A 6.614173228346452 6.614173228346452 0 1 0 266.99376 112.32025 Z" />
    <path d="M 221.86215 72.68505 L 230.00633 83.10913 L 225.0509 95.37424 L 211.95129 97.21527 L 203.80711 86.79119 L 208.76254 74.52608 L 221.86215 72.68505 Z" />
    <path d="M 214.52172 0 A 207.87401574803152 207.87401574803152 0 0 0 189.07431 -99.66011 A 207.87401574803152 207.87401574803152 0 1 0 214.52172 0 Z" />
    <path d="M -166.49917 147.03922 L -179.62892 148.65135 L -187.58994 138.08672 L -182.42121 125.90996 L -169.29147 124.29783 L -161.33045 134.86246 L -166.49917 147.03922 Z" />
    <path d="M 19.87605 226.77165 L 13.26188 238.22774 L 0.03353 238.22774 L -6.58064 226.77165 L 0.03353 215.31557 L 13.26188 215.31557 L 19.87605 226.77165 Z" />
    <path d="M 0.03353 283.46457 A 6.614173228346457 6.614173228346457 0 0 0 0.84322 286.63557 A 6.614173228346457 6.614173228346457 0 1 0 0.03353 283.46457 Z" />
    <path d="M -223.71767 165.31092 A 6.614173228346467 6.614173228346467 0 0 0 -225.76287 167.86593 A 6.614173228346467 6.614173228346467 0 1 0 -223.71767 165.31092 Z" />
    <path d="M 245.26188 -58.45235 A 245.6692913385827 245.6692913385827 0 0 1 245.26188 58.45235" />
    <path d="M 214.42901 -91.08271 A 6.614173228346463 6.614173228346463 0 0 0 211.79222 -89.1441 A 6.614173228346463 6.614173228346463 0 1 0 214.42901 -91.08271 Z" />
    <path d="M 0.03353 -226.77165 A 6.614173228346457 6.614173228346457 0 0 0 0.84322 -223.60065 A 6.614173228346457 6.614173228346457 0 1 0 0.03353 -226.77165 Z" />
    <path d="M -178.4407 -131.19227 A 6.614173228346467 6.614173228346467 0 0 0 -175.42094 -129.93056 A 6.614173228346467 6.614173228346467 0 1 0 -178.4407 -131.19227 Z" />
    <path d="M 219.38443 78.8176 A 6.614173228346463 6.614173228346463 0 0 0 216.14101 78.38045 A 6.614173228346463 6.614173228346463 0 1 0 219.38443 78.8176 Z" />
    <path d="M -170.47968 141.7569 A 6.614173228346467 6.614173228346467 0 0 0 -168.43449 139.2019 A 6.614173228346467 6.614173228346467 0 1 0 -170.47968 141.7569 Z" />
    <path d="M 13.26188 226.77165 A 6.614173228346457 6.614173228346457 0 0 0 12.45219 223.60065 A 6.614173228346457 6.614173228346457 0 1 0 13.26188 226.77165 Z" />
</svg>