<svg viewBox="0 0 800 800" xmlns="http://www.w3.org/2000/svg"><path d="M486.0551909664631,622.6261500260722 L483.2856133345457,631.8238178577006 M483.2856133345457,631.8238178577006 L483.2914715615045,626.2102281713815 M486.0616670793369,617.014585229398 L483.2914715615045,626.2102281713815 M486.0616670793369,617.014585229398 L486.0551909664631,622.6261500260722 M486.0551909664631,622.6261500260722 L492.57889075449305,626.4124622280176 M492.57889075449305,626.4124622280176 L483.2856133345457,631.8238178577006 M492.57889075449305,626.4124622280176 L492.5868347292643,620.8000635004212 M492.5868347292643,620.8000635004212 L483.2914715615045,626.2102281713815 M486.0616670793369,617.014585229398 L492.5868347292643,620.8000635004212" stroke="black"  stroke-width="4"  fill="red"/>
<path d="M534.7753868931793,625.7348187183613 L530.4104969037237,627.2393359057387 M530.4104969037237,627.2393359057387 L526.8107911099355,629.3189489127499 M526.8107911099355,629.3189489127499 L524.1934913912428,631.848662007863 M524.1934913912428,631.848662007863 L522.7169431105677,634.6762468798087 M522.7169431105677,634.6762468798087 L522.4709593847786,637.631355160313 M522.4709593847786,637.631355160313 L523.4712436743844,640.5357002214101 M523.4712436743844,640.5357002214101 L525.658201084771,643.2138312171664 M525.658201084771,643.2138312171664 L528.9004072278813,645.5037534720072 M499.202125929825,642.456674477416 L528.9004072278813,645.5037534720072 M499.202125929825,642.456674477416 L528.9054450875481,625.1335279923342 M534.7753868931793,625.7348187183613 L528.9054450875481,625.1335279923342 M528.9165372560542,639.8871576856511 L528.9004072278813,645.5037534720072 M528.9165372560542,639.8871576856511 L525.6735986744405,637.5977381658331 M525.6735986744405,637.5977381658331 L523.4861460259528,634.9201953702652 M523.4861460259528,634.9201953702652 L522.4856333390564,632.0164884816127 M522.4856333390564,632.0164884816127 L522.7316689409016,629.062029836055 M522.7316689409016,629.062029836055 L524.2085458560391,626.2350668561213 M524.2085458560391,626.2350668561213 L526.8264308169009,623.7059103811309 M526.8264308169009,623.7059103811309 L530.4269429633288,621.6267551280771 M530.4269429633288,621.6267551280771 L534.7928117579028,620.1225692034651 M534.7928117579028,620.1225692034651 L534.7753868931793,625.7348187183613 M499.211570184436,636.8407476951653 L528.9165372560542,639.8871576856511 M499.211570184436,636.8407476951653 L499.202125929825,642.456674477416 M499.211570184436,636.8407476951653 L528.9215502414725,619.5214108914428 M528.9054450875481,625.1335279923342 L528.9215502414725,619.5214108914428 M534.7928117579028,620.1225692034651 L528.9215502414725,619.5214108914428" stroke="black"  stroke-width="4"  fill="red"/>
<path d="M557.6912451160983,628.2553123745734 L557.7138235564253,622.6425079460406 M528.52570817694,645.2916985059778 L528.5417536110795,639.6751492668325 M557.6912451160983,628.2553123745734 L560.7862073100757,630.5387007305644 M560.7862073100757,630.5387007305644 L562.8558947338392,633.1848948062689 M562.8558947338392,633.1848948062689 L563.7794754441804,636.0404516347894 M563.7794754441804,636.0404516347894 L563.5025115336398,638.9395846034274 M563.5025115336398,638.9395846034274 L562.0403043460744,641.7137545629282 M562.0403043460744,641.7137545629282 L559.4771556210553,644.2014621082801 M559.4771556210553,644.2014621082801 L555.9616615247483,646.2577228545065 M555.9616615247483,646.2577228545065 L551.6981227429361,647.7625652455872 M551.6981227429361,647.7625652455872 L546.9346785793623,648.6281073348296 M546.9346785793623,648.6281073348296 L541.9488413494288,648.803784017878 M541.9488413494288,648.803784017878 L537.031166637149,648.2793240730964 M537.031166637149,648.2793240730964 L532.4682043770965,647.0853823721193 M532.4682043770965,647.0853823721193 L528.52570817694,645.2916985059778 M557.7138235564253,622.6425079460406 L560.8094855220583,624.9253937849605 M560.8094855220583,624.9253937849605 L562.8796431489167,627.5710057313154 M562.8796431489167,627.5710057313154 L563.8034369249403,630.4259346530342 M563.8034369249403,630.4259346530342 L563.5264162194217,633.3244304299774 M563.5264162194217,633.3244304299774 L562.0638853174545,636.0979909432431 M562.0638853174545,636.0979909432431 L559.5001644686301,638.5851522071931 M559.5001644686301,638.5851522071931 L555.9838829204448,640.6409615807652 M555.9838829204448,640.6409615807652 L551.7193871190227,642.1454737372126 M551.7193871190227,642.1454737372126 L546.954872150245,643.0108259215144 M546.954872150245,643.0108259215144 L541.9679128625605,643.1864640633393 M541.9679128625605,643.1864640633393 L537.0491304100384,642.6621191816372 M537.0491304100384,642.6621191816372 L532.4851394453976,641.4684394601841 M532.4851394453976,641.4684394601841 L528.5417536110795,639.6751492668325 M528.52570817694,645.2916985059778 L525.4329533932906,643.0029698340281 M525.4329533932906,643.0029698340281 L523.3695207262303,640.3526615443238 M523.3695207262303,640.3526615443238 L522.4547658439449,637.4951543369696 M522.4547658439449,637.4951543369696 L522.741118749053,634.5966843379238 M522.741118749053,634.5966843379238 L524.2111365360006,631.825644232214 M524.2111365360006,631.825644232214 L526.778702258414,629.3428014067972 M526.778702258414,629.3428014067972 L530.2942337678567,627.2920408061831 M530.2942337678567,627.2920408061831 L534.5534218050414,625.7920739751081 M534.5534218050414,625.7920739751081 L539.3090978677558,624.9296509197786 M539.3090978677558,624.9296509197786 L544.2855551133127,624.7546372052858 M544.2855551133127,624.7546372052858 L549.1943774603469,625.2771467514598 M549.1943774603469,625.2771467514598 L553.7510289626462,626.4669688251665 M553.7510289626462,626.4669688251665 L557.6912451160983,628.2553123745734 M528.5417536110795,639.6751492668325 L525.4483000447569,637.3869230850969 M525.4483000447569,637.3869230850969 L523.3843999787548,634.7371969034434 M523.3843999787548,634.7371969034434 L522.4694359979462,631.8803175930826 M522.4694359979462,631.8803175930826 L522.7558499225214,628.9824847890654 M522.7558499225214,628.9824847890654 L524.2261949400203,626.212054144113 M524.2261949400203,626.212054144113 L526.7943347826961,623.7297576257804 M526.7943347826961,623.7297576257804 L530.3106537692652,621.679448425482 M530.3106537692652,621.679448425482 L534.5707968743126,620.1798118523436 M534.5707968743126,620.1798118523436 L539.3275402547603,619.3175787188597 M539.3275402547603,619.3175787188597 L544.3051153396577,619.1426035489249 M544.3051153396577,619.1426035489249 L549.2150414418652,619.6649980222097 M549.2150414418652,619.6649980222097 L553.772718806809,620.8545580962816 M553.772718806809,620.8545580962816 L557.7138235564253,622.6425079460406 M538.8641705562001,639.2527204660571 L538.8825338048312,633.6374974873288 M547.370781955706,634.2837765795068 L547.3910506620887,628.6696458376828 M538.8641705562001,639.2527204660571 L537.9618837742136,638.5857234941693 M537.9618837742136,638.5857234941693 L537.3594003830403,637.8131449929047 M537.3594003830403,637.8131449929047 L537.0916894341406,636.9799078414678 M537.0916894341406,636.9799078414678 L537.1742459183345,636.1344556769635 M537.1742459183345,636.1344556769635 L537.6021836130186,635.3259080051323 M537.6021836130186,635.3259080051323 L538.3506091905026,634.601245513983 M538.3506091905026,634.601245513983 L539.3759658199955,634.0025415058305 M539.3759658199955,634.0025415058305 L540.6186746973897,633.5645438182127 M540.6186746973897,633.5645438182127 L542.0065562863973,633.3126886779203 M542.0065562863973,633.3126886779203 L543.4589849024296,633.261570818803 M543.4589849024296,633.261570818803 L544.8916365577898,633.4141678399601 M544.8916365577898,633.4141678399601 L546.2213115479071,633.7616223715303 M546.2213115479071,633.7616223715303 L547.370781955706,634.2837765795068 M538.8825338048312,633.6374974873288 L537.9800431075998,632.9706470787498 M537.9800431075998,632.9706470787498 L537.3774231011287,632.1982383606687 M537.3774231011287,632.1982383606687 L537.1096507561332,631.3651843466871 M537.1096507561332,631.3651843466871 L537.1922246028763,630.5199180296486 M537.1922246028763,630.5199180296486 L537.6202573744617,629.7115481167403 M537.6202573744617,629.7115481167403 L538.3688501997062,628.9870449621682 M538.3688501997062,628.9870449621682 L539.3944365069692,628.3884726093323 M539.3944365069692,628.3884726093323 L540.6374241465031,627.9505712457135 M540.6374241465031,627.9505712457135 L542.025617397969,627.698771496237 M542.025617397969,627.698771496237 L543.4783724841177,627.6476648798102 M543.4783724841177,627.6476648798102 L544.911346478647,627.8002283395662 M544.911346478647,627.8002283395662 L546.2413209719633,628.147606456874 M546.2413209719633,628.147606456874 L547.3910506620887,628.6696458376828 M547.370781955706,634.2837765795068 L548.2732487593905,634.9503138378643 M548.2732487593905,634.9503138378643 L548.8762584128176,635.7225448235068 M548.8762584128176,635.7225448235068 L549.1447201691826,636.5556160571499 M549.1447201691826,636.5556160571499 L549.062981093374,637.4011354514843 M549.062981093374,637.4011354514843 L548.6356883556997,638.2099380856008 M548.6356883556997,638.2099380856008 L547.8876580181008,638.9350257100175 M547.8876580181008,638.9350257100175 L546.8623045709872,639.5341976109564 M546.8623045709872,639.5341976109564 L545.6192060894275,639.9725987660746 M545.6192060894275,639.9725987660746 L544.2306831589549,640.2247305315935 M544.2306831589549,640.2247305315935 L542.7774379016457,640.2758939557712 M542.7774379016457,640.2758939557712 L541.3440331818246,640.1231310185628 M541.3440331818246,640.1231310185628 L540.0138271654097,639.7753235560552 M540.0138271654097,639.7753235560552 L538.8641705562001,639.2527204660571 M547.3910506620887,628.6696458376828 L548.2937214633964,629.3360365316373 M548.2937214633964,629.3360365316373 L548.896867969362,630.1080977317401 M548.896867969362,630.1080977317401 L549.1653914593063,630.9409858270935 M549.1653914593063,630.9409858270935 L549.0836353845441,631.7863193718649 M549.0836353845441,631.7863193718649 L548.6562478646854,632.5949442507758 M548.6562478646854,632.5949442507758 L547.9080504535641,633.3198725383181 M547.9080504535641,633.3198725383181 L546.8824673308281,633.9189127862934 M546.8824673308281,633.9189127862934 L545.6390899166936,634.3572176218765 M545.6390899166936,634.3572176218765 L544.2502550314857,634.6092939955355 M544.2502550314857,634.6092939955355 L542.7966829409825,634.6604461796874 M542.7966829409825,634.6604461796874 L541.3629555429852,634.5077168030455 M541.3629555429852,634.5077168030455 L540.0324497829157,634.1599857536345 M540.0324497829157,634.1599857536345 L538.8825338048312,633.6374974873288" stroke="black"  stroke-width="4"  fill="red"/>
<path d="M696.9636979214033,547.3300507813949 L691.4516542990617,530.335644368151 M691.4516542990617,530.335644368151 L691.503885433264,524.7445643194619 M697.0172307847367,541.7351758814435 L691.503885433264,524.7445643194619 M697.0172307847367,541.7351758814435 L696.9636979214033,547.3300507813949 M696.9636979214033,547.3300507813949 L693.025631135442,545.4789768206265 M693.025631135442,545.4789768206265 L688.4365755202268,544.2337128444794 M688.4365755202268,544.2337128444794 L683.4729142649139,543.6690253561965 M683.4729142649139,543.6690253561965 L678.4333978093039,543.8188185658823 M678.4333978093039,543.8188185658823 L673.6213206359937,544.674097450458 M673.6213206359937,544.674097450458 L669.3263701370565,546.1835212322203 M669.3263701370565,546.1835212322203 L665.8073631080258,548.2564308934116 M665.8073631080258,548.2564308934116 L663.2766660061629,550.768221459821 M662.1933169096059,547.39927492796 L663.2766660061629,550.768221459821 M662.1933169096059,547.39927492796 L691.4516542990617,530.335644368151 M662.2390858744503,541.8043845912862 L662.1933169096059,547.39927492796 M662.2390858744503,541.8043845912862 L691.503885433264,524.7445643194619 M663.3226892465808,545.172580067052 L665.8539422706357,542.6613494283399 M665.8539422706357,542.6613494283399 L669.3737273130549,540.5889020288349 M669.3737273130549,540.5889020288349 L673.6696309594614,539.0798149469097 M673.6696309594614,539.0798149469097 L678.4827790616437,538.2247268812525 M678.4827790616437,538.2247268812525 L683.5234199115861,538.074967094198 M683.5234199115861,538.074967094198 L688.4881915436696,538.6395285906758 M688.4881915436696,538.6395285906758 L693.0782768622532,539.8845147664471 M693.0782768622532,539.8845147664471 L697.0172307847367,541.7351758814435 M662.2390858744503,541.8043845912862 L663.3226892465808,545.172580067052 M663.3226892465808,545.172580067052 L663.2766660061629,550.768221459821" stroke="black"  stroke-width="4"  fill="red"/>
<path d="M696.5982152295413,547.1159599898485 L696.651665568551,541.5211328324131 M667.8067582435324,563.9338358109794 L667.8538427040531,558.3352632177321 M696.5982152295413,547.1159599898485 L699.6982555504162,549.3700729904931 M699.6982555504162,549.3700729904931 L701.7835612074924,551.9823424719143 M701.7835612074924,551.9823424719143 L702.7324212659603,554.8012798619882 M702.7324212659603,554.8012798619882 L702.4889356509512,557.6632261844927 M702.4889356509512,557.6632261844927 L701.0664697508619,560.4018044600225 M701.0664697508619,560.4018044600225 L698.5470213282815,562.8575889562467 M698.5470213282815,562.8575889562467 L695.0766471966425,564.8874584158782 M695.0766471966425,564.8874584158782 L690.8570208117037,566.372984059934 M690.8570208117037,566.372984059934 L686.1337201320692,567.2274146796913 M686.1337201320692,567.2274146796913 L681.181913005892,567.400836006529 M681.181913005892,567.400836006529 L676.2901663708301,566.8831090431071 M676.2901663708301,566.8831090431071 L671.7435201077906,565.7044913757785 M671.7435201077906,565.7044913757785 L667.8067582435324,563.9338358109794 M696.651665568551,541.5211328324131 L699.7524078453341,543.7747432448941 M699.7524078453341,543.7747432448941 L701.838190601739,546.386430508147 M701.838190601739,546.386430508147 L702.7872749444449,549.204739890848 M702.7872749444449,549.204739890848 L702.5437474300869,552.066048913849 M702.5437474300869,552.066048913849 L701.1209755291386,554.8040176345996 M701.1209755291386,554.8040176345996 L698.6009744885876,557.2592557476079 M698.6009744885876,557.2592557476079 L695.1298330698523,559.2886737472309 M695.1298330698523,559.2886737472309 L690.9092693137716,560.7738690908901 M690.9092693137716,560.7738690908901 L686.1849158129438,561.628109767179 M686.1849158129438,561.628109767179 L681.2320018957029,561.8014925449106 M681.2320018957029,561.8014925449106 L676.3391591751573,561.2838806680379 M676.3391591751573,561.2838806680379 L671.7914915687606,560.1055250335548 M671.7914915687606,560.1055250335548 L667.8538427040531,558.3352632177321 M667.8067582435324,563.9338358109794 L664.7088571413016,561.6744742148023 M664.7088571413016,561.6744742148023 L662.6296722199244,559.0581747824203 M662.6296722199244,559.0581747824203 L661.6895035821493,556.2373244165374 M661.6895035821493,556.2373244165374 L661.9422649761101,553.37602834965 M661.9422649761101,553.37602834965 L663.3724753871553,550.6405199401195 M663.3724753871553,550.6405199401195 L665.8963369882966,548.1895068371534 M665.8963369882966,548.1895068371534 L669.3668078562893,546.1650320450653 M669.3668078562893,546.1650320450653 L673.5821923717657,544.6842884951973 M673.5821923717657,544.6842884951973 L678.2978584381303,543.8329170602074 M678.2978584381303,543.8329170602074 L683.240413097022,543.6601459879558 M683.240413097022,543.6601459879558 L688.1233997014584,544.1759599562143 M688.1233997014584,544.1759599562143 L692.6637804193805,545.3505316362607 M692.6637804193805,545.3505316362607 L696.5982152295413,547.1159599898485 M667.8538427040531,558.3352632177321 L664.7552405810175,556.0764042084938 M664.7552405810175,556.0764042084938 L662.6755812786793,553.460686989715 M662.6755812786793,553.460686989715 L661.7351922335191,550.6404646298884 M661.7351922335191,550.6404646298884 L661.9879996751276,547.7798058629523 M661.9879996751276,547.7798058629523 L663.4185195585605,545.0449070091192 M663.4185195585605,545.0449070091192 L665.9429357713029,542.5944402938477 M665.9429357713029,542.5944402938477 L669.4141739912527,540.5704169654823 M669.4141739912527,540.5704169654823 L673.6304939991013,539.0900037181101 M673.6304939991013,539.0900037181101 L678.3472094888139,538.23882222989 M678.3472094888139,538.23882222989 L683.2908668060988,538.0660897071925 M683.2908668060988,538.0660897071925 L688.1749455731629,538.5817885875841 M688.1749455731629,538.5817885875841 L692.7163448189826,539.7560982337895 M692.7163448189826,539.7560982337895 L696.651665568551,541.5211328324131 M678.0125613392277,557.9723476792144 L678.0619043073258,552.3751015907088 M686.4100661759854,553.0671359137741 L686.4612658563373,547.4709822444988 M678.0125613392277,557.9723476792144 L677.108779821312,557.3139071135582 M677.108779821312,557.3139071135582 L676.5017208966245,556.5512362122329 M676.5017208966245,556.5512362122329 L676.2266114749781,555.7286867623486 M676.2266114749781,555.7286867623486 L676.2993821220583,554.8940782641968 M676.2993821220583,554.8940782641968 L676.7157161723255,554.095900253611 M676.7157161723255,554.095900253611 L677.4513950722926,553.3805310336056 M677.4513950722926,553.3805310336056 L678.4636029287255,552.789504571886 M678.4636029287255,552.789504571886 L679.6935245179441,552.3571233672285 M679.6935245179441,552.3571233672285 L681.0697227791478,552.1084977002222 M681.0697227791478,552.1084977002222 L682.512249987958,552.0580353043944 M682.512249987958,552.0580353043944 L683.9373566772963,552.2086756289036 M683.9373566772963,552.2086756289036 L685.2622763712799,552.5516774606264 M685.2622763712799,552.5516774606264 L686.4100661759854,553.0671359137741 M678.0619043073258,552.3751015907088 L677.1579182267826,551.7168076138166 M677.1579182267826,551.7168076138166 L676.5507206603709,550.9543065253742 M676.5507206603709,550.9543065253742 L676.2755465535378,550.1319402438774 M676.2755465535378,550.1319402438774 L676.3483302042521,549.2975176240914 M676.3483302042521,549.2975176240914 L676.7647541565674,548.4995174015229 M676.7647541565674,548.4995174015229 L677.50059461454,547.7843075437904 M677.50059461454,547.7843075437904 L678.5130262748287,547.1934127583464 M678.5130262748287,547.1934127583464 L679.7432209091297,546.7611278928659 M679.7432209091297,546.7611278928659 L681.1197256043669,546.5125576253436 M681.1197256043669,546.5125576253436 L682.5625748466799,546.4621064739601 M682.5625748466799,546.4621064739601 L683.988000487608,546.612713231827 M683.988000487608,546.612713231827 L685.3132175416504,546.955638636698 M685.3132175416504,546.955638636698 L686.4612658563373,547.4709822444988 M686.4100661759854,553.0671359137741 L687.3140203480361,553.7251255475732 M687.3140203480361,553.7251255475732 L687.9216041296613,554.4874502686336 M687.9216041296613,554.4874502686336 L688.1974529248231,555.3098369825814 M688.1974529248231,555.3098369825814 L688.1254900532027,556.1445114900687 M688.1254900532027,556.1445114900687 L687.7097953396387,556.9429395046557 M687.7097953396387,556.9429395046557 L686.9745113528895,557.658725773808 M686.9745113528895,557.658725773808 L685.9623117254208,558.2502111553879 M685.9623117254208,558.2502111553879 L684.7320097958032,558.6829880213302 M684.7320097958032,558.6829880213302 L683.3551815470245,558.9318850774275 M683.3551815470245,558.9318850774275 L681.9118485464447,558.9823920957074 M681.9118485464447,558.9823920957074 L680.4859966475115,558.8315890369706 M680.4859966475115,558.8315890369706 L679.1605397776881,558.4882463716369 M679.1605397776881,558.4882463716369 L678.0125613392277,557.9723476792144 M686.4612658563373,547.4709822444988 L687.3654246684621,548.1288252904177 M687.3654246684621,548.1288252904177 L687.9731473239792,548.8909801989541 M687.9731473239792,548.8909801989541 L688.249061134129,549.7131837444026 M688.249061134129,549.7131837444026 L688.1770856159874,550.5476723711809 M688.1770856159874,550.5476723711809 L687.7613012912976,551.3459226003113 M687.7613012912976,551.3459226003113 L687.0258559205392,552.0615495050888 M687.0258559205392,552.0615495050888 L686.0134324947322,552.652903210709 M686.0134324947322,552.652903210709 L684.7828573558064,553.0855837401352 M684.7828573558064,553.0855837401352 L683.4057223883403,553.3344253945468 M683.4057223883403,553.3344253945468 L681.9620669984748,553.3849211708015 M681.9620669984748,553.3849211708015 L680.5358958142377,553.2341516785953 M680.5358958142377,553.2341516785953 L679.210141343928,552.8908854392814 M679.210141343928,552.8908854392814 L678.0619043073258,552.3751015907088" stroke="black"  stroke-width="4"  fill="red"/>
<path d="M777.0316641310089,475.1289542116609 L781.3967168477342,473.69026401074734 M781.3967168477342,473.69026401074734 L784.9939671035614,471.6742369166469 M784.9939671035614,471.6742369166469 L787.6022019825583,469.20532151408145 M787.6022019825583,469.20532151408145 L789.0613871053179,466.43578346796016 M789.0613871053179,466.43578346796016 L789.2825356352313,463.5362064894955 M789.2825356352313,463.5362064894955 L788.2528607107265,460.6849704013155 M788.2528607107265,460.6849704013155 L786.0364899426357,458.057207454295 M786.0364899426357,458.057207454295 L782.7702352301632,455.81414148989046 M782.7702352301632,455.81414148989046 L778.6551229354442,454.09322199910366 M778.6551229354442,454.09322199910366 L773.9439114183119,452.99981314062825 M773.9439114183119,452.99981314062825 L768.9257457086097,452.6007951179703 M768.9257457086097,452.6007951179703 L763.9083189690834,452.9205940210507 M763.9083189690834,452.9205940210507 L759.1993911324843,453.93962972253837 M759.1993911324843,453.93962972253837 L755.0878774268648,455.5955763041391 M755.0878774268648,455.5955763041391 L751.8263217003732,457.7870543038743 M751.8263217003732,457.7870543038743 L749.6154210936528,460.37978995776945 M749.6154210936528,460.37978995776945 L748.5916486882794,463.21474045794935 M748.6562301801717,457.6424796157023 L748.5916486882794,463.21474045794935 M748.6562301801717,457.6424796157023 L749.6802147511787,454.80816950767036 M749.6802147511787,454.80816950767036 L751.8915916989245,452.216019781951 M751.8915916989245,452.216019781951 L755.1538584187863,450.02503721735974 M755.1538584187863,450.02503721735974 L759.2662739876547,448.369465114787 M759.2662739876547,448.369465114787 L763.9762392233193,447.3506599085437 M763.9762392233193,447.3506599085437 L768.994775387682,447.0309333482567 M768.994775387682,447.0309333482567 L774.0140546811714,447.4298611082582 M774.0140546811714,447.4298611082582 L778.726315843199,448.52302265358617 M778.726315843199,448.52302265358617 L782.84234956155,450.24355298363815 M782.84234956155,450.24355298363815 L786.109340941364,452.4861118697304 M786.109340941364,452.4861118697304 L788.3262182508341,455.1132809997122 M788.3262182508341,455.1132809997122 L789.3561382103292,457.96387304875265 M789.3561382103292,457.96387304875265 L789.1349577883267,460.8627953654887 M789.1349577883267,460.8627953654887 L787.6754654387701,463.6317083892106 M787.6754654387701,463.6317083892106 L785.0666665677679,466.1000668432529 M785.0666665677679,466.1000668432529 L781.4686300685713,468.11563931418993 M781.4686300685713,468.11563931418993 L777.1026172087076,469.5540051724344 M777.1026172087076,469.5540051724344 L777.0316641310089,475.1289542116609 M748.5916486882794,463.21474045794935 L758.3536088974017,466.95158414158675 M758.3536088974017,466.95158414158675 L767.8393344573157,470.92526809267605 M767.8393344573157,470.92526809267605 L777.0316641310089,475.1289542116609 M764.7883481196412,466.7165201685498 L765.9307599986525,467.224611024307 M765.9307599986525,467.224611024307 L767.2480619036911,467.5627466813836 M767.2480619036911,467.5627466813836 L768.6636321594116,467.71126498383603 M768.6636321594116,467.71126498383603 L770.095154951654,467.6615179120403 M770.095154951654,467.6615179120403 L771.4593503924942,467.41640229996824 M771.4593503924942,467.41640229996824 L772.6769172624854,466.9901741225955 M772.6769172624854,466.9901741225955 L773.677025710919,466.40765202938604 M773.677025710919,466.40765202938604 L774.4015830386232,465.70271155044986 M774.4015830386232,465.70271155044986 L774.8084889695272,464.9163778460206 M774.8084889695272,464.9163778460206 L774.874169868159,464.0943511141943 M774.874169868159,464.0943511141943 L774.5948733996867,463.2844199427293 M774.5948733996867,463.2844199427293 L773.9868984873282,462.5336324410565 M773.9868984873282,462.5336324410565 L773.0855913144908,461.8856045947091 M773.0855913144908,461.8856045947091 L771.9433866190315,461.3779543614797 M771.9433866190315,461.3779543614797 L770.6266112405262,461.04015431753453 M770.6266112405262,461.04015431753453 L769.2117755225502,460.8917950127024 M769.2117755225502,460.8917950127024 L767.7810270159816,460.9414880396396 M767.7810270159816,460.9414880396396 L766.4174682219045,461.18634894637245 M766.4174682219045,461.18634894637245 L765.200254524277,461.61218009747813 M765.200254524277,461.61218009747813 L764.2001348551056,462.1942538097702 M764.2001348551056,462.1942538097702 L763.4752044838369,462.89879726063987 M763.4752044838369,462.89879726063987 L763.0676491581103,463.68487625558566 M763.0676491581103,463.68487625558566 L763.0011912688475,464.5068489396349 M763.0011912688475,464.5068489396349 L763.2797611574533,465.31693910955147 M763.2797611574533,465.31693910955147 L763.8872263409188,466.0680622341338 M763.8872263409188,466.0680622341338 L764.7883481196412,466.7165201685498 M748.6562301801717,457.6424796157023 L758.4203741692393,461.37847961382994 M758.4203741692393,461.37847961382994 L767.9082248527625,465.35126695196124 M767.9082248527625,465.35126695196124 L777.1026172087076,469.5540051724344 M764.8565388001441,461.1434686976925 L763.9552136908595,460.49515713859387 M763.9552136908595,460.49515713859387 L763.3476097391907,459.74420358247335 M763.3476097391907,459.74420358247335 L763.0689736856165,458.9342963155212 M763.0689736856165,458.9342963155212 L763.1354418320309,458.11250924115063 M763.1354418320309,458.11250924115063 L763.5430832111444,457.3266077732187 M763.5430832111444,457.3266077732187 L764.2681704102486,456.62222345417194 M764.2681704102486,456.62222345417194 L765.2685085480339,456.0402812253796 M765.2685085480339,456.0402812253796 L766.4859896641626,455.61454627208155 M766.4859896641626,455.61454627208155 L767.8498492898494,455.36974068381613 M767.8498492898494,455.36974068381613 L769.280914589654,455.3200588836846 M769.280914589654,455.3200588836846 L770.6960646767701,455.46838467097376 M770.6960646767701,455.46838467097376 L772.0131337614862,455.8061084015792 M772.0131337614862,455.8061084015792 L773.1555944448095,456.31364395778064 M773.1555944448095,456.31364395778064 L774.0571050259605,456.96152542944264 M774.0571050259605,456.96152542944264 L774.6652189306684,457.71214336405717 M774.6652189306684,457.71214336405717 L774.9445818853851,458.5218916332228 M774.9445818853851,458.5218916332228 L774.8788910744116,459.34373275514434 M774.8788910744116,459.34373275514434 L774.4718993794697,460.12988893149446 M774.4718993794697,460.12988893149446 L773.7471853915372,460.8346702769474 M773.7471853915372,460.8346702769474 L772.7468584819533,461.4170608847818 M772.7468584819533,461.4170608847818 L771.5290240390713,461.8431928626866 M771.5290240390713,461.8431928626866 L770.1645274857518,462.0882531552259 M770.1645274857518,462.0882531552259 L768.7326875572627,462.13798899998983 M768.7326875572627,462.13798899998983 L767.316802605833,461.98950421574534 M767.316802605833,461.98950421574534 L765.9992067592642,461.651444873412 M765.9992067592642,461.651444873412 L764.8565388001441,461.1434686976925 M764.7883481196412,466.7165201685498 L764.8565388001441,461.1434686976925" stroke="black"  stroke-width="4"  fill="red"/>
<path d="M392.11953006427945,693.8834007957734 L392.1342315618804,699.5080330188033 M392.11953006427945,693.8834007957734 L389.55478257785387,696.5038520435396 M389.55478257785387,696.5038520435396 L385.9664674489842,698.6776493482515 M385.9664674489842,698.6776493482515 L381.57518578471354,700.2706095723611 M381.57518578471354,700.2706095723611 L376.65137519931034,701.1842902371998 M376.65137519931034,701.1842902371998 L371.49853169219364,701.3622296314973 M371.49853169219364,701.3622296314973 L366.43443500143957,700.7934024314637 M366.43443500143957,700.7934024314637 L361.7712843898114,699.5129933151518 M361.7712843898114,699.5129933151518 L357.79641554521316,697.6001282021302 M357.79641554521316,697.6001282021302 L354.75441779017524,695.1729555804923 M354.75441779017524,695.1729555804923 L352.8320978621245,692.3812074469563 M352.8320978621245,692.3812074469563 L352.14699952537023,689.3969519663224 M352.14699952537023,689.3969519663224 L352.74043820205196,686.4038004347624 M352.74043820205196,686.4038004347624 L354.5750198503587,683.5857274599542 M354.5750198503587,683.5857274599542 L357.5372963842706,681.1156733751238 M357.5372963842706,681.1156733751238 L361.44479012850144,679.1450446722051 M361.44479012850144,679.1450446722051 L366.05735169092105,677.7945114719339 M366.05735169092105,677.7945114719339 L371.091870081435,677.1467083609925 M371.091870081435,677.1467083609925 L371.1112941013021,682.7676956966213 M371.1112941013021,682.7676956966213 L366.0779120880722,683.415640070545 M366.0779120880722,683.415640070545 L361.46639305230667,684.766467726365 M361.46639305230667,684.766467726365 L357.55978411580446,686.737525967178 M357.55978411580446,686.737525967178 L354.598180321695,689.2081182543542 M354.598180321695,689.2081182543542 L352.76401783726453,692.0268049963407 M352.76401783726453,692.0268049963407 L352.17071868097554,695.0206081169408 M352.17071868097554,695.0206081169408 L352.85566791712915,698.0055129324134 M352.85566791712915,698.0055129324134 L354.7775589157384,700.7978682266219 M354.7775589157384,700.7978682266219 L357.81887399362995,703.2255684940482 M357.81887399362995,703.2255684940482 L361.7928482744854,705.1388492991621 M361.7928482744854,705.1388492991621 L366.454947519142,706.4195365933202 M366.454947519142,706.4195365933202 L371.51790095022955,706.9884873563179 M371.51790095022955,706.9884873563179 L376.66957997205014,706.8105093105379 M376.66957997205014,706.8105093105379 L381.59227686036525,705.8966301608599 M381.59227686036525,705.8966301608599 L385.9825644264792,704.3033238164693 M385.9825644264792,704.3033238164693 L389.57006636728516,702.129054040726 M389.57006636728516,702.129054040726 L392.1342315618804,699.5080330188033 M392.1342315618804,699.5080330188033 L384.7121088041765,694.1011505701244 M384.7121088041765,694.1011505701244 L377.70026564558214,688.5174678062208 M377.70026564558214,688.5174678062208 L371.1112941013021,682.7676956966213 M368.6520612225231,697.3595075794336 L369.7991687655411,697.8865855218352 M369.7991687655411,697.8865855218352 L371.12990949507997,698.237357570726 M371.12990949507997,698.237357570726 L372.56687904167353,698.3914262287703 M372.56687904167353,698.3914262287703 L374.0265164166874,698.3398200254164 M374.0265164166874,698.3398200254164 L375.4239048047733,698.0855441429837 M375.4239048047733,698.0855441429837 L376.6778121910683,697.6433877381621 M376.6778121910683,697.6433877381621 L377.7152933258479,697.039097590185 M377.7152933258479,697.039097590185 L378.4760834010527,696.3078158477031 M378.4760834010527,696.3078158477031 L378.9159753300475,695.4921012952512 M378.9159753300475,695.4921012952512 L379.00948081652376,694.6393621066552 M379.00948081652376,694.6393621066552 L378.75123241282137,693.7991724286866 M378.75123241282137,693.7991724286866 L378.15630894483843,693.020337796152 M378.15630894483843,693.020337796152 L377.2592997218554,692.348103003514 M377.2592997218554,692.348103003514 L376.11239239985787,691.8214905050766 M376.11239239985787,691.8214905050766 L374.78218680067204,691.4710730523 M374.78218680067204,691.4710730523 L373.3459739916348,691.3171723851152 M373.3459739916348,691.3171723851152 L371.88714161286345,691.3687214867199 M371.88714161286345,691.3687214867199 L370.49042205713886,691.6227282571448 M370.49042205713886,691.6227282571448 L369.23689413131467,692.0644651790609 M369.23689413131467,692.0644651790609 L368.19941614330173,692.668281584756 M368.19941614330173,692.668281584756 L367.4382521803709,693.399143842432 M367.4382521803709,693.399143842432 L366.9976949941779,694.2145892784987 M366.9976949941779,694.2145892784987 L366.9033852701274,695.0672713622623 M366.9033852701274,695.0672713622623 L367.16087470458035,695.9076290319678 M367.16087470458035,695.9076290319678 L367.75525833137846,696.6868182709467 M367.75525833137846,696.6868182709467 L368.6520612225231,697.3595075794336 M392.11953006427945,693.8834007957734 L384.695737945322,688.4776945017563 M384.695737945322,688.4776945017563 L377.68231969007525,682.8952274436241 M377.68231969007525,682.8952274436241 L371.091870081435,677.1467083609925 M368.63205949369996,691.7353425988044 L367.7350551587412,691.0627996146337 M367.7350551587412,691.0627996146337 L367.14053856512425,690.2837798861128 M367.14053856512425,690.2837798861128 L366.88299234242174,689.4436050581032 M366.88299234242174,689.4436050581032 L366.9773247290438,688.5911085232183 M366.9773247290438,688.5911085232183 L367.41798268005493,687.7758405573087 M367.41798268005493,687.7758405573087 L368.17931963282706,687.0451373815661 M368.17931963282706,687.0451373815661 L369.21703276218534,686.4414524189165 M369.21703276218534,686.4414524189165 L370.4708443223134,685.99981166565 M370.4708443223134,685.99981166565 L371.8678795270997,685.7458601970933 M371.8678795270997,685.7458601970933 L373.3270412593661,685.6943223189406 M373.3270412593661,685.6943223189406 L374.7635780122419,685.84818947861 M374.7635780122419,685.84818947861 L376.09408335177096,686.1985306410464 M376.09408335177096,686.1985306410464 L377.2412488045926,686.7250284974568 M377.2412488045926,686.7250284974568 L378.138459563149,687.3971169608521 M378.138459563149,687.3971169608521 L378.7335162422749,688.1757820800468 M378.7335162422749,688.1757820800468 L378.99182177722923,689.0157889149543 M378.99182177722923,689.0157889149543 L378.8982939912893,689.8683425551358 M378.8982939912893,689.8683425551358 L378.45830159750255,690.6838796396177 M378.45830159750255,690.6838796396177 L377.69733870067483,691.4150023035751 M377.69733870067483,691.4150023035751 L376.659622422418,692.0191610123567 M376.659622422418,692.0191610123567 L375.40543122982547,692.4612212519378 M375.40543122982547,692.4612212519378 L374.00772689022943,692.7154418346893 M374.00772689022943,692.7154418346893 L372.54775979809875,692.7670368150551 M372.54775979809875,692.7670368150551 L371.11046596617615,692.613001663161 M371.11046596617615,692.613001663161 L369.77942525516136,692.2623059017286 M369.77942525516136,692.2623059017286 L368.63205949369996,691.7353425988044 M368.6520612225231,697.3595075794336 L368.63205949369996,691.7353425988044" stroke="black"  stroke-width="4"  fill="red"/>
<path d="M333.78504174272445,623.7726461078237 L333.81276151502146,629.3819431096026 M333.78504174272445,623.7726461078237 L329.75428235357293,625.5129686291058 M329.75428235357293,625.5129686291058 L325.1268262316993,626.6420057178799 M325.1268262316993,626.6420057178799 L320.17441005842994,627.0932567051689 M320.17441005842994,627.0932567051689 L315.18802822110655,626.8401253852326 M315.18802822110655,626.8401253852326 L310.46064597081454,625.8975384314653 M310.46064597081454,625.8975384314653 L306.2699322379855,624.3210103896288 M306.2699322379855,624.3210103896288 L302.86175951859093,622.2033692525863 M302.86175951859093,622.2033692525863 L300.4358277175228,619.669147043164 M300.4358277175228,619.669147043164 L299.1338104798528,616.8672774139806 M299.1338104798528,616.8672774139806 L299.0313352474404,613.9621634395289 M299.0313352474404,613.9621634395289 L300.13357037659944,611.1240739285179 M300.13357037659944,611.1240739285179 L302.37519878632224,608.5191092292498 M302.37519878632224,608.5191092292498 L305.62437739799645,606.299537714428 M305.62437739799645,606.299537714428 L309.69059482167654,604.5949460342479 M309.69059482167654,604.5949460342479 L314.33580498665356,603.5047887618124 M314.33580498665356,603.5047887618124 L319.28843634218424,603.0925972441398 M319.28843634218424,603.0925972441398 L324.25903676070675,603.382404952138 M324.25903676070675,603.382404952138 L328.9571561176264,604.3573158483595 M328.9571561176264,604.3573158483595 L328.9859157135123,609.9623352170734 M328.9859157135123,609.9623352170734 L324.2888474292642,608.9872091721755 M324.2888474292642,608.9872091721755 L319.3193606865143,608.6973375012994 M319.3193606865143,608.6973375012994 L314.3678407122039,609.109619992037 M314.3678407122039,609.109619992037 L309.7236748557274,610.2000178393628 M309.7236748557274,610.2000178393628 L305.65837374709184,611.9049856024279 M305.65837374709184,611.9049856024279 L302.40992987254367,614.1250466647067 M302.40992987254367,614.1250466647067 L300.1688115137439,616.7305856897804 M300.1688115137439,616.7305856897804 L299.0668316427948,619.5693006494146 M299.0668316427948,619.5693006494146 L299.16929205478954,622.4750545460595 M299.16929205478954,622.4750545460595 L300.47102489133664,625.2775410706597 M300.47102489133664,625.2775410706597 L302.89641906758357,627.8123210060606 M302.89641906758357,627.8123210060606 L306.3038322367438,629.9304280134596 M306.3038322367438,629.9304280134596 L310.4936089857315,631.5073027798132 M310.4936089857315,631.5073027798132 L315.2199318657325,632.4500969936796 M315.2199318657325,632.4500969936796 L320.2051943135256,632.7032839678373 M320.2051943135256,632.7032839678373 L325.1564970258705,632.2519337655428 M325.1564970258705,632.2519337655428 L329.78291121533636,631.1226484074944 M329.78291121533636,631.1226484074944 L333.81276151502146,629.3819431096026 M333.81276151502146,629.3819431096026 L331.746123267625,622.9437150392778 M331.746123267625,622.9437150392778 L330.1365010657795,616.4668631530383 M330.1365010657795,616.4668631530383 L328.9859157135123,609.9623352170734 M315.3374824073986,623.1680388226171 L316.47567644277206,623.6889684440748 M316.47567644277206,623.6889684440748 L317.7971729040908,624.035651772874 M317.7971729040908,624.035651772874 L319.2250962714151,624.187923924978 M319.2250962714151,624.187923924978 L320.6764120255653,624.1369181239463 M320.6764120255653,624.1369181239463 L322.0666923461886,623.885607182717 M322.0666923461886,623.885607182717 L323.3151141030973,623.4486049779564 M323.3151141030973,623.4486049779564 L324.34905573912795,622.8513605742077 M324.34905573912795,622.8513605742077 L325.108457880805,622.1286061444383 M325.108457880805,622.1286061444383 L325.5491891440104,621.3224013761969 M325.5491891440104,621.3224013761969 L325.6457162848336,620.479604314971 M325.6457162848336,620.479604314971 L325.3924909083513,619.6492084714046 M325.3924909083513,619.6492084714046 L324.8042992295,618.8794505528085 M324.8042992295,618.8794505528085 L323.9153481511061,618.2150535541444 M323.9153481511061,618.2150535541444 L322.7773408916142,617.6945758949362 M322.7773408916142,617.6945758949362 L321.4563718501173,617.348240981352 M321.4563718501173,617.348240981352 L320.02919570128057,617.1961338912772 M320.02919570128057,617.1961338912772 L318.5786757953531,617.2470835846237 M318.5786757953531,617.2470835846237 L317.1890576283808,617.498130105773 M317.1890576283808,617.498130105773 L315.9410126494519,617.9347201400701 M315.9410126494519,617.9347201400701 L314.90707609170937,618.5314990614179 M314.90707609170937,618.5314990614179 L314.14730616540714,619.2538413209606 M314.14730616540714,619.2538413209606 L313.7059185181573,620.0597816648203 M313.7059185181573,620.0597816648203 L313.6085967534342,620.9025226167375 M313.6085967534342,620.9025226167375 L313.86107130988285,621.7330835227749 M313.86107130988285,621.7330835227749 L314.44872796652714,622.5031898657511 M314.44872796652714,622.5031898657511 L315.3374824073986,623.1680388226171 M333.78504174272445,623.7726461078237 L331.7179536900935,617.3358347241697 M331.7179536900935,617.3358347241697 L330.10798478923397,610.860409511814 M330.10798478923397,610.860409511814 L328.9571561176264,604.3573158483595 M315.30562861542523,617.5601091218416 L314.416676340316,616.8954065390153 M314.416676340316,616.8954065390153 L313.8288897279204,616.1254697633484 M313.8288897279204,616.1254697633484 L313.57636062106434,615.2950917595758 M313.57636062106434,615.2950917595758 L313.67370638339366,614.4525364172464 M313.67370638339366,614.4525364172464 L314.11519514964203,613.6467736014615 M314.11519514964203,613.6467736014615 L314.87513742005524,612.9245904751122 M314.87513742005524,612.9245904751122 L315.9093075104031,612.3279430391534 M315.9093075104031,612.3279430391534 L317.15763364544307,611.8914492046367 M317.15763364544307,611.8914492046367 L318.547564258777,611.6404580030301 M318.547564258777,611.6404580030301 L319.9984097756324,611.5895195370149 M319.9984097756324,611.5895195370149 L321.42590580389714,611.7415931088753 M321.42590580389714,611.7415931088753 L322.7471704351094,612.0878517074059 M322.7471704351094,612.0878517074059 L323.88543182944153,612.6082146871556 M323.88543182944153,612.6082146871556 L324.7745808314626,613.2724653098965 M324.7745808314626,613.2724653098965 L325.3629027071218,614.0420536597312 M325.3629027071218,614.0420536597312 L325.6161829715033,614.8722666003453 M325.6161829715033,614.8722666003453 L325.51963218968996,615.714878052217 M325.51963218968996,615.714878052217 L325.07880010152775,616.5209052934856 M325.07880010152775,616.5209052934856 L324.31922577985017,617.2435005917791 M324.31922577985017,617.2435005917791 L323.285050607794,617.8406135120784 M323.285050607794,617.8406135120784 L322.03634752460647,618.2775195187767 M322.03634752460647,618.2775195187767 L320.64575445969393,618.5287751415649 M320.64575445969393,618.5287751415649 L319.1941127371752,618.5797697154991 M319.1941127371752,618.5797697154991 L317.7658691553568,618.4275310809219 M317.7658691553568,618.4275310809219 L316.4440768683862,618.0809240657242 M316.4440768683862,618.0809240657242 L315.30562861542523,617.5601091218416 M315.3374824073986,623.1680388226171 L315.30562861542523,617.5601091218416" stroke="black"  stroke-width="4"  fill="red"/>
<path d="M658.0273726790858,441.92494030799656 L660.9390059887019,439.66110147154524 M660.9390059887019,439.66110147154524 L662.8081724318544,437.0587923521848 M662.8081724318544,437.0587923521848 L663.525898289384,434.2708280211642 M663.525898289384,434.2708280211642 L663.050867719248,431.4607232180288 M663.050867719248,431.4607232180288 L661.4117130051409,428.7930483274331 M661.4117130051409,428.7930483274331 L658.7050882701727,426.42385254847693 M658.7050882701727,426.42385254847693 L655.089940025656,424.49153881894813 M655.089940025656,424.49153881894813 L650.7780025954024,423.108909192616 M650.7780025954024,423.108909192616 L646.02157894321,422.35656702592837 M646.02157894321,422.35656702592837 L641.0986650588733,422.27838474409344 M641.0986650588733,422.27838474409344 L636.2969611993069,422.87890620840506 M636.2969611993069,422.87890620840506 L631.8971090878393,424.123135611621 M631.8971090878393,424.123135611621 L628.1564515368191,425.9385235129667 M628.1564515368191,425.9385235129667 L625.2940392568054,428.2191461406457 M625.2940392568054,428.2191461406457 L623.477884735659,430.831776001312 M623.477884735659,430.831776001312 L622.8149470477485,433.62365659312144 M622.8149470477485,433.62365659312144 L623.3448547006493,436.43130609659266 M623.3448547006493,436.43130609659266 L625.0373172850407,439.0901242434214 M625.0744407516778,433.523322092975 L625.0373172850407,439.0901242434214 M625.0744407516778,433.523322092975 L623.381595895774,430.86510682559265 M623.381595895774,430.86510682559265 L622.8515627652846,428.05809422172746 M622.8515627652846,428.05809422172746 L623.5146387828986,425.2668472305838 M623.5146387828986,425.2668472305838 L625.3311869939338,422.65481054192327 M625.3311869939338,422.65481054192327 L628.1942250089443,420.3747059058163 M628.1942250089443,420.3747059058163 L631.9357035547657,418.5597304608532 M631.9357035547657,418.5597304608532 L636.3365238711019,417.31578381446246 M636.3365238711019,417.31578381446246 L641.1392866209657,416.7153988411119 M641.1392866209657,416.7153988411119 L646.0632883505153,416.79356335237276 M646.0632883505153,416.79356335237276 L650.8207654023706,417.5457345252924 M650.8207654023706,417.5457345252924 L655.1336603700233,418.9280499574361 M655.1336603700233,418.9280499574361 L658.7496143545329,420.85992469436934 M658.7496143545329,420.85992469436934 L661.4568458544668,423.2285824090261 M661.4568458544668,423.2285824090261 L663.0963726584139,425.8956516872731 M663.0963726584139,425.8956516872731 L663.5715185703128,428.7051188176699 M663.5715185703128,428.7051188176699 L662.8536442000327,431.4924507777839 M662.8536442000327,431.4924507777839 L660.9840737604678,434.0941698864489 M660.9840737604678,434.0941698864489 L658.0718043962456,436.3574956481626 M658.0718043962456,436.3574956481626 L658.0273726790858,441.92494030799656 M625.0373172850407,439.0901242434214 L636.0930726332673,439.77721774073734 M636.0930726332673,439.77721774073734 L647.0956703972834,440.72264789726063 M647.0956703972834,440.72264789726063 L658.0273726790858,441.92494030799656 M639.0088188364443,436.2754703144233 L640.1433174979677,436.78107858747615 M640.1433174979677,436.78107858747615 L641.4539972641793,437.117565078825 M641.4539972641793,437.117565078825 L642.8646125945393,437.2653584334829 M642.8646125945393,437.2653584334829 L644.2931360747043,437.21585287753726 M644.2931360747043,437.21585287753726 L645.6564669202535,436.97193371488504 M645.6564669202535,436.97193371488504 L646.8753496136421,436.5477846606984 M646.8753496136421,436.5477846606984 L647.8788820784791,435.96810576227904 M647.8788820784791,435.96810576227904 L648.6087723332902,435.26660711525426 M648.6087723332902,435.26660711525426 L649.0226050211561,434.4841109500516 M649.0226050211561,434.4841109500516 L649.0964082358718,433.666097001719 M649.0964082358718,433.666097001719 L648.8259526453766,432.86011801967004 M648.8259526453766,432.86011801967004 L648.2270232809503,432.1129925681474 M648.2270232809503,432.1129925681474 L647.3344497626834,431.4681291225128 M647.3344497626834,431.4681291225128 L646.2001436380509,430.96295302384834 M646.2001436380509,430.96295302384834 L644.8899844577561,430.62679969336114 M644.8899844577561,430.62679969336114 L643.4800984834983,430.479164173968 M643.4800984834983,430.479164173968 L642.052346052389,430.5286160787417 M642.052346052389,430.5286160787417 L640.6896513059752,430.7722823981832 M640.6896513059752,430.7722823981832 L639.4711240488394,431.1960373275989 M639.4711240488394,431.1960373275989 L638.4675849231186,431.77527112341875 M638.4675849231186,431.77527112341875 L637.7373274360571,432.4763756458984 M637.7373274360571,432.4763756458984 L637.322851081536,433.25861896377626 M637.322851081536,433.25861896377626 L637.2482752120421,434.0765792593839 M637.2482752120421,434.0765792593839 L637.5180061704187,434.8827160771206 M637.5180061704187,434.8827160771206 L638.1164249204003,435.6301746982698 M638.1164249204003,435.6301746982698 L639.0088188364443,436.2754703144233 M625.0744407516778,433.523322092975 L636.1326440611498,434.2102598346997 M636.1326440611498,434.2102598346997 L647.1376791690313,435.1554757013698 M647.1376791690313,435.1554757013698 L658.0718043962456,436.3574956481626 M639.0490239956731,430.7093063865473 L638.1564306296165,430.0641571308516 M638.1564306296165,430.0641571308516 L637.5578771344806,429.31686806042535 M637.5578771344806,429.31686806042535 L637.2880839427452,428.5109141260376 M637.2880839427452,428.5109141260376 L637.362673681213,427.6931394197354 M637.362673681213,427.6931394197354 L637.7772391704515,426.911073609509 M637.7772391704515,426.911073609509 L638.5076558585365,426.2101282010655 M638.5076558585365,426.2101282010655 L639.5114149792529,425.6310258741996 M639.5114149792529,425.6310258741996 L640.7302102460607,425.20736713219213 M640.7302102460607,425.20736713219213 L642.0932054467966,424.96375612504596 M642.0932054467966,424.96375612504596 L643.5212733462746,424.91431544612084 M643.5212733462746,424.91431544612084 L644.9314714950524,425.06191745171424 M644.9314714950524,425.06191745171424 L646.2419214444323,425.3979944770666 M646.2419214444323,425.3979944770666 L647.3764800476598,425.9030559108301 M647.3764800476598,425.9030559108301 L648.2692530939478,426.54777299851645 M648.2692530939478,426.54777299851645 L648.8683174282737,427.29472890125095 M648.8683174282737,427.29472890125095 L649.1388355721144,428.1005250008674 M649.1388355721144,428.1005250008674 L649.0650188303529,428.918353359583 M649.0650188303529,428.918353359583 L648.6510972933048,429.70067201566593 M648.6510972933048,429.70067201566593 L647.9210480012042,430.40201154636594 M647.9210480012042,430.40201154636594 L646.9172955457914,430.9815589732467 M646.9172955457914,430.9815589732467 L645.6981446868236,431.40561183773667 M645.6981446868236,431.40561183773667 L644.3345131064385,431.64947568662524 M644.3345131064385,431.64947568662524 L642.9056738170424,431.6989700164108 M642.9056738170424,431.6989700164108 L641.4947459890409,431.5512101764691 M641.4947459890409,431.5512101764691 L640.1837752223826,431.2147999921897 M640.1837752223826,431.2147999921897 L639.0490239956731,430.7093063865473 M639.0088188364443,436.2754703144233 L639.0490239956731,430.7093063865473" stroke="black"  stroke-width="4"  fill="red"/>
<path d="M400.97432883246495,705.3770111322553 L388.60177777021096,696.993982496892 M388.60177777021096,696.993982496892 L377.2563310708131,688.1464337331405 M377.2563310708131,688.1464337331405 L366.9901060336417,678.8775900485797 M366.9901060336417,678.8775900485797 L357.8497131291362,669.232600202732 M357.8497131291362,669.232600202732 L349.8760503486808,659.2582003884862 M349.8760503486808,659.2582003884862 L343.1042369354518,649.0025235770576 M343.1042369354518,649.0025235770576 L337.5634073405638,638.5148260534932 M337.5634073405638,638.5148260534932 L333.276706298918,627.8452232195507 M333.276706298918,627.8452232195507 L330.2611481550441,617.0444566920987 M330.2611481550441,617.0444566920987 L328.5276515635691,606.1636254489867 M328.5276515635691,606.1636254489867 L328.08103334132284,595.253951697269 M328.08103334132284,595.253951697269 L328.92005538501775,584.3665178917149 M328.92005538501775,584.3665178917149 L331.03746668391426,573.5520504017466 M331.03746668391426,573.5520504017466 L334.42013474546656,562.8606650508693 M334.42013474546656,562.8606650508693 L339.04913433242666,552.3416603439297 M339.04913433242666,552.3416603439297 L344.89991664413645,542.043290332142 M344.89991664413645,542.043290332142 L351.9424738478648,532.0125543296026 M351.9424738478648,532.0125543296026 L360.141513944972,522.2950122115312 M360.08744328925815,508.32649219495477 L360.141513944972,522.2950122115312 M400.94254112310813,691.3074730676934 L388.56302400124684,682.9290047422264 M388.56302400124684,682.9290047422264 L377.21120177948217,674.0862757652761 M377.21120177948217,674.0862757652761 L366.9392204632015,664.8224888412105 M366.9392204632015,664.8224888412105 L357.7937158287567,655.1827690826769 M357.7937158287567,655.1827690826769 L349.8156076799819,645.2138280522171 M349.8156076799819,645.2138280522171 L343.0400335691515,634.9637731903827 M343.0400335691515,634.9637731903827 L337.496142669675,624.4818344822868 M337.496142669675,624.4818344822868 L333.2070908859046,613.8181003895822 M333.2070908859046,613.8181003895822 L330.1899001398149,603.023285064086 M330.1899001398149,603.023285064086 L328.45549313371123,592.1484596321546 M328.45549313371123,592.1484596321546 L328.00868724312437,581.2448181859703 M328.00868724312437,581.2448181859703 L328.84824150610024,570.3634149447703 M328.84824150610024,570.3634149447703 L330.9668987044893,559.5549480424509 M330.9668987044893,559.5549480424509 L334.3515169076648,548.8695052124194 M334.3515169076648,548.8695052124194 L338.9831583018752,538.3563571373663 M338.9831583018752,538.3563571373663 L344.8372585064818,528.0637304514173 M344.8372585064818,528.0637304514173 L351.8837912343955,518.0385975875047 M351.8837912343955,518.0385975875047 L360.08744328925815,508.32649219495477 M400.94254112310813,691.3074730676934 L400.97432883246495,705.3770111322553 M475.06666650137157,456.3309008538122 L491.8068248180501,451.7018409435564 M491.8068248180501,451.7018409435564 L509.0496318702876,447.74277259549757 M509.0496318702876,447.74277259549757 L526.7168067689927,444.4709212240511 M526.7168067689927,444.4709212240511 L544.7283750852273,441.9004922246882 M544.7283750852273,441.9004922246882 L563.0029726404841,440.0426316451758 M563.0029726404841,440.0426316451758 L581.4581790315352,438.90539144833724 M581.4581790315352,438.90539144833724 L600.0108658950146,438.4936898568121 M600.0108658950146,438.4936898568121 L618.5774975725463,438.8093137134681 M618.5774975725463,438.8093137134681 L637.0745004348664,439.8508925549369 M637.0745004348664,439.8508925549369 L655.4185564982827,441.61391775419844 M655.4185564982827,441.61391775419844 L673.5269663410253,444.09075303101 M673.5269663410253,444.09075303101 L691.3179548725615,447.2706679502484 M691.3179548725615,447.2706679502484 L708.711028491039,451.1398411737626 M708.711028491039,451.1398411737626 L725.6272680046252,455.68145455485256 M725.6272680046252,455.68145455485256 L741.9896697268227,460.8757026190153 M741.9896697268227,460.8757026190153 L757.7235029151229,466.69990705524924 M757.7235029151229,466.69990705524924 L772.7565267393802,473.1285436250941 M772.7565267393802,473.1285436250941 L787.0194562663625,480.13333983409876 M542.3375631996786,494.8792617909916 L475.06666650137157,456.3309008538122 M427.41221415657657,561.2536417870347 L542.3375631996786,494.8792617909916 M360.141513944972,522.2950122115312 L427.41221415657657,561.2536417870347 M529.1374343021849,630.5983742592498 L400.97432883246495,705.3770111322553 M661.9025225413556,553.1346432856344 L656.9493789740634,547.0265589983655 M656.9493789740634,547.0265589983655 L650.8436712670078,541.2801340857704 M650.8436712670078,541.2801340857704 L643.6645824819324,535.967929329431 M643.6645824819324,535.967929329431 L635.5046590150499,531.15686150951 M635.5046590150499,531.15686150951 L626.4685195552402,526.9073779747978 M626.4685195552402,526.9073779747978 L616.6715644595075,523.2727591968589 M616.6715644595075,523.2727591968589 L606.2384723734616,520.2984866070747 M606.2384723734616,520.2984866070747 L595.3017046120535,518.0217249698302 M595.3017046120535,518.0217249698302 L583.9998109036723,516.4708731088627 M583.9998109036723,516.4708731088627 L572.4757682749581,515.6652727687738 M572.4757682749581,515.6652727687738 L560.8752725462512,515.614956220638 M560.8752725462512,515.614956220638 L549.3449084662725,516.3205556286996 M549.3449084662725,516.3205556286996 L538.0304164323278,517.7732749958191 M538.0304164323278,517.7732749958191 L527.0749344127455,519.955006920815 M527.0749344127455,519.955006920815 L516.6172376810466,522.8385352776677 M516.6172376810466,522.8385352776677 L506.7900519791653,526.3878394180878 M506.7900519791653,526.3878394180878 L497.71841705782515,530.5585124743426 M497.71841705782515,530.5585124743426 L489.5181386455854,535.2982802819834 M489.5181386455854,535.2982802819834 L482.29431985594704,540.5476065736054 M482.29431985594704,540.5476065736054 L476.1400164511575,546.2403936875455 M476.1400164511575,546.2403936875455 L471.13503018721525,552.3047745784238 M471.13503018721525,552.3047745784238 L467.3448323498979,558.6639734981102 M467.3448323498979,558.6639734981102 L464.81965154858375,565.2372424215592 M464.81965154858375,565.2372424215592 L463.59375893627845,571.9408518301299 M463.59375893627845,571.9408518301299 L463.684938749509,578.6891487562882 M463.684938749509,578.6891487562882 L465.0941261907227,585.3956365424754 M465.0941261907227,585.3956365424754 L467.80532378681903,591.9740598207541 M467.80532378681903,591.9740598207541 L471.7856600093803,598.3395619717967 M471.7856600093803,598.3395619717967 L476.9857686037835,604.4097827899393 M476.9857686037835,604.4097827899393 L483.340277451831,610.1059346661009 M483.340277451831,610.1059346661009 L490.7686168021502,615.3538978912952 M490.7686168021502,615.3538978912952 L499.1759890520757,620.0851944875335 M499.1759890520757,620.0851944875335 L508.45457772811375,624.2379551925249 M508.45457772811375,624.2379551925249 L518.4849041420819,627.7577460267194 M518.4849041420819,627.7577460267194 L529.1374343021849,630.5983742592498 M787.0194562663625,480.13333983409876 L661.9025225413556,553.1346432856344 M492.57095034824323,632.0223398039595 L443.84963858125315,603.7322305650794 M407.0588892759715,681.8370294515354 L492.57095034824323,632.0223398039595 M443.84963858125315,603.7322305650794 L358.33813944267865,653.3234602186948 M358.33813944267865,653.3234602186948 L407.0588892759715,681.8370294515354 M427.41221415657657,561.2536417870347 L427.3955577307357,547.263376048634 M360.08744328925815,508.32649219495477 L427.3955577307357,547.263376048634 M529.1778315723105,616.5697361081183 L518.5193094350199,613.7306713548326 M518.5193094350199,613.7306713548326 L508.4833415649641,610.212818806189 M508.4833415649641,610.212818806189 L499.1995353645891,606.0623463691519 M499.1995353645891,606.0623463691519 L490.7874370085887,601.3336586973119 M490.7874370085887,601.3336586973119 L483.3549236104593,596.0885916255577 M483.3549236104593,596.0885916255577 L476.9968458026756,590.3955860142119 M476.9968458026756,590.3955860142119 L471.79381809332784,584.3287212545961 M471.79381809332784,584.3287212545961 L467.81124857261113,577.966741936129 M467.81124857261113,577.966741936129 L465.09853027647574,571.3919631140377 M465.09853027647574,571.3919631140377 L463.68855210951,564.6891946949996 M463.68855210951,564.6891946949996 L463.59731937185717,557.9446443617505 M463.59731937185717,557.9446443617505 L464.8238951799839,551.2447607471096 M464.8238951799839,551.2447607471096 L467.35048423023693,544.675149057706 M467.35048423023693,544.675149057706 L471.14279519174147,538.3194919259467 M471.14279519174147,538.3194919259467 L476.1505705289916,532.2584919738467 M476.1505705289916,532.2584919738467 L482.3083017381075,526.5688816094512 M482.3083017381075,526.5688816094512 L489.5361421068916,521.3224871575685 M489.5361421068916,521.3224871575685 L497.7409838094925,516.5853686984012 M497.7409838094925,516.5853686984012 L506.8176652484092,512.4170285414872 M506.8176652484092,512.4170285414872 L516.6503165377883,508.86971095152677 M516.6503165377883,508.86971095152677 L527.1138288957777,505.98779733458434 M527.1138288957777,505.98779733458434 L538.0754035035477,503.80728764380774 M538.0754035035477,503.80728764380774 L549.3961888284075,502.3553823435686 M549.3961888284075,502.3553823435686 L560.9329683408314,501.650178403158 M560.9329683408314,501.650178403158 L572.5399216931072,501.7004667488865 M572.5399216931072,501.7004667488865 L584.0703837035225,502.5056155809417 M584.0703837035225,502.5056155809417 L595.378578527968,504.0555984115904 M595.378578527968,504.0555984115904 L606.3214504731593,506.331084637697 M606.3214504731593,506.331084637697 L616.7603733880895,509.3036917748206 M616.7603733880895,509.3036917748206 L626.5628126489211,512.9362764057735 M626.5628126489211,512.9362764057735 L635.6040203159906,517.1833831691761 M635.6040203159906,517.1833831691761 L643.768531558311,521.9917620580013 M643.768531558311,521.9917620580013 L650.9516688594788,527.3010001872096 M650.9516688594788,527.3010001872096 L657.0608333674331,533.0442188069115 M657.0608333674331,533.0442188069115 L662.0167966798138,539.1488982294879 M787.2025131598139,466.18850552788297 L662.0167966798138,539.1488982294879 M787.2025131598139,466.18850552788297 L772.9315683492177,459.1876598133359 M772.9315683492177,459.1876598133359 L757.8901188765462,452.7626526424937 M757.8901188765462,452.7626526424937 L742.1474879359819,446.94173953679643 M742.1474879359819,446.94173953679643 L725.7759559571982,441.7504293526889 M725.7759559571982,441.7504293526889 L708.8502943797318,437.21138668655925 M708.8502943797318,437.21138668655925 L691.4475485870389,433.3444050004304 M691.4475485870389,433.3444050004304 L673.6466802955646,430.1662922130077 M673.6466802955646,430.1662922130077 L655.5282263011254,427.690861239614 M655.5282263011254,427.690861239614 L637.1740054282091,425.92883596386554 M637.1740054282091,425.92883596386554 L618.6667612110977,424.88784799781655 M618.6667612110977,424.88784799781655 L600.0898559931699,424.57240320991394 M600.0898559931699,424.57240320991394 L581.5269078490232,424.9838712248766 M581.5269078490232,424.9838712248766 L563.0614968453924,426.12046629329336 M563.0614968453924,426.12046629329336 L544.7767955527149,427.9772732016549 M544.7767955527149,427.9772732016549 L526.7552682527523,430.5462449085397 M526.7552682527523,430.5462449085397 L509.07832251919734,433.8162421696759 M509.07832251919734,433.8162421696759 L491.8259755440308,437.7730682449813 M491.8259755440308,437.7730682449813 L475.0765502122407,442.3995081918646 M542.3848614703697,480.9261254945178 L475.0765502122407,442.3995081918646 M427.3955577307357,547.263376048634 L542.3848614703697,480.9261254945178 M529.1778315723105,616.5697361081183 L400.94254112310813,691.3074730676934 M492.59080805559734,617.9929181735808 L443.8421400788441,589.7184082268599 M407.0305925148723,667.7803128458256 L492.59080805559734,617.9929181735808 M443.8421400788441,589.7184082268599 L358.2824874208507,639.2823400433917 M358.2824874208507,639.2823400433917 L407.0305925148723,667.7803128458256 M529.1778315723105,616.5697361081183 L529.1374343021849,630.5983742592498 M787.2025131598139,466.18850552788297 L787.0194562663625,480.13333983409876 M475.0765502122407,442.3995081918646 L475.06666650137157,456.3309008538122 M542.3375631996786,494.8792617909916 L542.3848614703697,480.9261254945178 M662.0167966798138,539.1488982294879 L661.9025225413556,553.1346432856344 M443.84963858125315,603.7322305650794 L443.8421400788441,589.7184082268599 M492.57095034824323,632.0223398039595 L492.59080805559734,617.9929181735808 M407.0588892759715,681.8370294515354 L407.0305925148723,667.7803128458256 M358.33813944267865,653.3234602186948 L358.2824874208507,639.2823400433917" stroke="black"  stroke-width="4"  fill="red"/>
<path d="M422.192087150788,435.38239760441684 L422.1727107239267,421.46287661907763 M323.68615258856244,491.6898675482801 L323.6119603664445,477.73852524912127 M422.192087150788,435.38239760441684 L323.68615258856244,491.6898675482801 M422.1727107239267,421.46287661907763 L323.6119603664445,477.73852524912127 M425.7862702710583,437.4435295364557 L422.192087150788,435.38239760441684 M425.7688788037564,423.5228387603434 L422.1727107239267,421.46287661907763 M425.7862702710583,437.4435295364557 L425.7688788037564,423.5228387603434 M323.68615258856244,491.6898675482801 L327.28021172561824,493.76972140789536 M327.2080042566539,479.8172091123872 L327.28021172561824,493.76972140789536 M323.6119603664445,477.73852524912127 L327.2080042566539,479.8172091123872 M425.7862702710583,437.4435295364557 L327.28021172561824,493.76972140789536 M327.2080042566539,479.8172091123872 L425.7688788037564,423.5228387603434" stroke="black"  stroke-width="4"  fill="red"/>
<path d="M387.8277974902434,510.2218036060179 L454.2123860925364,472.10710004801336 M368.59426693906386,499.10803274576296 L387.8277974902434,510.2218036060179 M368.59426693906386,499.10803274576296 L434.9786071640677,461.06096105597 M434.9786071640677,461.06096105597 L454.2123860925364,472.10710004801336 M454.2123860925364,472.10710004801336 L455.29091646041945,469.6845663448482 M455.29091646041945,469.6845663448482 L456.2962416255519,467.24808193417505 M456.2962416255519,467.24808193417505 L457.2262170287271,464.8028319800405 M457.2262170287271,464.8028319800405 L384.77854476602477,506.38004989491156 M384.77854476602477,506.38004989491156 L385.7201849916093,507.75740781073824 M385.7201849916093,507.75740781073824 L386.7373396958669,509.0388992168241 M386.7373396958669,509.0388992168241 L387.8277974902434,510.2218036060179 M368.59426693906386,499.10803274576296 L366.11841402292066,496.1335948256707 M366.11841402292066,496.1335948256707 L364.0734914041376,492.6241823436545 M364.0734914041376,492.6241823436545 L362.48470403362427,488.6219851822399 M362.48470403362427,488.6219851822399 L373.70799870944654,495.1035640873903 M373.70799870944654,495.1035640873903 L374.789761002963,498.4526026455356 M374.789761002963,498.4526026455356 L376.16259809008284,501.40229893428085 M376.16259809008284,501.40229893428085 L384.77854476602477,506.38004989491156 M362.48470403362427,488.6219851822399 L440.98634228521814,443.68045651448205 M440.98634228521814,443.68045651448205 L439.4302660140837,449.4660818559833 M439.4302660140837,449.4660818559833 L437.41958871715025,455.28289382139707 M437.41958871715025,455.28289382139707 L434.9786071640677,461.06096105597 M448.61016294732747,459.85813814902707 L457.2262170287271,464.8028319800405 M448.61016294732747,459.85813814902707 L450.6114401259195,454.9866023043376 M450.6114401259195,454.9866023043376 L452.2098235226141,450.1154273346238 M440.98634228521814,443.68045651448205 L452.2098235226141,450.1154273346238 M376.16259809008284,501.40229893428085 L386.29773920652883,493.41245156839045 M386.29773920652883,493.41245156839045 L397.2698063627983,485.81253860178805 M397.2698063627983,485.81253860178805 L409.035003418812,478.63113403076824 M409.035003418812,478.63113403076824 L421.54670491619714,471.8951395045849 M421.54670491619714,471.8951395045849 L434.75565701942793,465.6297039973667 M434.75565701942793,465.6297039973667 L448.61016294732747,459.85813814902707 M373.70799870944654,495.1035640873903 L384.5041055926418,486.3580313118198 M384.5041055926418,486.3580313118198 L396.29288601401885,478.06495017239973 M396.29288601401885,478.06495017239973 L409.0189486002866,470.260997851195 M409.0189486002866,470.260997851195 L422.6229824386925,462.9805485229042 M422.6229824386925,462.9805485229042 L437.0420422818302,456.25555451253234 M437.0420422818302,456.25555451253234 L452.2098235226141,450.1154273346238" stroke="black"  stroke-width="4"  fill="red"/>
<path d="M531.6102226999419,352.2204362875967 L530.1823960903065,354.2663015556328 M530.1823960903065,354.2663015556328 L433.83192101240616,299.6456963194686 M433.9112654425961,385.46488174475064 L433.83192101240616,299.6456963194686 M433.9112654425961,385.46488174475064 L266.27855643215713,177.3363796273423 M322.3293505019034,93.01151264368207 L266.27855643215713,177.3363796273423 M531.6102226999419,352.2204362875967 L322.3293505019034,93.01151264368207 M416.0599334676556,418.1605815836954 L531.6102226999419,352.2204362875967 M414.6451649628803,420.20557010499977 L416.0599334676556,418.1605815836954 M414.6451649628803,420.20557010499977 L530.1823960903065,354.2663015556328 M318.29624879001665,365.0012601573476 L414.6451649628803,420.20557010499977 M334.32427532413334,355.93461700553075 L318.29624879001665,365.0012601573476 M334.32427532413334,355.93461700553075 L347.02882338593326,361.03728893515523 M347.02882338593326,361.03728893515523 L359.85473303705714,365.4039964064956 M359.85473303705714,365.4039964064956 L372.07294585108264,368.83136536397365 M372.07294585108264,368.83136536397365 L383.6541515462668,371.38688542883466 M383.6541515462668,371.38688542883466 L394.40655198114763,373.0941736852375 M394.40655198114763,373.0941736852375 L404.2003859980868,374.0062866078255 M404.2003859980868,374.0062866078255 L412.9671981129226,374.1957175074201 M412.9671981129226,374.1957175074201 L420.6931016847129,373.74320398901534 M420.6931016847129,373.74320398901534 L427.40707818690265,372.72655801912083 M427.40707818690265,372.72655801912083 L433.1654195072518,371.2106440578829 M433.1654195072518,371.2106440578829 L436.58906738550036,369.9094558695891 M436.58906738550036,369.9094558695891 L439.64627911335106,368.38582850321586 M439.64627911335106,368.38582850321586 L443.7400738884869,365.50515981997694 M443.7400738884869,365.50515981997694 L446.81794990425584,362.1066282876767 M446.81794990425584,362.1066282876767 L448.8926536278206,358.09925855136635 M448.8926536278206,358.09925855136635 L449.8381906889192,353.4676377442157 M449.8381906889192,353.4676377442157 L449.51243369806224,348.18147174956187 M449.51243369806224,348.18147174956187 L447.74993657964643,342.23558557677745 M447.74993657964643,342.23558557677745 L444.3887437837798,335.6616060881173 M444.3887437837798,335.6616060881173 L439.2990951036522,328.5361305035557 M439.2990951036522,328.5361305035557 L432.4111933372885,320.98440080226356 M432.4111933372885,320.98440080226356 L425.6417400152803,314.77557285275316 M425.6417400152803,314.77557285275316 L417.9497474836858,308.6298341703531 M433.83192101240616,299.6456963194686 L417.9497474836858,308.6298341703531 M318.7699425644422,451.05237100940957 L318.29624879001665,365.0012601573476 M334.32427532413334,355.93461700553075 L333.3805548060253,365.0080076318515 M333.3805548060253,365.0080076318515 L333.400943647545,373.63148466944244 M333.400943647545,373.63148466944244 L334.246438592853,380.8673491678105 M334.246438592853,380.8673491678105 L335.85555363350556,387.43162058620885 M335.85555363350556,387.43162058620885 L338.187107097006,393.1987099746923 M338.187107097006,393.1987099746923 L341.18241282073274,398.0679834336334 M341.18241282073274,398.0679834336334 L344.76912097634613,401.96581404021794 M344.76912097634613,401.96581404021794 L348.86562091457944,404.8455320833117 M348.86562091457944,404.8455320833117 L353.3854878185229,406.68520936460436 M353.3854878185229,406.68520936460436 L358.24143952082204,407.4839966876354 M358.24143952082204,407.4839966876354 L363.3483305011193,407.2575568115496 M363.3483305011193,407.2575568115496 L368.62493958024186,406.03347109230396 M368.62493958024186,406.03347109230396 L373.99443944361116,403.84723435969437 M373.99443944361116,403.84723435969437 L379.3837025432371,400.73955232810187 M379.3837025432371,400.73955232810187 L385.3080080285507,396.26105577297477 M385.3080080285507,396.26105577297477 L391.0711183283295,390.76990955951965 M391.0711183283295,390.76990955951965 L396.5735708463218,384.34536680170106 M396.5735708463218,384.34536680170106 L401.7116668897605,377.08224274793395 M401.7116668897605,377.08224274793395 L406.37760043595284,369.09622640177383 M406.37760043595284,369.09622640177383 L410.46182222695126,360.5281344378044 M410.46182222695126,360.5281344378044 L413.8575321706076,351.54581544158117 M413.8575321706076,351.54581544158117 L416.46680260843726,342.3426827857643 M416.46680260843726,342.3426827857643 L418.20751496806247,333.1328055381571 M418.20751496806247,333.1328055381571 L419.02010021277124,324.14253680087927 M419.02010021277124,324.14253680087927 L418.90928971927906,316.09900575396256 M418.90928971927906,316.09900575396256 L417.9497474836858,308.6298341703531 M318.7699425644422,451.05237100940957 L433.9112654425961,385.46488174475064 M318.7699425644422,451.05237100940957 L150.62985203321526,241.60928704937083 M266.27855643215713,177.3363796273423 L150.62985203321526,241.60928704937083 M206.13838295687373,157.30289958388835 L322.3293505019034,93.01151264368207 M150.62985203321526,241.60928704937083 L206.13838295687373,157.30289958388835 M256.91067442135795,136.37423036295786 L263.2512601005974,133.0810471182744 M263.2512601005974,133.0810471182744 L269.0044816244076,130.54287994092152 M269.0044816244076,130.54287994092152 L274.05311778434003,128.8108729407508 M274.05311778434003,128.8108729407508 L278.29477358431984,127.91946610018118 M278.29477358431984,127.91946610018118 L281.6438702957215,127.8857002581276 M281.6438702957215,127.8857002581276 L284.0333525471901,128.70905503604354 M284.0333525471901,128.70905503604354 L285.41598312115656,130.37145561320608 M285.41598312115656,130.37145561320608 L285.76512903223676,132.83780799332465 M285.76512903223676,132.83780799332465 L285.0752698573791,136.05679980005976 M285.0752698573791,136.05679980005976 L283.36189760054526,139.96206401105894 M283.36189760054526,139.96206401105894 L280.66112734368915,144.47356375048167 M280.66112734368915,144.47356375048167 L277.02888060431707,149.49922482379858 M277.02888060431707,149.49922482379858 L272.53958688704984,154.93690959807225 M272.53958688704984,154.93690959807225 L267.28475525167795,160.6764561667385 M267.28475525167795,160.6764561667385 L261.3709835710524,166.6018141575015 M261.3709835710524,166.6018141575015 L254.9179263412256,172.59348243957524 M254.9179263412256,172.59348243957524 L248.05580245348708,178.53068982761988 M248.05580245348708,178.53068982761988 L240.9229491885052,184.29385647816707 M240.9229491885052,184.29385647816707 L233.6630291466339,189.76687195370909 M233.6630291466339,189.76687195370909 L226.42227629123485,194.83947683470612 M226.42227629123485,194.83947683470612 L219.34665491772057,199.40920329164203 M219.34665491772057,199.40920329164203 L212.57895019900195,203.38364597052492 M212.57895019900195,203.38364597052492 L206.25600466571407,206.68206893367164 M206.25600466571407,206.68206893367164 L200.50599605347492,209.23721436913587 M200.50599605347492,209.23721436913587 L195.4458846301004,210.99650003137208 M195.4458846301004,210.99650003137208 L191.17899610795436,211.9233601082387 M191.17899610795436,211.9233601082387 L187.79295260526288,211.99779725737164 M187.79295260526288,211.99779725737164 L185.3578031265778,211.21709990166977 M185.3578031265778,211.21709990166977 L183.92448450202983,209.59586536601836 M183.92448450202983,209.59586536601836 L183.5237361372533,207.16587437058627 M183.5237361372533,207.16587437058627 L184.1652584668119,203.97543055966133 M184.1652584668119,203.97543055966133 L185.83747585286238,200.08865116992888 M185.83747585286238,200.08865116992888 L188.50758917835768,195.58406510171562 M188.50758917835768,195.58406510171562 L192.12221317569612,190.55315361897468 M192.12221317569612,190.55315361897468 L196.60829359746253,185.09851252547256 M196.60829359746253,185.09851252547256 L201.87459986473533,179.3316876353596 M201.87459986473533,179.3316876353596 L207.81360410839196,173.37087636738045 M207.81360410839196,173.37087636738045 L214.30360806681273,167.33851482328436 M214.30360806681273,167.33851482328436 L221.21139959321047,161.35864949024452 M221.21139959321047,161.35864949024452 L228.3949417305164,155.5543378034191 M228.3949417305164,155.5543378034191 L235.7064648184098,150.04496066727935 M235.7064648184098,150.04496066727935 L242.99555502617469,144.94380761249099 M242.99555502617469,144.94380761249099 L250.11233110203224,140.35557511315608 M250.11233110203224,140.35557511315608 L256.91067442135795,136.37423036295786 M416.0599334676556,418.1605815836954 L206.13838295687373,157.30289958388835 M439.64627911335106,368.38582850321586 L431.6756935813358,358.26590829511247 M431.6756935813358,358.26590829511247 L423.7074376050132,348.14895737844216 M423.7074376050132,348.14895737844216 L415.7415136177552,338.03496567126956 M415.7415136177552,338.03496567126956 L407.77791596079555,327.92391848180444 M407.77791596079555,327.92391848180444 L399.8166459605988,317.81583735949937 M399.8166459605988,317.81583735949937 L391.85770257913896,307.7107102446495 M391.85770257913896,307.7107102446495 L383.901089402156,297.60853845894053 M383.901089402156,297.60853845894053 L375.94679619713423,287.5093154730079 M375.94679619713423,287.5093154730079 L367.9948265533723,277.41304261258364 M367.9948265533723,277.41304261258364 L360.0451794529013,267.3197185851965 M360.0451794529013,267.3197185851965 L352.097853878347,257.22934209913006 M352.097853878347,257.22934209913006 L344.15284871670514,247.14189028594316 M344.15284871670514,247.14189028594316 L336.21016313749317,237.0574050049555 M336.21016313749317,237.0574050049555 L328.2697960356418,226.97586339466778 M328.2697960356418,226.97586339466778 L320.3317555693515,216.89726935879162 M320.3317555693515,216.89726935879162 L312.3960223730994,206.82161121950662 M312.3960223730994,206.82161121950662 L304.46260461098586,196.74889288707345 M304.46260461098586,196.74889288707345 L296.53150126978613,186.67911307504426 M296.53150126978613,186.67911307504426 L288.60270218250406,176.6122653254609 M288.60270218250406,176.6122653254609 L280.6762336501188,166.54834224934848 M280.6762336501188,166.54834224934848 L272.7520766364672,156.4873754441516 M272.7520766364672,156.4873754441516 L264.83021170682616,146.42933169666972 M264.83021170682616,146.42933169666972 L256.91067442135795,136.37423036295786" stroke="black"  stroke-width="4"  fill="red"/>
<path d="M542.3375631996786,494.8792617909916 L542.7899848271504,361.41348092157045 M433.9550039713855,432.7726121477645 L433.83192101240616,299.6456963194686 M542.3375631996786,494.8792617909916 L433.9550039713855,432.7726121477645 M542.7899848271504,361.41348092157045 L433.83192101240616,299.6456963194686 M427.41221415657657,561.2536417870347 L427.2528865986894,427.429321036128 M427.41221415657657,561.2536417870347 L542.3375631996786,494.8792617909916 M427.2528865986894,427.429321036128 L542.7899848271504,361.41348092157045 M433.9550039713855,432.7726121477645 L319.0310584254058,498.4866230728864 M319.0310584254058,498.4866230728864 L318.29624879001665,365.0012601573476 M334.32427532413334,355.93461700553075 L318.29624879001665,365.0012601573476 M334.32427532413334,355.93461700553075 L333.3805548060253,365.0080076318515 M333.3805548060253,365.0080076318515 L333.400943647545,373.63148466944244 M333.400943647545,373.63148466944244 L334.246438592853,380.8673491678105 M334.246438592853,380.8673491678105 L335.85555363350556,387.43162058620885 M335.85555363350556,387.43162058620885 L338.187107097006,393.1987099746923 M338.187107097006,393.1987099746923 L341.18241282073274,398.0679834336334 M341.18241282073274,398.0679834336334 L344.76912097634613,401.96581404021794 M344.76912097634613,401.96581404021794 L348.86562091457944,404.8455320833117 M348.86562091457944,404.8455320833117 L353.3854878185229,406.68520936460436 M353.3854878185229,406.68520936460436 L358.24143952082204,407.4839966876354 M358.24143952082204,407.4839966876354 L363.3483305011193,407.2575568115496 M363.3483305011193,407.2575568115496 L368.62493958024186,406.03347109230396 M368.62493958024186,406.03347109230396 L373.99443944361116,403.84723435969437 M373.99443944361116,403.84723435969437 L379.3837025432371,400.73955232810187 M379.3837025432371,400.73955232810187 L385.3080080285507,396.26105577297477 M385.3080080285507,396.26105577297477 L391.0711183283295,390.76990955951965 M391.0711183283295,390.76990955951965 L396.5735708463218,384.34536680170106 M396.5735708463218,384.34536680170106 L401.7116668897605,377.08224274793395 M401.7116668897605,377.08224274793395 L406.37760043595284,369.09622640177383 M406.37760043595284,369.09622640177383 L410.46182222695126,360.5281344378044 M410.46182222695126,360.5281344378044 L413.8575321706076,351.54581544158117 M413.8575321706076,351.54581544158117 L416.46680260843726,342.3426827857643 M416.46680260843726,342.3426827857643 L418.20751496806247,333.1328055381571 M418.20751496806247,333.1328055381571 L419.02010021277124,324.14253680087927 M419.02010021277124,324.14253680087927 L418.90928971927906,316.09900575396256 M418.90928971927906,316.09900575396256 L417.9497474836858,308.6298341703531 M433.83192101240616,299.6456963194686 L417.9497474836858,308.6298341703531 M319.0310584254058,498.4866230728864 L427.41221415657657,561.2536417870347 M368.59426693906386,499.10803274576296 L440.89691827323867,540.886898949173 M440.89691827323867,540.886898949173 L507.2816515209247,502.5852751537876 M434.9786071640677,461.06096105597 L507.2816515209247,502.5852751537876 M368.59426693906386,499.10803274576296 L434.9786071640677,461.06096105597 M318.29624879001665,365.0012601573476 L427.2528865986894,427.429321036128 M334.32427532413334,355.93461700553075 L347.02882338593326,361.03728893515523 M347.02882338593326,361.03728893515523 L359.85473303705714,365.4039964064956 M359.85473303705714,365.4039964064956 L372.07294585108264,368.83136536397365 M372.07294585108264,368.83136536397365 L383.6541515462668,371.38688542883466 M383.6541515462668,371.38688542883466 L394.40655198114763,373.0941736852375 M394.40655198114763,373.0941736852375 L404.2003859980868,374.0062866078255 M404.2003859980868,374.0062866078255 L412.9671981129226,374.1957175074201 M412.9671981129226,374.1957175074201 L420.6931016847129,373.74320398901534 M420.6931016847129,373.74320398901534 L427.40707818690265,372.72655801912083 M427.40707818690265,372.72655801912083 L433.1654195072518,371.2106440578829 M433.1654195072518,371.2106440578829 L436.58906738550036,369.9094558695891 M436.58906738550036,369.9094558695891 L439.64627911335106,368.38582850321586 M439.64627911335106,368.38582850321586 L443.7400738884869,365.50515981997694 M443.7400738884869,365.50515981997694 L446.81794990425584,362.1066282876767 M446.81794990425584,362.1066282876767 L448.8926536278206,358.09925855136635 M448.8926536278206,358.09925855136635 L449.8381906889192,353.4676377442157 M449.8381906889192,353.4676377442157 L449.51243369806224,348.18147174956187 M449.51243369806224,348.18147174956187 L447.74993657964643,342.23558557677745 M447.74993657964643,342.23558557677745 L444.3887437837798,335.6616060881173 M444.3887437837798,335.6616060881173 L439.2990951036522,328.5361305035557 M439.2990951036522,328.5361305035557 L432.4111933372885,320.98440080226356 M432.4111933372885,320.98440080226356 L425.6417400152803,314.77557285275316 M425.6417400152803,314.77557285275316 L417.9497474836858,308.6298341703531 M475.42768931733434,413.815953351359 L467.8742879841075,404.2257156461139 M467.8742879841075,404.2257156461139 L460.3229778161127,394.6381441608848 M460.3229778161127,394.6381441608848 L452.77375882055446,385.0532275445418 M452.77375882055446,385.0532275445418 L445.226629834614,375.4709537753704 M445.226629834614,375.4709537753704 L439.64627911335106,368.38582850321586 M492.95379171744776,423.7920207879272 L496.18721253587023,419.4423892925739 M496.18721253587023,419.4423892925739 L498.5978041674836,415.56757321718453 M498.5978041674836,415.56757321718453 L500.1366973462661,412.2451474210693 M500.1366973462661,412.2451474210693 L500.7721683586861,409.5419407417133 M500.7721683586861,409.5419407417133 L500.4903685965178,407.5126761680033 M500.4903685965178,407.5126761680033 L499.29569553859886,406.19873250901924 M499.29569553859886,406.19873250901924 L497.2107935693276,405.62734611971746 M497.2107935693276,405.62734611971746 L494.27620103232107,405.8109597197391 M494.27620103232107,405.8109597197391 L490.5496288098479,406.7468503600248 M490.5496288098479,406.7468503600248 L486.10488377349856,408.41717784379176 M486.10488377349856,408.41717784379176 L481.03043774430023,410.7892015357622 M481.03043774430023,410.7892015357622 L475.42768931733434,413.815953351359 M490.6495672192618,422.02206213971766 L492.95379171744776,423.7920207879272 M489.8789293529921,427.485148755074 L490.6495672192618,422.02206213971766 M482.5788687708409,435.3095813748878 L485.17810410451165,432.6399321282306 M485.17810410451165,432.6399321282306 L487.61579640734124,430.0271537763639 M487.61579640734124,430.0271537763639 L489.8789293529921,427.485148755074 M430.44927471921505,401.7767720363 L448.0094901537408,412.279719407819 M448.0094901537408,412.279719407819 L465.5691501416542,423.63737943477855 M465.5691501416542,423.63737943477855 L482.5788687708409,435.3095813748878 M401.7339562067412,433.287918315443 L407.6609713938999,429.34450125908603 M407.6609713938999,429.34450125908603 L413.4658024561266,424.363976495545 M413.4658024561266,424.363976495545 L419.0690330586231,418.40425254642656 M419.0690330586231,418.40425254642656 L424.35889150524883,411.56006492227596 M424.35889150524883,411.56006492227596 L427.5121576893579,406.7936920956965 M427.5121576893579,406.7936920956965 L430.44927471921505,401.7767720363 M372.87582163686943,434.61009650425524 L377.20449929771036,436.83564086703507 M377.20449929771036,436.83564086703507 L381.95015728628584,438.02460488620846 M381.95015728628584,438.02460488620846 L386.9358278174243,438.1647520001412 M386.9358278174243,438.1647520001412 L392.12140938104386,437.2962388218645 M392.12140938104386,437.2962388218645 L396.8979989268116,435.67797254368514 M396.8979989268116,435.67797254368514 L401.7339562067412,433.287918315443 M408.7726768568094,477.61557129132575 L396.08130755613746,463.6685569283222 M396.08130755613746,463.6685569283222 L384.0592616440949,449.34700830831224 M384.0592616440949,449.34700830831224 L372.87582163686943,434.61009650425524 M409.9116224330271,473.3092824021942 L409.28718319345654,474.91675688716305 M409.28718319345654,474.91675688716305 L408.9069102091644,476.3547196128471 M408.9069102091644,476.3547196128471 L408.7726768568094,477.61557129132575 M409.13231820248745,468.71548023343007 L409.9116224330271,473.3092824021942 M411.3185439338308,470.564669285274 L409.13231820248745,468.71548023343007 M475.42768931733434,413.815953351359 L469.40893117884565,417.43707439128815 M469.40893117884565,417.43707439128815 L463.09508075423736,421.5800832912295 M463.09508075423736,421.5800832912295 L456.61320189879723,426.161767081344 M456.61320189879723,426.161767081344 L450.0938963345534,431.0899477949705 M450.0938963345534,431.0899477949705 L443.6685985613294,436.26530857461944 M443.6685985613294,436.26530857461944 L437.4668545790223,441.58352266621694 M437.4668545790223,441.58352266621694 L431.6136296261584,446.93734658387365 M431.6136296261584,446.93734658387365 L426.22673530030744,452.2188792617827 M426.22673530030744,452.2188792617827 L421.41439737949815,457.32182571545525 M421.41439737949815,457.32182571545525 L417.2730362108314,462.143598507713 M417.2730362108314,462.143598507713 L413.88532241524905,466.58750302539426 M413.88532241524905,466.58750302539426 L411.3185439338308,470.564669285274 M368.59426693906386,499.10803274576296 L365.4714181747799,495.1558436359952 M365.4714181747799,495.1558436359952 L363.0828855004021,490.3282397746752 M363.0828855004021,490.3282397746752 L361.47801249646136,484.7224680726188 M361.47801249646136,484.7224680726188 L360.69024566508944,478.45186211470184 M360.69024566508944,478.45186211470184 L360.7363723764499,471.6435780306641 M360.7363723764499,471.6435780306641 L361.616107870087,464.436008720668 M361.616107870087,464.436008720668 L363.31206191883564,456.97594367609895 M363.31206191883564,456.97594367609895 L365.7900493697441,449.4155336833278 M365.7900493697441,449.4155336833278 L368.99976955201817,441.9091347049341 M368.99976955201817,441.9091347049341 L372.87582163686943,434.61009650425524 M417.6356333891363,468.88314722299134 L413.0791176381676,473.26038020614493 M413.0791176381676,473.26038020614493 L408.7726768568094,477.61557129132575 M410.6074606701171,488.4505224650567 L412.3895042238068,481.9276968469626 M412.3895042238068,481.9276968469626 L414.7441811353762,475.37180795606616 M414.7441811353762,475.37180795606616 L417.6356333891363,468.88314722299134 M410.6074606701171,488.4505224650567 L434.80239372992247,502.3921310861155 M440.89691827323867,540.886898949173 L437.9850467380103,537.2437304529149 M437.9850467380103,537.2437304529149 L435.7059135140216,532.8350175469141 M435.7059135140216,532.8350175469141 L434.1002278330323,527.7375223182919 M434.1002278330323,527.7375223182919 L433.19688152275404,522.0403225711628 M433.19688152275404,522.0403225711628 L433.0123869248795,515.8432718717736 M433.0123869248795,515.8432718717736 L433.55056274321214,509.2552159913495 M433.55056274321214,509.2552159913495 L434.80239372992247,502.3921310861155 M513.391965739042,457.2007052739247 L514.626371971487,462.6112053277977 M514.626371971487,462.6112053277977 L515.1520895703907,468.56345584017333 M515.1520895703907,468.56345584017333 L514.9605273488955,474.9532477923376 M514.9605273488955,474.9532477923376 L514.055549489341,481.66896935656143 M514.055549489341,481.66896935656143 L512.453340894933,488.5935106223556 M512.453340894933,488.5935106223556 L510.1821240343159,495.6062820087534 M510.1821240343159,495.6062820087534 L507.2816515209247,502.5852751537876 M513.391965739042,457.2007052739247 L514.7658329044059,449.48642713934134 M514.7658329044059,449.48642713934134 L515.2360448583174,442.1306361596611 M515.2360448583174,442.1306361596611 L514.7914571556727,435.2968832079448 M514.7914571556727,435.2968832079448 L513.4411192954356,429.1374627761188 M513.4411192954356,429.1374627761188 L511.21415626525646,423.7900465837899 M511.21415626525646,423.7900465837899 L508.1591793403092,419.374559268551 M508.1591793403092,419.374559268551 L504.3433346712113,415.9905126737466 M504.3433346712113,415.9905126737466 L499.85086851030826,413.71462687059596 M499.85086851030826,413.71462687059596 L494.7813491629218,412.59909932506656 M494.7813491629218,412.59909932506656 L489.2474974872316,412.67021401353577 M489.2474974872316,412.67021401353577 L483.3727136907323,413.9277426886039 M483.3727136907323,413.9277426886039 L477.28833435709544,416.3447343689373 M477.28833435709544,416.3447343689373 L471.13068623547326,419.8680754097348 M471.13068623547326,419.8680754097348 L465.0379944191723,424.41957509279035 M465.0379944191723,424.41957509279035 L459.1472319481418,429.89766748012335 M459.1472319481418,429.89766748012335 L453.5909720590565,436.1797041118253 M453.5909720590565,436.1797041118253 L448.49433532608333,443.1246622631843 M448.49433532608333,443.1246622631843 L443.97209858104947,450.5764586152232 M443.97209858104947,450.5764586152232 L440.12604594807004,458.367412836966 M440.12604594807004,458.367412836966 L437.042610941874,466.3222250676114 M437.042610941874,466.3222250676114 L434.7909149646153,474.26190426797615 M434.7909149646153,474.26190426797615 L433.4211691448184,482.00799854548166 M433.4211691448184,482.00799854548166 L432.96359510139735,489.38658524479905 M432.96359510139735,489.38658524479905 L433.42775306944833,496.23231284569255 M433.42775306944833,496.23231284569255 L434.80239372992247,502.3921310861155 M430.44927471921505,401.7767720363 L434.32581058649333,404.6393661914093 M434.32581058649333,404.6393661914093 L437.54024904405634,408.46197705145954 M437.54024904405634,408.46197705145954 L440.02831450745475,413.1662357096829 M440.02831450745475,413.1662357096829 L441.740522032883,418.6561721579099 M441.740522032883,418.6561721579099 L442.64309418267334,424.8202136827689 M442.64309418267334,424.8202136827689 L442.7185733060309,431.53346313979813 M442.7185733060309,431.53346313979813 L441.9661025130185,438.6602369502073 M441.9661025130185,438.6602369502073 L440.4014029546576,446.0567714526353 M440.4014029546576,446.0567714526353 L438.0564117204367,453.5740924901977 M438.0564117204367,453.5740924901977 L434.9786071640677,461.06096105597 M489.19707121160025,443.3597123932856 L513.391965739042,457.2007052739247 M482.2061652806809,431.8819176326893 L485.0824821447068,435.049812683617 M485.0824821447068,435.049812683617 L487.4244348807578,438.8953608239965 M487.4244348807578,438.8953608239965 L489.19707121160025,443.3597123932856 M482.5788687708409,435.3095813748878 L482.65680845257924,433.3842189275588 M482.65680845257924,433.3842189275588 L482.2061652806809,431.8819176326893 M492.95379171744776,423.7920207879272 L495.07707359157746,419.8126944100186 M495.07707359157746,419.8126944100186 L496.33198174423,416.42974090603366 M496.33198174423,416.42974090603366 L496.6942525454681,413.72887653354974 M496.6942525454681,413.72887653354974 L496.17759140603306,411.7410411781926 M496.17759140603306,411.7410411781926 L494.8115539577433,410.48950914050465 M494.8115539577433,410.48950914050465 L492.6433083379634,409.97921044942575 M492.6433083379634,409.97921044942575 L489.7330483043856,410.19944576744126 M489.7330483043856,410.19944576744126 L486.14936739475434,411.12732849714536 M486.14936739475434,411.12732849714536 L481.9652577655715,412.7312980306137 M481.9652577655715,412.7312980306137 L477.25525105977925,414.9742137449476 M477.25525105977925,414.9742137449476 L472.0940367783112,417.81536467531976 M472.0940367783112,417.81536467531976 L465.92174743933157,421.6208141858159 M465.92174743933157,421.6208141858159 L459.3915180985772,426.0465493654227 M459.3915180985772,426.0465493654227 L452.61489312467626,431.0214261910881 M452.61489312467626,431.0214261910881 L445.71324356275653,436.46375221992815 M445.71324356275653,436.46375221992815 L438.82048729153695,442.277725013341 M438.82048729153695,442.277725013341 L432.0836123302451,448.350852948558 M432.0836123302451,448.350852948558 L425.66033264911255,454.5534806563705 M425.66033264911255,454.5534806563705 L419.7138114288412,460.7408237544695 M419.7138114288412,460.7408237544695 L415.2425256151265,465.7692007143749 M415.2425256151265,465.7692007143749 L411.3185439338308,470.564669285274 M409.13231820248745,468.71548023343007 L408.7571940362696,475.8511550214673 M408.7571940362696,475.8511550214673 L409.25266647491065,482.4761384012136 M409.25266647491065,482.4761384012136 L410.6074606701171,488.4505224650567 M489.19707121160025,443.3597123932856 L490.53805245151,435.86385547244845 M490.53805245151,435.86385547244845 L491.02584285568145,428.7011588663424 M491.02584285568145,428.7011588663424 L490.6495672192618,422.02206213971766 M482.2061652806809,431.8819176326893 L489.8789293529921,427.485148755074 M409.9116224330271,473.3092824021942 L417.6356333891363,468.88314722299134" stroke="black"  stroke-width="4"  fill="red"/>
<path d="M172.86146800049974,514.9523975897005 L173.4013759496145,562.5856957441874 M10.643861789670837,522.0877010112054 L27.988753998777156,518.4335617312088 M27.988753998777156,518.4335617312088 L45.69723255887055,515.4752442066697 M45.69723255887055,515.4752442066697 L63.68751851126018,513.2259059414116 M63.68751851126018,513.2259059414116 L81.87656769705944,511.6955182062641 M81.87656769705944,511.6955182062641 L100.18059561497455,510.8908624119331 M100.18059561497455,510.8908624119331 L118.51534021001811,510.8154995958366 M118.51534021001811,510.8154995958366 L136.7963955087344,511.46977687142714 M136.7963955087344,511.46977687142714 L154.93963857174083,512.8507746816333 M154.93963857174083,512.8507746816333 L172.86146800049974,514.9523975897005 M10.643861789670837,522.0877010112054 L11.492246347990488,569.7345681220036 M173.4013759496145,562.5856957441874 L155.51347746686116,560.4800733008992 M155.51347746686116,560.4800733008992 L137.40460916871382,559.0964466238577 M137.40460916871382,559.0964466238577 L119.15821989384665,558.4409236637866 M119.15821989384665,558.4409236637866 L100.85827906978807,558.5164299704729 M100.85827906978807,558.5164299704729 L82.58903851778115,559.3226177194681 M82.58903851778115,559.3226177194681 L64.43460617541729,560.8559185601817 M64.43460617541729,560.8559185601817 L46.47861295771463,563.1095371660866 M46.47861295771463,563.1095371660866 L28.803950335753996,566.0734818282745 M28.803950335753996,566.0734818282745 L11.492246347990488,569.7345681220036 M173.4013759496145,562.5856957441874 L186.44501084313666,592.1863945147413 M185.92869843363565,544.4970131014825 L186.44501084313666,592.1863945147413 M172.86146800049974,514.9523975897005 L185.92869843363565,544.4970131014825 M124.99571383642302,568.9254397831724 L10.643861789670837,522.0877010112054 M124.99571383642302,568.9254397831724 L131.71825669779912,564.0171063333131 M131.71825669779912,564.0171063333131 L139.23673105568554,559.5164134625757 M139.23673105568554,559.5164134625757 L147.47640840428073,555.4671558146492 M147.47640840428073,555.4671558146492 L156.35563295240706,551.9086769118032 M156.35563295240706,551.9086769118032 L165.7867206299677,548.8754890771518 M165.7867206299677,548.8754890771518 L175.67681811231876,546.3969423582603 M175.67681811231876,546.3969423582603 L185.92869843363565,544.4970131014825 M125.62921889849463,616.6609920795686 L11.492246347990488,569.7345681220036 M124.99571383642302,568.9254397831724 L125.62921889849463,616.6609920795686 M186.44501084313666,592.1863945147413 L176.21272215797057,594.0899212379045 M176.21272215797057,594.0899212379045 L166.34155904020224,596.5731593696237 M166.34155904020224,596.5731593696237 L156.92856441185543,599.612085903416 M156.92856441185543,599.612085903416 L148.0664150988745,603.1772937725002 M148.0664150988745,603.1772937725002 L139.8426276623543,607.2342037476473 M139.8426276623543,607.2342037476473 L132.33870097094245,611.7433962195914 M132.33870097094245,611.7433962195914 L125.62921889849463,616.6609920795686" stroke="black"  stroke-width="4"  fill="red"/></svg>