<svg viewBox="0 0 800 800" xmlns="http://www.w3.org/2000/svg"><path d="M695.0692741815005,488.66052709589445 L690.6860995487009,491.14583794090663 M690.6860995487009,491.14583794090663 L690.7953226459686,465.40673613304546 M690.7953226459686,465.40673613304546 L692.9882469115262,464.16475312792977 M692.9882469115262,464.16475312792977 L693.0103492833391,459.0136393637507 M695.2032723174982,457.7719433447494 L693.0103492833391,459.0136393637507 M695.0692741815005,488.66052709589445 L695.2032723174982,457.7719433447494 M690.6860995487009,491.14583794090663 L735.0087361108604,516.0294257034709 M735.0087361108604,516.0294257034709 L739.3918560209318,513.5385703853287 M739.3918560209318,513.5385703853287 L695.0692741815005,488.66052709589445 M735.0087361108604,516.0294257034709 L735.1428022460871,490.2754905999138 M735.1428022460871,490.2754905999138 L690.7953226459686,465.40673613304546 M781.7821966866056,513.9522527567833 L338.2813080054142,766.2632686624634 M161.09059829035752,664.6580905877981 L338.2813080054142,766.2632686624634 M284.0437079015297,595.3329829220461 L161.09059829035752,664.6580905877981 M132.83192411678743,509.1620581583936 L284.0437079015297,595.3329829220461 M132.83192411678743,509.1620581583936 L332.39411225848335,397.499132973359 M483.61308600776954,482.8090405203072 L332.39411225848335,397.499132973359 M604.5891562794153,414.598654275636 L483.61308600776954,482.8090405203072 M692.9882469115262,464.16475312792977 L604.5891562794153,414.598654275636 M737.335699239236,489.03073523481123 L735.1428022460871,490.2754905999138 M781.7821966866056,513.9522527567833 L737.335699239236,489.03073523481123 M592.0778783396047,571.4835145732077 L575.2098223259849,561.8796492724857 M575.2098223259849,561.8796492724857 L557.9497723108834,552.5533672149021 M557.9497723108834,552.5533672149021 L526.2171385184519,536.6364870346341 M526.2171385184519,536.6364870346341 L494.5351722169875,522.2589802402426 M494.5351722169875,522.2589802402426 L463.68519728447865,509.7031615053328 M463.68519728447865,509.7031615053328 L434.4119814734279,499.1704801719581 M434.4119814734279,499.1704801719581 L407.3169752748024,490.7446983217656 M407.3169752748024,490.7446983217656 L382.82792349862257,484.3981520372704 M382.82792349862257,484.3981520372704 L361.1891063183199,480.0088201980688 M361.1891063183199,480.0088201980688 L342.47047262315664,477.3850965260043 M342.47047262315664,477.3850965260043 L326.5912192451481,476.29477644570375 M326.5912192451481,476.29477644570375 L313.35297408095096,476.4954589256672 M313.35297408095096,476.4954589256672 L302.47885211353764,477.7645688924234 M302.47885211353764,477.7645688924234 L293.6576247862872,479.92761207284855 M293.6576247862872,479.92761207284855 L287.0159502443089,482.6603063715255 M287.0159502443089,482.6603063715255 L281.6436888213383,486.12173039992604 M281.6436888213383,486.12173039992604 L277.5722654799017,490.29230254255947 M277.5722654799017,490.29230254255947 L274.82584683525727,495.1484489782673 M274.82584683525727,495.1484489782673 L273.42108745094856,500.66266136250283 M273.42108745094856,500.66266136250283 L273.64972524057237,508.98405547203816 M273.64972524057237,508.98405547203816 L276.51078012534276,518.9219678693664 M276.51078012534276,518.9219678693664 L282.50883262408513,530.6852703926825 M282.50883262408513,530.6852703926825 L292.1526460483557,544.3455963135232 M292.1526460483557,544.3455963135232 L305.87290845789954,559.864751293592 M305.87290845789954,559.864751293592 L323.9459840784464,577.0711238723663 M323.9459840784464,577.0711238723663 L346.42360079195043,595.6469241132104 M346.42360079195043,595.6469241132104 L373.07952109711607,615.1316471575292 M373.07952109711607,615.1316471575292 L403.3852779319605,634.9455896218305 M403.3852779319605,634.9455896218305 L422.01145222429886,646.1494859420515 M422.01145222429886,646.1494859420515 L441.2914013362038,657.0745281143393 M441.2914013362038,657.0745281143393 L592.0778783396047,571.4835145732077 M737.3627735517055,483.87664900794425 L737.335699239236,489.03073523481123 M737.3627735517055,483.87664900794425 L693.0103492833391,459.0136393637507 M604.5891562794153,414.598654275636 L604.6258380834689,399.1597104304641 M781.8784234407692,498.47761890285756 L604.6258380834689,399.1597104304641 M781.7821966866056,513.9522527567833 L781.8784234407692,498.47761890285756 M739.5556690347696,482.63218111488277 L695.2032723174982,457.7719433447494 M737.3627735517055,483.87664900794425 L739.5556690347696,482.63218111488277 M739.3918560209318,513.5385703853287 L739.5556690347696,482.63218111488277 M660.8657666741103,567.275121303702 L781.8784234407692,498.47761890285756 M660.8657666741103,567.275121303702 L661.2166951098786,469.90141523615364 M461.1573417869412,583.1446354967285 L661.2166951098786,469.90141523615364 M461.2282414167264,680.7720355122466 L461.1573417869412,583.1446354967285 M338.2283165048751,750.6993295286377 L461.2282414167264,680.7720355122466 M338.2813080054142,766.2632686624634 L338.2283165048751,750.6993295286377 M161.09059829035752,664.6580905877981 L160.978064226939,649.1298849257594 M160.978064226939,649.1298849257594 L338.2283165048751,750.6993295286377 M283.97287505629345,579.829335848797 L160.978064226939,649.1298849257594 M283.97287505629345,579.829335848797 L284.0437079015297,595.3329829220461 M283.97287505629345,579.829335848797 L461.2282414167264,680.7720355122466 M18.12157655923079,143.97355200336813 L461.1573417869412,583.1446354967285 M20.717782774482487,397.56996128185193 L18.12157655923079,143.97355200336813 M20.717782774482487,397.56996128185193 L132.83192411678743,509.1620581583936 M220.47938776489275,286.6653183567254 L20.717782774482487,397.56996128185193 M332.39411225848335,397.499132973359 L220.47938776489275,286.6653183567254 M660.8657666741103,567.275121303702 L483.60939529119133,467.3455621448203 M483.61308600776954,482.8090405203072 L483.60939529119133,467.3455621448203 M220.47938776489275,286.6653183567254 L218.9850325888665,33.73673133753664 M661.2166951098786,469.90141523615364 L218.9850325888665,33.73673133753664 M604.6258380834689,399.1597104304641 L483.60939529119133,467.3455621448203 M542.7463628204796,546.104222952059 L526.3457672746551,529.4811426363356 M526.3457672746551,529.4811426363356 L509.9535328982358,512.8664963541797 M509.9535328982358,512.8664963541797 L493.5696505421628,496.2603552795485 M493.5696505421628,496.2603552795485 L477.19411456543656,479.6626341611426 M477.19411456543656,479.6626341611426 L460.8269178511395,463.07336572086786 M460.8269178511395,463.07336572086786 L444.4680557264542,446.49258404694876 M444.4680557264542,446.49258404694876 L428.117518583702,429.92020168252293 M428.117518583702,429.92020168252293 L411.7753022828761,413.3562926055432 M411.7753022828761,413.3562926055432 L395.44140034601685,396.8007711445771 M395.44140034601685,396.8007711445771 L379.1158149245757,380.2536752365346 M379.1158149245757,380.2536752365346 L362.79852291247846,363.71502858351187 M362.79852291247846,363.71502858351187 L346.48952621108185,347.18475026490637 M346.48952621108185,347.18475026490637 L330.18881031445386,330.66290840178067 M330.18881031445386,330.66290840178067 L313.8963939009276,314.1494315248667 M313.8963939009276,314.1494315248667 L297.61225393225396,297.64434339012735 M297.61225393225396,297.64434339012735 L281.33636747708505,281.1476678140292 M281.33636747708505,281.1476678140292 L265.0687615146695,264.65933801202925 M265.0687615146695,264.65933801202925 L248.80939631516407,248.17936837380537 M248.80939631516407,248.17936837380537 L232.55829940014127,231.70781105443913 M232.55829940014127,231.70781105443913 L216.31544725907878,215.24457092926204 M216.31544725907878,215.24457092926204 L200.08081732758214,198.7897115743846 M200.08081732758214,198.7897115743846 L183.85443636649757,182.3431661032749 M183.85443636649757,182.3431661032749 L167.63628186814108,165.90499811144971 M167.63628186814108,165.90499811144971 L151.42631359616172,149.47510316414596 M151.42631359616172,149.47510316414596 L135.22459246698895,133.05355210328764 M135.22459246698895,133.05355210328764 L119.03107877868501,116.64031984437804 M119.03107877868501,116.64031984437804 L107.23590874927493,124.1656723453466 M107.23590874927493,124.1656723453466 L95.68844503209698,133.62218825438595 M95.68844503209698,133.62218825438595 L84.59422716262338,144.85120208746517 M84.59422716262338,144.85120208746517 L74.17894873779159,157.64423375357623 M74.17894873779159,157.64423375357623 L64.65548384379258,171.7649847577529 M64.65548384379258,171.7649847577529 L56.22783863493112,186.944009784646 M56.22783863493112,186.944009784646 L49.08579169754586,202.87925826242943 M49.08579169754586,202.87925826242943 L43.3982451663972,219.2402759217898 M43.3982451663972,219.2402759217898 L39.305916065877,235.6749566718892 M39.305916065877,235.6749566718892 L36.91421413565331,251.81891897603944 M36.91421413565331,251.81891897603944 L36.28718937890716,267.307426315512 M36.28718937890716,267.307426315512 L36.643070538067434,274.69490885732034 M36.643070538067434,274.69490885732034 L37.44344387241944,281.7884796224049 M37.44344387241944,281.7884796224049 L39.98599105674464,293.6888144530544 M39.98599105674464,293.6888144530544 L43.89754404448445,304.29572144872714 M43.89754404448445,304.29572144872714 L49.097562698534716,313.42732401344153 M49.097562698534716,313.42732401344153 L55.48118811679069,320.93570325048995 M55.48118811679069,320.93570325048995 L62.923520227428696,326.7086670916043 M62.923520227428696,326.7086670916043 L71.28432413140968,330.66976384256543 M71.28432413140968,330.66976384256543 L80.41256460559532,332.77669095190925 M80.41256460559532,332.77669095190925 L90.15052820124316,333.01864634743276 M90.15052820124316,333.01864634743276 L100.33713701587482,331.41293710093964 M100.33713701587482,331.41293710093964 L110.81032744887216,328.0017593956219 M110.81032744887216,328.0017593956219 L121.40850731679416,322.8494666324676 M121.40850731679416,322.8494666324676 L133.13561609453336,315.18586755910644 M133.13561609453336,315.18586755910644 L144.60034936088024,305.62117363240384 M144.60034936088024,305.62117363240384 L155.58734378003584,294.32779884367153 M155.58734378003584,294.32779884367153 L165.88454497790002,281.5079502067298 M165.88454497790002,281.5079502067298 L175.2851203395544,267.395147383496 M175.2851203395544,267.395147383496 L183.59088047814703,252.25469274387333 M183.59088047814703,252.25469274387333 L190.61730516347592,236.38289000620594 M190.61730516347592,236.38289000620594 L196.19985877482904,220.10353145126723 M196.19985877482904,220.10353145126723 L200.20096363141175,203.76164263389225 M200.20096363141175,203.76164263389225 L202.51693701237554,187.71457435957163 M202.51693701237554,187.71457435957163 L203.083927337379,172.32074664328442 M203.083927337379,172.32074664328442 L202.08150220914905,159.3123148413665 M202.08150220914905,159.3123148413665 L199.66315944080532,147.35178563795083 M199.66315944080532,147.35178563795083 L195.87597228043973,136.65312732224277 M195.87597228043973,136.65312732224277 L190.7947394492728,127.40183862018944 M190.7947394492728,127.40183862018944 L184.51891237617093,119.7512010666029 M184.51891237617093,119.7512010666029 L177.16867523997877,113.819809389341 M177.16867523997877,113.819809389341 L168.8805309893291,109.6911886291008 M168.8805309893291,109.6911886291008 L159.8029053773306,107.41507393899292 M159.8029053773306,107.41507393899292 L150.092120482919,107.009301697095 M150.092120482919,107.009301697095 L139.90907512824987,108.4630973259267 M139.90907512824987,108.4630973259267 L129.55022330273908,111.68729387563849 M129.55022330273908,111.68729387563849 L119.03107877868501,116.64031984437804 M542.7463628204796,546.104222952059 L553.2275732454424,540.7138286665343 M553.2275732454424,540.7138286665343 L562.9597770206225,536.8254610053598 M562.9597770206225,536.8254610053598 L571.7445444972119,534.5172082373069 M571.7445444972119,534.5172082373069 L579.403354147871,533.834498746064 M579.403354147871,533.834498746064 L585.7811682349828,534.7892896158514 M585.7811682349828,534.7892896158514 L590.7495618235378,537.3600471485461 M590.7495618235378,537.3600471485461 L594.2091755778379,541.4922789579601 M594.2091755778379,541.4922789579601 L596.0916430477598,547.0998585897103 M596.0916430477598,547.0998585897103 L596.360759210833,554.0670316547327 M596.360759210833,554.0670316547327 L595.0131013205751,562.2506645860166 M595.0131013205751,562.2506645860166 L592.0778783396047,571.4835145732077 M441.2914013362038,657.0745281143393 L445.7233839049771,646.9634434072628 M445.7233839049771,646.9634434072628 L451.60923660297095,636.1774459636551 M451.60923660297095,636.1774459636551 L458.8294559523066,624.9371735989988 M458.8294559523066,624.9371735989988 L467.2367849856986,613.4730766364829 M467.2367849856986,613.4730766364829 L476.65919271645964,602.0203949805536 M476.65919271645964,602.0203949805536 L486.9034829742955,590.8144032716905 M486.9034829742955,590.8144032716905 L497.7593078916735,580.0854062664665 M497.7593078916735,580.0854062664665 L509.0036231812908,570.0537887431001 M509.0036231812908,570.0537887431001 L520.4053825064192,560.9254788722857 M520.4053825064192,560.9254788722857 L531.7304135950664,552.8875264251169 M531.7304135950664,552.8875264251169 L542.7463628204796,546.104222952059 M218.9850325888665,33.73673133753664 L18.12157655923079,143.97355200336813" stroke="black"  stroke-width="4"  fill="red"/></svg>