<svg version="1.1" xmlns="http://www.w3.org/2000/svg" viewBox="-91.64333316674805 -22.55309328110967 195.48813456119228 72.5162013104444" fill="none" stroke="black" stroke-width="0.6%" vector-effect="non-scaling-stroke">
    <path d="M -24.11934 48.96311 L -90.64333 29.07205 L -90.64333 26.18048 L -72.34923 31.65052 L -72.34923 -21.55309 L -42.41344 -12.60212 L 32.24953 4.75676 L 2.31373 -4.19422 L -72.34923 -21.55309" />
    <path d="M -24.11934 48.96311 L 23.18185 37.73523" />
    <path d="M 100.64983 37.0262 L 100.53843 37.32768 L 100.14942 37.61233 L 99.5072 37.86232 L 98.65203 38.06198 L 97.63751 38.19879 L 96.52722 38.26417 L 95.39078 38.25403 L 94.29939 38.16901 L 93.32149 38.01443 L 92.51837 37.79998 L 91.94036 37.5391 L 91.69953 37.429 L 91.36745 37.33727 L 90.96311 37.26918 L 90.50964 37.22861 L 90.03298 37.2179 L 89.56042 37.23764 L 89.11895 37.28671 L 85.26182 37.8318 L 81.29822 38.31968 L 77.24011 38.74889 L 73.09972 39.11813 L 68.88952 39.42628 L 64.62218 39.67243 L 64.166 39.71077 L 63.75705 39.77688 L 63.41872 39.86697 L 63.26674 39.93362" />
    <path d="M 63.26674 40.64876 L 63.17211 40.95065 L 62.79897 41.2368 L 62.17072 41.4893 L 61.32675 41.69231 L 60.31994 41.83311 L 59.21341 41.90287 L 58.07653 41.89721 L 56.98053 41.81651 L 55.99415 41.6658 L 55.17919 41.45454 L 54.58673 41.19598 L 54.25393 40.90631 L 54.20164 40.6037 L 54.18233 40.47637 L 54.05008 40.35389 L 53.81245 40.2433 L 53.48305 40.15089 L 53.08069 40.08197 L 52.62842 40.04047 L 52.15209 40.02877 L 48.35113 40.03286 L 44.55379 39.98857 L 40.76871 39.896 L 37.00455 39.75536 L 37.00455 34.45414 L 38.96773 33.98814 L 39.7381 34.01656 L 40.2693 34.1754" />
    <path d="M 37.00455 39.75536 L 23.19087 43.03432 L 21.50796 43.38823 L 19.67901 43.68632 L 17.73001 43.92436 L 15.68857 44.09897 L 13.5837 44.20768 L 11.44525 44.24894 L 9.30354 44.22217 L 7.18898 44.12774 L 5.13156 43.967 L 3.16049 43.74223 L 3.21896 42.47382" />
    <path d="M -0.15546 43.2748 L 3.16049 43.74223 L 3.16049 42.4877" />
    <path d="M 39.44851 12.35994 L 39.19922 12.65901 L 38.70006 12.935 L 37.97742 13.17331 L 37.06954 13.36133 L 34.11153 13.48725 L 32.24953 13.6194" />
    <path d="M 102.8448 34.66791 L 101.75095 34.92282 L 100.64983 35.17011" />
    <path d="M -24.11934 48.96311 L -24.11934 46.07153 L 39.34418 31.0072 L 40.2693 31.28382 L 40.2693 34.1754" />
    <path d="M -42.41344 40.60149 L -24.11934 46.07153" />
    <path d="M -42.41344 40.60149 L -42.41344 -12.60212" />
    <path d="M -57.38134 -11.9073 L -54.6593 -10.62963 L -52.0686 -8.48608 L -49.73422 -5.58007 L -47.76881 -2.0518 L -46.26718 1.92849 L -45.30178 6.16875 L -44.9192 10.46442 L -45.13789 14.60822 L -45.9473 18.40023 L -47.30838 21.6575 L -49.15546 24.22286 L -51.39942 25.97254 L -53.932 26.82213 L -56.631 26.73063 L -59.44939 25.65645 L -62.1618 23.64247 L -64.62923 20.79187 L -66.72525 17.25075 L -68.34243 13.20057 L -69.39791 8.84888 L -69.8376 4.41868 L -69.63897 0.137 L -68.81219 -3.77674 L -67.39963 -7.12199 L -65.47369 -9.72731 L -63.13305 -11.4592 L -60.49766 -12.2289 L -57.70258 -11.99697 L -57.67964 -11.99099 L -57.6567 -11.98495 L -57.63375 -11.97884 L -57.61081 -11.97266 L -57.58786 -11.96642 L -57.56492 -11.96011 L -57.54197 -11.95374 L -57.51902 -11.9473 L -57.49608 -11.9408 L -57.47313 -11.93423 L -57.45018 -11.9276 L -57.42723 -11.9209 L -57.40428 -11.91413 L -57.38134 -11.9073 Z" />
    <path d="M -72.34923 21.83801 L -90.64333 26.18048" />
    <path d="M 3.03594 42.51726 L 3.16049 43.74223" />
    <path d="M 3.10375 42.50117 L 3.16049 43.74223" />
    <path d="M 3.15887 42.48808 L 3.16049 43.74223" />
    <path d="M 5.04774 42.03972 L 5.13156 43.967" />
    <path d="M 5.1416 42.01744 L 5.13156 43.967" />
    <path d="M 5.26836 41.98735 L 5.13156 43.967" />
    <path d="M 7.11121 41.54992 L 7.18898 44.12774" />
    <path d="M 7.27817 41.51028 L 7.18898 44.12774" />
    <path d="M 9.08017 41.08254 L 9.30354 44.22217" />
    <path d="M 9.28135 41.03479 L 9.30354 44.22217" />
    <path d="M 9.50452 40.98182 L 9.30354 44.22217" />
    <path d="M 11.24619 40.56839 L 11.44525 44.24894" />
    <path d="M 11.49919 40.50834 L 11.44525 44.24894" />
    <path d="M 11.78249 40.44109 L 11.44525 44.24894" />
    <path d="M 13.4189 40.05266 L 13.5837 44.20768" />
    <path d="M 13.72713 39.97949 L 13.5837 44.20768" />
    <path d="M 14.0765 39.89656 L 13.5837 44.20768" />
    <path d="M 15.56184 39.54399 L 15.68857 44.09897" />
    <path d="M 15.92914 39.4568 L 15.68857 44.09897" />
    <path d="M 17.26459 39.13981 L 17.73001 43.92436" />
    <path d="M 17.638 39.05117 L 17.73001 43.92436" />
    <path d="M 18.57961 38.82766 L 17.73001 43.92436" />
    <path d="M 19.61538 38.5818 L 19.67901 43.68632" />
    <path d="M 20.75287 38.31179 L 19.67901 43.68632" />
    <path d="M 21.47142 38.14123 L 21.50796 43.38823" />
    <path d="M 22.8805 37.80676 L 21.50796 43.38823" />
    <path d="M 23.18184 37.73523 L 23.19087 43.03432" />
    <path d="M 39.34418 33.89878 L 39.34418 31.0072" />
    <path d="M 38.96773 33.98814 L 39.34418 33.89878 L 39.7381 34.01656" />
    <path d="M 95.75489 35.58413 L 95.75489 34.67507 L 95.32346 34.7151 L 94.94562 34.78351 L 94.64712 34.87564 L 94.44829 34.98522 L 94.36269 35.10477 L 94.39616 35.22615 L 94.5464 35.34109 L 94.80319 35.44175 L 95.14902 35.52127 L 95.56033 35.57424 L 96.00907 35.59705 L 96.46469 35.58813 L 96.89612 35.5481 L 97.27396 35.47969 L 97.57247 35.38756 L 97.77129 35.27798 L 97.85689 35.15843 L 97.82343 35.03705 L 97.67318 34.92211 L 97.4164 34.82145 L 97.07056 34.74193 L 96.65926 34.68896 L 96.21051 34.66615 L 95.75489 34.67507" />
    <path d="M 95.32346 35.54374 L 95.32346 34.7151" />
    <path d="M 94.94562 35.4745 L 94.94562 34.78351" />
    <path d="M 94.64712 35.38057 L 94.64712 34.87564" />
    <path d="M 94.44829 35.26603 L 94.44829 34.98522" />
    <path d="M 97.82343 35.20516 L 97.82343 35.03705" />
    <path d="M 97.67318 35.33206 L 97.67318 34.92211" />
    <path d="M 97.4164 35.43573 L 97.4164 34.82145" />
    <path d="M 97.07056 35.51652 L 97.07056 34.74193" />
    <path d="M 96.65926 35.57008 L 96.65926 34.68896" />
    <path d="M 96.21051 35.5931 L 96.21051 34.66615" />
    <path d="M 98.79018 33.9788 L 98.79018 33.81075 L 98.93082 33.68895 L 99.17601 33.57953 L 99.51171 33.48874 L 99.40352 31.58396 L 95.80407 32.30239 L 92.05795 32.96548 L 88.17713 33.57109 L 84.17405 34.1173 L 82.4574 32.87189 L 81.01618 33.0446 L 80.23302 33.13762 L 79.95168 33.16738 L 76.39262 33.52816 L 75.17826 33.63645 L 72.38374 33.87328 L 70.58236 34.00512 L 68.26167 34.16462 L 66.05398 34.29196 L 65.72728 34.31004 L 64.19835 34.39142 L 61.36688 34.51274 L 60.06134 34.56239 L 57.03897 34.64875 L 55.89491 34.67515 L 52.73221 34.7209 L 51.71085 34.72934 L 51.53603 34.73005 L 48.90054 34.73289 L 47.61268 34.7245 L 44.89186 34.69276 L 43.70938 34.66754" />
    <path d="M 98.76213 33.93797 L 98.79018 33.81075" />
    <path d="M 98.84827 34.06332 L 98.76213 33.93797" />
    <path d="M 99.04368 34.17964 L 98.84827 34.06332" />
    <path d="M 99.33718 34.28027 L 99.04368 34.17964" />
    <path d="M 99.33718 34.28027 L 100.02977 34.52053 L 100.47667 34.79908 L 100.64983 35.09848 L 100.53843 35.39996 L 100.14942 35.68461 L 99.5072 35.9346 L 98.65203 36.13426 L 97.63751 36.27107 L 96.52722 36.33645 L 95.39078 36.32631 L 94.29939 36.24129 L 93.32149 36.08671 L 92.51837 35.87226 L 91.94036 35.61138 L 91.94036 37.5391" />
    <path d="M 100.64983 37.0262 L 100.64983 35.09848" />
    <path d="M 100.53843 37.32768 L 100.53843 35.39996" />
    <path d="M 100.14942 37.61233 L 100.14942 35.68461" />
    <path d="M 99.5072 37.86232 L 99.5072 35.9346" />
    <path d="M 98.65203 38.06198 L 98.65203 36.13426" />
    <path d="M 97.63751 38.19879 L 97.63751 36.27107" />
    <path d="M 96.52722 38.26417 L 96.52722 36.33645" />
    <path d="M 95.39078 38.25403 L 95.39078 36.32631" />
    <path d="M 94.29939 38.16901 L 94.29939 36.24129" />
    <path d="M 93.32149 38.01443 L 93.32149 36.08671" />
    <path d="M 92.51837 37.79998 L 92.51837 35.87226" />
    <path d="M 91.69953 35.50128 L 91.94036 35.61138" />
    <path d="M 91.69953 37.429 L 91.69953 35.50128" />
    <path d="M 91.36745 35.40955 L 91.69953 35.50128" />
    <path d="M 91.36745 37.33727 L 91.36745 35.40955" />
    <path d="M 90.96311 35.34146 L 91.36745 35.40955" />
    <path d="M 90.96311 37.26918 L 90.96311 35.34146" />
    <path d="M 90.50964 35.3009 L 90.96311 35.34146" />
    <path d="M 90.50964 37.22861 L 90.50964 35.3009" />
    <path d="M 90.03298 35.29018 L 90.50964 35.3009" />
    <path d="M 90.03298 37.2179 L 90.03298 35.29018" />
    <path d="M 89.56042 35.30992 L 90.03298 35.29018" />
    <path d="M 89.56042 37.23764 L 89.56042 35.30992" />
    <path d="M 89.11895 35.35899 L 89.56042 35.30992" />
    <path d="M 89.11895 37.28671 L 89.11895 35.35899 L 92.70477 34.78444 L 92.05795 32.96548" />
    <path d="M 89.11895 37.28671 L 88.17713 33.57109" />
    <path d="M 85.26182 37.8318 L 88.17713 33.57109" />
    <path d="M 85.26182 37.8318 L 84.17405 34.1173 L 81.01618 33.0446" />
    <path d="M 81.29822 38.31968 L 84.17405 34.1173" />
    <path d="M 81.29822 38.31968 L 80.23302 33.13762" />
    <path d="M 77.24011 38.74889 L 79.95168 33.16738" />
    <path d="M 77.24011 38.74889 L 76.39262 33.52816" />
    <path d="M 73.09972 39.11813 L 75.17826 33.63645" />
    <path d="M 73.09972 39.11813 L 72.38374 33.87328" />
    <path d="M 68.88952 39.42628 L 70.58236 34.00512" />
    <path d="M 68.88952 39.42628 L 68.26167 34.16462" />
    <path d="M 64.62218 39.67243 L 66.05398 34.29196" />
    <path d="M 64.62218 37.74471 L 64.62218 39.67243" />
    <path d="M 64.166 37.78306 L 64.62218 37.74471 L 65.72728 34.31004" />
    <path d="M 64.166 39.71077 L 64.166 37.78306" />
    <path d="M 63.75705 37.84916 L 64.166 37.78306" />
    <path d="M 63.75705 39.77688 L 63.75705 37.84916" />
    <path d="M 63.41872 37.93925 L 63.75705 37.84916" />
    <path d="M 63.41872 39.86697 L 63.41872 37.93925" />
    <path d="M 63.17037 38.04817 L 63.41872 37.93925" />
    <path d="M 63.17037 38.56937 L 63.17037 38.04817" />
    <path d="M 63.02619 38.16968 L 63.17037 38.04817" />
    <path d="M 63.02619 38.34513 L 63.02619 38.16968" />
    <path d="M 62.99445 38.29684 L 63.02619 38.16968" />
    <path d="M 63.07695 38.42236 L 62.99445 38.29684" />
    <path d="M 63.26674 38.72105 L 63.07695 38.42236" />
    <path d="M 63.26674 40.64876 L 63.26674 38.72105" />
    <path d="M 63.17211 39.02293 L 63.26674 38.72105" />
    <path d="M 63.17211 40.95065 L 63.17211 39.02293" />
    <path d="M 62.79897 39.30908 L 63.17211 39.02293" />
    <path d="M 62.79897 41.2368 L 62.79897 39.30908" />
    <path d="M 62.17072 39.56158 L 62.79897 39.30908" />
    <path d="M 62.17072 41.4893 L 62.17072 39.56158" />
    <path d="M 61.32675 39.76459 L 62.17072 39.56158" />
    <path d="M 61.32675 41.69231 L 61.32675 39.76459" />
    <path d="M 60.31994 39.90539 L 61.32675 39.76459" />
    <path d="M 60.31994 41.83311 L 60.31994 39.90539" />
    <path d="M 59.21341 39.97515 L 60.31994 39.90539" />
    <path d="M 59.21341 41.90287 L 59.21341 39.97515" />
    <path d="M 58.07653 39.96949 L 59.21341 39.97515" />
    <path d="M 58.07653 41.89721 L 58.07653 39.96949" />
    <path d="M 56.98053 39.88879 L 58.07653 39.96949" />
    <path d="M 56.98053 41.81651 L 56.98053 39.88879" />
    <path d="M 55.99415 39.73808 L 56.98053 39.88879" />
    <path d="M 55.99415 41.6658 L 55.99415 39.73808" />
    <path d="M 55.17919 39.52683 L 55.99415 39.73808" />
    <path d="M 55.17919 41.45454 L 55.17919 39.52683" />
    <path d="M 54.58673 39.26826 L 55.17919 39.52683" />
    <path d="M 54.58673 41.19598 L 54.58673 39.26826" />
    <path d="M 54.25393 38.97859 L 54.58673 39.26826" />
    <path d="M 54.25393 40.90631 L 54.25393 38.97859" />
    <path d="M 54.20164 38.67598 L 54.25393 38.97859" />
    <path d="M 54.20164 38.67598 L 54.20164 40.6037" />
    <path d="M 54.18233 38.54865 L 54.20164 38.67598" />
    <path d="M 54.18233 40.47637 L 54.18233 38.54865" />
    <path d="M 54.05008 38.42618 L 54.18233 38.54865" />
    <path d="M 54.05008 40.35389 L 54.05008 38.42618" />
    <path d="M 53.81245 38.31558 L 54.05008 38.42618" />
    <path d="M 53.81245 40.2433 L 53.81245 38.31558" />
    <path d="M 53.48305 38.22317 L 53.81245 38.31558" />
    <path d="M 53.48305 40.15089 L 53.48305 38.22317" />
    <path d="M 53.08069 38.15425 L 53.48305 38.22317" />
    <path d="M 53.08069 40.08197 L 53.08069 38.15425" />
    <path d="M 52.62842 38.11275 L 53.08069 38.15425" />
    <path d="M 52.62842 40.04047 L 52.62842 38.11275" />
    <path d="M 52.15209 38.10105 L 52.62842 38.11275" />
    <path d="M 52.15209 40.02877 L 52.15209 38.10105 L 52.73221 34.7209" />
    <path d="M 48.35113 40.03286 L 48.90054 34.73289" />
    <path d="M 52.15209 40.02877 L 51.53603 34.73005" />
    <path d="M 44.55379 39.98857 L 44.89186 34.69276" />
    <path d="M 48.35113 40.03286 L 47.61268 34.7245" />
    <path d="M 40.92583 34.59947 L 43.70938 34.66754" />
    <path d="M 40.76871 39.896 L 40.92583 34.59947 L 39.83158 34.55976 L 37.00463 34.45414 L 37.00455 34.45414" />
    <path d="M 44.55379 39.98857 L 43.70938 34.66754" />
    <path d="M 37.00455 39.75536 L 37.00463 34.45414" />
    <path d="M 40.76871 39.896 L 39.83158 34.55976" />
    <path d="M 32.24953 9.02389 L 33.53287 8.98649 L 33.56514 8.985 L 33.59741 8.98351 L 33.62969 8.98203 L 34.77791 8.9653 L 35.91011 9.01889 L 36.96641 9.13997 L 37.89094 9.32215 L 38.6348 9.55577 L 39.15863 9.8285 L 39.43474 10.12589 L 39.44851 10.43223 L 39.19922 10.7313 L 38.70006 11.00728 L 37.97742 11.24559 L 37.06954 11.43361 L 34.62609 11.53167 L 37.06954 13.36133 L 37.06954 11.43361" />
    <path d="M 39.44851 10.43223 L 39.44851 12.35994" />
    <path d="M 39.19922 10.7313 L 39.19922 12.65901" />
    <path d="M 38.70006 11.00728 L 38.70006 12.935" />
    <path d="M 37.97742 11.24559 L 37.97742 13.17331" />
    <path d="M 34.62609 11.53167 L 34.11153 13.48725" />
    <path d="M 32.24953 11.71014 L 34.11153 13.48725" />
    <path d="M 102.8448 30.81247 L 99.68849 29.86872" />
    <path d="M 102.8448 34.66791 L 102.8448 30.81247 L 99.40352 31.58396" />
    <path d="M 101.75095 34.92282 L 102.8448 30.81247" />
    <path d="M 100.64983 35.15252 L 102.8448 30.81247" />
    <path d="M 99.51171 33.48874 L 100.3273 34.70598" />
    <path d="M 99.51171 33.48874 L 99.51171 34.34082" />
    <path d="M 99.17601 34.22502 L 99.17601 33.57953" />
    <path d="M 98.93082 34.11246 L 98.93082 33.68895" />
    <path d="M 59.2785 38.32943 L 59.6898 38.3824 L 60.03564 38.46193 L 60.29243 38.56259 L 60.44267 38.67753 L 60.47614 38.79891 L 60.39054 38.91846 L 60.19171 39.02804 L 59.89321 39.12017 L 59.51537 39.18858 L 59.08393 39.22861 L 58.62832 39.23752 L 58.17957 39.21472 L 57.76827 39.16175 L 57.42243 39.08222 L 57.16564 38.98156 L 57.0154 38.86662 L 56.98193 38.74524 L 57.06753 38.62569 L 57.26636 38.51612 L 57.56487 38.42398 L 57.94271 38.35557 L 58.37413 38.31554 L 58.82975 38.30663 L 59.2785 38.32943 Z" />
    <path d="M 59.2785 39.21056 L 59.2785 38.32943" />
    <path d="M 59.6898 39.157 L 59.6898 38.3824" />
    <path d="M 58.82975 39.23358 L 58.82975 38.30663" />
    <path d="M 58.37413 39.22461 L 58.37413 38.31554" />
    <path d="M 57.94271 39.18421 L 57.94271 38.35557" />
    <path d="M 57.56487 39.11498 L 57.56487 38.42398" />
    <path d="M 57.26636 39.02104 L 57.26636 38.51612" />
    <path d="M 57.06753 38.9065 L 57.06753 38.62569" />
    <path d="M 60.44267 38.84565 L 60.44267 38.67753" />
    <path d="M 60.29243 38.97253 L 60.29243 38.56259" />
    <path d="M 60.03564 39.07621 L 60.03564 38.46193" />
    <path d="M 32.73624 10.52791 L 33.02185 10.63988 L 33.40651 10.72833 L 33.864 10.78725 L 34.36312 10.81261 L 34.8699 10.8027 L 35.34976 10.75817 L 35.77002 10.68208 L 36.10204 10.5796 L 36.32319 10.45773 L 36.41839 10.32475 L 36.38118 10.18974 L 36.21406 10.0619 L 35.92844 9.94994 L 35.54379 9.86149 L 35.0863 9.80257 L 34.58717 9.7772 L 34.0804 9.78712 L 33.60054 9.83164 L 33.18028 9.90773 L 32.84826 10.01021 L 32.62711 10.13209 L 32.5319 10.26506 L 32.56912 10.40007 L 32.73624 10.52791 Z" />
    <path d="M 36.38118 10.18974 L 36.38118 10.37673" />
    <path d="M 36.21406 10.0619 L 36.21406 10.51787" />
    <path d="M 35.92844 9.94994 L 35.92844 10.63318" />
    <path d="M 35.54379 9.86149 L 35.54379 10.72304" />
    <path d="M 35.0863 9.80257 L 35.0863 10.78262" />
    <path d="M 34.58717 9.7772 L 34.58717 10.80823" />
    <path d="M 34.0804 9.78712 L 34.0804 10.79824" />
    <path d="M 33.60054 9.83164 L 33.60054 10.75332" />
    <path d="M 33.18028 9.90773 L 33.18028 10.67631" />
    <path d="M 32.84826 10.01021 L 32.84826 10.57183" />
    <path d="M 32.62711 10.13209 L 32.62711 10.44443" />
    <path d="M 101.92381 26.49138 A 79 21.04649 0 0 1 40.2693 31.28382" />
    <path d="M 101.92381 26.49138 L 66.63169 15.93883 A 29 7.72593 0 0 1 32.24953 20.55442" />
    <path d="M 32.24953 22.87875 L -42.41344 40.60149" />
    <path d="M 32.24953 22.87875 L 32.24953 4.75676" />
    <path d="M 88.94212 31.76226 A 79 21.04649 0 0 1 40.2693 34.1754" />
    <path d="M 88.94212 31.76226 L 88.79138 31.79556 L 88.51611 31.85509 L 88.09545 31.94303 L 87.66179 32.03172 L 86.98064 32.16423 L 86.65813 32.22777 L 86.01053 32.3425 L 85.86287 32.8455 L 85.56843 33.68591 L 82.98431 32.80065 L 82.91999 32.80872 L 82.4574 32.87189" />
    <path d="M 86.01053 32.3425 L 85.25734 32.46589 L 84.92033 32.51956 L 83.91977 32.66695 L 82.98431 32.80065" />
    <path d="M 96.17223 34.16045 L 99.51171 33.48874" />
    <path d="M 92.70477 34.78444 L 96.17223 34.16045 L 95.80407 32.30239" />
    <path d="M 89.11895 35.35899 L 88.17713 33.57109" />
    <path d="M 60.49087 37.92172 L 64.62218 37.74471 L 64.19835 34.39142" />
    <path d="M 56.33033 38.04061 L 60.49087 37.92172 L 60.06134 34.56239" />
    <path d="M 52.15209 38.10105 L 56.33033 38.04061 L 55.89491 34.67515" />
    <path d="M 52.15209 38.10105 L 51.71085 34.72934" />
    <path d="M 34.62609 11.53167 L 32.24953 11.68231" />
    <path d="M 101.92381 29.38296 A 79 21.04649 0 0 1 88.94212 31.76226" />
    <path d="M 96.40508 31.23485 L 95.54254 31.61488 L 93.5768 31.03008 L 93.57193 31.02823" />
    <path d="M 95.54254 31.61488 L 94.48983 31.99794 L 93.60205 31.87591 L 92.01988 31.28708" />
    <path d="M 94.48983 31.99794 L 93.26937 32.37385 L 93.60205 31.87591 L 93.59813 31.44881 L 93.5768 31.03008 L 93.57655 31.02744" />
    <path d="M 93.26937 32.37385 L 91.93801 32.72691 L 89.94627 32.3661 L 88.79138 31.79556" />
    <path d="M 91.93801 32.72691 L 90.51728 33.0552 L 89.85825 32.81084 L 88.09545 31.94303" />
    <path d="M 90.51728 33.0552 L 89.02534 33.35765 L 85.86287 32.8455 L 84.92033 32.51956" />
    <path d="M 89.02534 33.35765 L 87.46507 33.63575 L 85.56843 33.68591 L 83.91977 32.66695" />
    <path d="M 87.46507 33.63575 L 85.8445 33.88921 L 85.56843 33.68591" />
    <path d="M 85.8445 33.88921 L 84.17405 34.1173" />
    <path d="M 97.74299 30.26315 L 97.55004 30.50206 L 97.07505 30.8624 L 96.40508 31.23485 L 94.60125 30.84908" />
    <path d="M 100.56205 34.9467 L 99.40352 31.58396" />
    <path d="M 101.92381 26.49138 L 101.92381 29.38296" />
    <path d="M 90.02008 31.91973 L 89.94627 32.3661 L 89.85825 32.81084 L 86.98064 32.16423" />
    <path d="M 90.02008 31.91973 L 89.39644 31.69519" />
    <path d="M 89.94627 32.3661 L 88.51611 31.85509" />
    <path d="M 89.85825 32.81084 L 87.66179 32.03172" />
    <path d="M 89.02534 33.35765 L 86.65813 32.22777" />
    <path d="M 89.02534 33.35765 L 89.85825 32.81084" />
    <path d="M 85.86287 32.8455 L 85.25734 32.46589" />
    <path d="M 85.8445 33.88921 L 82.91999 32.80872" />
    <path d="M 60.49087 37.92172 L 61.36688 34.51274" />
    <path d="M 56.33033 38.04061 L 57.03897 34.64875" />
    <path d="M 96.17223 34.16045 L 99.40352 31.58396" />
    <path d="M 92.70477 34.78444 L 95.80407 32.30239" />
    <path d="M 89.11895 35.35899 L 92.05795 32.96548" />
    <path d="M 90.02008 31.91973 L 89.52727 31.67568" />
    <path d="M 90.0629 31.59491 L 90.02008 31.91973" />
    <path d="M 91.93801 32.72691 L 90.02008 31.91973" />
    <path d="M 91.93801 32.72691 L 90.22258 31.57055" />
    <path d="M 93.26937 32.37385 L 90.35191 31.55071" />
    <path d="M 93.26937 32.37385 L 91.07727 31.43788" />
    <path d="M 91.51461 31.3685 L 93.60205 31.87591 L 92.32272 31.23762" />
    <path d="M 93.59813 31.44881 L 92.81731 31.15575" />
    <path d="M 93.59813 31.44881 L 92.96093 31.13173" />
    <path d="M 93.5768 31.03008 L 93.57278 31.02809" />
    <path d="M 95.05391 30.76835 L 96.40508 31.23485" />
    <path d="M 95.45747 30.69535 L 96.40508 31.23485" />
    <path d="M 96.56705 30.7588 L 96.40508 31.23485" />
    <path d="M 96.56705 30.7588 L 96.10436 30.5763" />
    <path d="M 96.56705 30.7588 L 96.20886 30.55683" />
    <path d="M 96.47122 30.50765 L 96.56705 30.7588 L 97.07505 30.8624" />
    <path d="M 95.54254 31.61488 L 94.15514 30.92747" />
    <path d="M 94.48983 31.99794 L 93.59813 31.44881" />
    <path d="M 95.54254 31.61488 L 93.59813 31.44881" />
    <path d="M 90.51728 33.0552 L 89.94627 32.3661" />
    <path d="M 87.46507 33.63575 L 85.86287 32.8455" />
    <path d="M 97.31245 30.34707 L 97.55004 30.50206" />
    <path d="M 97.1707 30.37444 L 97.55004 30.50206" />
    <path d="M 96.68602 30.46707 L 97.07505 30.8624" />
</svg>