<svg version="1.1" xmlns="http://www.w3.org/2000/svg" viewBox="-63.786432072742244 -6.683825265783637 148.98864725301593 12.586094445858542" fill="none" stroke="black" stroke-width="0.6%" vector-effect="non-scaling-stroke">
    <path d="M -61.57128 -3.26034 L -61.42593 -3.2729 L -60.81914 -3.31706 L -60.65193 -3.32916 L -60.4381 -3.34229 L -59.73783 -3.38065 L -59.50261 -3.39317 L -58.8221 -3.42274 L -58.14381 -3.4516 L -57.17728 -3.48429 L -56.59156 -3.5039 L -55.1674 -3.54148 L -54.86459 -3.54944 L -54.85459 -3.54967 L -39.51523 -3.90519 L -39.44158 -3.92804 L -39.1478 -4.02103 L -39.06551 -4.04267 L -38.63158 -4.1362 L -38.53105 -4.15774 L -38.25835 -4.20333 L -37.71224 -4.29319 L -36.9631 -4.39245 L -36.70568 -4.42559 L -35.74731 -4.53061 L -35.39587 -4.56718 L -34.32104 -4.66637 L -33.84719 -4.70748 L -32.68814 -4.79935 L -32.04618 -4.84678 L -30.90671 -4.92551 L -29.78191 -4.99741 L -28.82522 -5.05514 L -27.29266 -5.14077 L -26.56196 -5.17972 L -24.36225 -5.28796 L -24.14896 -5.29807 L -23.51129 -5.32584 L -22.46092 -5.37083 L -22.14964 -5.38418 L -21.87612 -5.39473 L -20.64405 -5.4394 L -19.62633 -5.47292 L -19.03489 -5.49122 L -17.76114 -5.52674 L -17.34712 -5.53833 L -17.1371 -5.54356 L -15.60617 -5.57934 L -14.37925 -5.60437 L -14.0152 -5.6114 L -13.86144 -5.61423 L -12.95453 -5.62904 L -12.14275 -5.64199 L -11.86068 -5.64573 L -11.3251 -5.65264 L -10.70404 -5.66019 L -10.42425 -5.6631 L -9.3639 -5.67233 L -8.90078 -5.67591 L -8.09041 -5.67973 L -7.45177 -5.68291 L -6.37209 -5.68362 L -6.14517 -5.68382 L -5.11737 -5.67957 L -5.01034 -5.67907 L -4.98364 -5.6789 L -4.08971 -5.66959 L -3.93051 -5.66751 L -3.24268 -5.65537 L -3.03958 -5.65078 L -2.50668 -5.63621 L -2.40927 -5.63294 L -1.94698 -5.61377 L -1.93166 -5.61309" />
    <path d="M -62.03395 -3.21267 L -61.57128 -3.26034" />
    <path d="M -62.15424 -3.19976 L -62.03395 -3.21267" />
    <path d="M -62.24125 -3.18764 L -62.15424 -3.19976" />
    <path d="M -62.54903 -3.13619 L -62.24125 -3.18764" />
    <path d="M -62.61157 -3.12378 L -62.54903 -3.13619" />
    <path d="M -62.64573 -3.11198 L -62.61157 -3.12378" />
    <path d="M -62.77747 -3.05794 L -62.64573 -3.11198" />
    <path d="M -62.78643 -3.04594 L -62.77747 -3.05794" />
    <path d="M -62.72959 -2.99107 L -62.78643 -3.04594 L -62.7854 2.44513 L -62.70911 2.51878 L -62.67839 -2.96949 L -62.71177 -2.97897 L -62.72959 -2.99107 L -62.70911 2.51878 L -62.37859 2.59158 L -62.42745 -2.91422 L -62.67839 -2.96949" />
    <path d="M -62.37859 -2.90517 L -62.42745 -2.91422" />
    <path d="M -62.37696 -2.90491 L -62.37859 -2.90517 L -62.37859 2.59158 L -61.26779 2.74964 L -59.95003 2.9058 L -58.42788 3.05975 L -56.70454 3.21117 L -54.78364 3.35977 L -53.81293 2.20289 L -52.84958 1.00183 L -51.98711 0.13523 L -50.98846 -0.77099 L -50.14786 -1.75435 L -51.16518 -1.81749 L -51.61813 -1.84856 L -52.21958 -1.88966 L -52.98762 -1.94737 L -53.03708 -1.95107 L -53.11056 -1.95708 L -53.84565 -2.01469 L -54.47543 -2.06846 L -54.62695 -2.08133 L -54.74504 -2.0923 L -55.41479 -2.151 L -55.93471 -2.20055 L -56.20539 -2.22447 L -56.60448 -2.26261 L -57.02175 -2.30221 L -57.23332 -2.32393 L -57.67464 -2.3642 L -58.01199 -2.3965 L -58.19573 -2.41427 L -58.37326 -2.43224 L -58.67982 -2.46106 L -59.01043 -2.49388 L -59.43614 -2.53694 L -59.81095 -2.57596 L -60.06265 -2.60341 L -60.23266 -2.62299 L -60.95778 -2.70892 L -61.14436 -2.73153 L -61.27872 -2.74855 L -61.37535 -2.76142 L -62.13818 -2.86997 L -62.24151 -2.88457 L -62.31904 -2.896 L -62.37696 -2.90491 L -62.37859 2.59158" />
    <path d="M -50.05011 -1.74826 L -50.14786 -1.75435" />
    <path d="M -49.38104 -1.71038 L -50.05011 -1.74826" />
    <path d="M -48.87387 -1.68139 L -49.38104 -1.71038" />
    <path d="M -48.8099 -1.67807 L -48.87387 -1.68139" />
    <path d="M -47.62565 -1.61656 L -48.8099 -1.67807" />
    <path d="M -47.53107 -1.6121 L -47.62565 -1.61656" />
    <path d="M -46.49712 -1.5634 L -47.53107 -1.6121" />
    <path d="M -46.17156 -1.54797 L -46.49712 -1.5634 L -47.59589 -1.5117 L -48.85423 -1.60583 L -49.38104 -1.71038" />
    <path d="M -46.14037 -1.54649 L -46.17156 -1.54797" />
    <path d="M -44.87136 -1.49159 L -46.14037 -1.54649" />
    <path d="M -44.55243 -1.47784 L -44.87136 -1.49159" />
    <path d="M -43.86933 -1.45038 L -44.55243 -1.47784" />
    <path d="M -43.45437 -1.43378 L -43.86933 -1.45038" />
    <path d="M -42.96092 -1.41504 L -43.45437 -1.43378" />
    <path d="M -42.29941 -1.39006 L -42.96092 -1.41504 L -43.19232 -0.62589 L -43.83071 1.14361 L -44.21453 -0.35355 L -43.86933 -1.45038" />
    <path d="M -42.04625 -1.38097 L -42.29941 -1.39006" />
    <path d="M -41.25306 -1.3527 L -42.04625 -1.38097" />
    <path d="M -41.12703 -1.34806 L -41.25306 -1.3527 L -42.15564 -0.97908 L -42.29941 -1.39006" />
    <path d="M -41.08419 -1.34649 L -41.12703 -1.34806" />
    <path d="M -40.22545 -1.31647 L -41.08419 -1.34649" />
    <path d="M -39.81901 -1.30239 L -40.22545 -1.31647" />
    <path d="M -39.3135 -1.2856 L -39.81901 -1.30239" />
    <path d="M -38.47821 -1.25813 L -39.3135 -1.2856" />
    <path d="M -38.38864 -1.2553 L -38.47821 -1.25813" />
    <path d="M -38.21485 -1.24988 L -38.38864 -1.2553 L -38.42256 -1.11754 L -38.47821 -1.25813" />
    <path d="M -37.4837 -1.22593 L -38.21485 -1.24988 L -38.42256 -1.11754 L -39.52561 -0.49638 L -40.62051 0.04009 L -41.70445 0.49208 L -42.15564 -0.97908 L -43.19232 -0.62589 L -43.45437 -1.43378" />
    <path d="M -37.07693 -1.21276 L -37.4837 -1.22593" />
    <path d="M -36.57176 -1.19695 L -37.07693 -1.21276" />
    <path d="M -35.73029 -1.17096 L -36.57176 -1.19695" />
    <path d="M -35.63778 -1.16793 L -35.73029 -1.17096 L -36.77097 -0.42683 L -37.07693 -1.21276" />
    <path d="M -35.59199 -1.16645 L -35.63778 -1.16793" />
    <path d="M -34.64269 -1.13653 L -35.59199 -1.16645 L -34.9242 0.59058 L -36.12663 1.45233 L -36.77097 -0.42683 L -37.91719 0.30638 L -38.42256 -1.11754 L -39.05813 0.95182 L -39.52561 -0.49638 L -39.3135 -1.2856" />
    <path d="M -34.04034 -1.1179 L -34.64269 -1.13653" />
    <path d="M -33.61761 -1.1051 L -34.04034 -1.1179" />
    <path d="M -32.89802 -1.08374 L -33.61761 -1.1051" />
    <path d="M -32.44502 -1.06922 L -32.89802 -1.08374 L -33.72317 -0.36269 L -34.04034 -1.1179" />
    <path d="M -31.84017 -1.05057 L -32.44502 -1.06922" />
    <path d="M -30.98359 -1.02408 L -31.84017 -1.05057" />
    <path d="M -30.40542 -1.00686 L -30.98359 -1.02408" />
    <path d="M -29.74338 -0.98631 L -30.40542 -1.00686" />
    <path d="M -28.98166 -0.96349 L -29.74338 -0.98631 L -30.29765 4.49338 L -26.71521 4.59958 L -22.99652 4.7001 L -19.14929 4.79473 L -18.92355 -0.69708 L -19.14929 -0.70202 L -19.1556 -0.70217 L -19.37436 -0.70736 L -19.65331 -0.7141 L -22.41426 -0.78201 L -22.65024 -0.78784 L -22.96108 -0.79574 L -23.37015 -0.80641 L -23.91027 -0.82083 L -25.95628 -0.87614 L -26.42101 -0.88891 L -27.06727 -0.90722 L -27.97959 -0.93378 L -28.98166 -0.96349 L -30.29765 4.49338" />
    <path d="M -17.52649 -0.66836 L -18.92355 -0.69708" />
    <path d="M -17.28343 -0.66375 L -17.52649 -0.66836 L -17.30915 4.83255 L -19.14929 4.79473 L -19.14929 -0.70202" />
    <path d="M -16.96351 -0.65864 L -17.28343 -0.66375 L -17.30915 4.83255" />
    <path d="M -15.50469 -0.63627 L -16.96351 -0.65864 L -17.30915 4.83255" />
    <path d="M -15.17763 -0.63206 L -15.50469 -0.63627 L -15.35122 4.86258 L -17.30915 4.83255" />
    <path d="M -13.6706 -0.616 L -15.17763 -0.63206 L -15.35122 4.86258" />
    <path d="M -13.33933 -0.61266 L -13.6706 -0.616 L -13.30329 4.88439 L -15.35122 4.86258" />
    <path d="M -12.98116 -0.61001 L -13.33933 -0.61266 L -13.30329 4.88439" />
    <path d="M -11.478 -0.60053 L -12.98116 -0.61001 L -13.30329 4.88439" />
    <path d="M -11.11844 -0.59876 L -11.478 -0.60053 L -11.1944 4.89769 L -13.30329 4.88439" />
    <path d="M -10.72516 -0.59776 L -11.11844 -0.59876 L -11.1944 4.89769" />
    <path d="M -9.26583 -0.59463 L -10.72516 -0.59776 L -11.1944 4.89769" />
    <path d="M -8.87249 -0.59456 L -9.26583 -0.59463 L -9.05449 4.90227 L -11.1944 4.89769" />
    <path d="M -8.43581 -0.59544 L -8.87249 -0.59456 L -9.05449 4.90227" />
    <path d="M -7.06465 -0.59813 L -8.43581 -0.59544 L -9.05449 4.90227" />
    <path d="M -6.63033 -0.60002 L -7.06465 -0.59813 L -6.91391 4.89807 L -9.05449 4.90227" />
    <path d="M -5.33312 -0.60796 L -6.63033 -0.60002 L -6.91391 4.89807" />
    <path d="M -4.90711 -0.61076 L -5.33312 -0.60796 L -4.80303 4.88516 L -6.91391 4.89807" />
    <path d="M -3.85449 -0.62136 L -4.90711 -0.61076 L -4.80303 4.88516" />
    <path d="M -2.82185 -0.63216 L -3.85449 -0.62136 L -4.80303 4.88516" />
    <path d="M -1.57759 -0.6507 L -2.82185 -0.63216 L -2.75182 4.86371 L -4.80303 4.88516" />
    <path d="M -0.8293 -0.66202 L -1.57759 -0.6507 L -2.75182 4.86371" />
    <path d="M 0.71829 -0.69331 L -0.8293 -0.66202 L -0.78934 4.83403 L -2.75182 4.86371" />
    <path d="M 1.04649 -0.69998 L 0.71829 -0.69331 L -0.78934 4.83403" />
    <path d="M 1.05651 -0.70021 L 1.04649 -0.69998 L 1.05651 4.79654 L -0.78934 4.83403" />
    <path d="M 16.39588 -1.05573 L 1.05651 -0.70021" />
    <path d="M 16.39595 -1.05573 L 16.39588 -1.05573" />
    <path d="M 19.1442 -1.0292 L 16.39595 -1.05573" />
    <path d="M 20.20858 -1.01908 L 19.1442 -1.0292" />
    <path d="M 22.93274 -0.99755 L 20.20858 -1.01908" />
    <path d="M 24.09183 -0.98887 L 22.93274 -0.99755" />
    <path d="M 26.77211 -0.97227 L 24.09183 -0.98887" />
    <path d="M 28.04411 -0.96527 L 26.77211 -0.97227" />
    <path d="M 30.65723 -0.95348 L 28.04411 -0.96527" />
    <path d="M 30.83083 -0.95277 L 30.65723 -0.95348" />
    <path d="M 31.84721 -0.94914 L 30.83083 -0.95277" />
    <path d="M 35.00437 -0.94041 L 31.84721 -0.94914" />
    <path d="M 36.15139 -0.93852 L 35.00437 -0.94041" />
    <path d="M 39.18993 -0.93563 L 36.15139 -0.93852" />
    <path d="M 40.50868 -0.93596 L 39.18993 -0.93563" />
    <path d="M 43.37564 -0.93842 L 40.50868 -0.93596" />
    <path d="M 44.93172 -0.94177 L 43.37564 -0.93842" />
    <path d="M 45.26457 -0.94258 L 44.93172 -0.94177" />
    <path d="M 47.51642 -0.94868 L 45.26457 -0.94258" />
    <path d="M 49.89642 -0.95838 L 47.51642 -0.94868" />
    <path d="M 51.7479 -0.96693 L 49.89642 -0.95838" />
    <path d="M 54.63638 -0.98433 L 51.7479 -0.96693" />
    <path d="M 55.89429 -0.99258 L 54.63638 -0.98433" />
    <path d="M 59.6028 -1.0223 L 55.89429 -0.99258" />
    <path d="M 59.89657 -1.0248 L 59.6028 -1.0223" />
    <path d="M 60.71949 -1.03309 L 59.89657 -1.0248" />
    <path d="M 62.23462 -1.04852 L 60.71949 -1.03309" />
    <path d="M 62.72483 -1.05447 L 62.23462 -1.04852" />
    <path d="M 62.79263 -1.0552 L 62.72483 -1.05447" />
    <path d="M 63.78694 -1.06798 L 62.79263 -1.0552" />
    <path d="M 64.85265 -1.08221 L 63.78694 -1.06798" />
    <path d="M 65.21363 -1.08752 L 64.85265 -1.08221" />
    <path d="M 66.02213 -1.09983 L 65.21363 -1.08752" />
    <path d="M 66.72162 -1.11151 L 66.02213 -1.09983 L 65.84661 -0.63168 L 65.51592 0.16811 L 62.79263 -1.0552" />
    <path d="M 67.0732 -1.11814 L 66.72162 -1.11151" />
    <path d="M 67.8149 -1.13195 L 67.0732 -1.11814" />
    <path d="M 68.28929 -1.14129 L 67.8149 -1.13195" />
    <path d="M 68.75041 -1.15059 L 68.28929 -1.14129" />
    <path d="M 69.05316 -1.15693 L 68.75041 -1.15059" />
    <path d="M 69.65686 -1.16988 L 69.05316 -1.15693" />
    <path d="M 69.79743 -1.17301 L 69.65686 -1.16988" />
    <path d="M 70.47248 -1.18842 L 69.79743 -1.17301" />
    <path d="M 70.51103 -1.18936 L 70.47248 -1.18842 L 70.38194 -0.82173 L 70.27291 -0.42404 L 70.15263 -0.02301 L 67.0732 -1.11814" />
    <path d="M 70.53571 -1.19001 L 70.51103 -1.18936" />
    <path d="M 71.27167 -1.20942 L 70.53571 -1.19001" />
    <path d="M 71.53109 -1.21687 L 71.27167 -1.20942" />
    <path d="M 72.10642 -1.23316 L 71.53109 -1.21687 L 74.3443 -0.10526 L 72.48178 -1.24449 L 72.10642 -1.23316 Z" />
    <path d="M 72.83009 -1.25523 L 72.48178 -1.24449" />
    <path d="M 73.07773 -1.26325 L 72.83009 -1.25523" />
    <path d="M 73.50576 -1.27741 L 73.07773 -1.26325" />
    <path d="M 73.64154 -1.28216 L 73.50576 -1.27741" />
    <path d="M 74.13084 -1.29962 L 73.64154 -1.28216" />
    <path d="M 74.17161 -1.30116 L 74.13084 -1.29962" />
    <path d="M 74.42014 -1.31078 L 74.17161 -1.30116" />
    <path d="M 74.71102 -1.32293 L 74.42014 -1.31078" />
    <path d="M 75.40461 -1.35565 L 74.71102 -1.32293 L 77.60805 0.12076 L 76.56202 0.16537 L 74.42262 -1.14988 L 74.13084 -1.29962" />
    <path d="M 75.64077 -1.3675 L 75.40461 -1.35565 L 77.60805 0.12076 L 74.42262 -1.14988 L 74.17161 -1.30116" />
    <path d="M 76.02253 -1.39006 L 75.64077 -1.3675" />
    <path d="M 76.37 -1.41114 L 76.02253 -1.39006" />
    <path d="M 76.54246 -1.42479 L 76.37 -1.41114 L 77.7356 -0.67138 L 79.11152 0.03236 L 78.45944 0.07624 L 77.60805 0.12076" />
    <path d="M 76.88216 -1.4525 L 76.54246 -1.42479" />
    <path d="M 76.9334 -1.45884 L 76.88216 -1.4525 L 77.5293 -1.09957 L 79.55963 -0.0103 L 79.11152 0.03236" />
    <path d="M 77.18391 -1.49109 L 76.9334 -1.45884" />
    <path d="M 77.18652 -1.49193 L 77.18391 -1.49109 L 77.27168 -1.44299 L 79.79889 -0.0512 L 79.55963 -0.0103" />
    <path d="M 77.20638 -1.49878 L 77.18652 -1.49193" />
    <path d="M 77.27273 -1.52423 L 77.20638 -1.49878 L 77.27168 -1.44299 L 77.18652 -1.49193" />
    <path d="M 77.27529 -1.52843 L 77.27273 -1.52423 L 79.79889 -0.0512" />
    <path d="M 77.20206 -1.55612 L 77.27529 -1.52843 L 79.82277 -0.09042 L 79.79889 -0.0512" />
    <path d="M 77.16224 -1.56296 L 77.20206 -1.55612" />
    <path d="M 76.96022 -1.58639 L 77.16224 -1.56296" />
    <path d="M 76.91568 -1.59013 L 76.96022 -1.58639" />
    <path d="M 76.63417 -1.60823 L 76.91568 -1.59013" />
    <path d="M 76.53739 -1.61398 L 76.63417 -1.60823" />
    <path d="M 76.53739 -1.61398 L 54.75228 -2.72424" />
    <path d="M 54.68457 -2.72674 L 54.75228 -2.72424" />
    <path d="M 54.6404 -2.72794 L 54.68457 -2.72674" />
    <path d="M 54.4507 -2.73489 L 54.6404 -2.72794" />
    <path d="M 54.32943 -2.73816 L 54.4507 -2.73489" />
    <path d="M 54.14232 -2.74039 L 54.32943 -2.73816" />
    <path d="M 53.70037 -2.7455 L 54.14232 -2.74039" />
    <path d="M 53.34147 -2.74518 L 53.70037 -2.7455" />
    <path d="M 52.88054 -2.74459 L 53.34147 -2.74518" />
    <path d="M 52.13746 -2.73716 L 52.88054 -2.74459" />
    <path d="M 51.92039 -2.73491 L 52.13746 -2.73716" />
    <path d="M 51.49134 -2.72751 L 51.92039 -2.73491" />
    <path d="M 50.87681 -2.71848 L 51.49134 -2.72751" />
    <path d="M 50.49815 -2.71089 L 50.87681 -2.71848" />
    <path d="M 49.82604 -2.69717 L 50.49815 -2.71089" />
    <path d="M 48.96816 -2.67546 L 49.82604 -2.69717" />
    <path d="M 48.84163 -2.67268 L 48.96816 -2.67546" />
    <path d="M 48.13843 -2.65331 L 48.84163 -2.67268" />
    <path d="M 47.93663 -2.64828 L 48.13843 -2.65331" />
    <path d="M 46.94047 -2.62012 L 47.93663 -2.64828" />
    <path d="M 46.62397 -2.6118 L 46.94047 -2.62012" />
    <path d="M 45.21947 -2.57754 L 46.62397 -2.6118" />
    <path d="M 44.53245 -2.56303 L 45.21947 -2.57754" />
    <path d="M 43.20486 -2.53542 L 44.53245 -2.56303" />
    <path d="M 42.1536 -2.51686 L 43.20486 -2.53542" />
    <path d="M 40.95718 -2.49703 L 42.1536 -2.51686" />
    <path d="M 39.93795 -2.48206 L 40.95718 -2.49703" />
    <path d="M 38.5242 -2.46447 L 39.93795 -2.48206" />
    <path d="M 37.54147 -2.45283 L 38.5242 -2.46447" />
    <path d="M 36.70782 -2.44517 L 37.54147 -2.45283" />
    <path d="M 35.00343 -2.4305 L 36.70782 -2.44517" />
    <path d="M 34.19235 -2.42512 L 35.00343 -2.4305" />
    <path d="M 32.36072 -2.41602 L 34.19235 -2.42512" />
    <path d="M 31.57569 -2.41278 L 32.36072 -2.41602" />
    <path d="M 30.88472 -2.41165 L 31.57569 -2.41278" />
    <path d="M 28.89223 -2.4088 L 30.88472 -2.41165" />
    <path d="M 28.22156 -2.40932 L 28.89223 -2.4088" />
    <path d="M 26.1756 -2.41356 L 28.22156 -2.40932" />
    <path d="M 25.52793 -2.41565 L 26.1756 -2.41356" />
    <path d="M 23.45859 -2.42729 L 25.52793 -2.41565" />
    <path d="M 22.83608 -2.43085 L 23.45859 -2.42729" />
    <path d="M 22.27361 -2.4355 L 22.83608 -2.43085" />
    <path d="M 20.17753 -2.45498 L 22.27361 -2.4355" />
    <path d="M 19.6376 -2.46085 L 20.17753 -2.45498" />
    <path d="M 17.58278 -2.48792 L 19.6376 -2.46085" />
    <path d="M 17.06723 -2.49495 L 17.58278 -2.48792" />
    <path d="M 16.59627 -2.50275 L 17.06723 -2.49495" />
    <path d="M 14.59145 -2.53757 L 16.59627 -2.50275" />
    <path d="M 14.14377 -2.54637 L 14.59145 -2.53757" />
    <path d="M 12.23778 -2.58834 L 14.14377 -2.54637" />
    <path d="M 11.81497 -2.59809 L 12.23778 -2.58834" />
    <path d="M 11.42726 -2.60847 L 11.81497 -2.59809" />
    <path d="M 9.63543 -2.65743 L 11.42726 -2.60847" />
    <path d="M 9.27247 -2.66866 L 9.63543 -2.65743" />
    <path d="M 7.62875 -2.72384 L 9.27247 -2.66866" />
    <path d="M 7.29196 -2.73585 L 7.62875 -2.72384" />
    <path d="M 6.98485 -2.74848 L 7.29196 -2.73585" />
    <path d="M 5.50693 -2.80937 L 6.98485 -2.74848" />
    <path d="M 5.22668 -2.82272 L 5.50693 -2.80937" />
    <path d="M 3.93608 -2.8885 L 5.22668 -2.82272" />
    <path d="M 3.68402 -2.9025 L 3.93608 -2.8885" />
    <path d="M 2.59544 -2.9724 L 3.68402 -2.9025" />
    <path d="M 2.37273 -2.987 L 2.59544 -2.9724" />
    <path d="M 2.17799 -3.00231 L 2.37273 -2.987" />
    <path d="M 1.3058 -3.07534 L 2.17799 -3.00231" />
    <path d="M 1.14209 -3.09119 L 1.3058 -3.07534" />
    <path d="M 0.49312 -3.1666 L 1.14209 -3.09119" />
    <path d="M 0.36155 -3.18294 L 0.49312 -3.1666" />
    <path d="M 0.26039 -3.20016 L 0.36155 -3.18294" />
    <path d="M -0.15717 -3.27657 L 0.26039 -3.20016" />
    <path d="M -0.22332 -3.29424 L -0.15717 -3.27657" />
    <path d="M -0.28456 -3.31267 L -0.22332 -3.29424" />
    <path d="M -0.36287 -3.34473 L -0.28456 -3.31267" />
    <path d="M -0.44959 -3.40962 L -0.36287 -3.34473" />
    <path d="M -0.43259 -3.44179 L -0.44959 -3.40962" />
    <path d="M -0.34261 -3.50667 L -0.43259 -3.44179 L -0.43219 -3.3966" />
    <path d="M -0.23047 -3.53862 L -0.34261 -3.50667 L -0.34389 -3.33696" />
    <path d="M 0.03544 -3.60293 L -0.23047 -3.53862 L -0.22125 -3.29368" />
    <path d="M 0.24154 -3.63431 L 0.03544 -3.60293 L 0.03145 -3.24205" />
    <path d="M 0.68105 -3.69749 L 0.24154 -3.63431 L 0.27302 -3.19801" />
    <path d="M 0.97897 -3.72799 L 0.68105 -3.69749 L 0.67633 -3.14532" />
    <path d="M 1.58825 -3.78948 L 0.97897 -3.72799 L 1.04905 -3.10201" />
    <path d="M 2.36195 -3.84875 L 1.58825 -3.78948 L 1.58813 -3.0517" />
    <path d="M 2.74862 -3.87805 L 2.36195 -3.84875 L 2.24323 -2.99718" />
    <path d="M 3.67999 -3.93458 L 2.74862 -3.87805 L 2.76132 -2.96175" />
    <path d="M 4.15139 -3.96237 L 3.67999 -3.93458 L 3.52249 -2.91287" />
    <path d="M 5.23228 -4.01566 L 4.15139 -3.96237 L 4.1874 -2.87569" />
    <path d="M 5.78351 -4.04166 L 5.23228 -4.01566 L 5.04024 -2.83222" />
    <path d="M 7.0045 -4.09125 L 5.78351 -4.04166 L 5.85481 -2.79504" />
    <path d="M 7.62984 -4.11519 L 7.0045 -4.09125 L 6.78563 -2.75669" />
    <path d="M 8.98023 -4.16064 L 7.62984 -4.11519 L 7.74911 -2.7198" />
    <path d="M 9.67319 -4.18227 L 8.98023 -4.16064 L 8.7449 -2.68637" />
    <path d="M 11.14118 -4.22319 L 9.67319 -4.18227 L 9.85275 -2.6515" />
    <path d="M 11.89458 -4.24229 L 11.14118 -4.22319 L 10.90181 -2.62283" />
    <path d="M 12.92297 -4.26667 L 11.89458 -4.24229 L 12.14552 -2.59047" />
    <path d="M 14.34969 -4.29639 L 12.92297 -4.26667 L 12.86256 -2.57458" />
    <path d="M 14.56083 -4.30068 L 14.34969 -4.29639 L 13.8381 -2.5531" />
    <path d="M 15.26512 -4.31336 L 14.56083 -4.30068 L 14.8009 -2.53393" />
    <path d="M 15.54749 -4.31894 L 15.26512 -4.31336" />
    <path d="M 15.81777 -4.3247 L 15.54749 -4.31894" />
    <path d="M 16.05472 -4.32866 L 15.81777 -4.3247" />
    <path d="M 16.26865 -4.3328 L 16.05472 -4.32866" />
    <path d="M 16.60031 -4.34051 L 16.26865 -4.3328" />
    <path d="M 17.16334 -4.35314 L 16.60031 -4.34051 L 17.01584 -3.88611 L 16.26865 -4.3328" />
    <path d="M 17.23756 -4.35469 L 17.16334 -4.35314 L 17.01584 -3.88611" />
    <path d="M 17.2866 -4.35567 L 17.23756 -4.35469" />
    <path d="M 17.83423 -4.37003 L 17.2866 -4.35567" />
    <path d="M 18.26169 -4.38089 L 17.83423 -4.37003" />
    <path d="M 18.41801 -4.38625 L 18.26169 -4.38089 L 18.69 -4.14148 L 20.11936 -3.36403 L 18.56943 -3.62383 L 18.69 -4.14148" />
    <path d="M 18.71547 -4.39616 L 18.41801 -4.38625 L 18.69 -4.14148" />
    <path d="M 18.95625 -4.40368 L 18.71547 -4.39616 L 18.69 -4.14148" />
    <path d="M 19.09709 -4.40796 L 18.95625 -4.40368 L 20.11936 -3.36403 L 21.19921 -2.91968 L 21.19913 -2.44548" />
    <path d="M 19.41004 -4.42201 L 19.09709 -4.40796" />
    <path d="M 19.71097 -4.43515 L 19.41004 -4.42201" />
    <path d="M 19.78752 -4.44137 L 19.71097 -4.43515 L 20.1727 -4.19259 L 21.66739 -3.42868 L 22.64212 -2.96711 L 22.64211 -2.43246" />
    <path d="M 20.03824 -4.46109 L 19.78752 -4.44137 L 20.1727 -4.19259 L 21.6574 -3.0633 L 21.97465 -2.94131 L 21.97461 -2.43828" />
    <path d="M 20.03907 -4.4617 L 20.03824 -4.46109 L 20.08473 -4.43689 L 21.60274 -3.66851 L 21.66739 -3.42868 L 20.08473 -4.43689 L 20.03907 -4.4617 Z" />
    <path d="M 20.04717 -4.46682 L 20.03907 -4.4617" />
    <path d="M 20.07461 -4.4818 L 20.04717 -4.46682 L 20.08473 -4.43689" />
    <path d="M 20.07856 -4.48372 L 20.07461 -4.4818 L 21.60274 -3.66851 L 22.64212 -2.96711 L 22.89607 -2.98152 L 22.89617 -2.43051" />
    <path d="M 19.86226 -4.50229 L 20.07856 -4.48372 L 21.47583 -3.77919 L 23.04902 -3.00825 L 23.0489 -2.42963" />
    <path d="M 19.86056 -4.50246 L 19.86226 -4.50229" />
    <path d="M 19.85983 -4.50251 L 19.86056 -4.50246" />
    <path d="M 19.85983 -4.50251 L -1.93166 -5.61309" />
    <path d="M -36.81271 -3.24304 L -36.69194 -3.21888 L -35.95764 -3.09086 L -35.94303 -3.08827 L -35.8924 -3.07997 L -35.83813 -3.07169 L -35.78024 -3.06344 L -35.73752 -3.05761 L -34.80586 -2.93526 L -34.76919 -2.9304 L -34.71773 -2.92394 L -34.64746 -2.91557 L -34.55345 -2.9049 L -34.4296 -2.89149 L -33.43355 -2.78725 L -33.3148 -2.77502 L -33.15629 -2.75964 L -32.9491 -2.74059 L -32.68315 -2.71737 L -31.72947 -2.63498 L -31.46262 -2.61302 L -31.11913 -2.5863 L -30.69113 -2.55475 L -29.84071 -2.49266 L -29.40811 -2.46256 L -28.88163 -2.42786 L -28.26464 -2.38917 L -27.57322 -2.34581 L -27.03293 -2.31371 L -26.43929 -2.28 L -25.78632 -2.24441 L -25.18894 -2.21192 L -24.55976 -2.17916 L -23.91185 -2.14683 L -23.25924 -2.11562 L -22.54402 -2.08148 L -21.85708 -2.04993 L -21.19357 -2.02068 L -20.48748 -1.99096 L -19.46938 -1.94816 L -18.73025 -1.91838 L -18.0812 -1.89337 L -16.72498 -1.843 L -16.03617 -1.81762 L -15.44596 -1.7967 L -14.95147 -1.77989 L -13.08668 -1.71863 L -12.55769 -1.70138 L -12.12127 -1.68763 L -11.76634 -1.67684 L -11.48211 -1.66851 L -9.04351 -1.5977 L -8.72854 -1.58875 L -8.475 -1.58173 L -8.27519 -1.57634 L -8.12044 -1.57227 L -8.00342 -1.56929 L -5.05199 -1.49374 L -4.91091 -1.49021 L -4.71012 -1.48528 L -4.50721 -1.48045 L -4.3022 -1.47572 L -4.23793 -1.47429 L -1.05968 -1.40291 L -0.25617 -1.38608 L 3.01517 -1.32209 L 3.8757 -1.30639 L 7.21966 -1.25 L 8.14215 -1.23551 L 11.53653 -1.1869 L 12.52709 -1.17371 L 15.94761 -1.13299 L 17.01394 -1.12123 L 20.43381 -1.08843 L 21.58567 -1.07828 L 24.97487 -1.05335 L 26.22483 -1.04501 L 29.54904 -1.0278 L 30.91357 -1.02154 L 34.13247 -1.01177 L 35.63366 -1.00797 L 38.69805 -1.00514 L 40.36638 -1.00432 L 43.21319 -1.0077 L 45.09232 -1.0106 L 47.6354 -1.01901 L 49.79074 -1.02674 L 51.90216 -1.03824 L 54.43809 -1.05258 L 55.9054 -1.06378 L 59.00296 -1.08783 L 59.4131 -1.09188 L 60.18788 -1.09956 L 60.98993 -1.10785 L 61.77094 -1.11627 L 63.13802 -1.13276 L 63.32234 -1.13527 L 63.4485 -1.13736 L 64.88599 -1.1605 L 64.89412 -1.16065 L 65.55845 -1.17299 L 66.37259 -1.18785 L 67.53688 -1.21237 L 67.76793 -1.21716 L 68.35065 -1.23116 L 68.70331 -1.24051 L 69.0427 -1.24956 L 69.77236 -1.2716 L 70.13147 -1.28324 L 70.58321 -1.29963 L 71.0824 -1.31745 L 71.65403 -1.34224 L 71.8661 -1.35127 L 72.43819 -1.38218 L 72.47535 -1.38414 L 72.63437 -1.39564 L 72.84293 -1.41188 L 72.89962 -1.41638 L 73.09645 -1.44018 L 73.15477 -1.44947 L 73.22268 -1.47033 L 73.22639 -1.47645 L 73.18676 -1.494 L 73.16145 -1.50077 L 73.03316 -1.51597 L 72.97319 -1.52272 L 72.70369 -1.54025 L 72.93888 -1.42112" />
    <path d="M -37.31408 -3.37154 L -36.81271 -3.24304" />
    <path d="M -37.40448 -3.39625 L -37.31408 -3.37154" />
    <path d="M -37.46585 -3.42261 L -37.40448 -3.39625" />
    <path d="M -37.73274 -3.54985 L -37.46585 -3.42261" />
    <path d="M -37.75985 -3.57689 L -37.73274 -3.54985" />
    <path d="M -37.76103 -3.57953 L -37.75985 -3.57689" />
    <path d="M -37.76225 -3.58365 L -37.76103 -3.57953" />
    <path d="M -37.80044 -3.70712 L -37.76225 -3.58365" />
    <path d="M -37.80058 -3.7113 L -37.80044 -3.70712" />
    <path d="M -37.79927 -3.71689 L -37.80058 -3.7113" />
    <path d="M -37.79575 -3.72371 L -37.79927 -3.71689" />
    <path d="M -37.78955 -3.73152 L -37.79575 -3.72371" />
    <path d="M -37.78034 -3.73996 L -37.78955 -3.73152" />
    <path d="M -37.76792 -3.74865 L -37.78034 -3.73996" />
    <path d="M -37.59318 -3.86699 L -37.76792 -3.74865" />
    <path d="M -37.53016 -3.8957 L -37.59318 -3.86699" />
    <path d="M -37.14469 -4.01345 L -37.53016 -3.8957" />
    <path d="M -37.0489 -4.04205 L -37.14469 -4.01345" />
    <path d="M -36.92049 -4.07051 L -37.0489 -4.04205" />
    <path d="M -36.32574 -4.18722 L -36.92049 -4.07051" />
    <path d="M -36.06721 -4.23038 L -36.32574 -4.18722" />
    <path d="M -35.2901 -4.34207 L -36.06721 -4.23038" />
    <path d="M -34.93227 -4.38811 L -35.2901 -4.34207" />
    <path d="M -33.996 -4.49361 L -34.93227 -4.38811" />
    <path d="M -33.52052 -4.54309 L -33.996 -4.49361" />
    <path d="M -32.45672 -4.641 L -33.52052 -4.54309" />
    <path d="M -31.83835 -4.69468 L -32.45672 -4.641" />
    <path d="M -30.69119 -4.78327 L -31.83835 -4.69468" />
    <path d="M -29.89399 -4.84225 L -30.69119 -4.78327" />
    <path d="M -28.7279 -4.91922 L -29.89399 -4.84225" />
    <path d="M -27.69835 -4.98511 L -28.7279 -4.91922" />
    <path d="M -26.61353 -5.04712 L -27.69835 -4.98511" />
    <path d="M -25.26704 -5.12249 L -26.61353 -5.04712" />
    <path d="M -24.43452 -5.16406 L -25.26704 -5.12249" />
    <path d="M -22.62664 -5.25327 L -24.43452 -5.16406" />
    <path d="M -22.38281 -5.26398 L -22.62664 -5.25327" />
    <path d="M -21.92079 -5.28417 L -22.38281 -5.26398" />
    <path d="M -21.21281 -5.31481 L -21.92079 -5.28417" />
    <path d="M -20.88688 -5.32886 L -21.21281 -5.31481 L -20.57161 -5.11438 L -20.73408 -5.33483 L -20.88688 -5.32886 Z" />
    <path d="M -20.47208 -5.34491 L -20.73408 -5.33483" />
    <path d="M -20.01039 -5.36189 L -20.47208 -5.34491 L -20.57161 -5.11438 L -20.88688 -5.32886" />
    <path d="M -19.74448 -5.37151 L -20.01039 -5.36189" />
    <path d="M -19.25239 -5.38801 L -19.74448 -5.37151" />
    <path d="M -18.52452 -5.41201 L -19.25239 -5.38801" />
    <path d="M -18.47832 -5.41341 L -18.52452 -5.41201 L -18.43737 -5.35384 L -18.77197 -4.72528 L -19.25239 -5.38801" />
    <path d="M -18.39831 -5.4158 L -18.47832 -5.41341" />
    <path d="M -17.65385 -5.43702 L -18.39831 -5.4158" />
    <path d="M -17.23427 -5.44879 L -17.65385 -5.43702" />
    <path d="M -16.81567 -5.45946 L -17.23427 -5.44879" />
    <path d="M -16.06097 -5.47839 L -16.81567 -5.45946 L -16.45912 -4.94086 L -17.23427 -5.44879" />
    <path d="M -15.94251 -5.48122 L -16.06097 -5.47839 L -16.45912 -4.94086" />
    <path d="M -15.91356 -5.48189 L -15.94251 -5.48122 L -14.38988 -4.04483 L -16.3645 -3.99455 L -18.17868 -3.93815 L -18.77197 -4.72528 L -19.74448 -5.37151" />
    <path d="M -15.08062 -5.49939 L -15.91356 -5.48189" />
    <path d="M -14.57325 -5.50985 L -15.08062 -5.49939 L -14.37933 -4.49227 L -14.38988 -4.04483 L -16.45912 -4.94086" />
    <path d="M -14.19642 -5.51662 L -14.57325 -5.50985" />
    <path d="M -13.42628 -5.53018 L -14.19642 -5.51662" />
    <path d="M -13.30985 -5.53213 L -13.42628 -5.53018 L -13.88891 -5.06458 L -14.37933 -4.49227 L -15.91356 -5.48189" />
    <path d="M -13.26039 -5.53291 L -13.30985 -5.53213 L -12.25742 -4.08774 L -14.38988 -4.04483" />
    <path d="M -12.3437 -5.5452 L -13.26039 -5.53291" />
    <path d="M -11.96713 -5.54997 L -12.3437 -5.5452 L -11.13388 -4.10569 L -12.25742 -4.08774 L -14.37933 -4.49227" />
    <path d="M -11.26803 -5.55693 L -11.96713 -5.54997" />
    <path d="M -10.75289 -5.56185 L -11.26803 -5.55693 L -10.01854 -4.29582 L -11.13388 -4.10569 L -13.26039 -5.53291" />
    <path d="M -10.30578 -5.56465 L -10.75289 -5.56185" />
    <path d="M -9.6309 -5.5686 L -10.30578 -5.56465" />
    <path d="M -9.38872 -5.56908 L -9.6309 -5.5686" />
    <path d="M -8.61518 -5.57036 L -9.38872 -5.56908" />
    <path d="M -8.52644 -5.57009 L -8.61518 -5.57036" />
    <path d="M -7.84759 -5.56785 L -8.52644 -5.57009" />
    <path d="M -7.73279 -5.5674 L -7.84759 -5.56785 L -8.3218 -5.37653 L -7.56939 -4.13849 L -8.7884 -4.13201 L -9.45804 -4.72062 L -10.01854 -4.29582 L -11.96713 -5.54997" />
    <path d="M -7.70482 -5.56724 L -7.73279 -5.5674 L -6.32744 -4.13786 L -7.56939 -4.13849" />
    <path d="M -6.97377 -5.56014 L -7.70482 -5.56724 L -5.10851 -4.1323 L -6.32744 -4.13786" />
    <path d="M -6.90346 -5.55923 L -6.97377 -5.56014 L -5.10851 -4.1323" />
    <path d="M -6.34449 -5.54964 L -6.90346 -5.55923 L -4.52745 -4.1262 L -5.10851 -4.1323" />
    <path d="M -6.25198 -5.54785 L -6.34449 -5.54964 L -4.52745 -4.1262" />
    <path d="M -5.81445 -5.536 L -6.25198 -5.54785 L -3.98704 -4.11556 L -4.52745 -4.1262" />
    <path d="M -5.72357 -5.53345 L -5.81445 -5.536 L -3.98704 -4.11556" />
    <path d="M -5.43087 -5.52131 L -5.72357 -5.53345 L -3.50754 -4.10134 L -5.43087 -5.52131 Z" />
    <path d="M -5.30019 -5.51592 L -5.43087 -5.52131" />
    <path d="M -5.30019 -5.51592 L 15.81548 -4.43978" />
    <path d="M 15.84036 -4.43777 L 15.81548 -4.43978" />
    <path d="M 15.88682 -4.43372 L 15.84036 -4.43777" />
    <path d="M 15.88606 -4.43172 L 15.88682 -4.43372" />
    <path d="M 15.88238 -4.42613 L 15.88606 -4.43172" />
    <path d="M 15.85483 -4.42343 L 15.88238 -4.42613" />
    <path d="M 15.78974 -4.41729 L 15.85483 -4.42343" />
    <path d="M 15.72029 -4.4136 L 15.78974 -4.41729" />
    <path d="M 15.60734 -4.40774 L 15.72029 -4.4136" />
    <path d="M 15.47645 -4.40286 L 15.60734 -4.40774" />
    <path d="M 15.34654 -4.39812 L 15.47645 -4.40286" />
    <path d="M 15.13899 -4.39217 L 15.34654 -4.39812" />
    <path d="M 15.02901 -4.38909 L 15.13899 -4.39217" />
    <path d="M 14.74335 -4.38253 L 15.02901 -4.38909" />
    <path d="M 14.68099 -4.38113 L 14.74335 -4.38253" />
    <path d="M 14.58394 -4.37956 L 14.68099 -4.38113" />
    <path d="M 14.33428 -4.37416 L 14.58394 -4.37956" />
    <path d="M 13.56142 -4.36025 L 14.33428 -4.37416" />
    <path d="M 13.34467 -4.35577 L 13.56142 -4.36025" />
    <path d="M 11.80173 -4.32359 L 13.34467 -4.35577" />
    <path d="M 10.68904 -4.29722 L 11.80173 -4.32359" />
    <path d="M 9.91445 -4.27743 L 10.68904 -4.29722" />
    <path d="M 8.34695 -4.23374 L 9.91445 -4.27743" />
    <path d="M 7.63265 -4.21143 L 8.34695 -4.23374" />
    <path d="M 6.1907 -4.1629 L 7.63265 -4.21143" />
    <path d="M 5.54362 -4.13829 L 6.1907 -4.1629" />
    <path d="M 4.23981 -4.08534 L 5.54362 -4.13829" />
    <path d="M 3.66619 -4.05867 L 4.23981 -4.08534" />
    <path d="M 2.51191 -4.00177 L 3.66619 -4.05867" />
    <path d="M 2.0173 -3.97329 L 2.51191 -4.00177" />
    <path d="M 1.02264 -3.91293 L 2.0173 -3.97329" />
    <path d="M 0.61183 -3.88292 L 1.02264 -3.91293" />
    <path d="M -0.21453 -3.81963 L 0.61183 -3.88292" />
    <path d="M -0.53757 -3.78838 L -0.21453 -3.81963" />
    <path d="M -1.18839 -3.72272 L -0.53757 -3.78838" />
    <path d="M -1.42054 -3.69052 L -1.18839 -3.72272" />
    <path d="M -1.89015 -3.62307 L -1.42054 -3.69052" />
    <path d="M -2.02917 -3.59024 L -1.89015 -3.62307" />
    <path d="M -2.31346 -3.52157 L -2.02917 -3.59024" />
    <path d="M -2.40995 -3.45229 L -2.31346 -3.52157" />
    <path d="M -2.45448 -3.41915 L -2.40995 -3.45229" />
    <path d="M -2.36233 -3.34986 L -2.45448 -3.41915 L -2.45445 -1.43423" />
    <path d="M -2.31195 -3.31674 L -2.36233 -3.34986 L -2.39483 -1.43289" />
    <path d="M -2.03196 -3.24805 L -2.31195 -3.31674 L -2.30552 -1.43089" />
    <path d="M -1.88715 -3.21525 L -2.03196 -3.24805 L -2.1195 -1.42671" />
    <path d="M -1.8501 -3.20873 L -1.88715 -3.21525 L -1.86847 -1.42107" />
    <path d="M -1.73833 -3.19154 L -1.8501 -3.20873 L -1.8435 -1.42051" />
    <path d="M -1.01483 -3.0965 L -1.15907 -3.11324 L -1.13105 -1.40451" />
    <path d="M -0.21095 -3.02019 L -1.01483 -3.0965 L -1.03147 -1.40232" />
    <path d="M -0.03534 -3.00397 L -0.21095 -3.02019 L -0.15352 -1.38408" />
    <path d="M 0.1679 -2.9885 L -0.03534 -3.00397 L -0.03004 -1.38166" />
    <path d="M 1.19202 -2.91484 L 0.1679 -2.9885 L 0.11351 -1.37885" />
    <path d="M 1.4247 -2.89992 L 1.19202 -2.91484 L 1.22658 -1.35708" />
    <path d="M 2.65614 -2.82997 L 1.4247 -2.89992 L 1.39357 -1.35381" />
    <path d="M 2.91714 -2.81568 L 2.65614 -2.82997 L 2.72615 -1.32774" />
    <path d="M 3.20587 -2.80202 L 2.91714 -2.81568 L 2.916 -1.32403" />
    <path d="M 4.63122 -2.73657 L 3.20587 -2.80202 L 3.12669 -1.32005" />
    <path d="M 4.94719 -2.72358 L 4.63122 -2.73657 L 4.66594 -1.29306" />
    <path d="M 6.55036 -2.66335 L 4.94719 -2.72358 L 4.89921 -1.28913" />
    <path d="M 6.89236 -2.65109 L 6.55036 -2.66335 L 6.62622 -1.26001" />
    <path d="M 7.26517 -2.63943 L 6.89236 -2.65109 L 6.88112 -1.25571" />
    <path d="M 9.02224 -2.58522 L 7.26517 -2.63943 L 7.15957 -1.25101" />
    <path d="M 9.42075 -2.57437 L 9.02224 -2.58522 L 9.053 -1.22246" />
    <path d="M 11.3155 -2.52658 L 9.42075 -2.57437 L 9.35297 -1.21817" />
    <path d="M 11.73835 -2.51659 L 11.3155 -2.52658 L 11.39343 -1.18895" />
    <path d="M 13.74885 -2.47566 L 11.73835 -2.51659 L 11.71359 -1.18454" />
    <path d="M 14.19453 -2.4666 L 13.74885 -2.47566" />
    <path d="M 14.67922 -2.45823 L 14.19453 -2.4666 L 14.21816 -1.15358" />
    <path d="M 16.76405 -2.42481 L 14.67922 -2.45823 L 14.58725 -1.14918" />
    <path d="M 17.27199 -2.41748 L 16.76405 -2.42481 L 16.84176 -1.12313" />
    <path d="M 19.42017 -2.39153 L 17.27199 -2.41748 L 17.22958 -1.11916" />
    <path d="M 19.94962 -2.3853 L 19.42017 -2.39153 L 19.55804 -1.09683" />
    <path d="M 20.52961 -2.37996 L 19.94962 -2.3853 L 19.96292 -1.09295" />
    <path d="M 22.68386 -2.36187 L 20.52961 -2.37996 L 20.40655 -1.0887" />
    <path d="M 23.28678 -2.35782 L 22.68386 -2.36187 L 22.75966 -1.06964" />
    <path d="M 25.4454 -2.34727 L 23.28678 -2.35782 L 23.22089 -1.06625" />
    <path d="M 26.06915 -2.34456 L 25.4454 -2.34727 L 25.59144 -1.04924" />
    <path d="M 26.76184 -2.34319 L 26.06915 -2.34456 L 26.06797 -1.04605" />
    <path d="M 28.84619 -2.34012 L 26.76184 -2.34319 L 26.59678 -1.04308" />
    <path d="M 29.5628 -2.34039 L 28.84619 -2.34012 L 28.91849 -1.03107" />
    <path d="M 31.58664 -2.34425 L 29.5628 -2.34039 L 29.46421 -1.02824" />
    <path d="M 32.3246 -2.34626 L 31.58664 -2.34425 L 31.74264 -1.01902" />
    <path d="M 33.16236 -2.3505 L 32.3246 -2.34626 L 32.30257 -1.01732" />
    <path d="M 35.01471 -2.36038 L 33.16236 -2.3505 L 32.93693 -1.0154" />
    <path d="M 35.88033 -2.36689 L 35.01471 -2.36038 L 35.08128 -1.00936" />
    <path d="M 37.59976 -2.38212 L 35.88033 -2.36689 L 35.73338 -1.00787" />
    <path d="M 38.49006 -2.39103 L 37.59976 -2.38212 L 37.7693 -1.006" />
    <path d="M 40.04538 -2.41058 L 38.49006 -2.39103 L 38.43616 -1.00538" />
    <path d="M 40.95573 -2.422 L 40.04538 -2.41058" />
    <path d="M 42.04394 -2.43868 L 40.95573 -2.422 L 41.01272 -1.00509" />
    <path d="M 43.23906 -2.45848 L 42.04394 -2.43868 L 41.81847 -1.00605" />
    <path d="M 44.36392 -2.479 L 43.23906 -2.45848 L 43.42948 -1.00804" />
    <path d="M 45.29743 -2.49855 L 44.36392 -2.479 L 44.25581 -1.00931" />
    <path d="M 46.45163 -2.52312 L 45.29743 -2.49855 L 45.65036 -1.01244" />
    <path d="M 47.95345 -2.56026 L 46.45163 -2.52312 L 46.49131 -1.01522" />
    <path d="M 48.24839 -2.5679 L 47.95345 -2.56026 L 47.57516 -1.01881" />
    <path d="M 49.22776 -2.59584 L 48.24839 -2.5679 L 48.47835 -1.02203" />
    <path d="M 49.51923 -2.603 L 49.22776 -2.59584" />
    <path d="M 49.55061 -2.60397 L 49.51923 -2.603" />
    <path d="M 49.83665 -2.61072 L 49.55061 -2.60397" />
    <path d="M 49.89368 -2.61211 L 49.83665 -2.61072" />
    <path d="M 50.14755 -2.61684 L 49.89368 -2.61211" />
    <path d="M 50.25436 -2.6189 L 50.14755 -2.61684" />
    <path d="M 50.46183 -2.62163 L 50.25436 -2.6189" />
    <path d="M 50.60985 -2.62366 L 50.46183 -2.62163 L 51.32523 -1.89739 L 50.25436 -2.6189" />
    <path d="M 50.76662 -2.62473 L 50.60985 -2.62366" />
    <path d="M 50.93639 -2.62596 L 50.76662 -2.62473" />
    <path d="M 51.04572 -2.62581 L 50.93639 -2.62596" />
    <path d="M 51.2099 -2.62564 L 51.04572 -2.62581" />
    <path d="M 51.28181 -2.62469 L 51.2099 -2.62564" />
    <path d="M 51.41676 -2.62295 L 51.28181 -2.62469" />
    <path d="M 51.51115 -2.61982 L 51.41676 -2.62295 L 51.9632 -2.26228 L 51.80909 -2.22888 L 51.64388 -2.15518 L 51.47839 -2.04217 L 51.32523 -1.89739 L 51.19368 -1.73144 L 50.14755 -2.61684" />
    <path d="M 51.55406 -2.61839 L 51.51115 -2.61982" />
    <path d="M 51.55406 -2.61839 L 72.68431 -1.5415" />
    <path d="M 72.70369 -1.54025 L 72.68431 -1.5415" />
    <path d="M 15.86425 -4.42435 L 15.84036 -4.43777" />
    <path d="M 52.0717 -2.27763 L 51.9632 -2.26228" />
    <path d="M 51.55406 -2.61839 L 52.0717 -2.27763 L 53.63672 -1.19245 L 53.58202 -1.19481 L 52.0717 -2.27763" />
    <path d="M -19.04693 -4.10389 L -20.57161 -5.11438" />
    <path d="M -19.04693 -4.10389 L -20.01039 -5.36189" />
    <path d="M -3.10924 -4.08446 L -5.30019 -5.51592" />
    <path d="M -3.10924 -4.08446 L -3.50754 -4.10134 L -3.98704 -4.11556" />
    <path d="M -8.3218 -5.37653 L -6.32744 -4.13786" />
    <path d="M -9.45804 -4.72062 L -10.75289 -5.56185" />
    <path d="M -13.88891 -5.06458 L -12.25742 -4.08774" />
    <path d="M -19.83879 -3.87609 L -20.57161 -5.11438" />
    <path d="M -19.83879 -3.87609 L -21.92079 -5.28417" />
    <path d="M -16.85223 -4.32154 L -17.65385 -5.43702" />
    <path d="M -16.85223 -4.32154 L -16.45912 -4.94086" />
    <path d="M -18.43737 -5.35384 L -18.47832 -5.41341" />
    <path d="M -18.43737 -5.35384 L -18.39831 -5.4158" />
    <path d="M -18.43737 -5.35384 L -16.85223 -4.32154 L -16.3645 -3.99455 L -18.77197 -4.72528 L -19.04693 -4.10389" />
    <path d="M -16.3645 -3.99455 L -16.45912 -4.94086" />
    <path d="M 74.41191 -0.8151 L 73.64154 -1.28216" />
    <path d="M 74.41191 -0.8151 L 74.42262 -1.14988 L 74.42014 -1.31078" />
    <path d="M 74.3857 -0.46632 L 73.07773 -1.26325" />
    <path d="M 74.3857 -0.46632 L 74.41191 -0.8151 L 73.50576 -1.27741" />
    <path d="M 74.3443 -0.10526 L 74.3857 -0.46632 L 72.83009 -1.25523" />
    <path d="M 74.3443 -0.10526 L 72.10642 -1.23316" />
    <path d="M 73.92736 0.25192 L 74.3443 -0.10526" />
    <path d="M 73.92736 0.25192 L 71.27167 -1.20942" />
    <path d="M 72.43031 0.29092 L 70.38194 -0.82173 L 69.65686 -1.16988" />
    <path d="M 72.43031 0.29092 L 70.51103 -1.18936" />
    <path d="M 69.22646 0.35813 L 66.72162 -1.11151" />
    <path d="M 69.22646 0.35813 L 70.15263 -0.02301 L 67.8149 -1.13195" />
    <path d="M 69.22646 0.35813 L 65.84661 -0.63168 L 64.85265 -1.08221" />
    <path d="M 65.8068 0.41143 L 62.72483 -1.05447" />
    <path d="M 65.8068 0.41143 L 65.51592 0.16811 L 63.78694 -1.06798" />
    <path d="M 23.03791 -2.99883 L 23.04902 -3.00825" />
    <path d="M 21.47583 -3.77919 L 23.03791 -2.99883 L 23.04097 -2.42968" />
    <path d="M 21.60274 -3.66851 L 23.03791 -2.99883 L 23.03791 -2.4297" />
    <path d="M 21.47583 -3.77919 L 21.60274 -3.66851 L 22.89607 -2.98152 L 22.98465 -2.98959 L 22.99963 -2.42992" />
    <path d="M 22.98465 -2.98959 L 23.03791 -2.99883" />
    <path d="M 21.60274 -3.66851 L 22.98465 -2.98959 L 22.98477 -2.43" />
    <path d="M 21.97465 -2.94131 L 22.64212 -2.96711" />
    <path d="M 21.66739 -3.42868 L 21.97465 -2.94131" />
    <path d="M 21.66739 -3.42868 L 21.6574 -3.0633 L 20.18551 -3.82735 L 20.1727 -4.19259 L 20.08473 -4.43689" />
    <path d="M 21.19921 -2.91968 L 21.97465 -2.94131" />
    <path d="M 21.6574 -3.0633 L 21.19921 -2.91968" />
    <path d="M 20.18551 -3.82735 L 21.19921 -2.91968" />
    <path d="M 20.18551 -3.82735 L 20.11936 -3.36403" />
    <path d="M 20.18551 -3.82735 L 19.09709 -4.40796" />
    <path d="M 20.18551 -3.82735 L 19.41004 -4.42201" />
    <path d="M 18.56943 -3.62383 L 17.83423 -4.37003" />
    <path d="M 18.38962 -3.08788 L 17.23756 -4.35469" />
    <path d="M 18.38962 -3.08788 L 18.56943 -3.62383 L 17.2866 -4.35567" />
    <path d="M 18.38962 -3.08788 L 17.01584 -3.88611" />
    <path d="M 17.68321 -2.8538 L 16.05472 -4.32866" />
    <path d="M 17.68321 -2.8538 L 17.01584 -3.88611" />
    <path d="M 49.78452 -2.23033 L 49.22776 -2.59584" />
    <path d="M 49.78452 -2.23033 L 49.6153 -1.02611" />
    <path d="M 16.06513 -3.81908 L 15.26512 -4.31336" />
    <path d="M 16.06513 -3.81908 L 15.86721 -2.51541" />
    <path d="M 76.56202 0.16537 L 75.326 0.20949 L 74.3857 -0.46632" />
    <path d="M 75.326 0.20949 L 73.92736 0.25192 L 70.53571 -1.19001" />
    <path d="M 73.92736 0.25192 L 72.43031 0.29092 L 70.27291 -0.42404 L 68.75041 -1.15059" />
    <path d="M 72.43031 0.29092 L 70.85717 0.32634 L 70.27291 -0.42404 L 69.05316 -1.15693" />
    <path d="M 70.85717 0.32634 L 69.22646 0.35813 L 67.54031 0.38649 L 65.84661 -0.63168 L 65.21363 -1.08752" />
    <path d="M 67.54031 0.38649 L 65.8068 0.41143 L 64.03662 0.43289 L 62.23462 -1.04852" />
    <path d="M 68.27848 0.38151 L 64.03662 0.43289 L 60.71949 -1.03309" />
    <path d="M 72.42908 0.32197 L 68.27848 0.38151" />
    <path d="M 76.47513 0.25447 L 72.42908 0.32197" />
    <path d="M 80.40369 0.17921 L 76.47513 0.25447" />
    <path d="M 84.20221 0.09644 L 80.40369 0.17921" />
    <path d="M 84.20221 0.09644 L 79.75202 -0.13036" />
    <path d="M 61.01214 4.46162 L 59.89657 -1.0248" />
    <path d="M 61.01214 4.46162 L 64.03662 0.43289" />
    <path d="M 56.77464 4.49779 L 59.6028 -1.0223" />
    <path d="M 61.01214 4.46162 L 56.77464 4.49779 L 52.48579 4.52591 L 48.1585 4.5459 L 43.80581 4.5577 L 43.33445 4.5605 L 43.33445 2.56168 L 43.80581 2.55888 L 43.80581 4.5577 L 45.26457 -0.94258" />
    <path d="M 56.77464 4.49779 L 55.89429 -0.99258" />
    <path d="M 52.48579 4.52591 L 54.63638 -0.98433" />
    <path d="M 52.48579 4.52591 L 51.7479 -0.96693" />
    <path d="M 48.1585 4.5459 L 49.89642 -0.95838" />
    <path d="M 48.1585 4.5459 L 47.51642 -0.94868" />
    <path d="M 43.80581 2.55888 L 43.37564 -0.93842" />
    <path d="M 39.62272 2.56247 L 40.50868 -0.93596" />
    <path d="M 39.62272 2.56247 L 43.80581 2.55888 L 44.93172 -0.94177" />
    <path d="M 35.70303 2.66725 L 35.73096 2.65158 L 35.87596 2.63669 L 36.12815 2.6236 L 36.47033 2.6132 L 36.87919 2.60619 L 37.32687 2.60306 L 37.78286 2.60402 L 38.21608 2.60901 L 38.597 2.61767 L 38.89969 2.62944 L 39.10349 2.64349 L 39.19452 2.65887 L 39.16659 2.67454 L 39.02159 2.68943 L 38.7694 2.70253 L 38.42722 2.71293 L 38.01836 2.71993 L 37.57067 2.72306 L 37.11469 2.7221 L 36.68147 2.71712 L 36.30054 2.70845 L 35.99786 2.69669 L 35.79406 2.68264 L 35.70303 2.66725 Z" />
    <path d="M 32.91014 2.66884 L 33.09413 2.7074 L 33.55109 2.74319 L 34.25235 2.77395 L 35.15397 2.79776 L 36.19944 2.81313 L 37.32322 2.8191 L 38.45486 2.81528 L 39.52344 2.80192 L 40.46198 2.77985 L 41.21165 2.75047 L 41.72545 2.71561 L 41.97118 2.67745 L 41.93345 2.63839 L 41.91487 2.62197 L 42.01033 2.60586 L 42.21437 2.59099 L 42.5153 2.57821 L 42.89592 2.56825 L 43.33445 2.56168" />
    <path d="M 35.43992 2.5585 L 39.62272 2.56247 L 39.18993 -0.93563" />
    <path d="M 31.26899 2.54697 L 35.43992 2.5585 L 35.00437 -0.94041" />
    <path d="M 31.26899 2.54697 L 31.73512 2.55066 L 32.16242 2.55805 L 32.52645 2.56871 L 32.80637 2.58204 L 32.98619 2.59728 L 33.05559 2.61355 L 33.01063 2.62991 L 32.91014 2.66884" />
    <path d="M 35.43992 2.5585 L 36.15139 -0.93852" />
    <path d="M 31.26899 2.54697 L 31.84721 -0.94914" />
    <path d="M 31.26899 2.54697 L 30.83083 -0.95277" />
    <path d="M 31.26899 4.54579 L 30.65723 -0.95348" />
    <path d="M 31.26899 4.54579 L 31.26899 2.54697" />
    <path d="M -19.83949 -1.96372 L -19.83879 -3.87609 L -19.04693 -4.10389" />
    <path d="M -20.84467 -2.00599 L -22.38281 -5.26398" />
    <path d="M 73.22452 -1.47336 L 73.18676 -1.494" />
    <path d="M 73.21874 -1.46912 L 73.16145 -1.50077" />
    <path d="M 73.15688 -1.45012 L 73.03316 -1.51597" />
    <path d="M 73.1169 -1.44344 L 72.97319 -1.52272" />
    <path d="M 72.9088 -1.41749 L 72.68431 -1.5415" />
    <path d="M 53.63672 -1.19245 L 56.12761 -1.06551" />
    <path d="M 16.39588 4.44102 L 16.39588 -1.05573" />
    <path d="M 16.39588 4.44102 L 1.05651 4.79654" />
    <path d="M 80.84004 4.38545 L 80.57789 4.42348 L 80.57789 2.42466 L 80.04912 2.45925 L 79.28687 2.48825 L 78.33893 2.50984 L 77.2647 2.52265 L 76.13153 2.52589 L 75.01046 2.51936 L 73.97173 2.50346 L 73.08047 2.47919 L 72.39254 2.44807 L 71.95106 2.41206 L 71.95106 4.41088 L 71.76783 4.39569 L 71.76783 2.39687 L 71.95106 2.41206" />
    <path d="M 80.57789 4.42348 L 80.04912 4.45807 L 80.04912 2.45925" />
    <path d="M 80.04912 4.45807 L 79.28687 4.48707 L 79.28687 2.48825" />
    <path d="M 79.28687 4.48707 L 78.33893 4.50866 L 78.33893 2.50984" />
    <path d="M 78.33893 4.50866 L 77.2647 4.52147 L 77.2647 2.52265" />
    <path d="M 77.2647 4.52147 L 76.13153 4.52471 L 76.13153 2.52589" />
    <path d="M 76.13153 4.52471 L 75.01046 4.51818 L 75.01046 2.51936" />
    <path d="M 75.01046 4.51818 L 73.97173 4.50228 L 73.97173 2.50346" />
    <path d="M 73.97173 4.50228 L 73.08047 4.47801 L 73.08047 2.47919" />
    <path d="M 73.08047 4.47801 L 72.39254 4.44689 L 72.39254 2.44807" />
    <path d="M 72.39254 4.44689 L 71.95106 4.41088" />
    <path d="M 71.76783 4.39569 L 71.48491 4.38244 L 71.48491 2.38362 L 71.76783 2.39687" />
    <path d="M 71.48491 4.38244 L 71.1185 4.37187 L 71.1185 2.37305 L 71.48491 2.38362" />
    <path d="M 71.1185 4.37187 L 70.68954 4.36459 L 70.68954 2.36577 L 71.1185 2.37305" />
    <path d="M 70.68954 4.36459 L 70.22259 4.36103 L 70.22259 2.36221 L 70.68954 2.36577" />
    <path d="M 70.22259 4.36103 L 69.74435 4.36137 L 69.74435 2.36255 L 70.22259 2.36221" />
    <path d="M 69.74435 4.36137 L 69.28217 4.36561 L 69.28217 2.36679 L 69.74435 2.36255" />
    <path d="M 69.28217 4.36561 L 65.18551 4.41752 L 68.27848 0.38151" />
    <path d="M 65.18551 4.41752 L 61.01214 4.46162" />
    <path d="M 43.33445 4.5605 L 42.89592 4.56707 L 42.89592 2.56825" />
    <path d="M 42.89592 4.56707 L 42.5153 4.57703 L 42.5153 2.57821" />
    <path d="M 42.5153 4.57703 L 42.21437 4.58981 L 42.21437 2.59099" />
    <path d="M 42.21437 4.58981 L 42.01033 4.60468 L 42.01033 2.60586" />
    <path d="M 42.01033 4.60468 L 41.97118 4.61128" />
    <path d="M 41.97118 4.67627 L 41.72545 4.71443 L 41.72545 2.71561" />
    <path d="M 41.72545 4.71443 L 41.21165 4.74929 L 41.21165 2.75047" />
    <path d="M 41.21165 4.74929 L 40.46198 4.77867 L 40.46198 2.77985" />
    <path d="M 40.46198 4.77867 L 39.52344 4.80074 L 39.52344 2.80192" />
    <path d="M 39.52344 4.80074 L 38.45486 4.8141 L 38.45486 2.81528" />
    <path d="M 38.45486 4.8141 L 37.32322 4.81791 L 37.32322 2.8191" />
    <path d="M 37.32322 4.81791 L 36.19944 4.81195 L 36.19944 2.81313" />
    <path d="M 36.19944 4.81195 L 35.15397 4.79658 L 35.15397 2.79776" />
    <path d="M 35.15397 4.79658 L 34.25235 4.77277 L 34.25235 2.77395" />
    <path d="M 34.25235 4.77277 L 33.55109 4.74201 L 33.55109 2.74319" />
    <path d="M 33.55109 4.74201 L 33.09413 4.70622 L 33.09413 2.7074" />
    <path d="M 33.09413 4.70622 L 32.91014 4.66766 L 32.91014 2.66884" />
    <path d="M 32.91014 4.58965 L 32.80637 4.58086 L 32.80637 2.58204" />
    <path d="M 32.80637 4.58086 L 32.52645 4.56753 L 32.52645 2.56871" />
    <path d="M 32.52645 4.56753 L 32.16242 4.55687 L 32.16242 2.55805" />
    <path d="M 32.16242 4.55687 L 31.73512 4.54948 L 31.73512 2.55066" />
    <path d="M 31.73512 4.54948 L 31.26899 4.54579 L 27.5003 4.52879 L 28.04411 -0.96527" />
    <path d="M 27.5003 4.52879 L 23.75954 4.50563 L 24.09183 -0.98887" />
    <path d="M 23.75954 4.50563 L 20.05525 4.47635 L 20.20858 -1.01908" />
    <path d="M 20.05525 4.47635 L 16.39588 4.44102 L 16.39595 -1.05573" />
    <path d="M -33.73655 4.38172 L -30.29765 4.49338" />
    <path d="M -37.02496 4.26482 L -33.73655 4.38172" />
    <path d="M -39.70038 4.16315 L -37.02496 4.26482 L -37.32679 2.2224 L -36.77097 -0.42683 L -36.57176 -1.19695" />
    <path d="M -42.28025 4.05904 L -39.70038 4.16315 L -38.52102 2.90062 L -37.91719 0.30638 L -37.4837 -1.22593" />
    <path d="M -44.74707 3.95098 L -42.28025 4.05904 L -40.87754 3.98109 L -42.41745 2.36204 L -43.5077 2.65736 L -45.14581 2.94147 L -46.73165 3.02038 L -45.4174 1.41629 L -45.14581 2.94147" />
    <path d="M -47.06703 3.83883 L -44.74707 3.95098 L -43.5077 2.65736 L -42.77523 0.85986 L -42.15564 -0.97908 L -42.04625 -1.38097" />
    <path d="M -49.22179 3.72288 L -47.06703 3.83883 L -46.73165 3.02038 L -46.95483 1.49157 L -48.28998 1.39102 L -49.57634 1.13137 L -50.80972 0.71277 L -50.98846 -0.77099 L -52.1349 -1.32689 L -53.02921 -1.89359 L -52.98762 -1.94737" />
    <path d="M -51.21142 3.60376 L -49.22179 3.72288 L -48.10751 2.91646 L -48.28998 1.39102 L -48.53914 -0.11776 L -49.78883 -0.36798 L -50.05011 -1.74826" />
    <path d="M -53.04418 3.48308 L -51.21142 3.60376 L -50.69993 2.21268 L -49.57634 1.13137 L -48.53914 -0.11776 L -48.85423 -1.60583 L -48.87387 -1.68139" />
    <path d="M -54.78364 3.35977 L -53.04418 3.48308 L -52.88568 2.95956 L -52.84958 1.00183 L -53.74844 0.28089 L -54.60415 -0.5497 L -53.78205 -1.14807 L -53.02921 -1.89359" />
    <path d="M 84.20221 4.09408 L 82.98993 4.12163 L 84.20221 0.09644" />
    <path d="M 82.98993 4.12163 L 81.76321 4.14841 L 84.20221 0.09644" />
    <path d="M 81.76321 4.14841 L 80.84004 4.16776" />
    <path d="M 0.70782 -3.88993 L -3.10924 -4.08446 L -3.10924 -1.44894" />
    <path d="M 53.51622 -1.19681 L 53.51622 -1.04737" />
    <path d="M 53.51622 -1.19681 L 53.44207 -1.19828 L 51.9632 -2.26228" />
    <path d="M 53.44207 -1.19828 L 53.44206 -1.04695" />
    <path d="M 52.39421 -1.04102 L 52.39421 -1.19139 L 51.47839 -2.04217 L 50.76662 -2.62473" />
    <path d="M 52.39421 -1.19139 L 51.83481 -1.1786 L 51.19368 -1.73144 L 49.89368 -2.61211" />
    <path d="M 51.83482 -1.03787 L 51.83481 -1.1786 L 51.09014 -1.55716 L 49.83665 -2.61072" />
    <path d="M 51.33475 -1.03515 L 51.33475 -1.16313 L 51.09014 -1.55716 L 49.55061 -2.60397" />
    <path d="M 51.83481 -1.1786 L 51.33475 -1.16313 L 49.78452 -2.23033 L 49.51923 -2.603" />
    <path d="M 76.65842 2.42846 L 76.65842 2.3109 L 76.20243 2.30994 L 75.75475 2.31307 L 75.34589 2.32008 L 75.00371 2.33048 L 74.75152 2.34357 L 74.60651 2.35846 L 74.57859 2.37413 L 74.66962 2.38952 L 74.87342 2.40357 L 75.1761 2.41533 L 75.55703 2.424 L 75.99024 2.42898 L 76.44623 2.42994 L 76.89392 2.42681 L 77.30278 2.41981 L 77.64496 2.4094 L 77.89715 2.39631 L 78.04214 2.38142 L 78.07008 2.36575 L 77.97904 2.35036 L 77.77525 2.33631 L 77.47256 2.32455 L 77.09164 2.31589 L 76.65842 2.3109" />
    <path d="M 76.20243 2.42943 L 76.20243 2.30994" />
    <path d="M 75.75475 2.42627 L 75.75475 2.31307" />
    <path d="M 75.34589 2.41919 L 75.34589 2.32008" />
    <path d="M 75.00371 2.40863 L 75.00371 2.33048" />
    <path d="M 74.75152 2.39516 L 74.75152 2.34357" />
    <path d="M 74.60651 2.37885 L 74.60651 2.35846" />
    <path d="M 80.84004 4.38545 L 80.84004 2.38663 L 80.57789 2.42466" />
    <path d="M -62.13818 -2.86997 L -62.37859 2.59158" />
    <path d="M -61.37535 -2.76142 L -61.26779 2.74964" />
    <path d="M -60.95778 -2.70892 L -61.26779 2.74964" />
    <path d="M -60.23266 -2.62299 L -59.95003 2.9058" />
    <path d="M -59.43614 -2.53694 L -59.95003 2.9058" />
    <path d="M -59.01043 -2.49388 L -58.42788 3.05975" />
    <path d="M -39.52561 -0.49638 L -39.81901 -1.30239" />
    <path d="M -40.62051 0.04009 L -40.22545 -1.31647" />
    <path d="M -40.62051 0.04009 L -41.08419 -1.34649" />
    <path d="M -41.70445 0.49208 L -41.12703 -1.34806" />
    <path d="M -44.21453 -0.35355 L -43.19232 -0.62589" />
    <path d="M -44.21453 -0.35355 L -44.55243 -1.47784" />
    <path d="M -45.75218 -0.09213 L -44.87136 -1.49159" />
    <path d="M -44.21453 -0.35355 L -45.75218 -0.09213 L -47.2432 -0.02048 L -47.59589 -1.5117 L -47.53107 -1.6121" />
    <path d="M -45.75218 -0.09213 L -46.14037 -1.54649" />
    <path d="M -47.2432 -0.02048 L -46.17156 -1.54797" />
    <path d="M -56.20539 -2.22447 L -56.31296 -0.75552 L -57.04988 -1.97035 L -57.02175 -2.30221" />
    <path d="M -55.41579 -1.48988 L -56.31296 -0.75552" />
    <path d="M -55.93471 -2.20055 L -55.41579 -1.48988 L -55.52766 0.3452 L -56.31296 -0.75552" />
    <path d="M -55.41479 -2.151 L -55.41579 -1.48988 L -54.60415 -0.5497" />
    <path d="M -54.6188 -1.94841 L -55.41579 -1.48988" />
    <path d="M -54.74504 -2.0923 L -54.6188 -1.94841 L -54.60415 -0.5497" />
    <path d="M -53.84565 -2.01469 L -53.78205 -1.14807" />
    <path d="M -54.47543 -2.06846 L -54.6188 -1.94841 L -53.78205 -1.14807" />
    <path d="M -53.11056 -1.95708 L -53.02921 -1.89359" />
    <path d="M -53.03708 -1.95107 L -53.02921 -1.89359" />
    <path d="M -55.52766 0.3452 L -54.60415 -0.5497" />
    <path d="M -34.9242 0.59058 L -34.64269 -1.13653" />
    <path d="M -34.9242 0.59058 L -33.72317 -0.36269 L -33.61761 -1.1051" />
    <path d="M -33.32712 1.66323 L -33.72317 -0.36269" />
    <path d="M -34.9242 0.59058 L -33.32712 1.66323 L -33.73655 4.38172" />
    <path d="M -33.32712 1.66323 L -32.09747 0.6129 L -33.73655 4.38172" />
    <path d="M -32.09747 0.6129 L -33.72317 -0.36269" />
    <path d="M -36.12663 1.45233 L -35.63778 -1.16793" />
    <path d="M -58.15651 -1.91959 L -58.19573 -2.41427" />
    <path d="M -58.37326 -2.43224 L -58.15651 -1.91959 L -58.42788 3.05975" />
    <path d="M -58.15651 -1.91959 L -58.01199 -2.3965" />
    <path d="M -58.15651 -1.91959 L -57.5594 -0.68522 L -58.42788 3.05975" />
    <path d="M -57.5594 -0.68522 L -57.67464 -2.3642" />
    <path d="M -57.5594 -0.68522 L -57.04988 -1.97035 L -57.23332 -2.32393" />
    <path d="M -56.92383 0.46067 L -57.04988 -1.97035" />
    <path d="M -57.5594 -0.68522 L -56.92383 0.46067 L -56.70454 3.21117" />
    <path d="M -56.92383 0.46067 L -56.31296 -0.75552" />
    <path d="M -56.2493 1.51719 L -56.31296 -0.75552" />
    <path d="M -56.92383 0.46067 L -56.2493 1.51719 L -56.70454 3.21117" />
    <path d="M -56.2493 1.51719 L -55.53577 2.48362 L -56.70454 3.21117" />
    <path d="M -55.53577 2.48362 L -55.52766 0.3452" />
    <path d="M -54.69392 1.33137 L -55.52766 0.3452" />
    <path d="M -55.53577 2.48362 L -54.69392 1.33137 L -53.74844 0.28089 L -52.90445 -0.45353 L -52.1349 -1.32689 L -51.61813 -1.84856" />
    <path d="M -54.78364 3.35977 L -54.69392 1.33137 L -54.60415 -0.5497" />
    <path d="M -53.81293 2.20289 L -54.69392 1.33137" />
    <path d="M -53.04418 3.48308 L -53.81293 2.20289 L -53.74844 0.28089 L -53.78205 -1.14807" />
    <path d="M -52.88568 2.95956 L -53.81293 2.20289" />
    <path d="M -51.21142 3.60376 L -52.88568 2.95956" />
    <path d="M -51.21142 3.60376 L -51.90886 1.61306 L -51.98711 0.13523 L -52.90445 -0.45353 L -53.78205 -1.14807" />
    <path d="M -51.90886 1.61306 L -52.88568 2.95956" />
    <path d="M -50.69993 2.21268 L -51.90886 1.61306 L -52.84958 1.00183 L -52.90445 -0.45353 L -53.02921 -1.89359" />
    <path d="M -50.69993 2.21268 L -50.80972 0.71277 L -51.98711 0.13523 L -52.1349 -1.32689 L -52.21958 -1.88966" />
    <path d="M -50.80972 0.71277 L -51.90886 1.61306" />
    <path d="M -49.57634 1.13137 L -49.78883 -0.36798 L -50.98846 -0.77099 L -51.16518 -1.81749" />
    <path d="M -49.78883 -0.36798 L -50.80972 0.71277" />
    <path d="M -48.85423 -1.60583 L -49.78883 -0.36798" />
    <path d="M -47.2432 -0.02048 L -48.53914 -0.11776" />
    <path d="M -47.59589 -1.5117 L -47.62565 -1.61656" />
    <path d="M -49.22179 3.72288 L -50.69993 2.21268" />
    <path d="M -49.22179 3.72288 L -49.4317 2.64717 L -48.28998 1.39102" />
    <path d="M -49.4317 2.64717 L -50.69993 2.21268" />
    <path d="M -49.4317 2.64717 L -49.57634 1.13137" />
    <path d="M -46.95483 1.49157 L -47.2432 -0.02048" />
    <path d="M -48.10751 2.91646 L -49.4317 2.64717" />
    <path d="M -47.06703 3.83883 L -48.10751 2.91646" />
    <path d="M -46.73165 3.02038 L -48.10751 2.91646" />
    <path d="M -44.74707 3.95098 L -46.73165 3.02038" />
    <path d="M -44.74707 3.95098 L -45.14581 2.94147" />
    <path d="M -43.5077 2.65736 L -43.83071 1.14361 L -45.4174 1.41629 L -46.95483 1.49157 L -45.75218 -0.09213" />
    <path d="M -43.83071 1.14361 L -45.14581 2.94147" />
    <path d="M -42.77523 0.85986 L -43.83071 1.14361" />
    <path d="M -42.77523 0.85986 L -43.19232 -0.62589" />
    <path d="M -42.28025 4.05904 L -43.5077 2.65736" />
    <path d="M -42.28025 4.05904 L -42.41745 2.36204 L -41.70445 0.49208 L -42.77523 0.85986" />
    <path d="M -42.41745 2.36204 L -42.77523 0.85986" />
    <path d="M -39.70038 4.16315 L -40.87754 3.98109" />
    <path d="M -39.70038 4.16315 L -39.7056 3.48682 L -40.19036 1.50947 L -39.05813 0.95182 L -39.7056 3.48682 L -40.87754 3.98109" />
    <path d="M -38.52102 2.90062 L -39.7056 3.48682" />
    <path d="M -38.52102 2.90062 L -39.05813 0.95182" />
    <path d="M -37.91719 0.30638 L -39.05813 0.95182" />
    <path d="M -37.02496 4.26482 L -38.52102 2.90062" />
    <path d="M -37.32679 2.2224 L -38.52102 2.90062" />
    <path d="M -37.32679 2.2224 L -37.91719 0.30638" />
    <path d="M -35.79466 3.48952 L -37.32679 2.2224" />
    <path d="M -35.79466 3.48952 L -33.73655 4.38172" />
    <path d="M -35.79466 3.48952 L -36.12663 1.45233 L -37.32679 2.2224" />
    <path d="M -35.79466 3.48952 L -34.56082 2.62221 L -33.73655 4.38172" />
    <path d="M -34.56082 2.62221 L -36.12663 1.45233" />
    <path d="M -34.56082 2.62221 L -34.9242 0.59058" />
    <path d="M -34.56082 2.62221 L -33.32712 1.66323" />
    <path d="M -32.09747 0.6129 L -32.44502 -1.06922" />
    <path d="M -32.09747 0.6129 L -30.87548 -0.52841 L -30.29765 4.49338" />
    <path d="M -30.87548 -0.52841 L -31.84017 -1.05057" />
    <path d="M -30.87548 -0.52841 L -30.98359 -1.02408" />
    <path d="M -30.87548 -0.52841 L -30.40542 -1.00686" />
    <path d="M -54.62695 -2.08133 L -54.6188 -1.94841" />
    <path d="M -56.60448 -2.26261 L -57.04988 -1.97035" />
    <path d="M -45.4174 1.41629 L -45.75218 -0.09213" />
    <path d="M -45.4174 1.41629 L -44.21453 -0.35355" />
    <path d="M -40.19036 1.50947 L -40.87754 3.98109" />
    <path d="M -40.19036 1.50947 L -41.31093 1.97946 L -40.62051 0.04009" />
    <path d="M -41.31093 1.97946 L -40.87754 3.98109" />
    <path d="M -41.31093 1.97946 L -42.41745 2.36204" />
    <path d="M -41.31093 1.97946 L -41.70445 0.49208" />
    <path d="M -40.19036 1.50947 L -40.62051 0.04009" />
    <path d="M -40.19036 1.50947 L -39.52561 -0.49638" />
    <path d="M -57.5594 -0.68522 L -56.70454 3.21117" />
    <path d="M -58.67982 -2.46106 L -58.42788 3.05975" />
    <path d="M -59.81095 -2.57596 L -59.95003 2.9058" />
    <path d="M -60.06265 -2.60341 L -59.95003 2.9058" />
    <path d="M -61.14436 -2.73153 L -61.26779 2.74964" />
    <path d="M -61.27872 -2.74855 L -61.26779 2.74964" />
    <path d="M -62.24151 -2.88457 L -62.37859 2.59158" />
    <path d="M -62.31904 -2.896 L -62.37859 2.59158" />
    <path d="M -27.97959 -0.93378 L -26.71521 4.59958" />
    <path d="M -25.95628 -0.87614 L -26.71521 4.59958" />
    <path d="M -23.91027 -0.82083 L -22.99652 4.7001" />
    <path d="M -22.41426 -0.78201 L -22.99652 4.7001" />
    <path d="M -19.65331 -0.7141 L -19.14929 4.79473" />
    <path d="M -19.1556 -0.70217 L -19.14929 4.79473" />
    <path d="M -19.37436 -0.70736 L -19.14929 4.79473" />
    <path d="M -22.65024 -0.78784 L -22.99652 4.7001" />
    <path d="M -22.96108 -0.79574 L -22.99652 4.7001" />
    <path d="M -23.37015 -0.80641 L -22.99652 4.7001" />
    <path d="M -26.42101 -0.88891 L -26.71521 4.59958" />
    <path d="M -27.06727 -0.90722 L -26.71521 4.59958" />
    <path d="M -32.09747 0.6129 L -30.29765 4.49338" />
    <path d="M -62.71177 -2.97897 L -62.70911 2.51878" />
    <path d="M -37.79927 -3.70333 L -37.79927 -3.71689" />
    <path d="M -37.79576 -3.69198 L -37.79575 -3.72371" />
    <path d="M -37.78963 -3.67216 L -37.78955 -3.73152" />
    <path d="M -37.78063 -3.64306 L -37.78034 -3.73996" />
    <path d="M -37.76867 -3.6044 L -37.76792 -3.74865" />
    <path d="M -37.59054 -3.48206 L -37.59318 -3.86699" />
    <path d="M -37.5322 -3.45424 L -37.53016 -3.8957" />
    <path d="M -37.12945 -3.32422 L -37.14469 -4.01345" />
    <path d="M -37.04554 -3.30271 L -37.0489 -4.04205" />
    <path d="M -36.93541 -3.27448 L -36.92049 -4.07051" />
    <path d="M -36.09478 -3.11477 L -36.06721 -4.23038" />
    <path d="M -35.24264 -2.99262 L -35.2901 -4.34207" />
    <path d="M -34.97517 -2.95749 L -34.93227 -4.38811" />
    <path d="M -33.90944 -2.83705 L -33.996 -4.49361" />
    <path d="M -33.58043 -2.80262 L -33.52052 -4.54309" />
    <path d="M -32.3099 -2.68513 L -32.45672 -4.641" />
    <path d="M -31.91563 -2.65106 L -31.83835 -4.69468" />
    <path d="M -30.45322 -2.53738 L -30.69119 -4.78327" />
    <path d="M -29.98709 -2.50335 L -29.89399 -4.84225" />
    <path d="M -28.352 -2.39465 L -28.7279 -4.91922" />
    <path d="M -27.80264 -2.3602 L -27.69835 -4.98511" />
    <path d="M -26.02457 -2.25739 L -26.61353 -5.04712" />
    <path d="M -25.37222 -2.22189 L -25.26704 -5.12249" />
    <path d="M -23.50146 -2.1272 L -24.43452 -5.16406" />
    <path d="M -22.70964 -2.08938 L -22.62664 -5.25327" />
    <path d="M 20.05525 4.47635 L 19.1442 -1.0292" />
    <path d="M 23.75954 4.50563 L 22.93274 -0.99755" />
    <path d="M 27.5003 4.52879 L 26.77211 -0.97227" />
    <path d="M 65.18551 4.41752 L 64.03662 0.43289" />
    <path d="M 69.28217 4.36561 L 68.27848 0.38151" />
    <path d="M 69.28217 2.36679 L 68.27848 0.38151" />
    <path d="M 69.28217 2.36679 L 72.42908 0.32197" />
    <path d="M 73.12481 2.30987 L 72.42908 0.32197" />
    <path d="M 69.28217 2.36679 L 73.12481 2.30987 L 76.87503 2.24608 L 80.52245 2.1756 L 80.52245 2.31063" />
    <path d="M 73.12481 2.30987 L 76.47513 0.25447" />
    <path d="M 76.87503 2.24608 L 76.47513 0.25447" />
    <path d="M 76.87503 2.24608 L 80.40369 0.17921" />
    <path d="M 80.52245 2.1756 L 80.40369 0.17921" />
    <path d="M 80.52245 2.1756 L 80.61459 2.3221" />
    <path d="M 80.84004 2.68056 L 81.76321 4.14841 L 80.40369 0.17921" />
    <path d="M 84.20221 4.09408 L 84.20221 0.09644" />
    <path d="M 16.78521 -2.49962 L 16.06513 -3.81908 L 15.81777 -4.3247" />
    <path d="M 16.06513 -3.81908 L 16.58583 -2.50293" />
    <path d="M 17.68313 -2.4866 L 17.68321 -2.8538 L 19.50041 -2.88362 L 19.50026 -2.46266" />
    <path d="M 17.68321 -2.8538 L 16.06513 -3.81908 L 15.54749 -4.31894" />
    <path d="M 80.81914 2.34756 L 80.84004 2.38663" />
    <path d="M 80.51649 2.30989 L 80.81914 2.34756" />
    <path d="M 79.95108 2.27598 L 80.51649 2.30989" />
    <path d="M 41.97118 4.67627 L 41.97118 2.67745" />
    <path d="M 77.09164 2.42342 L 77.09164 2.31589" />
    <path d="M 77.47256 2.41464 L 77.47256 2.32455" />
    <path d="M 77.77525 2.40264 L 77.77525 2.33631" />
    <path d="M 77.97904 2.3879 L 77.97904 2.35036" />
    <path d="M 35.73096 2.67197 L 35.73096 2.65158" />
    <path d="M 35.87596 2.68829 L 35.87596 2.63669" />
    <path d="M 36.12815 2.70175 L 36.12815 2.6236" />
    <path d="M 36.47033 2.71231 L 36.47033 2.6132" />
    <path d="M 36.87919 2.71939 L 36.87919 2.60619" />
    <path d="M 37.32687 2.72255 L 37.32687 2.60306" />
    <path d="M 37.78286 2.72158 L 37.78286 2.60402" />
    <path d="M 38.21608 2.71655 L 38.21608 2.60901" />
    <path d="M 38.597 2.70777 L 38.597 2.61767" />
    <path d="M 38.89969 2.69576 L 38.89969 2.62944" />
    <path d="M 39.10349 2.68102 L 39.10349 2.64349" />
    <path d="M 79.95108 2.27598 L 79.71089 2.26176 L 79.57579 2.24599 L 79.55352 2.22957 L 79.64536 2.21344 L 79.84603 2.19851 L 80.14409 2.18565 L 80.52245 2.1756" />
    <path d="M 79.64536 2.25411 L 79.64536 2.21344" />
    <path d="M 79.84603 2.26976 L 79.84603 2.19851" />
    <path d="M 80.14409 2.28756 L 80.14409 2.18565" />
    <path d="M 32.98619 2.63938 L 32.98619 2.59728" />
    <path d="M 49.78452 -2.23033 L 50.15231 -1.02871" />
    <path d="M -1.73833 -3.19154 L -1.7679 -1.41881" />
    <path d="M 52.69956 -1.04275 L 52.69957 -1.19614 L 51.64388 -2.15518 L 51.04572 -2.62581" />
    <path d="M 52.69957 -1.19614 L 52.39421 -1.19139 L 51.32523 -1.89739" />
    <path d="M 53.02507 -1.04459 L 53.02507 -1.19935 L 51.80909 -2.22888 L 51.28181 -2.62469" />
    <path d="M 53.02507 -1.19935 L 52.69957 -1.19614 L 51.47839 -2.04217 L 50.60985 -2.62366" />
    <path d="M 53.19498 -1.19957 L 53.02507 -1.19935 L 51.64388 -2.15518 L 50.93639 -2.62596" />
    <path d="M 53.19498 -1.04555 L 53.19498 -1.19957 L 51.80909 -2.22888 L 51.2099 -2.62564" />
    <path d="M 53.36232 -1.19902 L 53.19498 -1.19957" />
    <path d="M 53.36232 -1.0465 L 53.36232 -1.19902 L 51.80909 -2.22888" />
    <path d="M 53.3684 -1.04653 L 53.36232 -1.19902" />
    <path d="M 53.58202 -1.19481 L 53.58202 -1.04774" />
    <path d="M 53.58202 -1.19481 L 53.51622 -1.19681 L 51.9632 -2.26228" />
    <path d="M 53.63672 -1.04805 L 53.63672 -1.19245" />
    <path d="M 53.44207 -1.19828 L 53.36232 -1.19902" />
    <path d="M -18.17979 -1.89717 L -18.17868 -3.93815 L -19.04693 -4.10389" />
    <path d="M -18.17868 -3.93815 L -19.83879 -3.87609" />
    <path d="M -16.36541 -1.82975 L -16.3645 -3.99455 L -18.43737 -5.35384" />
    <path d="M -14.39055 -1.76146 L -14.38988 -4.04483" />
    <path d="M -12.2577 -1.69193 L -12.25742 -4.08774" />
    <path d="M -11.13402 -1.6584 L -11.13388 -4.10569" />
    <path d="M -9.9764 -1.62479 L -9.97631 -4.12045 L -10.01854 -4.29582" />
    <path d="M -9.97631 -4.12045 L -11.13388 -4.10569" />
    <path d="M -8.78843 -1.59045 L -8.7884 -4.13201 L -10.01854 -4.29582" />
    <path d="M -8.7884 -4.13201 L -9.97631 -4.12045" />
    <path d="M -7.5694 -1.55818 L -7.56939 -4.13849" />
    <path d="M -6.32731 -1.52639 L -6.32744 -4.13786" />
    <path d="M -5.1085 -1.49519 L -5.10851 -4.1323" />
    <path d="M -4.72471 -1.48564 L -5.10851 -4.1323" />
    <path d="M -4.52762 -1.48093 L -4.52745 -4.1262" />
    <path d="M -3.98719 -1.46866 L -3.98704 -4.11556" />
    <path d="M -3.50759 -1.45789 L -3.50754 -4.10134" />
    <path d="M 17.68321 -2.8538 L 18.38962 -3.08788" />
    <path d="M 19.50041 -2.88362 L 18.38962 -3.08788" />
    <path d="M 19.50041 -2.88362 L 18.56943 -3.62383" />
    <path d="M 19.50041 -2.88362 L 20.11936 -3.36403" />
    <path d="M 19.50041 -2.88362 L 21.19921 -2.91968" />
    <path d="M 77.27168 -1.44299 L 79.55963 -0.0103" />
    <path d="M 77.27168 -1.44299 L 77.5293 -1.09957 L 76.9334 -1.45884" />
    <path d="M 77.5293 -1.09957 L 79.11152 0.03236" />
    <path d="M 77.5293 -1.09957 L 77.7356 -0.67138 L 76.54246 -1.42479" />
    <path d="M 77.7356 -0.67138 L 78.45944 0.07624" />
    <path d="M 77.88483 -0.16213 L 78.45944 0.07624" />
    <path d="M 77.7356 -0.67138 L 77.88483 -0.16213 L 76.02253 -1.39006" />
    <path d="M 77.88483 -0.16213 L 77.60805 0.12076" />
    <path d="M 77.88483 -0.16213 L 75.64077 -1.3675" />
    <path d="M 67.54031 0.38649 L 65.51592 0.16811" />
    <path d="M 70.15263 -0.02301 L 68.28929 -1.14129" />
    <path d="M 70.85717 0.32634 L 70.15263 -0.02301" />
    <path d="M 70.38194 -0.82173 L 69.79743 -1.17301" />
    <path d="M 75.326 0.20949 L 74.3443 -0.10526" />
    <path d="M 76.56202 0.16537 L 74.3857 -0.46632" />
    <path d="M 76.56202 0.16537 L 74.41191 -0.8151" />
    <path d="M -13.88891 -5.06458 L -14.57325 -5.50985" />
    <path d="M -9.45804 -4.72062 L -10.30578 -5.56465" />
    <path d="M -8.3218 -5.37653 L -8.8891 -5.0824 L -9.38872 -5.56908" />
    <path d="M -8.8891 -5.0824 L -7.56939 -4.13849" />
    <path d="M -8.8891 -5.0824 L -9.45804 -4.72062 L -7.56939 -4.13849" />
    <path d="M -8.8891 -5.0824 L -9.6309 -5.5686" />
    <path d="M -13.88891 -5.06458 L -14.19642 -5.51662" />
    <path d="M -8.3218 -5.37653 L -8.61518 -5.57036" />
    <path d="M -8.3218 -5.37653 L -8.52644 -5.57009" />
    <path d="M 51.09014 -1.55716 L 49.78452 -2.23033" />
    <path d="M 51.19368 -1.73144 L 51.09014 -1.55716" />
    <path d="M 52.39421 -1.19139 L 51.19368 -1.73144" />
    <path d="M 53.58202 -1.19481 L 51.9632 -2.26228" />
    <path d="M 15.84685 -4.42268 L 15.81548 -4.43978" />
</svg>