<svg viewBox="0 0 800 800" xmlns="http://www.w3.org/2000/svg"><path d="M453.52551958322846,630.7891863889555 L447.22875005845947,630.2097639029105 M447.22875005845947,630.2097639029105 L447.24616218056457,624.1199785014944 M453.5443473009043,624.6992733917366 L447.24616218056457,624.1199785014944 M453.5443473009043,624.6992733917366 L453.52551958322846,630.7891863889555 M453.52551958322846,630.7891863889555 L458.6313823060461,629.8412686677236 M458.6313823060461,629.8412686677236 L463.9825060012412,629.6256453030855 M463.9825060012412,629.6256453030855 L469.2740061545184,630.1545742885748 M469.2740061545184,630.1545742885748 L474.2043171392093,631.3979956581934 M474.2043171392093,631.3979956581934 L478.49232893337324,633.2852239284114 M478.49232893337324,633.2852239284114 L481.89325769188207,635.7089053933055 M481.89325769188207,635.7089053933055 L484.21261645572014,638.5310443808544 M484.21261645572014,638.5310443808544 L485.3173401081813,641.5907723570324 M485.3173401081813,641.5907723570324 L485.14350979008344,644.713455045345 M485.14350979008344,644.713455045345 L483.700207593205,647.7206260926137 M483.700207593205,647.7206260926137 L481.06920237886226,650.4402201904866 M481.06920237886226,650.4402201904866 L477.40033282077314,652.7163921895432 M477.40033282077314,652.7163921895432 L472.9032180980657,654.4186021545547 M472.9032180980657,654.4186021545547 L467.8351484870796,655.4491319506458 M467.8351484870796,655.4491319506458 L462.48636308377087,655.7487880478684 M462.48636308377087,655.7487880478684 L457.1633209053932,655.3003479511295 M457.1633209053932,655.3003479511295 L452.17103021305536,654.1295821527182 M452.17103021305536,654.1295821527182 L447.79532593451853,652.303736264446 M414.59232165460986,649.243516561585 L447.79532593451853,652.303736264446 M414.59232165460986,649.243516561585 L447.22875005845947,630.2097639029105 M458.31947034697066,645.3647175460319 L459.56697105135527,645.9317979400067 M459.56697105135527,645.9317979400067 L461.01038722376785,646.3092063339502 M461.01038722376785,646.3092063339502 L462.56578505588635,646.4749705023504 M462.56578505588635,646.4749705023504 L464.14271199877857,646.4194527006093 M464.14271199877857,646.4194527006093 L465.6494082765564,646.1458626976789 M465.6494082765564,646.1458626976789 L466.99830343267735,645.670150432441 M466.99830343267735,645.670150432441 L468.1109218765419,645.0199846677413 M468.1109218765419,645.0199846677413 L468.9226150078477,644.2331868404993 M468.9226150078477,644.2331868404993 L469.38627344894826,643.3555492505566 M469.38627344894826,643.3555492505566 L469.47496911148784,642.4380700384568 M469.47496911148784,642.4380700384568 L469.1836593173435,641.534098415585 M469.1836593173435,641.534098415585 L468.529329179653,640.6961449859962 M468.529329179653,640.6961449859962 L467.55005592165435,639.9728805845753 M467.55005592165435,639.9728805845753 L466.3027572657677,639.4062872757298 M466.3027572657677,639.4062872757298 L464.85991731383245,639.0292618496999 M464.85991731383245,639.0292618496999 L463.3053366374092,638.8636777180075 M463.3053366374092,638.8636777180075 L461.72929583787476,638.9191460767718 M461.72929583787476,638.9191460767718 L460.22329548436056,639.1924359116674 M460.22329548436056,639.1924359116674 L458.8748230905385,639.6677103714019 M458.8748230905385,639.6677103714019 L457.7622011934512,640.3173684222538 M457.7622011934512,640.3173684222538 L456.95007918448647,641.1037049343113 M456.95007918448647,641.1037049343113 L456.48572089586827,641.9810658628337 M456.48572089586827,641.9810658628337 L456.3961382575757,642.8984721233585 M456.3961382575757,642.8984721233585 L456.6866333451076,643.8026237848285 M456.6866333451076,643.8026237848285 L457.3403924318191,644.6409543061332 M457.3403924318191,644.6409543061332 L458.31947034697066,645.3647175460319 M308.6597123902452,701.8497062086508 L308.6942054636514,717.1166637551954 M447.80875383517827,620.7512471085168 L308.6597123902452,701.8497062086508 M447.76491846509197,635.9738238630885 L308.6942054636514,717.1166637551954 M447.80875383517827,620.7512471085168 L447.76491846509197,635.9738238630885 M414.602414830244,643.1495454621739 L447.24616218056457,624.1199785014944 M414.602414830244,643.1495454621739 L414.59232165460986,649.243516561585 M447.81289366967644,646.209093303835 L452.1895851672849,648.0345384800081 M452.1895851672849,648.0345384800081 L457.18300120000873,649.2050473920523 M457.18300120000873,649.2050473920523 L462.5072422688285,649.653389105153 M462.5072422688285,649.653389105153 L467.8572312313825,649.3537987489942 M467.8572312313825,649.3537987489942 L472.9264399232755,648.3234950616511 M472.9264399232755,648.3234950616511 L477.4245638652733,646.6216586551914 M477.4245638652733,646.6216586551914 L481.0942549640735,644.3459863221276 M481.0942549640735,644.3459863221276 L483.7258471155108,641.6269894533307 M483.7258471155108,641.6269894533307 L485.16946832065383,638.620479070259 M485.16946832065383,638.620479070259 L485.3433318126991,635.4984827376901 M485.3433318126991,635.4984827376901 L484.23835398763225,632.4394275903892 M484.23835398763225,632.4394275903892 L481.91846858266894,629.6179094586721 M481.91846858266894,629.6179094586721 L478.51677104767396,627.1947613996495 M478.51677104767396,627.1947613996495 L474.22779234260054,625.3079486057181 M474.22779234260054,625.3079486057181 L469.2963714561054,624.0648010411505 M469.2963714561054,624.0648010411505 L464.00368156108635,623.5359885427644 M464.00368156108635,623.5359885427644 L458.65135590702954,623.7515644191233 M458.65135590702954,623.7515644191233 L453.5443473009043,624.6992733917366 M414.602414830244,643.1495454621739 L447.81289366967644,646.209093303835 M458.3393964409178,639.271598465843 L457.3600972558589,638.5479942628511 M457.3600972558589,638.5479942628511 L456.7061899268992,637.709847974507 M456.7061899268992,637.709847974507 L456.4156282180196,636.805895036815 M456.4156282180196,636.805895036815 L456.50522969653986,635.8886904407196 M456.50522969653986,635.8886904407196 L456.96969115379176,635.0115223996909 M456.96969115379176,635.0115223996909 L457.7819946445112,634.2253587849058 M457.7819946445112,634.2253587849058 L458.8948657666086,633.5758435941905 M458.8948657666086,633.5758435941905 L460.24364064724534,633.1006736563245 M460.24364064724534,633.1006736563245 L461.74997918794776,632.8274439264039 M461.74997918794776,632.8274439264039 L463.3263742425674,632.7719877671642 M463.3263742425674,632.7719877671642 L464.8813046915553,632.9375354811375 M464.8813046915553,632.9375354811375 L466.32446963657867,633.3144779894985 M466.32446963657867,633.3144779894985 L467.57204964159365,633.8809466985535 M467.57204964159365,633.8809466985535 L468.551544258889,634.6040520618803 M468.551544258889,634.6040520618803 L469.2060228962593,635.4418212559517 M469.2060228962593,635.4418212559517 L469.49739967795745,636.3455941541401 M469.49739967795745,636.3455941541401 L469.40868556973015,637.2628716995346 M469.40868556973015,637.2628716995346 L468.94492427979543,638.1403164060177 M468.94492427979543,638.1403164060177 L468.13304985580186,638.9269413356644 M468.13304985580186,638.9269413356644 L467.0201821892576,639.5769642427807 M467.0201821892576,639.5769642427807 L465.67098436138167,640.0525719909945 M465.67098436138167,640.0525719909945 L464.16394957926366,640.3261018878168 M464.16394957926366,640.3261018878168 L462.586667987308,640.3816074929243 M462.586667987308,640.3816074929243 L461.0309200147661,640.215879741338 M461.0309200147661,640.215879741338 L459.5871785883451,639.8385542637982 M459.5871785883451,639.8385542637982 L458.3393964409178,639.271598465843 M447.81289366967644,646.209093303835 L447.79532593451853,652.303736264446 M458.31947034697066,645.3647175460319 L458.3393964409178,639.271598465843 M308.6942054636514,717.1166637551954 L305.4372958711767,715.0234853660465 M305.4372958711767,715.0234853660465 L302.2395371345634,712.9004587784826 M302.2395371345634,712.9004587784826 L299.10175195749986,710.7481931424069 M299.0857992560882,704.6448640231507 L299.10175195749986,710.7481931424069 M299.0857992560882,704.6448640231507 L291.0301887168927,698.7790930133889 M291.0301887168927,698.7790930133889 L283.4198778262525,692.7215176196269 M283.4198778262525,692.7215176196269 L276.26853327421054,686.483757972699 M276.26853327421054,686.483757972699 L276.28961041870053,692.5831319982657 M276.28961041870053,692.5831319982657 L267.06019021758436,683.5528369761446 M267.06019021758436,683.5528369761446 L258.7902958187015,674.2254789300526 M258.7902958187015,674.2254789300526 L251.50834034955926,664.6359023355107 M251.50834034955926,664.6359023355107 L245.23889403441956,654.8197803143962 M245.23889403441956,654.8197803143962 L240.00273692353704,644.8134662510973 M240.00273692353704,644.8134662510973 L235.816702855556,634.6538656217632 M235.78662393008483,628.5671768620364 L235.816702855556,634.6538656217632 M235.78662393008483,628.5671768620364 L233.54361172885456,621.5825462594948 M233.54361172885456,621.5825462594948 L231.79662282645484,614.5560155120594 M231.79662282645484,614.5560155120594 L230.5478503086823,607.499461528156 M230.5478503086823,607.499461528156 L230.57905755425304,613.5815085972955 M230.57905755425304,613.5815085972955 L229.62114044997736,602.2784307965268 M229.62114044997736,602.2784307965268 L229.93729853748505,590.9775160580423 M229.93729853748505,590.9775160580423 L231.52304236474026,579.7268997655435 M231.52304236474026,579.7268997655435 L234.3685034259335,568.574269941525 M234.3685034259335,568.574269941525 L238.45853976402935,557.5666639109663 M238.45853976402935,557.5666639109663 L243.7728313569537,546.7502890278137 M243.7728313569537,546.7502890278137 L250.2860530259452,536.1703254578583 M250.2860530259452,536.1703254578583 L257.96799861054893,525.8707546168164 M257.96799861054893,525.8707546168164 L266.78375792951584,515.894190685606 M266.7264315713353,500.7382815538159 L266.78375792951584,515.894190685606 M308.6597123902452,701.8497062086508 L295.0490358860961,692.6291818015745 M295.0490358860961,692.6291818015745 L282.58532981337527,682.8915488916023 M282.58532981337527,682.8915488916023 L271.3273924047489,672.6857171113801 M271.3273924047489,672.6857171113801 L261.3277588653706,662.0627360916068 M261.3277588653706,662.0627360916068 L252.63234361697778,651.0755371575482 M252.63234361697778,651.0755371575482 L245.2804898464375,639.7785791134083 M245.2804898464375,639.7785791134083 L239.3046387449146,628.2276025712229 M239.3046387449146,628.2276025712229 L234.73035005525293,616.4793062559258 M234.73035005525293,616.4793062559258 L231.57613231761633,604.591103325002 M231.57613231761633,604.591103325002 L229.85355545708535,592.6207514153548 M229.85355545708535,592.6207514153548 L229.56715548039074,580.6261257865219 M229.56715548039074,580.6261257865219 L230.7145319332176,568.6649109644381 M230.7145319332176,568.6649109644381 L233.28643104114758,556.7943269362142 M233.28643104114758,556.7943269362142 L237.26683985208223,545.0708701017969 M237.26683985208223,545.0708701017969 L242.6331592912921,533.5500392038691 M242.6331592912921,533.5500392038691 L249.35635936140676,522.2860958434842 M249.35635936140676,522.2860958434842 L257.4012041319849,511.33181752476077 M257.4012041319849,511.33181752476077 L266.7264315713353,500.7382815538159 M447.80875383517827,620.7512471085168 L436.2431143499142,617.6705574041775 M436.2431143499142,617.6705574041775 L425.3530130041884,613.8533101520861 M425.3530130041884,613.8533101520861 L415.2790877281004,609.3496024821128 M415.2790877281004,609.3496024821128 L406.1510589407235,604.2184692774849 M406.1510589407235,604.2184692774849 L398.0859848784005,598.5270090500206 M398.0859848784005,598.5270090500206 L391.18678864867087,592.3494874724233 M391.18678864867087,592.3494874724233 L385.54094563750726,585.7662886281786 M385.54094563750726,585.7662886281786 L381.21943063680595,578.8628588409794 M381.21943063680595,578.8628588409794 L378.2758403872333,571.7285187727991 M378.2758403872333,571.7285187727991 L376.7458628771088,564.4552962669711 M376.7458628771088,564.4552962669711 L376.64686557341554,557.136735903742 M376.64686557341554,557.136735903742 L377.97783185705333,549.866643720037 M377.97783185705333,549.866643720037 L380.7194519152793,542.7379105449204 M380.7194519152793,542.7379105449204 L384.8345159768646,535.8413410082586 M384.8345159768646,535.8413410082586 L390.26848922642006,529.2645061090808 M390.26848922642006,529.2645061090808 L396.95028791243345,523.0906687385138 M396.95028791243345,523.0906687385138 L404.7932697898107,517.3977681612686 M404.7932697898107,517.3977681612686 L413.69640288308796,512.2574866483153 M413.69640288308796,512.2574866483153 L423.5455755819761,507.73439058623103 M423.5455755819761,507.73439058623103 L434.2150566350203,503.8851706046281 M434.2150566350203,503.8851706046281 L445.56908959787467,500.7579852883246 M445.56908959787467,500.7579852883246 L457.4635735114313,498.3918984469404 M457.4635735114313,498.3918984469404 L469.74783957298115,496.8164255011593 M469.74783957298115,496.8164255011593 L482.266482490168,496.05120360329033 M482.266482490168,496.05120360329033 L494.8612715486841,496.10577185107496 M494.8612715486841,496.10577185107496 L507.37305929873463,496.9794446739659 M507.37305929873463,496.9794446739659 L519.6436633171929,498.6613422575823 M519.6436633171929,498.6613422575823 L531.5178528362724,501.1304888246057 M531.5178528362724,501.1304888246057 L542.8452036165593,504.3560863358225 M542.8452036165593,504.3560863358225 L553.4819013788433,508.2978302005109 M553.4819013788433,508.2978302005109 L563.2925812312483,512.9063964771699 M563.2925812312483,512.9063964771699 L572.1519514502857,518.1240031979122 M572.1519514502857,518.1240031979122 L579.9464257055672,523.8850959040957 M579.9464257055672,523.8850959040957 L586.5755243127714,530.1171039803497 M586.5755243127714,530.1171039803497 L591.9532759592826,536.7413357889611 M727.7932026266576,457.57148580218325 L591.9532759592826,536.7413357889611 M384.686371458479,433.1139171842757 L402.9656421020428,427.8500006473143 M402.9656421020428,427.8500006473143 L421.82594417599125,423.3278702611958 M421.82594417599125,423.3278702611958 L441.17921787484823,419.56776232055955 M441.17921787484823,419.56776232055955 L460.9353746597567,416.5864574983695 M460.9353746597567,416.5864574983695 L481.00265684608235,414.3972487399195 M481.00265684608235,414.3972487399195 L501.2880331854115,413.0098822829976 M501.2880331854115,413.0098822829976 L521.6975653818199,412.43053559569915 M521.6975653818199,412.43053559569915 L542.1368178455564,412.6617815792775 M542.1368178455564,412.6617815792775 L562.5112273356781,413.7025923222513 M562.5112273356781,413.7025923222513 L582.7264844316326,415.5483430407308 M582.7264844316326,415.5483430407308 L602.688961334858,418.19080112113676 M602.688961334858,418.19080112113676 L622.3059928034709,421.618215461278 M622.3059928034709,421.618215461278 L641.486389415634,425.8152807570532 M641.486389415634,425.8152807570532 L660.140733017623,430.7632509836745 M660.140733017623,430.7632509836745 L678.1818015645185,436.43993641967427 M678.1818015645185,436.43993641967427 L695.5248645794509,442.81988828704067 M695.5248645794509,442.81988828704067 L712.0881575725612,449.8743597132953 M712.0881575725612,449.8743597132953 L727.7932026266576,457.57148580218325 M457.4356635029312,474.7668881761293 L384.686371458479,433.1139171842757 M438.90263545600976,485.45738649066345 L457.4356635029312,474.7668881761293 M440.2165766335455,486.2108749709266 L438.90263545600976,485.45738649066345 M359.4796720963655,532.7879398897103 L440.2165766335455,486.2108749709266 M358.1657196520026,532.0292613153392 L359.4796720963655,532.7879398897103 M339.4754868466476,542.81044082891 L358.1657196520026,532.0292613153392 M266.7264315713353,500.7382815538159 L339.4754868466476,542.81044082891 M716.7567407597119,467.27283135283045 L720.4180798070099,469.04939778775474 M720.4180798070099,469.04939778775474 L724.0310156970559,470.8596437488701 M724.0310156970559,470.8596437488701 L727.5945662671622,472.7031263983185 M685.896274240142,454.3446318096966 L687.0071770841755,451.268406511169 M687.0071770841755,451.268406511169 L689.406241328328,448.45501029476225 M689.406241328328,448.45501029476225 L692.9453790444022,446.07702166197157 M692.9453790444022,446.07702166197157 L697.4068123130492,444.28014204555257 M697.4068123130492,444.28014204555257 L702.5165039774954,443.1743790331753 M702.5165039774954,443.1743790331753 L707.9609500334884,442.8273629297073 M707.9609500334884,442.8273629297073 L713.4061979513656,443.260340272977 M713.4061979513656,443.260340272977 L718.5183676540805,444.446806136089 M718.5183676540805,444.446806136089 L722.983705777795,446.31418832634307 M722.983705777795,446.31418832634307 L726.5279423975544,448.74815543283376 M726.5279423975544,448.74815543283376 L728.9329423533861,451.59956001843227 M728.9329423533861,451.59956001843227 L730.0502500636335,454.6934569263245 M730.0502500636335,454.6934569263245 L729.8102801938214,457.8398088840096 M729.8102801938214,457.8398088840096 L728.2269078599543,460.845054655381 M728.2269078599543,460.845054655381 L725.396693322253,463.524092621234 M725.396693322253,463.524092621234 L721.4932910436567,465.7116982069384 M721.4932910436567,465.7116982069384 L716.7567407597119,467.27283135283045 M587.6243231127289,431.2429156359135 L604.8662761672347,433.6599270158256 M604.8662761672347,433.6599270158256 L621.8408694747884,436.66562600021166 M621.8408694747884,436.66562600021166 L638.4888217236469,440.24994230199485 M638.4888217236469,440.24994230199485 L654.7518697628457,444.4008260806601 M654.7518697628457,444.4008260806601 L670.5729272559802,449.1043403851062 M670.5729272559802,449.1043403851062 L685.896274240142,454.3446318096966 M551.826575322583,428.16683621443326 L549.9900719273437,425.28173340683946 M549.9900719273437,425.28173340683946 L549.4150652993153,422.2351326173623 M549.4150652993153,422.2351326173623 L550.1344237808012,419.20564278801703 M550.1344237808012,419.20564278801703 L552.105146191521,416.37065922390883 M552.105146191521,416.37065922390883 L555.2111704660315,413.8959391103776 M555.2111704660315,413.8959391103776 L559.2701850381893,411.9260485643501 M559.2701850381893,411.9260485643501 L564.0444963971418,410.57592623695774 M564.0444963971418,410.57592623695774 L569.2548599953413,409.9242960512783 M569.2548599953413,409.9242960512783 L574.5967494683705,410.00913221094385 M574.5967494683705,410.00913221094385 L579.7579791859475,410.82550413918983 M579.7579791859475,410.82550413918983 L584.4368936882545,412.3258055500068 M584.4368936882545,412.3258055500068 L588.3597172038694,414.42257315815084 M588.3597172038694,414.42257315815084 L591.2966952861327,416.9934046389571 M591.2966952861327,416.9934046389571 L593.0753539256459,419.88811796329077 M593.0753539256459,419.88811796329077 L593.5908130341325,422.93738301619743 M593.5908130341325,422.93738301619743 L592.8120035134018,425.9626232826266 M592.8120035134018,425.9626232826266 L590.7837574825735,428.7864077356736 M590.7837574825735,428.7864077356736 L587.6243231127289,431.2429156359135 M384.6780912576056,448.23173973099216 L401.8747371489596,443.2492450351867 M401.8747371489596,443.2492450351867 L419.59138630498376,438.9245420935849 M419.59138630498376,438.9245420935849 L437.75458599583334,435.2748094321541 M437.75458599583334,435.2748094321541 L456.28924004512584,432.31451840908846 M456.28924004512584,432.31451840908846 L475.11889105995215,430.0553847268098 M475.11889105995215,430.0553847268098 L494.1659962823108,428.5063491210137 M494.1659962823108,428.5063491210137 L513.3522354712877,427.6735289243004 M513.3522354712877,427.6735289243004 L532.5987771484522,427.5602110724148 M532.5987771484522,427.5602110724148 L551.826575322583,428.16683621443326 M457.38694821815824,489.90821442979086 L384.6780912576056,448.23173973099216 M438.8641842535211,500.6047221424624 L457.38694821815824,489.90821442979086 M440.1773928310181,501.3586338234977 L438.8641842535211,500.6047221424624 M359.485392139782,547.9617684766923 L440.1773928310181,501.3586338234977 M358.1721723142553,547.2026666882754 L359.485392139782,547.9617684766923 M339.49237851721057,557.9898558357843 L358.1721723142553,547.2026666882754 M266.78375792951584,515.894190685606 L339.49237851721057,557.9898558357843 M230.57905755425304,613.5815085972955 L225.48223477586632,612.523392270969 M225.48223477586632,612.523392270969 L220.08980875721994,612.2088504236885 M220.08980875721994,612.2088504236885 L214.71687860899632,612.6562211372393 M214.71687860899632,612.6562211372393 L209.67746063773214,613.8394197303685 M209.67746063773214,613.8394197303685 L205.26617299241937,615.6894925854615 M205.26617299241937,615.6894925854615 L201.7412630417526,618.0984969062157 M201.7412630417526,618.0984969062157 L199.30940929619442,620.9257861533204 M199.30940929619442,620.9257861533204 L198.11364296543604,624.0060962940374 M198.11364296543604,624.0060962940374 L198.22482349978952,627.1591508703298 M198.22482349978952,627.1591508703298 L199.6373432187251,630.2001492740799 M199.6373432187251,630.2001492740799 L202.26915598702516,632.9506573210408 M202.26915598702516,632.9506573210408 L205.96656466941374,635.2490305592103 M205.96656466941374,635.2490305592103 L210.51292173265003,636.9601087768227 M210.51292173265003,636.9601087768227 L215.64148888454434,637.983141599377 M215.64148888454434,637.983141599377 L221.05103323486986,638.2578766168357 M221.05103323486986,638.2578766168357 L226.42372763056284,637.7681132468208 M226.42372763056284,637.7681132468208 L231.44388313952095,636.5427175344564 M231.44388313952095,636.5427175344564 L235.816702855556,634.6538656217632 M276.28961041870053,692.5831319982657 L270.82785117977596,693.2862211262685 M270.82785117977596,693.2862211262685 L265.823858509864,694.7520139887966 M265.823858509864,694.7520139887966 L261.58476888866625,696.8908235464505 M261.58476888866625,696.8908235464505 L258.37111118456295,699.571681111927 M258.37111118456295,699.571681111927 L256.38084820259655,702.630258488771 M256.38084820259655,702.630258488771 L255.7370549956056,705.8788559150106 M255.7370549956056,705.8788559150106 L256.48029836734327,709.1177977259771 M256.48029836734327,709.1177977259771 L258.5657561947582,712.1478026583301 M258.5657561947582,712.1478026583301 L261.86590918960223,714.7821177828534 M261.86590918960223,714.7821177828534 L266.1780974333439,716.8582326270122 M266.1780974333439,716.8582326270122 L271.2369750538699,718.2479156756375 M271.2369750538699,718.2479156756375 L276.7308224522601,718.865288264908 M276.7308224522601,718.865288264908 L282.3209466310818,718.6721629997662 M282.3209466310818,718.6721629997662 L287.66260064015773,717.6805061225624 M287.66260064015773,717.6805061225624 L292.42653344174767,715.9515978807402 M292.42653344174767,715.9515978807402 L296.3193577531858,713.5922820163042 M296.3193577531858,713.5922820163042 L299.10175195749986,710.7481931424069 M591.8292762648714,551.9173689358341 L586.454584344157,545.289442483911 M586.454584344157,545.289442483911 L579.8292367366175,539.053955236041 M579.8292367366175,539.053955236041 L572.0391555554388,533.2896434212939 M572.0391555554388,533.2896434212939 L563.1847635647216,528.0691189219655 M563.1847635647216,528.0691189219655 L553.3795832606825,523.4579735935625 M553.3795832606825,523.4579735935625 L542.7488364056248,519.5140224612626 M542.7488364056248,519.5140224612626 L531.4278126999463,516.2866177553142 M531.4278126999463,516.2866177553142 L519.5602468748536,513.8160872304377 M519.5602468748536,513.8160872304377 L507.2964802430251,512.1332466557349 M507.2964802430251,512.1332466557349 L494.7916582105026,511.25908389820995 M494.7916582105026,511.25908389820995 L482.2038763660419,511.204485047789 M482.2038763660419,511.204485047789 L469.6921948810167,511.97013607046733 M469.6921948810167,511.97013607046733 L457.4147577149706,513.54649236611 M457.4147577149706,513.54649236611 L445.52688491293605,515.9139054626885 M445.52688491293605,515.9139054626885 L434.17916252824546,519.0428429449512 M434.17916252824546,519.0428429449512 L423.5156122237384,522.8942185468306 M423.5156122237384,522.8942185468306 L413.671915537584,527.419846054868 M413.671915537584,527.419846054868 L404.7737341036928,532.5630023950176 M404.7737341036928,532.5630023950176 L396.9351160709426,538.2590843327762 M396.9351160709426,538.2590843327762 L390.2570369202038,544.4363688172575 M390.2570369202038,544.4363688172575 L384.82609011427365,551.0168723975645 M384.82609011427365,551.0168723975645 L380.7133190190322,557.9172851539308 M380.7133190190322,557.9172851539308 L377.97322706191846,565.04998682017 M377.97322706191846,565.04998682017 L376.64300211900945,572.3241218898243 M376.64300211900945,572.3241218898243 L376.74194199402916,579.6467477081258 M376.74194199402916,579.6467477081258 L378.27106148191933,586.9240061261567 M378.27106148191933,586.9240061261567 L381.21300160887716,594.0623008201133 M381.21300160887716,594.0623008201133 L385.53209324159235,600.9695532584278 M385.53209324159235,600.9695532584278 L391.1747687000099,607.556393786061 M391.1747687000099,607.556393786061 L398.0700922257083,613.737329398373 M398.0700922257083,613.737329398373 L406.1306369985534,619.4319322628887 M406.1306369985534,619.4319322628887 L415.25353745403515,624.565896430257 M415.25353745403515,624.565896430257 L425.3218011567166,629.072087116343 M425.3218011567166,629.072087116343 L436.205780917626,632.8914376161091 M436.205780917626,632.8914376161091 L447.76491846509197,635.9738238630885 M727.5945662671622,472.7031263983185 L591.8292762648714,551.9173689358341 M215.7690438277809,627.911113122543 L214.80464995387936,627.1896807092852 M214.80464995387936,627.1896807092852 L214.1669794640763,626.3540327448253 M214.1669794640763,626.3540327448253 L213.8930174962279,625.4527850966009 M213.8930174962279,625.4527850966009 L213.9986220472491,624.5383207924699 M213.9986220472491,624.5383207924699 L214.47757497670634,623.6637890943932 M214.47757497670634,623.6637890943932 L215.30200682064967,622.8799702824388 M215.30200682064967,622.8799702824388 L216.42393885995622,622.2324011572064 M216.42393885995622,622.2324011572064 L217.7782014961602,621.7586541522751 M217.7782014961602,621.7586541522751 L219.28608622298785,621.4862417558617 M219.28608622298785,621.4862417558617 L220.86005586737804,621.4309558749917 M220.86005586737804,621.4309558749917 L222.4086950320577,621.5960083789223 M222.4086950320577,621.5960083789223 L223.8420880961575,621.9718188993752 M223.8420880961575,621.9718188993752 L225.07694800688085,622.5365929730225 M225.07694800688085,622.5365929730225 L226.04155525358055,623.2575349631654 M226.04155525358055,623.2575349631654 L226.67980629985135,624.0928048498095 M226.67980629985135,624.0928048498095 L226.9545829879504,624.9938733875526 M226.9545829879504,624.9938733875526 L226.84984068907215,625.9083985763006 M226.84984068907215,625.9083985763006 L226.37160000669047,626.7832172031866 M226.37160000669047,626.7832172031866 L225.54756724850475,627.5674832640362 M225.54756724850475,627.5674832640362 L224.42562969871102,628.2155574875894 M224.42562969871102,628.2155574875894 L223.07095821799516,628.689751741673 M223.07095821799516,628.689751741673 L221.5623549834502,628.9624510622282 M221.5623549834502,628.9624510622282 L219.9875217583956,629.017797825953 M219.9875217583956,629.017797825953 L218.43807178152895,628.8525662120206 M218.43807178152895,628.8525662120206 L217.0041064103645,628.476377623697 M217.0041064103645,628.476377623697 L215.7690438277809,627.911113122543 M566.9871527394087,425.1126348721401 L566.0188096446657,424.4124199303575 M566.0188096446657,424.4124199303575 L565.3694611295191,423.6013471727077 M565.3694611295191,423.6013471727077 L565.0767741150892,422.72660227940554 M565.0767741150892,422.72660227940554 L565.1576969306311,421.8390276447234 M565.1576969306311,421.8390276447234 L565.6074482216461,420.990209760987 M565.6074482216461,420.990209760987 L566.3998559042475,420.2294361711741 M566.3998559042475,420.2294361711741 L567.488803470143,419.60090538859066 M567.488803470143,419.60090538859066 L568.8110362128693,419.1410858488275 M568.8110362128693,419.1410858488275 L570.2897061412589,418.87668176268295 M570.2897061412589,418.87668176268295 L571.8389706340017,418.82302114302996 M571.8389706340017,418.82302114302996 L573.368848105152,418.983221513262 M573.368848105152,418.983221513262 L574.7905113106524,419.34798392423306 M574.7905113106524,419.34798392423306 L576.0213550931621,419.89615416382776 M576.0213550931621,419.89615416382776 L576.9898930755764,420.5959001542537 M576.9898930755764,420.5959001542537 L577.6397956621515,421.4066113871313 M577.6397956621515,421.4066113871313 L577.9332689801358,422.2811850117865 M577.9332689801358,422.2811850117865 L577.8531845778839,423.16881786542876 M577.8531845778839,423.16881786542876 L577.4041317342135,424.01791011562665 M577.4041317342135,424.01791011562665 L576.6121225379836,424.779111372835 M576.6121225379836,424.779111372835 L575.5231821998616,425.40812513946946 M575.5231821998616,425.40812513946946 L574.2005637706857,425.86837234687306 M574.2005637706857,425.86837234687306 L572.7212036065221,426.13305079501487 M572.7212036065221,426.13305079501487 L571.1711024428703,426.18676963194275 M571.1711024428703,426.18676963194275 L569.6404335421369,426.026397993523 M569.6404335421369,426.026397993523 L568.2182054450916,425.66127406729055 M568.2182054450916,425.66127406729055 L566.9871527394087,425.1126348721401 M273.6210790294609,708.4168126436292 L272.6479517239377,707.6868726081029 M272.6479517239377,707.6868726081029 L272.00298175015115,706.8413687274762 M272.00298175015115,706.8413687274762 L271.7235781018979,705.929490540116 M271.7235781018979,705.929490540116 L271.82591426579313,705.0042390418946 M271.82591426579313,705.0042390418946 L272.3039660559493,704.1193932994953 M272.3039660559493,704.1193932994953 L273.1299105791241,703.3263293759243 M273.1299105791241,703.3263293759243 L274.25568545003927,702.6711238255109 M274.25568545003927,702.6711238255109 L275.61589767158824,702.1917918955863 M275.61589767158824,702.1917918955863 L277.1314881667294,701.9161673112668 M277.1314881667294,701.9161673112668 L278.714477735543,701.8602310081593 M278.714477735543,701.8602310081593 L280.27292264558605,702.0272297355884 M280.27292264558605,702.0272297355884 L281.7163383652605,702.407470248856 M281.7163383652605,702.407470248856 L282.96085579820027,702.9789012809363 M282.96085579820027,702.9789012809363 L283.9342069958941,703.7083481180265 M283.9342069958941,703.7083481180265 L284.579762755256,704.553467212635 M284.579762755256,704.553467212635 L284.85998996653296,705.465163110946 M284.85998996653296,705.465163110946 L284.7585264866482,706.3904765740343 M284.7585264866482,706.3904765740343 L284.28119657189086,707.2756143365701 M284.28119657189086,707.2756143365701 L283.4556577569927,708.069133446139 M283.4556577569927,708.069133446139 L282.32987947149826,708.7248530577302 M282.32987947149826,708.7248530577302 L280.969255494647,709.2046401715904 M280.969255494647,709.2046401715904 L279.45293924467165,709.4805567712965 M279.45293924467165,709.4805567712965 L277.86907616861123,709.5365550359253 M277.86907616861123,709.5365550359253 L276.3098101171707,709.3693740203993 M276.3098101171707,709.3693740203993 L274.86581372367857,708.9887487323224 M274.86581372367857,708.9887487323224 L273.6210790294609,708.4168126436292 M703.4714299757504,458.144438308941 L702.4936162140693,457.44079191273244 M702.4936162140693,457.44079191273244 L701.8344513484985,456.62574277589465 M701.8344513484985,456.62574277589465 L701.5321731469273,455.74670807153996 M701.5321731469273,455.74670807153996 L701.6042870833876,454.85477956513023 M701.6042870833876,454.85477956513023 L702.046528315984,454.00179956045645 M702.046528315984,454.00179956045645 L702.8331555066973,453.23729436456705 M702.8331555066973,453.23729436456705 L703.918392595551,452.6056819680729 M703.918392595551,452.6056819680729 L705.2391999853517,452.1436095051324 M705.2391999853517,452.1436095051324 L706.718807498112,451.87790916367527 M706.718807498112,451.87790916367527 L708.2713230540121,451.8239869006181 M708.2713230540121,451.8239869006181 L709.8065715278822,451.9849726556666 M709.8065715278822,451.9849726556666 L711.2354140179289,452.3515219273247 M711.2354140179289,452.3515219273247 L712.4748285967887,452.9023768682363 M712.4748285967887,452.9023768682363 L713.4528435309651,453.60555657277 M713.4528435309651,453.60555657277 L714.1125615070457,454.42024152276036 M714.1125615070457,454.42024152276036 L714.4156281256867,455.2991036967449 M714.4156281256867,455.2991036967449 L714.3443573073819,456.1910908507885 M714.3443573073819,456.1910908507885 L713.902820737806,457.0443472425656 M713.902820737806,457.0443472425656 L713.1165983393632,457.80928325648256 M713.1165983393632,457.80928325648256 L712.0313734262131,458.4413821943542 M712.0313734262131,458.4413821943542 L710.7101828065256,458.90388547336954 M710.7101828065256,458.90388547336954 L709.2298844637564,459.1698621974331 M709.2298844637564,459.1698621974331 L707.6765287248697,459.2238431049572 M707.6765287248697,459.2238431049572 L706.1404831987788,459.06268482044055 M706.1404831987788,459.06268482044055 L704.7110693709815,458.6957713725454 M704.7110693709815,458.6957713725454 L703.4714299757504,458.144438308941 M591.9532759592826,536.7413357889611 L591.8292762648714,551.9173689358341 M299.0857992560882,704.6448640231507 L296.3027732026962,707.4883346309884 M296.3027732026962,707.4883346309884 L292.4090664950067,709.84713781369 M292.4090664950067,709.84713781369 L287.64405499031466,711.5756704778911 M287.64405499031466,711.5756704778911 L282.30119250047085,712.5671119777599 M282.30119250047085,712.5671119777599 L276.70980473022934,712.7601953018983 M276.70980473022934,712.7601953018983 L271.21471677250355,712.1429567916941 M271.21471677250355,712.1429567916941 L266.15469830607015,710.7535755958623 M266.15469830607015,710.7535755958623 L261.841539364739,708.6779118222005 M261.841539364739,708.6779118222005 L258.5406455919842,706.0441692499395 M258.5406455919842,706.0441692499395 L256.454722330129,703.0148231520251 M256.454722330129,703.0148231520251 L255.7113171682509,699.7765859389899 M255.7113171682509,699.7765859389899 L256.35526176982944,696.5286955567319 M256.35526176982944,696.5286955567319 L258.3459795895506,693.4707841830937 M258.3459795895506,693.4707841830937 L261.56036728848073,690.7905106248766 M261.56036728848073,690.7905106248766 L265.8004170209464,688.6521671618995 M265.8004170209464,688.6521671618995 L270.80554094407336,687.1866938152178 M270.80554094407336,687.1866938152178 L276.26853327421054,686.483757972699 M273.59937500880295,702.3139905324826 L274.8443898977218,702.8858022250495 M274.8443898977218,702.8858022250495 L276.2887118032838,703.266344733053 M276.2887118032838,703.266344733053 L277.84832973908107,703.4334893908132 M277.84832973908107,703.4334893908132 L279.43255059357045,703.3775033043299 M279.43255059357045,703.3775033043299 L280.94920968481534,703.1016467107081 M280.94920968481534,703.1016467107081 L282.3101416219334,702.6219639464459 M282.3101416219334,702.6219639464459 L283.43617506331617,701.9663869604768 M283.43617506331617,701.9663869604768 L284.26190140820785,701.1730404681658 M284.26190140820785,701.1730404681658 L284.7393403380377,700.2880952774082 M284.7393403380377,700.2880952774082 L284.84082801523186,699.3629831542471 M284.84082801523186,699.3629831542471 L284.5605388104201,698.4514856602646 M284.5605388104201,698.4514856602646 L283.9148385026832,697.6065505058074 M283.9148385026832,697.6065505058074 L282.94126861728057,696.8772624516372 M282.94126861728057,696.8772624516372 L281.69647108471594,696.3059558184499 M281.69647108471594,696.3059558184499 L280.25273011462656,695.9257980883825 M280.25273011462656,695.9257980883825 L278.69393369078045,695.7588357202008 M278.69393369078045,695.7588357202008 L277.1105867381065,695.8147598446592 M277.1105867381065,695.8147598446592 L275.59465372988484,696.0903244205214 M275.59465372988484,696.0903244205214 L274.2341337347006,696.5695519971487 M274.2341337347006,696.5695519971487 L273.10810371021034,697.2246149177623 M273.10810371021034,697.2246149177623 L272.2819714745072,698.0175062203765 M272.2819714745072,698.0175062203765 L271.8038103437178,698.9021593886243 M271.8038103437178,698.9021593886243 L271.70144958850227,699.8272095464149 M271.70144958850227,699.8272095464149 L271.98091485809596,700.7388893309279 M271.98091485809596,700.7388893309279 L272.62602911513954,701.5842092745305 M272.62602911513954,701.5842092745305 L273.59937500880295,702.3139905324826 M235.78662393008483,628.5671768620364 L231.41281775449244,630.455613421061 M231.41281775449244,630.455613421061 L226.39153163714036,631.6807397346395 M226.39153163714036,631.6807397346395 L221.01762901694238,632.1703954457342 M221.01762901694238,632.1703954457342 L215.60687000893873,631.8957208190739 M215.60687000893873,631.8957208190739 L210.47715332667727,630.8729128959524 M210.47715332667727,630.8729128959524 L205.92977953549558,629.1622109116224 M205.92977953549558,629.1622109116224 L202.23154665965254,626.8643431927469 M202.23154665965254,626.8643431927469 L199.59915051076914,624.1144403382807 M199.59915051076914,624.1144403382807 L198.1863221861176,621.0741113322104 M198.1863221861176,621.0741113322104 L198.0751255700216,617.92175114012 M198.0751255700216,617.92175114012 L199.2711688833104,614.8421196782291 M199.2711688833104,614.8421196782291 L201.7035760888153,612.0154536362111 M201.7035760888153,612.0154536362111 L205.22928330805345,609.6069805269443 M205.22928330805345,609.6069805269443 L209.64156525345055,607.7573157621109 M209.64156525345055,607.7573157621109 L214.6821164114242,606.5743782185357 M214.6821164114242,606.5743782185357 L220.05625252745074,606.127106220516 M220.05625252745074,606.127106220516 L225.44988700373528,606.4415786612149 M225.44988700373528,606.4415786612149 L230.5478503086823,607.499461528156 M215.7344790476494,621.8259080310272 L216.9698174835765,622.3910480947147 M216.9698174835765,622.3910480947147 L218.40410385729612,622.7671538745972 M218.40410385729612,622.7671538745972 L219.95390130122698,622.932349118419 M219.95390130122698,622.932349118419 L221.52908823691664,622.8770145372989 M221.52908823691664,622.8770145372989 L223.0380308325526,622.6043752431842 M223.0380308325526,622.6043752431842 L224.39300758244892,622.1302853743141 M224.39300758244892,622.1302853743141 L225.51519854387362,621.4823538244032 M225.51519854387362,621.4823538244032 L226.33941813582356,620.6982604382695 M226.33941813582356,620.6982604382695 L226.8177682240954,619.8236344471859 M226.8177682240954,619.8236344471859 L226.9225361759831,618.9093106644909 M226.9225361759831,618.9093106644909 L226.64769992862756,618.0084405960649 M226.64769992862756,618.0084405960649 L226.00930760485846,617.1733547097103 M226.00930760485846,617.1733547097103 L225.0444855897989,616.452571553141 M225.0444855897989,616.452571553141 L223.80934991552192,615.8879219190037 M223.80934991552192,615.8879219190037 L222.37563610488317,615.5121942085676 M222.37563610488317,615.5121942085676 L220.8266498367219,615.3471780754942 M220.8266498367219,615.3471780754942 L219.25232686955812,615.4024517735056 M219.25232686955812,615.4024517735056 L217.7441031049229,615.6748041422827 M217.7441031049229,615.6748041422827 L216.38953538418863,616.1484467601367 M216.38953538418863,616.1484467601367 L215.2673499369624,616.795873209622 M215.2673499369624,616.795873209622 L214.44273108117736,617.5795193449969 M214.44273108117736,617.5795193449969 L213.9636684267632,618.4538584060753 M213.9636684267632,618.4538584060753 L213.85803783576594,619.3681213038996 M213.85803783576594,619.3681213038996 L214.132058996656,620.2691704835534 M214.132058996656,620.2691704835534 L214.76987050238506,621.104634449299 M214.76987050238506,621.104634449299 L215.7344790476494,621.8259080310272 M339.49237851721057,557.9898558357843 L339.4754868466476,542.81044082891 M727.7932026266576,457.57148580218325 L727.5945662671622,472.7031263983185 M623.8932529222459,527.1780102603954 L623.9499293038596,521.1110888482654 M592.1944835726383,539.622823252513 L623.9499293038596,521.1110888482654 M592.1944835726383,539.622823252513 L592.1448193377487,545.6938792357028 M592.1448193377487,545.6938792357028 L623.8932529222459,527.1780102603954 M551.8668582648183,422.1262589253363 L551.826575322583,428.16683621443326 M551.8668582648183,422.1262589253363 L563.8661946816976,422.8716600388557 M563.8661946816976,422.8716600388557 L575.807837898361,423.8973206143881 M575.807837898361,423.8973206143881 L587.6725362904813,425.2016411552315 M587.6725362904813,425.2016411552315 L587.6243231127289,431.2429156359135 M685.9663520842396,448.29813125463335 L685.896274240142,454.3446318096966 M685.9663520842396,448.29813125463335 L696.5614953700674,452.3520918824502 M696.5614953700674,452.3520918824502 L706.8568307910753,456.6629921660545 M706.8568307910753,456.6629921660545 L716.8337324576657,461.22341381577564 M716.8337324576657,461.22341381577564 L716.7567407597119,467.27283135283045 M384.686371458479,433.1139171842757 L384.6780912576056,448.23173973099216 M457.38694821815824,489.90821442979086 L457.4356635029312,474.7668881761293 M438.8641842535211,500.6047221424624 L438.90263545600976,485.45738649066345 M440.1773928310181,501.3586338234977 L440.2165766335455,486.2108749709266 M359.485392139782,547.9617684766923 L359.4796720963655,532.7879398897103 M358.1657196520026,532.0292613153392 L358.1721723142553,547.2026666882754 M685.9663520842396,448.29813125463335 L687.0774851507372,445.22260085025863 M687.0774851507372,445.22260085025863 L689.4770662759822,442.40984042875453 M689.4770662759822,442.40984042875453 L693.0169754961069,440.03238939622304 M693.0169754961069,440.03238939622304 L697.4793873830902,438.23591612970654 M697.4793873830902,438.23591612970654 L702.5902047367679,437.13040322938673 M702.5902047367679,437.13040322938673 L708.0358546376772,436.78346562560716 M708.0358546376772,436.78346562560716 L713.4823109133786,437.21634502421523 M713.4823109133786,437.21634502421523 L718.5956195933641,438.4025425260418 M718.5956195933641,438.4025425260418 L723.0619575605278,440.2695024351668 M723.0619575605278,440.2695024351668 L726.6069935433493,442.7029193073123 M726.6069935433493,442.7029193073123 L729.0125431508966,445.55367953774584 M729.0125431508966,445.55367953774584 L730.1301167503848,448.6468775941082 M730.1301167503848,448.6468775941082 L729.8901122742361,451.792519173615 M729.8901122742361,451.792519173615 L728.3064065663486,454.79708672865877 M728.3064065663486,454.79708672865877 L725.4755800368421,457.4755203456399 M725.4755800368421,457.4755203456399 L721.571324599877,459.6626326164604 M721.571324599877,459.6626326164604 L716.8337324576657,461.22341381577564 M551.8668582648183,422.1262589253363 L550.0299400639951,419.2418103065914 M550.0299400639951,419.2418103065914 L549.4547972793273,416.19590062148484 M549.4547972793273,416.19590062148484 L550.1743058633754,413.167098316806 M550.1743058633754,413.167098316806 L552.1454554698419,410.332758407933 M552.1454554698419,410.332758407933 L555.2521587339243,407.85860037080414 M555.2521587339243,407.85860037080414 L559.3120641734808,405.88915738418154 M559.3120641734808,405.88915738418154 L564.0874261385411,404.53934187826604 M564.0874261385411,404.53934187826604 L569.2989387462637,403.8878597999159 M569.2989387462637,403.8878597999159 L574.6420086480039,403.972676676603 M574.6420086480039,403.972676676603 L579.8043814171765,404.7888630582741 M579.8043814171765,404.7888630582741 L584.484334950243,406.288823534704 M584.484334950243,406.288823534704 L588.4080327801537,408.3851147888065 M588.4080327801537,408.3851147888065 L591.3456692674711,410.9553624121486 M591.3456692674711,410.9553624121486 L593.1247316643617,413.8494185821411 M593.1247316643617,413.8494185821411 L593.6403159310296,416.8979916917456 M593.6403159310296,416.8979916917456 L592.8613452580391,419.9225457679289 M592.8613452580391,419.9225457679289 L590.8326608477807,422.7456899961015 M590.8326608477807,422.7456899961015 L587.6725362904813,425.2016411552315 M215.7690438277809,627.911113122543 L215.7344790476494,621.8259080310272 M566.9871527394087,425.1126348721401 L567.0307796485708,419.0727501229718 M567.0307796485708,419.0727501229718 L568.2621064145646,419.62126489168554 M568.2621064145646,419.62126489168554 L569.6846502783001,419.9863060165648 M569.6846502783001,419.9863060165648 L571.2156582724851,420.14664128792356 M571.2156582724851,420.14664128792356 L572.7661021230185,420.09293463258325 M572.7661021230185,420.09293463258325 L574.2457886167283,419.82831620580646 M574.2457886167283,419.82831620580646 L575.5686980343144,419.36817337453857 M575.5686980343144,419.36817337453857 L576.6578770858018,418.739302268622 M576.6578770858018,418.739302268622 L577.4500588545452,417.97827366968875 M577.4500588545452,417.97827366968875 L577.899208109106,417.12937403592105 M577.899208109106,417.12937403592105 L577.9793071896534,416.24194256691493 M577.9793071896534,416.24194256691493 L577.6857659945811,415.36756738931047 M577.6857659945811,415.36756738931047 L577.0357169511915,414.55704013504953 M577.0357169511915,414.55704013504953 L576.066962459478,413.8574529586921 M576.066962459478,413.8574529586921 L574.835844710618,413.3094071428109 M574.835844710618,413.3094071428109 L573.4138659894795,412.9447275310938 M573.4138659894795,412.9447275310938 L571.8836497754992,412.78456352692837 M571.8836497754992,412.78456352692837 L570.3340429657471,412.8382119653318 M570.3340429657471,412.8382119653318 L568.8550470121988,413.1025560317044 M568.8550470121988,413.1025560317044 L567.5325234502382,413.56227119781516 M567.5325234502382,413.56227119781516 L566.4433371661817,414.19065932248543 M566.4433371661817,414.19065932248543 L565.6507567333974,414.9512602565066 M565.6507567333974,414.9512602565066 L565.2009087216561,415.7998855254061 M565.2009087216561,415.7998855254061 L565.1199708567899,416.6872587757902 M565.1199708567899,416.6872587757902 L565.4127254010878,417.56180522104705 M565.4127254010878,417.56180522104705 L566.0622201291762,418.3726939979808 M566.0622201291762,418.3726939979808 L567.0307796485708,419.0727501229718 M273.6210790294609,708.4168126436292 L273.59937500880295,702.3139905324826 M703.4714299757504,458.144438308941 L703.5454241765215,452.09707983705255 M703.5454241765215,452.09707983705255 L704.7853414461315,452.64828846051824 M704.7853414461315,452.64828846051824 L706.2150742320098,453.0151190987334 M706.2150742320098,453.0151190987334 L707.7514612366915,453.1762410124 M707.7514612366915,453.1762410124 L709.3051611024143,453.1222722874093 M709.3051611024143,453.1222722874093 L710.7857861845132,452.856355590971 M710.7857861845132,452.856355590971 L712.1072671494803,452.39395669869447 M712.1072671494803,452.39395669869447 L713.1927291164054,451.7620004365545 M713.1927291164054,451.7620004365545 L713.9791215079949,450.99723709953156 M713.9791215079949,450.99723709953156 L714.4207511407492,450.14417334475763 M714.4207511407492,450.14417334475763 L714.4920327150076,449.2523875973646 M714.4920327150076,449.2523875973646 L714.1888939516618,448.37372389198833 M714.1888939516618,448.37372389198833 L713.529025153977,447.5592229404397 M713.529025153977,447.5592229404397 L712.550789499968,446.8562020681361 M712.550789499968,446.8562020681361 L711.311097146825,446.30547156409733 M711.311097146825,446.30547156409733 L709.8819359540441,445.9390051005962 M709.8819359540441,445.9390051005962 L708.3463463559456,445.7780557156762 M708.3463463559456,445.7780557156762 L706.7934870454128,445.8319657964451 M706.7934870454128,445.8319657964451 L705.3135530980965,446.0976061114331 M705.3135530980965,446.0976061114331 L703.9924555305456,446.5595741894365 M703.9924555305456,446.5595741894365 L702.9069813798183,447.1910439122338 M702.9069813798183,447.1910439122338 L702.1201840140859,447.955376433031 M702.1201840140859,447.955376433031 L701.6778494043367,448.8081638018576 M701.6778494043367,448.8081638018576 L701.6057243377672,449.6998909018621 M701.6057243377672,449.6998909018621 L701.9080743354243,450.5787271368868 M701.9080743354243,450.5787271368868 L702.5673897793765,451.39359227375974 M702.5673897793765,451.39359227375974 L703.5454241765215,452.09707983705255 M629.87441133632,545.61876361343 L623.8932529222459,527.1780102603954 M629.9325002336318,539.5477243807397 L623.9499293038596,521.1110888482654 M629.9325002336318,539.5477243807397 L629.87441133632,545.61876361343 M593.3703094315752,543.2776765320602 L591.8860378425791,546.2299841687502 M591.8860378425791,546.2299841687502 L591.6602780596907,549.3094218015062 M591.6602780596907,549.3094218015062 L592.7067837402292,552.3400954817312 M592.7067837402292,552.3400954817312 L594.9665387401283,555.1486514009658 M594.9665387401283,555.1486514009658 L598.3109503832475,557.5742358683863 M598.3109503832475,557.5742358683863 L602.5491608497687,559.4778022402961 M602.5491608497687,559.4778022402961 L607.4387548141312,560.7500929150884 M607.4387548141312,560.7500929150884 L612.6998127133777,561.3180555529306 M612.6998127133777,561.3180555529306 L618.0308938612932,561.1490372079984 M618.0308938612932,561.1490372079984 L623.1265908351645,560.2527780889793 M623.1265908351645,560.2527780889793 L627.6950366470521,558.6807456007793 M627.6950366470521,558.6807456007793 L631.4747774866285,556.5231928882382 M631.4747774866285,556.5231928882382 L634.2498678969698,553.9038962556299 M634.2498678969698,553.9038962556299 L635.8620778100133,550.9729286236545 M635.8620778100133,550.9729286236545 L636.2200162381657,547.898085396071 M636.2200162381657,547.898085396071 L635.3040599510102,544.8551170028738 M635.3040599510102,544.8551170028738 L633.1673328716345,542.0177507613939 M633.1673328716345,542.0177507613939 L629.9325002336318,539.5477243807397 M592.1944835726383,539.622823252513 L593.3703094315752,543.2776765320602 M609.3639383317714,551.0931847474087 L608.3830164954616,550.3788651903458 M608.3830164954616,550.3788651903458 L607.7241420230919,549.5514697426042 M607.7241420230919,549.5514697426042 L607.4255486088907,548.6591141407564 M607.4255486088907,548.6591141407564 L607.5045266748682,547.753676119004 M607.5045266748682,547.753676119004 L607.9563913183404,546.8877603039871 M607.9563913183404,546.8877603039871 L608.7548571230705,546.1116809128397 M608.7548571230705,546.1116809128397 L609.8534540425626,545.4704967060482 M609.8534540425626,545.4704967060482 L611.1883471406643,545.0014212709472 M611.1883471406643,545.0014212709472 L612.6820023444366,544.7316958752599 M612.6820023444366,544.7316958752599 L614.2476484962417,544.6769509658814 M614.2476484962417,544.6769509658814 L615.7943881721246,544.8403754484781 M615.7943881721246,544.8403754484781 L617.232390785372,545.2124862863589 M617.232390785372,545.2124862863589 L618.4781463177342,545.7716893636789 M618.4781463177342,545.7716893636789 L619.4592555863326,546.4855196122805 M619.4592555863326,546.4855196122805 L620.1186998366895,547.3125394177014 M620.1186998366895,547.3125394177014 L620.4180959083112,548.2047184334857 M620.4180959083112,548.2047184334857 L620.3399947528353,549.1102280799031 M620.3399947528353,549.1102280799031 L619.8888241739271,549.976415178849 M619.8888241739271,549.976415178849 L619.090787081192,550.7529471107625 M619.090787081192,550.7529471107625 L617.9921990969954,551.3946292951575 M617.9921990969954,551.3946292951575 L616.6568931105726,551.8641340680686 M616.6568931105726,551.8641340680686 L615.1625539938448,552.1341539476325 M615.1625539938448,552.1341539476325 L613.596033085498,552.188947279782 M613.596033085498,552.188947279782 L612.0484844151761,552.0253462129763 M612.0484844151761,552.0253462129763 L610.6098986476491,551.6528655331756 M610.6098986476491,551.6528655331756 L609.3639383317714,551.0931847474087 M592.1448193377487,545.6938792357028 L593.3203692804211,549.3495474916526 M593.3703094315752,543.2776765320602 L593.3203692804211,549.3495474916526 M629.87441133632,545.61876361343 L633.1085111256834,548.0893408263448 M633.1085111256834,548.0893408263448 L635.2447487320428,550.9273395720594 M635.2447487320428,550.9273395720594 L636.160487145813,553.9709860084263 M636.160487145813,553.9709860084263 L635.8026152462137,557.0465140727651 M635.8026152462137,557.0465140727651 L634.1907528344968,559.9781342081477 M634.1907528344968,559.9781342081477 L631.4162713600388,562.5980137200614 M631.4162713600388,562.5980137200614 L627.6373662589986,564.7560463895429 M627.6373662589986,564.7560463895429 L623.0699352406141,566.3284284869112 M623.0699352406141,566.3284284869112 L617.9753739502182,567.2248868914464 M617.9753739502182,567.2248868914464 L612.6454841714528,567.3939428150853 M612.6454841714528,567.3939428150853 L607.3856048881928,566.825853895506 M607.3856048881928,566.825853895506 L602.4971090784904,565.5532802990933 M602.4971090784904,565.5532802990933 L598.2598533110179,563.6492905283651 M598.2598533110179,563.6492905283651 L594.9161982564317,561.2231663803718 M594.9161982564317,561.2231663803718 L592.6569585982602,558.413985329945 M592.6569585982602,558.413985329945 L591.6106978058494,555.3826367887743 M591.6106978058494,555.3826367887743 L591.8364183792935,552.3025131275375 M591.8364183792935,552.3025131275375 L593.3203692804211,549.3495474916526 M609.310395920093,557.1667969739548 L610.5560756292562,557.726602377614 M610.5560756292562,557.726602377614 L611.9943384683424,558.0991659878416 M611.9943384683424,558.0991659878416 L613.5415406798711,558.2628034779325 M613.5415406798711,558.2628034779325 L615.1077117612713,558.2079979469802 M615.1077117612713,558.2079979469802 L616.6017180553324,557.9379179506462 M616.6017180553324,557.9379179506462 L617.9367275803584,557.4683086422846 M617.9367275803584,557.4683086422846 L619.0350727193588,556.8264835753531 M619.0350727193588,556.8264835753531 L619.832934693138,556.0497787160036 M619.832934693138,556.0497787160036 L620.2840080343653,555.1833987007724 M620.2840080343653,555.1833987007724 L620.3620954670096,554.2776873538528 M620.3620954670096,554.2776873538528 L620.0627699436218,553.3853095806046 M620.0627699436218,553.3853095806046 L619.4034763863299,552.5581055103853 M619.4034763863299,552.5581055103853 L618.4225891741562,551.8441161982146 M618.4225891741562,551.8441161982146 L617.177114152845,551.2847885013775 M617.177114152845,551.2847885013775 L615.7394342071491,550.9125947321672 M615.7394342071491,550.9125947321672 L614.1930406279434,550.7491338261639 M614.1930406279434,550.7491338261639 L612.6277439170221,550.8038909369704 M612.6277439170221,550.8038909369704 L611.1344212270367,551.0736764470385 M611.1344212270367,551.0736764470385 L609.7998244121295,551.5428564204774 M609.7998244121295,551.5428564204774 L608.7014703438206,552.1841835101482 M608.7014703438206,552.1841835101482 L607.9031798468513,552.960435826451 M607.9031798468513,552.960435826451 L607.451412756742,553.8265445605317 M607.451412756742,553.8265445605317 L607.3724488011019,554.7321842802439 M607.3724488011019,554.7321842802439 L607.6709720249389,555.6247386394341 M607.6709720249389,555.6247386394341 L608.3296960561706,556.4523183523635 M608.3296960561706,556.4523183523635 L609.310395920093,557.1667969739548 M609.310395920093,557.1667969739548 L609.3639383317714,551.0931847474087" stroke="black"  stroke-width="4"  fill="red"/>
<path d="M219.30036225463493,488.4030196474704 L266.78375792951584,515.894190685606 M266.7264315713353,500.7382815538159 L266.78375792951584,515.894190685606 M219.21676504759324,473.2625397791761 L266.7264315713353,500.7382815538159 M219.30036225463493,488.4030196474704 L219.21676504759324,473.2625397791761 M361.6326547814649,456.2661812503605 L369.1741002757461,453.45307110294016 M369.1741002757461,453.45307110294016 L376.85823404842745,450.7741502974077 M376.85823404842745,450.7741502974077 L384.6780912576056,448.23173973099216 M361.6326547814649,456.2661812503605 L322.5704837326477,433.8406294035734 M322.5704837326477,433.8406294035734 L241.87946519309753,479.9801040681091 M241.87946519309753,479.9801040681091 L280.9408637338744,502.5593988015525 M266.78375792951584,515.894190685606 L271.27066425479,511.364722803068 M271.27066425479,511.364722803068 L275.9912040774373,506.9184754770299 M275.9912040774373,506.9184754770299 L280.9408637338744,502.5593988015525 M337.1933282557287,421.01363169637045 L219.30036225463493,488.4030196474704 M384.6780912576056,448.23173973099216 L337.1933282557287,421.01363169637045 M280.8914691813723,487.41096600779815 L280.9408637338744,502.5593988015525 M266.7264315713353,500.7382815538159 L271.21585467912973,496.21135154605827 M271.21585467912973,496.21135154605827 L275.93903930527847,491.7675971019797 M275.93903930527847,491.7675971019797 L280.8914691813723,487.41096600779815 M361.6281637248116,441.1438165505858 L369.17379019396014,438.33229615142136 M369.17379019396014,438.33229615142136 L376.8621823116972,435.65488986399635 M376.8621823116972,435.65488986399635 L384.686371458479,433.1139171842757 M322.5443803594669,418.7309558880418 L361.6281637248116,441.1438165505858 M241.80845961106047,464.84436391337334 L322.5443803594669,418.7309558880418 M280.8914691813723,487.41096600779815 L241.80845961106047,464.84436391337334 M337.17533532895493,405.91123583740085 L219.21676504759324,473.2625397791761 M384.686371458479,433.1139171842757 L337.17533532895493,405.91123583740085 M337.1933282557287,421.01363169637045 L337.17533532895493,405.91123583740085 M384.686371458479,433.1139171842757 L384.6780912576056,448.23173973099216 M361.6281637248116,441.1438165505858 L361.6326547814649,456.2661812503605 M322.5704837326477,433.8406294035734 L322.5443803594669,418.7309558880418 M241.87946519309753,479.9801040681091 L241.80845961106047,464.84436391337334" stroke="black"  stroke-width="4"  fill="red"/>
<path d="M305.7833374497846,484.21120921465365 L313.4860666649885,479.4432999734116 M313.4860666649885,479.4432999734116 L321.4937489748442,474.85076677298196 M321.4937489748442,474.85076677298196 L329.7947033490317,470.4399527428829 M297.61860027223514,479.50298306603656 L305.7833374497846,484.21120921465365 M297.61860027223514,479.50298306603656 L321.62992657003196,465.7412939399136 M321.62992657003196,465.7412939399136 L329.7947033490317,470.4399527428829 M329.7947033490317,470.4399527428829 L334.69664478260296,464.9336194333583 M334.69664478260296,464.9336194333583 L338.83219032964047,459.23725630233116 M338.83219032964047,459.23725630233116 L342.102192643107,453.679878448454 M342.102192643107,453.679878448454 L344.65091350772656,448.19570603926087 M293.2838251073347,477.6264113001473 L304.943783613065,469.5917318530865 M304.943783613065,469.5917318530865 L317.4234805762978,461.99057668657025 M317.4234805762978,461.99057668657025 L330.6757745792911,454.85009707604735 M330.6757745792911,454.85009707604735 L344.65091350772656,448.19570603926087 M293.2838251073347,477.6264113001473 L295.66600162328285,480.84857086202254 M295.66600162328285,480.84857086202254 L298.89533905140104,483.1187369406681 M298.89533905140104,483.1187369406681 L302.0377936250624,484.0814338800496 M302.0377936250624,484.0814338800496 L305.7833374497846,484.21120921465365 M283.885574845673,472.2066257867299 L293.2838251073347,477.6264113001473 M283.885574845673,472.2066257867299 L286.4465465843918,475.47950045452944 M286.4465465843918,475.47950045452944 L289.65162427790915,477.8250220288671 M289.65162427790915,477.8250220288671 L293.4107596800152,479.17848631360795 M293.4107596800152,479.17848631360795 L297.61860027223514,479.50298306603656 M283.885574845673,472.2066257867299 L335.2525667053744,442.7994543103768 M321.62992657003196,465.7412939399136 L325.81569860506744,460.60989120902514 M325.81569860506744,460.60989120902514 L329.5479312438829,454.9696637248123 M329.5479312438829,454.9696637248123 L332.7229698143905,448.9773583202159 M332.7229698143905,448.9773583202159 L335.2525667053744,442.7994543103768 M335.2525667053744,442.7994543103768 L344.65091350772656,448.19570603926087" stroke="black"  stroke-width="4"  fill="red"/>
<path d="M417.30465796786075,362.42410312242464 L401.25751317291747,385.4523806031832 M401.25751317291747,385.4523806031832 L322.4092264215792,340.4984660989885 M322.4309025445307,353.04547060341247 L322.4092264215792,340.4984660989885 M322.4309025445307,353.04547060341247 L151.13677990727223,140.33910848510396 M190.42487862961553,81.13471173509197 L151.13677990727223,140.33910848510396 M417.30465796786075,362.42410312242464 L190.42487862961553,81.13471173509197 M320.28798682602235,431.73942136864935 L336.239787281259,408.717865692972 M320.28798682602235,431.73942136864935 L334.4770525811131,423.6280998053246 M334.4770525811131,423.6280998053246 L339.62119556664794,418.6398887613258 M339.62119556664794,418.6398887613258 L345.30248865705926,413.60715532192864 M345.30248865705926,413.60715532192864 L351.31807403511937,408.7097154409891 M351.31807403511937,408.7097154409891 L357.4530196498801,404.1225496765835 M357.4530196498801,404.1225496765835 L363.4881345342167,400.00949934267004 M363.4881345342167,400.00949934267004 L369.2079425125137,396.5172395635725 M369.2079425125137,396.5172395635725 L374.40849770061203,393.77002492187535 M374.40849770061203,393.77002492187535 L378.90474362317826,391.8652565817322 M378.90474362317826,391.8652565817322 L382.5371371317968,390.8700331384822 M382.5371371317968,390.8700331384822 L385.17729555620446,390.81880425141 M385.17729555620446,390.81880425141 L386.7324715880868,391.7123462533226 M386.7324715880868,391.7123462533226 L387.1487000937242,393.51782492048227 M387.1487000937242,393.51782492048227 L401.25751317291747,385.4523806031832 M336.239787281259,408.717865692972 L417.30465796786075,362.42410312242464 M387.1487000937242,393.51782492048227 L379.1023087235357,386.7509839169396 M379.1023087235357,386.7509839169396 L369.60870786737195,380.22233052402066 M369.60870786737195,380.22233052402066 L358.55487835918836,373.92406565490165 M358.55487835918836,373.92406565490165 L347.8881078502479,368.8581317252647 M347.8881078502479,368.8581317252647 L336.98551831938886,364.5584348266567 M336.98551831938886,364.5584348266567 L326.2730396174585,361.1498241696721 M326.2730396174585,361.1498241696721 L316.12725321427376,358.68644728864297 M316.12725321427376,358.68644728864297 L306.8394314581266,357.1544202643679 M306.8394314581266,357.1544202643679 L300.35346464433724,356.5655094691085 M300.35346464433724,356.5655094691085 L294.31181210420687,356.45344921661 M322.4092264215792,340.4984660989885 L294.31181210420687,356.45344921661 M241.49977767259094,399.04489467314954 L241.44081378422726,386.4759942123434 M269.6640374499117,370.449570854503 L241.44081378422726,386.4759942123434 M269.6640374499117,370.449570854503 L274.16798677815586,370.0395822811735 M274.16798677815586,370.0395822811735 L278.8632083470633,368.54181138520903 M278.8632083470633,368.54181138520903 L283.57181139476216,366.0329981041506 M283.57181139476216,366.0329981041506 L288.7444344807988,362.1244251242052 M288.7444344807988,362.1244251242052 L291.57475970486144,359.4454670058061 M291.57475970486144,359.4454670058061 L294.31181210420687,356.45344921661 M241.49977767259094,399.04489467314954 L322.4309025445307,353.04547060341247 M241.49977767259094,399.04489467314954 L69.86988324961527,185.4693508905342 M151.13677990727223,140.33910848510396 L69.86988324961527,185.4693508905342 M108.91162583486135,126.27335096737971 L190.42487862961553,81.13471173509197 M69.86988324961527,185.4693508905342 L108.91162583486135,126.27335096737971 M143.8404090968396,112.5800128952248 L149.37144368533984,109.75617244430077 M149.37144368533984,109.75617244430077 L154.21938490900607,107.78333223010355 M154.21938490900607,107.78333223010355 L158.2285088584049,106.72434326724522 M158.2285088584049,106.72434326724522 L161.2705344817925,106.61235248666861 M161.2705344817925,106.61235248666861 L163.24863690137875,107.4498486838404 M163.24863690137875,107.4498486838404 L164.10054763199466,109.20874537416194 M164.10054763199466,109.20874537416194 L163.80026781677833,111.83144842515293 M163.80026781677833,111.83144842515293 L162.3588072835302,115.23279730822901 M162.3588072835302,115.23279730822901 L159.8236461862274,119.30298644885971 M159.8236461862274,119.30298644885971 L156.27698929509413,123.91104337500013 M156.27698929509413,123.91104337500013 L151.8331519904453,128.90914506756576 M151.8331519904453,128.90914506756576 L146.6347732613241,134.13731266686818 M146.6347732613241,134.13731266686818 L140.848251179251,139.428485245471 M140.848251179251,139.428485245471 L134.65854485200464,144.61373233470107 M134.65854485200464,144.61373233470107 L128.26322069258174,149.52749036532785 M128.26322069258174,149.52749036532785 L121.86649440698875,154.01290943495985 M121.86649440698875,154.01290943495985 L115.67259920982718,157.92655038622934 M115.67259920982718,157.92655038622934 L109.87958395881583,161.14309398301242 M109.87958395881583,161.14309398301242 L104.67297722662005,163.55918359826597 M104.67297722662005,163.55918359826597 L100.21990738300309,165.09674429162604 M100.21990738300309,165.09674429162604 L96.66386586045945,165.705667505107 M96.66386586045945,165.705667505107 L94.11985151038277,165.3653221141525 M94.11985151038277,165.3653221141525 L92.67083151753224,164.08555463010524 M92.67083151753224,164.08555463010524 L92.36469487877594,161.90635274299845 M92.36469487877594,161.90635274299845 L93.21270178037702,158.89674642048817 M93.21270178037702,158.89674642048817 L95.18885705448781,155.15276267215884 M95.18885705448781,155.15276267215884 L98.23060236512231,150.79440559204096 M98.23060236512231,150.79440559204096 L102.24077233260675,145.96186452888514 M102.24077233260675,145.96186452888514 L107.09051756855536,140.81090855248436 M107.09051756855536,140.81090855248436 L112.62352316256909,135.50793032693292 M112.62352316256909,135.50793032693292 L118.66108797283431,130.2244232876738 M118.66108797283431,130.2244232876738 L125.00790675083323,125.13137580670275 M125.00790675083323,125.13137580670275 L131.4586344932781,120.39360621015885 M131.4586344932781,120.39360621015885 L137.8045309282375,116.16431098168857 M137.8045309282375,116.16431098168857 L143.8404090968396,112.5800128952248 M336.239787281259,408.717865692972 L108.91162583486135,126.27335096737971 M241.44081378422726,386.4759942123434 L320.28798682602235,431.73942136864935 M269.6640374499117,370.449570854503 L270.0604507579956,375.0314541880848 M270.0604507579956,375.0314541880848 L271.8914626282918,380.0304840225367 M271.8914626282918,380.0304840225367 L275.5636823947818,385.9450618740248 M275.5636823947818,385.9450618740248 L281.1626126598172,392.3823350729856 M281.1626126598172,392.3823350729856 L288.7043491680532,399.12380455715606 M288.7043491680532,399.12380455715606 L298.0371688271691,405.8806927346039 M298.0371688271691,405.8806927346039 L308.82991061234816,412.3243282401835 M308.82991061234816,412.3243282401835 L319.3894081647183,417.5847148055334 M319.3894081647183,417.5847148055334 L326.87672595801786,420.7882000933525 M326.87672595801786,420.7882000933525 L334.4770525811131,423.6280998053246 M369.2079425125137,396.5172395635725 L362.1385482907517,387.6106080232072 M362.1385482907517,387.6106080232072 L355.07088103736174,378.7061633972324 M355.07088103736174,378.7061633972324 L348.00493999229144,369.80388152065194 M348.00493999229144,369.80388152065194 L340.94072266014774,360.9037838301269 M340.94072266014774,360.9037838301269 L333.8782296410438,352.005846935524 M333.8782296410438,352.005846935524 L326.8174603312398,343.11009335620804 M326.8174603312398,343.11009335620804 L319.75841156512513,334.2164975523676 M319.75841156512513,334.2164975523676 L312.70109025494105,325.3250863299758 M312.70109025494105,325.3250863299758 L305.64548572244524,316.43582986641013 M305.64548572244524,316.43582986641013 L298.59160738727974,307.54875639660423 M298.59160738727974,307.54875639660423 L291.5394495620526,298.66383894018884 M291.5394495620526,298.66383894018884 L284.48901164462075,289.7810883721461 M284.48901164462075,289.7810883721461 L277.44028809481784,280.90052441717955 M277.44028809481784,280.90052441717955 L270.39328312657926,272.0221024201288 M270.39328312657926,272.0221024201288 L263.3479961839342,263.1458449392508 M263.3479961839342,263.1458449392508 L256.3044366051991,254.27175684467878 M256.3044366051991,254.27175684467878 L249.2625839276982,245.39984939131932 M249.2625839276982,245.39984939131932 L242.22244729566768,236.53008071202686 M242.22244729566768,236.53008071202686 L235.1840261782948,227.66247338541453 M235.1840261782948,227.66247338541453 L228.14732989829622,218.79703226532231 M228.14732989829622,218.79703226532231 L221.11233805174783,209.93376866263043 M221.11233805174783,209.93376866263043 L214.07905971951655,201.07264065637017 M214.07905971951655,201.07264065637017 L207.0475043329841,192.21367647585294 M207.0475043329841,192.21367647585294 L200.0176414551422,183.35685844152658 M200.0176414551422,183.35685844152658 L192.98951035064442,174.50223168914852 M192.98951035064442,174.50223168914852 L185.9630902258512,165.64973735287447 M185.9630902258512,165.64973735287447 L178.93836075949721,156.79938682665426 M178.93836075949721,156.79938682665426 L171.9153611846665,147.95122520805515 M171.9153611846665,147.95122520805515 L164.89407069810895,139.10519363105226 M164.89407069810895,139.10519363105226 L157.87446902244506,130.26130353137899 M157.87446902244506,130.26130353137899 L150.85659517342856,121.41957652942176 M150.85659517342856,121.41957652942176 L143.8404090968396,112.5800128952248" stroke="black"  stroke-width="4"  fill="red"/>
<path d="M440.1773928310181,501.3586338234977 L440.41945983088567,407.7798511724819 M322.5704837326477,433.8406294035734 L322.4092264215792,340.4984660989885 M440.1773928310181,501.3586338234977 L322.5704837326477,433.8406294035734 M440.41945983088567,407.7798511724819 L322.4092264215792,340.4984660989885 M359.485392139782,547.9617684766923 L359.45005489930855,454.22100627703753 M359.485392139782,547.9617684766923 L440.1773928310181,501.3586338234977 M359.45005489930855,454.22100627703753 L440.41945983088567,407.7798511724819 M322.5704837326477,433.8406294035734 L241.87946519309753,479.9801040681091 M241.87946519309753,479.9801040681091 L241.44081378422726,386.4759942123434 M269.6640374499117,370.449570854503 L241.44081378422726,386.4759942123434 M269.6640374499117,370.449570854503 L274.16798677815586,370.0395822811735 M274.16798677815586,370.0395822811735 L278.8632083470633,368.54181138520903 M278.8632083470633,368.54181138520903 L283.57181139476216,366.0329981041506 M283.57181139476216,366.0329981041506 L288.7444344807988,362.1244251242052 M288.7444344807988,362.1244251242052 L291.57475970486144,359.4454670058061 M291.57475970486144,359.4454670058061 L294.31181210420687,356.45344921661 M322.4092264215792,340.4984660989885 L294.31181210420687,356.45344921661 M241.87946519309753,479.9801040681091 L359.485392139782,547.9617684766923 M297.61860027223514,479.50298306603656 L321.62992657003196,465.7412939399136 M297.61860027223514,479.50298306603656 L376.07503604238553,524.7451794022556 M376.07503604238553,524.7451794022556 L400.0865041649058,510.89141854774897 M321.62992657003196,465.7412939399136 L400.0865041649058,510.89141854774897 M241.44081378422726,386.4759942123434 L359.45005489930855,454.22100627703753 M269.6640374499117,370.449570854503 L270.0604507579956,375.0314541880848 M270.0604507579956,375.0314541880848 L271.8914626282918,380.0304840225367 M271.8914626282918,380.0304840225367 L275.5636823947818,385.9450618740248 M275.5636823947818,385.9450618740248 L281.1626126598172,392.3823350729856 M281.1626126598172,392.3823350729856 L288.7043491680532,399.12380455715606 M288.7043491680532,399.12380455715606 L298.0371688271691,405.8806927346039 M298.0371688271691,405.8806927346039 L308.82991061234816,412.3243282401835 M308.82991061234816,412.3243282401835 L319.3894081647183,417.5847148055334 M319.3894081647183,417.5847148055334 L330.3099090679599,422.12144469095205 M330.3099090679599,422.12144469095205 L341.15531999639984,425.78903919172717 M341.15531999639984,425.78903919172717 L349.267829662753,427.98683289102024 M349.267829662753,427.98683289102024 L357.1586566606441,429.6482710304924 M357.1586566606441,429.6482710304924 L371.93755653854976,421.18785760225944 M371.93755653854976,421.18785760225944 L382.6595131425385,427.3246614593534 M382.6595131425385,427.3246614593534 L393.63800483349087,421.0341266756675 M382.91605376964384,414.90304437779037 L393.63800483349087,421.0341266756675 M382.91605376964384,414.90304437779037 L397.66267391213023,406.4611099912491 M397.66267391213023,406.4611099912491 L393.5745218309447,400.41763948371454 M393.5745218309447,400.41763948371454 L387.85819572581244,394.1944409386039 M387.85819572581244,394.1944409386039 L379.9987732655963,387.4375155032625 M379.9987732655963,387.4375155032625 L370.40445996231364,380.7244679332149 M370.40445996231364,380.7244679332149 L359.43636692166535,374.3842105133955 M359.43636692166535,374.3842105133955 L348.80970110666294,369.26101081069527 M348.80970110666294,369.26101081069527 L337.91022420015287,364.89040044963923 M337.91022420015287,364.89040044963923 L327.16597586574954,361.4029656072194 M327.16597586574954,361.4029656072194 L316.9593388452745,358.8589266354578 M316.9593388452745,358.8589266354578 L307.58983202423207,357.24978723882435 M307.58983202423207,357.24978723882435 L300.7056201403729,356.5859210439094 M300.7056201403729,356.5859210439094 L294.31181210420687,356.45344921661 M392.59535529870993,420.68029103640407 L395.5055781447033,416.9748073222809 M395.5055781447033,416.9748073222809 L397.6450847790186,413.6992557557696 M397.6450847790186,413.6992557557696 L398.9551538077176,410.9429174544685 M398.9551538077176,410.9429174544685 L399.39941792926237,408.78113445390323 M399.39941792926237,408.78113445390323 L398.96494790832486,407.273295498202 M398.96494790832486,407.273295498202 L397.66267391213023,406.4611099912491 M390.0376110554177,418.6814919590944 L392.59535529870993,420.68029103640407 M388.73498905021097,424.98931083650217 L390.0376110554177,418.6814919590944 M378.36539892109585,434.88576018822164 L382.077055543879,431.54925947223626 M382.077055543879,431.54925947223626 L385.55190794187337,428.232980404847 M385.55190794187337,428.232980404847 L388.73498905021097,424.98931083650217 M378.36539892109585,434.88576018822164 L364.7115189696423,427.26327766335305 M364.7115189696423,427.26327766335305 L352.9643953380469,421.59852318709505 M352.9643953380469,421.59852318709505 L343.2257079653975,417.79255900351177 M343.2257079653975,417.79255900351177 L336.88529993674223,415.9577828661182 M336.88529993674223,415.9577828661182 L331.7329765815697,415.0403585470007 M331.7329765815697,415.0403585470007 L328.5951153897141,414.8633362850025 M328.5951153897141,414.8633362850025 L326.1005455443497,415.0362028318886 M326.1005455443497,415.0362028318886 L324.1829932794492,415.45190083227277 M324.1829932794492,415.45190083227277 L322.205709734184,416.2952678498688 M322.205709734184,416.2952678498688 L320.6123340035234,417.5359277563177 M320.6123340035234,417.5359277563177 L319.57552146888463,418.9386546310862 M319.57552146888463,418.9386546310862 L318.96276101874395,420.3637225122565 M318.96276101874395,420.3637225122565 L318.54866150777815,422.46979477052093 M318.54866150777815,422.46979477052093 L318.54656227487766,424.9423214897021 M318.54656227487766,424.9423214897021 L319.3533218917171,429.3266818055931 M319.3533218917171,429.3266818055931 L321.1243477407138,434.40872675998344 M321.1243477407138,434.40872675998344 L324.9403942643847,442.17348142023815 M324.9403942643847,442.17348142023815 L330.2301829232414,450.7691158256936 M330.2301829232414,450.7691158256936 L336.1329804146176,459.09354310111013 M334.92070265253716,455.82682615359903 L334.8139381931584,457.31071632072434 M334.8139381931584,457.31071632072434 L335.2203167800192,458.4053139072659 M335.2203167800192,458.4053139072659 L336.1329804146176,459.09354310111013 M333.60875110439804,451.00391586472443 L334.92070265253716,455.82682615359903 M335.9235979845466,453.15018923048115 L333.60875110439804,451.00391586472443 M357.1586566606441,429.6482710304924 L352.23029049838084,434.03037910600995 M352.23029049838084,434.03037910600995 L347.70866244522904,438.3796024903485 M347.70866244522904,438.3796024903485 L343.71737007715296,442.5769162532153 M343.71737007715296,442.5769162532153 L340.3653207527626,446.50755609021286 M340.3653207527626,446.50755609021286 L337.7437173389282,450.0642729588235 M337.7437173389282,450.0642729588235 L335.9235979845466,453.15018923048115 M321.62992657003196,465.7412939399136 L326.28127696443926,459.9686813293747 M326.28127696443926,459.9686813293747 L330.35006407475555,453.58286227434945 M330.35006407475555,453.58286227434945 L333.6951485592441,446.8054632630773 M333.6951485592441,446.8054632630773 L336.2003699412846,439.87163726935404 M336.2003699412846,439.87163726935404 L337.7785283265625,433.0220282857546 M337.7785283265625,433.0220282857546 L338.37440718484726,426.4945391519338 M338.37440718484726,426.4945391519338 L337.96670853228403,420.5162006032124 M337.96670853228403,420.5162006032124 L336.56889017279127,415.2952849710246 M336.56889017279127,415.2952849710246 L334.2287756599455,411.0141341217558 M334.2287756599455,411.0141341217558 L331.02703025489876,407.82271548125937 M331.02703025489876,407.82271548125937 L327.0744753585054,405.8333454434842 M327.0744753585054,405.8333454434842 L322.508339963186,405.1166018714238 M322.508339963186,405.1166018714238 L317.4875599360959,405.6987109709337 M317.4875599360959,405.6987109709337 L312.1872821446122,407.56046158410163 M312.1872821446122,407.56046158410163 L306.79274981736853,410.6377174537158 M306.79274981736853,410.6377174537158 L301.4927889272133,414.82355193245644 M301.4927889272133,414.82355193245644 L296.47312919971483,419.9719209966055 M296.47312919971483,419.9719209966055 L291.90980410098274,425.90275527400524 M291.90980410098274,425.90275527400524 L287.9628763028293,432.40831872809036 M287.9628763028293,432.40831872809036 L284.77073204233193,439.260574400103 M284.77073204233193,439.260574400103 L282.44515195242633,446.2192843442626 M282.44515195242633,446.2192843442626 L281.06734987227185,453.04059404596734 M281.06734987227185,453.04059404596734 L280.6851222236921,459.4856582780549 M280.6851222236921,459.4856582780549 L281.31123315972894,465.32913328908484 M281.31123315972894,465.32913328908484 L282.9230225378698,470.36708344539977 M282.9230225378698,470.36708344539977 L285.4633345563193,474.4241397744172 M285.4633345563193,474.4241397744172 L288.84262706173894,477.35955561853706 M288.84262706173894,477.35955561853706 L292.94223083244833,479.07200712471194 M292.94223083244833,479.07200712471194 L297.61860027223514,479.50298306603656 M400.0865041649058,510.89141854774897 L404.56274869100315,505.3514947602306 M404.56274869100315,505.3514947602306 L408.5123052266772,499.24080893864874 M408.5123052266772,499.24080893864874 L411.8093463135119,492.75414476599576 M411.8093463135119,492.75414476599576 L414.34873816420725,486.09820466139473 M414.34873816420725,486.09820466139473 L416.04933827364573,479.48513548446857 M416.04933827364573,479.48513548446857 L416.8565756512984,473.1258603664957 M416.8565756512984,473.1258603664957 L416.7442079860815,467.2234309185571 M416.7442079860815,467.2234309185571 L415.71521352490083,461.9666232722785 M415.71521352490083,461.9666232722785 L413.8017657908366,457.5239165612713 M387.54764777703963,442.4833784993963 L413.8017657908366,457.5239165612713 M370.1572241392645,435.63503613266636 L374.49320692982224,435.11267803142744 M374.49320692982224,435.11267803142744 L378.49829306097723,435.5611556346229 M378.49829306097723,435.5611556346229 L382.0684448072736,436.9680146606066 M382.0684448072736,436.9680146606066 L385.111120253446,439.29585210680716 M385.111120253446,439.29585210680716 L387.54764777703963,442.4833784993963 M378.36539892109585,434.88576018822164 L376.55200485506543,434.23866303832295 M376.55200485506543,434.23866303832295 L373.7876422009512,434.4907092302453 M373.7876422009512,434.4907092302453 L370.1572241392645,435.63503613266636 M353.55407571346643,445.1492353939746 L347.74261457263333,449.41647902604655 M347.74261457263333,449.41647902604655 L341.87457490843855,454.113413893394 M341.87457490843855,454.113413893394 L336.1329804146176,459.09354310111013 M336.1230925842763,471.98823079788485 L338.5671189026301,465.99141770462205 M338.5671189026301,465.99141770462205 L341.61869342418026,460.16119129065885 M341.61869342418026,460.16119129065885 L345.19804078660474,454.65004990804033 M345.19804078660474,454.65004990804033 L349.2115115420445,449.60210262570365 M349.2115115420445,449.60210262570365 L353.55407571346643,445.1492353939746 M336.1230925842763,471.98823079788485 L362.3772360506182,487.0946059195516 M362.3772360506182,487.0946059195516 L360.44758937629086,493.7602427762896 M360.44758937629086,493.7602427762896 L359.40573964326273,500.2226051520503 M359.40573964326273,500.2226051520503 L359.28474132253393,506.2739555099954 M359.28474132253393,506.2739555099954 L360.08790053027445,511.7200467260689 M360.08790053027445,511.7200467260689 L361.7887335366192,516.3864177226521 M361.7887335366192,516.3864177226521 L364.3319145025322,520.1239618648901 M364.3319145025322,520.1239618648901 L367.6351522764065,522.813665912802 M367.6351522764065,522.813665912802 L371.591938039002,524.3703307811409 M371.591938039002,524.3703307811409 L376.07503604238553,524.7451794022556 M382.6595131425385,427.3246614593534 L377.5220856698263,432.00430654864005 M377.5220856698263,432.00430654864005 L372.74656684335895,437.54408968776085 M372.74656684335895,437.54408968776085 L368.49715540148446,443.75392671591305 M368.49715540148446,443.75392671591305 L364.91994832417066,450.42049364072676 M364.91994832417066,450.42049364072676 L362.13784046949814,457.3146878104416 M362.13784046949814,457.3146878104416 L360.246229427418,464.1995870857407 M360.246229427418,464.1995870857407 L359.3097320703677,470.8387561960046 M359.3097320703677,470.8387561960046 L359.35997108290246,477.0044459908355 M359.35997108290246,477.0044459908355 L360.3945504040563,482.48550365618814 M360.3945504040563,482.48550365618814 L362.3772360506182,487.0946059195516 M413.8017657908366,457.5239165612713 L415.7832035738165,450.64883621494386 M415.7832035738165,450.64883621494386 L416.8210018745224,443.99141956403764 M416.8210018745224,443.99141956403764 L416.87932332367507,437.778493279516 M416.87932332367507,437.778493279516 L415.95552559829457,432.22205436001093 M415.95552559829457,432.22205436001093 L414.0803454662054,427.5121051578428 M414.0803454662054,427.5121051578428 L411.31696487631416,423.8101303071834 M411.31696487631416,423.8101303071834 L407.7589644494764,421.24355495212694 M407.7589644494764,421.24355495212694 L403.5272617658035,419.9012133864138 M403.5272617658035,419.9012133864138 L398.76606348811197,419.83021369091995 M398.76606348811197,419.83021369091995 L393.63800483349087,421.0341266756675 M371.93755653854976,421.18785760225944 L366.17374279331693,425.1960873645352 M366.17374279331693,425.1960873645352 L360.2466630618554,429.7230237968492 M360.2466630618554,429.7230237968492 L354.23551803334755,434.719327778983 M354.23551803334755,434.719327778983 L348.37650333408385,440.00784024697253 M348.37650333408385,440.00784024697253 L342.87946384930507,445.41578925737235 M342.87946384930507,445.41578925737235 L339.1917332119254,449.35841658122547 M339.1917332119254,449.35841658122547 L335.9235979845466,453.15018923048115 M333.60875110439804,451.00391586472443 L332.96758763052196,457.0845008707409 M332.96758763052196,457.0845008707409 L333.1817323286459,462.7168295169223 M333.1817323286459,462.7168295169223 L334.2442720189667,467.73415152798367 M334.2442720189667,467.73415152798367 L336.1230925842763,471.98823079788485 M392.59535529870993,420.68029103640407 L393.9688188577502,417.5348570203768 M393.9688188577502,417.5348570203768 L394.3806705523162,415.0894032891328 M394.3806705523162,415.0894032891328 L393.832860668087,413.4347088450456 M393.832860668087,413.4347088450456 L392.3736837236329,412.58288110692143 M392.3736837236329,412.58288110692143 L390.07432487868704,412.5323030225962 M390.07432487868704,412.5323030225962 L386.87057585526856,413.3079018549861 M386.87057585526856,413.3079018549861 L382.91605376964384,414.90304437779037 M387.54764777703963,442.4833784993963 L389.4149212846451,436.09244799622184 M389.4149212846451,436.09244799622184 L390.46916663221344,429.8747632548447 M390.46916663221344,429.8747632548447 L390.67896028676756,424.0134766529383 M390.67896028676756,424.0134766529383 L390.0376110554177,418.6814919590944 M370.1572241392645,435.63503613266636 L388.73498905021097,424.98931083650217 M334.92070265253716,455.82682615359903 L353.55407571346643,445.1492353939746" stroke="black"  stroke-width="4"  fill="red"/></svg>