<svg viewBox="0 0 800 800" xmlns="http://www.w3.org/2000/svg"><path d="M484.6614736584452,625.7817506371379 L481.9328248744037,634.8334525187303 M481.9328248744037,634.8334525187303 L481.93859979858007,629.2996869231782 M484.6678576770946,620.2499856706127 L481.93859979858007,629.2996869231782 M484.6678576770946,620.2499856706127 L484.6614736584452,625.7817506371379 M484.6614736584452,625.7817506371379 L491.0887967867128,629.507973593917 M491.0887967867128,629.507973593917 L481.9328248744037,634.8334525187303 M491.0887967867128,629.507973593917 L491.0966277960214,623.9753846891804 M491.0966277960214,623.9753846891804 L481.93859979858007,629.2996869231782 M484.6678576770946,620.2499856706127 L491.0966277960214,623.9753846891804" stroke="black"  stroke-width="4"  fill="red"/>
<path d="M532.6618775897708,628.8410842786406 L528.361479652486,630.3217248508033 M528.361479652486,630.3217248508033 L524.814962301235,632.3683348263559 M524.814962301235,632.3683348263559 L522.236337791811,634.8579024050769 M522.236337791811,634.8579024050769 L520.7816118783533,637.640615320792 M520.7816118783533,637.640615320792 L520.539270698402,640.5488286794263 M520.539270698402,640.5488286794263 L521.5247856749784,643.4070851313563 M521.5247856749784,643.4070851313563 L523.6794422698265,646.0427179297417 M523.6794422698265,646.0427179297417 L526.873757497749,648.2963028161926 M497.61420952253945,645.2975761459032 L526.873757497749,648.2963028161926 M497.61420952253945,645.2975761459032 L526.8786568654307,628.249336062937 M532.6618775897708,628.8410842786406 L526.8786568654307,628.249336062937 M526.889658179618,642.7595671187747 L526.873757497749,648.2963028161926 M526.889658179618,642.7595671187747 L523.6946209243404,640.5064789486203 M523.6946209243404,640.5064789486203 L521.5394761295746,637.8714273077218 M521.5394761295746,637.8714273077218 L520.5537359995525,635.0138013862402 M520.5537359995525,635.0138013862402 L520.7961283140976,632.1062298822676 M520.7961283140976,632.1062298822676 L522.2511781852471,629.324131409571 M522.2511781852471,629.324131409571 L524.8303796113437,626.8351137829994 M524.8303796113437,626.8351137829994 L528.3776918458843,624.7889560772201 M528.3776918458843,624.7889560772201 L532.6790546671838,623.3086427987641 M532.6790546671838,623.3086427987641 L532.6618775897708,628.8410842786406 M497.62351949061167,639.7615014431601 L526.889658179618,642.7595671187747 M497.62351949061167,639.7615014431601 L497.61420952253945,645.2975761459032 M497.62351949061167,639.7615014431601 L526.8945329979157,622.7170254104583 M526.8786568654307,628.249336062937 L526.8945329979157,622.7170254104583 M532.6790546671838,623.3086427987641 L526.8945329979157,622.7170254104583" stroke="black"  stroke-width="4"  fill="red"/>
<path d="M555.2391862687657,631.3215779343036 L555.2614436412389,625.7885881893933 M526.5045932910277,648.0876128007332 L526.5204105813725,642.5509230932906 M555.2391862687657,631.3215779343036 L558.2884339707814,633.568729609632 M558.2884339707814,633.568729609632 L560.3275563738769,636.1729299596702 M560.3275563738769,636.1729299596702 L561.2375056841504,638.9831712729458 M561.2375056841504,638.9831712729458 L560.9646470536065,641.8362979373571 M560.9646470536065,641.8362979373571 L559.5240545388584,644.5664453188438 M559.5240545388584,644.5664453188438 L556.9987833346504,647.0146766570799 M556.9987833346504,647.0146766570799 L553.5352334787162,649.0383080226977 M553.5352334787162,649.0383080226977 L549.3346869458799,650.5192713448125 M549.3346869458799,650.5192713448125 L544.6416170762784,651.3710789698708 M544.6416170762784,651.3710789698708 L539.729436634434,651.5439680147417 M539.729436634434,651.5439680147417 L534.8844092129773,651.0278302100855 M534.8844092129773,651.0278302100855 L530.3888520534506,649.8528340880733 M530.3888520534506,649.8528340880733 L526.5045932910277,648.0876128007332 M555.2614436412389,625.7885881893933 L558.31138116875,628.035243367823 M558.31138116875,628.035243367823 L560.3509670942151,630.6388685616691 M560.3509670942151,630.6388685616691 L561.2611264464558,633.4484894887248 M561.2611264464558,633.4484894887248 L560.988211834612,636.3009865922412 M560.988211834612,636.3009865922412 L559.5473002141573,639.0305318250889 M559.5473002141573,639.0305318250889 L557.0214650261569,641.478223422399 M557.0214650261569,641.478223422399 L553.557138918905,643.5014088189679 M553.557138918905,643.5014088189679 L549.3556489766781,644.9820458595335 M549.3556489766781,644.9820458595335 L544.6615235285386,645.8336658527927 M544.6615235285386,645.8336658527927 L539.748236983012,646.0065168177634 M539.748236983012,646.0065168177634 L534.9021175706721,645.4904926989158 M534.9021175706721,645.4904926989158 L530.4055463312621,644.3157554204886 M530.4055463312621,644.3157554204886 L526.5204105813725,642.5509230932906 M526.5045932910277,648.0876128007332 L523.4575216012856,645.835202599364 M523.4575216012856,645.835202599364 L521.4245649922182,643.2269510453114 M521.4245649922182,643.2269510453114 L520.5233160039185,640.414789224343 M520.5233160039185,640.414789224343 L520.8054301248648,637.5623153757741 M520.8054301248648,637.5623153757741 L522.2537221829222,634.8352499096228 M522.2537221829222,634.8352499096228 L524.7833476006243,632.3918087884188 M524.7833476006243,632.3918087884188 L528.2469343584435,630.3735933306162 M528.2469343584435,630.3735933306162 L532.4431920252068,628.8974308935921 M532.4431920252068,628.8974308935921 L537.1286042692752,628.0486945357032 M537.1286042692752,628.0486945357032 L542.0315381077792,627.8764583056554 M542.0315381077792,627.8764583056554 L546.8678390327004,628.3906755831445 M546.8678390327004,628.3906755831445 L551.357175162408,629.5616151737711 M551.357175162408,629.5616151737711 L555.2391862687657,631.3215779343036 M526.5204105813725,642.5509230932906 L523.4726500415918,640.2990093662828 M523.4726500415918,640.2990093662828 L521.4392326759772,637.6913329504604 M521.4392326759772,637.6913329504604 L520.5377775586544,634.8797915074816 M520.5377775586544,634.8797915074816 L520.8199518276637,632.0279472226053 M520.8199518276637,632.0279472226053 L522.268566459536,629.3014839171017 M522.268566459536,629.3014839171017 L524.79875783022,626.8585825585527 M524.79875783022,626.8585825585527 L528.263120864274,624.8408130930117 M528.263120864274,624.8408130930117 L532.4603200153624,623.3649769569147 M532.4603200153624,623.3649769569147 L537.1467843981632,622.5164282451884 M537.1467843981632,622.5164282451884 L542.0508201795847,622.344230097839 M542.0508201795847,622.344230097839 L546.8882091647708,622.8583336812874 M546.8882091647708,622.8583336812874 L551.3785565712437,624.0290144115412 M551.3785565712437,624.0290144115412 L555.2614436412389,625.7885881893933 M536.6903016701252,642.1444646950495 L536.7084038091185,636.6090853685854 M545.0712211292803,637.2543732302498 L545.0912016232058,631.7200730599914 M536.6903016701252,642.1444646950495 L535.8013424445576,641.4880522060682 M535.8013424445576,641.4880522060682 L535.2077571332707,640.7277336951762 M535.2077571332707,640.7277336951762 L534.9439983047575,639.9077191803325 M534.9439983047575,639.9077191803325 L535.0253321680441,639.0756835546123 M535.0253321680441,639.0756835546123 L535.4469448220264,638.2799668402364 M535.4469448220264,638.2799668402364 L536.1843108378711,637.5668041694328 M536.1843108378711,637.5668041694328 L537.1945170103875,636.9776011548909 M537.1945170103875,636.9776011548909 L538.4188648592524,636.5465541893159 M538.4188648592524,636.5465541893159 L539.7862413186672,636.2986958244863 M539.7862413186672,636.2986958244863 L541.2172119319578,636.2483891728581 M541.2172119319578,636.2483891728581 L542.6286985415127,636.3985645782858 M542.6286985415127,636.3985645782858 L543.9387306157041,636.7405052394643 M543.9387306157041,636.7405052394643 L545.0712211292803,637.2543732302498 M536.7084038091185,636.6090853685854 L535.8192435667422,635.9528176878315 M535.8192435667422,635.9528176878315 L535.2255235814948,635.1926669269196 M535.2255235814948,635.1926669269196 L534.961704228579,634.3728333563275 M534.961704228579,634.3728333563275 L535.0430552061957,633.5409813523311 M535.0430552061957,633.5409813523311 L535.464761583858,632.7454402679266 M535.464761583858,632.7454402679266 L536.202292468125,632.0324350253198 M536.202292468125,632.0324350253198 L537.2127250515257,631.4433620892071 M537.2127250515257,631.4433620892071 L538.4373476979222,631.012410293894 M538.4373476979222,631.012410293894 L539.805031387645,630.7646066564168 M539.805031387645,630.7646066564168 L541.2363238286697,630.7143111128148 M541.2363238286697,630.7143111128148 L542.648128194102,630.8644533588371 M542.648128194102,630.8644533588371 L543.958455513271,631.206318521026 M543.958455513271,631.206318521026 L545.0912016232058,631.7200730599914 M545.0712211292803,637.2543732302498 L545.960357820175,637.9103330494679 M545.960357820175,637.9103330494679 L546.5544619117959,638.670309365635 M546.5544619117959,638.670309365635 L546.8189608710532,639.4901605038089 M546.8189608710532,639.4901605038089 L546.7384327829229,640.3222623237015 M546.7384327829229,640.3222623237015 L546.317455926312,641.1182301014678 M546.317455926312,641.1182301014678 L545.5804795214915,641.8318113883905 M545.5804795214915,641.8318113883905 L544.570276487867,642.4214751296795 M544.570276487867,642.4214751296795 L543.3455445866848,642.8529193894196 M543.3455445866848,642.8529193894196 L541.9775358960371,643.101050136811 M541.9775358960371,643.101050136811 L540.5457602642161,643.1514016616403 M540.5457602642161,643.1514016616403 L539.133531297763,643.0010628812581 M539.133531297763,643.0010628812581 L537.8229757442948,642.6587746959757 M537.8229757442948,642.6587746959757 L536.6903016701252,642.1444646950495 M545.0912016232058,631.7200730599914 L545.980539412162,632.375888070241 M545.980539412162,632.375888070241 L546.5747784117418,633.135696634362 M546.5747784117418,633.135696634362 L546.8393382282733,633.9553668275839 M546.8393382282733,633.9553668275839 L546.7587933844377,634.7872850236386 M546.7587933844377,634.7872850236386 L546.3377230948394,635.5830771749077 M546.3377230948394,635.5830771749077 L545.6005819934526,636.2965010330292 M545.6005819934526,636.2965010330292 L544.5901525510633,636.8860346978635 M544.5901525510633,636.8860346978635 L543.3651456842467,637.3173837914425 M543.3651456842467,637.3173837914425 L541.996829475006,637.5654598102507 M541.996829475006,637.5654598102507 L540.5647316573372,637.6158002296444 M540.5647316573372,637.6158002296444 L539.1521846006319,637.4654946079673 M539.1521846006319,637.4654946079673 L537.841333565015,637.1232819207845 M537.841333565015,637.1232819207845 L536.7084038091185,636.6090853685854" stroke="black"  stroke-width="4"  fill="red"/>
<path d="M692.4531812728775,551.6808708259937 L687.0224173159351,534.9562953996403 M687.0224173159351,534.9562953996403 L687.0739052686127,529.4447691928921 M692.5059525126613,546.165595413462 L687.0739052686127,529.4447691928921 M692.5059525126613,546.165595413462 L692.4531812728775,551.6808708259937 M692.4531812728775,551.6808708259937 L688.5732901850672,549.859186313889 M688.5732901850672,549.859186313889 L684.0520371579562,548.6336935274898 M684.0520371579562,548.6336935274898 L679.1617215610272,548.0779716878357 M679.1617215610272,548.0779716878357 L674.1966789100828,548.2253866000542 M674.1966789100828,548.2253866000542 L669.4557211521934,549.0670860842972 M669.4557211521934,549.0670860842972 L665.2242539060247,550.5525446584811 M665.2242539060247,550.5525446584811 L661.7572682122234,552.5925429400708 M661.7572682122234,552.5925429400708 L659.2639911364367,555.06445456331 M658.1966207881312,551.7489959085776 L659.2639911364367,555.06445456331 M658.1966207881312,551.7489959085776 L687.0224173159351,534.9562953996403 M658.2417385883563,546.233705244931 L658.1966207881312,551.7489959085776 M658.2417385883563,546.233705244931 L687.0739052686127,529.4447691928921 M659.3093596082203,549.5484218734096 L661.8031846868676,547.0770634460629 M661.8031846868676,547.0770634460629 L665.2709373165355,545.0375218679975 M665.2709373165355,545.0375218679975 L669.5033441430397,543.5523959449066 M669.5033441430397,543.5523959449066 L674.2453575895071,542.7108849849061 M674.2453575895071,542.7108849849061 L679.2115086367728,542.563503093389 M679.2115086367728,542.563503093389 L684.1029188151064,543.1191004563608 M684.1029188151064,543.1191004563608 L688.6251869012522,544.3443187829591 M688.6251869012522,544.3443187829591 L692.5059525126613,546.165595413462 M658.2417385883563,546.233705244931 L659.3093596082203,549.5484218734096 M659.3093596082203,549.5484218734096 L659.2639911364367,555.06445456331" stroke="black"  stroke-width="4"  fill="red"/>
<path d="M692.0930972591999,551.4701791324998 L692.1457871477462,545.9549508884355 M663.7272621874583,568.0210514624703 L663.7736768359002,562.502122800693 M692.0930972591999,551.4701791324998 L695.147350633218,553.6885040083653 M695.147350633218,553.6885040083653 L697.201868867644,556.2592995396195 M697.201868867644,556.2592995396195 L698.1367376899296,559.0334824674215 M698.1367376899296,559.0334824674215 L697.8968809066934,561.8499922149764 M697.8968809066934,561.8499922149764 L696.4954641761998,564.5450931924706 M696.4954641761998,564.5450931924706 L694.0132715041424,566.961890545508 M694.0132715041424,566.961890545508 L690.5941997058378,568.9595349335323 M690.5941997058378,568.9595349335323 L686.4369409000868,570.4214774326581 M686.4369409000868,570.4214774326581 L681.7834435128344,571.2623438093165 M681.7834435128344,571.2623438093165 L676.9048091827846,571.4330120485351 M676.9048091827846,571.4330120485351 L672.0853411336228,570.9235040802847 M672.0853411336228,570.9235040802847 L667.6058680196746,569.7635972373258 M667.6058680196746,569.7635972373258 L663.7272621874583,568.0210514624703 M692.1457871477462,545.9549508884355 L695.2007325015019,548.1727792189072 M695.2007325015019,548.1727792189072 L697.2557210600803,550.7429995314303 M697.2557210600803,550.7429995314303 L698.1908109893357,553.5165620008742 M698.1908109893357,553.5165620008742 L697.9509129166106,556.3324421086796 M697.9509129166106,556.3324421086796 L696.5491945516296,559.0269408567794 M696.5491945516296,559.0269408567794 L694.0664571348182,561.4431983920641 M694.0664571348182,561.4431983920641 L690.6466289742108,563.4403967443881 M690.6466289742108,563.4403967443881 L686.4884461388698,564.9020129113806 M686.4884461388698,564.9020129113806 L681.8339109112184,565.7426916264533 M681.8339109112184,565.7426916264533 L676.9541855354878,565.9133217796644 M676.9541855354878,565.9133217796644 L672.1336369909266,565.4039275153937 M672.1336369909266,565.4039275153937 L667.6531570577732,564.2442795572828 M667.6531570577732,564.2442795572828 L663.7736768359002,562.502122800693 M663.7272621874583,568.0210514624703 L660.6751175465048,565.797558438223 M660.6751175465048,565.797558438223 L658.6266329279782,563.2227947156225 M658.6266329279782,563.2227947156225 L657.7003318579626,560.446728130752 M657.7003318579626,560.446728130752 L657.9493324636028,557.630858672836 M657.9493324636028,557.630858672836 L659.3583835520271,554.9387805088752 M659.3583835520271,554.9387805088752 L661.8449266703141,552.5266814244842 M661.8449266703141,552.5266814244842 L665.2640938820305,550.5343490239982 M665.2640938820305,550.5343490239982 L669.4171712078687,549.0771153245676 M669.4171712078687,549.0771153245676 L674.0631426319393,548.2392612497988 M674.0631426319393,548.2392612497988 L678.9326561324422,548.0692332992047 M678.9326561324422,548.0692332992047 L683.7434887576914,548.5768575913257 M683.7434887576914,548.5768575913257 L688.2167854267028,549.7327804612086 M688.2167854267028,549.7327804612086 L692.0930972591999,551.4701791324998 M663.7736768359002,562.502122800693 L660.7208411374897,560.2791263245 M660.7208411374897,560.2791263245 L658.6718888759757,557.7049378191041 M658.6718888759757,557.7049378191041 L657.7453705228124,554.9294916927047 M657.7453705228124,554.9294916927047 L657.9944165095139,552.1142518744997 M657.9944165095139,552.1142518744997 L659.4037726564986,549.4227759385761 M659.4037726564986,549.4227759385761 L661.8908624859388,547.011216672833 M661.8908624859388,547.011216672833 L665.3107861239674,545.0193303077308 M665.3107861239674,545.0193303077308 L669.4647856263499,543.5624229389778 M669.4647856263499,543.5624229389778 L674.1117915394631,542.7247565267921 M674.1117915394631,542.7247565267921 L678.9823920094972,542.5547666621677 M678.9823920094972,542.5547666621677 L683.7943012609247,543.0622772504206 M683.7943012609247,543.0622772504206 L688.2686019721586,544.2179412374558 M688.2686019721586,544.2179412374558 L692.1457871477462,545.9549508884355 M673.7821985353238,562.1542061057725 L673.83083953653,556.6365880086835 M682.0555636942995,557.3268703288029 L682.1060349715942,551.8103315206574 M673.7821985353238,562.1542061057725 L672.8917658898009,561.5062189336077 M672.8917658898009,561.5062189336077 L672.293670185083,560.7556562326722 M672.293670185083,560.7556562326722 L672.0226181823524,559.9461656750811 M672.0226181823524,559.9461656750811 L672.0943054642235,559.1248075807159 M672.0943054642235,559.1248075807159 L672.5044795821332,558.3393016536637 M672.5044795821332,558.3393016536637 L673.229280280353,557.6352898705588 M673.229280280353,557.6352898705588 L674.2265247492007,557.0536467730744 M674.2265247492007,557.0536467730744 L675.4382672249823,556.62813023871 M675.4382672249823,556.62813023871 L676.7941265543113,556.3834518673322 M676.7941265543113,556.3834518673322 L678.2153365960689,556.3337906364096 M678.2153365960689,556.3337906364096 L679.6193855408799,556.4820393244154 M679.6193855408799,556.4820393244154 L680.9247299268089,556.819595505471 M680.9247299268089,556.819595505471 L682.0555636942995,557.3268703288029 M673.83083953653,556.6365880086835 L672.9402052357034,555.9887456635298 M672.9402052357034,555.9887456635298 L672.3419728583432,555.2383507345454 M672.3419728583432,555.2383507345454 L672.0708570871285,554.429041143817 M672.0708570871285,554.429041143817 L672.14255718405,553.6078666936401 M672.14255718405,553.6078666936401 L672.5528199215742,552.8225364175933 M672.5528199215742,552.8225364175933 L673.2777798762842,552.1186820811633 M673.2777798762842,552.1186820811633 L674.2752449624359,551.5371690771075 M674.2752449624359,551.5371690771075 L675.4872565968725,551.1117477238255 M675.4872565968725,551.1117477238255 L676.8434179995756,550.8671240859635 M676.8434179995756,550.8671240859635 L678.2649454931083,550.8174739643127 M678.2649454931083,550.8174739643127 L679.6693088525187,550.965689489189 M679.6693088525187,550.965689489189 L680.974946369563,551.3031701621293 M680.974946369563,551.3031701621293 L682.1060349715942,551.8103315206574 M682.0555636942995,557.3268703288029 L682.9461665383635,557.974413483144 M682.9461665383635,557.974413483144 L683.5447796271407,558.724635310929 M683.5447796271407,558.724635310929 L683.8165604829942,559.5339656267149 M683.8165604829942,559.5339656267149 L683.7456694750326,560.3553887128601 M683.7456694750326,560.3553887128601 L683.3361256109848,561.1411408181704 M683.3361256109848,561.1411408181704 L682.6117142015336,561.8455632527437 M682.6117142015336,561.8455632527437 L681.6144778491124,562.427658236569 M681.6144778491124,562.427658236569 L680.4023604580868,562.8535643740954 M680.4023604580868,562.8535643740954 L679.0458800961676,563.0985099693077 M679.0458800961676,563.0985099693077 L677.6238757370621,563.1482151446678 M677.6238757370621,563.1482151446678 L676.2190921828616,562.9998062165396 M676.2190921828616,562.9998062165396 L674.9132182624413,562.6619144241031 M674.9132182624413,562.6619144241031 L673.7821985353238,562.1542061057725 M682.1060349715942,551.8103315206574 L682.9968395473475,552.4577298491898 M682.9968395473475,552.4577298491898 L683.5955895377568,553.2077839056323 M683.5955895377568,553.2077839056323 L683.8674344873843,554.0169332545652 M683.8674344873843,554.0169332545652 L683.7965310165995,554.838172694166 M683.7965310165995,554.838172694166 L683.386898819885,555.6237491508082 M683.386898819885,555.6237491508082 L682.6623283255609,556.32801413633 M682.6623283255609,556.32801413633 L681.664871361281,556.9099790266996 M681.664871361281,556.9099790266996 L680.4524846496254,557.3357899854724 M680.4524846496254,557.3357899854724 L679.0957019335704,557.5806808448008 M679.0957019335704,557.5806808448008 L677.6733797717752,557.6303749132383 M677.6733797717752,557.6303749132383 L676.2682814738237,557.4819991482493 M676.2682814738237,557.4819991482493 L674.9621141851471,557.1441828633602 M674.9621141851471,557.1441828633602 L673.83083953653,556.6365880086835" stroke="black"  stroke-width="4"  fill="red"/>
<path d="M771.3368115826116,480.63552570234367 L775.637323782422,479.2196860882973 M775.637323782422,479.2196860882973 L779.1813736975115,477.2356796759816 M779.1813736975115,477.2356796759816 L781.7510199632397,474.8059786929149 M781.7510199632397,474.8059786929149 L783.1885961199191,472.0804305686337 M783.1885961199191,472.0804305686337 L783.4064335404048,469.2269097036751 M783.4064335404048,469.2269097036751 L782.3919374321346,466.42096261325105 M782.3919374321346,466.42096261325105 L780.2082904715082,463.8349396500438 M780.2082904715082,463.8349396500438 L776.9902848636208,461.6275035336814 M776.9902848636208,461.6275035336814 L772.9359774847264,459.93392018507916 M772.9359774847264,459.93392018507916 L768.2943917867385,458.8578798392632 M768.2943917867385,458.8578798392632 L763.3503992564916,458.46520013922134 M763.3503992564916,458.46520013922134 L758.4071446146207,458.77991909867103 M758.4071446146207,458.77991909867103 L753.7678377592638,459.78276767518173 M753.7678377592638,459.78276767518173 L749.7171219952862,461.4124101572021 M749.7171219952862,461.4124101572021 L746.5038065925044,463.569077707946 M746.5038065925044,463.569077707946 L744.3256203420591,466.1206296941782 M744.3256203420591,466.1206296941782 L743.3170172493526,468.9105497988663 M743.3806794021536,463.4176119494517 L743.3170172493526,468.9105497988663 M743.3806794021536,463.4176119494517 L744.3894916241242,460.6283245069577 M744.3894916241242,460.6283245069577 L746.568147419751,458.0773513755414 M746.568147419751,458.0773513755414 L749.7821636816464,455.9211732784071 M749.7821636816464,455.9211732784071 L753.8337684602253,454.29190075384724 M753.8337684602253,454.29190075384724 L758.4740979400069,453.28927988935607 M758.4740979400069,453.28927988935607 L763.4184462107415,452.97463239913736 M763.4184462107415,452.97463239913736 L768.3635364739578,453.36722292647164 M768.3635364739578,453.36722292647164 L773.0061568806865,454.44301894542593 M773.0061568806865,454.44301894542593 L777.061372576594,456.13621783209453 M777.061372576594,456.13621783209453 L780.2801043789805,458.34315299218633 M780.2801043789805,458.34315299218633 L782.4642506868888,460.9285893068612 M782.4642506868888,460.9285893068612 L783.478988360358,463.73390013201697 M783.478988360358,463.73390013201697 L783.2611195204985,466.5867742363647 M783.2611195204985,466.5867742363647 L781.8232405282191,469.3117048807302 M781.8232405282191,469.3117048807302 L779.253038314556,471.74085563551796 M779.253038314556,471.74085563551796 L775.708213360674,473.7244129097095 M775.708213360674,473.7244129097095 L771.4067546937591,475.13993209399825 M771.4067546937591,475.13993209399825 L771.3368115826116,480.63552570234367 M743.3170172493526,468.9105497988663 L752.9347296662322,472.58803847799754 M752.9347296662322,472.58803847799754 L762.2802969508672,476.4986068604064 M762.2802969508672,476.4986068604064 L771.3368115826116,480.63552570234367 M759.2743512019765,472.3567081608579 L760.3998834887215,472.85672872422936 M760.3998834887215,472.85672872422936 L761.697718426948,473.1894935953135 M761.697718426948,473.1894935953135 L763.0923666248906,473.33565290683634 M763.0923666248906,473.33565290683634 L764.5027288575393,473.2866959925984 M764.5027288575393,473.2866959925984 L765.8467562318974,473.04547367723603 M765.8467562318974,473.04547367723603 L767.0463198765408,472.62601551266835 M767.0463198765408,472.62601551266835 L768.031637231154,472.0527459588484 M768.031637231154,472.0527459588484 L768.7454747590382,471.3590025019314 M768.7454747590382,471.3590025019314 L769.1463550745497,470.58515869171526 M769.1463550745497,470.58515869171526 L769.2110536617973,469.7761888496002 M769.2110536617973,469.7761888496002 L768.9358743529648,468.97912250254853 M768.9358743529648,468.97912250254853 L768.3368758367875,468.24026044749144 M768.3368758367875,468.24026044749144 L767.4488824541332,467.6025258615907 M767.4488824541332,467.6025258615907 L766.3235544025505,467.10293915950047 M766.3235544025505,467.10293915950047 L765.0262385001524,466.77050475383305 M765.0262385001524,466.77050475383305 L763.6323143857196,466.6245020011869 M763.6323143857196,466.6245020011869 L762.2227154157707,466.6734056995192 M762.2227154157707,466.6734056995192 L760.8793156217973,466.91437721627403 M760.8793156217973,466.91437721627403 L759.6801001165522,467.3334444442588 M759.6801001165522,467.3334444442588 L758.6947716948008,467.90627249453564 M758.6947716948008,467.90627249453564 L757.9805664283319,468.5996250130978 M757.9805664283319,468.5996250130978 L757.5790459588831,469.3732180206257 M757.5790459588831,469.3732180206257 L757.5135814410065,470.1821346439615 M757.5135814410065,470.1821346439615 L757.7880445152724,470.9793575507083 M757.7880445152724,470.9793575507083 L758.3865405633206,471.71855008081025 M758.3865405633206,471.71855008081025 L759.2743512019765,472.3567081608579 M743.3806794021536,463.4176119494517 L753.0005445340383,467.09426712547804 M753.0005445340383,467.09426712547804 L762.3482067151608,471.0039497143241 M762.3482067151608,471.0039497143241 L771.4067546937591,475.13993209399825 M759.3415711863406,466.8629892249445 L758.4535601076693,466.22497575371585 M758.4535601076693,466.22497575371585 L757.8549272623221,465.4859507456147 M757.8549272623221,465.4859507456147 L757.5803989601369,464.6889085343678 M757.5803989601369,464.6889085343678 L757.6458735842618,463.88017528050045 M757.6458735842618,463.88017528050045 L758.0474788774195,463.106757657256 M758.0474788774195,463.106757657256 L758.761838735016,462.4135623497525 M758.761838735016,462.4135623497525 L759.7473825119016,461.8408641958905 M759.7473825119016,461.8408641958905 L760.9468616262576,461.42189200452276 M760.9468616262576,461.42189200452276 L762.29055796787,461.1809751384841 M762.29055796787,461.1809751384841 L763.7004692210327,461.1320825314376 M763.7004692210327,461.1320825314376 L765.0947032302963,461.27805217113394 M765.0947032302963,461.27805217113394 L766.3923086599108,461.6104111846371 M766.3923086599108,461.6104111846371 L767.5178890583624,462.10988459393616 M767.5178890583624,462.10988459393616 L768.406082957714,462.74747457195883 M768.406082957714,462.74747457195883 L769.0052184922654,463.486169106646 M769.0052184922654,463.486169106646 L769.2804633458936,464.28305475897037 M769.2804633458936,464.28305475897037 L769.2157549924883,465.09184123135435 M769.2157549924883,465.09184123135435 L768.8147901386583,465.8655096560492 M768.8147901386583,465.8655096560492 L768.1007981849631,466.5590958999783 M768.1007981849631,466.5590958999783 L767.1152654825812,467.13223555520494 M767.1152654825812,467.13223555520494 L765.9154380765541,467.5515986812263 M765.9154380765541,467.5515986812263 L764.5711138775348,467.79276634463486 M764.5711138775348,467.79276634463486 L763.1604390233573,467.8417121673243 M763.1604390233573,467.8417121673243 L761.7654806084837,467.6955859695239 M761.7654806084837,467.6955859695239 L760.4673559109394,467.3628964922349 M760.4673559109394,467.3628964922349 L759.3415711863406,466.8629892249445 M759.2743512019765,472.3567081608579 L759.3415711863406,466.8629892249445" stroke="black"  stroke-width="4"  fill="red"/>
<path d="M392.1134346967426,695.908350702196 L392.1279272185013,701.4530310531228 M392.1134346967426,695.908350702196 L389.5865635372991,698.4872312971362 M389.5865635372991,698.4872312971362 L386.0512445133306,700.6265440922859 M386.0512445133306,700.6265440922859 L381.72482064039053,702.1942343060413 M381.72482064039053,702.1942343060413 L376.8737354784813,703.0934208487987 M376.8737354784813,703.0934208487987 L371.79700275021025,703.2685375199889 M371.79700275021025,703.2685375199889 L366.8077088756538,702.7087338609316 M366.8077088756538,702.7087338609316 L362.2134420155788,701.4486365074154 M362.2134420155788,701.4486365074154 L358.29729366735694,699.5661163870485 M358.29729366735694,699.5661163870485 L355.30023994235387,697.1774480060067 M355.30023994235387,697.1774480060067 L353.406327447949,694.4299883136057 M353.406327447949,694.4299883136057 L352.7313625627146,691.4930759764038 M352.7313625627146,691.4930759764038 L353.3160491107701,688.5474095021128 M353.3160491107701,688.5474095021128 L355.12354408506303,685.7740447565963 M355.12354408506303,685.7740447565963 L358.04207404093273,683.3431782154182 M358.04207404093273,683.3431782154182 L361.8918559486309,681.4038140285967 M361.8918559486309,681.4038140285967 L366.43628738333416,680.0747075711306 M366.43628738333416,680.0747075711306 L371.39643935975107,679.437182169223 M371.39643935975107,679.437182169223 L371.4155872464936,684.9782611847962 M371.4155872464936,684.9782611847962 L366.4565554937169,685.6159261611419 M366.4565554937169,685.6159261611419 L361.91315176766176,686.9453235546325 M361.91315176766176,686.9453235546325 L358.06424209325365,688.8851121456213 M358.06424209325365,688.8851121456213 L355.14637531873007,691.3165104573403 M355.14637531873007,691.3165104573403 L353.3392935555228,694.090481636077 M353.3392935555228,694.090481636077 L352.7547445507748,697.0367919145477 M352.7547445507748,697.0367919145477 L353.4295624610468,699.9743458297214 M353.4295624610468,699.9743458297214 L355.3230521287965,702.722405430695 M355.3230521287965,702.722405430695 L358.3194328853407,705.1115951559275 M358.3194328853407,705.1115951559275 L362.2346993890106,706.9945260043305 M362.2346993890106,706.9945260043305 L366.82792982865647,708.2548982140293 M366.82792982865647,708.2548982140293 L371.8160966947938,708.814823960674 M371.8160966947938,708.814823960674 L376.8916814894074,708.6396690995067 M376.8916814894074,708.6396690995067 L381.74166878289753,707.7402864419136 M381.74166878289753,707.7402864419136 L386.06711268557575,706.172254240956 M386.06711268557575,706.172254240956 L389.6016300773612,704.0324746171165 M389.6016300773612,704.0324746171165 L392.1279272185013,701.4530310531228 M392.1279272185013,701.4530310531228 L384.81545540528214,696.1319202974867 M384.81545540528214,696.1319202974867 L377.9072068053134,690.6368165736825 M377.9072068053134,690.6368165736825 L371.4155872464936,684.9782611847962 M368.99262535215905,699.3385882867773 L370.12278659723415,699.857305003724 M370.12278659723415,699.857305003724 L371.4338692538056,700.2025126439394 M371.4338692538056,700.2025126439394 L372.8496123658487,700.3541372652222 M372.8496123658487,700.3541372652222 L374.28768924379835,700.3033497061275 M374.28768924379835,700.3033497061275 L375.66443735151546,700.0531074796064 M375.66443735151546,700.0531074796064 L376.8998244887795,699.6179651502393 M376.8998244887795,699.6179651502393 L377.92198279122204,699.0232610873999 M377.92198279122204,699.0232610873999 L378.6715375173488,698.3035799889417 M378.6715375173488,698.3035799889417 L379.10493444843326,697.5008055305973 M379.10493444843326,697.5008055305973 L379.1970616536553,696.6615938390269 M379.1970616536553,696.6615938390269 L378.9426308382354,695.8347326402079 M378.9426308382354,695.8347326402079 L378.3564979604452,695.0682532267821 M378.3564979604452,695.0682532267821 L377.4727412636431,694.4066826253395 M377.4727412636431,694.4066826253395 L376.34277738652156,693.8884242243387 M376.34277738652156,693.8884242243387 L375.0322222520448,693.5435657521055 M375.0322222520448,693.5435657521055 L373.61722511981446,693.39210655009 M373.61722511981446,693.39210655009 L372.1799417951924,693.4428378815451 M372.1799417951924,693.4428378815451 L370.80385301329295,693.692815115606 M370.80385301329295,693.692815115606 L369.56883994397083,694.127544383482 M369.56883994397083,694.127544383482 L368.5466847453147,694.7217819560526 M368.5466847453147,694.7217819560526 L367.7967614478752,695.4410499911487 M367.7967614478752,695.4410499911487 L367.3627087173049,696.2435594527225 M367.3627087173049,696.2435594527225 L367.26978870706114,697.0827149136173 M367.26978870706114,697.0827149136173 L367.5234713414569,697.9097415325674 M367.5234713414569,697.9097415325674 L368.1090720506637,698.6765701241474 M368.1090720506637,698.6765701241474 L368.99262535215905,699.3385882867773 M392.1134346967426,695.908350702196 L384.79931725933335,690.5884020512239 M384.79931725933335,690.5884020512239 L377.8895159616163,685.0944995070745 M377.8895159616163,685.0944995070745 L371.39643935975107,679.437182169223 M368.9729079435929,693.7943695971276 L368.0891560629565,693.132496010884 M368.0891560629565,693.132496010884 L367.5034242784241,692.3658349047928 M367.5034242784241,692.3658349047928 L367.2496856645229,691.5389889432337 M367.2496856645229,691.5389889432337 L367.34262801671446,690.7000168144856 M367.34262801671446,690.7000168144856 L367.7767800811756,689.8976827027716 M367.7767800811756,689.8976827027716 L368.526873910672,689.1785718489349 M368.526873910672,689.1785718489349 L369.5492609091458,688.5844641489109 M369.5492609091458,688.5844641489109 L370.7845535815986,688.1498299006211 M370.7845535815986,688.1498299006211 L372.16095352594704,687.8999073076479 M372.16095352594704,687.8999073076479 L373.59856152228775,687.8491870655395 M373.59856152228775,687.8491870655395 L375.01387799314176,688.0006131604096 M375.01387799314176,688.0006131604096 L376.3247286064995,688.3453962538597 M376.3247286064995,688.3453962538597 L377.4549469442115,688.8635413826094 M377.4549469442115,688.8635413826094 L378.33890231066056,689.5249674031448 M378.33890231066056,689.5249674031448 L378.9251665047643,690.2912793285021 M378.9251665047643,690.2912793285021 L379.1796536380078,691.117959868708 M379.1796536380078,691.117959868708 L379.0875044489861,691.9569882285472 M379.0875044489861,691.9569882285472 L378.65400847993845,692.7595873389896 M378.65400847993845,692.7595873389896 L377.90428338767435,693.4791112592401 M377.90428338767435,693.4791112592401 L376.88189328331026,694.0736854529794 M376.88189328331026,694.0736854529794 L375.64622637327,694.5087327658119 M375.64622637327,694.5087327658119 L374.26916680478587,694.758920353203 M374.26916680478587,694.758920353203 L372.8307648964621,694.8096968233666 M372.8307648964621,694.8096968233666 L371.4147021089694,694.658105308007 M371.4147021089694,694.658105308007 L370.10332373567866,694.312973043995 M370.10332373567866,694.312973043995 L368.9729079435929,693.7943695971276 M368.99262535215905,699.3385882867773 L368.9729079435929,693.7943695971276" stroke="black"  stroke-width="4"  fill="red"/>
<path d="M334.6409899091629,626.9100515509485 L334.6683154855022,632.4395801412021 M334.6409899091629,626.9100515509485 L330.6697718828636,628.6227549563899 M330.6697718828636,628.6227549563899 L326.11067565512417,629.7338742404717 M326.11067565512417,629.7338742404717 L321.23142394916977,630.1779639114052 M321.23142394916977,630.1779639114052 L316.3187125816011,629.9288497626679 M316.3187125816011,629.9288497626679 L311.6611788815602,629.0012216281747 M311.6611788815602,629.0012216281747 L307.53238948859973,627.4497132007456 M307.53238948859973,627.4497132007456 L304.17458392999083,625.36567952506 M304.17458392999083,625.36567952506 L301.7845108425008,622.8716765329774 M301.7845108425008,622.8716765329774 L300.5017494900619,620.1142744582928 M300.5017494900619,620.1142744582928 L300.4008084394672,617.2552673221578 M300.4008084394672,617.2552673221578 L301.4867780550285,614.4622216238038 M301.4867780550285,614.4622216238038 L303.6953047362392,611.8986013941698 M303.6953047362392,611.8986013941698 L306.89649204281903,609.7142580840614 M306.89649204281903,609.7142580840614 L310.9026424241499,608.0367213354216 M310.9026424241499,608.0367213354216 L315.47922642250626,606.9638669504379 M315.47922642250626,606.9638669504379 L320.3586848848177,606.5582177301084 M320.3586848848177,606.5582177301084 L325.2558426408299,606.8434256131284 M325.2558426408299,606.8434256131284 L329.8845415257783,607.8028627876131 M329.8845415257783,607.8028627876131 L329.9128920896181,613.328165022948 M329.9128920896181,613.328165022948 L325.2852293259566,612.3685152800589 M325.2852293259566,612.3685152800589 L320.38916940563183,612.0832442012876 M320.38916940563183,612.0832442012876 L315.51080651900753,612.4889833036168 M315.51080651900753,612.4889833036168 L310.93525197960906,613.5620753783062 M310.93525197960906,613.5620753783062 L306.9300048861798,615.2399836997979 M306.9300048861798,615.2399836997979 L303.7295418738532,617.4248106871632 M303.7295418738532,617.4248106871632 L301.5215179976344,619.9889983565619 M301.5215179976344,619.9889983565619 L300.43580001888006,622.7826620054603 M300.43580001888006,622.7826620054603 L300.53672646887594,625.6423013931826 M300.53672646887594,625.6423013931826 L301.81920747341894,628.4003129696405 M301.81920747341894,628.4003129696405 L304.20875058942005,630.8948670040187 M304.20875058942005,630.8948670040187 L307.56580740557536,632.9793609677408 M307.56580740557536,632.9793609677408 L311.6936731438244,634.5312119653845 M311.6936731438244,634.5312119653845 L316.35016254105705,635.4590448768166 M316.35016254105705,635.4590448768166 L321.2617704380368,635.7082140130061 M321.2617704380368,635.7082140130061 L326.1399245158165,635.2640263157245 M326.1399245158165,635.2640263157245 L330.6979936251088,634.1526617368937 M330.6979936251088,634.1526617368937 L334.6683154855022,632.4395801412021 M334.6683154855022,632.4395801412021 L332.63224576918077,626.1035242822567 M332.63224576918077,626.1035242822567 L331.04644113601677,619.7294612163275 M331.04644113601677,619.7294612163275 L329.9128920896181,613.328165022948 M316.4660341219455,626.3242880720959 L317.5874086263714,626.8369506153844 M317.5874086263714,626.8369506153844 L318.88937846973243,627.1781321427923 M318.88937846973243,627.1781321427923 L320.29620403064587,627.3279877668573 M320.29620403064587,627.3279877668573 L321.7260776035533,627.2777914172729 M321.7260776035533,627.2777914172729 L323.09581869276167,627.0304687317064 M323.09581869276167,627.0304687317064 L324.32579817289513,626.600401679949 M324.32579817289513,626.600401679949 L325.3444672688086,626.0126354735597 M325.3444672688086,626.0126354735597 L326.09265375451474,625.3013511120595 M326.09265375451474,625.3013511120595 L326.5268780420458,624.5079408178067 M326.5268780420458,624.5079408178067 L326.6219838916024,623.6785190113261 M326.6219838916024,623.6785190113261 L326.37250463870294,622.8613016750741 M326.37250463870294,622.8613016750741 L325.7930077933615,622.1037599847243 M325.7930077933615,622.1037599847243 L324.9171946267744,621.4499071549617 M324.9171946267744,621.4499071549617 L323.7960042392426,620.9376896509096 M323.7960042392426,620.9376896509096 L322.4945543128269,620.5968512018044 M322.4945543128269,620.5968512018044 L321.08846534273454,620.4471581114011 M321.08846534273454,620.4471581114011 L319.6593763001239,620.49729921274 M319.6593763001239,620.49729921274 L318.29028794925375,620.7443615285284 M318.29028794925375,620.7443615285284 L317.0606798911886,621.1740227233173 M317.0606798911886,621.1740227233173 L316.0420158041517,621.761330577416 M316.0420158041517,621.761330577416 L315.2934667668081,622.4722090821808 M315.2934667668081,622.4722090821808 L314.8585954316846,623.26535900242 M314.8585954316846,623.26535900242 L314.76270625941953,624.0947255590562 M314.76270625941953,624.0947255590562 L315.01144536917894,624.912105429405 M315.01144536917894,624.912105429405 L315.5904147991017,625.669990207082 M315.5904147991017,625.669990207082 L316.4660341219455,626.3242880720959 M334.6409899091629,626.9100515509485 L332.6044768000922,620.5753954010763 M332.6044768000922,620.5753954010763 L331.01833041464,614.2027419067975 M331.01833041464,614.2027419067975 L329.8845415257783,607.8028627876131 M316.43463333216306,620.7961103971693 L315.5588189904109,620.1419571517846 M315.5588189904109,620.1419571517846 L314.9797214550586,619.3842399089507 M314.9797214550586,619.3842399089507 L314.73092857302595,618.5670407484866 M314.73092857302595,618.5670407484866 L314.82684140399795,617.7378575765232 M314.82684140399795,617.7378575765232 L315.26181242232053,616.9448830562387 M315.26181242232053,616.9448830562387 L316.0105313547841,616.2341617769908 M316.0105313547841,616.2341617769908 L317.0294256548558,615.6469838319982 M317.0294256548558,615.6469838319982 L318.25931087170284,615.2174176836934 M318.25931087170284,615.2174176836934 L319.62870722607255,614.9704100242362 M319.62870722607255,614.9704100242362 L321.05811724897023,614.9202800156262 M321.05811724897023,614.9202800156262 L322.4645215488164,615.0699399896579 M322.4645215488164,615.0699399896579 L323.7662628602109,615.4107030386247 M323.7662628602109,615.4107030386247 L324.8877037669674,615.9228072380445 M324.8877037669674,615.9228072380445 L325.7637120406323,616.5765154466541 M325.7637120406323,616.5765154466541 L326.34333722916654,617.3338896009859 M326.34333722916654,617.3338896009859 L326.5928705872188,618.1509262267969 M326.5928705872188,618.1509262267969 L326.49774143069686,618.9801646487938 M326.49774143069686,618.9801646487938 L326.06341774998833,619.7733995439834 M326.06341774998833,619.7733995439834 L325.3150615310279,620.4845266813561 M325.3150615310279,620.4845266813561 L324.2961622187043,621.0721629802089 M324.2961622187043,621.0721629802089 L323.06590541194555,621.5021349868721 M323.06590541194555,621.5021349868721 L321.6958560253809,621.7494030169987 M321.6958560253809,621.7494030169987 L320.2656611196311,621.7995882740433 M320.2656611196311,621.7995882740433 L318.8585198984782,621.6497657657935 M318.8585198984782,621.6497657657935 L317.55625843742837,621.3086596373494 M317.55625843742837,621.3086596373494 L316.43463333216306,620.7961103971693 M316.4660341219455,626.3242880720959 L316.43463333216306,620.7961103971693" stroke="black"  stroke-width="4"  fill="red"/>
<path d="M654.0912362941942,447.9589343564087 L656.9598081427484,445.73105853462005 M656.9598081427484,445.73105853462005 L658.8013199764715,443.1700898742613 M658.8013199764715,443.1700898742613 L659.5084106742265,440.4264159917111 M659.5084106742265,440.4264159917111 L659.0403770453961,437.6609540563114 M659.0403770453961,437.6609540563114 L657.4254300157293,435.0356599536841 M657.4254300157293,435.0356599536841 L654.7587966081105,432.70410361070367 M654.7587966081105,432.70410361070367 L651.1970750106321,430.80248893190264 M651.1970750106321,430.80248893190264 L646.9488703877363,429.4418256168815 M646.9488703877363,429.4418256168815 L642.2627562977104,428.7014362387057 M642.2627562977104,428.7014362387057 L637.4126190160157,428.62449607576445 M637.4126190160157,428.62449607576445 L632.6819052290044,429.2154767852494 M632.6819052290044,429.2154767852494 L628.3471071659953,430.4399386563797 M628.3471071659953,430.4399386563797 L624.6617624373098,432.2264850628949 M624.6617624373098,432.2264850628949 L621.8416826000073,434.470875311295 M621.8416826000073,434.470875311295 L620.0523955325391,437.0419987351256 M620.0523955325391,437.0419987351256 L619.3992783189354,439.7895258229828 M619.3992783189354,439.7895258229828 L619.9213728659262,442.55257199660787 M619.9213728659262,442.55257199660787 L621.5888357664288,445.1691518386323 M621.6254306895288,439.68160676102025 L621.5888357664288,445.1691518386323 M621.6254306895288,439.68160676102025 L619.9575909515124,437.0656225138222 M619.9575909515124,437.0656225138222 L619.4353727044208,434.30320554322157 M619.4353727044208,434.30320554322157 L620.0886262691938,431.55630439840365 M620.0886262691938,431.55630439840365 L621.8783014126071,428.98576697674594 M621.8783014126071,428.98576697674594 L624.6989980678775,426.7418884581616 M624.6989980678775,426.7418884581616 L628.3851520953946,424.9557495216052 M628.3851520953946,424.9557495216052 L632.7209045729109,423.7315669886674 M632.7209045729109,423.7315669886674 L637.4526621706735,423.14072111985377 M637.4526621706735,423.14072111985377 L642.3038718081194,423.2176437270846 M642.3038718081194,423.2176437270846 L646.9910243013585,423.95786417893623 M646.9910243013585,423.95786417893623 L651.2401728327238,425.31821709844235 M651.2401728327238,425.31821709844235 L654.80268870503,427.2193980917875 M654.80268870503,427.2193980917875 L657.4699202475379,429.5504228747285 M657.4699202475379,429.5504228747285 L659.0852340797513,432.175118685023 M659.0852340797513,432.175118685023 L659.5533814193458,434.93995065431625 M659.5533814193458,434.93995065431625 L658.8461443344721,437.68299980760764 M658.8461443344721,437.68299980760764 L657.0042342665806,440.2433855862155 M657.0042342665806,440.2433855862155 L654.1350354280123,442.47075453197215 M654.1350354280123,442.47075453197215 L654.0912362941942,447.9589343564087 M621.5888357664288,445.1691518386323 L632.481163348275,445.84533018671686 M632.481163348275,445.84533018671686 L643.3211219685641,446.7757413322337 M643.3211219685641,446.7757413322337 L654.0912362941942,447.9589343564087 M635.3537793268047,442.3992118596242 L636.4715110280827,442.8967879242675 M636.4715110280827,442.8967879242675 L637.7628180839547,443.2279289268363 M637.7628180839547,443.2279289268363 L639.1525818889642,443.37337441112027 M639.1525818889642,443.37337441112027 L640.5599875128433,443.3246553086449 M640.5599875128433,443.3246553086449 L641.9031626138049,443.08461108938945 M641.9031626138049,443.08461108938945 L643.1040233734569,442.66720015526766 M643.1040233734569,442.66720015526766 L644.0927160300907,442.09673018184264 M644.0927160300907,442.09673018184264 L644.8118105997341,441.40637575838707 M644.8118105997341,441.40637575838707 L645.2195191015542,440.6363106191342 M645.2195191015542,440.6363106191342 L645.2922244136903,439.83129200284463 M645.2922244136903,439.83129200284463 L645.0257601616447,439.0381172173595 M645.0257601616447,439.0381172173595 L644.4356784557082,438.3028610357727 M644.4356784557082,438.3028610357727 L643.5562944203197,437.6682423056217 M643.5562944203197,437.6682423056217 L642.4387525181122,437.1710917848434 M642.4387525181122,437.1710917848434 L641.1479586387571,436.8402788317021 M641.1479586387571,436.8402788317021 L639.7589138065437,436.6949887611365 M639.7589138065437,436.6949887611365 L638.3522682530632,436.7436550355691 M638.3522682530632,436.7436550355691 L637.0097201923761,436.98345029079496 M637.0097201923761,436.98345029079496 L635.80920980505,437.400473146903 M635.80920980505,437.400473146903 L634.8205105787392,437.9705048465996 M634.8205105787392,437.9705048465996 L634.1010540022938,438.66047119226357 M634.1010540022938,438.66047119226357 L633.6927109963009,439.43028736343626 M633.6927109963009,439.43028736343626 L633.6192440300301,440.23525315015377 M633.6192440300301,440.23525315015377 L633.8849939685786,441.0285833497737 M633.8849939685786,441.0285833497737 L634.4745723329316,441.76416758941843 M634.4745723329316,441.76416758941843 L635.3537793268047,442.3992118596242 M621.6254306895288,439.68160676102025 L632.5201713822782,440.35763123538163 M632.5201713822782,440.35763123538163 L643.3625326485017,441.2878306800451 M643.3625326485017,441.2878306800451 L654.1350354280123,442.47075453197215 M635.3934120571174,436.91229729288443 L634.5140084506753,436.2773976145204 M634.5140084506753,436.2773976145204 L633.9242972570207,435.5419808766911 M633.9242972570207,435.5419808766911 L633.6584859683646,434.74883135032417 M633.6584859683646,434.74883135032417 L633.7319666032856,433.94404891003774 M633.7319666032856,433.94404891003774 L634.1403974721591,433.1744081012373 M634.1403974721591,433.1744081012373 L634.8600109804534,432.48459894656673 M634.8600109804534,432.48459894656673 L635.8489270674022,431.9146971268549 M635.8489270674022,431.9146971268549 L637.0497016469318,431.49776929558345 M637.0497016469318,431.49776929558345 L638.3925458831443,431.25802868410995 M638.3925458831443,431.25802868410995 L639.799502413112,431.2093734998417 M639.799502413112,431.2093734998417 L641.1888549755777,431.3546304616805 M641.1888549755777,431.3546304616805 L642.4799354852237,431.6853680319582 M642.4799354852237,431.6853680319582 L643.597726273058,432.18240527372234 M643.597726273058,432.18240527372234 L644.4773069979537,432.8168794148237 M644.4773069979537,432.8168794148237 L645.0675217548578,433.5519680967474 M645.0675217548578,433.5519680967474 L645.3340476726157,434.3449622099994 M645.3340476726157,434.3449622099994 L645.2613290290756,435.1497974795111 M645.2613290290756,435.1497974795111 L644.8535329460019,435.9196872547583 M644.8535329460019,435.9196872547583 L644.1342816060038,436.60988448467424 M644.1342816060038,436.60988448467424 L643.1453720930937,437.18022457523875 M643.1453720930937,437.18022457523875 L641.944246987468,437.59754048197794 M641.944246987468,437.59754048197794 L640.6007754343095,437.8375300558473 M640.6007754343095,437.8375300558473 L639.1930584977481,437.88623806781186 M639.1930584977481,437.88623806781186 L637.8029866437885,437.7408256932746 M637.8029866437885,437.7408256932746 L636.51139272943,437.4097600757216 M636.51139272943,437.4097600757216 L635.3934120571174,436.91229729288443 M635.3537793268047,442.3992118596242 L635.3934120571174,436.91229729288443" stroke="black"  stroke-width="4"  fill="red"/>
<path d="M400.8374310574342,707.2289099505781 L388.517964320572,698.884675951974 M388.517964320572,698.884675951974 L377.2336575765048,690.0735633668322 M377.2336575765048,690.0735633668322 L367.0374463930386,680.8396017063055 M367.0374463930386,680.8396017063055 L357.97663453681133,671.2287482555512 M357.97663453681133,671.2287482555512 L350.09267021001233,661.2886060970724 M350.09267021001233,661.2886060970724 L343.4210056560902,651.0682102723625 M343.4210056560902,651.0682102723625 L337.99094842708007,640.6177222332557 M337.99094842708007,640.6177222332557 L333.82560298077664,629.9881778869196 M333.82560298077664,629.9881778869196 L330.9417846679567,619.2312321171108 M330.9417846679567,619.2312321171108 L329.35003312970827,608.3988896887477 M329.35003312970827,608.3988896887477 L329.0545892970005,597.5432514988024 M329.0545892970005,597.5432514988024 L330.0534655969577,586.7162567650358 M330.0534655969577,586.7162567650358 L332.33851776644866,575.9694328687001 M332.33851776644866,575.9694328687001 L335.89554352198866,565.3536577095541 M335.89554352198866,565.3536577095541 L340.70438538298635,554.9189431904072 M340.70438538298635,554.9189431904072 L346.7391557086973,544.714171518208 M346.7391557086973,544.714171518208 L353.96834041138766,534.7869184094819 M353.91130306921735,521.0128252277152 L353.96834041138766,534.7869184094819 M400.8060951751299,693.359354773811 L388.47968842777584,685.0196780931205 M388.47968842777584,685.0196780931205 L377.1890371706983,676.2133846578661 M377.1890371706983,676.2133846578661 L366.98710613737717,666.98448096012 M366.98710613737717,666.98448096012 L357.92122477934566,657.3789001124364 M357.92122477934566,657.3789001124364 L350.0328634000785,647.4442200016197 M350.0328634000785,647.4442200016197 L343.3574927103926,637.2294495458315 M343.3574927103926,637.2294495458315 L337.92443504629256,626.784723294615 M337.92443504629256,626.784723294615 L333.75680597167707,616.1610495963962 M333.75680597167707,616.1610495963962 L330.8714282590931,605.410055247646 M330.8714282590931,605.410055247646 L329.27884533923725,594.5837165366048 M329.27884533923725,594.5837165366048 L328.9832983339167,583.7341056287197 M328.9832983339167,583.7341056287197 L329.9827963489048,572.9131328961054 M329.9827963489048,572.9131328961054 L332.2691883748378,562.172296900668 M332.2691883748378,562.172296900668 L335.82826205841803,551.5624468864212 M335.82826205841803,551.5624468864212 L340.6398466273633,541.1335663931916 M340.6398466273633,541.1335663931916 L346.67803809497264,530.9345097167129 M346.67803809497264,530.9345097167129 L353.91130306921735,521.0128252277152 M400.8060951751299,693.359354773811 L400.8374310574342,707.2289099505781 M487.17656972194686,458.389959620652 L504.267014935424,454.3271393005996 M504.267014935424,454.3271393005996 L521.7990104151997,450.9528477138514 M521.7990104151997,450.9528477138514 L539.6913791375617,448.28207417258363 M539.6913791375617,448.28207417258363 L557.8614891763341,446.3266482245573 M557.8614891763341,446.3266482245573 L576.2255316641193,445.0952419642747 M576.2255316641193,445.0952419642747 L594.6989325426728,444.59330167335065 M594.6989325426728,444.59330167335065 L613.1966697065385,444.8230450105524 M613.1966697065385,444.8230450105524 L631.6336133203673,445.7834561096264 M631.6336133203673,445.7834561096264 L649.9248755782555,447.4702904612459 M649.9248755782555,447.4702904612459 L667.9861626366521,449.8760744461156 M667.9861626366521,449.8760744461156 L685.7341112118771,452.9901503141217 M685.7341112118771,452.9901503141217 L703.0866433771333,456.79869297536686 M703.0866433771333,456.79869297536686 L719.9632936219542,461.2847744809428 M719.9632936219542,461.2847744809428 L736.2855261362109,466.42840432043874 M736.2855261362109,466.42840432043874 L751.9771418723352,472.20661198006553 M751.9771418723352,472.20661198006553 L766.9645313203544,478.59351550304393 M766.9645313203544,478.59351550304393 L781.1770460186827,485.560428530948 M550.0449216768895,494.34175384979005 L487.17656972194686,458.389959620652 M416.83653646205806,571.1895800259884 L550.0449216768895,494.34175384979005 M353.96834041138766,534.7869184094819 L416.83653646205806,571.1895800259884 M527.1072092503935,633.6367074026563 L400.8374310574342,707.2289099505781 M657.910099786608,557.4025288687822 L653.0300984547232,551.3914182460537 M653.0300984547232,551.3914182460537 L647.0145714912679,545.7362281756518 M647.0145714912679,545.7362281756518 L639.9415329340128,540.5083668076901 M639.9415329340128,540.5083668076901 L631.902162336337,535.7736878154029 M631.902162336337,535.7736878154029 L622.9995327815689,531.5916781120046 M622.9995327815689,531.5916781120046 L613.3473393262465,528.0147715209188 M613.3473393262465,528.0147715209188 L603.0684178497611,525.0877266914918 M603.0684178497611,525.0877266914918 L592.2932715661364,522.8471177292854 M592.2932715661364,522.8471177292854 L581.1584018493548,521.320892089344 M581.1584018493548,521.320892089344 L569.8046717223566,520.5280840871178 M569.8046717223566,520.5280840871178 L558.375622666095,520.4785665304563 M558.375622666095,520.4785665304563 L547.0156718679027,521.1729615353299 M547.0156718679027,521.1729615353299 L535.8684046302119,522.6026129173807 M535.8684046302119,522.6026129173807 L525.0748423470042,524.7497010866161 M525.0748423470042,524.7497010866161 L514.7717083194333,527.5874424907794 M514.7717083194333,527.5874424907794 L505.0897659070953,531.0803889620295 M505.0897659070953,531.0803889620295 L496.1522063008013,535.1848393454038 M496.1522063008013,535.1848393454038 L488.07312340352246,539.8493501444009 M488.07312340352246,539.8493501444009 L480.9560669599841,545.0153310645626 M480.9560669599841,545.0153310645626 L474.89271769611736,550.6177345542726 M474.89271769611736,550.6177345542726 L469.9616984824538,556.5858351987858 M469.9616984824538,556.5858351987858 L466.2275137485127,562.8440766975692 M466.2275137485127,562.8440766975692 L463.7396507129735,569.3129933891368 M463.7396507129735,569.3129933891368 L462.5318751101228,575.9101852773905 M462.5318751101228,575.9101852773905 L462.621709488062,582.5513592600546 M462.621709488062,582.5513592600546 L464.01007637034553,589.1513917361848 M464.01007637034553,589.1513917361848 L466.681215776301,595.6253963617844 M466.681215776301,595.6253963617844 L470.60274290239374,601.8898631446568 M470.60274290239374,601.8898631446568 L475.7260217789789,607.863738704496 M475.7260217789789,607.863738704496 L481.9866468511423,613.4694854008835 M481.9866468511423,613.4694854008835 L489.30523922076577,618.6341592861891 M489.30523922076577,618.6341592861891 L497.58840206797214,623.2903685198208 M497.58840206797214,623.2903685198208 L506.72991175381117,627.3772250488219 M506.72991175381117,627.3772250488219 L516.612054434383,630.8411581009228 M516.612054434383,630.8411581009228 L527.1072092503935,633.6367074026563 M781.1770460186827,485.560428530948 L657.910099786608,557.4025288687822 M491.0809692971568,635.0380758021403 L443.0794911466067,607.1969402849141 M406.83216851365665,684.0623596794397 L491.0809692971568,635.0380758021403 M443.0794911466067,607.1969402849141 L358.83124461831517,656.0011864087498 M358.83124461831517,656.0011864087498 L406.83216851365665,684.0623596794397 M416.83653646205806,571.1895800259884 L416.81448965893037,557.395110648096 M353.91130306921735,521.0128252277152 L416.81448965893037,557.395110648096 M527.1470320528863,619.8075628936601 L516.6459704597603,617.0135583360344 M516.6459704597603,617.0135583360344 L506.7582665397014,613.5515403397387 M506.7582665397014,613.5515403397387 L497.6116135194335,609.4669446498027 M497.6116135194335,609.4669446498027 L489.32379177008386,604.8133130618356 M489.32379177008386,604.8133130618356 L482.00108470835494,599.6515005998671 M482.00108470835494,599.6515005998671 L475.73694142957413,594.0488624296922 M475.73694142957413,594.0488624296922 L470.6107849515563,588.0783026628056 M470.6107849515563,588.0783026628056 L466.68705628884203,581.8173164343115 M466.68705628884203,581.8173164343115 L464.0144178105097,575.346912514506 M464.0144178105097,575.346912514506 L462.625271447966,568.7505547427097 M462.625271447966,568.7505547427097 L462.5353848963457,562.1130823498218 M462.5353848963457,562.1130823498218 L463.7438339736454,555.5195714889088 M463.7438339736454,555.5195714889088 L466.2330852208378,549.0542680757137 M466.2330852208378,549.0542680757137 L469.9693530116943,542.7995257846067 M469.9693530116943,542.7995257846067 L474.903121611979,536.8347654213052 M474.903121611979,536.8347654213052 L480.9698499028541,531.2355004692148 M480.9698499028541,531.2355004692148 L488.09087069675434,526.072416114354 M488.09087069675434,526.072416114354 L496.17445194475056,521.4105227812312 M496.17445194475056,521.4105227812312 L505.1169862504021,517.3083772173309 M505.1169862504021,517.3083772173309 L514.8043164667746,513.8173933814688 M514.8043164667746,513.8173933814688 L525.1131833549077,510.98124727546065 M525.1131833549077,510.98124727546065 L535.9127515191169,508.83536662290646 M535.9127515191169,508.83536662290646 L547.066222485374,507.4065195043721 M547.066222485374,507.4065195043721 L558.4324974176922,506.71251520452483 M558.4324974176922,506.71251520452483 L569.8679122022606,506.76200489842597 M569.8679122022606,506.76200489842597 L581.2279703646373,507.554366830115 M581.2279703646373,507.554366830115 L592.3690515400656,509.07973390490554 M592.3690515400656,509.07973390490554 L603.150215159447,511.3190828136445 M603.150215159447,511.3190828136445 L613.4348845144929,514.2444822424173 M613.4348845144929,514.2444822424173 L623.0924841259952,517.8193791740706 M623.0924841259952,517.8193791740706 L632.000109806732,521.9990407133923 M632.000109806732,521.9990407133923 L640.0440029434365,526.7310631326299 M640.0440029434365,526.7310631326299 L647.1210324617686,531.9559935653496 M647.1210324617686,531.9559935653496 L653.1399670979565,537.6080159088667 M653.1399670979565,537.6080159088667 L658.0227481174577,543.6157626107398 M781.3574973413346,471.8140803477495 L658.0227481174577,543.6157626107398 M781.3574973413346,471.8140803477495 L767.1369913261029,464.85111172081577 M767.1369913261029,464.85111172081577 L752.1411974455713,458.4678280787065 M752.1411974455713,458.4678280787065 L736.440803191412,452.69289849233564 M736.440803191412,452.69289849233564 L720.1094584375002,447.5521892614971 M720.1094584375002,447.5521892614971 L703.2234037410476,443.0686569562275 M703.2234037410476,443.0686569562275 L685.8612174506892,439.2622799155906 M685.8612174506892,439.2622799155906 L668.103408446111,436.14997575463224 M668.103408446111,436.14997575463224 L650.0320987100155,433.74556110557694 M650.0320987100155,433.74556110557694 L631.7306961222496,432.0596871869004 M631.7306961222496,432.0596871869004 L613.2835395041212,431.0998230321736 M613.2835395041212,431.0998230321736 L594.7755618740201,430.8702105438364 M594.7755618740201,430.8702105438364 L576.2919383608145,431.37186496402444 M576.2919383608145,431.37186496402444 L557.9177362925025,432.60256999640603 M557.9177362925025,432.60256999640603 L539.7375747320101,434.5568827033685 M539.7375747320101,434.5568827033685 L521.8353071986365,437.22613630900616 M521.8353071986365,437.22613630900616 L504.29360972900827,440.59850851138594 M504.29360972900827,440.59850851138594 L487.193702798677,444.6590191613109 M550.097045556477,480.59044027185087 L487.193702798677,444.6590191613109 M416.81448965893037,557.395110648096 L550.097045556477,480.59044027185087 M527.1470320528863,619.8075628936601 L400.8060951751299,693.359354773811 M491.1005446213248,621.2081572014131 L443.07209929401364,593.3824339557028 M406.80427401813154,670.2054727699323 L491.1005446213248,621.2081572014131 M443.07209929401364,593.3824339557028 L358.77638388262255,642.1597093614911 M358.77638388262255,642.1597093614911 L406.80427401813154,670.2054727699323 M527.1470320528863,619.8075628936601 L527.1072092503935,633.6367074026563 M781.3574973413346,471.8140803477495 L781.1770460186827,485.560428530948 M487.193702798677,444.6590191613109 L487.17656972194686,458.389959620652 M550.0449216768895,494.34175384979005 L550.097045556477,480.59044027185087 M658.0227481174577,543.6157626107398 L657.910099786608,557.4025288687822 M443.0794911466067,607.1969402849141 L443.07209929401364,593.3824339557028 M491.0809692971568,635.0380758021403 L491.1005446213248,621.2081572014131 M406.83216851365665,684.0623596794397 L406.80427401813154,670.2054727699323 M358.83124461831517,656.0011864087498 L358.77638388262255,642.1597093614911" stroke="black"  stroke-width="4"  fill="red"/>
<path d="M430.26340043169756,436.65493951547353 L430.2490210619094,422.93637256386376 M316.0866194691424,501.84693920960376 L316.00866829259604,488.0913873602956 M430.26340043169756,436.65493951547353 L316.0866194691424,501.84693920960376 M430.2490210619094,422.93637256386376 L316.00866829259604,488.0913873602956 M433.8044524055974,438.6817131858095 L430.26340043169756,436.65493951547353 M433.7920297374209,424.9619906068607 L430.2490210619094,422.93637256386376 M433.8044524055974,438.6817131858095 L433.7920297374209,424.9619906068607 M316.0866194691424,501.84693920960376 L319.627527502112,503.89540092660343 M319.5515327873711,490.13869317105025 L319.627527502112,503.89540092660343 M316.00866829259604,488.0913873602956 L319.5515327873711,490.13869317105025 M433.8044524055974,438.6817131858095 L319.627527502112,503.89540092660343 M319.5515327873711,490.13869317105025 L433.7920297374209,424.9619906068607" stroke="black"  stroke-width="4"  fill="red"/>
<path d="M379.35770795513747,520.0619122992238 L461.75843977718205,472.80446044359803 M360.4085408955707,509.11593273356607 L379.35770795513747,520.0619122992238 M360.4085408955707,509.11593273356607 L442.8089638732909,461.9423825508295 M442.8089638732909,461.9423825508295 L461.75843977718205,472.80446044359803 M461.75843977718205,472.80446044359803 L462.6153013519007,470.517315999953 M462.6153013519007,470.517315999953 L463.41375968854595,468.22771832713113 M463.41375968854595,468.22771832713113 L464.1526967226769,465.9388303007818 M464.1526967226769,465.9388303007818 L376.9285071741671,515.9401483376188 M376.9285071741671,515.9401483376188 L377.6788376167032,517.3827979071867 M377.6788376167032,517.3827979071867 L378.4889582213223,518.7573487857661 M378.4889582213223,518.7573487857661 L379.35770795513747,520.0619122992238 M360.4085408955707,509.11593273356607 L358.40599084561075,505.8431337820348 M358.40599084561075,505.8431337820348 L356.7550815751705,502.17796385332474 M356.7550815751705,502.17796385332474 L355.4696079511858,498.1501065283959 M355.4696079511858,498.1501065283959 L368.214170123377,505.5071376643639 M368.214170123377,505.5071376643639 L369.0552430362219,508.9128282119025 M369.0552430362219,508.9128282119025 L370.1211072622852,512.0087253237763 M370.1211072622852,512.0087253237763 L376.9285071741671,515.9401483376188 M355.4696079511858,498.1501065283959 L447.6474530016483,445.43827419295997 M447.6474530016483,445.43827419295997 L446.3936839874475,450.8983118844907 M446.3936839874475,450.8983118844907 L444.77645651525955,456.414545014655 M444.77645651525955,456.414545014655 L442.8089638732909,461.9423825508295 M457.34519510298566,462.0393077343431 L464.1526967226769,465.9388303007818 M457.34519510298566,462.0393077343431 L459.0403722320226,457.3771921018989 M459.0403722320226,457.3771921018989 L460.3922637555386,452.7322598548218 M447.6474530016483,445.43827419295997 L460.3922637555386,452.7322598548218 M370.1211072622852,512.0087253237763 L380.0238479464665,503.5021296852768 M380.0238479464665,503.5021296852768 L390.8648262637452,495.3987486790935 M390.8648262637452,495.3987486790935 L402.59603060088625,487.73227597971834 M402.59603060088625,487.73227597971834 L415.1659548360791,480.53447585026527 M415.1659548360791,480.53447585026527 L428.5198110175659,473.83505423734937 M428.5198110175659,473.83505423734937 L442.5997612703489,467.6615610221015 M442.5997612703489,467.6615610221015 L457.34519510298566,462.0393077343431 M368.214170123377,505.5071376643639 L378.51396548457114,496.4442591320727 M378.51396548457114,496.4442591320727 L389.87081184791737,487.82657915285426 M389.87081184791737,487.82657915285426 L402.22840819082165,479.69420618188076 M402.22840819082165,479.69420618188076 L415.5260402541314,472.08482457133766 M415.5260402541314,472.08482457133766 L429.6988844181454,465.0335578210529 M429.6988844181454,465.0335578210529 L444.6783253572281,458.5728331096087 M444.6783253572281,458.5728331096087 L460.3922637555386,452.7322598548218" stroke="black"  stroke-width="4"  fill="red"/>
<path d="M529.0621204829065,327.27000934016064 L443.18356815157387,278.780629192716 M443.2470686256806,399.9952522226024 L443.18356815157387,278.780629192716 M443.2470686256806,399.9952522226024 L273.2911787145848,189.04429285078538 M338.312796187765,91.18517603932605 L273.2911787145848,189.04429285078538 M529.0621204829065,327.27000934016064 L338.312796187765,91.18517603932605 M309.1413894357317,354.37196682530714 L395.0180689822581,403.4723364473439 M334.3242101257772,340.17044369610085 L309.1413894357317,354.37196682530714 M334.3242101257772,340.17044369610085 L347.1296961250142,343.3387527361977 M347.1296961250142,343.3387527361977 L359.5601207443551,345.71767433222396 M359.5601207443551,345.71767433222396 L370.7354284198388,347.2032453631318 M370.7354284198388,347.2032453631318 L380.9391137767511,347.93392346281735 M380.9391137767511,347.93392346281735 L390.1264291724598,347.97813209409185 M390.1264291724598,347.97813209409185 L398.2951105494242,347.4083553533146 M398.2951105494242,347.4083553533146 L405.4758250796105,346.29292352150634 M405.4758250796105,346.29292352150634 L411.7201161245117,344.68872963945546 M411.7201161245117,344.68872963945546 L416.05919441011923,343.09024819159407 M416.05919441011923,343.09024819159407 L419.9109973065237,341.1957864592899 M419.9109973065237,341.1957864592899 L424.3742694808261,338.1278416234456 M424.3742694808261,338.1278416234456 L427.840311964337,334.5489217772547 M427.840311964337,334.5489217772547 L430.3278814779462,330.37905494300196 M430.3278814779462,330.37905494300196 L431.7311761765915,325.6036271286523 M431.7311761765915,325.6036271286523 L431.9306168601283,320.19118102023515 M431.9306168601283,320.19118102023515 L430.7810270029879,314.12752361531267 M430.7810270029879,314.12752361531267 L428.1309878403826,307.4253367971646 M428.1309878403826,307.4253367971646 L423.9202561116158,300.2435873635993 M423.9202561116158,300.2435873635993 L418.2553264882666,292.83858580167674 M443.18356815157387,278.780629192716 L418.2553264882666,292.83858580167674 M395.0180689822581,403.4723364473439 L529.0621204829065,327.27000934016064 M309.860347167266,475.9732173834972 L309.1413894357317,354.37196682530714 M334.3242101257772,340.17044369610085 L331.1011166363285,349.9856735537758 M331.1011166363285,349.9856735537758 L328.72081786984126,359.8414168422862 M328.72081786984126,359.8414168422862 L327.2131638411008,369.6833488316954 M327.2131638411008,369.6833488316954 L326.64393678576613,379.2254023665614 M326.64393678576613,379.2254023665614 L326.7182264507876,383.8188974037811 M326.7182264507876,383.8188974037811 L327.03205139821205,388.25929251159107 M327.03205139821205,388.25929251159107 L328.1932151751141,395.79241964234984 M328.1932151751141,395.79241964234984 L330.09780020041825,402.6269389692362 M330.09780020041825,402.6269389692362 L332.70409680883427,408.65391498259936 M332.70409680883427,408.65391498259936 L335.95635276916295,413.78588650736526 M335.95635276916295,413.78588650736526 L339.7878638246754,417.95822207396645 M339.7878638246754,417.95822207396645 L344.1243927870113,421.12879375963837 M344.1243927870113,421.12879375963837 L348.8876438052379,423.2763078105621 M348.8876438052379,423.2763078105621 L353.9983275695535,424.3974326552825 M353.9983275695535,424.3974326552825 L359.37862070364434,424.50337741008934 M359.37862070364434,424.50337741008934 L364.95372537422134,423.61623417810404 M364.95372537422134,423.61623417810404 L370.6525385239857,421.7656852760804 M370.6525385239857,421.7656852760804 L376.4074103327332,418.9865302934877 M376.4074103327332,418.9865302934877 L382.78814980461993,414.8564364926515 M382.78814980461993,414.8564364926515 L389.06898418550185,409.686014137015 M389.06898418550185,409.686014137015 L395.1613843975376,403.5402589832995 M395.1613843975376,403.5402589832995 L400.9740534053702,396.4941867272994 M400.9740534053702,396.4941867272994 L406.4119220984955,388.637010065227 M406.4119220984955,388.637010065227 L411.3765887206937,380.07618629197657 M411.3765887206937,380.07618629197657 L415.7683962462576,370.9405731950652 M415.7683962462576,370.9405731950652 L419.48998366360917,361.3817561694882 M419.48998366360917,361.3817561694882 L422.4510110266997,351.5730619902876 M422.4510110266997,351.5730619902876 L424.5735306218318,341.70596907305867 M424.5735306218318,341.70596907305867 L425.7972632366435,331.9841128399347 M425.7972632366435,331.9841128399347 L426.0842013530883,322.61533933206147 M426.0842013530883,322.61533933206147 L425.53060094794625,314.6535463572284 M425.53060094794625,314.6535463572284 L424.2174016326705,307.2812850029791 M424.2174016326705,307.2812850029791 L422.1715917855289,300.6222489349251 M422.1715917855289,300.6222489349251 L420.37103230141076,296.53173708997247 M420.37103230141076,296.53173708997247 L418.2553264882666,292.83858580167674 M309.860347167266,475.9732173834972 L443.2470686256806,399.9952522226024 M309.860347167266,475.9732173834972 L139.29919837346716,263.45395426748894 M273.2911787145848,189.04429285078538 L139.29919837346716,263.45395426748894 M203.58094027580879,165.6185755074083 L338.312796187765,91.18517603932605 M139.29919837346716,263.45395426748894 L203.58094027580879,165.6185755074083 M262.78122180953005,140.96205562976297 L269.68197888543625,137.36872903386381 M269.68197888543625,137.36872903386381 L275.9926923728237,134.54048015504327 M275.9926923728237,134.54048015504327 L281.6006067603745,132.5272465981189 M281.6006067603745,132.5272465981189 L286.4059892031202,131.3640581899594 M286.4059892031202,131.3640581899594 L290.32381850600586,131.07047849252842 M290.32381850600586,131.07047849252842 L293.285387589082,131.6504301789215 M293.285387589082,131.6504301789215 L295.23930559782934,133.0921256134398 M295.23930559782934,133.0921256134398 L296.15237518644153,135.36839172012725 M296.15237518644153,135.36839172012725 L296.01004776666605,138.43725352748572 M296.01004776666605,138.43725352748572 L294.8166085490272,142.24288805596456 M294.8166085490272,142.24288805596456 L292.5948796814647,146.71649937398632 M292.5948796814647,146.71649937398632 L289.3857993035871,151.77781473744244 M289.3857993035871,151.77781473744244 L285.2475470775746,157.3363539417648 M285.2475470775746,157.3363539417648 L280.2544547975749,163.29322608258315 M280.2544547975749,163.29322608258315 L274.4956794442322,169.54276350839638 M274.4956794442322,169.54276350839638 L268.0735120113894,175.9743788431397 M268.0735120113894,175.9743788431397 L261.1017432678261,182.4745094766043 M261.1017432678261,182.4745094766043 L253.70352094019745,188.9285447755257 M253.70352094019745,188.9285447755257 L246.0093507583492,195.22271333288126 M246.0093507583492,195.22271333288126 L238.15487341354842,201.24612570691545 M238.15487341354842,201.24612570691545 L230.27847945446678,206.89257604971144 M230.27847945446678,206.89257604971144 L222.519066422742,212.06234339282358 M222.519066422742,212.06234339282358 L215.01358820563246,216.6639369632855 M215.01358820563246,216.6639369632855 L207.89478281518592,220.61565521468626 M207.89478281518592,220.61565521468626 L201.28885322932177,223.84701399181787 M201.28885322932177,223.84701399181787 L195.31327919343653,226.29999873042274 M195.31327919343653,226.29999873042274 L190.07477494069815,227.93012971998624 M190.07477494069815,227.93012971998624 L185.66732764563298,228.7073176352755 M185.66732764563298,228.7073176352755 L182.17056174634945,228.6164382846831 M182.17056174634945,228.6164382846831 L179.64815677487476,227.65768959705204 M179.64815677487476,227.65768959705204 L178.1466975365135,225.84676855741162 M178.1466975365135,225.84676855741162 L177.69474292244212,223.21457423635297 M177.69474292244212,223.21457423635297 L178.30206014774103,219.80682968245208 M178.30206014774103,219.80682968245208 L179.95952664196682,215.68335451606285 M179.95952664196682,215.68335451606285 L182.63898169564197,210.9170483578926 M182.63898169564197,210.9170483578926 L186.2937604665837,205.59260309048614 M186.2937604665837,205.59260309048614 L190.85938209310493,199.80514347827017 M190.85938209310493,199.80514347827017 L196.25465520814097,193.6583384983491 M196.25465520814097,193.6583384983491 L202.38311864186787,187.2627408800663 M202.38311864186787,187.2627408800663 L209.13475089195265,180.73350667226373 M209.13475089195265,180.73350667226373 L216.38801531626393,174.18849781421252 M216.38801531626393,174.18849781421252 L224.01207090659028,167.7459637610922 M224.01207090659028,167.7459637610922 L231.86924739848706,161.52231924776527 M231.86924739848706,161.52231924776527 L239.81751994983813,155.629969403122 M239.81751994983813,155.629969403122 L247.7133478692432,150.17528090857041 M247.7133478692432,150.17528090857041 L255.41418156850187,145.25652862836287 M255.41418156850187,145.25652862836287 L262.78122180953005,140.96205562976297 M395.0180689822581,403.4723364473439 L203.58094027580879,165.6185755074083 M419.9109973065237,341.1957864592899 L411.33412481224457,330.26610681863326 M411.33412481224457,330.26610681863326 L402.75996826661367,319.3398637636236 M402.75996826661367,319.3398637636236 L394.18851737573414,308.4170929841414 M394.18851737573414,308.4170929841414 L385.6197799037063,297.4977767574804 M385.6197799037063,297.4977767574804 L377.05375002172724,286.58191086782097 M377.05375002172724,286.58191086782097 L368.49041730249763,275.6694672707269 M368.49041730249763,275.6694672707269 L359.9297987498256,264.7604971502601 M359.9297987498256,264.7604971502601 L351.3718839402369,253.85497246452795 M351.3718839402369,253.85497246452795 L342.8166625388874,242.9528864604122 M342.8166625388874,242.9528864604122 L334.2641512753403,232.05422645898528 M334.2641512753403,232.05422645898528 L325.7143400118235,221.15902828895412 M325.7143400118235,221.15902828895412 L317.1672273734303,210.2672690317366 M317.1672273734303,210.2672690317366 L308.62280304881597,199.37894196011047 M308.62280304881597,199.37894196011047 L300.08109273000906,188.49403942593463 M300.08109273000906,188.49403942593463 L291.5420592743793,177.61258204947632 M291.5420592743793,177.61258204947632 L283.0057193489347,166.73455709122473 M283.0057193489347,166.73455709122473 L274.4720897067128,155.8599730825395 M274.4720897067128,155.8599730825395 L265.9411328476865,144.98878673667645 M265.9411328476865,144.98878673667645 L262.78122180953005,140.96205562976297" stroke="black"  stroke-width="4"  fill="red"/>
<path d="M550.0449216768895,494.34175384979005 L550.6320374117685,339.44897455696 M443.2645046453623,433.2784769951596 L443.18356815157387,278.780629192716 M550.0449216768895,494.34175384979005 L443.2645046453623,433.2784769951596 M550.6320374117685,339.44897455696 L443.18356815157387,278.780629192716 M416.83653646205806,571.1895800259884 L416.5881956368519,415.80515132942014 M416.83653646205806,571.1895800259884 L550.0449216768895,494.34175384979005 M416.5881956368519,415.80515132942014 L550.6320374117685,339.44897455696 M443.2645046453623,433.2784769951596 L310.0577515956944,509.36130726659314 M310.0577515956944,509.36130726659314 L309.1413894357317,354.37196682530714 M334.3242101257772,340.17044369610085 L309.1413894357317,354.37196682530714 M334.3242101257772,340.17044369610085 L331.1011166363285,349.9856735537758 M331.1011166363285,349.9856735537758 L328.72081786984126,359.8414168422862 M328.72081786984126,359.8414168422862 L327.2131638411008,369.6833488316954 M327.2131638411008,369.6833488316954 L326.64393678576613,379.2254023665614 M326.64393678576613,379.2254023665614 L326.7182264507876,383.8188974037811 M326.7182264507876,383.8188974037811 L327.03205139821205,388.25929251159107 M327.03205139821205,388.25929251159107 L328.1932151751141,395.79241964234984 M328.1932151751141,395.79241964234984 L330.09780020041825,402.6269389692362 M330.09780020041825,402.6269389692362 L332.70409680883427,408.65391498259936 M332.70409680883427,408.65391498259936 L335.95635276916295,413.78588650736526 M335.95635276916295,413.78588650736526 L339.7878638246754,417.95822207396645 M339.7878638246754,417.95822207396645 L344.1243927870113,421.12879375963837 M344.1243927870113,421.12879375963837 L348.8876438052379,423.2763078105621 M348.8876438052379,423.2763078105621 L353.9983275695535,424.3974326552825 M353.9983275695535,424.3974326552825 L359.37862070364434,424.50337741008934 M359.37862070364434,424.50337741008934 L364.95372537422134,423.61623417810404 M364.95372537422134,423.61623417810404 L370.6525385239857,421.7656852760804 M370.6525385239857,421.7656852760804 L376.4074103327332,418.9865302934877 M376.4074103327332,418.9865302934877 L382.78814980461993,414.8564364926515 M382.78814980461993,414.8564364926515 L389.06898418550185,409.686014137015 M389.06898418550185,409.686014137015 L395.1613843975376,403.5402589832995 M395.1613843975376,403.5402589832995 L400.9740534053702,396.4941867272994 M400.9740534053702,396.4941867272994 L406.4119220984955,388.637010065227 M406.4119220984955,388.637010065227 L411.3765887206937,380.07618629197657 M411.3765887206937,380.07618629197657 L415.7683962462576,370.9405731950652 M415.7683962462576,370.9405731950652 L419.48998366360917,361.3817561694882 M419.48998366360917,361.3817561694882 L422.4510110266997,351.5730619902876 M422.4510110266997,351.5730619902876 L424.5735306218318,341.70596907305867 M424.5735306218318,341.70596907305867 L425.7972632366435,331.9841128399347 M425.7972632366435,331.9841128399347 L426.0842013530883,322.61533933206147 M426.0842013530883,322.61533933206147 L425.53060094794625,314.6535463572284 M425.53060094794625,314.6535463572284 L424.2174016326705,307.2812850029791 M424.2174016326705,307.2812850029791 L422.1715917855289,300.6222489349251 M422.1715917855289,300.6222489349251 L420.37103230141076,296.53173708997247 M420.37103230141076,296.53173708997247 L418.2553264882666,292.83858580167674 M443.18356815157387,278.780629192716 L418.2553264882666,292.83858580167674 M310.0577515956944,509.36130726659314 L416.83653646205806,571.1895800259884 M360.4085408955707,509.11593273356607 L431.6423802859579,550.2641345463136 M431.6423802859579,550.2641345463136 L514.0432924049971,502.7747954932672 M442.8089638732909,461.9423825508295 L514.0432924049971,502.7747954932672 M360.4085408955707,509.11593273356607 L442.8089638732909,461.9423825508295 M309.1413894357317,354.37196682530714 L416.5881956368519,415.80515132942014 M334.3242101257772,340.17044369610085 L347.1296961250142,343.3387527361977 M347.1296961250142,343.3387527361977 L359.5601207443551,345.71767433222396 M359.5601207443551,345.71767433222396 L370.7354284198388,347.2032453631318 M370.7354284198388,347.2032453631318 L380.9391137767511,347.93392346281735 M380.9391137767511,347.93392346281735 L390.1264291724598,347.97813209409185 M390.1264291724598,347.97813209409185 L398.2951105494242,347.4083553533146 M398.2951105494242,347.4083553533146 L405.4758250796105,346.29292352150634 M405.4758250796105,346.29292352150634 L411.7201161245117,344.68872963945546 M411.7201161245117,344.68872963945546 L416.05919441011923,343.09024819159407 M416.05919441011923,343.09024819159407 L419.9109973065237,341.1957864592899 M419.9109973065237,341.1957864592899 L424.3742694808261,338.1278416234456 M424.3742694808261,338.1278416234456 L427.840311964337,334.5489217772547 M427.840311964337,334.5489217772547 L430.3278814779462,330.37905494300196 M430.3278814779462,330.37905494300196 L431.7311761765915,325.6036271286523 M431.7311761765915,325.6036271286523 L431.9306168601283,320.19118102023515 M431.9306168601283,320.19118102023515 L430.7810270029879,314.12752361531267 M430.7810270029879,314.12752361531267 L428.1309878403826,307.4253367971646 M428.1309878403826,307.4253367971646 L423.9202561116158,300.2435873635993 M423.9202561116158,300.2435873635993 L418.2553264882666,292.83858580167674 M477.78731491954284,414.94878035482395 L469.5743477167611,404.48282465850855 M469.5743477167611,404.48282465850855 L461.36386297995915,394.02003322431005 M461.36386297995915,394.02003322431005 L453.15586129451,383.56040559221856 M453.15586129451,383.56040559221856 L444.95034096893335,373.10395061194026 M444.95034096893335,373.10395061194026 L436.74730029434954,362.6506346979371 M436.74730029434954,362.6506346979371 L428.5467410189384,352.20050047897394 M428.5467410189384,352.20050047897394 L420.3486574249989,341.7535014793639 M420.3486574249989,341.7535014793639 L419.9109973065237,341.1957864592899 M498.63111841460784,425.9066183054872 L502.2206830415503,420.98077272887565 M502.2206830415503,420.98077272887565 L504.87093741734714,416.60291588923224 M504.87093741734714,416.60291588923224 L506.52910788063053,412.85885690136956 M506.52910788063053,412.85885690136956 L507.16148994979864,409.82236740437713 M507.16148994979864,409.82236740437713 L506.75420181760865,407.5536845826343 M506.75420181760865,407.5536845826343 L505.3135612608499,406.09829885807125 M505.3135612608499,406.09829885807125 L502.86610413895886,405.4859405752311 M502.86610413895886,405.4859405752311 L499.4581834234669,405.72989029917017 M499.4581834234669,405.72989029917017 L495.15517677647574,406.8266737269505 M495.15517677647574,406.8266737269505 L490.0403048902999,408.7559436197862 M490.0403048902999,408.7559436197862 L484.21306278430495,411.48088588133805 M484.21306278430495,411.48088588133805 L477.78731491954284,414.94878035482395 M498.63111841460784,425.9066183054872 L496.3763135912901,424.2194120970569 M495.726119682435,429.4766696037576 L496.3763135912901,424.2194120970569 M489.03524373698883,436.902605751994 L491.4071569328188,434.3693778146305 M491.4071569328188,434.3693778146305 L493.6402158871441,431.8910106852891 M493.6402158871441,431.8910106852891 L495.726119682435,429.4766696037576 M489.03524373698883,436.902605751994 L467.4815052825502,421.6517843693954 M467.4815052825502,421.6517843693954 L453.66847065387924,412.28375286845574 M453.66847065387924,412.28375286845574 L439.54415775543293,403.0982209686063 M401.6074719357509,448.9713628254061 L407.9418605919387,444.80485043889314 M407.9418605919387,444.80485043889314 L414.1643655727256,439.6100917634593 M414.1643655727256,439.6100917634593 L420.2032662188693,433.43855371764596 M420.2032662188693,433.43855371764596 L425.95775742338617,426.37315559581475 M425.95775742338617,426.37315559581475 L431.33194648540035,418.5049116550467 M431.33194648540035,418.5049116550467 L435.67398650892954,410.99204732218914 M435.67398650892954,410.99204732218914 L439.54415775543293,403.0982209686063 M363.42874622832716,446.45760283475215 L367.513332657786,450.0482245568985 M367.513332657786,450.0482245568985 L372.10154370840365,452.6404415933681 M372.10154370840365,452.6404415933681 L377.03443034287073,454.1789236312816 M377.03443034287073,454.1789236312816 L382.27038555806166,454.6959820132845 M382.27038555806166,454.6959820132845 L387.7327846912795,454.209795716542 M387.7327846912795,454.209795716542 L393.3485572142959,452.74756663059804 M393.3485572142959,452.74756663059804 L397.4645841350396,451.1012285695999 M397.4645841350396,451.1012285695999 L401.6074719357509,448.9713628254061 M363.42874622832716,446.45760283475215 L375.31093858590333,460.44643706187105 M375.31093858590333,460.44643706187105 L387.74311350824837,474.13121734044967 M387.74311350824837,474.13121734044967 L400.6630779040469,487.5008271831704 M402.28642309398475,482.96060182696885 L401.5491165041906,484.6082872536949 M401.5491165041906,484.6082872536949 L401.0073676643981,486.12355317548815 M401.0073676643981,486.12355317548815 L400.6630779040469,487.5008271831704 M401.62764357584115,478.4308901930872 L402.28642309398475,482.96060182696885 M401.62764357584115,478.4308901930872 L403.79694247628,480.18025666924234 M477.78731491954284,414.94878035482395 L470.8890638147277,419.0920602457153 M470.8890638147277,419.0920602457153 L463.6539441556843,423.8295818611897 M463.6539441556843,423.8295818611897 L456.2245101787561,429.068262451966 M456.2245101787561,429.068262451966 L448.74734666818006,434.7048783599298 M448.74734666818006,434.7048783599298 L441.37008113546716,440.62824376550736 M441.37008113546716,440.62824376550736 L434.2383871070571,446.72137333404623 M434.2383871070571,446.72137333404623 L427.4930055619419,452.8639577208419 M427.4930055619419,452.8639577208419 L421.26687411279465,458.93476326591565 M421.26687411279465,458.93476326591565 L415.68244452489995,464.81410663433246 M415.68244452489995,464.81410663433246 L410.8492214385226,470.3863067194785 M410.8492214385226,470.3863067194785 L406.8615860988241,475.5419839487489 M406.8615860988241,475.5419839487489 L403.79694247628,480.18025666924234 M360.4085408955707,509.11593273356607 L357.63528904937664,504.2769095839343 M357.63528904937664,504.2769095839343 L355.6040527944364,498.65107639207315 M355.6040527944364,498.65107639207315 L354.35011334549444,492.33301233800466 M354.35011334549444,492.33301233800466 L353.89555062091426,485.4293365233741 M353.89555062091426,485.4293365233741 L354.24883861632554,478.056860635593 M354.24883861632554,478.056860635593 L355.40461069442284,470.34064232540175 M355.40461069442284,470.34064232540175 L357.34374538921156,462.4118152095067 M357.34374538921156,462.4118152095067 L360.0336398526848,454.4053399717094 M360.0336398526848,454.4053399717094 L363.42874622832716,446.45760283475215 M408.50118025069526,479.40333802272926 L404.47170363405996,483.4766026271433 M404.47170363405996,483.4766026271433 L400.6630779040469,487.5008271831704 M402.87259734890085,497.94928833514246 L404.2991936327754,491.8146252032783 M404.2991936327754,491.8146252032783 L406.18175346808465,485.61150055499263 M406.18175346808465,485.61150055499263 L408.50118025069526,479.40333802272926 M402.87259734890085,497.94928833514246 L426.7099416117725,511.6790095383102 M431.6423802859579,550.2641345463136 L428.89977891483477,545.4517769970926 M428.89977891483477,545.4517769970926 L426.8924478506296,539.8567421083661 M426.8924478506296,539.8567421083661 L425.65490668683964,533.572144247565 M425.65490668683964,533.572144247565 L425.20874011146105,526.702934299922 M425.20874011146105,526.702934299922 L425.5621872560626,519.3641531057111 M425.5621872560626,519.3641531057111 L426.7099416117725,511.6790095383102 M518.9910988387167,458.67410901262815 L520.1194381435486,465.0208593100641 M520.1194381435486,465.0208593100641 L520.4601940914374,471.9289175427426 M520.4601940914374,471.9289175427426 L520.008420427071,479.28307180036245 M520.008420427071,479.28307180036245 L518.7722452376357,486.96095824473844 M518.7722452376357,486.96095824473844 L516.7726874263849,494.83506487781176 M516.7726874263849,494.83506487781176 L514.0432924049971,502.7747954932672 M451.4525628473395,434.1469677556314 L445.8717493645514,441.1747367314447 M445.8717493645514,441.1747367314447 L440.78913326122756,448.7586922264453 M440.78913326122756,448.7586922264453 L436.29901756353274,456.7583273695509 M436.29901756353274,456.7583273695509 L432.48462254954,465.02532096025175 M432.48462254954,465.02532096025175 L429.4165231232771,473.4063836322538 M429.4165231232771,473.4063836322538 L427.1512785795491,481.7461923611894 M427.1512785795491,481.7461923611894 L425.7304160498566,489.89033386926496 M425.7304160498566,489.89033386926496 L425.1796594137662,497.68822504674756 M425.1796594137662,497.68822504674756 L425.50846930597834,504.99596360161297 M425.50846930597834,504.99596360161297 L426.7099416117725,511.6790095383102 M451.4525628473395,434.1469677556314 L494.48983807221873,409.5544849593541 M518.9910988387167,458.67410901262815 L520.1919814112117,450.6438038649393 M520.1919814112117,450.6438038649393 L520.5279257192853,442.98786455888694 M520.5279257192853,442.98786455888694 L519.9920654654669,435.8463059270284 M519.9920654654669,435.8463059270284 L518.5933300235818,429.3500706964094 M518.5933300235818,429.3500706964094 L516.3563701118679,423.6186254579276 M516.3563701118679,423.6186254579276 L513.3211654210123,418.75776202547115 M513.3211654210123,418.75776202547115 L509.5423565895878,414.85763988062365 M509.5423565895878,414.85763988062365 L505.0883596174535,411.9910356324183 M505.0883596174535,411.9910356324183 L500.0401460024243,410.2119522040846 M500.0401460024243,410.2119522040846 L494.48983807221873,409.5544849593541 M439.54415775543293,403.0982209686063 L442.9404955978046,407.1539674222695 M442.9404955978046,407.1539674222695 L445.6373202985235,412.0637529245373 M445.6373202985235,412.0637529245373 L447.5900482608127,417.74401347672267 M447.5900482608127,417.74401347672267 L448.76666774836104,424.09842049344184 M448.76666774836104,424.09842049344184 L449.1482109058304,431.0195890396807 M449.1482109058304,431.0195890396807 L448.7289916112654,438.3908999948861 M448.7289916112654,438.3908999948861 L447.5166867495315,446.08843143110596 M447.5166867495315,446.08843143110596 L445.53212966456726,453.9830153709145 M445.53212966456726,453.9830153709145 L442.8089638732909,461.9423825508295 M495.1537995872634,445.0624656239863 L518.9910988387167,458.67410901262815 M489.56188037565755,433.0050175043659 L491.8660872526126,436.5471384438533 M491.8660872526126,436.5471384438533 L493.7362289020619,440.58000507409406 M493.7362289020619,440.58000507409406 L495.1537995872634,445.0624656239863 M489.03524373698883,436.902605751994 L489.49707640339363,434.80193191275055 M489.49707640339363,434.80193191275055 L489.56188037565755,433.0050175043659 M498.63111841460784,425.9066183054872 L501.0643757095886,421.53972261729984 M501.0643757095886,421.53972261729984 L502.6495341531736,417.74437037547887 M502.6495341531736,417.74437037547887 L503.3578033995658,414.6029981304888 M503.3578033995658,414.6029981304888 L503.1947953748851,412.1500926620673 M503.1947953748851,412.1500926620673 L502.17957362442456,410.41431124455903 M502.17957362442456,410.41431124455903 L500.3474777436252,409.40825194733543 M500.3474777436252,409.40825194733543 L497.78179870980534,409.12921622911995 M497.78179870980534,409.12921622911995 L494.48983807221873,409.5544849593541 M451.4525628473395,434.1469677556314 L444.0650174161211,439.9995733051585 M444.0650174161211,439.9995733051585 L436.75504493603125,446.1609253853816 M436.75504493603125,446.1609253853816 L429.5248111293748,452.6396578224957 M429.5248111293748,452.6396578224957 L422.5833330675005,459.265047007695 M422.5833330675005,459.265047007695 L416.0791384930751,465.90697382312544 M416.0791384930751,465.90697382312544 L410.1601690081983,472.42557537835137 M410.1601690081983,472.42557537835137 L406.81646339344945,476.3782951598066 M406.81646339344945,476.3782951598066 L403.79694247628,480.18025666924234 M495.1537995872634,445.0624656239863 L496.27127818305047,437.78512795440815 M496.27127818305047,437.78512795440815 L496.680998827729,430.8025723572048 M496.680998827729,430.8025723572048 L496.3763135912901,424.2194120970569 M489.56188037565755,433.0050175043659 L495.726119682435,429.4766696037576 M402.28642309398475,482.96060182696885 L408.50118025069526,479.40333802272926 M401.62764357584115,478.4308901930872 L401.32416202741746,485.3922262279292 M401.32416202741746,485.3922262279292 L401.7414572041653,491.93123574279025 M401.7414572041653,491.93123574279025 L402.87259734890085,497.94928833514246" stroke="black"  stroke-width="4"  fill="red"/>
<path d="M176.25224540128846,533.5768974210797 L176.78387797092296,580.4801014571693 M16.521011639641927,540.6028352671811 L33.60005192841652,537.0047044035551 M33.60005192841652,537.0047044035551 L51.037105738526066,534.0917301642535 M51.037105738526066,534.0917301642535 L68.75164756924005,531.8768683829126 M68.75164756924005,531.8768683829126 L86.66190611184845,530.3699374968096 M86.66190611184845,530.3699374968096 L104.68538106275076,529.5776149753262 M104.68538106275076,529.5776149753262 L122.73910188430415,529.5034072744729 M122.73910188430415,529.5034072744729 L140.73995632629197,530.1476561873587 M140.73995632629197,530.1476561873587 L158.60511083439738,531.5074869061011 M158.60511083439738,531.5074869061011 L176.25224540128846,533.5768974210797 M16.521011639641927,540.6028352671811 L17.356392677311817,587.5194002829024 M176.78387797092296,580.4801014571693 L159.17015427720878,578.4067527094044 M159.17015427720878,578.4067527094044 L141.3388476585493,577.0443334174927 M141.3388476585493,577.0443334174927 L123.37212790075739,576.3988579132177 M123.37212790075739,576.3988579132177 L105.35267739923177,576.4732069053247 M105.35267739923177,576.4732069053247 L87.36345661472757,577.267037900606 M87.36345661472757,577.267037900606 L69.4872843297087,578.7768372419714 M69.4872843297087,578.7768372419714 L51.80650961557711,580.9959137575104 M51.80650961557711,580.9959137575104 L34.40275343354199,583.9144288851297 M34.40275343354199,583.9144288851297 L17.356392677311817,587.5194002829024 M176.78387797092296,580.4801014571693 L189.62758799072768,609.6270987854518 M189.11918930267856,562.668671100547 L189.62758799072768,609.6270987854518 M176.25224540128846,533.5768974210797 L189.11918930267856,562.668671100547 M129.12014829943104,586.722673769351 L16.521011639641927,540.6028352671811 M129.12014829943104,586.722673769351 L135.73965212731753,581.8895722585285 M135.73965212731753,581.8895722585285 L143.14288789957817,577.4578632608576 M143.14288789957817,577.4578632608576 L151.2562725033336,573.4706701624619 M151.2562725033336,573.4706701624619 L159.9994017175301,569.9667334521174 M159.9994017175301,569.9667334521174 L169.2859354399742,566.9800364691151 M169.2859354399742,566.9800364691151 L179.02444354510385,564.5394794014078 M179.02444354510385,564.5394794014078 L189.11918930267856,562.668671100547 M129.74394338260743,633.7265646582795 L17.356392677311817,587.5194002829024 M129.12014829943104,586.722673769351 L129.74394338260743,633.7265646582795 M189.62758799072768,609.6270987854518 L179.55213358066368,611.5014494129291 M179.55213358066368,611.5014494129291 L169.83226962573409,613.946625986352 M169.83226962573409,613.946625986352 L160.5635516332896,616.9389737092175 M160.5635516332896,616.9389737092175 L151.83723593545704,620.4495362483136 M151.83723593545704,620.4495362483136 L143.73949769290363,624.4442643837291 M143.73949769290363,624.4442643837291 L136.3505866093658,628.8843427059076 M136.3505866093658,628.8843427059076 L129.74394338260743,633.7265646582795" stroke="black"  stroke-width="4"  fill="red"/></svg>