<svg viewBox="0 0 800 800" xmlns="http://www.w3.org/2000/svg"><path d="M451.0830248684293,614.5971996522385 L451.0624665760893,621.0782171435326 M451.0830248684293,614.5971996522385 L456.672868620152,613.9242008946005 M456.672868620152,613.9242008946005 L462.3827206612106,614.0421434803932 M462.3827206612106,614.0421434803932 L467.88724204396055,614.9443389047134 M467.88724204396055,614.9443389047134 L472.8726748950778,616.5794968953444 M472.8726748950778,616.5794968953444 L477.05463114912357,618.8546454347883 M477.05463114912357,618.8546454347883 L480.1942358563766,621.6403189787738 M480.1942358563766,621.6403189787738 L482.1117200253834,624.7778262981102 M482.1117200253834,624.7778262981102 L482.69681941100305,628.0882332574924 M482.69681941100305,628.0882332574924 L481.9152248012505,631.382489701591 M481.9152248012505,631.382489701591 L479.8107046541501,634.4722255951527 M479.8107046541501,634.4722255951527 L476.5028400124662,637.1805197627557 M476.5028400124662,637.1805197627557 L472.18033018039046,639.3521183536662 M472.18033018039046,639.3521183536662 L467.09031406439425,640.8624400455682 M467.09031406439425,640.8624400455682 L461.52417173865445,641.6247485716491 M461.52417173865445,641.6247485716491 L455.80071176276664,641.5952348955606 M455.80071176276664,641.5952348955606 L450.24791274760037,640.7756198145689 M450.24791274760037,640.7756198145689 L445.1838370316597,639.2129569666423 M445.1838370316597,639.2129569666423 L440.8983572513794,636.9970098547353 M440.8983572513794,636.9970098547353 L440.88005823073644,643.4829457874204 M440.88005823073644,643.4829457874204 L445.1645711471667,645.6993786256261 M445.1645711471667,645.6993786256261 L450.2275054352947,647.2623839116917 M450.2275054352947,647.2623839116917 L455.7790539109371,648.0821785710509 M455.7790539109371,648.0821785710509 L461.5012260468965,648.1116987132251 M461.5012260468965,648.1116987132251 L467.0661172362478,647.3492231660586 M467.0661172362478,647.3492231660586 L472.154990763049,645.838570511191 M472.154990763049,645.838570511191 L476.4765320806541,643.6664959257893 M476.4765320806541,643.6664959257893 L479.78365768618494,640.957607921282 M479.78365768618494,640.957607921282 L481.887710365565,637.8671942775369 M481.887710365565,637.8671942775369 L482.66913548654384,634.5722148964851 M482.66913548654384,634.5722148964851 L482.0841738780141,631.2610811189247 M482.0841738780141,631.2610811189247 L480.1671264820999,628.1228846307262 M480.1671264820999,628.1228846307262 L477.0282322713856,625.3365989456203 M477.0282322713856,625.3365989456203 L472.8472194752434,623.060950273539 M472.8472194752434,623.060950273539 L467.86290916745156,621.425432737128 M467.86290916745156,621.425432737128 L462.3596254859455,620.5230388988053 M462.3596254859455,620.5230388988053 L456.65105592974675,620.4050703728087 M456.65105592974675,620.4050703728087 L451.0624665760893,621.0782171435326 M451.0624665760893,621.0782171435326 L433.74067011008015,618.3816752659412 M433.7573341996962,611.901250780606 L433.74067011008015,618.3816752659412 M451.0830248684293,614.5971996522385 L433.7573341996962,611.901250780606 M411.3913362246438,632.3980419104813 L440.8983572513794,636.9970098547353 M411.3913362246438,632.3980419104813 L442.64489603224683,614.1707861666869 M442.64489603224683,614.1707861666869 L439.64746288208215,613.4608237643874 M439.64746288208215,613.4608237643874 L436.6842156459478,612.7041250151119 M436.6842156459478,612.7041250151119 L433.7573341996962,611.901250780606 M453.8638678837065,630.650375105623 L452.82142478556375,629.8797704556295 M452.82142478556375,629.8797704556295 L452.12535490466456,628.987183816331 M452.12535490466456,628.987183816331 L451.81605919453193,628.0245161424024 M451.81605919453193,628.0245161424024 L451.91143955349656,627.0477360417817 M451.91143955349656,627.0477360417817 L452.405850759739,626.1135929767972 M452.405850759739,626.1135929767972 L453.27053269157904,625.2763653597437 M453.27053269157904,625.2763653597437 L454.4551626372782,624.5846619306467 M454.4551626372782,624.5846619306467 L455.8909071456795,624.0786280669404 M455.8909071456795,624.0786280669404 L457.49437470431457,623.7876511203963 M457.49437470431457,623.7876511203963 L459.1724156737218,623.7285928913582 M459.1724156737218,623.7285928913582 L460.8276076370629,623.9048935029575 M460.8276076370629,623.9048935029575 L462.3638271006453,624.3063197297238 M462.3638271006453,624.3063197297238 L463.6918499832272,624.9095825294656 M463.6918499832272,624.9095825294656 L464.7345010666586,625.6796560565319 M464.7345010666586,625.6796560565319 L465.4311789565247,626.5718411990239 M465.4311789565247,626.5718411990239 L465.7413421004663,627.534317182392 M465.7413421004663,627.534317182392 L465.6469061216552,628.5111749559585 M465.6469061216552,628.5111749559585 L465.15324005653304,629.4456125876815 M465.15324005653304,629.4456125876815 L464.28901475898994,630.2833313758896 M464.28901475898994,630.2833313758896 L463.10438849000354,630.975575377691 M463.10438849000354,630.975575377691 L461.6681938584467,631.4820753813424 M461.6681938584467,631.4820753813424 L460.06398533585553,631.7733719225696 M460.06398533585553,631.7733719225696 L458.38500087256193,631.8324827944966 M458.38500087256193,631.8324827944966 L456.72893886782634,631.6559904943496 M456.72893886782634,631.6559904943496 L455.19210589121246,631.254156514276 M455.19210589121246,631.254156514276 L453.8638678837065,630.650375105623 M411.37967794431773,638.8829692857265 L440.88005823073644,643.4829457874204 M411.3913362246438,632.3980419104813 L411.37967794431773,638.8829692857265 M411.37967794431773,638.8829692857265 L294.5549688965808,707.0460530660209 M294.5549688965808,707.0460530660209 L291.0872745758231,704.8174057528887 M291.0872745758231,704.8174057528887 L287.68255930963073,702.5569784884893 M287.68255930963073,702.5569784884893 L284.341699046453,700.2654198464484 M260.05317294146266,680.9247296684651 L254.2379327708647,681.6733221936599 M254.2379327708647,681.6733221936599 L248.91008547579077,683.2339800628683 M248.91008547579077,683.2339800628683 L244.39664517687203,685.5112117592579 M244.39664517687203,685.5112117592579 L240.97500197402496,688.3655724010279 M240.97500197402496,688.3655724010279 L238.85593067547683,691.622098594996 M238.85593067547683,691.622098594996 L238.1704716585047,695.0809427923996 M238.1704716585047,695.0809427923996 L238.96181717975304,698.5295064704043 M238.96181717975304,698.5295064704043 L241.1822442622289,701.75561103286 M241.1822442622289,701.75561103286 L244.69598066568756,704.5604170420605 M244.69598066568756,704.5604170420605 L249.28725047477656,706.7708964704624 M249.28725047477656,706.7708964704624 L254.67353483300354,708.2505187561119 M254.67353483300354,708.2505187561119 L260.5229398845057,708.9078472329451 M260.5229398845057,708.9078472329451 L266.4748526769333,708.7022230465462 M266.4748526769333,708.7022230465462 L272.16221449794426,707.6463868854304 M272.16221449794426,707.6463868854304 L277.2344654313798,705.8055850083595 M277.2344654313798,705.8055850083595 L281.37923039128907,703.2935760036016 M281.37923039128907,703.2935760036016 L284.341699046453,700.2654198464484 M260.05317294146266,680.9247296684651 L250.2264316376063,671.3100007747526 M250.2264316376063,671.3100007747526 L241.42131592099787,661.3789831625841 M241.42131592099787,661.3789831625841 L233.66807779529108,651.1687764156118 M233.66807779529108,651.1687764156118 L226.99287765109966,640.7173623932106 M226.99287765109966,640.7173623932106 L221.41784040783205,630.0634472433418 M221.41784040783205,630.0634472433418 L216.96088937745156,619.2463249366893 M211.38426762920363,596.8101808854193 L205.957582331166,595.6835840698427 M205.957582331166,595.6835840698427 L200.21616257448264,595.3486853118372 M200.21616257448264,595.3486853118372 L194.49550044622688,595.8250095199878 M194.49550044622688,595.8250095199878 L189.12993515106032,597.0847838321772 M189.12993515106032,597.0847838321772 L184.4331523019987,599.0545920047518 M184.4331523019987,599.0545920047518 L180.6801128423366,601.619505265182 M180.6801128423366,601.619505265182 L178.09087135959166,604.6297745363884 M178.09087135959166,604.6297745363884 L176.8177159352885,607.9094400222889 M176.8177159352885,607.9094400222889 L176.9360919898303,611.2665579086774 M176.9360919898303,611.2665579086774 L178.4400289178398,614.5043674316937 M178.4400289178398,614.5043674316937 L181.24217062021268,617.43288628149 M181.24217062021268,617.43288628149 L185.17887279919367,619.8800084992506 M185.17887279919367,619.8800084992506 L190.01946665686418,621.7018264064152 M190.01946665686418,621.7018264064152 L195.4799508002804,622.7910691403606 M195.4799508002804,622.7910691403606 L201.23959677413666,623.0835848005914 M201.23959677413666,623.0835848005914 L206.96000789213608,622.5621243152775 M206.96000789213608,622.5621243152775 L212.3050640729885,621.2574219181753 M212.3050640729885,621.2574219181753 L216.96088937745156,619.2463249366893 M211.38426762920363,596.8101808854193 L210.36435485362992,584.7755764286754 M210.36435485362992,584.7755764286754 L210.7009744537089,572.7432750259726 M210.7009744537089,572.7432750259726 L212.38934642346055,560.7645273466799 M212.38934642346055,560.7645273466799 L215.41896357483486,548.8901077460806 M215.41896357483486,548.8901077460806 L219.7737039747766,537.1700977692906 M219.7737039747766,537.1700977692906 L225.43193250473468,525.6536952752947 M225.43193250473468,525.6536952752947 L232.36668495951074,514.3890044560815 M232.36668495951074,514.3890044560815 L240.54580025876567,503.42285317136464 M240.54580025876567,503.42285317136464 L249.93210886069414,492.8006135596572 M153.79116726321354,437.1384808992098 L249.93210886069414,492.8006135596572 M279.31188946091925,365.6493439735524 L153.79116726321354,437.1384808992098 M375.45647437453596,420.7590998971366 L279.31188946091925,365.6493439735524 M375.45647437453596,420.7590998971366 L393.7660741961935,415.4541419088119 M393.7660741961935,415.4541419088119 L412.6293315009567,410.8495474600719 M412.6293315009567,410.8495474600719 L431.96803975379754,406.9636068581067 M431.96803975379754,406.9636068581067 L451.70224261053204,403.81172803647985 M451.70224261053204,403.81172803647985 L471.7505344135444,401.4063849290227 M471.7505344135444,401.4063849290227 L492.0303538961174,399.7570969090906 M492.0303538961174,399.7570969090906 L512.4583119905149,398.870377218428 M512.4583119905149,398.870377218428 L532.9504753045777,398.74972552077816 M532.9504753045777,398.74972552077816 L553.4226820502512,399.3956109836927 M591.537233032762,402.6707719414033 L594.9011436081219,400.05528070571154 M594.9011436081219,400.05528070571154 L597.0606561897586,397.04874305618637 M597.0606561897586,397.04874305618637 L597.889869674293,393.82771152523344 M597.889869674293,393.82771152523344 L597.3410504417262,390.58110034177247 M597.3410504417262,390.58110034177247 L595.4472783588111,387.4990433579965 M595.4472783588111,387.4990433579965 L592.3202212739029,384.76182960597373 M592.3202212739029,384.76182960597373 L588.1435155839863,382.52936078230437 M588.1435155839863,382.52936078230437 L583.1617852699335,380.9319609976324 M583.1617852699335,380.9319609976324 L577.6665246642593,380.062754094946 M577.6665246642593,380.062754094946 L571.978912140246,379.9724274031193 M571.978912140246,379.9724274031193 L566.4313377463154,380.66623060211987 M566.4313377463154,380.66623060211987 L561.3480365631258,382.10373182654564 M561.3480365631258,382.10373182654564 L557.026325634377,384.20111220049193 M557.026325634377,384.20111220049193 L553.7192818153709,386.83599433016036 M553.7192818153709,386.83599433016036 L551.6210157390778,389.8544558887538 M551.6210157390778,389.8544558887538 L550.8551009201337,393.0800120111243 M550.8551009201337,393.0800120111243 L551.4673215427202,396.32378650203935 M551.4673215427202,396.32378650203935 L553.4226820502512,399.3956109836927 M591.537233032762,402.6707719414033 L609.8950722629415,405.2442104718108 M609.8950722629415,405.2442104718108 L627.9682484253321,408.44443602370984 M627.9682484253321,408.44443602370984 L645.693643566481,412.26072656865205 M645.693643566481,412.26072656865205 L663.0092237883098,416.6802524095477 M663.0092237883098,416.6802524095477 L679.8542081698498,421.6881746063494 M679.8542081698498,421.6881746063494 L696.1692705942884,427.2676137329848 M729.0270031924267,441.0325165835068 L734.070099432362,439.3703480798231 M734.070099432362,439.3703480798231 L738.2261269574726,437.04116231331227 M738.2261269574726,437.04116231331227 L741.2395108418729,434.18873903427857 M741.2395108418729,434.18873903427857 L742.9253578369762,430.9889960269981 M742.9253578369762,430.9889960269981 L743.180858375469,427.63901454762913 M743.180858375469,427.63901454762913 L741.9912393543221,424.34488296924667 M741.9912393543221,424.34488296924667 L739.4305896182872,421.30893763305784 M739.4305896182872,421.30893763305784 L735.6569726821099,418.71744601425735 M735.6569726821099,418.71744601425735 L730.9026412485185,416.7292082594268 M730.9026412485185,416.7292082594268 L725.4596157848044,415.4659552220096 M725.4596157848044,415.4659552220096 L719.6619555354781,415.0049559121909 M719.6619555354781,415.0049559121909 L713.8651490439313,415.3744306357104 M713.8651490439313,415.3744306357104 L708.4247619952506,416.5517577948628 M708.4247619952506,416.5517577948628 L703.6745881359967,418.46493010254335 M703.6745881359967,418.46493010254335 L699.9064001006988,420.9968203631166 M699.9064001006988,420.9968203631166 L697.3520702311188,423.9922974571744 M697.3520702311188,423.9922974571744 L696.1692705942884,427.2676137329848 M729.0270031924267,441.0325165835068 L732.9253013367841,442.9240610559325 M732.9253013367841,442.9240610559325 L736.77206370812,444.85146476803993 M736.77206370812,444.85146476803993 L740.5662445789192,446.8142562218396 M740.5662445789192,446.8142562218396 L626.8017942251995,513.1917873442248 M634.9524709226932,530.0792029889114 L626.8017942251995,513.1917873442248 M596.8225345216018,536.0011717457069 L595.7240960446519,539.2166877133143 M595.7240960446519,539.2166877133143 L595.9793418775072,542.4997487530694 M595.9793418775072,542.4997487530694 L597.5746058295867,545.6627334400889 M597.5746058295867,545.6627334400889 L600.4194707660881,548.5246340911548 M600.4194707660881,548.5246340911548 L604.351851183294,550.9214805587056 M604.351851183294,550.9214805587056 L609.147113158999,552.7158097590071 M609.147113158999,552.7158097590071 L614.5308795152818,553.8046130977291 M614.5308795152818,553.8046130977291 L620.194833379575,554.1253558022122 M620.194833379575,554.1253558022122 L625.8144565059529,553.6596184523275 M625.8144565059529,553.6596184523275 L631.0678014016305,552.4341499905638 M631.0678014016305,552.4341499905638 L635.6540349204214,550.51932850188 M635.6540349204214,550.51932850188 L639.3108188390476,548.0250519835306 M639.3108188390476,548.0250519835306 L641.8293988709929,545.0943680431242 M641.8293988709929,545.0943680431242 L643.0663892324326,541.8951572380829 M643.0663892324326,541.8951572380829 L642.9518932128841,538.6104211373845 M642.9518932128841,538.6104211373845 L641.4933941540341,535.427855332979 M641.4933941540341,535.427855332979 L638.77495946258,532.5290472469086 M638.77495946258,532.5290472469086 L634.9524709226932,530.0792029889114 M592.052361792919,526.0596050906735 L596.8225345216018,536.0011717457069 M592.052361792919,526.0596050906735 L585.2408320002789,519.1810966920137 M585.2408320002789,519.1810966920137 L577.1194770251838,512.7991520828285 M577.1194770251838,512.7991520828285 L567.7967385915276,506.9969909669533 M567.7967385915276,506.9969909669533 L557.3964353961012,501.8500818332484 M557.3964353961012,501.8500818332484 L546.0561060935329,497.4252237089342 M546.0561060935329,497.4252237089342 L533.9251481049638,493.77971980423166 M533.9251481049638,493.77971980423166 L521.1629805762709,490.96070849020794 M521.1629805762709,490.96070849020794 L507.9369341820118,489.00458837086774 M507.9369341820118,489.00458837086774 L494.4201561640008,487.9365976704245 M494.4201561640008,487.9365976704245 L480.78944330218053,487.77049843911743 M480.78944330218053,487.77049843911743 L467.22301148616197,488.5084275072313 M467.22301148616197,488.5084275072313 L453.89826459835234,490.14088366030677 M453.89826459835234,490.14088366030677 L440.98957735742727,492.64680635344325 M440.98957735742727,492.64680635344325 L428.66611862560933,495.9938558016726 M428.66611862560933,495.9938558016726 L417.0896887048514,500.1387807619098 M417.0896887048514,500.1387807619098 L406.4126625697292,505.0279275202576 M406.4126625697292,505.0279275202576 L396.7760504276609,510.5978995011986 M396.7760504276609,510.5978995011986 L388.3076405305405,516.7763099749856 M388.3076405305405,516.7763099749856 L381.12030467499056,523.4826652093868 M381.12030467499056,523.4826652093868 L375.3104947722023,530.629366905559 M375.3104947722023,530.629366905559 L370.95687624712247,538.1227913990904 M370.95687624712247,538.1227913990904 L368.1192101652885,545.8644681610897 M368.1192101652885,545.8644681610897 L366.83748047839674,553.7523519302456 M366.83748047839674,553.7523519302456 L367.13118569735065,561.6821345852056 M367.13118569735065,561.6821345852056 L368.9990051394807,569.5486091271607 M368.9990051394807,569.5486091271607 L372.41865921813815,577.2470669306647 M372.41865921813815,577.2470669306647 L377.3470506025612,584.6747143616516 M377.3470506025612,584.6747143616516 L383.72074637439573,591.7320656189784 M383.72074637439573,591.7320656189784 L391.45669722862635,598.3242999409937 M391.45669722862635,598.3242999409937 L400.45328147465864,604.3626263937884 M400.45328147465864,604.3626263937884 L410.5915666868233,609.7654806304489 M410.5915666868233,609.7654806304489 L421.7368949927983,614.459719651575 M421.7368949927983,614.459719651575 L433.74067011008015,618.3816752659412 M453.8426617280343,637.1349190451767 L455.1706002128632,637.7388329332829 M455.1706002128632,637.7388329332829 L456.707087041274,638.1407550760349 M456.707087041274,638.1407550760349 L458.36277641253184,638.3172860971528 M458.36277641253184,638.3172860971528 L460.0413834439105,638.2581622568896 M460.0413834439105,638.2581622568896 L461.6452317162885,637.9668018065315 M461.6452317162885,637.9668018065315 L463.081104231958,637.4601906728655 M463.081104231958,637.4601906728655 L464.26546526758176,636.7677947745929 M464.26546526758176,636.7677947745929 L465.1294976254935,635.9298921491828 M465.1294976254935,635.9298921491828 L465.62305423403285,634.9952494298102 M465.62305423403285,634.9952494298102 L465.7174705814765,634.0181772295728 M465.7174705814765,634.0181772295728 L465.4073787277016,633.0554899476663 M465.4073787277016,633.0554899476663 L464.710858876575,632.1631089125368 M464.710858876575,632.1631089125368 L463.668443372147,631.3928662845442 M463.668443372147,631.3928662845442 L462.34071991231826,630.7894710011806 M462.34071991231826,630.7894710011806 L460.80484631932,630.3879566102681 M460.80484631932,630.3879566102681 L459.15002659805486,630.2116172766771 M459.15002659805486,630.2116172766771 L457.47236264136797,630.2706884771454 M457.47236264136797,630.2706884771454 L455.8692549954967,630.5617293317086 M455.8692549954967,630.5617293317086 L454.43383240620443,631.0678743307255 M454.43383240620443,631.0678743307255 L453.24946769634687,631.7597296591724 M453.24946769634687,631.7597296591724 L452.3849789053062,632.5971411132297 M452.3849789053062,632.5971411132297 L451.8906774959124,633.5314892702461 M451.8906774959124,633.5314892702461 L451.7953171881074,634.5084837951376 M451.7953171881074,634.5084837951376 L452.1045419977171,635.4713627665838 M452.1045419977171,635.4713627665838 L452.8004541137847,636.3641452956784 M452.8004541137847,636.3641452956784 L453.8426617280343,637.1349190451767 M257.21193621674325,697.7831541631097 L258.537229199994,698.3921055233747 M258.537229199994,698.3921055233747 L260.07467994915726,698.7973645925396 M260.07467994915726,698.7973645925396 L261.734860521447,698.9753654370879 M261.734860521447,698.9753654370879 L263.4212300192073,698.9157430070783 M263.4212300192073,698.9157430070783 L265.035681111329,698.6219692934898 M265.035681111329,698.6219692934898 L266.48436364403295,698.1111307200916 M266.48436364403295,698.1111307200916 L267.6830014496574,697.4129734306237 M267.6830014496574,697.4129734306237 L268.5619685129747,696.5680983637744 M268.5619685129747,696.5680983637744 L269.0701908592002,695.6256751539543 M269.0701908592002,695.6256751539543 L269.17822097884914,694.6404761025942 M269.17822097884914,694.6404761025942 L268.8798576741654,693.6697759345158 M268.8798576741654,693.6697759345158 L268.1925220337644,692.7699613705779 M268.1925220337644,692.7699613705779 L267.1561762819068,691.9933052852764 M267.1561762819068,691.9933052852764 L265.8311146209197,691.3848916685066 M265.8311146209197,691.3848916685066 L264.2942821263449,690.9800422764858 M264.2942821263449,690.9800422764858 L262.6349758391035,690.8022355175825 M262.6349758391035,690.8022355175825 L260.949536381319,690.8617919759681 M260.949536381319,690.8617919759681 L259.3358580143362,691.155254775155 M259.3358580143362,691.155254775155 L257.8876138854267,691.6656087054567 M257.8876138854267,691.6656087054567 L256.6889797153704,692.3632186640958 M256.6889797153704,692.3632186640958 L255.8095806866433,693.2076090856535 M255.8095806866433,693.2076090856535 L255.30058974578856,694.1497213760143 M255.30058974578856,694.1497213760143 L255.1916304626793,695.1348544521883 M255.1916304626793,695.1348544521883 L255.4891169039626,696.1057487069253 M255.4891169039626,696.1057487069253 L256.17582884718837,697.0059729599419 M256.17582884718837,697.0059729599419 L257.21193621674325,697.7831541631097 M614.569829922227,543.2081544105185 L615.8958304482416,543.8043225020228 M615.8958304482416,543.8043225020228 L617.4268328978886,544.2010863267813 M617.4268328978886,544.2010863267813 L619.0738001514462,544.3753530401393 M619.0738001514462,544.3753530401393 L620.7409603408537,544.3169875657572 M620.7409603408537,544.3169875657572 L622.331303388683,544.0293642745079 M622.331303388683,544.0293642745079 L623.752398213558,543.5292510549259 M623.752398213558,543.5292510549259 L624.9215689724917,542.8457356288719 M624.9215689724917,542.8457356288719 L625.770881599704,542.0185791456447 M625.770881599704,542.0185791456447 L626.251044580524,541.0959225442004 M626.251044580524,541.0959225442004 L626.3341711666079,540.131379776778 M626.3341711666079,540.131379776778 L626.0155486002492,539.1810366511112 M626.0155486002492,539.1810366511112 L625.3137464345463,538.3001006311895 M625.3137464345463,538.3001006311895 L624.2696132638143,537.5397333391558 M624.2696132638143,537.5397333391558 L622.9438305711103,536.9440738694166 M622.9438305711103,536.9440738694166 L621.4134484616862,536.5477038204285 M621.4134484616862,536.5477038204285 L619.7673417892319,536.373625119361 M619.7673417892319,536.373625119361 L618.1011121481263,536.4319390426929 M618.1011121481263,536.4319390426929 L616.511496618062,536.719248786297 M616.511496618062,536.719248786297 L615.0908410239819,537.2189048879352 M615.0908410239819,537.2189048879352 L613.9216607642102,537.9018901085394 M613.9216607642102,537.9018901085394 L613.0718920810001,538.7285647581916 M613.0718920810001,538.7285647581916 L612.5909907882801,539.6509325244187 M612.5909907882801,539.6509325244187 L612.5069313636034,540.6153990262906 M612.5069313636034,540.6153990262906 L612.8247000869668,541.5659301662226 M612.8247000869668,541.5659301662226 L613.5258961353661,542.4472661404621 M613.5258961353661,542.4472661404621 L614.569829922227,543.2081544105185 M195.61576100307752,612.0671865897589 L196.93075590293637,612.6690345823795 M196.93075590293637,612.6690345823795 L198.45752642958522,613.069569811935 M198.45752642958522,613.069569811935 L200.10725563837048,613.2454950910915 M200.10725563837048,613.2454950910915 L201.78401087998986,613.1865663266318 M201.78401087998986,613.1865663266318 L203.39024977614952,612.8962181120702 M203.39024977614952,612.8962181120702 L204.83259457166517,612.3913343641083 M204.83259457166517,612.3913343641083 L206.02714307207603,611.7013172664163 M206.02714307207603,611.7013172664163 L206.9045066078282,610.8662940986087 M206.9045066078282,610.8662940986087 L207.41369866587067,609.9348578711017 M207.41369866587067,609.9348578711017 L207.52521980720118,608.9611453030468 M207.52521980720118,608.9611453030468 L207.23265977943768,608.0017602902835 M207.23265977943768,608.0017602902835 L206.55310160764049,607.1124323676086 M206.55310160764049,607.1124323676086 L205.5260657086793,606.3448315565236 M205.5260657086793,606.3448315565236 L204.2112865974505,605.7435057315074 M204.2112865974505,605.7435057315074 L202.6851254171472,605.3433730380896 M202.6851254171472,605.3433730380896 L201.03625949570107,605.167638460799 M201.03625949570107,605.167638460799 L199.36042372503422,605.2265024021112 M199.36042372503422,605.2265024021112 L197.75494983786854,605.5165451230174 M197.75494983786854,605.5165451230174 L196.3130403469728,606.0209526761998 M196.3130403469728,606.0209526761998 L195.11849771368355,606.7104319859893 M195.11849771368355,606.7104319859893 L194.24070926364504,607.544978959291 M194.24070926364504,607.544978959291 L193.7307588624344,608.4761096881729 M193.7307588624344,608.4761096881729 L193.61831966465368,609.4497574312044 M193.61831966465368,609.4497574312044 L193.9100122440874,610.4093331463441 M193.9100122440874,610.4093331463441 L194.5889522862409,611.2990636157454 M194.5889522862409,611.2990636157454 L195.61576100307752,612.0671865897589 M393.78357630933357,618.4668101591483 L388.98384023376343,628.9354827516992 M393.78357630933357,618.4668101591483 L344.09029582440695,589.6123256969838 M344.09029582440695,589.6123256969838 L245.29590598241788,646.906786962402 M245.29590598241788,646.906786962402 L301.58467183160707,679.849498795939 M301.58467183160707,679.849498795939 L388.98384023376343,628.9354827516992 M714.8818771313623,431.31334083816853 L716.2017450517254,431.90035576112626 M716.2017450517254,431.90035576112626 L717.7236694625591,432.29101557017214 M717.7236694625591,432.29101557017214 L719.3591266946413,432.4626038971102 M719.3591266946413,432.4626038971102 L721.013014443414,432.4051293860328 M721.013014443414,432.4051293860328 L722.5891165765861,432.121938849329 M722.5891165765861,432.121938849329 L723.9958136550416,431.62950270750946 M723.9958136550416,431.62950270750946 L725.1512735047012,430.9564948039192 M725.1512735047012,430.9564948039192 L725.9883796227929,430.1420527090781 M725.9883796227929,430.1420527090781 L726.4584921055781,429.2335742082465 M726.4584921055781,429.2335742082465 L726.5343755173997,428.2838583194749 M726.5343755173997,428.2838583194749 L726.2116946561622,427.3481168495561 M726.2116946561622,427.3481168495561 L725.5092802310759,426.4807061050836 M725.5092802310759,426.4807061050836 L724.4679689092337,425.73201714131307 M724.4679689092337,425.73201714131307 L723.1483403551875,425.1455112847877 M723.1483403551875,425.1455112847877 L721.6270242586523,424.7552392211898 M721.6270242586523,424.7552392211898 L719.9924156634086,424.5838345896967 M719.9924156634086,424.5838345896967 L718.3394224736305,424.64124666088156 M718.3394224736305,424.64124666088156 L716.7640558804637,424.9241429277056 M716.7640558804637,424.9241429277056 L715.3577668342436,425.41612037135934 M715.3577668342436,425.41612037135934 L714.2022940208782,426.0886102449817 M714.2022940208782,426.0886102449817 L713.3647569126657,426.90259363957796 M713.3647569126657,426.90259363957796 L712.8938941616018,427.8107778657418 M712.8938941616018,427.8107778657418 L712.8171130656549,428.7604313112489 M712.8171130656549,428.7604313112489 L713.1389544840655,429.696356477573 M713.1389544840655,429.696356477573 L713.8407800017478,430.5641549787906 M713.8407800017478,430.5641549787906 L714.8818771313623,431.31334083816853 M569.5644405839253,396.1437440379255 L570.8751660906797,396.72789074729803 M570.8751660906797,396.72789074729803 L572.3894397156959,397.1166452181911 M572.3894397156959,397.1166452181911 L574.0191723512893,397.28739598789133 M574.0191723512893,397.28739598789133 L575.6695948911766,397.23020050842115 M575.6695948911766,397.23020050842115 L577.2446981275323,396.9483922710759 M577.2446981275323,396.9483922710759 L578.652915422228,396.45835821211824 M578.652915422228,396.45835821211824 L579.8123311563567,395.7886351497169 M579.8123311563567,395.7886351497169 L580.6555985894164,394.9781695222171 M580.6555985894164,394.9781695222171 L581.1337137938771,394.07412466306175 M581.1337137938771,394.07412466306175 L581.2189811981403,393.1290448817239 M581.2189811981403,393.1290448817239 L580.9065145087303,392.1978695128071 M580.9065145087303,392.1978695128071 L580.2145507177431,391.3346896614167 M580.2145507177431,391.3346896614167 L579.1833296888215,390.58965663913705 M579.1833296888215,390.58965663913705 L577.87282662659,390.00600923576945 M577.87282662659,390.00600923576945 L576.3591544524728,389.6176396771324 M576.3591544524728,389.6176396771324 L574.7302644671873,389.44707125996774 M574.7302644671873,389.44707125996774 L573.0807327469179,389.5042047543849 M573.0807327469179,389.5042047543849 L571.5063644178741,389.78572087323175 M571.5063644178741,389.78572087323175 L570.0985577709638,390.2752995862222 M570.0985577709638,390.2752995862222 L568.9391343412857,390.94450840620976 M568.9391343412857,390.94450840620976 L568.0954426321173,391.75451868800326 M568.0954426321173,391.75451868800326 L567.6165837773276,392.65827142390714 M567.6165837773276,392.65827142390714 L567.5304236982995,393.6032892183977 M567.5304236982995,393.6032892183977 L567.8420531951832,394.53464694033886 M567.8420531951832,394.53464694033886 L568.533427055658,395.39821171411165 M568.533427055658,395.39821171411165 L569.5644405839253,396.1437440379255 M458.4866783834555,471.5468463032404 L373.4331270072048,422.78363958121787 M253.48767390414275,491.6274100062435 L373.4331270072048,422.78363958121787 M253.48767390414275,491.6274100062435 L338.54110985122765,540.8592696834294 M338.54110985122765,540.8592696834294 L458.4866783834555,471.5468463032404 M442.67290573994546,604.4439394564668 L442.64489603224683,614.1707861666869 M592.1042512829276,519.599618569963 L592.052361792919,526.0596050906735 M592.1042512829276,519.599618569963 L593.5039703512622,521.2769490410187 M593.5039703512622,521.2769490410187 L594.8252520138166,522.9755046312555 M594.8252520138166,522.9755046312555 L596.0671198356487,524.6940632825949 M596.1463524370914,514.9969701444242 L596.0671198356487,524.6940632825949 M442.67290573994546,604.4439394564668 L430.35874680484665,601.1638698418734 M430.35874680484665,601.1638698418734 L418.7638463273191,597.0995732314946 M418.7638463273191,597.0995732314946 L408.03794421804866,592.304389003598 M408.03794421804866,592.304389003598 L398.31915630362914,586.8411727344537 M398.31915630362914,586.8411727344537 L389.73211674102424,580.7813655008731 M389.73211674102424,580.7813655008731 L382.3864097435365,574.2040393937905 M382.3864097435365,574.2040393937905 L376.3751720380325,567.1947808938453 M376.3751720380325,567.1947808938453 L371.7739718513197,559.8445663462469 M371.7739718513197,559.8445663462469 L368.6398746646291,552.2484971787313 M368.6398746646291,552.2484971787313 L367.01087816592235,544.5045572071269 M367.01087816592235,544.5045572071269 L366.9054738315249,536.7123451462422 M366.9054738315249,536.7123451462422 L368.32257924751644,528.9717380888437 M368.32257924751644,528.9717380888437 L371.2416348846617,521.381638688275 M371.2416348846617,521.381638688275 L375.6230227834492,514.0387283814459 M375.6230227834492,514.0387283814459 L381.40867867643783,507.03624569628454 M381.40867867643783,507.03624569628454 L388.5229183254203,500.4628422353277 M388.5229183254203,500.4628422353277 L396.87349206465683,494.40150143361655 M396.87349206465683,494.40150143361655 L406.35282920555943,488.92854478454353 M406.35282920555943,488.92854478454353 L416.83943292063066,484.11271736244646 M416.83943292063066,484.11271736244646 L428.19943472680933,480.0143787716569 M428.19943472680933,480.0143787716569 L440.28829212523317,476.6848043842197 M440.28829212523317,476.6848043842197 L452.9525780515872,474.16558619000097 M452.9525780515872,474.16558619000097 L466.0318725320783,472.48814982541296 M466.0318725320783,472.48814982541296 L479.36071256123546,471.6734033444265 M479.36071256123546,471.6734033444265 L492.7706268524613,471.7315032079824 M492.7706268524613,471.7315032079824 L506.092168053244,472.66171947592534 M506.092168053244,472.66171947592534 L519.156916293536,474.4524682005072 M519.156916293536,474.4524682005072 L531.7995943875342,477.08141606794845 M531.7995943875342,477.08141606794845 L543.860042752693,480.515771813205 M543.860042752693,480.515771813205 L555.1851395583008,484.712622362893 M555.1851395583008,484.712622362893 L565.6307591989452,489.61945156728086 M565.6307591989452,489.61945156728086 L575.0635011654493,495.174737853173 M575.0635011654493,495.174737853173 L583.3624279059346,501.3086841268893 M583.3624279059346,501.3086841268893 L590.4205567668216,507.94402305765834 M590.4205567668216,507.94402305765834 L596.1463524370914,514.9969701444242 M442.67290573994546,604.4439394564668 L294.5182434575227,690.7910295610011 M294.5182434575227,690.7910295610011 L294.5549688965808,707.0460530660209 M453.8426617280343,637.1349190451767 L453.8638678837065,630.650375105623 M284.324713898258,693.7670878775592 L284.341699046453,700.2654198464484 M284.324713898258,693.7670878775592 L275.74775033084785,687.5216885995397 M275.74775033084785,687.5216885995397 L267.6449058688309,681.0720715026927 M267.6449058688309,681.0720715026927 L260.0307317001047,674.4306087639412 M260.0307317001047,674.4306087639412 L260.05317294146266,680.9247296684651 M216.92886376664802,612.7657102788268 L216.96088937745156,619.2463249366893 M216.92886376664802,612.7657102788268 L214.54068551031315,605.3290396604631 M214.54068551031315,605.3290396604631 L212.68063280597167,597.8477571514827 M212.68063280597167,597.8477571514827 L211.35104067427616,590.3345083248523 M211.35104067427616,590.3345083248523 L211.38426762920363,596.8101808854193 M249.87107238392122,476.6638254388994 L249.93210886069414,492.8006135596572 M294.5182434575227,690.7910295610011 L280.0266942526686,680.9737597802542 M280.0266942526686,680.9737597802542 L266.7563465390476,670.6059146249711 M266.7563465390476,670.6059146249711 L254.76980392652257,659.7395691222721 M254.76980392652257,659.7395691222721 L244.12300165903548,648.4290767963874 M244.12300165903548,648.4290767963874 L234.8648257050108,636.7307946479658 M234.8648257050108,636.7307946479658 L227.03716551264648,624.7027060138764 M227.03716551264648,624.7027060138764 L220.6745618424908,612.4041589964547 M220.6745618424908,612.4041589964547 L215.80422864463458,599.8955218192775 M215.80422864463458,599.8955218192775 L212.44587231797814,587.2379233760071 M212.44587231797814,587.2379233760071 L210.6118115844123,574.4928593341729 M210.6118115844123,574.4928593341729 L210.30687601759647,561.7219505963856 M210.30687601759647,561.7219505963856 L211.52850980762608,548.9866149875188 M211.52850980762608,548.9866149875188 L214.26686028279354,536.3477757290204 M214.26686028279354,536.3477757290204 L218.50487814483813,523.8655856251596 M218.50487814483813,523.8655856251596 L224.218501723987,511.5991352553174 M224.218501723987,511.5991352553174 L231.3768222233718,499.6061979903735 M231.3768222233718,499.6061979903735 L239.942323269753,487.9429670546405 M239.942323269753,487.9429670546405 L249.87107238392122,476.6638254388994 M284.324713898258,693.7670878775592 L281.36157250122113,696.7945857549407 M281.36157250122113,696.7945857549407 L277.2158680370418,699.3060488975896 M277.2158680370418,699.3060488975896 L272.1424685876544,701.1464508899395 M272.1424685876544,701.1464508899395 L266.45382007391316,702.2020577346619 M266.45382007391316,702.2020577346619 L260.5005619113837,702.4076372656673 M260.5005619113837,702.4076372656673 L254.64983601248298,701.7504515453962 M254.64983601248298,701.7504515453962 L249.26233697366325,700.2711506482251 M249.26233697366325,700.2711506482251 L244.6700336441702,698.0611514832619 M244.6700336441702,698.0611514832619 L241.15550852021403,695.2569550814736 M241.15550852021403,695.2569550814736 L238.93458588073253,692.0315519927237 M238.93458588073253,692.0315519927237 L238.14306809840815,688.5837385136961 M238.14306809840815,688.5837385136961 L238.82868830811117,685.1256471196265 M238.82868830811117,685.1256471196265 L240.9482438811699,681.8698300320884 M240.9482438811699,681.8698300320884 L244.37066432355743,679.0160911940864 M244.37066432355743,679.0160911940864 L248.88512687142003,676.739355757669 M248.88512687142003,676.739355757669 L254.21417863356243,675.1790380831312 M254.21417863356243,675.1790380831312 L260.0307317001047,674.4306087639412 M216.92886376664802,612.7657102788268 L212.27198815971036,614.7763650252687 M212.27198815971036,614.7763650252687 L206.92572819834277,616.0807805882989 M206.92572819834277,616.0807805882989 L201.20403066046123,616.6021264470888 M201.20403066046123,616.6021264470888 L195.44309141719958,616.3096750861032 M195.44309141719958,616.3096750861032 L189.98138334667925,615.220671806912 M189.98138334667925,615.220671806912 L185.1397069591989,613.3992544825635 M185.1397069591989,613.3992544825635 L181.20212724558573,610.9526705009239 M181.20212724558573,610.9526705009239 L178.39936440667887,608.0247960112233 M178.39936440667887,608.0247960112233 L176.89509890022464,604.787699208799 M176.89509890022464,604.787699208799 L176.77670572314213,601.4313206466331 M176.77670572314213,601.4313206466331 L178.05015605607576,598.1523777631398 M178.05015605607576,598.1523777631398 L180.63998681827707,595.1427720303825 M180.63998681827707,595.1427720303825 L184.39387514513015,592.578424361046 M184.39387514513015,592.578424361046 L189.09171664462644,590.6090506900241 M189.09171664462644,590.6090506900241 L194.45848846549015,589.3495543223187 M194.45848846549015,589.3495543223187 L200.1804346108739,588.8733352184938 M200.1804346108739,588.8733352184938 L205.92314103566093,589.2081600779759 M205.92314103566093,589.2081600779759 L211.35104067427616,590.3345083248523 M153.79116726321354,437.1384808992098 L153.6541960759007,417.80974678832655 M153.6541960759007,417.80974678832655 L159.3662850519192,421.1124190020276 M58.37275796680524,320.08817773199024 L159.3662850519192,421.1124190020276 M58.37275796680524,320.08817773199024 L56.73410602615087,161.47437121313322 M56.73410602615087,161.47437121313322 L335.6531105731953,439.3591077203428 M335.72466788845765,526.3145890225211 L335.6531105731953,439.3591077203428 M249.87107238392122,476.6638254388994 L335.72466788845765,526.3145890225211 M279.31188946091925,365.6493439735524 L279.25874340460837,346.36928045368654 M279.25874340460837,346.36928045368654 L153.6541960759007,417.80974678832655 M375.45647437453596,420.7590998971366 L375.4652904637544,404.6628632964644 M461.319021418437,453.8188463239378 L375.4652904637544,404.6628632964644 M461.319021418437,453.8188463239378 L461.6232250929975,367.0830671732808 M461.6232250929975,367.0830671732808 L183.20689266802373,91.09215276705493 M184.15641071348273,249.29879133560976 L183.20689266802373,91.09215276705493 M284.9711523871634,349.6392152031308 L184.15641071348273,249.29879133560976 M284.9711523871634,349.6392152031308 L279.25874340460837,346.36928045368654 M553.4655720740748,392.9640920960027 L553.4226820502512,399.3956109836927 M553.4655720740748,392.9640920960027 L566.241496478552,393.75773500645084 M566.241496478552,393.75773500645084 L578.9559938224813,394.84977555956175 M578.9559938224813,394.84977555956175 L591.588566530954,396.2385107404157 M591.588566530954,396.2385107404157 L591.537233032762,402.6707719414033 M696.2438838235131,420.82978823003003 L696.1692705942884,427.2676137329848 M696.2438838235131,420.82978823003003 L707.5247367783421,425.1461181269783 M707.5247367783421,425.1461181269783 L718.4863785298402,429.7360166201227 M718.4863785298402,429.7360166201227 L729.1089777349064,434.5915853136898 M729.1089777349064,434.5915853136898 L729.0270031924267,441.0325165835068 M740.7777365335345,430.7033072780296 L740.5662445789192,446.8142562218396 M740.7777365335345,430.7033072780296 L724.056272828442,422.50802900372184 M724.056272828442,422.50802900372184 L706.4210160261147,414.9969975162978 M706.4210160261147,414.9969975162978 L687.9555230752565,408.20413998402483 M687.9555230752565,408.20413998402483 L668.7468502017382,402.16006375525023 M668.7468502017382,402.16006375525023 L648.8852115748803,396.8918646336727 M648.8852115748803,396.8918646336727 L628.4634741844543,392.4231684427691 M628.4634741844543,392.4231684427691 L607.5768432595393,388.7739344358895 M607.5768432595393,388.7739344358895 L586.322409932462,385.9604584648535 M586.322409932462,385.9604584648535 L564.7988366695538,383.99525215430856 M564.7988366695538,383.99525215430856 L543.1058107897647,382.88708092636494 M543.1058107897647,382.88708092636494 L521.3437453480963,382.640868877432 M521.3437453480963,382.640868877432 L499.61332364700445,383.2577104446454 M499.61332364700445,383.2577104446454 L478.01509307626407,384.73486621052666 M478.01509307626407,384.73486621052666 L456.6490715473431,387.0657589059121 M456.6490715473431,387.0657589059121 L435.61431122076897,390.2400115238672 M435.61431122076897,390.2400115238672 L415.00850826920384,394.24347080972143 M415.00850826920384,394.24347080972143 L394.92758169367943,399.0582700580338 M394.92758169367943,399.0582700580338 L375.4652904637544,404.6628632964644 M553.4655720740748,392.9640920960027 L551.509769915056,389.89296414180643 M551.509769915056,389.89296414180643 L550.8974043238753,386.6499254830147 M550.8974043238753,386.6499254830147 L551.663478959906,383.42510138138783 M551.663478959906,383.42510138138783 L553.7621998797317,380.40732513490985 M553.7621998797317,380.40732513490985 L557.069966632002,377.773041458804 M557.069966632002,377.773041458804 L561.3926260844146,375.67613760996926 M561.3926260844146,375.67613760996926 L566.4770458681455,374.23896306427446 M566.4770458681455,374.23896306427446 L572.0258436346273,373.5453175579975 M572.0258436346273,373.5453175579975 L577.7147129838061,373.63562371886604 M577.7147129838061,373.63562371886604 L583.2111906185113,374.5046330665435 M583.2111906185113,374.5046330665435 L588.1940272086094,376.1016698518124 M588.1940272086094,376.1016698518124 L592.3716637977824,378.3336314921666 M592.3716637977824,378.3336314921666 L595.4994218992227,381.0702235999113 M595.4994218992227,381.0702235999113 L597.3936238703874,384.1515808988136 M597.3936238703874,384.1515808988136 L597.9425763612788,387.3974553569244 M597.9425763612788,387.3974553569244 L597.113191294832,390.61775628791725 M597.113191294832,390.61775628791725 L594.9532119621796,393.6236122776978 M594.9532119621796,393.6236122776978 L591.588566530954,396.2385107404157 M696.2438838235131,420.82978823003003 L697.4269285826316,417.5552118213973 M697.4269285826316,417.5552118213973 L699.9818087854583,414.560411670408 M699.9818087854583,414.560411670408 L703.7508182559658,412.0290938031764 M703.7508182559658,412.0290938031764 L708.5020340689953,410.11635414405714 M708.5020340689953,410.11635414405714 L713.9436196606641,408.9392932840255 M713.9436196606641,408.9392932840255 L719.7417079090609,408.56990214063507 M719.7417079090609,408.56990214063507 L725.5406547202169,409.0307971668878 M725.5406547202169,409.0307971668878 L730.9848928749498,410.29376447487965 M730.9848928749498,410.29376447487965 L735.7402888611033,412.28155261886565 M735.7402888611033,412.28155261886565 L739.514756894516,414.8724583925695 M739.514756894516,414.8724583925695 L742.0759918553103,417.90771767141405 M742.0759918553103,417.90771767141405 L743.2658939738491,421.20110516912365 M743.2658939738491,421.20110516912365 L743.0103565893232,424.5503302951753 M743.0103565893232,424.5503302951753 L741.3241546444851,427.74935119247976 M741.3241546444851,427.74935119247976 L738.3101191606322,430.6011310096391 M738.3101191606322,430.6011310096391 L734.1531832613879,432.92979153429957 M734.1531832613879,432.92979153429957 L729.1089777349064,434.5915853136898 M626.8017942251995,513.1917873442248 L626.8613858746517,506.7346703049408 M596.0671198356487,524.6940632825949 L626.8613858746517,506.7346703049408 M740.7777365335345,430.7033072780296 L596.1463524370914,514.9969701444242 M635.0139516261579,523.6183211563382 L626.8613858746517,506.7346703049408 M635.0139516261579,523.6183211563382 L634.9524709226932,530.0792029889114 M635.0139516261579,523.6183211563382 L638.8373040194987,526.0676199882543 M638.8373040194987,526.0676199882543 L641.556358256235,528.9657829310395 M641.556358256235,528.9657829310395 L643.0151969201286,532.1476407386133 M643.0151969201286,532.1476407386133 L643.1297328627157,535.431646440723 M643.1297328627157,535.431646440723 L641.8924800501826,538.6301461841547 M641.8924800501826,538.6301461841547 L639.3733498321825,541.5601790228138 M639.3733498321825,541.5601790228138 L635.715759190309,544.0539016032009 M635.715759190309,544.0539016032009 L631.1285084288626,545.9682979714119 M631.1285084288626,545.9682979714119 L625.8739940197225,547.1934944191767 M625.8739940197225,547.1934944191767 L620.2531162243714,547.6591284027015 M620.2531162243714,547.6591284027015 L614.5878946077883,547.3384568835597 M614.5878946077883,547.3384568835597 L609.202920250268,546.2498952164862 M609.202920250268,546.2498952164862 L604.4065793631555,544.4559643665796 M604.4065793631555,544.4559643665796 L600.4733109424029,542.0596501660877 M600.4733109424029,542.0596501660877 L597.6277996279122,539.1983852883125 M597.6277996279122,539.1983852883125 L596.0321676517948,536.0361035540934 M596.0321676517948,536.0361035540934 L595.7768528437844,532.7537724792377 M595.7768528437844,532.7537724792377 L596.8755249304127,529.5389717801763 M596.8755249304127,529.5389717801763 L596.8225345216018,536.0011717457069 M592.1042512829276,519.599618569963 L596.8755249304127,529.5389717801763 M257.21193621674325,697.7831541631097 L257.18882752826534,691.2853620155121 M257.18882752826534,691.2853620155121 L256.15248742371097,690.5083498658831 M256.15248742371097,690.5083498658831 L255.46562185932487,689.608321454156 M255.46562185932487,689.608321454156 L255.16806980861446,688.6376384427484 M255.16806980861446,688.6376384427484 L255.27705527457573,687.6527197376058 M255.27705527457573,687.6527197376058 L255.78616263250677,686.71081248465 M255.78616263250677,686.71081248465 L256.6657615223753,685.866605855947 M256.6657615223753,685.866605855947 L257.8646673593533,685.1691477580007 M257.8646673593533,685.1691477580007 L259.3132391807752,684.6589049346626 M259.3132391807752,684.6589049346626 L260.9272822280264,684.3655060276352 M260.9272822280264,684.3655060276352 L262.61310219928464,684.3059625360917 M262.61310219928464,684.3059625360917 L264.2727827500368,684.4837305826046 M264.2727827500368,684.4837305826046 L265.8099615449877,684.8884918337591 M265.8099615449877,684.8884918337591 L267.13532143343576,685.4967730006334 M267.13532143343576,685.4967730006334 L268.1719000263055,686.2732600267043 M268.1719000263055,686.2732600267043 L268.8593895701431,687.1728787460233 M268.8593895701431,687.1728787460233 L269.15781888053635,688.143367669195 M269.15781888053635,688.143367669195 L269.0497629975464,689.1283523500599 M269.0497629975464,689.1283523500599 L268.54142458087534,690.0705705250018 M268.54142458087534,690.0705705250018 L267.66225785076506,690.9152618029348 M267.66225785076506,690.9152618029348 L266.46334837575586,691.6132672361582 M266.46334837575586,691.6132672361582 L265.0143379518293,692.1239947065309 M265.0143379518293,692.1239947065309 L263.39952183001026,692.4177045304867 M263.39952183001026,692.4177045304867 L261.71277139867124,692.4773139941906 M261.71277139867124,692.4773139941906 L260.052216168335,692.2993518604553 M260.052216168335,692.2993518604553 L258.51441884020664,691.8941809288274 M258.51441884020664,691.8941809288274 L257.18882752826534,691.2853620155121 M614.569829922227,543.2081544105185 L614.626812088745,536.7443517462085 M614.626812088745,536.7443517462085 L613.5826420705323,535.9836326080047 M613.5826420705323,535.9836326080047 L612.8812859176545,535.1024925612775 M612.8812859176545,535.1024925612775 L612.5634424963,534.1521727582709 M612.5634424963,534.1521727582709 L612.6475169394934,533.1879207200949 M612.6475169394934,533.1879207200949 L613.128522054372,532.2657580830755 M613.128522054372,532.2657580830755 L613.9784773092094,531.4392673033074 M613.9784773092094,531.4392673033074 L615.147916023031,530.7564340089053 M615.147916023031,530.7564340089053 L616.5688869355329,530.2568890620432 M616.5688869355329,530.2568890620432 L618.1588563418333,529.9696432375822 M618.1588563418333,529.9696432375822 L619.8254578733294,529.9113422879323 M619.8254578733294,529.9113422879323 L621.4719328767059,530.0853822602801 M621.4719328767059,530.0853822602801 L623.0026583823437,530.4816641290473 M623.0026583823437,530.4816641290473 L624.3287396060981,531.0771910918609 M624.3287396060981,531.0771910918609 L625.3731090975994,531.837389252908 M625.3731090975994,531.837389252908 L626.0750716358339,532.7181293456126 M626.0750716358339,532.7181293456126 L626.3937692809598,533.6682611341687 M626.3937692809598,533.6682611341687 L626.3106280886684,534.6325894352108 M626.3106280886684,534.6325894352108 L625.8303616215754,535.5550409104918 M625.8303616215754,535.5550409104918 L624.980862623625,536.3820135215507 M624.980862623625,536.3820135215507 L623.8114334170101,537.0653770219254 M623.8114334170101,537.0653770219254 L622.3900230841024,537.5653790899422 M622.3900230841024,537.5653790899422 L620.799325831387,537.8529384595979 M620.799325831387,537.8529384595979 L619.1317933408151,537.9112909631087 M619.1317933408151,537.9112909631087 L617.4844573710426,537.7370629782847 M617.4844573710426,537.7370629782847 L615.9531112475945,537.3403873326688 M615.9531112475945,537.3403873326688 L614.626812088745,536.7443517462085 M195.61576100307752,612.0671865897589 L195.57895921648904,605.5881516219931 M195.57895921648904,605.5881516219931 L194.55192193492124,604.820197758966 M194.55192193492124,604.820197758966 L193.8728317503975,603.9306631965364 M193.8728317503975,603.9306631965364 L193.58107614699313,602.9712987947034 M193.58107614699313,602.9712987947034 L193.69354307003755,601.9978654928426 M193.69354307003755,601.9978654928426 L194.20361029752138,601.0669398682801 M194.20361029752138,601.0669398682801 L195.0815978626668,600.2325767470556 M195.0815978626668,600.2325767470556 L196.2764103042447,599.5432493468799 M196.2764103042447,599.5432493468799 L197.71864462451114,599.0389529366275 M197.71864462451114,599.0389529366275 L199.32447949175517,598.7489741283009 M199.32447949175517,598.7489741283009 L201.00069145197855,598.6901231583125 M201.00069145197855,598.6901231583125 L202.64992694118143,598.8658190108515 M202.64992694118143,598.8658190108515 L204.17642962649728,599.265863534851 M204.17642962649728,599.265863534851 L205.4915023484887,599.867056866726 M205.4915023484887,599.867056866726 L206.51876691545561,600.6344885646488 M206.51876691545561,600.6344885646488 L207.19847550812415,601.5236205786742 M207.19847550812415,601.5236205786742 L207.49109894977423,602.4827942773363 M207.49109894977423,602.4827942773363 L207.3795504951908,603.4562924044907 M207.3795504951908,603.4562924044907 L206.8702419505917,604.3875235289515 M206.8702419505917,604.3875235289515 L205.99267948933516,605.222362846666 M205.99267948933516,605.222362846666 L204.79786117668402,605.9122280369855 M204.79786117668402,605.9122280369855 L203.35519135519718,606.4170006440017 M203.35519135519718,606.4170006440017 L201.74859113475313,606.707284947257 M201.74859113475313,606.707284947257 L200.07145929061363,606.7662007406628 M200.07145929061363,606.7662007406628 L198.42136012695818,606.5903141854632 M198.42136012695818,606.5903141854632 L196.89424782271138,606.1898671236486 M196.89424782271138,606.1898671236486 L195.57895921648904,605.5881516219931 M388.98384023376343,628.9354827516992 L388.99045691989613,622.4527386186812 M393.79126625344696,611.9863669480769 L388.99045691989613,622.4527386186812 M393.79126625344696,611.9863669480769 L393.78357630933357,618.4668101591483 M344.09029582440695,589.6123256969838 L344.0816325454598,573.4216724958885 M400.4026531905122,606.0881908753734 L344.0816325454598,573.4216724958885 M400.38888472073893,615.8155810624858 L400.4026531905122,606.0881908753734 M393.79126625344696,611.9863669480769 L400.38888472073893,615.8155810624858 M245.29590598241788,646.906786962402 L245.23160927852018,630.6845956268352 M344.0816325454598,573.4216724958885 L245.23160927852018,630.6845956268352 M301.58467183160707,679.849498795939 L301.55197960570223,663.6092883653816 M245.23160927852018,630.6845956268352 L301.55197960570223,663.6092883653816 M400.38888472073893,615.8155810624858 L388.99045691989613,622.4527386186812 M301.55197960570223,663.6092883653816 L400.4026531905122,606.0881908753734 M714.8818771313623,431.31334083816853 L714.9606601809061,424.87460189466 M714.9606601809061,424.87460189466 L713.9193281364669,424.12558514774423 M713.9193281364669,424.12558514774423 L713.2173422950839,423.2579825548301 M713.2173422950839,423.2579825548301 L712.8954244339992,422.322268702621 M712.8954244339992,422.322268702621 L712.9722173803876,421.3728296983895 M712.9722173803876,421.3728296983895 L713.4431795519033,420.4648505753193 M713.4431795519033,420.4648505753193 L714.2808978487332,419.65105103121675 M714.2808978487332,419.65105103121675 L715.4366230664376,418.9787130650252 M715.4366230664376,418.9787130650252 L716.8432210704929,418.48684676202265 M716.8432210704929,418.48684676202265 L718.4189352248136,418.2040144065357 M718.4189352248136,418.2040144065357 L720.0722944167642,418.1466153060676 M720.0722944167642,418.1466153060676 L721.7072662135387,418.3179812135849 M721.7072662135387,418.3179812135849 L723.2289216390085,418.7081651097445 M723.2289216390085,418.7081651097445 L724.5488459446798,419.29453847593675 M724.5488459446798,419.29453847593675 L725.5903922711753,420.0430583279751 M725.5903922711753,420.0430583279751 L726.292967278926,420.91027316576566 M726.292967278926,420.91027316576566 L726.615724954019,421.8458033223378 M726.615724954019,421.8458033223378 L726.5398300901267,422.79530476957257 M726.5398300901267,422.79530476957257 L726.0696185211846,423.7035781660798 M726.0696185211846,423.7035781660798 L725.2323314081178,424.51783640850874 M725.2323314081178,424.51783640850874 L724.0766191627422,425.1906924025017 M724.0766191627422,425.1906924025017 L722.6696129480798,425.6830174017516 M722.6696129480798,425.6830174017516 L721.0931629292555,425.9661440258877 M721.0931629292555,425.9661440258877 L719.4389087820181,426.0236055659872 M719.4389087820181,426.0236055659872 L717.8030879711084,425.85205596379313 M717.8030879711084,425.85205596379313 L716.2808239594679,425.4614843238072 M716.2808239594679,425.4614843238072 L714.9606601809061,424.87460189466 M569.5644405839253,396.1437440379255 L569.6108909936889,389.7129625108251 M569.6108909936889,389.7129625108251 L568.5796470339302,388.9675992823057 M568.5796470339302,388.9675992823057 L567.8881174977223,388.1042303963421 M567.8881174977223,388.1042303963421 L567.5764161004889,387.1730839658538 M567.5764161004889,387.1730839658538 L567.6625922028218,386.2282805891008 M567.6625922028218,386.2282805891008 L568.1415540380304,385.32473293392064 M568.1415540380304,385.32473293392064 L568.9854296776427,384.5149064820712 M568.9854296776427,384.5149064820712 L570.1451072751411,383.8458495527091 M570.1451072751411,383.8458495527091 L571.5532235628867,383.3563819683551 M571.5532235628867,383.3563819683551 L573.1279390171914,383.0749297537144 M573.1279390171914,383.0749297537144 L574.7778352089681,383.01780922890805 M574.7778352089681,383.01780922890805 L576.4070858602639,383.18833892642175 M576.4070858602639,383.18833892642175 L577.9210939699527,383.57662032709976 M577.9210939699527,383.57662032709976 L579.2318887294296,384.1601352541451 M579.2318887294296,384.1601352541451 L580.2633402799686,384.9049991840297 M580.2633402799686,384.9049991840297 L580.9554600063449,385.7679831498462 M580.9554600063449,385.7679831498462 L581.2679989657967,386.69894722836915 M581.2679989657967,386.69894722836915 L581.1827159332698,387.6438125916094 M581.1827159332698,387.6438125916094 L580.7044980782788,388.54765236834476 M580.7044980782788,388.54765236834476 L579.8610469039428,389.3579341632563 M579.8610469039428,389.3579341632563 L578.7013770071,390.02750533204596 M578.7013770071,390.02750533204596 L577.2928498914442,390.51742825972315 M577.2928498914442,390.51742825972315 L575.7173992057405,390.799172591166 M575.7173992057405,390.799172591166 L574.0666118005355,390.85635510066544 M574.0666118005355,390.85635510066544 L572.4365181256182,390.68564305167496 M572.4365181256182,390.68564305167496 L570.9219082977306,390.2969767409761 M570.9219082977306,390.2969767409761 L569.6108909936889,389.7129625108251 M373.4362044297328,416.3468270548385 L373.4331270072048,422.78363958121787 M371.888495421491,415.4598861418533 L373.4362044297328,416.3468270548385 M371.892599272077,405.79961824353614 L371.888495421491,415.4598861418533 M458.5416919832582,455.4219801787879 L371.892599272077,405.79961824353614 M458.4866783834555,471.5468463032404 L458.5416919832582,455.4219801787879 M373.4362044297328,416.3468270548385 L253.46406106984813,485.1751131875583 M253.48767390414275,491.6274100062435 L253.46406106984813,485.1751131875583 M338.54110985122765,540.8592696834294 L338.5293753357313,524.6956519944818 M251.8804259533415,474.5961281164905 L338.5293753357313,524.6956519944818 M251.8804259533415,474.5961281164905 L251.91637973944785,484.27966096372825 M253.46406106984813,485.1751131875583 L251.91637973944785,484.27966096372825 M338.5293753357313,524.6956519944818 L458.5416919832582,455.4219801787879 M458.5416919832582,455.4219801787879 L461.319021418437,453.8188463239378 M335.72466788845765,526.3145890225211 L338.5293753357313,524.6956519944818 M159.3662850519192,421.1124190020276 L284.9711523871634,349.6392152031308 M251.91637973944785,484.27966096372825 L263.164294322362,473.7211518181761 M263.164294322362,473.7211518181761 L275.61214514560885,463.63884976823056 M275.61214514560885,463.63884976823056 L289.2011523001895,454.0773355342335 M289.2011523001895,454.0773355342335 L303.8677447863189,445.0787059478737 M303.8677447863189,445.0787059478737 L319.54388164102596,436.6824284063829 M319.54388164102596,436.6824284063829 L336.15734020462895,428.9251838925851 M336.15734020462895,428.9251838925851 L353.63206690801053,421.84075256793176 M353.63206690801053,421.84075256793176 L371.888495421491,415.4598861418533 M335.9235770216235,419.35875769399723 L347.55677783880276,414.5238731017088 M347.55677783880276,414.5238731017088 L359.55463418855675,410.0012175572811 M359.55463418855675,410.0012175572811 L371.892599272077,405.79961824353614 M335.9235770216235,419.35875769399723 L339.6197043185733,414.54818869757776 M272.9591408382152,452.7351945619938 L284.6785295886957,444.19121161697365 M284.6785295886957,444.19121161697365 L297.2509802910959,436.07367352887854 M297.2509802910959,436.07367352887854 L310.6310689671486,428.4102503565917 M310.6310689671486,428.4102503565917 L324.77078742094534,421.226977500232 M324.77078742094534,421.226977500232 L339.6197043185733,414.54818869757776 M272.9591408382152,452.7351945619938 L275.75691328284364,453.83213989040564 M251.8804259533415,474.5961281164905 L259.2960396821761,467.4625867329081 M259.2960396821761,467.4625867329081 L267.26054406282594,460.53664950619293 M267.26054406282594,460.53664950619293 L275.75691328284364,453.83213989040564 M275.75691328284364,453.83213989040564 L283.52785266744183,463.32877626702054 M283.52785266744183,463.32877626702054 L293.4109497620628,473.3927975105123 M293.4109497620628,473.3927975105123 L306.1713802327251,484.62488758773566 M306.1713802327251,484.62488758773566 L320.9398570057146,496.1076815350114 M320.65599634922836,496.2710941084133 L320.9398570057146,496.1076815350114 M320.65599634922836,496.2710941084133 L323.08299986474475,497.6726088226825 M323.08299986474475,497.6726088226825 L328.86693679831023,501.7876647826343 M328.86693679831023,501.7876647826343 L329.53879319922015,501.40061716412214 M329.53879319922015,501.40061716412214 L348.6092817016837,512.413197110393 M348.6092817016837,512.413197110393 L437.39574632272604,461.18663051872187 M418.32538664500834,450.25183075312503 L437.39574632272604,461.18663051872187 M418.32538664500834,450.25183075312503 L418.99246398374953,449.8675362893474 M418.99246398374953,449.8675362893474 L411.8696136539423,446.5501394278199 M409.44261474254455,445.1585166385305 L411.8696136539423,446.5501394278199 M409.1607511248743,445.3207795589437 L409.44261474254455,445.1585166385305 M409.1607511248743,445.3207795589437 L389.63811253647464,436.9896188332769 M389.63811253647464,436.9896188332769 L370.5205504414227,429.7609373005514 M370.5205504414227,429.7609373005514 L353.19337142976156,424.076407262862 M353.19337142976156,424.076407262862 L344.407310493032,421.54695979381955 M344.407310493032,421.54695979381955 L335.9235770216235,419.35875769399723 M335.6531105731953,439.3591077203428 L461.6232250929975,367.0830671732808 M184.15641071348273,249.29879133560976 L58.37275796680524,320.08817773199024 M426.96591745637517,434.004339691192 L424.911538162345,439.00146124142924 M424.911538162345,439.00146124142924 L422.2416461564216,444.31299659521943 M422.2416461564216,444.31299659521943 L418.99246398374953,449.8675362893474 M412.26060132972395,429.8144961354748 L413.17505747169093,431.75228567895954 M413.17505747169093,431.75228567895954 L413.7454400027357,433.800869408549 M413.7454400027357,433.800869408549 L413.9650377415557,435.86687070154994 M413.9650377415557,435.86687070154994 L413.4051625837596,441.19404266535514 M413.4051625837596,441.19404266535514 L411.8696136539423,446.5501394278199 M409.1607511248743,445.3207795589437 L411.0490022130601,437.4896849261139 M411.0490022130601,437.4896849261139 L412.26060132972395,429.8144961354748 M339.6197043185733,414.54818869757776 L324.4742849467799,410.6612384699149 M324.4742849467799,410.6612384699149 L310.4627439756396,407.9038419948478 M310.4627439756396,407.9038419948478 L299.07077806881233,406.42793753603337 M299.07077806881233,406.42793753603337 L289.45290410506124,405.90499744193903 M289.45290410506124,405.90499744193903 L281.4712871768498,406.1796839985437 M281.4712871768498,406.1796839985437 L274.9432562124255,407.1132472142461 M274.9432562124255,407.1132472142461 L269.67039637824945,408.6015429710389 M269.67039637824945,408.6015429710389 L265.73528293147626,410.4330440015344 M265.73528293147626,410.4330440015344 L262.5917198208397,412.72009537554516 M262.5917198208397,412.72009537554516 L260.2580492094771,415.44984169498275 M260.2580492094771,415.44984169498275 L258.74807274933033,418.60692050685014 M258.74807274933033,418.60692050685014 L258.0709905910199,422.17355773037866 M258.0709905910199,422.17355773037866 L258.4708956701156,427.5310480141089 M258.4708956701156,427.5310480141089 L260.5727620544265,434.03603229711376 M260.5727620544265,434.03603229711376 L264.70802155251727,441.72119804157876 M264.70802155251727,441.72119804157876 L268.43855815838293,447.1029564493092 M268.43855815838293,447.1029564493092 L272.9591408382152,452.7351945619938 M317.82265335739845,484.12864036009165 L319.0405941286045,490.432183304452 M319.0405941286045,490.432183304452 L320.9398570057146,496.1076815350114 M323.08299986474475,497.6726088226825 L321.7976420225674,493.31369841349186 M321.7976420225674,493.31369841349186 L320.58465734422015,489.3762498980976 M320.58465734422015,489.3762498980976 L319.8383652125993,487.55638700889324 M319.8383652125993,487.55638700889324 L318.8806148752218,485.73628330879706 M318.8806148752218,485.73628330879706 L317.82265335739845,484.12864036009165 M328.86693679831023,501.7876647826343 L329.26135203560045,497.8640296328289 M329.26135203560045,497.8640296328289 L330.3297284069644,493.4605996752615 M330.3297284069644,493.4605996752615 L332.05820134210563,488.63665681484287 M380.6905493524222,405.1245625203446 L373.37976808233043,409.8487190097295 M373.37976808233043,409.8487190097295 L366.0638001561034,415.62438178967136 M366.0638001561034,415.62438178967136 L359.61927531766236,421.60500072952533 M359.61927531766236,421.60500072952533 L352.7286023610362,429.02065699511684 M352.7286023610362,429.02065699511684 L346.30539030679404,437.0675478614766 M346.30539030679404,437.0675478614766 L340.5097207421017,445.57165140946165 M340.5097207421017,445.57165140946165 L335.5027778723411,454.3536640793164 M335.5027778723411,454.3536640793164 L331.6086764747866,462.8780457933142 M331.6086764747866,462.8780457933142 L328.99200492329754,470.8202534160759 M328.99200492329754,470.8202534160759 L327.9304295961987,477.4667121635581 M327.9304295961987,477.4667121635581 L328.01975823756766,480.2642059436503 M328.01975823756766,480.2642059436503 L328.39288314948374,482.2417571800388 M328.39288314948374,482.2417571800388 L329.08347326176744,484.17817899150555 M329.08347326176744,484.17817899150555 L330.00385585594955,485.8960549328989 M330.00385585594955,485.8960549328989 L331.0016346763365,487.3388542486114 M331.0016346763365,487.3388542486114 L332.05820134210563,488.63665681484287 M380.6905493524222,405.1245625203446 L370.43857660631375,394.6840605541695 M370.43857660631375,394.6840605541695 L360.1917581067123,384.24880717203047 M360.1917581067123,384.24880717203047 L349.95008896672846,373.81879784416714 M349.95008896672846,373.81879784416714 L339.71356496407026,363.394016039898 M339.71356496407026,363.394016039898 L329.482182568244,352.97448277717524 M329.482182568244,352.97448277717524 L319.2559392335778,342.56018248571183 M319.2559392335778,342.56018248571183 L309.0348297581631,332.15111046333504 M309.0348297581631,332.15111046333504 L298.81884495906763,321.7472597374393 M298.81884495906763,321.7472597374393 L288.6079916144175,311.34863245180605 M288.6079916144175,311.34863245180605 L278.40226054552573,300.95522163875046 M278.40226054552573,300.95522163875046 L268.2016425915864,290.56702034640995 M268.2016425915864,290.56702034640995 L258.0061444781888,280.18401831388013 M258.0061444781888,280.18401831388013 L247.81575713068844,269.8062333902652 M247.81575713068844,269.8062333902652 L237.6304766684388,259.43364926569296 M237.6304766684388,259.43364926569296 L227.45029925344875,249.06626203159306 M227.45029925344875,249.06626203159306 L217.2752210515721,238.7040677833106 M217.2752210515721,238.7040677833106 L207.10523823250273,228.34706262010167 M207.10523823250273,228.34706262010167 L196.9403469697699,217.99524264512797 M196.9403469697699,217.99524264512797 L186.7805328817312,207.64859795756968 M186.7805328817312,207.64859795756968 L176.62582382657746,197.30714269203241 M176.62582382657746,197.30714269203241 L166.47618431230927,186.970854939719 M166.47618431230927,186.970854939719 L156.33162108675077,176.6397368272477 M156.33162108675077,176.6397368272477 L146.19213016179955,166.31375965160214 M146.19213016179955,166.31375965160214 L136.0576870381758,155.99295723100823 M136.0576870381758,155.99295723100823 L125.92832985507602,145.67732479846143 M125.92832985507602,145.67732479846143 L120.24013545145999,139.88454139691163 M120.24013545145999,139.88454139691163 L112.79974330957532,144.68215515424507 M112.79974330957532,144.68215515424507 L105.51515289277188,150.6865579992426 M105.51515289277188,150.6865579992426 L98.5155781381261,157.79726505801008 M98.5155781381261,157.79726505801008 L91.9429092561254,165.88244455302572 M91.9429092561254,165.88244455302572 L85.931000227131,174.79330544650563 M85.931000227131,174.79330544650563 L80.6081528375853,184.36013907729193 M80.6081528375853,184.36013907729193 L76.09376628208258,194.39322960032612 M76.09376628208258,194.39322960032612 L72.49419215699851,204.68516739665628 M72.49419215699851,204.68516739665628 L69.89814309143509,215.01511663180767 M69.89814309143509,215.01511663180767 L68.3722249813066,225.1548445625991 M68.3722249813066,225.1548445625991 L67.95714452362967,234.8760103496886 M67.95714452362967,234.8760103496886 L68.17112334088108,239.51020469109974 M68.17112334088108,239.51020469109974 L68.66509582090089,243.95838098957014 M68.66509582090089,243.95838098957014 L70.24859101341121,251.41678516652703 M70.24859101341121,251.41678516652703 L72.69520588397421,258.0593644520144 M72.69520588397421,258.0593644520144 L75.95470920292041,263.7725809866762 M75.95470920292041,263.7725809866762 L79.96154623775607,268.46417940717265 M79.96154623775607,268.46417940717265 L84.63752172511818,272.06429626931777 M84.63752172511818,272.06429626931777 L89.89471299872133,274.52549041222983 M89.89471299872133,274.52549041222983 L95.63834748873012,275.8217295533143 M95.63834748873012,275.8217295533143 L101.7693790004447,275.94671643934134 M101.7693790004447,275.94671643934134 L108.18658919753693,274.91181070495225 M108.18658919753693,274.91181070495225 L114.78809186152841,272.74394504859566 M114.78809186152841,272.74394504859566 L121.47227881003516,269.483890191461 M121.47227881003516,269.483890191461 L128.87335908825844,264.6459303723326 M128.87335908825844,264.6459303723326 L136.11445377070822,258.61638928209413 M136.11445377070822,258.61638928209413 L143.0600947245464,251.50374405928275 M143.0600947245464,251.50374405928275 L149.57685905756313,243.43501803235847 M149.57685905756313,243.43501803235847 L155.53453134203153,234.5566171462325 M155.53453134203153,234.5566171462325 L160.8082062040524,225.03481292703754 M160.8082062040524,225.03481292703754 L165.28140258872568,215.05510860536248 M165.28140258872568,215.05510860536248 L168.84996861726847,204.8201582520834 M168.84996861726847,204.8201582520834 L171.42648094126932,194.5459326522158 M171.42648094126932,194.5459326522158 L172.94457154491167,184.45614254687143 M172.94457154491167,184.45614254687143 L173.36270690815286,174.77532753327444 M173.36270690815286,174.77532753327444 L172.66685007489835,165.72100354218477 M172.66685007489835,165.72100354218477 L171.09981054569195,158.27621595231065 M171.09981054569195,158.27621595231065 L168.6725623184257,151.6362031624608 M168.6725623184257,151.6362031624608 L165.4328844959193,145.9155102980291 M165.4328844959193,145.9155102980291 L161.44393346563112,141.20820752742753 M161.44393346563112,141.20820752742753 L156.7817584783746,137.58662803609843 M156.7817584783746,137.58662803609843 L151.5325284546603,135.10115511954285 M151.5325284546603,135.10115511954285 L145.78979889111002,133.7809343168467 M145.78979889111002,133.7809343168467 L139.65198399451998,133.63540452218888 M139.65198399451998,133.63540452218888 L133.22030198193596,134.6560605048964 M133.22030198193596,134.6560605048964 L126.77835178896959,136.74504439837938 M126.77835178896959,136.74504439837938 L120.24013545145999,139.88454139691163 M426.96591745637517,434.004339691192 L425.2758723274246,431.74348132827663 M425.2758723274246,431.74348132827663 L424.47448637965414,430.42084953986546 M424.47448637965414,430.42084953986546 L423.74809908058154,428.9428875110719 M423.74809908058154,428.9428875110719 L423.0778153290714,427.1325041889524 M423.0778153290714,427.1325041889524 L422.5695226211992,425.20378942987304 M422.5695226211992,425.20378942987304 L422.0915837232832,422.62498152880426 M422.0915837232832,422.62498152880426 L421.44816450434524,418.3321034591838 M421.44816450434524,418.3321034591838 L420.6223778801288,414.04370049733234 M420.6223778801288,414.04370049733234 L418.7349938087,408.4728697158548 M418.7349938087,408.4728697158548 L416.20876412984865,404.38539075096315 M416.20876412984865,404.38539075096315 L412.9006920325046,401.3021179291856 M412.9006920325046,401.3021179291856 L408.8530520652174,399.2719121224315 M408.8530520652174,399.2719121224315 L403.70822160159423,398.29421876930945 M403.70822160159423,398.29421876930945 L398.35713964648795,398.5312580430583 M398.35713964648795,398.5312580430583 L392.5270073552276,399.8507929927018 M392.5270073552276,399.8507929927018 L386.7313480471121,402.0411769680373 M386.7313480471121,402.0411769680373 L380.6905493524222,405.1245625203446 M317.82265335739845,484.12864036009165 L318.42409686123165,488.46287493372876 M318.42409686123165,488.46287493372876 L319.3709493967126,492.52034179246255 M319.3709493967126,492.52034179246255 L320.65599634922836,496.2710941084133 M332.05820134210563,488.63665681484287 L330.2651821474546,494.7886728621788 M330.2651821474546,494.7886728621788 L329.6893919771373,498.2571408427576 M329.6893919771373,498.2571408427576 L329.53879319922015,501.40061716412214 M437.39574632272604,461.18663051872187 L439.3998723561623,452.22836293616336 M439.3998723561623,452.22836293616336 L440.3867825638506,443.5989956028646 M440.3867825638506,443.5989956028646 L440.3341341694866,435.4877701325942 M440.3341341694866,435.4877701325942 L439.24220814189584,428.0729306698152 M439.24220814189584,428.0729306698152 L437.13395822713915,421.5178533850666 M437.13395822713915,421.5178533850666 L434.05462924327327,415.9674337038118 M434.05462924327327,415.9674337038118 L430.07084863232836,411.5448414294234 M430.07084863232836,411.5448414294234 L425.2692689242281,408.3487689557469 M425.2692689242281,408.3487689557469 L419.7547569478294,406.45110866207676 M419.7547569478294,406.45110866207676 L413.64816827014823,405.8952712596664 M413.64816827014823,405.8952712596664 L407.0837399889417,406.69508605454735 M407.0837399889417,406.69508605454735 L400.2061640630032,408.83432740058066 M400.2061640630032,408.83432740058066 L393.167390755881,412.2669827171328 M393.167390755881,412.2669827171328 L386.12325054222794,416.9181393797576 M386.12325054222794,416.9181393797576 L379.2299542371576,422.6856061300148 M379.2299542371576,422.6856061300148 L372.6405615304529,429.4421053969052 M372.6405615304529,429.4421053969052 L366.50151063949,437.0381159842315 M366.50151063949,437.0381159842315 L360.94927721491325,445.30519588045996 M360.94927721491325,445.30519588045996 L356.1072633505249,454.05981470066416 M356.1072633505249,454.05981470066416 L352.0829826033438,463.10752421385047 M352.0829826033438,463.10752421385047 L348.96562140774114,472.2473449673567 M348.96562140774114,472.2473449673567 L346.82402814086583,481.2763779290197 M346.82402814086583,481.2763779290197 L345.70518583989156,489.9943664983373 M345.70518583989156,489.9943664983373 L345.63317816486716,498.2082567965591 M345.63317816486716,498.2082567965591 L346.6087372108531,505.7365175058612 M346.6087372108531,505.7365175058612 L348.6092817016837,512.413197110393 M418.32538664500834,450.25183075312503 L422.74006986284456,442.79595856961186 M422.74006986284456,442.79595856961186 L425.04113188171846,438.3104178041049 M425.04113188171846,438.3104178041049 L426.96591745637517,434.004339691192 M393.1609608559947,417.8243024491129 L386.13286775118394,422.50759758981184 M386.13286775118394,422.50759758981184 L379.25637410895473,428.38532883567916 M379.25637410895473,428.38532883567916 L373.9200833613454,433.9142020777894 M373.9200833613454,433.9142020777894 L368.8609831760991,440.05660194431863 M417.39475763873395,412.1718443908433 L411.71375958752907,411.856419918991 M411.71375958752907,411.856419918991 L405.6877392633313,412.71768077112097 M405.6877392633313,412.71768077112097 L399.4836586041266,414.71784199807405 M399.4836586041266,414.71784199807405 L393.1609608559947,417.8243024491129 M417.39475763873395,412.1718443908433 L368.8609831760991,440.05660194431863 M409.44261474254455,445.1585166385305 L410.72018166386704,439.94885350036066 M410.72018166386704,439.94885350036066 L411.661851091908,434.8216261140285 M411.661851091908,434.8216261140285 L412.26060132972395,429.8144961354748 M183.20689266802373,91.09215276705493 L56.73410602615087,161.47437121313322 M368.8609831760991,440.05660194431863 L376.49527887635656,433.42750025607455 M376.49527887635656,433.42750025607455 L384.18882790379695,427.4828254250778 M384.18882790379695,427.4828254250778 L391.76025574520713,422.3623536315947 M391.76025574520713,422.3623536315947 L399.03130784981363,418.18613634631225 M399.03130784981363,418.18613634631225 L405.831125231867,415.05164182085934 M405.831125231867,415.05164182085934 L412.00032357636985,413.0314905001441 M412.00032357636985,413.0314905001441 L417.39475763873395,412.1718443908433" stroke="black"  stroke-width="4"  fill="red"/></svg>