<svg viewBox="0 0 800 800" xmlns="http://www.w3.org/2000/svg"><path d="M695.1414121842085,546.5419109439738 L689.6607286214078,529.6636031477267 M689.6607286214078,529.6636031477267 L689.7126898515698,524.1014149681693 M695.1946684974573,540.975939095917 L689.7126898515698,524.1014149681693 M695.1946684974573,540.975939095917 L695.1414121842085,546.5419109439738 M695.1414121842085,546.5419109439738 L698.1048270695826,548.8031633789473 M698.1048270695826,548.8031633789473 L700.062280069692,551.4007073613252 M700.062280069692,551.4007073613252 L700.9013975467476,554.1864758207694 M700.9013975467476,554.1864758207694 L700.5735118710188,557.0014253915019 M700.5735118710188,557.0014253915019 L699.0965983932599,559.684660498973 M699.0965983932599,559.684660498973 L696.5543783611513,562.0825681271047 M696.5543783611513,562.0825681271047 L693.0918039210674,564.057759730814 M693.0918039210674,564.057759730814 L688.9067000698117,565.4969207018099 M688.9067000698117,565.4969207018099 L684.2385819393144,566.3174261507174 M684.2385819393144,566.3174261507174 L679.3548262349377,566.4721587204386 M679.3548262349377,566.4721587204386 L674.5352142199354,565.9522014481649 M674.5352142199354,565.9522014481649 L670.055893480026,564.7874474401806 M670.055893480026,564.7874474401806 L666.1732964240575,563.0447746126594 M666.1732964240575,563.0447746126594 L663.1094982224631,560.8242060242571 M663.1094982224631,560.8242060242571 L661.0393426807959,558.253035927903 M661.0393426807959,558.253035927903 L660.0806330437667,555.478522390878 M660.0806330437667,555.478522390878 L660.2874340986161,552.659366977306 M660.2874340986161,552.659366977306 L661.6471468680124,549.9565965976863 M660.5699652468336,546.6106622326124 L661.6471468680124,549.9565965976863 M660.5699652468336,546.6106622326124 L689.6607286214078,529.6636031477267 M676.2988056923105,557.1115171670922 L677.4402217576676,557.623892342488 M677.4402217576676,557.623892342488 L678.7580992768308,557.964890037747 M678.7580992768308,557.964890037747 L680.1757956075576,558.1146631413864 M680.1757956075576,558.1146631413864 L681.6108710369026,558.0645010758387 M681.6108710369026,558.0645010758387 L682.9798201721949,557.8173039396524 M682.9798201721949,557.8173039396524 L684.2030793515387,557.3874828710615 M684.2030793515387,557.3874828710615 L685.2094823048385,556.800037267619 M685.2094823048385,556.800037267619 L685.940552507109,556.0891397789704 M685.940552507109,556.0891397789704 L686.3538609001325,555.2961650368984 M686.3538609001325,555.2961650368984 L686.4254035385468,554.467191426181 M686.4254035385468,554.467191426181 L686.151124471887,553.6504217426202 M686.151124471887,553.6504217426202 L685.5470089290002,552.8933038725388 M685.5470089290002,552.8933038725388 L684.648219659729,552.239808498713 M684.648219659729,552.239808498713 L683.5069912633403,551.7278708030038 M683.5069912633403,551.7278708030038 L682.1896481461515,551.3872118040671 M682.1896481461515,551.3872118040671 L680.772693177347,551.2376004134778 M680.772693177347,551.2376004134778 L679.3384193667184,551.2877181306507 M679.3384193667184,551.2877181306507 L677.9700969725504,551.53464558668 M677.9700969725504,551.53464558668 L676.7472161546734,551.9640734708747 M676.7472161546734,551.9640734708747 L675.7408050103406,552.5510630342351 M675.7408050103406,552.5510630342351 L675.0093419409575,553.2615460967053 M675.0093419409575,553.2615460967053 L674.595397500776,554.0542723976475 M674.595397500776,554.0542723976475 L674.5230512690989,554.8831804191802 M674.5230512690989,554.8831804191802 L674.7965947830148,555.7001118174895 M674.7965947830148,555.7001118174895 L675.4001881860459,556.457573694029 M675.4001881860459,556.457573694029 L676.2988056923105,557.1115171670922 M784.6808270797653,479.81368925642926 L660.2808105430213,552.31616249232 M784.8629371117581,465.94098458107976 L784.6808270797653,479.81368925642926 M660.3944943378167,538.4026682190076 L660.2808105430213,552.31616249232 M784.8629371117581,465.94098458107976 L660.3944943378167,538.4026682190076 M660.6154977700742,541.0446749932524 L689.7126898515698,524.1014149681693 M660.6154977700742,541.0446749932524 L660.5699652468336,546.6106622326124 M661.6929323669856,544.3898605113638 L660.332925599615,547.0920262826797 M660.332925599615,547.0920262826797 L660.1260886087443,549.9105513320561 M660.1260886087443,549.9105513320561 L661.0850227724959,552.6844447653531 M661.0850227724959,552.6844447653531 L663.1556507942569,555.2550404519059 M663.1556507942569,555.2550404519059 L666.220142651807,557.4751131472617 M666.220142651807,557.4751131472617 L670.1036149913932,559.2173969284371 M670.1036149913932,559.2173969284371 L674.5839425340266,560.3818909694485 M674.5839425340266,560.3818909694485 L679.4046351167335,560.901732205713 M679.4046351167335,560.901732205713 L684.2894830780469,560.7470341657954 M684.2894830780469,560.7470341657954 L688.9586424092372,559.9267118335663 M688.9586424092372,559.9267118335663 L693.1446766251336,558.4878721063404 M693.1446766251336,558.4878721063404 L696.6080172679381,556.5131215180529 M696.6080172679381,556.5131215180529 L699.1507955659054,554.1157494764241 M699.1507955659054,554.1157494764241 L700.6280276226007,551.4331139296777 M700.6280276226007,551.4331139296777 L700.9559742784552,548.6187936286292 M700.9559742784552,548.6187936286292 L700.1166570398084,545.8336481955685 M700.1166570398084,545.8336481955685 L698.1587552746032,543.2366853948504 M698.1587552746032,543.2366853948504 L695.1946684974573,540.975939095917 M660.6154977700742,541.0446749932524 L661.6929323669856,544.3898605113638 M676.3478938018106,551.5431811005117 L675.449072786626,550.8893837857102 M675.449072786626,550.8893837857102 L674.8453414546573,550.1320912232823 M674.8453414546573,550.1320912232823 L674.5717335860973,549.3153424552838 M674.5717335860973,549.3153424552838 L674.6440927506208,548.4866197659976 M674.6440927506208,548.4866197659976 L675.0581266250085,547.6940707306455 M675.0581266250085,547.6940707306455 L675.7897504147682,546.9837465621008 M675.7897504147682,546.9837465621008 L676.79638420432,546.3968882879883 M676.79638420432,546.3968882879883 L678.0195366549597,545.9675564597808 M678.0195366549597,545.9675564597808 L679.3881638991613,545.7206842403781 M679.3881638991613,545.7206842403781 L680.8227580795833,545.6705777345936 M680.8227580795833,545.6705777345936 L682.2400303530876,545.8201556572177 M682.2400303530876,545.8201556572177 L683.5576692958541,546.1607384539681 M683.5576692958541,546.1607384539681 L684.6991548692233,546.6725616419046 M684.6991548692233,546.6725616419046 L685.5981477245025,547.3259108586822 M685.5981477245025,547.3259108586822 L686.2024014274218,548.0828594152663 M686.2024014274218,548.0828594152663 L686.476745177006,548.8994464685256 M686.476745177006,548.8994464685256 L686.4051899612102,549.728234744619 M686.4051899612102,549.728234744619 L685.9917924235658,550.5210322234597 M685.9917924235658,550.5210322234597 L685.2605616741139,551.2317708157843 M685.2605616741139,551.2317708157843 L684.2539360810899,551.8190851299516 M684.2539360810899,551.8190851299516 L683.0304051055195,552.2488101449053 M683.0304051055195,552.2488101449053 L681.661150836851,552.4959520420753 M681.661150836851,552.4959520420753 L680.2257546835726,552.5461028986056 M680.2257546835726,552.5461028986056 L678.807740715969,552.3963632629409 M678.807740715969,552.3963632629409 L677.489567131907,552.0554417692953 M677.489567131907,552.0554417692953 L676.3478938018106,551.5431811005117 M661.6929323669856,544.3898605113638 L661.6471468680124,549.9565965976863 M676.2988056923105,557.1115171670922 L676.3478938018106,551.5431811005117 M774.7501411660571,474.8435166996531 L778.1050202825347,476.46954997095304 M778.1050202825347,476.46954997095304 L781.415548903816,478.1264092570304 M781.415548903816,478.1264092570304 L784.6808270797653,479.81368925642926 M746.4727887616978,463.01076476679174 L747.4906629384091,460.1951997043948 M747.4906629384091,460.1951997043948 L749.6888710863207,457.6201938412328 M749.6888710863207,457.6201938412328 L752.9317232982287,455.44370219300384 M752.9317232982287,455.44370219300384 L757.0196732590864,453.799080030217 M757.0196732590864,453.799080030217 L761.7016246431895,452.7870132652393 M761.7016246431895,452.7870132652393 L766.6903177031793,452.4694014077488 M766.6903177031793,452.4694014077488 L771.6797554342181,452.8656906212974 M771.6797554342181,452.8656906212974 L776.3640066080839,453.9516219346415 M776.3640066080839,453.9516219346415 L780.4555811979981,455.66077270873325 M780.4555811979981,455.66077270873325 L783.7031667273975,457.888499587456 M783.7031667273975,457.888499587456 L785.9068857803613,460.49829328496287 M785.9068857803613,460.49829328496287 L786.9307071412611,463.3300326532182 M786.9307071412611,463.3300326532182 L786.7108673582611,466.2097830943501 M786.7108673582611,466.2097830943501 L785.2600769953115,468.9603844688169 M785.2600769953115,468.9603844688169 L782.666810529958,471.4124192738634 M782.666810529958,471.4124192738634 L779.0901836926698,473.4146626817305 M779.0901836926698,473.4146626817305 L774.7501411660571,474.8435166996531 M656.4268440408134,441.8665619842696 L672.2255058152587,444.0787671296844 M672.2255058152587,444.0787671296844 L687.7791970140083,446.8297778584499 M687.7791970140083,446.8297778584499 L703.0335996394642,450.1103775851313 M703.0335996394642,450.1103775851313 L717.9353285071488,453.90953797262654 M717.9353285071488,453.90953797262654 L732.4320766034207,458.2145035341248 M732.4320766034207,458.2145035341248 L746.4727887616978,463.01076476679174 M623.6256813063558,439.05113577348385 L621.9428910796362,436.4105043181971 M621.9428910796362,436.4105043181971 L621.415997437304,433.6220602121541 M621.415997437304,433.6220602121541 L622.0751181071691,430.8492778433827 M622.0751181071691,430.8492778433827 L623.8808523091259,428.2545206418831 M623.8808523091259,428.2545206418831 L626.7268543325304,425.9894999485804 M626.7268543325304,425.9894999485804 L630.4460747659541,424.18653159974406 M630.4460747659541,424.18653159974406 L634.820718311569,422.9508144697809 M634.820718311569,422.9508144697809 L639.5949168402387,422.35440146304984 M639.5949168402387,422.35440146304984 L644.4896366048733,422.4320488603027 M644.4896366048733,422.4320488603027 L649.2188254759499,423.1792439008555 M649.2188254759499,423.1792439008555 L653.506079614174,424.55241443897273 M653.506079614174,424.55241443897273 L657.1005405720321,426.4715087681533 M657.1005405720321,426.4715087681533 L659.7916856855052,428.82449678715597 M659.7916856855052,428.82449678715597 L661.4214773152767,431.4739226045669 M661.4214773152767,431.4739226045669 L661.8938131112541,434.2648046780771 M661.8938131112541,434.2648046780771 L661.1802228327372,437.0336984228616 M661.1802228327372,437.0336984228616 L659.3217838142475,439.6182075182594 M659.3217838142475,439.6182075182594 L656.4268440408134,441.8665619842696 M474.51385241194356,456.1739982021703 L489.9357329831381,451.88724196809534 M489.9357329831381,451.88724196809534 L505.7924574503857,448.1719223133998 M505.7924574503857,448.1719223133998 L522.0220563649973,445.0419542607045 M522.0220563649973,445.0419542607045 L538.5612813961914,442.509029402375 M538.5612813961914,442.509029402375 L555.3458092861173,440.58260659057566 M555.3458092861173,440.58260659057566 L572.3104678186278,439.26987251528385 M572.3104678186278,439.26987251528385 L589.3894800030491,438.5757110850328 M589.3894800030491,438.5757110850328 L606.5166661243386,438.5027087529522 M606.5166661243386,438.5027087529522 L623.6256813063558,439.05113577348385 M541.3997182200392,494.45881187195164 L474.51385241194356,456.1739982021703 M427.1321189365017,560.3797116197484 L541.3997182200392,494.45881187195164 M360.24644870978227,521.6872063445094 L427.1321189365017,560.3797116197484 M329.2686510895701,608.7558673366987 L328.3999369265673,598.7092744597735 M328.3999369265673,598.7092744597735 L328.63228990882413,588.6633518331195 M328.63228990882413,588.6633518331195 L329.9621296993202,578.6584676204664 M329.9621296993202,578.6584676204664 L332.38149000986414,568.7346327574542 M332.38149000986414,568.7346327574542 L335.87811277936737,558.9313382535357 M335.87811277936737,558.9313382535357 L340.43550405334764,549.2874180883028 M340.43550405334764,549.2874180883028 L346.033057034533,539.8408922993784 M346.033057034533,539.8408922993784 L352.64619272661014,530.6288259689218 M352.64619272661014,530.6288259689218 L360.24644870978227,521.6872063445094 M329.2686510895701,608.7558673366987 L324.59845082970367,607.7873964892085 M324.59845082970367,607.7873964892085 L319.65738630534537,607.4995031974431 M319.65738630534537,607.4995031974431 L314.73418148589803,607.9089718553619 M314.73418148589803,607.9089718553619 L310.11656842931825,608.9919277970583 M310.11656842931825,608.9919277970583 L306.0745050872259,610.6852594591221 M306.0745050872259,610.6852594591221 L302.8446234050018,612.8901693856363 M302.8446234050018,612.8901693856363 L300.6163033637314,615.477927079219 M300.6163033637314,615.477927079219 L299.5206054606049,618.297270096501 M299.5206054606049,618.297270096501 L299.62245962696716,621.1831953018843 M299.62245962696716,621.1831953018843 L300.9167292024691,623.9665585327211 M300.9167292024691,623.9665585327211 L303.3282370091617,626.4840425186081 M303.3282370091617,626.4840425186081 L306.71615190613875,628.5876971598902 M306.71615190613875,628.5876971598902 L310.8819610041661,630.1538127786384 M310.8819610041661,630.1538127786384 L315.5812528721445,631.0901743342188 M315.5812528721445,631.0901743342188 L320.53800829022674,631.3416338341892 M320.53800829022674,631.3416338341892 L325.4610023814578,630.8933631616668 M325.4610023814578,630.8933631616668 L330.0609692817818,629.7717829148047 M330.0609692817818,629.7717829148047 L334.0677863579448,628.0429546656517 M371.1528392004243,681.0645714933847 L362.6959519384262,672.799288110127 M362.6959519384262,672.799288110127 L355.1182854758587,664.262114160381 M355.1182854758587,664.262114160381 L348.4458738581414,655.4849427933314 M348.4458738581414,655.4849427933314 L342.7012297387339,646.5004255193371 M342.7012297387339,646.5004255193371 L337.90339271251355,637.3418363875558 M337.90339271251355,637.3418363875558 L334.0677863579448,628.0429546656517 M371.1528392004243,681.0645714933847 L366.1482240062568,681.7080978889601 M366.1482240062568,681.7080978889601 L361.56305729343615,683.0497151090605 M361.56305729343615,683.0497151090605 L357.6787684245989,685.007334245195 M357.6787684245989,685.007334245195 L354.73408060602213,687.4610819807464 M354.73408060602213,687.4610819807464 L352.9103881394058,690.2605515145952 M352.9103881394058,690.2605515145952 L352.32046595766957,693.233944289931 M352.32046595766957,693.233944289931 L353.0014867971011,696.1985002134402 M353.0014867971011,696.1985002134402 L354.91238143009343,698.9718199901906 M354.91238143009343,698.9718199901906 L357.93630493155416,701.3829711577451 M357.93630493155416,701.3829711577451 L361.8875605819157,703.2832099146775 M361.8875605819157,703.2832099146775 L366.5230120156947,704.5551674711971 M366.5230120156947,704.5551674711971 L371.5570301333112,705.1202400577347 M371.5570301333112,705.1202400577347 L376.6792697253819,704.9434751723236 M376.6792697253819,704.9434751723236 L381.57383812311986,704.0358253854389 M381.57383812311986,704.0358253854389 L385.9390415249212,702.4533798256858 M385.9390415249212,702.4533798256858 L389.5060482159097,700.2939313382587 M389.5060482159097,700.2939313382587 L392.0555670913337,697.6907775178315 M400.8451287273481,703.5197483191762 L397.8608229782624,701.6038914999056 M397.8608229782624,701.6038914999056 L394.93071781981524,699.6607153793266 M394.93071781981524,699.6607153793266 L392.0555670913337,697.6907775178315 M528.2755792693919,629.251085926088 L400.8451287273481,703.5197483191762 M660.2808105430213,552.31616249232 L655.3559522177172,546.2497977146629 M655.3559522177172,546.2497977146629 L649.2851305043102,540.5426251125937 M649.2851305043102,540.5426251125937 L642.147076545944,535.266709220252 M642.147076545944,535.266709220252 L634.0338080188483,530.4885090381221 M634.0338080188483,530.4885090381221 L625.0493454545806,526.2680582833827 M625.0493454545806,526.2680582833827 L615.3084289951323,522.65827275139 M615.3084289951323,522.65827275139 L604.9350236278308,519.7043225131893 M604.9350236278308,519.7043225131893 L594.0608321528093,517.4431178636794 M594.0608321528093,517.4431178636794 L582.8236106652726,515.9028631510328 M582.8236106652726,515.9028631510328 L571.3655170016787,515.1027676542099 M571.3655170016787,515.1027676542099 L559.8314120768964,515.0527949319526 M559.8314120768964,515.0527949319526 L548.367040561672,515.7535728187241 M548.367040561672,515.7535728187241 L537.1173075951598,517.1963655624827 M537.1173075951598,517.1963655624827 L526.2245308406073,519.3631897754867 M526.2245308406073,519.3631897754867 L515.8266903603457,522.2270157109512 M515.8266903603457,522.2270157109512 L506.05575149133966,525.7520693613224 M506.05575149133966,525.7520693613224 L497.036037798361,529.8942478704314 M497.036037798361,529.8942478704314 L488.88269193603196,534.601634872934 M488.88269193603196,534.601634872934 L481.700215478781,539.8151015121312 M481.700215478781,539.8151015121312 L475.5811318821693,545.4690023190296 M475.5811318821693,545.4690023190296 L470.6047867184961,551.4919617705652 M470.6047867184961,551.4919617705652 L466.8362773422766,557.8077290523623 M466.8362773422766,557.8077290523623 L464.3255458589189,564.3361080542301 M464.3255458589189,564.3361080542301 L463.1066683774858,570.9939413589484 M463.1066683774858,570.9939413589484 L463.19732851341683,577.6961610416799 M463.19732851341683,577.6961610416799 L464.5984572701069,584.3568610449709 M464.5984572701069,584.3568610449709 L467.2941498010731,590.8903747491822 M467.2941498010731,590.8903747491822 L471.2517236215259,597.2124245379068 M471.2517236215259,597.2124245379068 L476.42209569977666,603.2412119878151 M476.42209569977666,603.2412119878151 L482.7402684647707,608.8984867321612 M482.7402684647707,608.8984867321612 L490.12613336721404,614.1106343222323 M490.12613336721404,614.1106343222323 L498.4854350832558,618.8096434513448 M498.4854350832558,618.8096434513448 L507.71097356579577,622.9340663832949 M507.71097356579577,622.9340663832949 L517.68395294477,626.4298399230422 M517.68395294477,626.4298399230422 L528.2755792693919,629.251085926088 M315.69818954510737,621.8714508053095 L314.81452152564833,621.2111386314814 M314.81452152564833,621.2111386314814 L314.2302302062134,620.446287373639 M314.2302302062134,620.446287373639 L313.9792046854776,619.6213941439751 M313.9792046854776,619.6213941439751 L314.0759752714302,618.7844040463514 M314.0759752714302,618.7844040463514 L314.5148439457533,617.9839634886036 M314.5148439457533,617.9839634886036 L315.2702736490963,617.266550585538 M315.2702736490963,617.266550585538 L316.2983013008418,616.673844195096 M316.2983013008418,616.673844195096 L317.5392119215124,616.2402335527402 M317.5392119215124,616.2402335527402 L318.9208849384447,615.990900239073 M318.9208849384447,615.990900239073 L320.3631101737364,615.9402982405129 M320.3631101737364,615.9402982405129 L321.7821239197435,616.0913673104528 M321.7821239197435,616.0913673104528 L323.09553677953033,616.4353387480612 M323.09553677953033,616.4353387480612 L324.22703315396956,616.9522645576333 M324.22703315396956,616.9522645576333 L325.1108967989844,617.6121276054444 M325.1108967989844,617.6121276054444 L325.695720381843,618.376632622299 M325.695720381843,618.376632622299 L325.9474928491176,619.2013618238523 M325.9474928491176,619.2013618238523 L325.85151278617917,620.0384076791771 M325.85151278617917,620.0384076791771 L325.4132971071129,620.8391110042976 M325.4132971071129,620.8391110042976 L324.6582332879835,621.5569334947353 M324.6582332879835,621.5569334947353 L323.6302005813199,622.1501024506441 M323.6302005813199,622.1501024506441 L322.3889151244677,622.5841226806077 M322.3889151244677,622.5841226806077 L321.00658336922345,622.833718757373 M321.00658336922345,622.833718757373 L319.56356639222906,622.8843765120207 M319.56356639222906,622.8843765120207 L318.14380928465494,622.7331434144089 M318.14380928465494,622.7331434144089 L316.829871728844,622.3888257449207 M316.829871728844,622.3888257449207 L315.69818954510737,621.8714508053095 M637.5171522876703,436.25573449416873 L636.6298636192944,435.61485289427554 M636.6298636192944,435.61485289427554 L636.0348658480577,434.87250716110805 M636.0348658480577,434.87250716110805 L635.7666731349211,434.0718846668507 M635.7666731349211,434.0718846668507 L635.8408154098645,433.25951963112857 M635.8408154098645,433.25951963112857 L636.2529119065405,432.48262730637 M636.2529119065405,432.48262730637 L636.9789817309586,431.7863187870625 M636.9789817309586,431.7863187870625 L637.976769084848,431.2110473535087 M637.976769084848,431.2110473535087 L639.1883145688639,430.7901912214978 M639.1883145688639,430.7901912214978 L640.5432033371508,430.5481917672452 M640.5432033371508,430.5481917672452 L641.9627787826628,430.49907815220683 M641.9627787826628,430.49907815220683 L643.3645917210015,430.64570372973174 M643.3645917210015,430.64570372973174 L644.6672505832969,430.9795575169737 M644.6672505832969,430.9795575169737 L645.7950649355189,431.48127784749624 M645.7950649355189,431.48127784749624 L646.6825322727768,432.1217299957688 M646.6825322727768,432.1217299957688 L647.2780380123149,432.86374465536727 M647.2780380123149,432.86374465536727 L647.5469516049216,433.6642103069225 M647.5469516049216,433.6642103069225 L647.4735779852406,434.47662865782627 M647.4735779852406,434.47662865782627 L647.0621218251028,435.2537722391809 M647.0621218251028,435.2537722391809 L646.3364173350549,435.9504724034925 M646.3364173350549,435.9504724034925 L645.3386366112309,436.52618613938864 M645.3386366112309,436.52618613938864 L644.1267375342652,436.9474339166283 M644.1267375342652,436.9474339166283 L642.7712159619468,437.1896846233887 M642.7712159619468,437.1896846233887 L641.3508734594657,437.23885155206546 M641.3508734594657,437.23885155206546 L639.9483349395298,437.09206913225887 M639.9483349395298,437.09206913225887 L638.6451581835968,436.7578842801575 M638.6451581835968,436.7578842801575 L637.5171522876703,436.25573449416873 M491.91818596217286,630.665335709981 L443.47547801616537,602.568284354267 M406.89496983628175,680.1402510174166 L491.91818596217286,630.665335709981 M443.47547801616537,602.568284354267 L358.4528212401991,651.821139320254 M358.4528212401991,651.821139320254 L406.89496983628175,680.1402510174166 M368.7076054298427,695.5568987844024 L367.815930502566,694.8887953479489 M367.815930502566,694.8887953479489 L367.224946949099,694.1149180646275 M367.224946949099,694.1149180646275 L366.9689324628271,693.2802894134071 M366.9689324628271,693.2802894134071 L367.0627065942082,692.4334204318744 M367.0627065942082,692.4334204318744 L367.5007491393614,691.6235342998475 M367.5007491393614,691.6235342998475 L368.2575657350052,690.8976547498515 M368.2575657350052,690.8976547498515 L369.28911658868293,690.2979549429353 M369.28911658868293,690.2979549429353 L370.5354819034974,689.8592296417424 M370.5354819034974,689.8592296417424 L371.92421969945156,689.6069546158612 M371.92421969945156,689.6069546158612 L373.3747145386304,689.5557569617874 M373.3747145386304,689.5557569617874 L374.80271833064046,689.708608377445 M374.80271833064046,689.708608377445 L376.1253200936004,690.0566367902516 M376.1253200936004,690.0566367902516 L377.2656706035838,690.5796590247232 M377.2656706035838,690.5796590247232 L378.15755079577787,691.2473107860051 M378.15755079577787,691.2473107860051 L378.74907140952416,692.0208356815251 M378.74907140952416,692.0208356815251 L379.0058409541035,692.8552973920717 M379.0058409541035,692.8552973920717 L378.9128669152113,693.7022231211527 M378.9128669152113,693.7022231211527 L378.4754861976556,694.5123766858018 M378.4754861976556,694.5123766858018 L377.7190415612336,695.23867309604 M377.7190415612336,695.23867309604 L376.68748757523946,695.8388436812057 M376.68748757523946,695.8388436812057 L375.44074475404886,696.2779858407525 M375.44074475404886,696.2779858407525 L374.05134157175144,696.5305282949058 M374.05134157175144,696.5305282949058 L372.6000458848993,696.581782693464 M372.6000458848993,696.581782693464 L371.17128925602685,696.4287643380045 M371.17128925602685,696.4287643380045 L369.84815512198685,696.0803835476621 M369.84815512198685,696.0803835476621 L368.7076054298427,695.5568987844024 M762.5768025972595,466.48860023140094 L761.6808311993605,465.84457619951223 M761.6808311993605,465.84457619951223 L761.0768337730417,465.0985890084661 M761.0768337730417,465.0985890084661 L760.799847833006,464.2940380253009 M760.799847833006,464.2940380253009 L760.865914101015,463.47768583685314 M760.865914101015,463.47768583685314 L761.2711253483612,462.69698195904317 M761.2711253483612,462.69698195904317 L761.9918955927387,461.9972561411216 M761.9918955927387,461.9972561411216 L762.9862811576186,461.419162652921 M762.9862811576186,461.419162652921 L764.1965198569917,460.996243357158 M764.1965198569917,460.996243357158 L765.552268187701,460.7530568291755 M765.552268187701,460.7530568291755 L766.9748241974985,460.7037036078358 M766.9748241974985,460.7037036078358 L768.3815612684398,460.8510484184179 M768.3815612684398,460.8510484184179 L769.6908021042423,461.18653856258476 M769.6908021042423,461.18653856258476 L770.8264741761586,461.69071746780867 M770.8264741761586,461.69071746780867 L771.7226299978397,462.33431411279025 M771.7226299978397,462.33431411279025 L772.3271345109767,463.07996779106367 M772.3271345109767,463.07996779106367 L772.60484326921,463.8843607754363 M772.60484326921,463.8843607754363 L772.5395499722679,464.70076667185054 M772.5395499722679,464.70076667185054 L772.1349847631566,465.4817236577281 M772.1349847631566,465.4817236577281 L771.4145856376185,466.18184400751153 M771.4145856376185,466.18184400751153 L770.420211241606,466.7603830575579 M770.420211241606,466.7603830575579 L769.2096212027357,467.1836968833945 M769.2096212027357,467.1836968833945 L767.8532395229201,467.42713651532654 M767.8532395229201,467.42713651532654 L766.4299132345088,467.4765434417324 M766.4299132345088,467.4765434417324 L765.0224454242787,467.3290406331838 M765.0224454242787,467.3290406331838 L763.7126807816683,466.99321698596077 M763.7126807816683,466.99321698596077 L762.5768025972595,466.48860023140094 M623.6626126101478,433.5131491577057 L623.6256813063558,439.05113577348385 M623.6626126101478,433.5131491577057 L634.6574978066217,434.19538765196893 M634.6574978066217,434.19538765196893 L645.5995221046535,435.13413749396426 M645.5995221046535,435.13413749396426 L656.4710457764597,436.3279347870714 M656.4710457764597,436.3279347870714 L656.4268440408134,441.8665619842696 M746.5370360972838,457.4673358088292 L746.4727887616978,463.01076476679174 M746.5370360972838,457.4673358088292 L756.2453270712049,461.177786815188 M756.2453270712049,461.177786815188 L765.6789130036595,465.1234072233565 M765.6789130036595,465.1234072233565 L774.8207271945857,469.29740757101223 M774.8207271945857,469.29740757101223 L774.7501411660571,474.8435166996531 M474.5236849784921,442.3146950238783 L491.17720537018033,437.719904003628 M491.17720537018033,437.719904003628 L508.3307624203708,433.7901476096146 M508.3307624203708,433.7901476096146 L525.906483042946,430.5425223006425 M525.906483042946,430.5425223006425 L543.8248097157405,427.99112708671817 M543.8248097157405,427.99112708671817 L562.0048026325712,426.147024517672 M562.0048026325712,426.147024517672 L580.3644714306411,425.01820622402386 M580.3644714306411,425.01820622402386 L598.821121577121,424.60955357067957 M598.821121577121,424.60955357067957 L617.2916534002263,424.9228400092862 M617.2916534002263,424.9228400092862 L635.6929294220583,425.95670534719574 M635.6929294220583,425.95670534719574 L653.942066376042,427.70667474565727 M653.942066376042,427.70667474565727 L671.9567961666778,430.1651691437739 M671.9567961666778,430.1651691437739 L689.6557699809839,433.32153849427516 M689.6557699809839,433.32153849427516 L706.9589135253016,437.16206497110994 M706.9589135253016,437.16206497110994 L723.7877183653809,441.67005634171056 M723.7877183653809,441.67005634171056 L740.0655811956519,446.8258553471154 M740.0655811956519,446.8258553471154 L755.7181593770426,452.6069533108117 M755.7181593770426,452.6069533108117 L770.6735867375983,458.9880168098135 M770.6735867375983,458.9880168098135 L784.8629371117581,465.94098458107976 M474.5236849784921,442.3146950238783 L474.51385241194356,456.1739982021703 M528.3157681232581,615.2948238607551 L528.2755792693919,629.251085926088 M528.3157681232581,615.2948238607551 L517.7181807263996,612.4751368011114 M517.7181807263996,612.4751368011114 L507.739588989001,608.9812959203707 M507.739588989001,608.9812959203707 L498.5088598944798,604.8591546091279 M498.5088598944798,604.8591546091279 L490.144856451646,600.1627468194104 M490.144856451646,600.1627468194104 L482.7548390348295,594.9534869548922 M482.7548390348295,594.9534869548922 L476.4331157238475,589.299349310345 M476.4331157238475,589.299349310345 L471.25983959323935,583.2739081321727 M471.25983959323935,583.2739081321727 L467.3000439996307,576.9553708910971 M467.3000439996307,576.9553708910971 L464.6028386168079,570.4254909903832 M464.6028386168079,570.4254909903832 L463.20092321487175,563.7684994693243 M463.20092321487175,563.7684994693243 L463.1102104256789,557.0700154013982 M463.1102104256789,557.0700154013982 L464.329767572141,550.4158969600401 M464.329767572141,550.4158969600401 L466.8419000275995,543.8911644498154 M466.8419000275995,543.8911644498154 L470.6125116082027,537.5789285404267 M470.6125116082027,537.5789285404267 L475.59163143087073,531.5593400739822 M475.59163143087073,531.5593400739822 L481.71412511452155,525.9086066541547 M481.71412511452155,525.9086066541547 L488.9006023624603,520.6980632054995 M488.9006023624603,520.6980632054995 L497.0584879243659,515.9933177286287 M497.0584879243659,515.9933177286287 L506.0832220441602,511.8534652249042 M506.0832220441602,511.8534652249042 L515.8595982419188,508.330392250474 M515.8595982419188,508.330392250474 L526.263224279222,505.4681762771523 M526.263224279222,505.4681762771523 L537.1620621208601,503.302570680328 M537.1620621208601,503.302570680328 L548.4180558406385,501.86058959287976 M548.4180558406385,501.86058959287976 L559.8888096214573,501.1602060024967 M559.8888096214573,501.1602060024967 L571.4293387883483,501.2101506058791 M571.4293387883483,501.2101506058791 L582.8938186546493,502.00979593188254 M582.8938186546493,502.00979593188254 L594.1373086965878,503.54918418744364 M594.1373086965878,503.54918418744364 L605.0175728187423,505.8091172010692 M605.0175728187423,505.8091172010692 L615.396778899129,508.7614069140858 M615.396778899129,508.7614069140858 L625.1431512081683,512.3691643138477 M625.1431512081683,512.3691643138477 L634.1326558228163,516.5872453201761 M634.1326558228163,516.5872453201761 L642.250488460139,521.3627645100255 M642.250488460139,521.3627645100255 L649.3925700645136,526.6357225259558 M649.3925700645136,526.6357225259558 L655.466830773996,532.3396982833808 M655.466830773996,532.3396982833808 L660.3944943378167,538.4026682190076 M541.4467719023032,480.5778299188143 L474.5236849784921,442.3146950238783 M427.11554854627974,546.461709954265 L541.4467719023032,480.5778299188143 M360.19265753245753,507.7908862933798 L427.11554854627974,546.461709954265 M400.81350480547763,689.5227041310387 L388.5047547956273,681.2013686338685 M388.5047547956273,681.2013686338685 L377.21783709618967,672.4189450240385 M377.21783709618967,672.4189450240385 L367.0045989871424,663.2183424116309 M367.0045989871424,663.2183424116309 L357.91140872023186,653.6443791093764 M357.91140872023186,653.6443791093764 L349.9789509739423,643.7434489426485 M349.9789509739423,643.7434489426485 L343.24216098063516,633.5633319566487 M343.24216098063516,633.5633319566487 L337.73001960997243,623.1529229292039 M337.73001960997243,623.1529229292039 L333.46554854324324,612.5619690888902 M333.46554854324324,612.5619690888902 L330.46567040428454,601.8408389046228 M330.46567040428454,601.8408389046228 L328.74124336597725,591.0402551947002 M328.74124336597725,591.0402551947002 L328.29705512209927,580.2110627095203 M328.29705512209927,580.2110627095203 L329.13186965298877,569.4039670847717 M329.13186965298877,569.4039670847717 L331.23846911103965,558.6693201063575 M331.23846911103965,558.6693201063575 L334.6037846563282,548.0568671363814 M334.6037846563282,548.0568671363814 L339.20898482026615,537.6155418820458 M339.20898482026615,537.6155418820458 L345.02964389345607,527.3932409591919 M345.02964389345607,527.3932409591919 L352.0359056811463,517.4366151890744 M352.0359056811463,517.4366151890744 L360.19265753245753,507.7908862933798 M528.3157681232581,615.2948238607551 L400.81350480547763,689.5227041310387 M491.93794122280553,616.7082924374625 L443.4680182176312,588.6267950229309 M406.8668189344326,666.1559915433064 L491.93794122280553,616.7082924374625 M443.4680182176312,588.6267950229309 L358.397456224386,637.8524313559132 M358.397456224386,637.8524313559132 L406.8668189344326,666.1559915433064 M746.5370360972838,457.4673358088292 L747.555121325576,454.6524092240599 M747.555121325576,454.6524092240599 L749.7538033347305,452.07798753655004 M749.7538033347305,452.07798753655004 L752.997362848052,449.90198984099027 M752.997362848052,449.90198984099027 L757.0862099953372,448.2577410363146 M757.0862099953372,448.2577410363146 L761.7691934038332,447.24590407648634 M761.7691934038332,447.24590407648634 L766.758990145328,446.9283643451721 M766.758990145328,446.9283643451721 L771.7495356997024,447.3245635663372 M771.7495356997024,447.3245635663372 L776.434831093356,448.4102483069661 M776.434831093356,448.4102483069661 L780.5273223495374,450.1190110851484 M780.5273223495374,450.1190110851484 L783.7756407486186,452.34623240280854 M783.7756407486186,452.34623240280854 L785.9798637388672,454.95543405930715 M785.9798637388672,454.95543405930715 L787.0039288854343,457.78653131374114 M787.0039288854343,457.78653131374114 L786.7840573942535,460.66562904923575 M786.7840573942535,460.66562904923575 L785.3329614120375,463.41560726790885 M785.3329614120375,463.41560726790885 L782.7391338884731,465.8670867869756 M782.7391338884731,465.8670867869756 L779.1617248882326,467.86887692823893 M779.1617248882326,467.86887692823893 L774.8207271945857,469.29740757101223 M623.6626126101478,433.5131491577057 L621.9794420820222,430.87311877195555 M621.9794420820222,430.87311877195555 L621.4524236025372,428.085309652574 M621.4524236025372,428.085309652574 L622.1116818769124,425.313158980513 M622.1116818769124,425.313158980513 L623.9178077220101,422.71899316772084 M623.9178077220101,422.71899316772084 L626.7644322331757,420.4544889080566 M626.7644322331757,420.4544889080566 L630.4844694045094,418.6519317746445 M630.4844694045094,418.6519317746445 L634.8600761376138,417.41649655055187 M634.8600761376138,417.41649655055187 L639.6353280717478,416.82021962394816 M639.6353280717478,416.82021962394816 L644.5311300492326,416.8978493041183 M644.5311300492326,416.8978493041183 L649.261366868529,417.6448738655756 M649.261366868529,417.6448738655756 L653.5495735916334,419.017731155021 M653.5495735916334,419.017731155021 L657.1448361252969,420.9363878123069 M657.1448361252969,420.9363878123069 L659.8365848717176,423.28883938516793 M659.8365848717176,423.28883938516793 L661.4667466756864,425.9376614107403 M661.4667466756864,425.9376614107403 L661.9391972276578,428.72790772749295 M661.9391972276578,428.72790772749295 L661.2254592164311,431.49617100050455 M661.2254592164311,431.49617100050455 L659.3666183032026,434.0800918562999 M659.3666183032026,434.0800918562999 L656.4710457764597,436.3279347870714 M541.3997182200392,494.45881187195164 L541.4467719023032,480.5778299188143 M427.1321189365017,560.3797116197484 L427.11554854627974,546.461709954265 M360.19265753245753,507.7908862933798 L360.24644870978227,521.6872063445094 M400.81350480547763,689.5227041310387 L400.8451287273481,703.5197483191762 M392.0409413542521,692.0951304410586 L392.0555670913337,697.6907775178315 M392.0409413542521,692.0951304410586 L384.6595925176194,686.7262807990012 M384.6595925176194,686.7262807990012 L377.6862762963893,681.1818782788259 M377.6862762963893,681.1818782788259 L371.1335153062237,675.4725588554555 M371.1335153062237,675.4725588554555 L371.1528392004243,681.0645714933847 M334.04020960478925,622.4625986246018 L334.0677863579448,628.0429546656517 M334.04020960478925,622.4625986246018 L331.9849768583827,616.0697142879112 M331.9849768583827,616.0697142879112 L330.3842506084725,609.6384833350596 M330.3842506084725,609.6384833350596 L329.2400399272244,603.1797764992401 M329.2400399272244,603.1797764992401 L329.2686510895701,608.7558673366987 M334.04020960478925,622.4625986246018 L330.03248812515943,624.1910452071781 M330.03248812515943,624.1910452071781 L325.43148466511093,625.3123779045407 M325.43148466511093,625.3123779045407 L320.50738285630234,625.7605496496564 M320.50738285630234,625.7605496496564 L315.5495138245248,625.509145642583 M315.5495138245248,625.509145642583 L310.8491680545022,624.5729907462521 M310.8491680545022,624.5729907462521 L306.68242681152515,623.0072208466256 M306.68242681152515,623.0072208466256 L303.2937562896507,620.9040307243497 M303.2937562896507,620.9040307243497 L300.881713639969,618.3871028459413 M300.881713639969,618.3871028459413 L299.58716113961214,615.6043547194207 M299.58716113961214,615.6043547194207 L299.4852922384423,612.7190675772839 M299.4852922384423,612.7190675772839 L300.58124409142226,609.9003481907505 M300.58124409142226,609.9003481907505 L302.8100715594704,607.3131631528413 M302.8100715594704,607.3131631528413 L306.0406841936635,605.1087413495475 M306.0406841936635,605.1087413495475 L310.08365912668387,603.4157846758347 M310.08365912668387,603.4157846758347 L314.70231110501265,602.3330686086888 M314.70231110501265,602.3330686086888 L319.62662157068354,601.9236906589658 M319.62662157068354,601.9236906589658 L324.56879402203975,602.2115201740842 M324.56879402203975,602.2115201740842 L329.2400399272244,603.1797764992401 M392.0409413542521,692.0951304410586 L389.49084318414594,694.6977161176183 M389.49084318414594,694.6977161176183 L385.92302749236796,696.8566934852643 M385.92302749236796,696.8566934852643 L381.55683511241375,698.4387939142673 M381.55683511241375,698.4387939142673 L376.66115875464544,699.3462457836276 M376.66115875464544,699.3462457836276 L371.5377606771062,699.5229721280193 M371.5377606771062,699.5229721280193 L366.50260519160435,698.9580227512987 M366.50260519160435,698.9580227512987 L361.86610781061506,697.6863425774409 M361.86610781061506,697.6863425774409 L357.91396220978265,695.7865183239587 M357.91396220978265,695.7865183239587 L354.88935955393396,693.3758932927929 M354.88935955393396,693.3758932927929 L352.97803820766205,690.6031789389771 M352.97803820766205,690.6031789389771 L352.29686904227367,687.6392704908271 M352.29686904227367,687.6392704908271 L352.8869300316161,684.6665274375221 M352.8869300316161,684.6665274375221 L354.7110395075561,681.8676699112299 M354.7110395075561,681.8676699112299 L357.6563966034449,679.4144588342568 M357.6563966034449,679.4144588342568 L361.5415657231444,677.4572680034145 M361.5415657231444,677.4572680034145 L366.1277695913155,676.1159443936239 M366.1277695913155,676.1159443936239 L371.1335153062237,675.4725588554555 M315.69818954510737,621.8714508053095 L315.6665001191289,616.292458097206 M315.6665001191289,616.292458097206 L316.79843520722903,616.809718692226 M316.79843520722903,616.809718692226 L318.1126670612799,617.153960269683 M318.1126670612799,617.153960269683 L319.53274273064375,617.3051599470789 M319.53274273064375,617.3051599470789 L320.9760839941734,617.2545133869337 M320.9760839941734,617.2545133869337 L322.3587268806445,617.0049724680011 M322.3587268806445,617.0049724680011 L323.6002922133096,616.5710481567868 M323.6002922133096,616.5710481567868 L324.6285572525335,615.978010302525 M324.6285572525335,615.978010302525 L325.38379236510593,615.2603464814198 M325.38379236510593,615.2603464814198 L325.82210835097226,614.4598201676315 M325.82210835097226,614.4598201676315 L325.91811193511376,613.6229593824611 M325.91811193511376,613.6229593824611 L325.6662848653515,612.7984125524404 M325.6662848653515,612.7984125524404 L325.081331759569,612.0340766115953 M325.081331759569,612.0340766115953 L324.1972712140512,611.3743595142953 M324.1972712140512,611.3743595142953 L323.0655220176134,610.8575480508523 M323.0655220176134,610.8575480508523 L321.75181509443587,610.5136527064607 M321.75181509443587,610.5136527064607 L320.3324831201625,610.3626170572984 M320.3324831201625,610.3626170572984 L318.8899339541316,610.4132078611651 M318.8899339541316,610.4132078611651 L317.5079501025302,610.6624860160998 M317.5079501025302,610.6624860160998 L316.2667597754329,611.0960007383039 M316.2667597754329,611.0960007383039 L315.23849979453365,611.688576025515 M315.23849979453365,611.688576025515 L314.48289863439385,612.4058302578458 M314.48289863439385,612.4058302578458 L314.04392936058326,613.2060938033617 M314.04392936058326,613.2060938033617 L313.9471348984528,614.0428988306398 M313.9471348984528,614.0428988306398 L314.1982146857368,614.8676096893332 M314.1982146857368,614.8676096893332 L314.7826352881469,615.6322918723513 M314.7826352881469,615.6322918723513 L315.6665001191289,616.292458097206 M637.5171522876703,436.25573449416873 L637.5571493222121,430.71838418492166 M637.5571493222121,430.71838418492166 L638.685406477716,431.22041964781727 M638.685406477716,431.22041964781727 L639.9888727289399,431.5545284219635 M639.9888727289399,431.5545284219635 L641.3917221294132,431.7012774276785 M641.3917221294132,431.7012774276785 L642.8123788061641,431.6521216914567 M642.8123788061641,431.6521216914567 L644.1681995556692,431.4099261323829 M644.1681995556692,431.4099261323829 L645.3803654084779,430.988774256018 M645.3803654084779,430.988774256018 L646.378364981922,430.4131915968661 M646.378364981922,430.4131915968661 L647.1042276833584,429.71665007101774 M647.1042276833584,429.71665007101774 L647.5157722297974,428.93968346561564 M647.5157722297974,428.93968346561564 L647.5891593034244,428.127450146814 M647.5891593034244,428.127450146814 L647.320183478274,427.32716682823195 M647.320183478274,427.32716682823195 L646.7245434647632,426.58532120795417 M646.7245434647632,426.58532120795417 L645.8368776300274,425.9450149777945 M645.8368776300274,425.9450149777945 L644.7088121044208,425.4434089675473 M644.7088121044208,425.4434089675473 L643.4058639771276,425.1096312560883 M643.4058639771276,425.1096312560883 L642.0037404798788,424.96303909162594 M642.0037404798788,424.96303909162594 L640.5838511993823,425.01214151455906 M640.5838511993823,425.01214151455906 L639.2286635331234,425.25408582277373 M639.2286635331234,425.25408582277373 L638.016851428448,425.67484605647945 M638.016851428448,425.67484605647945 L637.0188452205366,426.249986416191 M637.0188452205366,426.249986416191 L636.2926170217515,426.94613629960475 M636.2926170217515,426.94613629960475 L635.880431854559,427.72285165005945 M635.880431854559,427.72285165005945 L635.8062757853229,428.5350316540292 M635.8062757853229,428.5350316540292 L636.0745304124978,429.3354718142844 M636.0745304124978,429.3354718142844 L636.6696622340035,430.07764850595896 M636.6696622340035,430.07764850595896 L637.5571493222121,430.71838418492166 M443.47547801616537,602.568284354267 L443.4680182176312,588.6267950229309 M491.91818596217286,630.665335709981 L491.93794122280553,616.7082924374625 M406.89496983628175,680.1402510174166 L406.8668189344326,666.1559915433064 M358.4528212401991,651.821139320254 L358.397456224386,637.8524313559132 M368.7076054298427,695.5568987844024 L368.6877067787714,689.9617176124989 M368.6877067787714,689.9617176124989 L369.82851335772347,690.4850880645004 M369.82851335772347,690.4850880645004 L371.151945926712,690.8333927857808 M371.151945926712,690.8333927857808 L372.5810251694923,690.9863777310073 M372.5810251694923,690.9863777310073 L374.0326488743992,690.9351345233098 M374.0326488743992,690.9351345233098 L375.42236638041237,690.6826472105298 M375.42236638041237,690.6826472105298 L376.6693915460518,690.2436009409097 M376.6693915460518,690.2436009409097 L377.7011794646918,689.6435614186016 M377.7011794646918,689.6435614186016 L378.4577960332573,688.9174236313537 M378.4577960332573,688.9174236313537 L378.89527669913355,688.1074470264053 M378.89527669913355,688.1074470264053 L378.9882729239006,687.2607063142418 M378.9882729239006,687.2607063142418 L378.73144654382406,686.4264269229229 M378.73144654382406,686.4264269229229 L378.13979340670403,685.6530710550225 M378.13979340670403,685.6530710550225 L377.24771271869076,684.985565203636 M377.24771271869076,684.985565203636 L376.10710540911407,684.4626572826144 M376.10710540911407,684.4626572826144 L374.78420545123004,684.1147049414732 M374.78420545123004,684.1147049414732 L373.3558793852343,683.9618869372819 M373.3558793852343,683.9618869372819 L371.9050568899529,684.0130734000759 M371.9050568899529,684.0130734000759 L370.5160050713432,684.265293282608 M370.5160050713432,684.265293282608 L369.26935758328483,684.7039226907942 M369.26935758328483,684.7039226907942 L368.2375727990845,685.3034914313749 M368.2375727990845,685.3034914313749 L367.4805841038524,686.0292123553007 M367.4805841038524,686.0292123553007 L367.0424413117308,686.8389215256511 M367.0424413117308,686.8389215256511 L366.9486446330345,687.6856054898474 M366.9486446330345,687.6856054898474 L367.2047156133758,688.5200518230732 M367.2047156133758,688.5200518230732 L367.7958314470133,689.2937600813784 M367.7958314470133,689.2937600813784 L368.6877067787714,689.9617176124989 M762.5768025972595,466.48860023140094 L762.6446404680114,460.9443830071893 M762.6446404680114,460.9443830071893 L763.7807734106841,461.4488854242498 M763.7807734106841,461.4488854242498 L765.0908304760812,461.7846329846577 M765.0908304760812,461.7846329846577 L766.4986113547577,461.9321023751024 M766.4986113547577,461.9321023751024 L767.9222531383161,461.8827066421984 M767.9222531383161,461.8827066421984 L769.2789343712066,461.63932216458124 M769.2789343712066,461.63932216458124 L770.4897905959563,461.2161042508856 M770.4897905959563,461.2161042508856 L771.484382319215,460.6376962934612 M771.484382319215,460.6376962934612 L772.2049372900469,459.9377346017683 M772.2049372900469,459.9377346017683 L772.6095878145534,459.15695461355625 M772.6095878145534,459.15695461355625 L772.6748909674241,458.34073377240844 M772.6748909674241,458.34073377240844 L772.3971160619067,457.5365231437099 M772.3971160619067,457.5365231437099 L771.7924732709221,456.79103852565447 M771.7924732709221,456.79103852565447 L770.8961150893933,456.147587817787 M770.8961150893933,456.147587817787 L769.7601883510347,455.6435232467422 M769.7601883510347,455.6435232467422 L768.4506553266804,455.30810918774466 M768.4506553266804,455.30810918774466 L767.0436055123535,455.1607977944869 M767.0436055123535,455.1607977944869 L765.6207343488336,455.21013982258955 M765.6207343488336,455.21013982258955 L764.2646867446181,455.4532711975063 M764.2646867446181,455.4532711975063 L763.0541820130379,455.8760945830751 M763.0541820130379,455.8760945830751 L762.0595791134785,456.45405698085256 M762.0595791134785,456.45405698085256 L761.3386528569713,457.15362414263063 M761.3386528569713,457.15362414263063 L760.9333560062162,457.9341510240242 M760.9333560062162,457.9341510240242 L760.8672795390621,458.7503181574705 M760.8672795390621,458.7503181574705 L761.1443313065922,459.5546867841818 M761.1443313065922,459.5546867841818 L761.7484667876518,460.30050491336436 M761.7484667876518,460.30050491336436 L762.6446404680114,460.9443830071893" stroke="black"  stroke-width="4"  fill="red"/>
<path d="M425.51564949329224,437.4158039331376 L421.94205195214465,435.3687706801109 M421.94205195214465,435.3687706801109 L323.99989593705703,491.2912178812809 M323.99989593705703,491.2912178812809 L327.5733700680325,493.35685535363785 M425.51564949329224,437.4158039331376 L327.5733700680325,493.35685535363785 M421.94205195214465,435.3687706801109 L421.9227758266427,421.52130358204687 M425.49834804910387,423.5671705575652 L421.9227758266427,421.52130358204687 M425.51564949329224,437.4158039331376 L425.49834804910387,423.5671705575652 M323.99989593705703,491.2912178812809 L323.9260873981114,477.41202459072144 M421.9227758266427,421.52130358204687 L323.9260873981114,477.41202459072144 M327.50153600483446,479.47649554624076 L327.5733700680325,493.35685535363785 M323.9260873981114,477.41202459072144 L327.50153600483446,479.47649554624076 M425.49834804910387,423.5671705575652 L327.50153600483446,479.47649554624076" stroke="black"  stroke-width="4"  fill="red"/>
<path d="M434.6553224661395,460.871712878663 L444.66734719631165,466.61528154782576 M368.65091899994457,498.65867957950167 L434.6553224661395,460.871712878663 M368.65091899994457,498.65867957950167 L378.6628013523675,504.43742634389594 M378.6628013523675,504.43742634389594 L390.0136882936922,495.84214605365514 M390.0136882936922,495.84214605365514 L402.3508112675035,487.7267632739086 M402.3508112675035,487.7267632739086 L415.6148976440316,480.1280564951279 M415.6148976440316,480.1280564951279 L429.7427093150168,473.0803295829165 M429.7427093150168,473.0803295829165 L444.66734719631165,466.61528154782576 M440.6286576002405,443.5868808660687 L439.08149166702697,449.34108241458466 M439.08149166702697,449.34108241458466 L437.08232741770246,455.12587508480544 M437.08232741770246,455.12587508480544 L434.6553224661395,460.871712878663 M444.66734719631165,466.61528154782576 L448.4509176657508,459.1261744170058 M448.4509176657508,459.1261744170058 L450.31130592477604,454.5158840071004 M450.31130592477604,454.5158840071004 L451.78787866551954,449.9778346958939 M440.6286576002405,443.5868808660687 L451.78787866551954,449.9778346958939 M440.6286576002405,443.5868808660687 L362.57628265468924,488.22107359708923 M368.65091899994457,498.65867957950167 L366.1892230219527,495.69727650618785 M366.1892230219527,495.69727650618785 L364.1559905405343,492.2040760468874 M364.1559905405343,492.2040760468874 L362.57628265468924,488.22107359708923 M362.57628265468924,488.22107359708923 L373.73531802002856,494.6583425070272 M373.73531802002856,494.6583425070272 L375.4648627512608,499.52694456437314 M375.4648627512608,499.52694456437314 L376.91214637048193,502.15774530662566 M376.91214637048193,502.15774530662566 L378.6628013523675,504.43742634389594 M373.73531802002856,494.6583425070272 L384.46966584238737,485.97259766322685 M384.46966584238737,485.97259766322685 L396.19099566648623,477.736217572893 M396.19099566648623,477.736217572893 L408.8442327269714,469.98562761499346 M408.8442327269714,469.98562761499346 L422.37040544057095,462.7549658701787 M422.37040544057095,462.7549658701787 L436.706928979062,456.0759651146049 M436.706928979062,456.0759651146049 L451.78787866551954,449.9778346958939" stroke="black"  stroke-width="4"  fill="red"/>
<path d="M530.7339833723449,352.54802545171606 L529.3143186108741,354.58468189631526 M529.3143186108741,354.58468189631526 L433.5151629646732,300.33873206319174 M433.5940969417511,385.7139701105342 L433.5151629646732,300.33873206319174 M433.5940969417511,385.7139701105342 L266.92155526242266,178.82289650036682 M322.65077999975233,94.87975994226531 L266.92155526242266,178.82289650036682 M530.7339833723449,352.54802545171606 L322.65077999975233,94.87975994226531 M415.84467287158014,418.0362038225335 L530.7339833723449,352.54802545171606 M414.4379987767006,420.072014766461 L415.84467287158014,418.0362038225335 M414.4379987767006,420.072014766461 L529.3143186108741,354.58468189631526 M318.64039485012626,365.2460384386536 L414.4379987767006,420.072014766461 M334.57677608375013,356.24155820139606 L318.64039485012626,365.2460384386536 M334.57677608375013,356.24155820139606 L347.208611700658,361.30924417305295 M347.208611700658,361.30924417305295 L359.9611236630525,365.64601361012626 M359.9611236630525,365.64601361012626 L372.10942388997535,369.04988581389784 M372.10942388997535,369.04988581389784 L383.62436772127285,371.5878868801861 M383.62436772127285,371.5878868801861 L394.3152525634859,373.2834713955114 M394.3152525634859,373.2834713955114 L404.0530580150192,374.18933174169507 M404.0530580150192,374.18933174169507 L412.76971888067163,374.37746409305623 M412.76971888067163,374.37746409305623 L420.4514269452002,373.92805255877414 M420.4514269452002,373.92805255877414 L427.1269971808447,372.91837577297287 M427.1269971808447,372.91837577297287 L432.85239900595997,371.41285368765455 M432.85239900595997,371.41285368765455 L436.25646255729123,370.12058555427745 M436.25646255729123,370.12058555427745 L439.29618603389304,368.6074033267718 M439.29618603389304,368.6074033267718 L443.3665628172446,365.74648347014414 M443.3665628172446,365.74648347014414 L446.42683214372556,362.3712520040666 M446.42683214372556,362.3712520040666 L448.48966783963095,358.3913578140692 M448.48966783963095,358.3913578140692 L449.4297967834492,353.7914943745526 M449.4297967834492,353.7914943745526 L449.1059054319143,348.5415760846071 M449.1059054319143,348.5415760846071 L447.3534953236608,342.6364643754134 M447.3534953236608,342.6364643754134 L444.01153895198496,336.10757025504336 M444.01153895198496,336.10757025504336 L438.9510203147061,329.0309666687269 M438.9510203147061,329.0309666687269 L432.1025435544615,321.53103752296596 M432.1025435544615,321.53103752296596 L425.3718400979205,315.3648024268643 M425.3718400979205,315.3648024268643 L417.7238812345478,309.2612272128355 M433.5151629646732,300.33873206319174 L417.7238812345478,309.2612272128355 M319.11164095683154,450.8525064904401 L318.64039485012626,365.2460384386536 M334.57677608375013,356.24155820139606 L333.63847501171114,365.26713107514513 M333.63847501171114,365.26713107514513 L333.6587705804717,373.8460329106156 M333.6587705804717,373.8460329106156 L334.4994511907661,381.04528154801187 M334.4994511907661,381.04528154801187 L336.099383803439,387.57713527493354 M336.099383803439,387.57713527493354 L338.41762135345806,393.31661567028164 M338.41762135345806,393.31661567028164 L341.3958124669934,398.1635538663836 M341.3958124669934,398.1635538663836 L344.96202038185515,402.0446354642422 M344.96202038185515,402.0446354642422 L349.0351006561143,404.91335514762403 M349.0351006561143,404.91335514762403 L353.52912241252244,406.7478166046067 M353.52912241252244,406.7478166046067 L358.35730252751347,407.5470926606654 M358.35730252751347,407.5470926606654 L363.43498249029466,407.326684651773 M363.43498249029466,407.326684651773 L368.6814058479148,406.1139544881197 M368.6814058479148,406.1139544881197 L374.020185015206,403.94414067020926 M374.020185015206,403.94414067020926 L379.37861112082584,400.857669003385 M379.37861112082584,400.857669003385 L385.269014781347,396.4079863009365 M385.269014781347,396.4079863009365 L390.9991426248575,390.9507414635578 M390.9991426248575,390.9507414635578 L396.4701018224892,384.56468260985025 M396.4701018224892,384.56468260985025 L401.57878773876604,377.3440351909461 M401.57878773876604,377.3440351909461 L406.21801192572315,369.40378626495766 M406.21801192572315,369.40378626495766 L410.2788526445315,360.8839186909187 M410.2788526445315,360.8839186909187 L413.65512150606037,351.9513098617916 M413.65512150606037,351.9513098617916 L416.2494516433933,342.7982781032348 M416.2494516433933,342.7982781032348 L417.98019462280143,333.637705713905 M417.98019462280143,333.637705713905 L418.78812229466786,324.69471717530195 M418.78812229466786,324.69471717530195 L418.6779391827102,316.69268462026605 M418.6779391827102,316.69268462026605 L417.7238812345478,309.2612272128355 M319.11164095683154,450.8525064904401 L433.5940969417511,385.7139701105342 M319.11164095683154,450.8525064904401 L151.93434600461927,242.65413530192694 M266.92155526242266,178.82289650036682 L151.93434600461927,242.65413530192694 M207.12410265791985,158.72830901239985 L322.65077999975233,94.87975994226531 M151.93434600461927,242.65413530192694 L207.12410265791985,158.72830901239985 M257.6063465376561,137.970546045778 L263.9106826067777,134.70085162086872 M263.9106826067777,134.70085162086872 L269.63101908520207,132.18258173277525 M269.63101908520207,132.18258173277525 L274.6508047357737,130.46647663502904 M274.6508047357737,130.46647663502904 L278.86822988779284,129.5866553897476 M278.86822988779284,129.5866553897476 L282.1982051004298,129.55992752486395 M282.1982051004298,129.55992752486395 L284.5740584573675,130.38563479627055 M284.5740584573675,130.38563479627055 L285.94882290726184,132.04566081257576 M285.94882290726184,132.04566081257576 L286.296017784985,134.5049664032034 M286.296017784985,134.5049664032034 L285.6101541646404,137.71238874063363 M285.6101541646404,137.71238874063363 L283.9066352305899,141.60180149218553 M283.9066352305899,141.60180149218553 L281.2213690944395,146.09349438452972 M281.2213690944395,146.09349438452972 L277.6099567773898,151.09579900878867 M277.6099567773898,151.09579900878867 L273.1464011627386,156.5070538630746 M273.1464011627386,156.5070538630746 L267.9216867283559,162.2176338194386 M267.9216867283559,162.2176338194386 L262.0418002120824,168.11207550490536 M262.0418002120824,168.11207550490536 L255.62571008911803,174.07150249701368 M255.62571008911803,174.07150249701368 L248.80288866577678,179.97579460439877 M248.80288866577678,179.97579460439877 L241.7108801472143,185.70603584058193 M241.7108801472143,185.70603584058193 L234.49252364067405,191.14677980667452 M234.49252364067405,191.14677980667452 L227.29321505313936,196.18841766813517 M227.29321505313936,196.18841766813517 L220.25808240989548,200.72910706129505 M220.25808240989548,200.72910706129505 L213.52909313567878,204.67702941403073 M213.52909313567878,204.67702941403073 L207.2423064162739,207.95198640438954 M207.2423064162739,207.95198640438954 L201.52516667200948,210.48719699463564 M201.52516667200948,210.48719699463564 L196.4939655134529,212.230486162359 M196.4939655134529,212.230486162359 L192.25143848115218,213.14561624367718 M192.25143848115218,213.14561624367718 L188.88470780975638,213.21283334182777 M188.88470780975638,213.21283334182777 L186.463423545947,212.42957817016173 M186.463423545947,212.42957817016173 L185.03823320868761,210.81050637024364 M185.03823320868761,210.81050637024364 L184.6397026444941,208.38736088492507 M184.6397026444941,208.38736088492507 L185.2774791814508,205.20831244173553 M185.2774791814508,205.20831244173553 L186.94005576495618,201.3372513664022 M186.94005576495618,201.3372513664022 L189.5948231352457,196.85239081490693 M189.5948231352457,196.85239081490693 L193.1887034057053,191.84481297275238 M193.1887034057053,191.84481297275238 L197.64906190353503,186.41663924204144 M197.64906190353503,186.41663924204144 L202.885191217046,180.6788755544999 M202.885191217046,180.6788755544999 L208.7901794550242,174.7491249915461 M208.7901794550242,174.7491249915461 L215.24302497451507,168.74918692386666 M215.24302497451507,168.74918692386666 L222.11127771453985,162.8024421956763 M222.11127771453985,162.8024421956763 L229.25371293865877,157.03126763915947 M229.25371293865877,157.03126763915947 L236.52340572160992,151.55436329324078 M236.52340572160992,151.55436329324078 L243.77080189741696,146.484351360788 M243.77080189741696,146.484351360788 L250.84687672370293,141.9252891809503 M250.84687672370293,141.9252891809503 L257.6063465376561,137.970546045778 M415.84467287158014,418.0362038225335 L207.12410265791985,158.72830901239985 M439.29618603389304,368.6074033267718 L431.3712006323415,358.54743945961457 M431.3712006323415,358.54743945961457 L423.448532746541,348.49041824742545 M423.448532746541,348.49041824742545 L415.5281847670868,338.43631893977334 M415.5281847670868,338.43631893977334 L407.6101511509889,328.3851804650661 M407.6101511509889,328.3851804650661 L399.6944331490493,318.3369814270535 M399.6944331490493,318.3369814270535 L391.7810297456211,308.2917205364748 M391.7810297456211,308.2917205364748 L383.8699445047879,298.2493991032875 M383.8699445047879,298.2493991032875 L375.9611672514625,288.21001064029156 M375.9611672514625,288.21001064029156 L368.0547015532699,278.17355646146996 M368.0547015532699,278.17355646146996 L360.15054639693614,268.140035280574 M360.15054639693614,268.140035280574 L352.248700769779,258.1094458121072 M352.248700769779,258.1094458121072 L344.34916356398156,248.08176530533376 M344.34916356398156,248.08176530533376 L336.45193395278903,238.05703540283912 M336.45193395278903,238.05703540283912 L328.55701083627963,228.03523336079144 M328.55701083627963,228.03523336079144 L320.664402324815,218.01636305341026 M320.664402324815,218.01636305341026 L312.77408916261976,208.00041288050411 M312.77408916261976,208.00041288050411 L304.88607946592623,197.98738672280703 M304.88607946592623,197.98738672280703 L297.00037222618516,187.97728330006828 M297.00037222618516,187.97728330006828 L289.11695733349757,177.970096196111 M289.11695733349757,177.970096196111 L281.2358609370166,167.96581803312966 M281.2358609370166,167.96581803312966 L273.3570641086277,157.9644802625353 M273.3570641086277,157.9644802625353 L265.4805475237166,147.96604986003015 M265.4805475237166,147.96604986003015 L257.6063465376561,137.970546045778" stroke="black"  stroke-width="4"  fill="red"/>
<path d="M541.3997182200392,494.45881187195164 L541.8498014790805,361.68285692944437 M433.6376090814625,432.7768373742291 L433.5151629646732,300.33873206319174 M541.3997182200392,494.45881187195164 L433.6376090814625,432.7768373742291 M541.8498014790805,361.68285692944437 L433.5151629646732,300.33873206319174 M427.1321189365017,560.3797116197484 L426.9736139312346,427.2462791691882 M427.1321189365017,560.3797116197484 L541.3997182200392,494.45881187195164 M426.9736139312346,427.2462791691882 L541.8498014790805,361.68285692944437 M433.6376090814625,432.7768373742291 L319.3714068136336,498.041517083545 M319.3714068136336,498.041517083545 L318.64039485012626,365.2460384386536 M334.57677608375013,356.24155820139606 L318.64039485012626,365.2460384386536 M334.57677608375013,356.24155820139606 L333.63847501171114,365.26713107514513 M333.63847501171114,365.26713107514513 L333.6587705804717,373.8460329106156 M333.6587705804717,373.8460329106156 L334.4994511907661,381.04528154801187 M334.4994511907661,381.04528154801187 L336.099383803439,387.57713527493354 M336.099383803439,387.57713527493354 L338.41762135345806,393.31661567028164 M338.41762135345806,393.31661567028164 L341.3958124669934,398.1635538663836 M341.3958124669934,398.1635538663836 L344.96202038185515,402.0446354642422 M344.96202038185515,402.0446354642422 L349.0351006561143,404.91335514762403 M349.0351006561143,404.91335514762403 L353.52912241252244,406.7478166046067 M353.52912241252244,406.7478166046067 L358.35730252751347,407.5470926606654 M358.35730252751347,407.5470926606654 L363.43498249029466,407.326684651773 M363.43498249029466,407.326684651773 L368.6814058479148,406.1139544881197 M368.6814058479148,406.1139544881197 L374.020185015206,403.94414067020926 M374.020185015206,403.94414067020926 L379.37861112082584,400.857669003385 M379.37861112082584,400.857669003385 L385.269014781347,396.4079863009365 M385.269014781347,396.4079863009365 L390.9991426248575,390.9507414635578 M390.9991426248575,390.9507414635578 L396.4701018224892,384.56468260985025 M396.4701018224892,384.56468260985025 L401.57878773876604,377.3440351909461 M401.57878773876604,377.3440351909461 L406.21801192572315,369.40378626495766 M406.21801192572315,369.40378626495766 L410.2788526445315,360.8839186909187 M410.2788526445315,360.8839186909187 L413.65512150606037,351.9513098617916 M413.65512150606037,351.9513098617916 L416.2494516433933,342.7982781032348 M416.2494516433933,342.7982781032348 L417.98019462280143,333.637705713905 M417.98019462280143,333.637705713905 L418.78812229466786,324.69471717530195 M418.78812229466786,324.69471717530195 L418.6779391827102,316.69268462026605 M418.6779391827102,316.69268462026605 L417.7238812345478,309.2612272128355 M433.5151629646732,300.33873206319174 L417.7238812345478,309.2612272128355 M319.3714068136336,498.041517083545 L427.1321189365017,560.3797116197484 M368.65091899994457,498.65867957950167 L440.5396903866092,540.1520761680492 M440.5396903866092,540.1520761680492 L506.54448506045935,502.11215655083754 M434.6553224661395,460.871712878663 L506.54448506045935,502.11215655083754 M368.65091899994457,498.65867957950167 L434.6553224661395,460.871712878663 M318.64039485012626,365.2460384386536 L426.9736139312346,427.2462791691882 M334.57677608375013,356.24155820139606 L347.208611700658,361.30924417305295 M347.208611700658,361.30924417305295 L359.9611236630525,365.64601361012626 M359.9611236630525,365.64601361012626 L372.10942388997535,369.04988581389784 M372.10942388997535,369.04988581389784 L383.62436772127285,371.5878868801861 M383.62436772127285,371.5878868801861 L394.3152525634859,373.2834713955114 M394.3152525634859,373.2834713955114 L404.0530580150192,374.18933174169507 M404.0530580150192,374.18933174169507 L412.76971888067163,374.37746409305623 M412.76971888067163,374.37746409305623 L420.4514269452002,373.92805255877414 M420.4514269452002,373.92805255877414 L427.1269971808447,372.91837577297287 M427.1269971808447,372.91837577297287 L432.85239900595997,371.41285368765455 M432.85239900595997,371.41285368765455 L436.25646255729123,370.12058555427745 M436.25646255729123,370.12058555427745 L439.29618603389304,368.6074033267718 M439.29618603389304,368.6074033267718 L443.3665628172446,365.74648347014414 M443.3665628172446,365.74648347014414 L446.42683214372556,362.3712520040666 M446.42683214372556,362.3712520040666 L448.48966783963095,358.3913578140692 M448.48966783963095,358.3913578140692 L449.4297967834492,353.7914943745526 M449.4297967834492,353.7914943745526 L449.1059054319143,348.5415760846071 M449.1059054319143,348.5415760846071 L447.3534953236608,342.6364643754134 M447.3534953236608,342.6364643754134 L444.01153895198496,336.10757025504336 M444.01153895198496,336.10757025504336 L438.9510203147061,329.0309666687269 M438.9510203147061,329.0309666687269 L432.1025435544615,321.53103752296596 M432.1025435544615,321.53103752296596 L425.3718400979205,315.3648024268643 M425.3718400979205,315.3648024268643 L417.7238812345478,309.2612272128355 M474.87290495813045,413.76844175927437 L467.3627114689916,404.2350050658353 M467.3627114689916,404.2350050658353 L459.85459834598225,394.7042202857373 M459.85459834598225,394.7042202857373 L452.34856559530374,385.17607612524466 M452.34856559530374,385.17607612524466 L444.84461205982063,375.6505606246226 M444.84461205982063,375.6505606246226 L439.29618603389304,368.6074033267718 M492.29865549962426,423.75446977965385 L495.51357871427115,419.42485513466414 M495.51357871427115,419.42485513466414 L497.9103836526196,415.5668170287468 M497.9103836526196,415.5668170287468 L499.44048013882394,412.2575931972744 M499.44048013882394,412.2575931972744 L500.07232526220344,409.56374547353835 M500.07232526220344,409.56374547353835 L499.79214881234014,407.53980550938263 M499.79214881234014,407.53980550938263 L498.6043222052744,406.2270410725528 M498.6043222052744,406.2270410725528 L496.53135936938287,405.6526598628825 M496.53135936938287,405.6526598628825 L493.61356589009796,405.8291594493584 M493.61356589009796,405.8291594493584 L489.90832178237576,406.7539547620086 M489.90832178237576,406.7539547620086 L485.48901115468175,408.4094237295978 M485.48901115468175,408.4094237295978 L480.4435993947859,410.7631203813943 M480.4435993947859,410.7631203813943 L474.87290495813045,413.76844175927437 M490.00761680202766,421.99575296922393 L492.29865549962426,423.75446977965385 M489.2413864345065,427.4298578935197 L490.00761680202766,421.99575296922393 M481.9831002311447,435.21495602976944 L484.5674607846009,432.55898132216856 M484.5674607846009,432.55898132216856 L486.9912034642468,429.9593324993259 M486.9912034642468,429.9593324993259 L489.2413864345065,427.4298578935197 M430.1518835442478,401.8899360262327 L447.6115814183463,412.3281225355765 M447.6115814183463,412.3281225355765 L465.0707337339635,423.6154147558881 M465.0707337339635,423.6154147558881 L481.9831002311447,435.21495602976944 M401.60091132704315,433.21067173227135 L407.49400909967386,429.2933085149526 M407.49400909967386,429.2933085149526 L413.2656192866844,424.3440869689036 M413.2656192866844,424.3440869689036 L418.83678058261796,418.42054018991223 M418.83678058261796,418.42054018991223 L424.0963615525137,411.61681194918174 M424.0963615525137,411.61681194918174 L427.23157873170373,406.87810543462376 M427.23157873170373,406.87810543462376 L430.1518835442478,401.8899360262327 M372.9078613389152,434.49848031993287 L377.2117847186019,436.71664357090333 M377.2117847186019,436.71664357090333 L381.9302996753569,437.90398479454655 M381.9302996753569,437.90398479454655 L386.88745058509255,438.0481572758945 M386.88745058509255,438.0481572758945 L392.0433655124016,437.18908289530634 M392.0433655124016,437.18908289530634 L396.7926255624113,435.5837492088319 M396.7926255624113,435.5837492088319 L401.60091132704315,433.21067173227135 M408.5992422473087,477.2314966536502 L395.98050787907033,463.3727358850221 M395.98050787907033,463.3727358850221 L384.02727625965974,449.14188362303804 M384.02727625965974,449.14188362303804 L372.9078613389152,434.49848031993287 M409.7316535365042,472.9404205415583 L409.1107926990186,474.5417767229105 M409.1107926990186,474.5417767229105 L408.732701433935,475.97466497923426 M408.732701433935,475.97466497923426 L408.5992422473087,477.2314966536502 M408.9568015586796,468.36961469423704 L409.7316535365042,472.9404205415583 M411.13051760116815,470.2070288847706 L408.9568015586796,468.36961469423704 M474.87290495813045,413.76844175927437 L468.8885783130359,417.3654576938759 M468.8885783130359,417.3654576938759 L462.6108455501548,421.4821701647144 M462.6108455501548,421.4821701647144 L456.16604421132416,426.03589471625895 M456.16604421132416,426.03589471625895 L449.6840295942144,430.93501589434436 M449.6840295942144,430.93501589434436 L443.2954850725521,436.0808021476286 M443.2954850725521,436.0808021476286 L437.12921631489564,441.36952234820245 M437.12921631489564,441.36952234820245 L431.3094743543834,446.6945270167288 M431.3094743543834,446.6945270167288 L425.9533973640784,451.94849503423706 M425.9533973640784,451.94849503423706 L421.1685923404628,457.02568521550154 M421.1685923404628,457.02568521550154 L417.05092815439684,461.8240268905336 M417.05092815439684,461.8240268905336 L413.6826023627527,466.24729424725956 M413.6826023627527,466.24729424725956 L411.13051760116815,470.2070288847706 M368.65091899994457,498.65867957950167 L365.5459261667671,494.72396869775343 M365.5459261667671,494.72396869775343 L363.17104614419554,489.9190697080314 M363.17104614419554,489.9190697080314 L361.5753409835842,484.34077299628376 M361.5753409835842,484.34077299628376 L360.79206662371803,478.10185747836374 M360.79206662371803,478.10185747836374 L360.8379151397524,471.3288374753113 M360.8379151397524,471.3288374753113 L361.7126040550081,464.15938991948843 M361.7126040550081,464.15938991948843 L363.3988431523793,456.7395288135242 M363.3988431523793,456.7395288135242 L365.8626432271789,449.2205912059549 M365.8626432271789,449.2205912059549 L369.05399149562044,441.7560714153966 M369.05399149562044,441.7560714153966 L372.9078613389152,434.49848031993287 M417.41148184393785,468.5445649076323 L412.8810391367307,472.8987456074794 M412.8810391367307,472.8987456074794 L408.5992422473087,477.2314966536502 M410.42352755547535,488.0040841027144 L412.1953716811249,481.5166774501809 M412.1953716811249,481.5166774501809 L414.5365740646171,474.9969211120461 M414.5365740646171,474.9969211120461 L417.41148184393785,468.5445649076323 M410.42352755547535,488.0040841027144 L434.48001442802234,501.850361873594 M440.5396903866092,540.1520761680492 L437.64447689671175,536.5249385227442 M437.64447689671175,536.5249385227442 L435.37838047267223,532.1368236061396 M435.37838047267223,532.1368236061396 L433.78187790011026,527.0641276556983 M433.78187790011026,527.0641276556983 L432.8836961868272,521.3954984139336 M432.8836961868272,521.3954984139336 L432.7002536488894,515.2302893435572 M432.7002536488894,515.2302893435572 L433.2353475233794,508.67678763779713 M433.2353475233794,508.67678763779713 L434.48001442802234,501.850361873594 M512.6198688811799,456.96801170762126 L513.8472011160225,462.35174245372866 M513.8472011160225,462.35174245372866 L514.3699011953629,468.2737403100325 M514.3699011953629,468.2737403100325 L514.1794276013939,474.6303265671857 M514.1794276013939,474.6303265671857 L513.2796228095119,481.3104701157976 M513.2796228095119,481.3104701157976 L511.6865793848605,488.1976821813975 M511.6865793848605,488.1976821813975 L509.4283584355768,495.1720213561453 M509.4283584355768,495.1720213561453 L506.54448506045935,502.11215655083754 M512.6198688811799,456.96801170762126 L513.9858802976879,449.2949105979706 M513.9858802976879,449.2949105979706 L514.4534096921236,441.9775828541445 M514.4534096921236,441.9775828541445 L514.0113758920161,435.1787072989275 M514.0113758920161,435.1787072989275 L512.6687758988803,429.04980550483936 M512.6687758988803,429.04980550483936 L510.4545672291773,423.72786612914996 M510.4545672291773,423.72786612914996 L507.4170821405951,419.33224148106217 M507.4170821405951,419.33224148106217 L503.6230817363146,415.96199462867764 M503.6230817363146,415.96199462867764 L499.15632947191284,413.69353127021816 M499.15632947191284,413.69353127021816 L494.11582334314517,412.5788760531782 M494.11582334314517,412.5788760531782 L488.6136388489138,412.64428669756273 M488.6136388489138,412.64428669756273 L482.7724699703845,413.8896558814529 M482.7724699703845,413.8896558814529 L476.7229019034673,416.28829908981174 M476.7229019034673,416.28829908981174 L470.6004816946789,419.7875088804769 M470.6004816946789,419.7875088804769 L464.54264407869204,424.3096318342618 M464.54264407869204,424.3096318342618 L458.6855790567765,429.75375855353093 M458.6855790567765,429.75375855353093 L453.161102094097,435.99800148311874 M453.161102094097,435.99800148311874 L448.09361865692455,442.9021862631498 M448.09361865692455,442.9021862631498 L443.59724960223633,450.31114554986607 M443.59724960223633,450.31114554986607 L439.7731973017025,458.05816222787587 M439.7731973017025,458.05816222787587 L436.70740117538696,465.96892416309873 M436.70740117538696,465.96892416309873 L434.46858737232316,473.8654304669429 M434.46858737232316,473.8654304669429 L433.1066797342577,481.57019852254183 M433.1066797342577,481.57019852254183 L432.65172673707036,488.91023250683594 M432.65172673707036,488.91023250683594 L433.1132334793955,495.7210385033739 M433.1132334793955,495.7210385033739 L434.48001442802234,501.850361873594 M430.1518835442478,401.8899360262327 L434.0062346571846,404.74142557532815 M434.0062346571846,404.74142557532815 L437.2022768271328,408.54733735457023 M437.2022768271328,408.54733735457023 L439.6761027908179,413.2296300604976 M439.6761027908179,413.2296300604976 L441.3785113414629,418.6927984847382 M441.3785113414629,418.6927984847382 L442.2759188535231,424.82580941981496 M442.2759188535231,424.82580941981496 L442.35096802916064,431.50439527855576 M442.35096802916064,431.50439527855576 L441.60280721459975,438.593573919358 M441.60280721459975,438.593573919358 L440.04706777394307,445.95034095234337 M440.04706777394307,445.95034095234337 L437.7155040349434,453.42652409476153 M437.7155040349434,453.42652409476153 L434.6553224661395,460.871712878663 M488.56342036294944,443.22171719224457 L512.6198688811799,456.96801170762126 M481.6125401859272,431.79653191534817 L484.47239081304105,434.95081560959966 M484.47239081304105,434.95081560959966 L486.80093480948415,438.77874067447993 M486.80093480948415,438.77874067447993 L488.56342036294944,443.22171719224457 M481.9831002311447,435.21495602976944 L482.0605990646757,433.29543225859715 M482.0605990646757,433.29543225859715 L481.6125401859272,431.79653191534817 M492.29865549962426,423.75446977965385 L494.4097951625496,419.79158664833136 M494.4097951625496,419.79158664833136 L495.6575319529736,416.4213783152479 M495.6575319529736,416.4213783152479 L496.0177401537507,413.72925540510136 M496.0177401537507,413.72925540510136 L495.50404586240495,411.7460982129706 M495.50404586240495,411.7460982129706 L494.1458347046626,410.4951795197054 M494.1458347046626,410.4951795197054 L491.9900041382786,409.98152112462094 M491.9900041382786,409.98152112462094 L489.09640286879574,410.19459050909575 M489.09640286879574,410.19459050909575 L485.53323150946204,411.11172240978874 M485.53323150946204,411.11172240978874 L481.37306432433604,412.70161275248716 M481.37306432433604,412.70161275248716 L476.69000644983964,414.9273970709877 M476.69000644983964,414.9273970709877 L471.5583201572637,417.7486513585884 M471.5583201572637,417.7486513585884 L465.4213409483363,421.5291110131354 M465.4213409483363,421.5291110131354 L458.92846760875045,425.92723529011147 M458.92846760875045,425.92723529011147 L452.1906070724822,430.87233836151563 M452.1906070724822,430.87233836151563 L445.3284368786827,436.28323881641177 M445.3284368786827,436.28323881641177 L438.4751097135874,442.0647145389921 M438.4751097135874,442.0647145389921 L431.7767736490452,448.1049324227323 M431.7767736490452,448.1049324227323 L425.39024126703646,454.274969948262 M425.39024126703646,454.274969948262 L419.4777429953867,460.43083225711996 M419.4777429953867,460.43083225711996 L415.03204255466795,465.4344315364468 M415.03204255466795,465.4344315364468 L411.13051760116815,470.2070288847706 M408.9568015586796,468.36961469423704 L408.5838304319632,475.46806150829894 M408.5838304319632,475.46806150829894 L409.0764760657019,482.05927260486067 M409.0764760657019,482.05927260486067 L410.42352755547535,488.0040841027144 M488.56342036294944,443.22171719224457 L489.89673023891777,435.7658897011006 M489.89673023891777,435.7658897011006 L490.38173349808113,428.6406951905142 M490.38173349808113,428.6406951905142 L490.00761680202766,421.99575296922393 M481.6125401859272,431.79653191534817 L489.2413864345065,427.4298578935197 M409.7316535365042,472.9404205415583 L417.41148184393785,468.5445649076323" stroke="black"  stroke-width="4"  fill="red"/>
<path d="M174.19555507008664,528.2715257369615 L174.73207440860818,575.6058642280825 M12.996071114565552,535.3620460342327 L30.232102015787348,531.7308411360943 M30.232102015787348,531.7308411360943 L47.829437300185816,528.7910908249445 M47.829437300185816,528.7910908249445 L65.70681127627819,526.5558700244984 M65.70681127627819,526.5558700244984 L83.78170099312996,525.0350874231511 M83.78170099312996,525.0350874231511 L101.970847803992,524.2354818696122 M101.970847803992,524.2354818696122 L120.19051850567934,524.1605920512505 M120.19051850567934,524.1605920512505 L138.35683687981077,524.8107629029394 M138.35683687981077,524.8107629029394 L156.3862079656787,526.1830931915492 M156.3862079656787,526.1830931915492 L174.19555507008664,528.2715257369615 M12.996071114565552,535.3620460342327 L13.839130978358867,582.709868319168 M174.73207440860818,575.6058642280825 L156.95644529026836,573.513457249631 M156.95644529026836,573.513457249631 L138.96123322379304,572.138514593676 M138.96123322379304,572.138514593676 L120.8293633000228,571.4871058757647 M120.8293633000228,571.4871058757647 L102.64427793129363,571.5621382841297 M102.64427793129363,571.5621382841297 L84.48970015127588,572.3632661773646 M84.48970015127588,572.3632661773646 L66.4492100130413,573.8869436008272 M66.4492100130413,573.8869436008272 L48.605913541013365,576.1264178773265 M48.605913541013365,576.1264178773265 L31.042181956631225,579.0717600086635 M31.042181956631225,579.0717600086635 L13.839130978358867,582.709868319168 M174.73207440860818,575.6058642280825 L187.6938438666489,605.020780882287 M187.1807719756531,557.6307111263313 L187.6938438666489,605.020780882287 M174.19555507008664,528.2715257369615 L187.1807719756531,557.6307111263313 M126.63021952714399,581.9058182920467 L12.996071114565552,535.3620460342327 M126.63021952714399,581.9058182920467 L133.31056986294107,577.0282908911639 M133.31056986294107,577.0282908911639 L140.78185621054593,572.5558456051556 M140.78185621054593,572.5558456051556 L148.9698190807863,568.5320022104975 M148.9698190807863,568.5320022104975 L157.7933151766596,564.9958572987064 M157.7933151766596,564.9958572987064 L167.1652107573783,561.9817065840759 M167.1652107573783,561.9817065840759 L176.9932352712696,559.5187159052116 M176.9932352712696,559.5187159052116 L187.1807719756531,557.6307111263313 M127.25974853743179,629.3417691499949 L13.839130978358867,582.709868319168 M126.63021952714399,581.9058182920467 L127.25974853743179,629.3417691499949 M187.6938438666489,605.020780882287 L177.52577583592614,606.9123605488655 M177.52577583592614,606.9123605488655 L167.71656684934453,609.380013195962 M167.71656684934453,609.380013195962 L158.3626507608928,612.399866592081 M158.3626507608928,612.399866592081 L149.55612273129884,615.9426982372702 M149.55612273129884,615.9426982372702 L141.38395004368056,619.9741459310412 M141.38395004368056,619.9741459310412 L133.92712005739946,624.4550374724242 M133.92712005739946,624.4550374724242 L127.25974853743179,629.3417691499949" stroke="black"  stroke-width="4"  fill="red"/></svg>