<svg viewBox="0 0 800 800" xmlns="http://www.w3.org/2000/svg"><path d="M443.47674537943266,613.2149573678696 L443.45586492907313,619.7975354229154 M443.47674537943266,613.2149573678696 L449.1541845871885,612.5314124061329 M449.1541845871885,612.5314124061329 L454.953512670089,612.6512032071973 M454.953512670089,612.6512032071973 L460.5442924675967,613.5675364541713 M460.5442924675967,613.5675364541713 L465.60784937432487,615.2283181323752 M465.60784937432487,615.2283181323752 L469.8553388313463,617.539119309479 M469.8553388313463,617.539119309479 L473.04414260718005,620.3684456558117 M473.04414260718005,620.3684456558117 L474.99167464651754,623.5551191766829 M474.99167464651754,623.5551191766829 L475.5859428121217,626.9174017555173 M475.5859428121217,626.9174017555173 L474.79210025067044,630.263280732969 M474.79210025067044,630.263280732969 L472.6546012923181,633.4014342275656 M472.6546012923181,633.4014342275656 L469.2949008704847,636.1521686266348 M469.2949008704847,636.1521686266348 L464.9046552953783,638.3577971792654 M464.9046552953783,638.3577971792654 L459.73487625528236,639.8917863157748 M459.73487625528236,639.8917863157748 L454.08150988589773,640.6660405716375 M454.08150988589773,640.6660405716375 L448.26836062548887,640.6360644024935 M448.26836062548887,640.6360644024935 L442.6285466625714,639.8036055713042 M442.6285466625714,639.8036055713042 L437.4851145206863,638.216455068468 M437.4851145206863,638.216455068468 L433.1324792755401,635.9657830328541 M433.1324792755401,635.9657830328541 L433.11389350071767,642.553356603559 M433.11389350071767,642.553356603559 L437.4655467308069,644.8045219770291 M437.4655467308069,644.8045219770291 L442.6078195581736,646.3920202841695 M442.6078195581736,646.3920202841695 L448.2463633850303,647.2246615078031 M448.2463633850303,647.2246615078031 L454.05820462445894,647.2546442443593 M454.05820462445894,647.2546442443593 L459.71030025156495,646.4802203501127 M459.71030025156495,646.4802203501127 L464.87891879756074,644.9458950642938 M464.87891879756074,644.9458950642938 L469.2681806811236,642.7397830581166 M469.2681806811236,642.7397830581166 L472.6271304857631,639.9884455164421 M472.6271304857631,639.9884455164421 L474.7641546509581,636.849603651001 M474.7641546509581,636.849603651001 L475.5578250676677,633.5029904078373 M475.5578250676677,633.5029904078373 L474.9636968381844,630.139969621245 M474.9636968381844,630.139969621245 L473.01660841637744,626.9525961319147 M473.01660841637744,626.9525961319147 L469.8285262708943,624.1226480519251 M469.8285262708943,624.1226480519251 L465.5819950562014,621.8113389048724 M465.5819950562014,621.8113389048724 L460.51957828357547,620.1501920466385 M460.51957828357547,620.1501920466385 L454.93005558266697,619.2336572764223 M454.93005558266697,619.2336572764223 L449.1320300817616,619.1138401286589 M449.1320300817616,619.1138401286589 L443.45586492907313,619.7975354229154 M443.45586492907313,619.7975354229154 L425.86262784179684,617.0587374777178 M425.8795530654614,610.4767617213107 L425.86262784179684,617.0587374777178 M443.47674537943266,613.2149573678696 L425.8795530654614,610.4767617213107 M403.1630694812793,631.2947471181429 L433.1324792755401,635.9657830328541 M403.1630694812793,631.2947471181429 L434.90638713285847,612.7818617843229 M434.90638713285847,612.7818617843229 L431.861982808654,612.0607739403907 M431.861982808654,612.0607739403907 L428.85230010768066,611.2922173691499 M428.85230010768066,611.2922173691499 L425.8795530654614,610.4767617213107 M446.3011655004214,629.5196935601722 L445.2423868332313,628.7370131762698 M445.2423868332313,628.7370131762698 L444.53540921298264,627.8304392884558 M444.53540921298264,627.8304392884558 L444.22126669496384,626.8526861635465 M444.22126669496384,626.8526861635465 L444.3181417085934,625.8605994636437 M444.3181417085934,625.8605994636437 L444.82030056879586,624.9118179415909 M444.82030056879586,624.9118179415909 L445.698532469384,624.0614705776936 M445.698532469384,624.0614705776936 L446.9017261182802,623.3589278335812 M446.9017261182802,623.3589278335812 L448.35996941207634,622.8449641834571 M448.35996941207634,622.8449641834571 L449.98856405444957,622.5494274925875 M449.98856405444957,622.5494274925875 L451.69290070768733,622.4894437935836 M451.69290070768733,622.4894437935836 L453.37403030028804,622.6685071179095 M453.37403030028804,622.6685071179095 L454.93432303862676,623.0762238806834 M454.93432303862676,623.0762238806834 L456.2831566585367,623.6889400895719 M456.2831566585367,623.6889400895719 L457.34214657024194,624.4710810276034 M457.34214657024194,624.4710810276034 L458.0497417272413,625.3772471269688 M458.0497417272413,625.3772471269688 L458.36476527216104,626.3548055574372 M458.36476527216104,626.3548055574372 L458.268849437562,627.3469711474571 M458.268849437562,627.3469711474571 L457.7674473951883,628.2960518522464 M457.7674473951883,628.2960518522464 L456.88967928456924,629.1468980841792 M456.88967928456924,629.1468980841792 L455.6864893700017,629.8499898720222 M455.6864893700017,629.8499898720222 L454.22778889941054,630.3644269667213 M454.22778889941054,630.3644269667213 L452.59844168183065,630.6602882604718 M452.59844168183065,630.6602882604718 L450.89314674971763,630.720325427303 M450.89314674971763,630.720325427303 L449.2111334817684,630.5410674105807 M449.2111334817684,630.5410674105807 L447.6502176163633,630.1329365048151 M447.6502176163633,630.1329365048151 L446.3011655004214,629.5196935601722 M403.15122851026854,637.881296326843 L433.11389350071767,642.553356603559 M403.1630694812793,631.2947471181429 L403.15122851026854,637.881296326843 M403.15122851026854,637.881296326843 L284.49582184029003,707.1125273888076 M284.49582184029003,707.1125273888076 L280.97378713384325,704.8489561338978 M280.97378713384325,704.8489561338978 L277.51571839309025,702.5531069210774 M277.51571839309025,702.5531069210774 L274.12250529300076,700.2256384874229 M249.45336666733226,680.5818706830544 L243.54699897379965,681.3421940019064 M243.54699897379965,681.3421940019064 L238.13566182923864,682.9273081070735 M238.13566182923864,682.9273081070735 L233.55149381791466,685.240225085163 M233.55149381791466,685.240225085163 L230.07623187185249,688.1393148881053 M230.07623187185249,688.1393148881053 L227.92395373872944,691.4468723648275 M227.92395373872944,691.4468723648275 L227.22775325958935,694.9599182623637 M227.22775325958935,694.9599182623637 L228.0314995338627,698.4625225399722 M228.0314995338627,698.4625225399722 L230.2867217432718,701.7391816640418 M230.2867217432718,701.7391816640418 L233.85552003330764,704.5879402902335 M233.85552003330764,704.5879402902335 L238.51873717948888,706.8330589611944 M238.51873717948888,706.8330589611944 L243.9894271232098,708.335867617452 M243.9894271232098,708.335867617452 L249.93049507724857,709.0034967377825 M249.93049507724857,709.0034967377825 L255.97567711627397,708.7946503245774 M255.97567711627397,708.7946503245774 L261.75216254689985,707.7222687188772 M261.75216254689985,707.7222687188772 L266.90389801574696,705.8526206187183 M266.90389801574696,705.8526206187183 L271.1136133737245,703.3012472624501 M271.1136133737245,703.3012472624501 L274.12250529300076,700.2256384874229 M249.45336666733226,680.5818706830544 L239.4726357487275,670.8164745078421 M239.4726357487275,670.8164745078421 L230.5295397663229,660.7298332225891 M230.5295397663229,660.7298332225891 L222.6548047867647,650.359627778709 M222.6548047867647,650.359627778709 L215.87500114617632,639.7444352290096 M215.87500114617632,639.7444352290096 L210.21260047176168,628.923568264825 M210.21260047176168,628.923568264825 L205.68580694213367,617.9369366116678 M200.0217969328075,595.1492077295711 L194.51007294772538,594.0049566169857 M194.51007294772538,594.0049566169857 L188.6786824683881,593.6648098394048 M188.6786824683881,593.6648098394048 L182.86837489918744,594.1485982698281 M182.86837489918744,594.1485982698281 L177.41872869589872,595.4281138324488 M177.41872869589872,595.4281138324488 L172.64834507124732,597.4287898168693 M172.64834507124732,597.4287898168693 L168.83649373462023,600.0338964631455 M168.83649373462023,600.0338964631455 L166.20667763145036,603.0913380563891 M166.20667763145036,603.0913380563891 L164.9135712684544,606.4223974285294 M164.9135712684544,606.4223974285294 L165.0338023309251,609.8321229163603 M165.0338023309251,609.8321229163603 L166.56130665131724,613.1206704231761 M166.56130665131724,613.1206704231761 L169.40735921975204,616.0950805278167 M169.40735921975204,616.0950805278167 L173.4057513560826,618.5805502909029 M173.4057513560826,618.5805502909029 L178.3221995748528,620.430916933502 M178.3221995748528,620.430916933502 L183.8682520489683,621.5372286085931 M183.8682520489683,621.5372286085931 L189.7181543587935,621.8343281255097 M189.7181543587935,621.8343281255097 L195.52820698429016,621.3046961114298 M195.52820698429016,621.3046961114298 L200.9570226858878,619.9795484198726 M200.9570226858878,619.9795484198726 L205.68580694213367,617.9369366116678 M200.0217969328075,595.1492077295711 L198.9859016488384,582.9260154137762 M198.9859016488384,582.9260154137762 L199.32779623488992,570.705162241952 M199.32779623488992,570.705162241952 L201.04262578006092,558.5387020053361 M201.04262578006092,558.5387020053361 L204.11971844376936,546.4782047170154 M204.11971844376936,546.4782047170154 L208.5426996547573,534.5745367232522 M208.5426996547573,534.5745367232522 L214.28959526208564,522.8776668364046 M214.28959526208564,522.8776668364046 L221.3330185188973,511.4364530635616 M221.3330185188973,511.4364530635616 L229.64030436573955,500.2984570788176 M229.64030436573955,500.2984570788176 L239.17370079676897,489.5097620232359 M145.72816505062937,435.4081719950755 L239.17370079676897,489.5097620232359 M273.2160918589762,362.7746687953836 L145.72816505062937,435.4081719950755 M366.66509160305714,416.33932427573615 L273.2160918589762,362.7746687953836 M366.66509160305714,416.33932427573615 L385.26161138480626,410.9512351240259 M385.26161138480626,410.9512351240259 L404.420464720384,406.27448453488205 M404.420464720384,406.27448453488205 L424.0622195419197,402.3276494331301 M424.0622195419197,402.3276494331301 L444.10566655206276,399.12637920183164 M444.10566655206276,399.12637920183164 L464.4681244286135,396.68334324717296 M464.4681244286135,396.68334324717296 L485.0657381313377,395.0082101155252 M485.0657381313377,395.0082101155252 L505.81381184695516,394.1075951141658 M505.81381184695516,394.1075951141658 L526.6270969079451,393.98505274819917 M526.6270969079451,393.98505274819917 L547.4201126718206,394.6410595372513 M586.1319364267204,397.96754379314615 L589.5485610481237,395.3110665911703 M589.5485610481237,395.3110665911703 L591.741914198084,392.25741509585833 M591.741914198084,392.25741509585833 L592.5841218442715,388.9859085000586 M592.5841218442715,388.9859085000586 L592.0267023586223,385.688421406678 M592.0267023586223,385.688421406678 L590.1032539848138,382.55806715396125 M590.1032539848138,382.55806715396125 L586.9271944584132,379.77795998711014 M586.9271944584132,379.77795998711014 L582.6850378443073,377.51050733681245 M582.6850378443073,377.51050733681245 L577.6252414951243,375.8880755532474 M577.6252414951243,375.8880755532474 L572.0438675953842,375.0052477734113 M572.0438675953842,375.0052477734113 L566.2671275331231,374.91350562023825 M566.2671275331231,374.91350562023825 L560.6326200636902,375.61818103862703 M560.6326200636902,375.61818103862703 L555.4696611825268,377.07820857700614 M555.4696611825268,377.07820857700614 L551.0802270299346,379.20845587863255 M551.0802270299346,379.20845587863255 L547.7213602934528,381.88462783892834 M547.7213602934528,381.88462783892834 L545.5902134101111,384.9503900965194 M545.5902134101111,384.9503900965194 L544.812296349096,388.22649218619216 M544.812296349096,388.22649218619216 L545.4341107540868,391.52109813473294 M545.4341107540868,391.52109813473294 L547.4201126718206,394.6410595372513 M586.1319364267204,397.96754379314615 L604.7774515509991,400.58130930435254 M604.7774515509991,400.58130930435254 L623.1338428045854,403.83168388171237 M623.1338428045854,403.83168388171237 L641.1370031462873,407.7077774775962 M641.1370031462873,407.7077774775962 L658.7239265779406,412.1965593475828 M658.7239265779406,412.1965593475828 L675.8328797132258,417.28295801852073 M675.8328797132258,417.28295801852073 L692.4036067674383,422.9498295558665 M725.7762353446035,436.930434847458 L730.8983592523193,435.242219388877 M730.8983592523193,435.242219388877 L735.1195136651424,432.87653419618084 M735.1195136651424,432.87653419618084 L738.1801186790199,429.97941211535147 M738.1801186790199,429.97941211535147 L739.8923836820136,426.7295276443092 M739.8923836820136,426.7295276443092 L740.1518880329884,423.32705039432096 M740.1518880329884,423.32705039432096 L738.9436271275079,419.98129823928946 M738.9436271275079,419.98129823928946 L736.3428508170402,416.897778225162 M736.3428508170402,416.897778225162 L732.5100995452535,414.2656767252561 M732.5100995452535,414.2656767252561 L727.6812655229396,412.2462823584393 M727.6812655229396,412.2462823584393 L722.1529453141716,410.96323355734563 M722.1529453141716,410.96323355734563 L716.2644330274677,410.4950101735512 M716.2644330274677,410.4950101735512 L710.3767878773258,410.8702747381355 M710.3767878773258,410.8702747381355 L704.8511474287841,412.066051162417 M704.8511474287841,412.066051162417 L700.0265361319348,414.0092037715523 M700.0265361319348,414.0092037715523 L696.1992988344334,416.5807699321779 M696.1992988344334,416.5807699321779 L693.6049414256729,419.62318754796496 M693.6049414256729,419.62318754796496 L692.4036067674383,422.9498295558665 M725.7762353446035,436.930434847458 L729.7356216371945,438.85162070308303 M729.7356216371945,438.85162070308303 L733.6426645671891,440.8092277293834 M733.6426645671891,440.8092277293834 L737.4963020200346,442.80277703977623 M737.4963020200346,442.80277703977623 L621.9491097236571,510.2204750017499 M630.2275113225985,527.3725243178449 L621.9491097236571,510.2204750017499 M591.5000610524405,533.3872930842481 L590.3844095327677,536.6531976852548 M590.3844095327677,536.6531976852548 L590.6436551867489,539.9877058211606 M590.6436551867489,539.9877058211606 L592.2639176682296,543.2002559519369 M592.2639176682296,543.2002559519369 L595.1533629637777,546.1070039196338 M595.1533629637777,546.1070039196338 L599.1473656143125,548.5414100880802 M599.1473656143125,548.5414100880802 L604.0177715794057,550.3638572629717 M604.0177715794057,550.3638572629717 L609.4859040629185,551.4697226573114 M609.4859040629185,551.4697226573114 L615.2386147232387,551.7954915494156 M615.2386147232387,551.7954915494156 L620.9462999623254,551.3224558782599 M620.9462999623254,551.3224558782599 L626.281967220179,550.0777837547248 M626.281967220179,550.0777837547248 L630.9400691550468,548.1329561211516 M630.9400691550468,548.1329561211516 L634.6541565814621,545.5995931276159 M634.6541565814621,545.5995931276159 L637.2122039359756,542.6229840043866 M637.2122039359756,542.6229840043866 L638.4685785127228,539.3736400754406 M638.4685785127228,539.3736400754406 L638.3522882872016,536.0374306296058 M638.3522882872016,536.0374306296058 L636.8709338685492,532.8049925362109 M636.8709338685492,532.8049925362109 L634.1099000388954,529.8607587768066 M634.1099000388954,529.8607587768066 L630.2275113225985,527.3725243178449 M586.65513749456,523.2899374477133 L591.5000610524405,533.3872930842481 M586.65513749456,523.2899374477133 L579.7368678564126,516.303639617583 M579.7368678564126,516.303639617583 L571.4882474649214,509.82168696286914 M571.4882474649214,509.82168696286914 L562.0194173763202,503.9286032789407 M562.0194173763202,503.9286032789407 L551.4561365840682,498.7010396810408 M551.4561365840682,498.7010396810408 L539.9380990375942,494.20684196827006 M539.9380990375942,494.20684196827006 L527.6170432852368,490.50421131885213 M527.6170432852368,490.50421131885213 L514.6548866451662,487.641024784092 M514.6548866451662,487.641024784092 L501.22158194157333,485.65425135107796 M501.22158194157333,485.65425135107796 L487.49298971422576,484.569524738756 M487.49298971422576,484.569524738756 L473.64867723098115,484.4008226551048 M473.64867723098115,484.4008226551048 L459.86965310747615,485.150315415535 M459.86965310747615,485.150315415535 L446.33610122761206,486.80835291713 M446.33610122761206,486.80835291713 L433.22512884315137,489.35354458643803 M433.22512884315137,489.35354458643803 L420.7085557712077,492.75304385899267 M420.7085557712077,492.75304385899267 L408.95071779985227,496.96292172457777 M408.95071779985227,496.96292172457777 L398.10637769050743,501.9286836906009 M398.10637769050743,501.9286836906009 L388.31875534624174,507.5859397276682 M388.31875534624174,507.5859397276682 L379.71764152039606,513.8611687722505 M379.71764152039606,513.8611687722505 L372.41767676323565,520.6726157178283 M372.41767676323565,520.6726157178283 L366.5168244323394,527.9313095594011 M366.5168244323394,527.9313095594011 L362.0949826765152,535.5421595061141 M362.0949826765152,535.5421595061141 L359.21284904504154,543.405151950009 M359.21284904504154,543.405151950009 L357.91103405676716,551.4166425329837 M357.91103405676716,551.4166425329837 L358.2093417733465,559.4706885768248 M358.2093417733465,559.4706885768248 L360.1064308163971,567.4604344400335 M360.1064308163971,567.4604344400335 L363.5796724677669,575.2795306642165 M363.5796724677669,575.2795306642165 L368.5852940414408,582.8235727911679 M368.5852940414408,582.8235727911679 L375.0588685956793,589.9915160308881 M375.0588685956793,589.9915160308881 L382.91604540416273,596.687053736211 M382.91604540416273,596.687053736211 L392.053610317057,602.8200035779239 M392.053610317057,602.8200035779239 L402.35076718216914,608.3075230577936 M402.35076718216914,608.3075230577936 L413.67074797557734,613.0753229915404 M413.67074797557734,613.0753229915404 L425.86262784179684,617.0587374777178 M446.2796270344094,636.1058533245649 L447.62837493401435,636.7192308246757 M447.62837493401435,636.7192308246757 L449.1889392269127,637.12745127467 M449.1889392269127,637.12745127467 L450.87057402204397,637.3067486191388 M450.87057402204397,637.3067486191388 L452.5754856077081,637.2466982807515 M452.5754856077081,637.2466982807515 L454.20446692978607,636.9507720763844 M454.20446692978607,636.9507720763844 L455.66284023678395,636.4362221102114 M455.66284023678395,636.4362221102114 L456.86576076165835,635.7329760456088 M456.86576076165835,635.7329760456088 L457.74333290919236,634.8819430956595 M457.74333290919236,634.8819430956595 L458.2446237797473,633.9326540894016 M458.2446237797473,633.9326540894016 L458.34051967534634,632.9402707125448 M458.34051967534634,632.9402707125448 L458.0255685377435,631.9624976723916 M458.0255685377435,631.9624976723916 L457.3181338960242,631.0561326106597 M457.3181338960242,631.0561326106597 L456.25938325495514,630.2738199218117 M456.25938325495514,630.2738199218117 L454.9108537498924,629.6609691532212 M454.9108537498924,629.6609691532212 L453.3509123020912,629.2531628447279 M453.3509123020912,629.2531628447279 L451.6701607847731,629.0740601916189 M451.6701607847731,629.0740601916189 L449.9662070522207,629.134057065321 M449.9662070522207,629.134057065321 L448.33797796261183,629.4296586656783 M448.33797796261183,629.4296586656783 L446.8800616325472,629.943735192655 M446.8800616325472,629.943735192655 L445.67713737586195,630.6464322164508 M445.67713737586195,630.6464322164508 L444.79910164267943,631.4969662981636 M444.79910164267943,631.4969662981636 L444.29705429989343,632.4459561261358 M444.29705429989343,632.4459561261358 L444.20019965163436,633.4382606104379 M444.20019965163436,633.4382606104379 L444.51427015808605,634.4162283439952 M444.51427015808605,634.4162283439952 L445.2210875412548,635.3230011912898 M445.2210875412548,635.3230011912898 L446.2796270344094,636.1058533245649 M246.5676064393354,697.7044745442786 L247.9136673811198,698.3229684560843 M247.9136673811198,698.3229684560843 L249.475210699858,698.7345781236829 M249.475210699858,698.7345781236829 L251.1614070752339,698.9153683244002 M251.1614070752339,698.9153683244002 L252.87420276874457,698.8548115831328 M252.87420276874457,698.8548115831328 L254.51395306169172,698.5564342985759 M254.51395306169172,698.5564342985759 L255.9853371246594,698.0375906467207 M255.9853371246594,698.0375906467207 L257.2027581431724,697.3284929072383 M257.2027581431724,697.3284929072383 L258.095499029904,696.4703782544437 M258.095499029904,696.4703782544437 L258.6116854570879,695.513186833828 M258.6116854570879,695.513186833828 L258.72140845904556,694.512549254305 M258.72140845904556,694.512549254305 L258.41836966236275,693.52663776232 M258.41836966236275,693.52663776232 L257.7202631522304,692.6127226849198 M257.7202631522304,692.6127226849198 L256.6676773795825,691.8238960368988 M256.6676773795825,691.8238960368988 L255.32185138498943,691.2059482952795 M255.32185138498943,691.2059482952795 L253.7609360091771,690.7947547246566 M253.7609360091771,690.7947547246566 L252.07562761930365,690.6141616509967 M252.07562761930365,690.6141616509967 L250.36377653992855,690.6746513868341 M250.36377653992855,690.6746513868341 L248.72481108108326,690.9727128848156 M248.72481108108326,690.9727128848156 L247.2538722919017,691.4910642989915 M247.2538722919017,691.4910642989915 L246.03645496592793,692.1996061307158 M246.03645496592793,692.1996061307158 L245.1432753446873,693.0572285436012 M245.1432753446873,693.0572285436012 L244.6263082786382,694.0141041725051 M244.6263082786382,694.0141041725051 L244.51564155279584,695.0146747429801 M244.51564155279584,695.0146747429801 L244.81778974522024,696.0007833630519 M244.81778974522024,696.0007833630519 L245.51526278455202,696.9151145495497 M245.51526278455202,696.9151145495497 L246.5676064393354,697.7044745442786 M609.5254648408886,540.7072125253253 L610.8722444129614,541.3127228485927 M610.8722444129614,541.3127228485927 L612.4272383843256,541.7157041473469 M612.4272383843256,541.7157041473469 L614.1000143821084,541.8927017012984 M614.1000143821084,541.8927017012984 L615.7932997484543,541.8334216127389 M615.7932997484543,541.8334216127389 L617.4085642128225,541.541291130505 M617.4085642128225,541.541291130505 L618.8519282557259,541.0333409037572 M618.8519282557259,541.0333409037572 L620.039420465197,540.3391144725106 M620.039420465197,540.3391144725106 L620.9020422169931,539.4989960617988 M620.9020422169931,539.4989960617988 L621.3897295754421,538.561881001522 M621.3897295754421,538.561881001522 L621.4741587938606,537.58222339953 M621.4741587938606,537.58222339953 L621.1505432634331,536.6169879542963 M621.1505432634331,536.6169879542963 L620.437743530807,535.722247256493 M620.437743530807,535.722247256493 L619.3772483068028,534.9499646547195 M619.3772483068028,534.9499646547195 L618.0306899815896,534.3449709235573 M618.0306899815896,534.3449709235573 L616.476326071469,533.942389571223 M616.476326071469,533.942389571223 L614.8044241404962,533.7655829758024 M614.8044241404962,533.7655829758024 L613.1120839045775,533.8248107054828 M613.1120839045775,533.8248107054828 L611.4975583585167,534.116622726634 M611.4975583585167,534.116622726634 L610.0546404293596,534.6241086721865 M610.0546404293596,534.6241086721865 L608.867138570168,535.317796589417 M608.867138570168,535.317796589417 L608.004053615764,536.157425615997 M608.004053615764,536.157425615997 L607.5156163757235,537.0942473148743 M607.5156163757235,537.0942473148743 L607.4302397006968,538.0738274561988 M607.4302397006968,538.0738274561988 L607.7529880080115,539.0392538619692 M607.7529880080115,539.0392538619692 L608.4651721251935,539.9344007815607 M608.4651721251935,539.9344007815607 L609.5254648408886,540.7072125253253 M184.00619046092052,610.6452978219065 L185.34179194354815,611.256577052987 M185.34179194354815,611.256577052987 L186.892487675709,611.6633888562087 M186.892487675709,611.6633888562087 L188.56806890984473,611.8420709664574 M188.56806890984473,611.8420709664574 L190.2710996873412,611.7822187608024 M190.2710996873412,611.7822187608024 L191.9025090953893,611.4873206544383 M191.9025090953893,611.4873206544383 L193.36745610587406,610.9745251429082 M193.36745610587406,610.9745251429082 L194.5807237378555,610.2736951557996 M194.5807237378555,610.2736951557996 L195.47183596899785,609.425586785895 M195.47183596899785,609.425586785895 L195.9890073038347,608.4795545187244 M195.9890073038347,608.4795545187244 L196.1022760334103,607.4905834210517 M196.1022760334103,607.4905834210517 L195.80513145370094,606.5161643981376 M195.80513145370094,606.5161643981376 L195.11492428872901,605.612900292555 M195.11492428872901,605.612900292555 L194.07179425871027,604.8332708191165 M194.07179425871027,604.8332708191165 L192.736411946221,604.2225219382499 M192.736411946221,604.2225219382499 L191.18633510914682,603.8161189790947 M191.18633510914682,603.8161189790947 L189.51163069046507,603.6376305590991 M189.51163069046507,603.6376305590991 L187.80953379245938,603.6974169257978 M187.80953379245938,603.6974169257978 L186.17890138145262,603.9920047512784 M186.17890138145262,603.9920047512784 L184.71439649701392,604.5043166058349 M184.71439649701392,604.5043166058349 L183.50113482409472,605.204600377654 M183.50113482409472,605.204600377654 L182.60959102006117,606.0522250908632 M182.60959102006117,606.0522250908632 L182.09164945846533,606.9979470721029 M182.09164945846533,606.9979470721029 L181.97744828606724,607.9868523289138 M181.97744828606724,607.9868523289138 L182.27371182412728,608.9614650425992 M182.27371182412728,608.9614650425992 L182.96329117307596,609.8651380030032 M182.96329117307596,609.8651380030032 L184.00619046092052,610.6452978219065 M385.27938776421394,617.1452064743679 L380.4044375880263,627.7779280440525 M385.27938776421394,617.1452064743679 L334.8073904207847,587.8385587966776 M334.8073904207847,587.8385587966776 L234.46484645927086,646.0308509650031 M234.46484645927086,646.0308509650031 L291.6356834956172,679.4897904417795 M291.6356834956172,679.4897904417795 L380.4044375880263,627.7779280440525 M563.8148200825538,391.3382343213203 L565.146085268698,391.9315348817969 M565.146085268698,391.9315348817969 L566.6840882669549,392.32638131637896 M566.6840882669549,392.32638131637896 L568.33935957228,392.4998078301973 M568.33935957228,392.4998078301973 L570.0156450023392,392.44171607091505 M570.0156450023392,392.44171607091505 L571.6154308402874,392.15549176718923 M571.6154308402874,392.15549176718923 L573.0457155561135,391.657778646209 M573.0457155561135,391.657778646209 L574.223299874996,390.9775607113797 M574.223299874996,390.9775607113797 L575.0797817016303,390.15439470988144 M575.0797817016303,390.15439470988144 L575.5653891941104,389.23618304656657 M575.5653891941104,389.23618304656657 L575.6519927783265,388.2762934247196 M575.6519927783265,388.2762934247196 L575.3346295903077,387.33052610391474 M575.3346295903077,387.33052610391474 L574.631822404313,386.45381982207664 M574.631822404313,386.45381982207664 L573.5844416613975,385.6971117852089 M573.5844416613975,385.6971117852089 L572.2534024055856,385.1043183550951 M572.2534024055856,385.1043183550951 L570.7160102832436,384.7098628645234 M570.7160102832436,384.7098628645234 L569.0615948329491,384.5366215607898 M569.0615948329491,384.5366215607898 L567.3862141820664,384.59465036368437 M567.3862141820664,384.59465036368437 L565.78717476777,384.8805779712788 M565.78717476777,384.8805779712788 L564.3573071347714,385.37782861080836 M564.3573071347714,385.37782861080836 L563.1797149997467,386.0575242448057 M563.1797149997467,386.0575242448057 L562.3228022483993,386.8802277651183 M562.3228022483993,386.8802277651183 L561.8364394522432,387.79814272747416 M561.8364394522432,387.79814272747416 L561.7489292046325,388.7579693911111 M561.7489292046325,388.7579693911111 L562.065442080928,389.7039219224972 M562.065442080928,389.7039219224972 L562.7676500919245,390.5810191586306 M562.7676500919245,390.5810191586306 L563.8148200825538,391.3382343213203 M711.4094485676053,427.05895508979074 L712.7499994332388,427.65516881009574 M712.7499994332388,427.65516881009574 L714.2957731086917,428.05195044036725 M714.2957731086917,428.05195044036725 L715.9568587176,428.2262276363355 M715.9568587176,428.2262276363355 L717.6366636579821,428.16785247289073 M717.6366636579821,428.16785247289073 L719.2374640459252,427.8802242085315 M719.2374640459252,427.8802242085315 L720.6662047230145,427.38007136293174 M720.6662047230145,427.38007136293174 L721.8397711668752,426.69651711192154 M721.8397711668752,426.69651711192154 L722.6899951278654,425.869312329986 M722.6899951278654,425.869312329986 L723.1674744922925,424.9465975477641 M723.1674744922925,424.9465975477641 L723.2445470325333,423.9819991685199 M723.2445470325333,423.9819991685199 L722.9168096118553,423.0315941937828 M722.9168096118553,423.0315941937828 L722.203388025456,422.15059071879665 M722.203388025456,422.15059071879665 L721.1457588700284,421.3901694501316 M721.1457588700284,421.3901694501316 L719.8054511216935,420.7944727735672 M719.8054511216935,420.7944727735672 L718.2602952931074,420.3980849648955 M718.2602952931074,420.3980849648955 L716.6000716195724,420.2239943429654 M716.6000716195724,420.2239943429654 L714.9211752563408,420.2823060880553 M714.9211752563408,420.2823060880553 L713.3211219346576,420.5696354711887 M713.3211219346576,420.5696354711887 L711.8927956838593,421.06932243060874 M711.8927956838593,421.06932243060874 L710.7192160731454,421.7523505338801 M710.7192160731454,421.7523505338801 L709.8685543682186,422.5790894275243 M709.8685543682186,422.5790894275243 L709.390312978459,423.5015053236571 M709.390312978459,423.5015053236571 L709.3123286869643,424.46604028112193 M709.3123286869643,424.46604028112193 L709.6392135103551,425.4166318308725 M709.6392135103551,425.4166318308725 L710.3520369608971,426.29802913893263 M710.3520369608971,426.29802913893263 L711.4094485676053,427.05895508979074 M258.2989265021919,500.5825769206941 L314.9613234538783,533.388058160815 M314.9613234538783,533.388058160815 L442.453002939854,459.78070269014944 M442.453002939854,459.78070269014944 L385.79060313675234,427.30200380139667 M258.2989265021919,500.5825769206941 L385.79060313675234,427.30200380139667 M434.9348357657272,602.90259085418 L434.90638713285847,612.7818617843229 M586.7078401170538,516.7287199283593 L586.65513749456,523.2899374477133 M586.7078401170538,516.7287199283593 L588.1294934353521,518.4323349494052 M588.1294934353521,518.4323349494052 L589.4714801971759,520.1575076971394 M589.4714801971759,520.1575076971394 L590.7328086663924,521.9029969632631 M590.813282879616,512.0539458575066 L590.7328086663924,521.9029969632631 M434.9348357657272,602.90259085418 L423.0562499446816,599.7628450229915 M423.0562499446816,599.7628450229915 L411.8275283752621,595.9042696224833 M411.8275283752621,595.9042696224833 L401.37918972602324,591.3724480279773 M401.37918972602324,591.3724480279773 L391.8322764183128,586.2208154656591 M391.8322764183128,586.2208154656591 L383.29705822788105,580.5100169595821 M383.29705822788105,580.5100169595821 L375.87162079891476,574.3071049920962 M375.87162079891476,574.3071049920962 L369.6408361601526,567.6847733218124 M369.6408361601526,567.6847733218124 L364.6753810484384,560.7203933220446 M364.6753810484384,560.7203933220446 L361.03101388801286,553.4951372619109 M361.03101388801286,553.4951372619109 L358.7479432679806,546.0929702765948 M358.7479432679806,546.0929702765948 L357.8505069412333,538.5996554939334 M357.8505069412333,538.5996554939334 L358.3469547757046,531.1017518729118 M358.3469547757046,531.1017518729118 L360.22944436012205,523.6856152406172 M360.22944436012205,523.6856152406172 L363.43988005265356,516.4991594717213 M363.43988005265356,516.4991594717213 L367.95063769523875,509.55752932901 M367.95063769523875,509.55752932901 L373.7090532311944,502.93856945407646 M373.7090532311944,502.93856945407646 L380.64868852631264,496.7163135458816 M380.64868852631264,496.7163135458816 L388.690070429806,490.96016254062124 M388.690070429806,490.96016254062124 L397.7416709304072,485.7341689342106 M397.7416709304072,485.7341689342106 L407.7009486129601,481.09635161446045 M407.7009486129601,481.09635161446045 L418.45550475965814,477.098094417892 M418.45550475965814,477.098094417892 L429.88435692662887,473.78362369126336 M429.88435692662887,473.78362369126336 L441.8592336389286,471.1895307024939 M441.8592336389286,471.1895307024939 L454.24601883270617,469.34443816245107 M454.24601883270617,469.34443816245107 L467.0192637473829,468.2626147987437 M467.0192637473829,468.2626147987437 L479.9254665276331,467.9759419605036 M479.9254665276331,467.9759419605036 L492.8178925869535,468.48763567725996 M492.8178925869535,468.48763567725996 L505.549966706337,469.79195950329023 M505.549966706337,469.79195950329023 L517.9768587094766,471.87428670268184 M517.9768587094766,471.87428670268184 L529.9570548756863,474.71126648628785 M529.9570548756863,474.71126648628785 L541.3539034143221,478.2710299990813 M541.3539034143221,478.2710299990813 L552.0371780557973,482.51355302884025 M552.0371780557973,482.51355302884025 L561.8844188487442,487.39105000232627 M561.8844188487442,487.39105000232627 L570.7824333702549,492.8484954853447 M570.7824333702549,492.8484954853447 L578.6284770542809,498.8241545554036 M578.6284770542809,498.8241545554036 L585.331522484375,505.2503157723836 M585.331522484375,505.2503157723836 L590.813282879616,512.0539458575066 M434.9348357657272,602.90259085418 L284.4585208964906,690.6027800918546 M284.4585208964906,690.6027800918546 L284.49582184029003,707.1125273888076 M446.2796270344094,636.1058533245649 L446.3011655004214,629.5196935601722 M274.1052539796197,693.6254746288508 L274.12250529300076,700.2256384874229 M274.1052539796197,693.6254746288508 L265.3938853968931,687.282207034262 M265.3938853968931,687.282207034262 L257.1640655868447,680.7315214324743 M257.1640655868447,680.7315214324743 L249.4305737612662,673.9859838781882 M249.4305737612662,673.9859838781882 L249.45336666733226,680.5818706830544 M205.6532794750873,611.3547677026411 L205.68580694213367,617.9369366116678 M205.6532794750873,611.3547677026411 L203.22767735276557,603.8015609907626 M203.22767735276557,603.8015609907626 L201.33847675590343,596.2030432991556 M201.33847675590343,596.2030432991556 L199.98804929601505,588.5720583628072 M199.98804929601505,588.5720583628072 L200.0217969328075,595.1492077295711 M239.14891190008916,482.9560879807934 L239.17370079676897,489.5097620232359 M239.11170784996665,473.1201029141051 L239.14891190008916,482.9560879807934 M284.4585208964906,690.6027800918546 L269.7398823636325,680.6316691195395 M269.7398823636325,680.6316691195395 L256.2615821183624,670.1013550000426 M256.2615821183624,670.1013550000426 L244.08720479827838,659.0647288004226 M244.08720479827838,659.0647288004226 L233.2735621786565,647.5769957899589 M233.2735621786565,647.5769957899589 L223.8703062938236,635.6953961097583 M223.8703062938236,635.6953961097583 L215.91998301914833,623.4788217225947 M215.91998301914833,623.4788217225947 L209.45767438499007,610.9875507432189 M209.45767438499007,610.9875507432189 L204.51102079671716,598.2828973933981 M204.51102079671716,598.2828973933981 L201.10003746168238,585.4269484850397 M201.10003746168238,585.4269484850397 L199.2372361418882,572.4821633514356 M199.2372361418882,572.4821633514356 L198.92752209266354,559.5111285234514 M198.92752209266354,559.5111285234514 L200.16829945337173,546.576224271892 M200.16829945337173,546.576224271892 L202.9495611563489,533.7393285134715 M202.9495611563489,533.7393285134715 L207.25399073288696,521.0615366749282 M207.25399073288696,521.0615366749282 L213.05714945563687,508.602865312554 M213.05714945563687,508.602865312554 L220.327644172482,496.42199313286824 M220.327644172482,496.42199313286824 L229.02737061113453,484.57599393419036 M229.02737061113453,484.57599393419036 L239.11170784996665,473.1201029141051 M274.1052539796197,693.6254746288508 L271.09567877629195,696.7004148085556 M271.09567877629195,696.7004148085556 L266.8850091915747,699.2512337488013 M266.8850091915747,699.2512337488013 L261.73210720899556,701.1204756978592 M261.73210720899556,701.1204756978592 L255.95431492256483,702.1926243936713 M255.95431492256483,702.1926243936713 L249.90776643086127,702.401425451712 M249.90776643086127,702.401425451712 L243.9653569311298,701.7339413250057 M243.9653569311298,701.7339413250057 L238.49343327220538,700.2314590935335 M238.49343327220538,700.2314590935335 L233.82916640987378,697.9868282119633 M233.82916640987378,697.9868282119633 L230.25956703972275,695.138688746016 M230.25956703972275,695.138688746016 L228.00384150769884,691.8627420880719 M228.00384150769884,691.8627420880719 L227.19992027293807,688.3608997654079 M227.19992027293807,688.3608997654079 L227.89628447077433,684.8486184679847 M227.89628447077433,684.8486184679847 L230.04905446721511,681.5417812097207 M230.04905446721511,681.5417812097207 L233.5251058325236,678.6433229545012 M233.5251058325236,678.6433229545012 L238.11031211190868,676.330910013009 M238.11031211190868,676.330910013009 L243.52287259809822,674.7461414335213 M243.52287259809822,674.7461414335213 L249.4305737612662,673.9859838781882 M205.6532794750873,611.3547677026411 L200.92342845763773,613.3969303457726 M200.92342845763773,613.3969303457726 L195.49339011172341,614.7217867084344 M195.49339011172341,614.7217867084344 L189.6820309075457,615.2513022997392 M189.6820309075457,615.2513022997392 L183.83081506218087,614.9542680896667 M183.83081506218087,614.9542680896667 L178.28351948145337,613.8481996216976 M178.28351948145337,613.8481996216976 L173.36597176912676,611.998239839234 M173.36597176912676,611.998239839234 L169.36668834678747,609.5133167466794 M169.36668834678747,609.5133167466794 L166.5200049083198,606.5395610995575 M166.5200049083198,606.5395610995575 L164.99216686050562,603.2517374819975 M164.99216686050562,603.2517374819975 L164.87191840717603,599.8427629039443 M164.87191840717603,599.8427629039443 L166.1653243001581,596.5124374577276 M166.1653243001581,596.5124374577276 L168.79573891706804,593.4556698008896 M168.79573891706804,593.4556698008896 L172.60845242303046,590.8511376087829 M172.60845242303046,590.8511376087829 L177.37991128766208,588.8509029347573 M177.37991128766208,588.8509029347573 L182.83078292346778,587.5716696721399 M182.83078292346778,587.5716696721399 L188.64239463094313,587.0879879930761 M188.64239463094313,587.0879879930761 L194.47509194107272,587.4280597141094 M194.47509194107272,587.4280597141094 L199.98804929601505,588.5720583628072 M145.72816505062937,435.4081719950755 L145.59182204888853,415.77489964608066 M145.59182204888853,415.77489964608066 L164.02381937612137,426.43209453069096 M61.33613373131175,323.7314875638464 L164.02381937612137,426.43209453069096 M61.33613373131175,323.7314875638464 L59.761743821185064,162.57697066426863 M59.761743821185064,162.57697066426863 L343.3621295426189,445.0746102674896 M343.38353435411983,533.422479020375 L343.3621295426189,445.0746102674896 M314.9414727594943,516.9738950354335 L343.38353435411983,533.422479020375 M239.11170784996665,473.1201029141051 L314.9414727594943,516.9738950354335 M273.2160918589762,362.7746687953836 L273.16488803858886,343.19083013893066 M273.16488803858886,343.19083013893066 L145.59182204888853,415.77489964608066 M366.66509160305714,416.33932427573615 L366.66867210934254,409.8021086358728 M366.66867210934254,409.8021086358728 L366.67404584450117,399.9908521479048 M442.504099917454,443.40772884660055 L366.67404584450117,399.9908521479048 M470.945686797178,459.6921016558858 L442.504099917454,443.40772884660055 M470.945686797178,459.6921016558858 L471.30592841402,371.5673818397511 M471.30592841402,371.5673818397511 L188.21798243864035,90.99650326221752 M189.09241419145545,251.73743830022318 L188.21798243864035,90.99650326221752 M291.5978417024471,353.74234280275016 L189.09241419145545,251.73743830022318 M291.5978417024471,353.74234280275016 L273.16488803858886,343.19083013893066 M547.4636748023008,388.10875575199066 L547.4201126718206,394.6410595372513 M547.4636748023008,388.10875575199066 L560.4398038948091,388.91483541662296 M560.4398038948091,388.91483541662296 L573.3535433361103,390.02398875400945 M573.3535433361103,390.02398875400945 L586.1840743447467,391.4344860621926 M586.1840743447467,391.4344860621926 L586.1319364267204,397.96754379314615 M692.4793892207292,416.4111203277415 L692.4036067674383,422.9498295558665 M692.4793892207292,416.4111203277415 L703.9370183973833,420.7950891252577 M703.9370183973833,420.7950891252577 L715.0704341824216,425.4569134663346 M715.0704341824216,425.4569134663346 L725.8594944663578,430.388571183657 M725.8594944663578,430.388571183657 L725.7762353446035,436.930434847458 M737.7111081521182,426.4393620195351 L737.4963020200346,442.80277703977623 M366.67404584450117,399.9908521479048 L386.44132024595245,394.2984323221121 M386.44132024595245,394.2984323221121 L406.8369242971057,389.4081829262469 M406.8369242971057,389.4081829262469 L427.7656297816649,385.34198756807467 M427.7656297816649,385.34198756807467 L449.13001460316116,382.11799293263505 M449.13001460316116,382.11799293263505 L470.8308516443877,379.7505740626934 M470.8308516443877,379.7505740626934 L492.76753655131057,378.25027057771814 M492.76753655131057,378.25027057771814 L514.8384840851886,377.623762815745 M514.8384840851886,377.623762815745 L536.9415712318018,377.87383312220095 M536.9415712318018,377.87383312220095 L558.9745369344339,378.99936990961027 M558.9745369344339,378.99936990961027 L580.8353946187262,380.99537191867876 M580.8353946187262,380.99537191867876 L602.4228948189946,383.8529363690475 M602.4228948189946,383.8529363690475 L623.6368289820905,387.5593555730815 M623.6368289820905,387.5593555730815 L644.3785845124071,392.09807831537034 M644.3785845124071,392.09807831537034 L664.5514642705666,397.44883257176474 M664.5514642705666,397.44883257176474 L684.0611459977993,403.5876222911259 M684.0611459977993,403.5876222911259 L702.8160018267181,410.48692706588656 M702.8160018267181,410.48692706588656 L720.7276113198316,418.1156599162901 M720.7276113198316,418.1156599162901 L737.7111081521182,426.4393620195351 M547.4636748023008,388.10875575199066 L545.4772243121947,384.9895017918393 M545.4772243121947,384.9895017918393 L544.8552626668843,381.6956432062539 M544.8552626668843,381.6956432062539 L545.6333420493943,378.4202846084308 M545.6333420493943,378.4202846084308 L547.7649509038786,375.35521840211555 M547.7649509038786,375.35521840211555 L551.1245519023257,372.67965427342847 M551.1245519023257,372.67965427342847 L555.5149494423895,370.54989096428403 M555.5149494423895,370.54989096428403 L560.6790444530857,369.09019522384375 M560.6790444530857,369.09019522384375 L566.3147944658879,368.38567996929726 M566.3147944658879,368.38567996929726 L572.0928110483503,368.4774012697825 M572.0928110483503,368.4774012697825 L577.6754210485335,369.3600283988305 M577.6754210485335,369.3600283988305 L582.736341009623,370.98209149462264 M582.736341009623,370.98209149462264 L586.9794431106102,373.2490290138062 M586.9794431106102,373.2490290138062 L590.1562146387985,376.02850479492383 M590.1562146387985,376.02850479492383 L592.080099637406,379.158148398379 M592.080099637406,379.158148398379 L592.6376544696,382.45488722158007 M592.6376544696,382.45488722158007 L591.7952725527311,385.7256517685778 M591.7952725527311,385.7256517685778 L589.6014453375494,388.7786109222194 M589.6014453375494,388.7786109222194 L586.1840743447467,391.4344860621926 M692.4793892207292,416.4111203277415 L693.6809728424323,413.08522978108084 M693.6809728424323,413.08522978108084 L696.275889208418,410.04349971637566 M696.275889208418,410.04349971637566 L700.103960813401,407.47251491876216 M700.103960813401,407.47251491876216 L704.9296303919273,405.5298017379928 M704.9296303919273,405.5298017379928 L710.4564881651843,404.3342957858632 M710.4564881651843,404.3342957858632 L716.3454351579032,403.95911611114764 M716.3454351579032,403.95911611114764 L722.23525416746,404.42723357720376 M722.23525416746,404.42723357720376 L727.7648060706802,405.70999217135903 M727.7648060706802,405.70999217135903 L732.5947213275908,407.72892988172 M732.5947213275908,407.72892988172 L736.4283370337034,410.36043635606364 M736.4283370337034,410.36043635606364 L739.0297077396747,413.4432595620085 M739.0297077396747,413.4432595620085 L740.2382561788149,416.7882559762763 M740.2382561788149,416.7882559762763 L739.9787144044128,420.18996502053835 M739.9787144044128,420.18996502053835 L738.2660888894566,423.43911606580485 M738.2660888894566,423.43911606580485 L735.2048220652596,426.3355846014125 M735.2048220652596,426.3355846014125 L730.9827450436569,428.7007363214738 M730.9827450436569,428.7007363214738 L725.8594944663578,430.388571183657 M621.9491097236571,510.2204750017499 L622.0096352020214,503.66217192993275 M590.7328086663924,521.9029969632631 L622.0096352020214,503.66217192993275 M737.7111081521182,426.4393620195351 L590.813282879616,512.0539458575066 M630.2899554573319,520.8103974566737 L622.0096352020214,503.66217192993275 M630.2899554573319,520.8103974566737 L630.2275113225985,527.3725243178449 M630.2899554573319,520.8103974566737 L634.1732215640689,523.2980779424738 M634.1732215640689,523.2980779424738 L636.934884647568,526.2416564488966 M636.934884647568,526.2416564488966 L638.4165839930331,529.4733754508198 M638.4165839930331,529.4733754508198 L638.5329147672057,532.8088430523795 M638.5329147672057,532.8088430523795 L637.2762736266343,536.0574647770493 M637.2762736266343,536.0574647770493 L634.717667464394,539.0334125954635 M634.717667464394,539.0334125954635 L631.0027606730023,541.5662129705711 M631.0027606730023,541.5662129705711 L626.3436255548127,543.5106088218356 M626.3436255548127,543.5106088218356 L621.0067704566759,544.7550046687855 M621.0067704566759,544.7550046687855 L615.2978108873683,545.2279353537824 M615.2978108873683,545.2279353537824 L609.5438126084894,544.9022387625271 M609.5438126084894,544.9022387625271 L604.0744531937967,543.7966188269431 M604.0744531937967,543.7966188269431 L599.2029514102517,541.9745762447828 M599.2029514102517,541.9745762447828 L595.2080468407407,539.5407106842683 M595.2080468407407,539.5407106842683 L592.3179450381592,536.6346084527255 M592.3179450381592,536.6346084527255 L590.6973087655326,533.4227722903477 M590.6973087655326,533.4227722903477 L590.4379930555233,530.0890055582313 M590.4379930555233,530.0890055582313 L591.5538818456469,526.8238274343622 M591.5538818456469,526.8238274343622 L591.5000610524405,533.3872930842481 M586.7078401170538,516.7287199283593 L591.5538818456469,526.8238274343622 M246.5676064393354,697.7044745442786 L246.54413562694214,691.1048589662491 M246.54413562694214,691.1048589662491 L245.4915555900934,690.3156706742067 M245.4915555900934,690.3156706742067 L244.79392652228603,689.4015383979229 M244.79392652228603,689.4015383979229 L244.4917116923043,688.4156443314619 M244.4917116923043,688.4156443314619 L244.60240501129624,687.4152914913121 M244.60240501129624,687.4152914913121 L245.1194903187315,686.4586241128451 M245.1194903187315,686.4586241128451 L246.01287293303062,685.6011883729341 M246.01287293303062,685.6011883729341 L247.2305661830734,684.8928007816301 M247.2305661830734,684.8928007816301 L248.70183779986172,684.374562215516 M248.70183779986172,684.374562215516 L250.34117365368508,684.0765656109138 M250.34117365368508,684.0765656109138 L252.05341120935736,684.0160890451149 M252.05341120935736,684.0160890451149 L253.73909972762522,684.1966427997432 M253.73909972762522,684.1966427997432 L255.3003668305019,684.6077468482914 M255.3003668305019,684.6077468482914 L256.6464957259191,685.2255600644636 M256.6464957259191,685.2255600644636 L257.69931798830623,686.014215004017 M257.69931798830623,686.014215004017 L258.3975808136138,686.927931167822 M258.3975808136138,686.927931167822 L258.7006866503464,687.913628104594 M258.7006866503464,687.913628104594 L258.59093748132415,688.9140479543363 M258.59093748132415,688.9140479543363 L258.07463316481665,689.8710311270819 M258.07463316481665,689.8710311270819 L257.18168948242044,690.7289591109022 M257.18168948242044,690.7289591109022 L255.96399253733682,691.4379026144819 M255.96399253733682,691.4379026144819 L254.49227544493834,691.9566334222757 M254.49227544493834,691.9566334222757 L252.8521544021084,692.2549458160195 M252.8521544021084,692.2549458160195 L251.13897180561236,692.315489387793 M251.13897180561236,692.315489387793 L249.45239490112385,692.1347385045051 M249.45239490112385,692.1347385045051 L247.89049957236665,691.7232183555997 M247.89049957236665,691.7232183555997 L246.54413562694214,691.1048589662491 M609.5254648408886,540.7072125253253 L609.5833399445053,534.1421190616232 M609.5833399445053,534.1421190616232 L608.5228072956029,533.3694791000862 M608.5228072956029,533.3694791000862 L607.8104605650308,532.4745311782824 M607.8104605650308,532.4745311782824 L607.4876363891728,531.5093194211855 M607.4876363891728,531.5093194211855 L607.5730283180633,530.5299571043029 M607.5730283180633,530.5299571043029 L608.0615710072038,529.5933437491035 M608.0615710072038,529.5933437491035 L608.9248454568997,528.7539014737345 M608.9248454568997,528.7539014737345 L610.1126098202365,528.0603678634604 M610.1126098202365,528.0603678634604 L611.5558480090019,527.5529948145308 M611.5558480090019,527.5529948145308 L613.1707329767046,527.2612477141657 M613.1707329767046,527.2612477141657 L614.8634509307092,527.202033161471 M614.8634509307092,527.202033161471 L616.5357269645212,527.378800421275 M616.5357269645212,527.378800421275 L618.0904396520345,527.7812922115631 M618.0904396520345,527.7812922115631 L619.4373011864184,528.3861513593544 M619.4373011864184,528.3861513593544 L620.4980364344487,529.15826217978 M620.4980364344487,529.15826217978 L621.2109990527185,530.0528038800953 M621.2109990527185,530.0528038800953 L621.5346908384324,531.0178246764674 M621.5346908384324,531.0178246764674 L621.4502467849204,531.9972644512909 M621.4502467849204,531.9972644512909 L620.9624543185205,532.9341711709819 M620.9624543185205,532.9341711709819 L620.0996432754698,533.7741028281628 M620.0996432754698,533.7741028281628 L618.911888568322,534.4681749529841 M618.911888568322,534.4681749529841 L617.4682040732282,534.9760122863697 M617.4682040732282,534.9760122863697 L615.8525798534183,535.2680778453288 M615.8525798534183,535.2680778453288 L614.1589163517754,535.3273447597576 M614.1589163517754,535.3273447597576 L612.4857658598225,535.1503865412342 M612.4857658598225,535.1503865412342 L610.9304228291289,534.7474948034308 M610.9304228291289,534.7474948034308 L609.5833399445053,534.1421190616232 M184.00619046092052,610.6452978219065 L183.96881197318936,604.0647333574565 M183.96881197318936,604.0647333574565 L182.92568053889778,603.2847452995873 M182.92568053889778,603.2847452995873 L182.23594869477805,602.3812713161087 M182.23594869477805,602.3812713161087 L181.9396211451323,601.406873227108 M181.9396211451323,601.406873227108 L182.05385047726188,600.4181857718609 M182.05385047726188,600.4181857718609 L182.57191069585306,599.4726721090206 M182.57191069585306,599.4726721090206 L183.46365673521996,598.6252341289364 M183.46365673521996,598.6252341289364 L184.67719244444947,597.9251046472256 M184.67719244444947,597.9251046472256 L186.14202724848647,597.4129056772607 M186.14202724848647,597.4129056772607 L187.77302629629756,597.1183827658995 M187.77302629629756,597.1183827658995 L189.47550527892548,597.0586095737913 M189.47550527892548,597.0586095737913 L191.15058505666286,597.2370586622005 M191.15058505666286,597.2370586622005 L192.7010087502923,597.6433720702815 M192.7010087502923,597.6433720702815 L194.03668927456152,598.2539863817774 M194.03668927456152,598.2539863817774 L195.0800515559203,599.0334440919717 M195.0800515559203,599.0334440919717 L195.77041149892858,599.9365092189252 M195.77041149892858,599.9365092189252 L196.0676204862497,600.9107136163476 M196.0676204862497,600.9107136163476 L195.95432401540984,601.8994669127308 M195.95432401540984,601.8994669127308 L195.43703436861773,602.8452908627951 M195.43703436861773,602.8452908627951 L194.54572009471568,603.6932125015901 M194.54572009471568,603.6932125015901 L193.33217842241046,604.3938882008667 M193.33217842241046,604.3938882008667 L191.86690129264602,604.9065708298207 M191.86690129264602,604.9065708298207 L190.23512489819367,605.2014040233585 M190.23512489819367,605.2014040233585 L188.5317116166401,605.2612430546973 M188.5317116166401,605.2612430546973 L186.85575463026902,605.0826002752278 M186.85575463026902,605.0826002752278 L185.30471176469604,604.6758780213765 M185.30471176469604,604.6758780213765 L183.96881197318936,604.0647333574565 M380.4044375880263,627.7779280440525 L380.4111579607135,621.1935962900025 M385.2871982133346,610.5632116987837 L380.4111579607135,621.1935962900025 M385.2871982133346,610.5632116987837 L385.27938776421394,617.1452064743679 M334.8073904207847,587.8385587966776 L334.79859138422,571.3941905163033 M392.00218866410904,604.5726084589176 L334.79859138422,571.3941905163033 M391.9882044359993,614.4524313824887 L392.00218866410904,604.5726084589176 M385.2871982133346,610.5632116987837 L391.9882044359993,614.4524313824887 M234.46484645927086,646.0308509650031 L234.39954219606562,629.554450332896 M334.79859138422,571.3941905163033 L234.39954219606562,629.554450332896 M291.6356834956172,679.4897904417795 L291.6024789673003,662.9950883470677 M234.39954219606562,629.554450332896 L291.6024789673003,662.9950883470677 M391.9882044359993,614.4524313824887 L380.4111579607135,621.1935962900025 M291.6024789673003,662.9950883470677 L392.00218866410904,604.5726084589176 M563.8148200825538,391.3382343213203 L563.8619983918809,384.80667945143335 M563.8619983918809,384.80667945143335 L562.8145943587913,384.04963603384016 M562.8145943587913,384.04963603384016 L562.1122282325505,383.172737755169 M562.1122282325505,383.172737755169 L561.7956423291932,382.22699982627125 M561.7956423291932,382.22699982627125 L561.8831688512014,381.2673909403978 M561.8831688512014,381.2673909403978 L562.3696362415274,380.34968427247617 M562.3696362415274,380.34968427247617 L563.2267358055947,379.5271674628085 M563.2267358055947,379.5271674628085 L564.4045860913677,378.84762609963354 M564.4045860913677,378.84762609963354 L565.8347682174178,378.35048833017777 M565.8347682174178,378.35048833017777 L567.4341601965896,378.06462562819826 M567.4341601965896,378.06462562819826 L569.1099110304181,378.00660999815443 M569.1099110304181,378.00660999815443 L570.764692798527,378.1798119754821 M570.764692798527,378.1798119754821 L572.3024261207077,378.57417792661846 M572.3024261207077,378.57417792661846 L573.6337616447966,379.1668368044443 M573.6337616447966,379.1668368044443 L574.681376521711,379.9233730991603 M574.681376521711,379.9233730991603 L575.3843420866749,380.7998804258064 M575.3843420866749,380.7998804258064 L575.7017786772408,381.74543314519843 M575.7017786772408,381.74543314519843 L575.6151592198587,382.70510498891633 M575.6151592198587,382.70510498891633 L575.1294474682666,383.6231083560741 M575.1294474682666,383.6231083560741 L574.2727790210445,384.44608764424174 M574.2727790210445,384.44608764424174 L573.0949365565998,385.1261513052159 M573.0949365565998,385.1261513052159 L571.6643371647749,385.6237515534366 M571.6643371647749,385.6237515534366 L570.0641984327856,385.9099109498246 M570.0641984327856,385.9099109498246 L568.3875424197993,385.96798953589075 M568.3875424197993,385.96798953589075 L566.7319044174958,385.79460234955366 M566.7319044174958,385.79460234955366 L565.1935599479116,385.3998454566771 M565.1935599479116,385.3998454566771 L563.8619983918809,384.80667945143335 M711.4094485676053,427.05895508979074 L711.489466184242,420.5193181070728 M711.489466184242,420.5193181070728 L710.4318159814848,419.7585639187479 M710.4318159814848,419.7585639187479 L709.7188296948952,418.87736558896574 M709.7188296948952,418.87736558896574 L709.3918672309378,417.92698866472074 M709.3918672309378,417.92698866472074 L709.469863558576,416.9626715089263 M709.469863558576,416.9626715089263 L709.948205926752,416.04046392994815 M709.948205926752,416.04046392994815 L710.7990516596064,415.21391176782066 M710.7990516596064,415.21391176782066 L711.9728876299528,414.5310379524402 M711.9728876299528,414.5310379524402 L713.4015276800994,414.0314638752973 M713.4015276800994,414.0314638752973 L715.001934009382,413.7441994050212 M715.001934009382,413.7441994050212 L716.6812021102105,413.6859008339052 M716.6812021102105,413.6859008339052 L718.3417946768136,413.8599521250369 M718.3417946768136,413.8599521250369 L719.8872951517765,414.25625038464545 M719.8872951517765,414.25625038464545 L721.2279032863023,414.8518124946914 M721.2279032863023,414.8518124946914 L722.2857711290158,415.61206200156477 M722.2857711290158,415.61206200156477 L722.9993558144847,416.49286649992 M722.9993558144847,416.49286649992 L723.3271712527271,417.44305684993174 M723.3271712527271,417.44305684993174 L723.2500870809563,418.40743742724044 M723.2500870809563,418.40743742724044 L722.772507077646,419.32994389105755 M722.772507077646,419.32994389105755 L721.922099285405,420.15696193952795 M721.922099285405,420.15696193952795 L720.7482764906699,420.84036190044674 M720.7482764906699,420.84036190044674 L719.3192218330655,421.34040186182096 M719.3192218330655,421.34040186182096 L717.7180681079399,421.62796521207287 M717.7180681079399,421.62796521207287 L716.037891027458,421.6863272012785 M716.037891027458,421.6863272012785 L714.3764361422732,421.51208933688895 M714.3764361422732,421.51208933688895 L712.8303175443104,421.11539725732763 M712.8303175443104,421.11539725732763 L711.489466184242,420.5193181070728 M314.9613234538783,533.388058160815 L314.9414727594943,516.9738950354335 M258.2783805570642,494.0264263870781 L239.14891190008916,482.9560879807934 M258.2989265021919,500.5825769206941 L258.2783805570642,494.0264263870781 M442.453002939854,459.78070269014944 L442.504099917454,443.40772884660055 M314.9414727594943,516.9738950354335 L442.504099917454,443.40772884660055 M385.79060313675234,427.30200380139667 L385.79842678541667,420.7623119594024 M366.66867210934254,409.8021086358728 L385.79842678541667,420.7623119594024 M385.79842678541667,420.7623119594024 L258.2783805570642,494.0264263870781 M343.38353435411983,533.422479020375 L360.22944436012205,523.6856152406172 M360.22944436012205,523.6856152406172 L454.24601883270617,469.34443816245107 M454.24601883270617,469.34443816245107 L470.945686797178,459.6921016558858 M164.02381937612137,426.43209453069096 L291.5978417024471,353.74234280275016 M239.14891190008916,482.9560879807934 L249.52614133503823,472.8724357761474 M249.52614133503823,472.8724357761474 L260.97331852243303,463.1978188038447 M260.97331852243303,463.1978188038447 L273.443423222215,453.96939105640564 M273.443423222215,453.96939105640564 L286.88567742840024,445.22244636352224 M286.88567742840024,445.22244636352224 L301.24580501062405,436.99032376018397 M301.24580501062405,436.99032376018397 L316.46622036312164,429.30428179149675 M316.46622036312164,429.30428179149675 L332.486256374934,422.19340175275977 M332.486256374934,422.19340175275977 L349.2424344936988,415.68451760045457 M349.2424344936988,415.68451760045457 L366.66867210934254,409.8021086358728 M239.11170784996665,473.1201029141051 L248.24306676137456,464.1792290482385 M248.24306676137456,464.1792290482385 L258.2167641379267,455.5551859548497 M258.2167641379267,455.5551859548497 L269.000658259137,447.2739368241753 M269.000658259137,447.2739368241753 L274.63473323772115,455.8359531942477 M274.63473323772115,455.8359531942477 L282.30293855911697,465.0437771859386 M282.30293855911697,465.0437771859386 L293.107682069078,475.8984352103491 M293.107682069078,475.8984352103491 L306.7435467980846,487.70626291282554 M306.7435467980846,487.70626291282554 L316.8860709179554,495.6139592171091 M316.8860709179554,495.6139592171091 L327.8622627107465,503.5560733055107 M327.8622627107465,503.5560733055107 L419.4000535467783,450.7870795910589 M419.4000535467783,450.7870795910589 L399.3023557392546,441.7354753065132 M399.3023557392546,441.7354753065132 L379.44550388209325,433.75193734545803 M379.44550388209325,433.75193734545803 L361.136999885433,427.2893558459146 M361.136999885433,427.2893558459146 L344.3108852190656,422.20150761007255 M344.3108852190656,422.20150761007255 L332.7840816849457,419.2611867852931 M332.7840816849457,419.2611867852931 L321.8975814996521,416.9670930132124 M321.8975814996521,416.9670930132124 L336.2734210494227,410.8268651603093 M336.2734210494227,410.8268651603093 L351.21428371316875,405.16255965548874 M351.21428371316875,405.16255965548874 L366.67404584450117,399.9908521479048 M343.3621295426189,445.0746102674896 L471.30592841402,371.5673818397511 M189.09241419145545,251.73743830022318 L61.33613373131175,323.7314875638464 M321.8975814996521,416.9670930132124 L326.44540400562005,411.6716525012714 M265.4431998637125,446.61591210665244 L279.1483608824359,436.99827536505677 M279.1483608824359,436.99827536505677 L293.9294113399099,427.9427810597396 M293.9294113399099,427.9427810597396 L309.71892853494273,419.4884679089753 M309.71892853494273,419.4884679089753 L326.44540400562005,411.6716525012714 M265.4431998637125,446.61591210665244 L269.000658259137,447.2739368241753 M395.51738596379386,420.61771693734505 L402.3343357536716,417.05374901207085 M402.3343357536716,417.05374901207085 L408.65196511965945,414.476874655034 M408.65196511965945,414.476874655034 L414.33689558234494,412.9406973586688 M414.33689558234494,412.9406973586688 L419.26951650125,412.47654526896775 M419.26951650125,412.47654526896775 L423.34645539210715,413.0929080604331 M423.34645539210715,413.0929080604331 L426.4827367731617,414.77538296619366 M426.4827367731617,414.77538296619366 L428.6134662720498,417.4870870442615 M428.6134662720498,417.4870870442615 L429.6951132454345,421.1695321439135 M429.6951132454345,421.1695321439135 L429.7063058072452,425.7440025299585 M429.7063058072452,425.7440025299585 L428.64814782690956,431.1132901138742 M428.64814782690956,431.1132901138742 L426.5441088893916,437.16380869591774 M426.5441088893916,437.16380869591774 L423.4394215749071,443.7680031616563 M423.4394215749071,443.7680031616563 L419.4000535467783,450.7870795910589 M326.44540400562005,411.6716525012714 L312.5037037087133,408.72756354594685 M312.5037037087133,408.72756354594685 L299.7671423208653,406.87113164422345 M299.7671423208653,406.87113164422345 L289.6362054035718,406.15496329770326 M289.6362054035718,406.15496329770326 L281.201387687616,406.2809507266257 M281.201387687616,406.2809507266257 L274.28403040858615,407.10307932868443 M274.28403040858615,407.10307932868443 L268.68314502616596,408.5069655753581 M268.68314502616596,408.5069655753581 L264.47497044271404,410.2818321717395 M264.47497044271404,410.2818321717395 L261.0814053374147,412.53070655649844 M261.0814053374147,412.53070655649844 L258.52257708717224,415.24072131810425 M258.52257708717224,415.24072131810425 L256.8138497484798,418.39635205998843 M256.8138497484798,418.39635205998843 L255.96572634284001,421.9794979467285 M255.96572634284001,421.9794979467285 L256.18253944224256,427.3861374671836 M256.18253944224256,427.3861374671836 L258.09817155060057,433.85995373548485 M258.09817155060057,433.85995373548485 L261.1409605783611,440.0106076771732 M261.1409605783611,440.0106076771732 L265.4431998637125,446.61591210665244 M327.8622627107465,503.5560733055107 L328.4743441907311,498.49519352338166 M328.4743441907311,498.49519352338166 L330.1518137357664,492.6952096340349 M330.1518137357664,492.6952096340349 L332.86031432391496,486.27820961112644 M332.86031432391496,486.27820961112644 L336.54343274959433,479.3797230887306 M336.54343274959433,479.3797230887306 L341.12381320673603,472.1458129353368 M341.12381320673603,472.1458129353368 L346.5047665871127,464.7299652399744 M346.5047665871127,464.7299652399744 L352.57232681625607,457.28975084175676 M352.57232681625607,457.28975084175676 L359.19769069310945,449.9834259359786 M359.19769069310945,449.9834259359786 L366.2400146194124,442.96644266563504 M366.2400146194124,442.96644266563504 L373.549474254403,436.3880675033465 M373.549474254403,436.3880675033465 L380.97054882187234,430.38813954154955 M380.97054882187234,430.38813954154955 L388.34541256491934,425.0939950434674 M388.34541256491934,425.0939950434674 L395.51738596379386,420.61771693734505 M395.51738596379386,420.61771693734505 L385.01930772688934,409.92829898707555 M385.01930772688934,409.92829898707555 L374.52654995421966,399.2443098520895 M374.52654995421966,399.2443098520895 L364.03910319226725,388.56572973197564 M364.03910319226725,388.56572973197564 L353.55696646210396,377.8925562675175 M353.55696646210396,377.8925562675175 L343.0801360704906,367.22478554703923 M343.0801360704906,367.22478554703923 L332.60860764263174,356.56240068994214 M332.60860764263174,356.56240068994214 L322.1423754737676,345.90542180163663 M322.1423754737676,345.90542180163663 L311.6814368967533,335.2538329807095 M311.6814368967533,335.2538329807095 L301.2257878965295,324.6076301389269 M301.2257878965295,324.6076301389269 L290.7754298646851,313.9668122764173 M290.7754298646851,313.9668122764173 L280.3303479556781,303.33135654971943 M280.3303479556781,303.33135654971943 L269.8905436280249,292.70128715290105 M269.8905436280249,292.70128715290105 L259.4560074656326,282.07658434846263 M259.4560074656326,282.07658434846263 L249.02675164921249,271.4572532941353 M249.02675164921249,271.4572532941353 L238.60276139715097,260.843283770112 M238.60276139715097,260.843283770112 L228.18402190852947,250.23465298628912 M228.18402190852947,250.23465298628912 L217.77055083171052,239.63139435349353 M217.77055083171052,239.63139435349353 L207.36232262311256,229.03347896511474 M207.36232262311256,229.03347896511474 L196.95935481112335,218.44091501999708 M196.95935481112335,218.44091501999708 L186.5616326004222,207.85367974517067 M186.5616326004222,207.85367974517067 L176.1691415063268,197.27180081154594 M176.1691415063268,197.27180081154594 L165.78189873958306,186.69523597570475 M165.78189873958306,186.69523597570475 L155.3998897468638,176.124000306761 M155.3998897468638,176.124000306761 L145.02308933699,165.5581028285909 M145.02308933699,165.5581028285909 L134.6515360551805,154.99751343182245 M134.6515360551805,154.99751343182245 L124.2852048868906,144.4422663572828 M124.2852048868906,144.4422663572828 L116.74159334778358,149.31414730459971 M116.74159334778358,149.31414730459971 L109.3557367268939,155.41152354293382 M109.3557367268939,155.41152354293382 L102.25908859853405,162.63197725635308 M102.25908859853405,162.63197725635308 L95.59600299863291,170.841231859296 M95.59600299863291,170.841231859296 L89.50264880716486,179.88763291863677 M89.50264880716486,179.88763291863677 L84.10953461742497,189.59825206138834 M84.10953461742497,189.59825206138834 L79.53808720129945,199.77978781510603 M79.53808720129945,199.77978781510603 L75.89639724282887,210.22096977942178 M75.89639724282887,210.22096977942178 L73.27454513652509,220.69692899955473 M73.27454513652509,220.69692899955473 L71.74004551962366,230.97529771051134 M71.74004551962366,230.97529771051134 L71.33397374857225,240.82382968447635 M71.33397374857225,240.82382968447635 L71.55902127463901,245.51629187432647 M71.55902127463901,245.51629187432647 L72.06834648636283,250.0186503378664 M72.06834648636283,250.0186503378664 L73.6898916678116,257.5628396313493 M73.6898916678116,257.5628396313493 L76.18713158996877,264.27467072638007 M76.18713158996877,264.27467072638007 L79.50864196530136,270.03919128520823 M79.50864196530136,270.03919128520823 L83.5874379085925,274.7631242406872 M83.5874379085925,274.7631242406872 L88.34370922935204,278.3761361213117 M88.34370922935204,278.3761361213117 L93.68782755783116,280.83066043657743 M93.68782755783116,280.83066043657743 L99.52324677570368,282.1009782122608 M99.52324677570368,282.1009782122608 L105.74913786746174,282.181354013684 M105.74913786746174,282.181354013684 L112.26251016644039,281.0840314418703 M112.26251016644039,281.0840314418703 L118.95973239023448,278.8370565504052 M118.95973239023448,278.8370565504052 L125.73746488876253,275.48246853761975 M125.73746488876253,275.48246853761975 L133.23783834234553,270.5232663231572 M133.23783834234553,270.5232663231572 L140.57110321907174,264.35772111789595 M140.57110321907174,264.35772111789595 L147.59949971593028,257.0970404329114 M147.59949971593028,257.0970404329114 L154.1873734734878,248.87138343254455 M154.1873734734878,248.87138343254455 L160.2023979410438,239.8306870330233 M160.2023979410438,239.8306870330233 L165.51776380868307,230.14512582058236 M165.51776380868307,230.14512582058236 L170.01539219410645,220.00438913166948 M170.01539219410645,220.00438913166948 L173.58997524176635,209.61553723734514 M173.58997524176635,209.61553723734514 L176.15343672055957,199.19889669681834 M176.15343672055957,199.19889669681834 L177.63937087369604,188.98240756996097 M177.63937087369604,188.98240756996097 L178.00684106881044,179.1943607158309 M178.00684106881044,179.1943607158309 L177.3701057149701,170.93427031714714 M177.3701057149701,170.93427031714714 L175.82774302662915,163.35093694587877 M175.82774302662915,163.35093694587877 L173.40978728865818,156.57994310681943 M173.40978728865818,156.57994310681943 L170.16400956928575,150.7386902334855 M170.16400956928575,150.7386902334855 L166.153952209514,145.92378920890536 M166.153952209514,145.92378920890536 L161.4564238908725,142.20970944996787 M161.4564238908725,142.20970944996787 L156.15867687583415,139.64851945033087 M156.15867687583415,139.64851945033087 L150.35559490236432,138.27062081352256 M150.35559490236432,138.27062081352256 L144.147119830677,138.08625842695176 M144.147119830677,138.08625842695176 L137.63612560547938,139.08725796056262 M137.63612560547938,139.08725796056262 L131.01217775419315,141.21480017532082 M131.01217775419315,141.21480017532082 L124.2852048868906,144.4422663572828 M188.21798243864035,90.99650326221752 L59.761743821185064,162.57697066426863" stroke="black"  stroke-width="4"  fill="red"/></svg>