<svg viewBox="0 0 800 800" xmlns="http://www.w3.org/2000/svg"><path d="M390.7018852388743,604.7109416842111 L383.2927252462486,604.029158130669 M383.2927252462486,604.029158130669 L383.31321340259296,596.8635481806202 M390.72403907061425,597.5451815972209 L383.31321340259296,596.8635481806202 M390.72403907061425,597.5451815972209 L390.7018852388743,604.7109416842111 M390.7018852388743,604.7109416842111 L396.70975223558287,603.5955643420954 M396.70975223558287,603.5955643420954 L403.0062081312725,603.3418488455272 M403.0062081312725,603.3418488455272 L409.23250736017326,603.9642186913366 M409.23250736017326,603.9642186913366 L415.03380956049716,605.4273035048293 M415.03380956049716,605.4273035048293 L420.0793436725929,607.6479304694417 M420.0793436725929,607.6479304694417 L424.081082214268,610.4997807196255 M424.081082214268,610.4997807196255 L426.81018006261377,613.8204801986085 M426.81018006261377,613.8204801986085 L428.1100647505518,617.4207412563208 M428.1100647505518,617.4207412563208 L427.90552548112316,621.0950786372432 M427.90552548112316,621.0950786372432 L426.20724879300303,624.6334980325796 M426.20724879300303,624.6334980325796 L423.1114488756299,627.8335369901558 M423.1114488756299,627.8335369901558 L418.79443497810223,630.5118186781558 M418.79443497810223,630.5118186781558 L413.5028577090494,632.5147419108075 M413.5028577090494,632.5147419108075 L407.5394603742966,633.7273256184328 M407.5394603742966,633.7273256184328 L401.24575585431256,634.0799191123435 M401.24575585431256,634.0799191123435 L394.98234237031005,633.5522573628102 M394.98234237031005,633.5522573628102 L389.10811109604646,632.1746634902377 M389.10811109604646,632.1746634902377 L383.9593927012303,630.0262627500051 M344.89072900344223,626.425423096927 L383.9593927012303,630.0262627500051 M344.89072900344223,626.425423096927 L383.2927252462486,604.029158130669 M396.34273775310686,621.8613934985074 L397.810622558695,622.5286545997933 M397.810622558695,622.5286545997933 L399.5090333573245,622.9727361502275 M399.5090333573245,622.9727361502275 L401.3392085519251,623.1677842999004 M401.3392085519251,623.1677842999004 L403.19471620082527,623.1024586954104 M403.19471620082527,623.1024586954104 L404.96758620002686,622.7805361451058 M404.96758620002686,622.7805361451058 L406.55477785213736,622.2207843120846 M406.55477785213736,622.2207843120846 L407.86395202929475,621.4557599367379 M407.86395202929475,621.4557599367379 L408.81903927698636,620.5299660100341 M408.81903927698636,620.5299660100341 L409.3646078512422,619.4972845225109 M409.3646078512422,619.4972845225109 L409.4689725340884,618.4177229718434 M409.4689725340884,618.4177229718434 L409.1261998053511,617.3540552679033 M409.1261998053511,617.3540552679033 L408.356275376789,616.3680685644404 M408.356275376789,616.3680685644404 L407.2040032130276,615.5170319104832 M407.2040032130276,615.5170319104832 L405.73635614992656,614.8503439430306 M405.73635614992656,614.8503439430306 L404.03862336717356,614.4067130158135 M404.03862336717356,614.4067130158135 L402.2094096874038,614.211876708224 M402.2094096874038,614.211876708224 L400.3549447283923,614.277144135116 M400.3549447283923,614.277144135116 L398.5828935957843,614.5987134895499 M398.5828935957843,614.5987134895499 L396.9961993913728,615.1579501741276 M396.9961993913728,615.1579501741276 L395.6870211509446,615.922377142643 M395.6870211509446,615.922377142643 L394.7314292598514,616.8476282579902 M394.7314292598514,616.8476282579902 L394.1850372026639,617.8799842089475 M394.1850372026639,617.8799842089475 L394.07962885048266,618.9594599203783 M394.07962885048266,618.9594599203783 L394.4214429461279,620.0233394686256 M394.4214429461279,620.0233394686256 L395.1906954415583,621.0097698810164 M395.1906954415583,621.0097698810164 L396.34273775310686,621.8613934985074 M220.24401176397345,688.3250486373458 L220.2845984010575,706.2890745744589 M383.97519278156693,592.8996950072476 L220.24401176397345,688.3250486373458 M383.92361343297745,610.8114998193801 L220.2845984010575,706.2890745744589 M383.97519278156693,592.8996950072476 L383.92361343297745,610.8114998193801 M344.9026052445549,619.2548880013726 L383.31321340259296,596.8635481806202 M344.9026052445549,619.2548880013726 L344.89072900344223,626.425423096927 M383.98006396130756,622.8549371019137 L389.12994397781256,625.0028663400462 M389.12994397781256,625.0028663400462 L395.00549939566,626.3801579445771 M395.00549939566,626.3801579445771 L401.2703235666927,626.9077039299693 M401.2703235666927,626.9077039299693 L407.5654442673027,626.5551877909718 M407.5654442673027,626.5551877909718 L413.53018191356784,625.3428701365792 M413.53018191356784,625.3428701365792 L418.82294669109785,623.340386455521 M418.82294669109785,623.340386455521 L423.1409272631314,620.6626927047591 M423.1409272631314,620.6626927047591 L426.2374178062013,617.4633564830474 M426.2374178062013,617.4633564830474 L427.93606985874624,613.925714465177 M427.93606985874624,613.925714465177 L428.1406481626484,610.252184691949 M428.1406481626484,610.252184691949 L426.84046439984434,606.652715325401 M426.84046439984434,606.652715325401 L424.11074687368784,603.332746382953 M424.11074687368784,603.332746382953 L420.1081037430861,600.48152377039 M420.1081037430861,600.48152377039 L415.06143190511386,598.2613856803139 M415.06143190511386,598.2613856803139 L409.25882372717535,596.7986230424099 M409.25882372717535,596.7986230424099 L403.03112457615896,596.176390262374 M403.03112457615896,596.176390262374 L396.73325438295115,596.4300498813594 M396.73325438295115,596.4300498813594 L390.72403907061425,597.5451815972209 M344.9026052445549,619.2548880013726 L383.98006396130756,622.8549371019137 M396.36618400082205,614.691860940319 L395.2138813297129,613.8404244552746 M395.2138813297129,613.8404244552746 L394.4444544034844,612.854210822532 M394.4444544034844,612.854210822532 L394.1025619171307,611.7905651047047 M394.1025619171307,611.7905651047047 L394.2079924378636,610.711326683843 M394.2079924378636,610.711326683843 L394.7545058895074,609.679197695981 M394.7545058895074,609.679197695981 L395.71031132301346,608.7541500220252 M395.71031132301346,608.7541500220252 L397.01978281666715,607.9898911513899 M397.01978281666715,607.9898911513899 L398.6068329453662,607.4307774535666 M398.6068329453662,607.4307774535666 L400.37928200948085,607.1092788222825 M400.37928200948085,607.1092788222825 L402.2341638064589,607.0440257500893 M402.2341638064589,607.0440257500893 L404.06378904979033,607.2388192063872 M404.06378904979033,607.2388192063872 L405.7619042390737,607.6823525676582 M405.7619042390737,607.6823525676582 L407.2298823545815,608.348893923459 M407.2298823545815,608.348893923459 L408.3824149830841,609.1997434435723 M408.3824149830841,609.1997434435723 L409.1525141453541,610.185513364379 M409.1525141453541,610.185513364379 L409.4953656956999,611.2489472368331 M409.4953656956999,611.2489472368331 L409.39097930854155,612.3282714942538 M409.39097930854155,612.3282714942538 L408.84528971612497,613.3607260234285 M408.84528971612497,613.3607260234285 L407.8899891484883,614.2863165083609 M407.8899891484883,614.2863165083609 L406.5805217208474,615.051172788832 M406.5805217208474,615.051172788832 L404.9929739268375,615.6108016407989 M404.9929739268375,615.6108016407989 L403.21970562294905,615.9326534666202 M403.21970562294905,615.9326534666202 L401.3637806725036,615.9979647198131 M401.3637806725036,615.9979647198131 L399.5331934814965,615.8029594203667 M399.5331934814965,615.8029594203667 L397.8343999693222,615.3589754343898 M397.8343999693222,615.3589754343898 L396.36618400082205,614.691860940319 M383.98006396130756,622.8549371019137 L383.9593927012303,630.0262627500051 M396.34273775310686,621.8613934985074 L396.36618400082205,614.691860940319 M220.2845984010575,706.2890745744589 L216.45232152364588,703.8261142394324 M216.45232152364588,703.8261142394324 L212.68964512201063,701.3280327082623 M212.68964512201063,701.3280327082623 L208.9975372390869,698.7955467435802 M208.97876632542886,691.614000435693 L208.9975372390869,698.7955467435802 M208.97876632542886,691.614000435693 L199.50004758109452,684.7119793722773 M199.50004758109452,684.7119793722773 L190.54529534495583,677.5842696660177 M190.54529534495583,677.5842696660177 L182.1305906713851,670.2445442659002 M182.1305906713851,670.2445442659002 L182.15539131481023,677.4214367712593 M182.15539131481023,677.4214367712593 L171.295497103937,666.7958452935466 M171.295497103937,666.7958452935466 L161.56463900560283,655.8207114887985 M161.56463900560283,655.8207114887985 L152.99624962469557,644.5370354750878 M152.99624962469557,644.5370354750878 L145.6192397736399,632.9867924059258 M145.6192397736399,632.9867924059258 L139.4580605168087,621.2127578728512 M139.4580605168087,621.2127578728512 L134.53251956723892,609.2583570919714 M134.49712688368174,602.0963908378885 L134.53251956723892,609.2583570919714 M134.49712688368174,602.0963908378885 L131.85786302005215,593.8778518838972 M131.85786302005215,593.8778518838972 L129.80225018043564,585.6100106843635 M129.80225018043564,585.6100106843635 L128.33286888226752,577.3068423283232 M128.33286888226752,577.3068423283232 L128.3695892155198,584.4633468884274 M128.3695892155198,584.4633468884274 L127.2424459943278,571.163461684504 M127.2424459943278,571.163461684504 L127.6144567284183,557.8661216705345 M127.6144567284183,557.8661216705345 L129.4803388569028,544.6279658512894 M129.4803388569028,544.6279658512894 L132.8284804987776,531.5051068392768 M132.8284804987776,531.5051068392768 L137.64106471126973,518.5528915969387 M137.64106471126973,518.5528915969387 L143.89418172699652,505.8256904925859 M143.89418172699652,505.8256904925859 L151.5580324083926,493.37666524279695 M151.5580324083926,493.37666524279695 L160.59707435952095,481.25756704228553 M160.59707435952095,481.25756704228553 L170.97023014897377,469.5185383145811 M170.90277648755517,451.6851786609658 L170.97023014897377,469.5185383145811 M220.24401176397345,688.3250486373458 L204.22886631035095,677.475621755957 M204.22886631035095,677.475621755957 L189.56331566083168,666.017733723746 M189.56331566083168,666.017733723746 L176.3165453734057,654.0089345736351 M176.3165453734057,654.0089345736351 L164.55037154896388,641.5092923897303 M164.55037154896388,641.5092923897303 L154.31881987405586,628.5810893718135 M154.31881987405586,628.5810893718135 L145.66818392270744,615.2884050437995 M145.66818392270744,615.2884050437995 L138.63663596321362,601.6968271822518 M138.63663596321362,601.6968271822518 L133.25425113543088,587.8730709373376 M133.25425113543088,587.8730709373376 L129.54280770752734,573.8846921037881 M129.54280770752734,573.8846921037881 L127.51591955336107,559.7996518116611 M127.51591955336107,559.7996518116611 L127.17892401289112,545.6860495929216 M127.17892401289112,545.6860495929216 L128.528996566337,531.6117605508374 M128.528996566337,531.6117605508374 L131.5552486628426,517.6441131841909 M131.5552486628426,517.6441131841909 L136.23883849414642,503.84958457532844 M136.23883849414642,503.84958457532844 L142.5531746216232,490.2934779026986 M142.5531746216232,490.2934779026986 L150.46409859398182,477.039640649059 M150.46409859398182,477.039640649059 L159.93014968360603,464.15017401892214 M159.93014968360603,464.15017401892214 L170.90277648755517,451.6851786609658 M383.97519278156693,592.8996950072476 L370.3663616140495,589.2747691119455 M370.3663616140495,589.2747691119455 L357.5524094932035,584.7831650424455 M357.5524094932035,584.7831650424455 L345.6988195165194,579.4838301127504 M345.6988195165194,579.4838301127504 L334.9582285774774,573.4462283382185 M334.9582285774774,573.4462283382185 L325.46837447926515,566.7493118874777 M325.46837447926515,566.7493118874777 L317.35036277731035,559.4804662442835 M317.35036277731035,559.4804662442835 L310.7071223032208,551.734276184696 M310.7071223032208,551.734276184696 L305.6221662912882,543.6112830228822 M305.6221662912882,543.6112830228822 L302.15855990931306,535.2165868538355 M302.15855990931306,535.2165868538355 L300.3582958035615,526.6584732059293 M300.3582958035615,526.6584732059293 L300.24180958645974,518.0470122919546 M300.24180958645974,518.0470122919546 L301.80790504246653,509.4925819704504 M301.80790504246653,509.4925819704504 L305.0338610776184,501.1044832110131 M305.0338610776184,501.1044832110131 L309.875894423806,492.98956223504314 M309.875894423806,492.98956223504314 L316.26983611775444,485.25086037825565 M316.26983611775444,485.25086037825565 L324.1320447166956,477.9863497959565 M324.1320447166956,477.9863497959565 L333.3605717129865,471.2877385425188 M333.3605717129865,471.2877385425188 L343.8365367716175,465.2393723149167 M343.8365367716175,465.2393723149167 L355.42566926789397,459.9172238300193 M355.42566926789397,459.9172238300193 L367.9800262043094,455.38799871254844 M367.9800262043094,455.38799871254844 L381.3398683348534,451.70836326711236 M381.3398683348534,451.70836326711236 L395.3356377525831,448.92428233556427 M395.3356377525831,448.92428233556427 L409.79004842840413,447.0704855476353 M409.79004842840413,447.0704855476353 L424.52024109293427,446.1700791648275 M424.52024109293427,446.1700791648275 L439.34003191437773,446.2342874666819 M439.34003191437773,446.2342874666819 L454.062158374501,447.2623037694138 M454.062158374501,447.2623037694138 L468.5004934638338,449.2413262251677 M468.5004934638338,449.2413262251677 L482.4723832691617,452.1466734652652 M482.4723832691617,452.1466734652652 L495.80082952936027,455.94210665341234 M495.80082952936027,455.94210665341234 L508.31661166239905,460.58020096964003 M508.31661166239905,460.58020096964003 L519.8604511465932,466.00291888016073 M519.8604511465932,466.00291888016073 L530.2849221596338,472.14227062560957 M530.2849221596338,472.14227062560957 L539.4563721529382,478.92112086374476 M539.4563721529382,478.92112086374476 L547.2565706506705,486.2540786178235 M547.2565706506705,486.2540786178235 L553.5843586049341,494.0485505458783 M170.90277648755517,451.6851786609658 L256.50371641824705,501.1898267314127 M256.50371641824705,501.1898267314127 L395.30279714795887,421.12566588067864 M395.30279714795887,421.12566588067864 L309.70157862037195,372.11426010619726 M309.70157862037195,372.11426010619726 L331.2100743996644,365.9204174291292 M331.2100743996644,365.9204174291292 L353.40224691375386,360.5994052169989 M353.40224691375386,360.5994052169989 L376.1744796676861,356.1750347184234 M376.1744796676861,356.1750347184234 L399.42076903606744,352.66705108848384 M399.42076903606744,352.66705108848384 L423.0331473755955,350.0910956108678 M423.0331473755955,350.0910956108678 L446.90214849077097,348.4586362986281 M446.90214849077097,348.4586362986281 L470.9172388991153,347.77694193447724 M470.9172388991153,347.77694193447724 L494.9672999721463,348.04903994969663 M494.9672999721463,348.04903994969663 L518.9410628792652,349.2737208414464 M518.9410628792652,349.2737208414464 L542.7275574503022,351.44554280919107 M542.7275574503022,351.44554280919107 L566.2166155527615,354.55481886170037 M566.2166155527615,354.55481886170037 L589.2992016565714,358.5877219411659 M589.2992016565714,358.5877219411659 L611.8680167708179,363.52624290077443 M611.8680167708179,363.52624290077443 L633.8178460858142,369.3483240335806 M633.8178460858142,369.3483240335806 L655.0460588663638,376.0278555707736 M655.0460588663638,376.0278555707736 L675.4529561069832,383.53489294043226 M675.4529561069832,383.53489294043226 L694.9423287619547,391.8356108331433 M694.9423287619547,391.8356108331433 L713.4218349658069,400.89251508406966 M713.4218349658069,400.89251508406966 L553.5843586049341,494.0485505458783 M713.1881074072444,418.6973189103285 L553.4384530622086,511.9055893331917 M553.4384530622086,511.9055893331917 L547.114265366438,504.10677006428153 M547.114265366438,504.10677006428153 L539.318480521856,496.7697185063813 M539.318480521856,496.7697185063813 L530.1521996853324,489.98708047034614 M530.1521996853324,489.98708047034614 L519.7335863569282,483.8442954900803 M519.7335863569282,483.8442954900803 L508.1962179740774,478.4185429112388 M508.1962179740774,478.4185429112388 L495.68743803852544,473.7778513903943 M495.68743803852544,473.7778513903943 L482.36643659711433,469.9802917475865 M482.36643659711433,469.9802917475865 L468.402340630881,467.0733160589459 M468.402340630881,467.0733160589459 L453.97205082433516,465.0931840228266 M453.97205082433516,465.0931840228266 L439.25812064889806,464.0645912333622 M439.25812064889806,464.0645912333622 L424.44657493946545,464.0003469225943 M424.44657493946545,464.0003469225943 L409.72457351720027,464.901258239616 M409.72457351720027,464.901258239616 L395.2781981329938,466.75609443043675 M395.2781981329938,466.75609443043675 L381.2902077490691,469.5417359140881 M381.2902077490691,469.5417359140881 L367.93779102659784,473.22343306400217 M367.93779102659784,473.22343306400217 L355.39041256773584,477.75519461471043 M355.39041256773584,477.75519461471043 L343.8077234793539,483.0803217520749 M343.8077234793539,483.0803217520749 L333.3375848427439,489.1320706752903 M333.3375848427439,489.1320706752903 L324.1141926100645,495.83442530998803 M324.1141926100645,495.83442530998803 L316.25636064136825,503.1029919750776 M316.25636064136825,503.1029919750776 L309.86598004409643,510.8460106240456 M309.86598004409643,510.8460106240456 L305.026644740839,518.9654537648439 M305.026644740839,518.9654537648439 L301.8024867619097,527.3582220910396 M301.8024867619097,527.3582220910396 L300.23726361225727,535.9174095167559 M300.23726361225727,535.9174095167559 L300.35368225530715,544.5336540911387 M300.35368225530715,544.5336540911387 L302.1529367601852,553.0965166375252 M302.1529367601852,553.0965166375252 L305.61460150805544,561.4958660585247 M305.61460150805544,561.4958660585247 L310.696706038596,569.6233571829207 M310.696706038596,569.6233571829207 L317.33621937847994,577.3738322675135 M317.33621937847994,577.3738322675135 L325.44967422256366,584.6466950705105 M325.44967422256366,584.6466950705105 L334.9341988847433,591.3473093381433 M334.9341988847433,591.3473093381433 L345.66875551820084,597.3882421947153 M345.66875551820084,597.3882421947153 L357.515683745076,602.690498791397 M357.515683745076,602.690498791397 L370.3224328388562,607.1845776693626 M370.3224328388562,607.1845776693626 L383.92361343297745,610.8114998193801 M182.15539131481023,677.4214367712593 L175.72875494465046,678.24873397786 M175.72875494465046,678.24873397786 L169.84075441557536,679.9734745439232 M169.84075441557536,679.9734745439232 L164.85278509210144,682.4901272726088 M164.85278509210144,682.4901272726088 L161.07140100339137,685.6445864825137 M161.07140100339137,685.6445864825137 L158.7295371630866,689.2434936754355 M158.7295371630866,689.2434936754355 L157.97201112469526,693.0659899551488 M157.97201112469526,693.0659899551488 L158.84655624390302,696.8771248537439 M158.84655624390302,696.8771248537439 L161.30043209888083,700.4424119797757 M161.30043209888083,700.4424119797757 L165.18359177985064,703.5421065377247 M165.18359177985064,703.5421065377247 L170.25757336525328,705.9849888733304 M170.25757336525328,705.9849888733304 L176.21015484789308,707.6201740275278 M176.21015484789308,707.6201740275278 L182.67454808789137,708.3466119685982 M182.67454808789137,708.3466119685982 L189.25222641272336,708.1193690970867 M189.25222641272336,708.1193690970867 L195.53753970278626,706.9525256177296 M195.53753970278626,706.9525256177296 L201.14307126659128,704.9181875772724 M201.14307126659128,704.9181875772724 L205.72360387671353,702.142073786862 M205.72360387671353,702.142073786862 L208.9975372390869,698.7955467435802 M128.3695892155198,584.4633468884274 L122.37235916436725,583.2183032002754 M122.37235916436725,583.2183032002754 L116.02730445601429,582.8481942322226 M116.02730445601429,582.8481942322226 L109.70518976834808,583.3745976807966 M109.70518976834808,583.3745976807966 L103.77550568638549,584.7668207318484 M103.77550568638549,584.7668207318484 L98.584917749341,586.9437283870321 M98.584917749341,586.9437283870321 L94.43729543581082,589.7783086214183 M94.43729543581082,589.7783086214183 L91.57582918575497,593.1050682073976 M91.57582918575497,593.1050682073976 L90.16881817423018,596.7295474851776 M90.16881817423018,596.7295474851776 L90.29963991764168,600.4396222670694 M90.29963991764168,600.4396222670694 L91.96169607979994,604.0178449766786 M91.96169607979994,604.0178449766786 L95.0584462140182,607.2542591571207 M95.0584462140182,607.2542591571207 L99.40904097188263,609.9586641662895 M99.40904097188263,609.9586641662895 L104.75855975808236,611.972022321502 M104.75855975808236,611.972022321502 L110.79314215971544,613.175784636479 M110.79314215971544,613.175784636479 L117.15833933282244,613.4990544801537 M117.15833933282244,613.4990544801537 L123.48017661979748,612.9227692671261 M123.48017661979748,612.9227692671261 L129.38719532318515,611.4808945325544 M129.38719532318515,611.4808945325544 L134.53251956723892,609.2583570919714 M170.97023014897377,469.5185383145811 L256.5235921798184,519.0508448198145 M256.5235921798184,519.0508448198145 L395.2454757965025,438.94186643758854 M395.2454757965025,438.94186643758854 L309.69183563505203,389.90280477948437 M309.69183563505203,389.90280477948437 L329.9264496294789,384.0401000674224 M329.9264496294789,384.0401000674224 L350.7729309265718,378.95139293134804 M350.7729309265718,378.95139293134804 L372.14485060032735,374.6568966642571 M372.14485060032735,374.6568966642571 L393.9538459461137,371.17363914175303 M393.9538459461137,371.17363914175303 L416.109952569577,368.5154057681333 M416.109952569577,368.5154057681333 L438.521928970128,366.6927167539538 M438.521928970128,366.6927167539538 L461.0976188137437,365.7127701228651 M461.0976188137437,365.7127701228651 L483.7442642134072,365.5794334823324 M483.7442642134072,365.5794334823324 L506.3688548733742,366.29322532671944 M506.3688548733742,366.29322532671944 L504.20791386563917,362.89843880760804 M504.20791386563917,362.89843880760804 L503.5313262778093,359.31362399199446 M503.5313262778093,359.31362399199446 L504.3777669900534,355.7489429673265 M504.3777669900534,355.7489429673265 L506.69663821197753,352.4131297824358 M506.69663821197753,352.4131297824358 L510.35137429534575,349.50122437030393 M510.35137429534575,349.50122437030393 L515.1274564211435,347.1833319707066 M515.1274564211435,347.1833319707066 L520.745200023469,345.59469635463125 M520.745200023469,345.59469635463125 L526.8760290727076,344.8279488529589 M526.8760290727076,344.8279488529589 L533.161619423904,344.9277722112142 M533.161619423904,344.9277722112142 L539.2346345764837,345.8883648144641 M539.2346345764837,345.8883648144641 L544.7401284655396,347.65371022629466 M544.7401284655396,347.65371022629466 L549.3559599543207,350.1208938535474 M549.3559599543207,350.1208938535474 L552.8117860601875,353.1458897153851 M552.8117860601875,353.1458897153851 L554.9046634285874,356.5519845499519 M554.9046634285874,356.5519845499519 L555.5111838021551,360.13993429911113 M555.5111838021551,360.13993429911113 L554.5947894002044,363.6996150309433 M554.5947894002044,363.6996150309433 L552.2082324065423,367.02225066418595 M552.2082324065423,367.02225066418595 L548.4906507735641,369.9127264842762 M548.4906507735641,369.9127264842762 L568.7785759173481,372.756728308914 M568.7785759173481,372.756728308914 L588.7519094069572,376.2934155859992 M588.7519094069572,376.2934155859992 L608.3408972643319,380.51093900648095 M608.3408972643319,380.51093900648095 L627.4769835409854,385.39511999896433 M627.4769835409854,385.39511999896433 L646.092996999643,390.92955950356463 M646.092996999643,390.92955950356463 L664.1233741607539,397.0956034440405 M664.1233741607539,397.0956034440405 L665.4305296593521,393.47593063872375 M665.4305296593521,393.47593063872375 L668.2534137982097,390.1655184332253 M668.2534137982097,390.1655184332253 L672.4177773613326,387.36743313382135 M672.4177773613326,387.36743313382135 L677.6673696727235,385.2531158615808 M677.6673696727235,385.2531158615808 L683.6797420338125,383.9520081998817 M683.6797420338125,383.9520081998817 L690.0860066654454,383.5436880572278 M690.0860066654454,383.5436880572278 L696.4932148162859,384.05315539549514 M696.4932148162859,384.05315539549514 L702.5085029871293,385.44922291408653 M702.5085029871293,385.44922291408653 L707.7626899872457,387.64649778027746 M707.7626899872457,387.64649778027746 L711.9330532289405,390.51045073867 M711.9330532289405,390.51045073867 L714.762921685285,393.8655858909577 M714.762921685285,393.8655858909577 L716.0776135369803,397.506052181028 M716.0776135369803,397.506052181028 L715.7952504694022,401.2082402563418 M715.7952504694022,401.2082402563418 L713.9321587835188,404.7443942555736 M713.9321587835188,404.7443942555736 L710.6019571236367,407.8967124144715 M710.6019571236367,407.8967124144715 L706.0089778373632,410.47078150203896 M706.0089778373632,410.47078150203896 L700.4356662005282,412.307705213826 M700.4356662005282,412.307705213826 L704.743819243445,414.39812076772324 M704.743819243445,414.39812076772324 L708.9950182030309,416.52816568982945 M708.9950182030309,416.52816568982945 L713.1881074072444,418.6973189103285 M684.8033657386912,401.566685668533 L683.6528109066005,400.7387327464456 M683.6528109066005,400.7387327464456 L682.8771976447015,399.7796966195985 M682.8771976447015,399.7796966195985 L682.5215188241707,398.7453712027297 M682.5215188241707,398.7453712027297 L682.6063724448773,397.6958741582566 M682.6063724448773,397.6958741582566 L683.1267402358142,396.69220627740447 M683.1267402358142,396.69220627740447 L684.0523333812546,395.7926432095079 M684.0523333812546,395.7926432095079 L685.3292889994682,395.0494498497157 M685.3292889994682,395.0494498497157 L686.8834308863485,394.5057474333186 M686.8834308863485,394.5057474333186 L688.6244266056945,394.193108336047 M688.6244266056945,394.193108336047 L690.451210339712,394.12966013890656 M690.451210339712,394.12966013890656 L692.2576765803127,394.3190857183241 M692.2576765803127,394.3190857183241 L693.9389391025275,394.75038976847435 M693.9389391025275,394.75038976847435 L695.3973092835929,395.3985590200068 M695.3973092835929,395.3985590200068 L696.5481008274134,396.2259628044338 M696.5481008274134,396.2259628044338 L697.3243649126024,397.1845704070018 M697.3243649126024,397.1845704070018 L697.6809714323588,398.21869281419873 M697.6809714323588,398.21869281419873 L697.5971098754843,399.2682588670262 M697.5971098754843,399.2682588670262 L697.0775712336911,400.2722519616661 M697.0775712336911,400.2722519616661 L696.1524543913272,401.1723219561194 M696.1524543913272,401.1723219561194 L694.8755130997833,401.91608780993334 M694.8755130997833,401.91608780993334 L693.320920281432,402.46029715058955 M693.320920281432,402.46029715058955 L691.5791116897004,402.7732614563576 M691.5791116897004,402.7732614563576 L689.7513393455478,402.836778658126 M689.7513393455478,402.836778658126 L687.9439352450805,402.6471500700978 M687.9439352450805,402.6471500700978 L686.2620004523011,402.21541750815345 M686.2620004523011,402.21541750815345 L684.8033657386912,401.566685668533 M524.2077075136046,362.6994672408106 L523.0682964412314,361.875551975612 M523.0682964412314,361.875551975612 L522.3042336911545,360.9211946970981 M522.3042336911545,360.9211946970981 L521.9598404417039,359.89191693145756 M521.9598404417039,359.89191693145756 L522.0550591224969,358.847542915879 M522.0550591224969,358.847542915879 L522.5842637025456,357.84877243834006 M522.5842637025456,357.84877243834006 L523.5166585244755,356.95360020392445 M523.5166585244755,356.95360020392445 L524.7979801144689,356.2140328575046 M524.7979801144689,356.2140328575046 L526.353799157839,355.67298136682524 M526.353799157839,355.67298136682524 L528.0936916586883,355.36186752198097 M528.0936916586883,355.36186752198097 L529.9166499950978,355.2987271903 M529.9166499950978,355.2987271903 L531.7167963889395,355.4872286384248 M531.7167963889395,355.4872286384248 L533.3896113305931,355.9164301601813 M533.3896113305931,355.9164301601813 L534.8378965941192,356.5614404297134 M534.8378965941192,356.5614404297134 L535.9775369831178,357.38480389837304 M535.9775369831178,357.38480389837304 L536.7422516871601,358.3387357849669 M536.7422516871601,358.3387357849669 L537.0875701489457,359.3678120255552 M537.0875701489457,359.3678120255552 L536.9933379959562,360.4122545450848 M536.9933379959562,360.4122545450848 L536.4649552513106,361.41134785880195 M536.4649552513106,361.41134785880195 L535.5330293125553,362.30702331255003 M535.5330293125553,362.30702331255003 L534.2517162271971,363.0471589672259 M534.2517162271971,363.0471589672259 L532.6954433618154,363.5887136775261 M532.6954433618154,363.5887136775261 L530.9547386877935,363.9001503532958 M530.9547386877935,363.9001503532958 L529.130795873772,363.96335918694484 M529.130795873772,363.96335918694484 L527.3297182359993,363.7746562143081 M527.3297182359993,363.7746562143081 L525.6562386087768,363.34502931182254 M525.6562386087768,363.34502931182254 L524.2077075136046,362.6994672408106 M110.94323102331003,601.324426548558 L109.80846684311604,600.4755455227133 M109.80846684311604,600.4755455227133 L109.05814516420713,599.4922715690072 M109.05814516420713,599.4922715690072 L108.73578493747533,598.4318090584445 M108.73578493747533,598.4318090584445 L108.86004564153745,597.3557950309023 M108.86004564153745,597.3557950309023 L109.42361063614726,596.3267681236628 M109.42361063614726,596.3267681236628 L110.39368702385104,595.4044794865838 M110.39368702385104,595.4044794865838 L111.71382014090057,594.6425104743373 M111.71382014090057,594.6425104743373 L113.3073274948224,594.0850710854957 M113.3073274948224,594.0850710854957 L115.08159589508,593.7645341782671 M115.08159589508,593.7645341782671 L116.93362380763904,593.699481465906 M116.93362380763904,593.699481465906 L118.75584634521533,593.8936922281063 M118.75584634521533,593.8936922281063 L120.44246334818172,594.3358936239165 M120.44246334818172,594.3358936239165 L121.89547423114936,595.0004409691669 M121.89547423114936,595.0004409691669 L123.03048947868723,595.8487449335028 M123.03048947868723,595.8487449335028 L123.78149427546111,596.8315740179761 M123.78149427546111,596.8315740179761 L124.10481315133245,597.8918257763102 M124.10481315133245,597.8918257763102 L123.98156702531003,598.9679114443763 M123.98156702531003,598.9679114443763 L123.418840103702,599.9972759694128 M123.418840103702,599.9972759694128 L122.44923330444624,600.9200908666014 M122.44923330444624,600.9200908666014 L121.12909370342419,601.6826542080918 M121.12909370342419,601.6826542080918 L119.53510527831355,602.2406198573458 M119.53510527831355,602.2406198573458 L117.75999143840431,602.5614943768792 M117.75999143840431,602.5614943768792 L115.90694738458683,602.626618727691 M115.90694738458683,602.626618727691 L114.08377079633522,602.4321972138259 M114.08377079633522,602.4321972138259 L112.39648038225062,601.989550960485 M112.39648038225062,601.989550960485 L110.94323102331003,601.324426548558 M179.01543582962893,696.0523033945608 L177.87039536539532,695.1934117856233 M177.87039536539532,695.1934117856233 L177.11148467199507,694.1985407646484 M177.11148467199507,694.1985407646484 L176.78272143486384,693.1255697185652 M176.78272143486384,693.1255697185652 L176.9031363568884,692.036862825805 M176.9031363568884,692.036862825805 L177.46564101647544,690.9956997899908 M177.46564101647544,690.9956997899908 L178.43749731408383,690.0625327952321 M178.43749731408383,690.0625327952321 L179.76215213930453,689.2915783030955 M179.76215213930453,689.2915783030955 L181.36266013530764,688.7275673536055 M181.36266013530764,688.7275673536055 L183.14599560878048,688.4032507917414 M183.14599560878048,688.4032507917414 L185.0086369101433,688.3374327532235 M185.0086369101433,688.3374327532235 L186.8423974809856,688.5339335597432 M186.8423974809856,688.5339335597432 L188.5408077468959,688.9813475531244 M188.5408077468959,688.9813475531244 L190.00518225480698,689.6537278784294 M190.00518225480698,689.6537278784294 L191.15048616411468,690.5120391602472 M191.15048616411468,690.5120391602472 L191.91008612826425,691.5064574187124 M191.91008612826425,691.5064574187124 L192.23981841947665,692.5792139724717 M192.23981841947665,692.5792139724717 L192.12043035025835,693.6679937768431 M192.12043035025835,693.6679937768431 L191.55877509294078,694.7095004212181 M191.55877509294078,694.7095004212181 L190.587396176237,695.6432030153615 M190.587396176237,695.6432030153615 L189.2627373332158,696.4147623829817 M189.2627373332158,696.4147623829817 L187.66174484101185,696.9793089294305 M187.66174484101185,696.9793089294305 L185.87755540049108,697.3039690942662 M185.87755540049108,697.3039690942662 L184.01388627765232,697.3698600404587 M184.01388627765232,697.3698600404587 L182.17915950216081,697.1731447427351 M182.17915950216081,697.1731447427351 L180.48006598030446,696.7252780000335 M180.48006598030446,696.7252780000335 L179.01543582962893,696.0523033945608 M553.5843586049341,494.0485505458783 L553.4384530622086,511.9055893331917 M208.97876632542886,691.614000435693 L205.704089491202,694.9597999897228 M205.704089491202,694.9597999897228 L201.12251860026333,697.7353105277859 M201.12251860026333,697.7353105277859 L195.51571776912425,699.7692066408906 M195.51571776912425,699.7692066408906 L189.2289825074738,700.9357966942443 M189.2289825074738,700.9357966942443 L182.64981736452694,701.1629902154336 M182.64981736452694,701.1629902154336 L176.18396440735762,700.4367100399052 M176.18396440735762,700.4367100399052 L170.23004053639914,698.8018800639675 M170.23004053639914,698.8018800639675 L165.15491676948324,696.3595284851995 M165.15491676948324,696.3595284851995 L161.27088544440483,693.2605076268828 M161.27088544440483,693.2605076268828 L158.81646193110464,689.6959957253125 M158.81646193110464,689.6959957253125 L157.94172643982898,685.8856898992735 M157.94172643982898,685.8856898992735 L158.69943061825182,682.064025570287 M158.69943061825182,682.064025570287 L161.04182964817755,678.4659020370316 M161.04182964817755,678.4659020370316 L164.82407269296732,675.312130005402 M164.82407269296732,675.312130005402 L169.81317174144817,672.796025711913 M169.81317174144817,672.796025711913 L175.70250337149957,671.0716611075261 M175.70250337149957,671.0716611075261 L182.1305906713851,670.2445442659002 M178.98989756577714,688.8713536630908 L180.45485741049043,689.5441818965548 M180.45485741049043,689.5441818965548 L182.15433394954243,689.991951235214 M182.15433394954243,689.991951235214 L183.98947477345797,690.1886237521903 M183.98947477345797,690.1886237521903 L185.85356488004282,690.1227471355407 M185.85356488004282,690.1227471355407 L187.63815772834397,689.7981575774941 M187.63815772834397,689.7981575774941 L189.23951258523016,689.2337338150962 M189.23951258523016,689.2337338150962 L190.5644716601072,688.4623422694119 M190.5644716601072,688.4623422694119 L191.53607123594725,687.5288427871776 M191.53607123594725,687.5288427871776 L192.09785476699483,686.4875627344084 M192.09785476699483,686.4875627344084 L192.21727130823137,685.3990198387764 M192.21727130823137,685.3990198387764 L191.8874660716752,684.3264967395542 M191.8874660716752,684.3264967395542 L191.127696023162,683.3322949161998 M191.127696023162,683.3322949161998 L189.98213479266502,682.4741704679725 M189.98213479266502,682.4741704679725 L188.51743070258863,681.8019365179314 M188.51743070258863,681.8019365179314 L186.81863772736165,681.354619932272 M186.81863772736165,681.354619932272 L184.98446354411135,681.1581619082426 M184.98446354411135,681.1581619082426 L183.12140172327588,681.2239656166253 M183.12140172327588,681.2239656166253 L181.3376632281895,681.5482115689078 M181.3376632281895,681.5482115689078 L179.73679308710615,682.1120997299945 M179.73679308710615,682.1120997299945 L178.41183803275158,682.8828863952795 M178.41183803275158,682.8828863952795 L177.43976086122535,683.8158502737763 M177.43976086122535,683.8158502737763 L176.87712754483397,684.8567867151926 M176.87712754483397,684.8567867151926 L176.75668368717407,685.9452566986206 M176.75668368717407,685.9452566986206 L177.0855194317026,687.0179942919101 M177.0855194317026,687.0179942919101 L177.84459989751258,688.0126488814535 M177.84459989751258,688.0126488814535 L178.98989756577714,688.8713536630908 M134.49712688368174,602.0963908378885 L129.35064191162974,604.3184395482153 M129.35064191162974,604.3184395482153 L123.44229286600114,605.7599972918761 M123.44229286600114,605.7599972918761 L117.11903390897305,606.3361558269048 M117.11903390897305,606.3361558269048 L110.75240749615216,606.012957042697 M110.75240749615216,606.012957042697 L104.71647248753976,604.8094593579998 M104.71647248753976,604.8094593579998 L99.36575735772493,602.7965439016302 M99.36575735772493,602.7965439016302 L95.0141928039763,600.092733717048 M95.0141928039763,600.092733717048 L91.91675622886765,596.8570316427107 M91.91675622886765,596.8570316427107 L90.25433694255264,593.2795965869118 M90.25433694255264,593.2795965869118 L90.12349627639003,589.5703388594839 M90.12349627639003,589.5703388594839 L91.53083320231815,585.9466581562725 M91.53083320231815,585.9466581562725 L94.39295068683299,582.6206318711033 M94.39295068683299,582.6206318711033 L98.54151111480093,579.7866766922931 M98.54151111480093,579.7866766922931 L103.73326900548221,577.6102492207992 M103.73326900548221,577.6102492207992 L109.66428646348777,576.2183333364467 M109.66428646348777,576.2183333364467 L115.98782016583476,575.6920460425392 M115.98782016583476,575.6920460425392 L122.33429681855944,576.0620733426088 M122.33429681855944,576.0620733426088 L128.33286888226752,577.3068423283232 M110.90256001175447,594.1642060682578 L112.35613395642889,594.829184059533 M112.35613395642889,594.829184059533 L114.04380208154123,595.2717328754518 M114.04380208154123,595.2717328754518 L115.86738752056328,595.4661115940443 M115.86738752056328,595.4661115940443 L117.72084777171432,595.4010015780223 M117.72084777171432,595.4010015780223 L119.4963609244154,595.0801976892305 M119.4963609244154,595.0801976892305 L121.09070854771323,594.5223548659344 M121.09070854771323,594.5223548659344 L122.41114632819233,593.7599594028836 M122.41114632819233,593.7599594028836 L123.38097296735896,592.8373476852129 M123.38097296735896,592.8373476852129 L123.94382862255668,591.8082098271166 M123.94382862255668,591.8082098271166 L124.06710493346213,590.7323611455979 M124.06710493346213,590.7323611455979 L123.74371597656608,589.6723429182703 M123.74371597656608,589.6723429182703 L122.99254494414004,588.6897303396702 M122.99254494414004,588.6897303396702 L121.85727698715601,587.8416132685265 M121.85727698715601,587.8416132685265 L120.40394162410666,587.1772123463326 M120.40394162410666,587.1772123463326 L118.7169472113568,586.7351083897984 M118.7169472113568,586.7351083897984 L116.89431625082341,586.5409404237489 M116.89431625082341,586.5409404237489 L115.04187259731208,586.6059788010216 M115.04187259731208,586.6059788010216 L113.26720526465743,586.9264450761017 M113.26720526465743,586.9264450761017 L111.6733389298189,587.4837616367925 M111.6733389298189,587.4837616367925 L110.35290763767944,588.2455627681225 M110.35290763767944,588.2455627681225 L109.38261120052795,589.1676482234907 M109.38261120052795,589.1676482234907 L108.81891709689523,590.1964484623829 M108.81891709689523,590.1964484623829 L108.69462575262162,591.2722255030792 M108.69462575262162,591.2722255030792 L109.01705562946779,592.3324544835141 M109.01705562946779,592.3324544835141 L109.76754323624698,593.3155119332007 M109.76754323624698,593.3155119332007 L110.90256001175447,594.1642060682578 M256.5235921798184,519.0508448198145 L256.50371641824705,501.1898267314127 M713.4218349658069,400.89251508406966 L713.1881074072444,418.6973189103285 M591.1668679453975,482.7957631246481 L591.233556805062,475.65705632771994 M553.8681780764523,497.4390830324527 L591.233556805062,475.65705632771994 M553.8681780764523,497.4390830324527 L553.8097401328748,504.5826548158412 M553.8097401328748,504.5826548158412 L591.1668679453975,482.7957631246481 M506.4162542204235,359.185516618835 L506.3688548733742,366.29322532671944 M506.4162542204235,359.185516618835 L520.5353994373927,360.06260066757187 M520.5353994373927,360.06260066757187 L534.5866593444094,361.26945495568816 M534.5866593444094,361.26945495568816 L548.5473813155211,362.8041974185913 M548.5473813155211,362.8041974185913 L548.4906507735641,369.9127264842762 M664.205831991998,389.98092506304835 L664.1233741607539,397.0956034440405 M664.205831991998,389.98092506304835 L676.672718613892,394.75106041215867 M676.672718613892,394.75106041215867 L688.7868331629383,399.82352650573876 M688.7868331629383,399.82352650573876 L700.5262592905249,405.18959453533813 M700.5262592905249,405.18959453533813 L700.4356662005282,412.307705213826 M309.70157862037195,372.11426010619726 L309.69183563505203,389.90280477948437 M395.2454757965025,438.94186643758854 L395.30279714795887,421.12566588067864 M179.01543582962893,696.0523033945608 L178.98989756577714,688.8713536630908 M110.94323102331003,601.324426548558 L110.90256001175447,594.1642060682578 M598.2046608099441,504.4942692299983 L591.1668679453975,482.7957631246481 M598.27301172104,497.35071715626077 L591.233556805062,475.65705632771994 M598.27301172104,497.35071715626077 L598.2046608099441,504.4942692299983 M555.2517259223852,501.7396045286292 L553.505242168752,505.2134683157096 M553.505242168752,505.2134683157096 L553.2395995491928,508.83692094783356 M553.2395995491928,508.83692094783356 L554.4709814490385,512.4029949630724 M554.4709814490385,512.4029949630724 L557.1299459025618,515.7077117820684 M557.1299459025618,515.7077117820684 L561.0651829868475,518.5618012201611 M561.0651829868475,518.5618012201611 L566.0521178437378,520.8016525837186 M566.0521178437378,520.8016525837186 L571.8055099344652,522.2987067683415 M571.8055099344652,522.2987067683415 L577.9959889654435,522.9670059711398 M577.9959889654435,522.9670059711398 L584.2688615873813,522.7681287604737 M584.2688615873813,522.7681287604737 L590.2647669488273,521.713536055192 M590.2647669488273,521.713536055192 L595.6402766931127,519.8637875178091 M595.6402766931127,519.8637875178091 L600.0877484484189,517.3250804590768 M600.0877484484189,517.3250804590768 L603.3530877249067,514.2430575673699 M603.3530877249067,514.2430575673699 L605.2501114511922,510.7943037209585 M605.2501114511922,510.7943037209585 L605.6712834618967,507.17625714393324 M605.6712834618967,507.17625714393324 L604.5935138768592,503.59571642555125 M604.5935138768592,503.59571642555125 L602.0793115181107,500.25709963830747 M602.0793115181107,500.25709963830747 L598.27301172104,497.35071715626077 M553.8681780764523,497.4390830324527 L555.2517259223852,501.7396045286292 M574.0707973395787,510.93580435195406 L572.9165853588336,510.0952927430532 M572.9165853588336,510.0952927430532 L572.1413137911445,509.12172919981526 M572.1413137911445,509.12172919981526 L571.789970714372,508.0717296090094 M571.789970714372,508.0717296090094 L571.8829010851651,507.0063364514256 M571.8829010851651,507.0063364514256 L572.4145923635781,505.9874475134761 M572.4145923635781,505.9874475134761 L573.3541155385353,505.07426554717233 M573.3541155385353,505.07426554717233 L574.6467911417799,504.31980941626637 M574.6467911417799,504.31980941626637 L576.2175071252667,503.76786687912846 M576.2175071252667,503.76786687912846 L577.9750322077768,503.4504916595243 M577.9750322077768,503.4504916595243 L579.8172661953688,503.38607548694995 M579.8172661953688,503.38607548694995 L581.6372536795034,503.5783706207497 M581.6372536795034,503.5783706207497 L583.3292945568854,504.0162187462056 M583.3292945568854,504.0162187462056 L584.7951258874848,504.6742109201189 M584.7951258874848,504.6742109201189 L585.9495584124011,505.5141467790797 M585.9495584124011,505.5141467790797 L586.7255004153428,506.4872683188359 M586.7255004153428,506.4872683188359 L587.0777879473992,507.53706012779554 M587.0777879473992,507.53706012779554 L586.9858894025573,508.60253756329354 M586.9858894025573,508.60253756329354 L586.4550148025031,509.62174571032733 M586.4550148025031,509.62174571032733 L585.5159960760169,510.5354601634764 M585.5159960760169,510.5354601634764 L584.2233309865817,511.2905022449593 M584.2233309865817,511.2905022449593 L582.6521291737155,511.8429499669406 M582.6521291737155,511.8429499669406 L580.8937993578436,512.160671694091 M580.8937993578436,512.160671694091 L579.0505360787797,512.2251448438273 M579.0505360787797,512.2251448438273 L577.2295966828423,512.0326419303635 M577.2295966828423,512.0326419303635 L575.5368696308524,511.5943586265284 M575.5368696308524,511.5943586265284 L574.0707973395787,510.93580435195406 M553.8097401328748,504.5826548158412 L555.1929633190374,508.88413526256113 M555.2517259223852,501.7396045286292 L555.1929633190374,508.88413526256113 M598.2046608099441,504.4942692299983 L602.0100982929667,507.4012998546094 M602.0100982929667,507.4012998546094 L604.52372470815,510.7406608846039 M604.52372470815,510.7406608846039 L605.6012379301804,514.3219994296023 M605.6012379301804,514.3219994296023 L605.1801442009966,517.9408518269885 M605.1801442009966,517.9408518269885 L603.2835293657969,521.3903734483866 M603.2835293657969,521.3903734483866 L600.0189066001113,524.4730821911501 M600.0189066001113,524.4730821911501 L595.5724182253313,527.0123539962568 M595.5724182253313,527.0123539962568 L590.1981025484788,528.8625139049393 M590.1981025484788,528.8625139049393 L584.2035335009217,529.9173411016166 M584.2035335009217,529.9173411016166 L577.9320627160065,530.1162625296624 M577.9320627160065,530.1162625296624 L571.742970515907,529.4478147361322 M571.742970515907,529.4478147361322 L565.9908705803939,527.9504276488132 M565.9908705803939,527.9504276488132 L561.0050590801656,525.710078088589 M561.0050590801656,525.710078088589 L557.0707122437232,522.8553536296828 M557.0707122437232,522.8553536296828 L554.4123541724562,519.549901243504 M554.4123541724562,519.549901243504 L553.1812604227978,515.9830331460458 M553.1812604227978,515.9830331460458 L553.4468569061527,512.3587732913049 M553.4468569061527,512.3587732913049 L555.1929633190374,508.88413526256113 M574.0077960985527,518.0823839659345 L575.4735382109886,518.7410848734605 M575.4735382109886,518.7410848734605 L577.1658852858372,519.1794657582537 M577.1658852858372,519.1794657582537 L578.9864170173969,519.3720115295584 M578.9864170173969,519.3720115295584 L580.82926866891,519.3075240259728 M580.82926866891,519.3075240259728 L582.5872068654958,518.9897315617934 M582.5872068654958,518.9897315617934 L584.1580598439457,518.4371608370764 M584.1580598439457,518.4371608370764 L585.4504391870305,517.6819506313564 M585.4504391870305,517.6819506313564 L586.3892518579579,516.7680327013235 M586.3892518579579,516.7680327013235 L586.9200120422738,515.7485975573165 M586.9200120422738,515.7485975573165 L587.0118944400016,514.6828827888042 M587.0118944400016,514.6828827888042 L586.6596899192656,513.6328571097874 M586.6596899192656,513.6328571097874 L585.8839252309014,512.6595187529208 M585.8839252309014,512.6595187529208 L584.7297539910095,511.8193957301409 M584.7297539910095,511.8193957301409 L583.2642527266843,511.1612569213641 M583.2642527266843,511.1612569213641 L581.5725915194653,510.7233112138883 M581.5725915194653,510.7233112138883 L579.7530112736213,510.5309732221047 M579.7530112736213,510.5309732221047 L577.9111884593151,510.59540375161737 M577.9111884593151,510.59540375161737 L576.1540546326444,510.91284970543904 M576.1540546326444,510.91284970543904 L574.5836872738902,511.46491524871027 M574.5836872738902,511.46491524871027 L573.2912974240406,512.2195395042567 M573.2912974240406,512.2195395042567 L572.3519805268013,513.1329249447607 M572.3519805268013,513.1329249447607 L571.8204040355773,514.1520408829529 M571.8204040355773,514.1520408829529 L571.7274902678607,515.2176713705592 M571.7274902678607,515.2176713705592 L572.0787507544044,516.2679048312793 M572.0787507544044,516.2679048312793 L572.8538453039483,517.2416851920858 M572.8538453039483,517.2416851920858 L574.0077960985527,518.0823839659345 M506.4162542204235,359.185516618835 L504.254825127342,355.79149985790343 M504.254825127342,355.79149985790343 L503.5780773293724,352.2074982375057 M503.5780773293724,352.2074982375057 L504.42469466137265,348.6436261959573 M504.42469466137265,348.6436261959573 L506.7440685476587,345.30857037475903 M506.7440685476587,345.30857037475903 L510.3996035712379,342.3973263357292 M510.3996035712379,342.3973263357292 L515.1767339455167,340.079960561606 M515.1767339455167,340.079960561606 L520.7957137545527,338.49168597024374 M520.7957137545527,338.49168597024374 L526.9278947979138,337.7251127406158 M526.9278947979138,337.7251127406158 L533.2148741129504,337.8249134093521 M533.2148741129504,337.8249134093521 L539.2892342491947,338.785287687276 M539.2892342491947,338.785287687276 L544.7959507247062,340.5502319350794 M544.7959507247062,340.5502319350794 L549.4128109845857,343.0168550553463 M549.4128109845857,343.0168550553463 L552.8694118096745,346.04116391516686 M552.8694118096745,346.04116391516686 L554.9627642634329,349.4464855021766 M554.9627642634329,349.4464855021766 L555.5694319056894,353.03362106898203 M555.5694319056894,353.03362106898203 L554.6528478822394,356.59249438785474 M554.6528478822394,356.59249438785474 L552.265775064817,359.914376693775 M552.265775064817,359.914376693775 L548.5473813155211,362.8041974185913 M524.2590415744584,355.5925734173067 L525.7078951455736,356.2379890806452 M525.7078951455736,356.2379890806452 L527.3817463229881,356.66751855404885 M527.3817463229881,356.66751855404885 L529.1832229586322,356.8561787350012 M529.1832229586322,356.8561787350012 L531.007568998772,356.79298423494527 M531.007568998772,356.79298423494527 L532.7486576518818,356.4816181839451 M532.7486576518818,356.4816181839451 L534.3052729118322,355.9401862889213 M534.3052729118322,355.9401862889213 L535.5868668817787,355.2002184974772 M535.5868668817787,355.2002184974772 L536.5189958797946,354.30474620390197 M536.5189958797946,354.30474620390197 L537.0474920673271,353.30587953433024 M537.0474920673271,353.30587953433024 L537.1417414916871,352.26167397614785 M537.1417414916871,352.26167397614785 L536.7963431616129,351.23283124036584 M536.7963431616129,351.23283124036584 L536.0314561276217,350.2791158341437 M536.0314561276217,350.2791158341437 L534.8915609806824,349.4559392357256 M534.8915609806824,349.4559392357256 L533.442953351773,348.8110753706628 M533.442953351773,348.8110753706628 L531.7697671553303,348.381971275518 M531.7697671553303,348.381971275518 L529.9692221761799,348.19351261790746 M529.9692221761799,348.19351261790746 L528.1458610488663,348.25663861639316 M528.1458610488663,348.25663861639316 L526.40558492709,348.5676818383424 M526.40558492709,348.5676818383424 L524.8494236882136,349.1086105166675 M524.8494236882136,349.1086105166675 L523.5678212079886,349.84801000315565 M523.5678212079886,349.84801000315565 L522.635223117742,350.74297908032065 M522.635223117742,350.74297908032065 L522.1059047302346,351.74152291558863 M522.1059047302346,351.74152291558863 L522.0106683414966,352.785659970218 M522.0106683414966,352.785659970218 L522.3551410506752,353.8147042298819 M522.3551410506752,353.8147042298819 L523.119375843746,354.7688450255539 M523.119375843746,354.7688450255539 L524.2590415744584,355.5925734173067 M664.205831991998,389.98092506304835 L665.5132583842765,386.36206991223474 M665.5132583842765,386.36206991223474 L668.3367507167004,383.0524058214859 M668.3367507167004,383.0524058214859 L672.5020220781668,380.25495309507295 M672.5020220781668,380.25495309507295 L677.7527658911008,378.14111395871294 M677.7527658911008,378.14111395871294 L683.7664628062466,376.8403005939928 M683.7664628062466,376.8403005939928 L690.1741439546438,376.43207281882195 M690.1741439546438,376.43207281882195 L696.5827739324088,376.94142490947456 M696.5827739324088,376.94142490947456 L702.5994022928194,378.33717665794086 M702.5994022928194,378.33717665794086 L707.8547657692313,380.53395464260643 M707.8547657692313,380.53395464260643 L712.0260695898685,383.39726016197767 M712.0260695898685,383.39726016197767 L714.8565847996765,386.7516371269933 M714.8565847996765,386.7516371269933 L716.1715895127397,390.39128110607135 M716.1715895127397,390.39128110607135 L715.8891857252518,394.0926333074411 M715.8891857252518,394.0926333074411 L714.0257017713266,397.62798927630797 M714.0257017713266,397.62798927630797 L710.6947800048589,400.7795963217586 M710.6947800048589,400.7795963217586 L706.100796840831,403.3530849451871 M706.100796840831,403.3530849451871 L700.5262592905249,405.18959453533813 M684.8904317921467,394.45099781069825 L686.3493934695628,395.09958322652267 M686.3493934695628,395.09958322652267 L688.031703567718,395.5312183495873 M688.031703567718,395.5312183495873 L689.8395094725556,395.7208041414728 M689.8395094725556,395.7208041414728 L691.6676867371639,395.6573012744105 M691.6676867371639,395.6573012744105 L693.4098797901593,395.34440760077797 M693.4098797901593,395.34440760077797 L694.9648142463333,394.80032108787424 M694.9648142463333,394.80032108787424 L696.242034469691,394.0567231149584 M696.242034469691,394.0567231149584 L697.1673513362769,393.156856302586 M697.1673513362769,393.156856302586 L697.686999481836,392.1530898762991 M697.686999481836,392.1530898762991 L697.770873694816,391.1037608107221 M697.770873694816,391.1037608107221 L697.4141822852353,390.0698719336976 M697.4141822852353,390.0698719336976 L696.6377407342217,389.1114808348284 M696.6377407342217,389.1114808348284 L695.486689478092,388.2842639420132 M695.486689478092,388.2842639420132 L694.0279924509989,387.63624111043407 M694.0279924509989,387.63624111043407 L692.3463549238645,387.2050344973714 M692.3463549238645,387.2050344973714 L690.5394872958581,387.0156517132475 M690.5394872958581,387.0156517132475 L688.7122990793421,387.0790855759705 M688.7122990793421,387.0790855759705 L686.970919257347,387.39165404246666 M686.970919257347,387.39165404246666 L685.4164359297695,387.9352336332313 M685.4164359297695,387.9352336332313 L684.1392013702125,388.67825911451973 M684.1392013702125,388.67825911451973 L683.2134079865489,389.57761900245555 M683.2134079865489,389.57761900245555 L682.6929303224043,390.5810602163148 M682.6929303224043,390.5810602163148 L682.6080636053379,391.630320273826 M682.6080636053379,391.630320273826 L682.9638269054869,392.6644121596735 M682.9638269054869,392.6644121596735 L683.7396173470199,393.6232317810293 M683.7396173470199,393.6232317810293 L684.8904317921467,394.45099781069825 M574.0077960985527,518.0823839659345 L574.0707973395787,510.93580435195406 M524.2077075136046,362.6994672408106 L524.2590415744584,355.5925734173067 M684.8033657386912,401.566685668533 L684.8904317921467,394.45099781069825" stroke="black"  stroke-width="4"  fill="red"/>
<path d="M115.09839393765037,437.17076318878634 L170.97023014897377,469.5185383145811 M115.09839393765037,437.17076318878634 L115.00002840601195,419.35555854010784 M170.90277648755517,451.6851786609658 L115.00002840601195,419.35555854010784 M170.90277648755517,451.6851786609658 L170.97023014897377,469.5185383145811 M309.69183563505203,389.90280477948437 L253.81839054405867,357.87633210459603 M170.97023014897377,469.5185383145811 L182.25901849200233,458.5441988993708 M182.25901849200233,458.5441988993708 L194.71174732349363,448.015021570227 M194.71174732349363,448.015021570227 L208.27726627019223,437.97144254662237 M208.27726627019223,437.97144254662237 L222.90033698823038,428.4518736019537 M222.90033698823038,428.4518736019537 L238.52191560983675,419.49259906449583 M238.52191560983675,419.49259906449583 L255.07935796297107,411.12763901108934 M255.07935796297107,411.12763901108934 L272.50666756817975,403.38864395196134 M272.50666756817975,403.38864395196134 L290.73478942853205,396.3048185424844 M290.73478942853205,396.3048185424844 L309.69183563505203,389.90280477948437 M253.81839054405867,357.87633210459603 L115.09839393765037,437.17076318878634 M309.70157862037195,372.11426010619726 L290.73402874006456,378.5126539044669 M290.73402874006456,378.5126539044669 L272.49579846880135,385.5924771526079 M272.49579846880135,385.5924771526079 L255.05881487346954,393.3271038943558 M255.05881487346954,393.3271038943558 L238.49217079141192,401.6873469939642 M238.49217079141192,401.6873469939642 L222.86189911027776,410.6415748542226 M222.86189911027776,410.6415748542226 L208.23067882126048,420.15578764124365 M208.23067882126048,420.15578764124365 L194.6575868863256,430.1937225194441 M194.6575868863256,430.1937225194441 L182.1978929018087,440.7169903599379 M182.1978929018087,440.7169903599379 L170.90277648755517,451.6851786609658 M309.70157862037195,372.11426010619726 L309.69183563505203,389.90280477948437 M309.70157862037195,372.11426010619726 L253.79721897780104,340.1059394054637 M253.79721897780104,340.1059394054637 L115.00002840601195,419.35555854010784 M253.81839054405867,357.87633210459603 L253.79721897780104,340.1059394054637" stroke="black"  stroke-width="4"  fill="red"/>
<path d="M396.84885166325506,422.0108671254977 L258.3888195630858,342.7348832839577 M258.3888195630858,342.7348832839577 L258.32904188143186,285.7325180403868 M259.8626248546683,286.6074223369653 L258.32904188143186,285.7325180403868 M259.8626248546683,286.6074223369653 L259.8268552132391,250.87718315991867 M259.8268552132391,250.87718315991867 L258.29157307806025,250.00329007538926 M258.29157307806025,250.00329007538926 L258.14464703007957,109.89862192721637 M397.6111637705496,188.57840234121716 L258.14464703007957,109.89862192721637 M396.84885166325506,422.0108671254977 L397.6111637705496,188.57840234121716 M258.04979025125346,502.08395056995795 L396.84885166325506,422.0108671254977 M258.3888195630858,342.7348832839577 L119.59145405137679,422.0108671254977 M119.59145405137679,422.0108671254977 L258.04979025125346,502.08395056995795 M369.1059934437919,418.47065241155457 L252.23616062515362,351.50433326967527 M252.23616062515362,351.50433326967527 L135.02956446247413,418.47065241155457 M135.02956446247413,418.47065241155457 L251.8979690437157,486.00498943901226 M251.8979690437157,486.00498943901226 L369.1059934437919,418.47065241155457 M119.59145405137679,422.0108671254977 L119.28407638711019,364.8641042544774 M258.32904188143186,285.7325180403868 L119.28407638711019,364.8641042544774 M120.81760242522193,365.7477992951344 L259.8626248546683,286.6074223369653 M119.28407638711019,364.8641042544774 L120.81760242522193,365.7477992951344 M230.07862091063203,267.77068079532984 L259.8268552132391,250.87718315991867 M150.60965513886782,312.89970498202626 L156.83947446819428,315.11318196626996 M156.83947446819428,315.11318196626996 L163.6714918469297,315.96113393217433 M163.6714918469297,315.96113393217433 L170.98105262453788,315.4297974339062 M170.98105262453788,315.4297974339062 L178.63515697238108,313.530328491722 M178.63515697238108,313.530328491722 L186.49487649764814,310.2985263386921 M186.49487649764814,310.2985263386921 L194.4178611339367,305.79414000450515 M194.4178611339367,305.79414000450515 L202.2608820929238,300.09964803915943 M202.2608820929238,300.09964803915943 L209.88237029359334,293.3187210225189 M209.88237029359334,293.3187210225189 L217.1449114824319,285.57439581991565 M217.1449114824319,285.57439581991565 L223.91765953415353,277.00681070757366 M223.91765953415353,277.00681070757366 L230.07862091063203,267.77068079532984 M120.62663351313569,329.9265341976479 L150.60965513886782,312.89970498202626 M120.81760242522193,365.7477992951344 L120.62663351313569,329.9265341976479 M228.54334447493488,266.894912826215 L230.07862091063203,267.77068079532984 M258.29157307806025,250.00329007538926 L228.54334447493488,266.894912826215 M228.54334447493488,266.894912826215 L234.09607504088012,256.9306654248124 M234.09607504088012,256.9306654248124 L238.78787801743601,246.6292776397833 M238.78787801743601,246.6292776397833 L242.530062842071,236.1850735851498 M242.530062842071,236.1850735851498 L245.25164801856084,225.7950899722103 M245.25164801856084,225.7950899722103 L246.90071255927944,215.6555846339072 M246.90071255927944,215.6555846339072 L247.44536767112595,205.95829636999193 M247.44536767112595,205.95829636999193 L246.84364960480036,196.65285134697316 M246.84364960480036,196.65285134697316 L245.07639126833328,188.19391699700412 M245.07639126833328,188.19391699700412 L242.177671291992,180.75140325836867 M242.177671291992,180.75140325836867 L238.20418941544284,174.47538924787096 M238.20418941544284,174.47538924787096 L233.2342274944458,169.49302026860704 M233.2342274944458,169.49302026860704 L227.3662216757926,165.90582015584033 M227.3662216757926,165.90582015584033 L220.71686892394462,163.78757501993204 M220.71686892394462,163.78757501993204 L213.41888655057915,163.18272802430465 M213.41888655057915,163.18272802430465 L205.6183963774767,164.1052834103818 M205.6183963774767,164.1052834103818 L197.47202804649322,166.5384266676099 M197.47202804649322,166.5384266676099 L189.14376603787434,170.43469600277746 M189.14376603787434,170.43469600277746 L180.80162199235178,175.71681137211309 M180.80162199235178,175.71681137211309 L172.61419241664657,182.27916882653338 M172.61419241664657,182.27916882653338 L164.7471838155721,189.98993851409165 M164.7471838155721,189.98993851409165 L157.3599688194729,198.6936846055841 M157.3599688194729,198.6936846055841 L150.60227932753145,208.2146186031069 M150.60227932753145,208.2146186031069 L144.61106761222212,218.36011153094066 M144.61106761222212,218.36011153094066 L139.50766290464492,228.92474912849426 M139.50766290464492,228.92474912849426 L135.39525042008637,239.69453573181033 M135.39525042008637,239.69453573181033 L132.35672344300372,250.45148386695524 M132.35672344300372,250.45148386695524 L130.45301183675036,260.97798071778055 M130.45301183675036,260.97798071778055 L129.72184469686852,271.0613958453673 M129.72184469686852,271.0613958453673 L130.17704235089911,280.4984067313603 M130.17704235089911,280.4984067313603 L131.80830748238185,289.09918299829343 M131.80830748238185,289.09918299829343 L134.58152781093486,296.69121744823144 M134.58152781093486,296.69121744823144 L138.43956241723373,303.12278312221747 M138.43956241723373,303.12278312221747 L143.3035054219132,308.26591819998464 M143.3035054219132,308.26591819998464 L149.07441127857965,312.0189186240721 M149.07441127857965,312.0189186240721 L119.09140850334887,329.04385071575814 M119.09140850334887,329.04385071575814 L118.33588116877405,188.57840234121716 M258.14464703007957,109.89862192721637 L118.33588116877405,188.57840234121716 M258.04979025125346,502.08395056995795 L257.80066470978005,268.0550745217337 M257.80066470978005,268.0550745217337 L397.6111637705496,188.57840234121716 M118.33588116877405,188.57840234121716 L257.80066470978005,268.0550745217337 M119.09140850334887,329.04385071575814 L120.62663351313569,329.9265341976479 M369.1059934437919,418.47065241155457 L369.44981494556816,275.2370695757693 M252.23616062515362,351.50433326967527 L252.05887735482975,208.57802293078697 M369.44981494556816,275.2370695757693 L252.05887735482975,208.57802293078697 M135.02956446247413,418.47065241155457 L134.32816859885043,275.2370695757693 M134.32816859885043,275.2370695757693 L134.97728802724043,284.6191165411341 M134.97728802724043,284.6191165411341 L136.8153283649582,293.1225633162021 M136.8153283649582,293.1225633162021 L139.80342202554425,300.57455580182705 M139.80342202554425,300.57455580182705 L143.87923366858126,306.82408144427393 M143.87923366858126,306.82408144427393 L148.95829863691927,311.74517750429027 M148.95829863691927,311.74517750429027 L154.93589019607583,315.2392771602297 M154.93589019607583,315.2392771602297 L161.68926196142326,317.23710022887093 M161.68926196142326,317.23710022887093 L169.08021777570866,317.6999309714507 M169.08021777570866,317.6999309714507 L176.9579879505833,316.6202511767427 M176.9579879505833,316.6202511767427 L185.1623273067247,314.02173527905427 M185.1623273067247,314.02173527905427 L193.5267600812109,309.9586239232747 M193.5267600812109,309.9586239232747 L201.8819286325138,304.5145017960306 M201.8819286325138,304.5145017960306 L210.05896521571782,297.8005668953424 M210.05896521571782,297.8005668953424 L217.89282951622937,289.9532989811421 M217.89282951622937,289.9532989811421 L225.22555797416283,281.1317034089518 M225.22555797416283,281.1317034089518 L231.90935146751792,271.5141497760076 M231.90935146751792,271.5141497760076 L237.8094700296109,261.2948378073976 M237.8094700296109,261.2948378073976 L242.80687507086225,250.67996208427422 M242.80687507086225,250.67996208427422 L246.80055245901872,239.8836609639647 M246.80055245901872,239.8836609639647 L249.70951379817325,229.12379534926842 M249.70951379817325,229.12379534926842 L251.47444700002234,218.61775230698402 M251.47444700002234,218.61775230698402 L252.05887735482975,208.57802293078697 M251.8979690437157,486.00498943901226 L251.71765873395213,342.4640632549466 M134.32816859885043,275.2370695757693 L251.71765873395213,342.4640632549466 M251.71765873395213,342.4640632549466 L252.33142475245995,351.86423616751136 M252.33142475245995,351.86423616751136 L254.13488768056288,360.3795866152534 M254.13488768056288,360.3795866152534 L257.08987976344434,367.8370248530565 M257.08987976344434,367.8370248530565 L261.1347336067226,374.08543762214975 M261.1347336067226,374.08543762214975 L266.1856069159937,378.99889823925554 M266.1856069159937,378.99889823925554 L272.1383380698758,382.47901052152923 M272.1383380698758,382.47901052152923 L278.8706776931698,384.4567948182435 M278.8706776931698,384.4567948182435 L286.2448491138089,384.8939585073259 M286.2448491138089,384.8939585073259 L294.1104167382339,383.7835192252761 M294.1104167382339,383.7835192252761 L302.3073779034372,381.149787980088 M302.3073779034372,381.149787980088 L310.66940335888864,377.0477289337085 M310.66940335888864,377.0477289337085 L319.02718330944265,371.5617219439382 M319.02718330944265,371.5617219439382 L327.21179816140483,364.80381556396304 M327.21179816140483,364.80381556396304 L335.0580571472844,356.91137827897313 M335.0580571472844,356.91137827897313 L342.4077503759024,348.04432476810746 M342.4077503759024,348.04432476810746 L349.1127410071117,338.38193691890103 M349.1127410071117,338.38193691890103 L355.0378662266198,328.119312177506 M355.0378662266198,328.119312177506 L360.06358740530465,317.4635111621975 M360.06358740530465,317.4635111621975 L364.088322670801,306.6294902575005 M364.088322670801,306.6294902575005 L367.0304591085767,295.8358648892045 M367.0304591085767,295.8358648892045 L368.83001506118364,285.30069893821604 M368.83001506118364,285.30069893821604 L369.44981494556816,275.2370695757693 M372.5525010968473,276.9988929765151 L369.44981494556816,275.2370695757693 M372.5525010968473,276.9988929765151 L371.9317626146122,287.0631518834485 M371.9317626146122,287.0631518834485 L370.13128846264027,297.59908579534755 M370.13128846264027,297.59908579534755 L367.18827280991303,308.39360208629586 M367.18827280991303,308.39360208629586 L363.1627150578905,319.22861901457264 M363.1627150578905,319.22861901457264 L358.13624465895,329.88550123115635 M358.13624465895,329.88550123115635 L352.2104585066743,340.1492707409284 M352.2104585066743,340.1492707409284 L345.5049084458535,349.8128440369193 M345.5049084458535,349.8128440369193 L338.1547684500782,358.6810999375858 M338.1547684500782,358.6810999375858 L330.308184252978,366.57473242573394 M330.308184252978,366.57473242573394 L322.1233722086445,373.3338027620371 M322.1233722086445,373.3338027620371 L313.76552699910513,378.82091893703995 M313.76552699910513,378.82091893703995 L305.4035695133444,382.92400987425805 M305.4035695133444,382.92400987425805 L297.2068081951063,385.5586746493097 M297.2068081951063,385.5586746493097 L289.3415683256843,386.66992992137136 M289.3415683256843,386.66992992137136 L281.96784605321085,386.2334477964804 M281.96784605321085,386.2334477964804 L275.23606802970625,384.25619641058677 M275.23606802970625,384.25619641058677 L269.2839997247497,380.77645713527005 M269.2839997247497,380.77645713527005 L264.2338772602856,375.86320160967 M264.2338772602856,375.86320160967 L260.18984720499986,369.6148214386044 M260.18984720499986,369.6148214386044 L257.23573529040914,362.1572422863014 M257.23573529040914,362.1572422863014 L255.43319114847645,353.6415800104607 M255.43319114847645,353.6415800104607 L254.82036393641835,344.24093052640757 M254.82036393641835,344.24093052640757 L255.41094790520265,334.14704571808534 M255.41094790520265,334.14704571808534 L257.19385619014315,323.5663131993409 M257.19385619014315,323.5663131993409 L260.1333174658128,312.71545477970056 M260.1333174658128,312.71545477970056 L264.16962061871664,301.81710310724065 M264.16962061871664,301.81710310724065 L269.2202655582039,291.0950646933256 M269.2202655582039,291.0950646933256 L275.181696839294,280.76954212406207 M275.181696839294,280.76954212406207 L281.9314749278705,271.0526759078333 M281.9314749278705,271.0526759078333 L289.33084268381964,262.14387834387185 M289.33084268381964,262.14387834387185 L297.22766616405545,254.22569961432893 M297.22766616405545,254.22569961432893 L305.45965890010064,247.46013369825596 M305.45965890010064,247.46013369825596 L313.85780389532357,241.98508496878677 M313.85780389532357,241.98508496878677 L322.2499154687623,237.91160664367712 M322.2499154687623,237.91160664367712 L330.4642422936971,235.3217407141824 M330.4642422936971,235.3217407141824 L338.33303606266145,234.26685494632184 M338.33303606266145,234.26685494632184 L345.69601283739917,234.76664389704501 M345.69601283739917,234.76664389704501 L352.4036164629841,236.80905097585173 M352.4036164629841,236.80905097585173 L358.32003988706606,240.35054271627564 M358.32003988706606,240.35054271627564 L363.3259347962231,245.31709078400348 M363.3259347962231,245.31709078400348 L367.3207375120822,251.6060401127121 M367.3207375120822,251.6060401127121 L370.22461040130503,259.0881382116339 M370.22461040130503,259.0881382116339 L371.9799738938507,267.61029661085706 M371.9799738938507,267.61029661085706 L372.5525010968473,276.9988929765151 M252.05887735482975,208.57802293078697 L247.44536767112595,205.95829636999193 M149.07441127857965,312.0189186240721 L150.60965513886782,312.89970498202626" stroke="black"  stroke-width="4"  fill="red"/>
<path d="M85.99608558705717,170.14895179051712 L117.18586192925318,152.63728996546521 M117.18586192925318,152.63728996546521 L132.39799939448437,178.91947944826654 M116.79416667942564,187.69982687610784 L132.39799939448437,178.91947944826654 M85.99608558705717,170.14895179051712 L116.79416667942564,187.69982687610784 M117.18586192925318,152.63728996546521 L117.94465520454128,292.9383605735835 M117.94465520454128,292.9383605735835 L86.89117296736151,310.5302023323701 M86.89117296736151,310.5302023323701 L85.99608558705717,170.14895179051712 M132.39799939448437,178.91947944826654 L132.71193260477924,242.44300311712334 M132.71193260477924,242.44300311712334 L130.27208458503992,232.3244187873622 M130.27208458503992,232.3244187873622 L128.50753817980473,225.7340548724543 M128.50753817980473,225.7340548724543 L126.56639450286542,218.96803363911528 M126.9716000447479,297.97384372285285 L126.56639450286542,218.96803363911528 M126.9716000447479,297.97384372285285 L129.93007280273054,297.6464736809337 M129.93007280273054,297.6464736809337 L131.54591506639258,296.8715776841925 M131.54591506639258,296.8715776841925 L132.9749340527149,295.66062442958827 M132.9749340527149,295.66062442958827 L133.09196157824385,319.34082309624796 M133.09196157824385,319.34082309624796 L117.94465520454128,292.9383605735835 M132.71193260477924,242.44300311712334 L130.1763737746079,252.51507384897482 M130.1763737746079,252.51507384897482 L128.6560132663236,262.33070623218146 M128.6560132663236,262.33070623218146 L128.17735649825647,271.7146025667335 M128.17735649825647,271.7146025667335 L128.74814466336375,280.49943094146033 M128.74814466336375,280.49943094146033 L130.3572418008871,288.5289083872328 M130.3572418008871,288.5289083872328 L132.9749340527149,295.66062442958827 M133.09196157824385,319.34082309624796 L117.55635463508258,328.16126563233917 M117.55635463508258,328.16126563233917 L116.79416667942564,187.69982687610784 M86.89117296736151,310.5302023323701 L117.55635463508258,328.16126563233917 M126.56639450286542,218.96803363911528 L122.38732143139157,229.34985877378895 M122.38732143139157,229.34985877378895 L119.19616813155113,239.7661436621467 M119.19616813155113,239.7661436621467 L117.05281673107777,250.01996912519826 M117.05281673107777,250.01996912519826 L115.99713423776501,259.9177196948624 M115.99713423776501,259.9177196948624 L116.04824291426979,269.2728065835886 M116.04824291426979,269.2728065835886 L117.20422146897539,277.9092408155775 M117.20422146897539,277.9092408155775 L119.44221371347362,285.66497698974575 M119.44221371347362,285.66497698974575 L122.71893715712622,292.394968826417 M122.71893715712622,292.394968826417 L126.9716000447479,297.97384372285285" stroke="black"  stroke-width="4"  fill="red"/>
<path d="M226.08994248042364,231.67390185088183 L195.27697100260934,249.1294939231525 M195.27697100260934,249.1294939231525 L194.8562749977504,109.02883338196864 M194.8562749977504,109.02883338196864 L225.8034380793796,91.6533880314019 M225.8034380793796,91.6533880314019 L226.08994248042364,231.67390185088183 M256.7564612365018,249.12949392315258 L241.35844341447898,257.8718193350764 M195.27697100260934,249.1294939231525 L241.35844341447898,257.8718193350764 M256.7564612365018,249.12949392315258 L226.08994248042364,231.67390185088183 M241.35844341447898,257.8718193350764 L241.32123998151843,234.23860807561715 M241.32123998151843,234.23860807561715 L234.01860281880363,238.75826690236389 M234.01860281880363,238.75826690236389 L228.72619261376508,241.29433066604295 M228.72619261376508,241.29433066604295 L222.8965932832145,243.5972771702946 M222.7273518724906,164.73100871056727 L222.8965932832145,243.5972771702946 M222.7273518724906,164.73100871056727 L231.84096045362327,171.99216202923702 M231.84096045362327,171.99216202923702 L236.82441392501255,176.55870349255093 M236.82441392501255,176.55870349255093 L241.23763173754742,181.12707681195093 M241.23763173754742,181.12707681195093 L241.13783367658073,117.7310815925726 M194.8562749977504,109.02883338196864 L241.13783367658073,117.7310815925726 M225.8034380793796,91.6533880314019 L256.6028738061564,109.02883338196864 M241.13783367658073,117.7310815925726 L256.6028738061564,109.02883338196864 M256.6028738061564,109.02883338196864 L256.7564612365018,249.12949392315258 M241.23763173754742,181.12707681195093 L243.80879399571256,188.27868309430247 M243.80879399571256,188.27868309430247 L245.3744213206718,196.31230816045365 M245.3744213206718,196.31230816045365 L245.9078729273088,205.0852482800123 M245.9078729273088,205.0852482800123 L245.40065262100296,214.4420608707353 M245.40065262100296,214.4420608707353 L243.86252102704293,224.21732885540783 M243.86252102704293,224.21732885540783 L241.32123998151843,234.23860807561715 M222.7273518724906,164.73100871056727 L226.93427397738708,170.35284831033164 M226.93427397738708,170.35284831033164 L230.1629273211871,177.11208158111967 M230.1629273211871,177.11208158111967 L232.35410885703578,184.88115285735967 M232.35410885703578,184.88115285735967 L233.46803079493566,193.51402026047384 M233.46803079493566,193.51402026047384 L233.48497672940493,202.84890463080376 M233.48497672940493,202.84890463080376 L232.405575873962,212.71132518601968 M232.405575873962,212.71132518601968 L230.2507212990737,222.917330705381 M230.2507212990737,222.917330705381 L227.0611388072486,233.27687575878133 M227.0611388072486,233.27687575878133 L222.8965932832145,243.5972771702946" stroke="black"  stroke-width="4"  fill="red"/>
<path d="M259.8626248546683,286.6074223369653 L259.8268552132391,250.87718315991867 M223.10347341295977,265.6364412448499 L223.0270277311252,229.93046984149223 M259.8626248546683,286.6074223369653 L223.10347341295977,265.6364412448499 M259.8268552132391,250.87718315991867 L223.0270277311252,229.93046984149223 M120.81760242522193,365.7477992951344 L259.8626248546683,286.6074223369653 M230.07862091063203,267.77068079532984 L259.8268552132391,250.87718315991867 M150.60965513886782,312.89970498202626 L156.83947446819428,315.11318196626996 M156.83947446819428,315.11318196626996 L163.6714918469297,315.96113393217433 M163.6714918469297,315.96113393217433 L170.98105262453788,315.4297974339062 M170.98105262453788,315.4297974339062 L178.63515697238108,313.530328491722 M178.63515697238108,313.530328491722 L186.49487649764814,310.2985263386921 M186.49487649764814,310.2985263386921 L194.4178611339367,305.79414000450515 M194.4178611339367,305.79414000450515 L202.2608820929238,300.09964803915943 M202.2608820929238,300.09964803915943 L209.88237029359334,293.3187210225189 M209.88237029359334,293.3187210225189 L217.1449114824319,285.57439581991565 M217.1449114824319,285.57439581991565 L223.91765953415353,277.00681070757366 M223.91765953415353,277.00681070757366 L230.07862091063203,267.77068079532984 M120.62663351313569,329.9265341976479 L150.60965513886782,312.89970498202626 M120.81760242522193,365.7477992951344 L120.62663351313569,329.9265341976479 M84.06005009982073,344.56624391923503 L83.82841048726027,308.76925534876636 M223.10347341295977,265.6364412448499 L84.06005009982073,344.56624391923503 M223.0270277311252,229.93046984149223 L83.82841048726027,308.76925534876636 M84.06005009982073,344.56624391923503 L120.81760242522193,365.7477992951344 M214.73352454770742,259.017375159184 L230.07862091063203,267.77068079532984 M135.26490629373205,304.0962531014301 L214.73352454770742,259.017375159184 M135.26490629373205,304.0962531014301 L150.60965513886782,312.89970498202626 M83.82841048726027,308.76925534876636 L120.62663351313569,329.9265341976479 M135.26490629373205,304.0962531014301 L141.4974098549718,306.3120269995127 M141.4974098549718,306.3120269995127 L148.33162678404688,307.16294870542833 M148.33162678404688,307.16294870542833 L155.64286330332328,306.63519919269066 M155.64286330332328,306.63519919269066 L163.29808980495386,304.7398679571437 M163.29808980495386,304.7398679571437 L171.15835797125487,301.5126780531088 M171.15835797125487,301.5126780531088 L179.08130801617915,297.0132941151878 M179.08130801617915,297.0132941151878 L186.92371176464252,291.3241036695914 M186.92371176464252,291.3241036695914 L194.54401107212686,284.5486812989764 M194.54401107212686,284.5486812989764 L201.80481279796447,276.8099645927537 M201.80481279796447,276.8099645927537 L208.57530173593437,268.24799103119597 M208.57530173593437,268.24799103119597 L214.73352454770742,259.017375159184" stroke="black"  stroke-width="4"  fill="red"/></svg>