<svg version="1.1" xmlns="http://www.w3.org/2000/svg" viewBox="-73.34850403192875 -22.54652103488894 177.193622715713 67.80140428118173" fill="none" stroke="black" stroke-width="0.6%" vector-effect="non-scaling-stroke">
    <path d="M 100.65034 37.02776 L 100.53896 37.3294 L 100.14997 37.61421 L 99.50777 37.86434 L 98.65262 38.06411 L 97.63811 38.201 L 96.52782 38.26642 L 95.39138 38.25628 L 94.29999 38.17122 L 93.32208 38.01656 L 92.51893 37.802 L 91.94091 37.54099 L 91.70007 37.43083 L 91.36798 37.33905 L 90.96363 37.27093 L 90.51016 37.23034 L 90.0335 37.21962 L 89.56094 37.23938 L 89.11947 37.28848 L 85.26239 37.83388 L 81.29883 38.32205 L 77.24076 38.75151 L 73.1004 39.12097 L 68.89021 39.42931 L 64.6229 39.67562 L 64.16672 39.71399 L 63.75777 39.78013 L 63.41946 39.87027 L 63.26754 39.93693" />
    <path d="M 63.26754 40.65248 L 63.17293 40.95453 L 62.79981 41.24084 L 62.17158 41.49348 L 61.32762 41.6966 L 60.32083 41.83748 L 59.21431 41.90728 L 58.07742 41.90163 L 56.98142 41.82089 L 55.99503 41.67011 L 55.18005 41.45874 L 54.58757 41.20004 L 54.25475 40.91022 L 54.20243 40.60745 L 54.18311 40.48005 L 54.05085 40.35751 L 53.81321 40.24685 L 53.4838 40.1544 L 53.08144 40.08544 L 52.62916 40.04392 L 52.15284 40.03222 L 48.35188 40.03633 L 44.55453 39.99204 L 40.76945 39.89944 L 37.00528 39.75875 L 23.19186 43.03954 L 21.50897 43.39365 L 19.68004 43.69191 L 17.73106 43.93009 L 15.68965 44.10481 L 13.58478 44.21359 L 11.44633 44.25488 L 9.30463 44.22811 L 7.19006 44.13365 L 5.13262 43.97283 L 3.16153 43.74795 L 3.40453 38.47689 L 3.16153 38.44694 L 3.1547 38.44603 L 3.16153 43.74795 L 3.16153 38.44694" />
    <path d="M -1.02023 43.15819 L 3.16153 43.74795" />
    <path d="M -5.09757 42.51859 L -1.02023 43.15819" />
    <path d="M -9.06207 41.83044 L -5.09757 42.51859" />
    <path d="M -12.90566 41.09516 L -9.06207 41.83044" />
    <path d="M -16.62053 40.31429 L -12.90566 41.09516" />
    <path d="M -19.66855 39.62849 L -16.62053 40.31429 L -16.94986 38.30331 L -17.21025 37.51637" />
    <path d="M -22.63135 38.92061 L -19.66855 39.62849 L -18.31073 38.69448 L -18.56455 37.83803" />
    <path d="M -22.86638 38.85975 L -22.63135 38.92061 L -21.01505 39.18501 L -21.59744 38.55836" />
    <path d="M 39.44704 12.34863 L 39.19778 12.64786 L 38.69864 12.924 L 37.97602 13.16244 L 37.06815 13.35057 L 34.11015 13.47657 L 32.24956 13.60871" />
    <path d="M 102.84512 34.6682 L 101.75129 34.92325 L 100.65034 35.17065" />
    <path d="M 20.67947 35.44378 L 39.34486 31.01061 L 40.27001 31.28737 L 40.27001 34.17883" />
    <path d="M 101.92413 26.49202 A 79 21.05777 0 0 1 40.27001 31.28737" />
    <path d="M 101.92413 26.49202 L 66.63117 15.93401 A 29 7.73007 0 0 1 32.24956 20.55228" />
    <path d="M 32.24956 22.87784 L 2.38494 29.97091 L 20.67947 35.44378" />
    <path d="M 39.34486 33.90207 L 39.73879 34.01992 L 40.27001 34.17883" />
    <path d="M 38.96841 33.99148 L 39.34486 33.90207 L 39.34486 31.01061" />
    <path d="M 38.96841 33.99148 L 39.73879 34.01992" />
    <path d="M 95.75536 35.58606 L 95.75536 34.67651 L 95.32394 34.71656 L 94.9461 34.78501 L 94.64761 34.8772 L 94.44879 34.98683 L 94.36319 35.10645 L 94.39668 35.2279 L 94.54692 35.34289 L 94.80373 35.44361 L 95.14956 35.52317 L 95.56087 35.57617 L 96.00961 35.59898 L 96.46524 35.59006 L 96.89667 35.55001 L 97.2745 35.48156 L 97.57299 35.38938 L 97.77181 35.27974 L 97.8574 35.16012 L 97.82393 35.03868 L 97.67367 34.92368 L 97.41688 34.82297 L 97.07104 34.7434 L 96.65973 34.6904 L 96.21098 34.66759 L 95.75536 34.67651" />
    <path d="M 95.32394 35.54564 L 95.32394 34.71656" />
    <path d="M 94.9461 35.47637 L 94.9461 34.78501" />
    <path d="M 94.64761 35.38238 L 94.64761 34.8772" />
    <path d="M 94.44879 35.26778 L 94.44879 34.98683" />
    <path d="M 97.82393 35.2069 L 97.82393 35.03868" />
    <path d="M 97.67367 35.33386 L 97.67367 34.92368" />
    <path d="M 97.41688 35.43759 L 97.41688 34.82297" />
    <path d="M 97.07104 35.51842 L 97.07104 34.7434" />
    <path d="M 96.65973 35.572 L 96.65973 34.6904" />
    <path d="M 96.21098 35.59504 L 96.21098 34.66759" />
    <path d="M 98.79059 33.97983 L 98.79059 33.81172 L 98.93121 33.68984 L 99.1764 33.58036 L 99.51209 33.48953 L 99.4039 31.58484 L 95.8045 32.30367 L 92.05844 32.96714 L 88.17767 33.5731 L 84.17463 34.11962 L 82.458 32.87438 L 81.0168 33.0472 L 80.23364 33.14028 L 79.9523 33.17005 L 76.39327 33.53104 L 75.17892 33.6394 L 72.38441 33.87637 L 70.58304 34.0083 L 68.26237 34.16789 L 66.05469 34.29532 L 65.72799 34.31341 L 64.19907 34.39484 L 61.36761 34.51624 L 60.06207 34.56592 L 57.03971 34.65235 L 55.89565 34.67877 L 52.73296 34.72456 L 51.7116 34.73301 L 51.53678 34.73372 L 48.90128 34.73658 L 47.61343 34.72819 L 44.8926 34.69645 L 43.71013 34.67122" />
    <path d="M 98.76254 33.939 L 98.79059 33.81172" />
    <path d="M 98.84869 34.06442 L 98.76254 33.939" />
    <path d="M 99.04411 34.1808 L 98.84869 34.06442" />
    <path d="M 99.33762 34.28149 L 99.04411 34.1808" />
    <path d="M 99.33762 34.28149 L 100.03023 34.52186 L 100.47715 34.80057 L 100.65034 35.10012 L 100.53896 35.40176 L 100.14997 35.68657 L 99.50777 35.9367 L 98.65262 36.13647 L 97.63811 36.27336 L 96.52782 36.33878 L 95.39138 36.32864 L 94.29999 36.24358 L 93.32208 36.08892 L 92.51893 35.87436 L 91.94091 35.61335 L 91.94091 37.54099" />
    <path d="M 100.65034 37.02776 L 100.65034 35.10012" />
    <path d="M 100.53896 37.3294 L 100.53896 35.40176" />
    <path d="M 100.14997 37.61421 L 100.14997 35.68657" />
    <path d="M 99.50777 37.86434 L 99.50777 35.9367" />
    <path d="M 98.65262 38.06411 L 98.65262 36.13647" />
    <path d="M 97.63811 38.201 L 97.63811 36.27336" />
    <path d="M 96.52782 38.26642 L 96.52782 36.33878" />
    <path d="M 95.39138 38.25628 L 95.39138 36.32864" />
    <path d="M 94.29999 38.17122 L 94.29999 36.24358" />
    <path d="M 93.32208 38.01656 L 93.32208 36.08892" />
    <path d="M 92.51893 37.802 L 92.51893 35.87436" />
    <path d="M 91.70007 35.50319 L 91.94091 35.61335" />
    <path d="M 91.70007 37.43083 L 91.70007 35.50319" />
    <path d="M 91.36798 35.41141 L 91.70007 35.50319" />
    <path d="M 91.36798 37.33905 L 91.36798 35.41141" />
    <path d="M 90.96363 35.34329 L 91.36798 35.41141" />
    <path d="M 90.96363 37.27093 L 90.96363 35.34329" />
    <path d="M 90.51016 35.3027 L 90.96363 35.34329" />
    <path d="M 90.51016 37.23034 L 90.51016 35.3027" />
    <path d="M 90.0335 35.29198 L 90.51016 35.3027" />
    <path d="M 90.0335 37.21962 L 90.0335 35.29198" />
    <path d="M 89.56094 35.31174 L 90.0335 35.29198" />
    <path d="M 89.56094 37.23938 L 89.56094 35.31174" />
    <path d="M 89.11947 35.36084 L 89.56094 35.31174" />
    <path d="M 89.11947 37.28848 L 89.11947 35.36084 L 92.70526 34.78596 L 92.05844 32.96714" />
    <path d="M 89.11947 37.28848 L 88.17767 33.5731" />
    <path d="M 85.26239 37.83388 L 88.17767 33.5731" />
    <path d="M 85.26239 37.83388 L 84.17463 34.11962 L 81.0168 33.0472" />
    <path d="M 81.29883 38.32205 L 84.17463 34.11962" />
    <path d="M 81.29883 38.32205 L 80.23364 33.14028" />
    <path d="M 77.24076 38.75151 L 79.9523 33.17005" />
    <path d="M 77.24076 38.75151 L 76.39327 33.53104" />
    <path d="M 73.1004 39.12097 L 75.17892 33.6394" />
    <path d="M 73.1004 39.12097 L 72.38441 33.87637" />
    <path d="M 68.89021 39.42931 L 70.58304 34.0083" />
    <path d="M 68.89021 39.42931 L 68.26237 34.16789" />
    <path d="M 64.6229 39.67562 L 66.05469 34.29532" />
    <path d="M 64.6229 37.74798 L 64.6229 39.67562" />
    <path d="M 64.16672 37.78635 L 64.6229 37.74798 L 65.72799 34.31341" />
    <path d="M 64.16672 39.71399 L 64.16672 37.78635" />
    <path d="M 63.75777 37.85249 L 64.16672 37.78635" />
    <path d="M 63.75777 39.78013 L 63.75777 37.85249" />
    <path d="M 63.41946 37.94263 L 63.75777 37.85249" />
    <path d="M 63.41946 39.87027 L 63.41946 37.94263" />
    <path d="M 63.17111 38.0516 L 63.41946 37.94263" />
    <path d="M 63.17111 38.57302 L 63.17111 38.0516" />
    <path d="M 63.02694 38.17318 L 63.17111 38.0516" />
    <path d="M 63.02694 38.3487 L 63.02694 38.17318" />
    <path d="M 62.99521 38.30041 L 63.02694 38.17318" />
    <path d="M 63.07772 38.426 L 62.99521 38.30041" />
    <path d="M 63.26754 38.72484 L 63.07772 38.426" />
    <path d="M 63.26754 40.65248 L 63.26754 38.72484" />
    <path d="M 63.17293 39.02689 L 63.26754 38.72484" />
    <path d="M 63.17293 40.95453 L 63.17293 39.02689" />
    <path d="M 62.79981 39.3132 L 63.17293 39.02689" />
    <path d="M 62.79981 41.24084 L 62.79981 39.3132" />
    <path d="M 62.17158 39.56584 L 62.79981 39.3132" />
    <path d="M 62.17158 41.49348 L 62.17158 39.56584" />
    <path d="M 61.32762 39.76896 L 62.17158 39.56584" />
    <path d="M 61.32762 41.6966 L 61.32762 39.76896" />
    <path d="M 60.32083 39.90984 L 61.32762 39.76896" />
    <path d="M 60.32083 41.83748 L 60.32083 39.90984" />
    <path d="M 59.21431 39.97964 L 60.32083 39.90984" />
    <path d="M 59.21431 41.90728 L 59.21431 39.97964" />
    <path d="M 58.07742 39.97399 L 59.21431 39.97964" />
    <path d="M 58.07742 41.90163 L 58.07742 39.97399" />
    <path d="M 56.98142 39.89325 L 58.07742 39.97399" />
    <path d="M 56.98142 41.82089 L 56.98142 39.89325" />
    <path d="M 55.99503 39.74247 L 56.98142 39.89325" />
    <path d="M 55.99503 41.67011 L 55.99503 39.74247" />
    <path d="M 55.18005 39.5311 L 55.99503 39.74247" />
    <path d="M 55.18005 41.45874 L 55.18005 39.5311" />
    <path d="M 54.58757 39.2724 L 55.18005 39.5311" />
    <path d="M 54.58757 41.20004 L 54.58757 39.2724" />
    <path d="M 54.25475 38.98258 L 54.58757 39.2724" />
    <path d="M 54.25475 40.91022 L 54.25475 38.98258" />
    <path d="M 54.20243 38.67981 L 54.25475 38.98258" />
    <path d="M 54.20243 38.67981 L 54.20243 40.60745" />
    <path d="M 54.18311 38.55241 L 54.20243 38.67981" />
    <path d="M 54.18311 40.48005 L 54.18311 38.55241" />
    <path d="M 54.05085 38.42987 L 54.18311 38.55241" />
    <path d="M 54.05085 40.35751 L 54.05085 38.42987" />
    <path d="M 53.81321 38.31921 L 54.05085 38.42987" />
    <path d="M 53.81321 40.24685 L 53.81321 38.31921" />
    <path d="M 53.4838 38.22676 L 53.81321 38.31921" />
    <path d="M 53.4838 40.1544 L 53.4838 38.22676" />
    <path d="M 53.08144 38.1578 L 53.4838 38.22676" />
    <path d="M 53.08144 40.08544 L 53.08144 38.1578" />
    <path d="M 52.62916 38.11628 L 53.08144 38.1578" />
    <path d="M 52.62916 40.04392 L 52.62916 38.11628" />
    <path d="M 52.15284 38.10458 L 52.62916 38.11628" />
    <path d="M 52.15284 40.03222 L 52.15284 38.10458 L 51.7116 34.73301" />
    <path d="M 48.35188 40.03633 L 48.90128 34.73658" />
    <path d="M 52.15284 40.03222 L 51.53678 34.73372" />
    <path d="M 44.55453 39.99204 L 44.8926 34.69645" />
    <path d="M 48.35188 40.03633 L 47.61343 34.72819" />
    <path d="M 40.92656 34.60313 L 43.71013 34.67122" />
    <path d="M 40.76945 39.89944 L 40.92656 34.60313 L 39.83231 34.56341 L 37.00536 34.45774 L 37.00528 34.45774 L 38.96841 33.99148" />
    <path d="M 44.55453 39.99204 L 43.71013 34.67122" />
    <path d="M 37.00528 39.75875 L 37.00536 34.45774" />
    <path d="M 40.76945 39.89944 L 39.83231 34.56341" />
    <path d="M 20.67947 38.33524 L 23.18284 37.74067" />
    <path d="M 20.67947 38.33524 L 20.67947 35.44378" />
    <path d="M 37.00528 39.75875 L 37.00528 34.45774" />
    <path d="M 23.18283 37.74067 L 23.19186 43.03954" />
    <path d="M 22.88149 37.81225 L 21.50897 43.39365" />
    <path d="M 21.47244 38.1469 L 21.50897 43.39365" />
    <path d="M 20.75389 38.31757 L 19.68004 43.69191" />
    <path d="M 19.61408 38.40018 L 19.68004 43.69191" />
    <path d="M 19.61408 38.40018 L 18.63291 38.52009 L 17.73106 43.93009" />
    <path d="M 17.21994 38.67596 L 15.96542 38.78333 L 15.54241 38.8134 L 15.68965 44.10481" />
    <path d="M 15.96542 38.78333 L 15.68965 44.10481" />
    <path d="M 17.21994 38.67596 L 17.73106 43.93009" />
    <path d="M 15.54241 38.8134 L 14.19413 38.88308 L 13.76485 38.90551 L 13.58478 44.21359" />
    <path d="M 14.19413 38.88308 L 13.58478 44.21359" />
    <path d="M 13.37477 38.91898 L 13.58478 44.21359" />
    <path d="M 13.37477 38.91898 L 11.91643 38.94714 L 11.52278 38.95348 L 11.44633 44.25488" />
    <path d="M 11.91643 38.94714 L 11.44633 44.25488" />
    <path d="M 11.15956 38.95273 L 11.44633 44.25488" />
    <path d="M 11.15956 38.95273 L 9.63302 38.93364 L 9.26771 38.92602 L 9.30463 44.22811" />
    <path d="M 9.63302 38.93364 L 9.30463 44.22811" />
    <path d="M 8.92641 38.91222 L 7.37034 38.84271 L 7.0298 38.82203 L 7.19006 44.13365" />
    <path d="M 7.37034 38.84271 L 7.19006 44.13365" />
    <path d="M 8.92641 38.91222 L 9.30463 44.22811" />
    <path d="M 7.0298 38.82203 L 5.49684 38.70221 L 5.1599 38.67441 L 5.13262 43.97283" />
    <path d="M 5.49684 38.70221 L 5.13262 43.97283" />
    <path d="M 4.90101 38.64763 L 3.40453 38.47689" />
    <path d="M 4.90101 38.64763 L 5.13262 43.97283" />
    <path d="M 2.61493 38.37212 L 3.16153 43.74795" />
    <path d="M 2.61493 38.37212 L -0.38609 37.94888 L -0.64269 37.91251 L -1.02023 43.15819" />
    <path d="M -0.38609 37.94888 L -1.02023 43.15819" />
    <path d="M -2.02008 37.70399 L -4.26342 37.35209 L -4.7738 37.27055 L -5.09757 42.51859" />
    <path d="M -4.26342 37.35209 L -5.09757 42.51859" />
    <path d="M -2.02008 37.70399 L -1.02023 43.15819" />
    <path d="M -6.49341 36.98137 L -5.09757 42.51859" />
    <path d="M -6.49341 36.98137 L -7.60234 36.78888 L -8.44626 36.6407 L -9.06207 41.83044" />
    <path d="M -7.60234 36.78888 L -9.06207 41.83044" />
    <path d="M -11.06882 37.76808 L -9.06207 41.83044" />
    <path d="M -11.06882 37.76808 L -12.90566 41.09516" />
    <path d="M -15.22584 39.82489 L -12.90566 41.09516" />
    <path d="M -15.22584 39.82489 L -16.94986 38.30331 L -16.69109 37.39307" />
    <path d="M -16.62053 40.31429 L -18.31073 38.69448 L -17.99497 37.70275" />
    <path d="M -19.66855 39.62849 L -21.01505 39.18501" />
    <path d="M -22.63135 38.92061 L -22.71515 38.82383" />
    <path d="M 32.24956 9.0119 L 33.53129 8.97451 L 33.56356 8.97302 L 33.59583 8.97153 L 33.6281 8.97005 L 34.77632 8.9533 L 35.90853 9.00691 L 36.96484 9.12806 L 37.88939 9.31033 L 38.63326 9.54407 L 39.15712 9.81694 L 39.43325 10.11449 L 39.44704 10.42099 L 39.19778 10.72022 L 38.69864 10.99636 L 37.97602 11.2348 L 37.06815 11.42293 L 34.62471 11.52106 L 37.06815 13.35057 L 37.06815 11.42293" />
    <path d="M 39.44704 10.42099 L 39.44704 12.34863" />
    <path d="M 39.19778 10.72022 L 39.19778 12.64786" />
    <path d="M 38.69864 10.99636 L 38.69864 12.924" />
    <path d="M 37.97602 11.2348 L 37.97602 13.16244" />
    <path d="M 34.62471 11.52106 L 34.11015 13.47657" />
    <path d="M 32.24956 11.70095 L 34.11015 13.47657" />
    <path d="M 102.84512 30.81292 L 99.69042 29.86918" />
    <path d="M 102.84512 34.6682 L 102.84512 30.81292 L 99.4039 31.58484" />
    <path d="M 101.75129 34.92325 L 102.84512 30.81292" />
    <path d="M 100.65034 35.15279 L 102.84512 30.81292" />
    <path d="M 99.51209 33.48953 L 100.32851 34.70787" />
    <path d="M 99.51209 33.48953 L 99.51209 34.34204" />
    <path d="M 99.1764 34.22618 L 99.1764 33.58036" />
    <path d="M 98.93121 34.11357 L 98.93121 33.68984" />
    <path d="M 59.27926 38.33304 L 59.69057 38.38604 L 60.03641 38.4656 L 60.29321 38.56632 L 60.44346 38.68132 L 60.47694 38.80276 L 60.39135 38.92238 L 60.19253 39.03202 L 59.89403 39.1242 L 59.5162 39.19265 L 59.08477 39.2327 L 58.62916 39.24162 L 58.18041 39.21881 L 57.7691 39.16581 L 57.42326 39.08625 L 57.16646 38.98553 L 57.01621 38.87054 L 56.98273 38.74909 L 57.06832 38.62947 L 57.26714 38.51984 L 57.56564 38.42765 L 57.94347 38.3592 L 58.3749 38.31915 L 58.83051 38.31023 L 59.27926 38.33304 Z" />
    <path d="M 59.27926 39.21464 L 59.27926 38.33304" />
    <path d="M 59.69057 39.16106 L 59.69057 38.38604" />
    <path d="M 58.83051 39.23768 L 58.83051 38.31023" />
    <path d="M 58.3749 39.2287 L 58.3749 38.31915" />
    <path d="M 57.94347 39.18828 L 57.94347 38.3592" />
    <path d="M 57.56564 39.119 L 57.56564 38.42765" />
    <path d="M 57.26714 39.02502 L 57.26714 38.51984" />
    <path d="M 57.06832 38.91042 L 57.06832 38.62947" />
    <path d="M 60.44346 38.84955 L 60.44346 38.68132" />
    <path d="M 60.29321 38.9765 L 60.29321 38.56632" />
    <path d="M 60.03641 39.08023 L 60.03641 38.4656" />
    <path d="M 32.73478 10.51677 L 33.02041 10.62879 L 33.40507 10.71729 L 33.86256 10.77623 L 34.36169 10.80161 L 34.86846 10.79168 L 35.34832 10.74714 L 35.76857 10.671 L 36.10059 10.56847 L 36.32173 10.44652 L 36.41692 10.31347 L 36.37969 10.17839 L 36.21256 10.05048 L 35.92694 9.93846 L 35.54228 9.84997 L 35.08479 9.79102 L 34.58565 9.76564 L 34.07888 9.77557 L 33.59902 9.82012 L 33.17877 9.89625 L 32.84676 9.99879 L 32.62562 10.12073 L 32.53042 10.25378 L 32.56765 10.38886 L 32.73478 10.51677 Z" />
    <path d="M 36.37969 10.17839 L 36.37969 10.3655" />
    <path d="M 36.21256 10.05048 L 36.21256 10.50672" />
    <path d="M 35.92694 9.93846 L 35.92694 10.62209" />
    <path d="M 35.54228 9.84997 L 35.54228 10.712" />
    <path d="M 35.08479 9.79102 L 35.08479 10.7716" />
    <path d="M 34.58565 9.76564 L 34.58565 10.79722" />
    <path d="M 34.07888 9.77557 L 34.07888 10.78723" />
    <path d="M 33.59902 9.82012 L 33.59902 10.74228" />
    <path d="M 33.17877 9.89625 L 33.17877 10.66522" />
    <path d="M 32.84676 9.99879 L 32.84676 10.56068" />
    <path d="M 32.62562 10.12073 L 32.62562 10.43322" />
    <path d="M 2.31305 -4.19901 L -72.3485 -21.54652 L -42.41199 -12.59092 L 32.24956 4.75659 L 2.31305 -4.19901 Z" />
    <path d="M -72.3485 25.57299 L -72.3485 -21.54652" />
    <path d="M 101.92413 29.38348 A 79 21.05777 0 0 1 88.94263 31.76412 L 88.79189 31.79745 L 88.51662 31.85701 L 88.09597 31.94499 L 87.66232 32.03374 L 86.98118 32.16632 L 86.65867 32.2299 L 86.01109 32.34469 L 85.86343 32.84771 L 85.56899 33.68813 L 82.9849 32.80311 L 82.92058 32.81118 L 82.458 32.87438" />
    <path d="M 88.94263 31.76412 A 79 21.05777 0 0 1 40.27001 34.17883" />
    <path d="M 101.92413 26.49202 L 101.92413 29.38348" />
    <path d="M 32.24956 22.87784 L 32.24956 4.75659" />
    <path d="M -23.31385 38.96602 L -11.33356 36.12062 L 2.38494 32.86237 L 20.44765 38.26589 L 19.61408 38.40018" />
    <path d="M -42.41199 34.5286 L -23.31385 38.96602" />
    <path d="M -42.41199 34.5286 L -42.41199 -12.59092" />
    <path d="M 2.38494 29.97091 L 2.38494 32.86237" />
    <path d="M 20.44765 38.26589 L 20.67947 38.33524" />
    <path d="M -57.38025 -11.89863 L -54.65832 -10.62067 L -52.0677 -8.47698 L -49.73336 -5.57099 L -47.76793 -2.04288 L -46.26621 1.93714 L -45.30066 6.17708 L -44.91785 10.47238 L -45.13625 14.61583 L -45.94532 18.40756 L -47.30603 21.66463 L -49.15274 24.22992 L -51.39637 25.97967 L -53.92866 26.82948 L -56.62747 26.73834 L -59.44596 25.66458 L -62.15858 23.65099 L -64.62634 20.80076 L -66.72278 17.25995 L -68.34045 13.21001 L -69.39647 8.85848 L -69.83671 4.42836 L -69.63861 0.14667 L -68.81234 -3.76718 L -67.40022 -7.11262 L -65.47463 -9.71821 L -63.13424 -11.45042 L -60.49899 -12.2205 L -57.70391 -11.98897 L -57.6808 -11.98295 L -57.65768 -11.97686 L -57.63456 -11.97071 L -57.61145 -11.96449 L -57.58833 -11.9582 L -57.56521 -11.95185 L -57.54209 -11.94542 L -57.51897 -11.93894 L -57.49585 -11.93239 L -57.47273 -11.92577 L -57.44961 -11.91908 L -57.42649 -11.91233 L -57.40337 -11.90551 L -57.38025 -11.89863 Z" />
    <path d="M 86.01109 32.34469 L 85.2579 32.46815 L 84.9209 32.52186 L 83.92035 32.66933 L 82.9849 32.80311" />
    <path d="M 96.17266 34.16161 L 99.51209 33.48953" />
    <path d="M 92.70526 34.78596 L 96.17266 34.16161 L 95.8045 32.30367" />
    <path d="M 89.11947 35.36084 L 88.17767 33.5731" />
    <path d="M 60.4916 37.92511 L 64.6229 37.74798 L 64.19907 34.39484" />
    <path d="M 56.33108 38.04409 L 60.4916 37.92511 L 60.06207 34.56592" />
    <path d="M 52.15284 38.10458 L 56.33108 38.04409 L 55.89565 34.67877" />
    <path d="M 17.63117 38.6392 L 18.63291 38.52009" />
    <path d="M 17.63117 38.6392 L 17.21994 38.67596" />
    <path d="M 13.76485 38.90551 L 13.37477 38.91898" />
    <path d="M 11.52278 38.95348 L 11.15956 38.95273" />
    <path d="M 9.26771 38.92602 L 8.92641 38.91222" />
    <path d="M 5.1599 38.67441 L 4.90101 38.64763" />
    <path d="M 3.1547 38.44603 L 2.91767 38.414 L 3.16153 43.74795" />
    <path d="M 2.91767 38.414 L 2.61493 38.37212" />
    <path d="M -0.64269 37.91251 L -0.98154 37.86293 L -1.02023 43.15819" />
    <path d="M -0.98154 37.86293 L -1.42853 37.79558 L -1.02023 43.15819" />
    <path d="M -1.42853 37.79558 L -2.02008 37.70399" />
    <path d="M -4.7738 37.27055 L -5.48569 37.15289 L -5.09757 42.51859" />
    <path d="M -5.48569 37.15289 L -6.49341 36.98137" />
    <path d="M -8.44626 36.6407 L -9.1825 36.50643 L -9.82264 36.39477 L -10.77487 36.22177 L -11.33356 36.12062" />
    <path d="M 17.63117 38.6392 L 17.73106 43.93009" />
    <path d="M -9.7052 36.88667 L -9.06207 41.83044" />
    <path d="M -11.06882 37.76808 L -9.7052 36.88667 L -10.77487 36.22177" />
    <path d="M -12.44603 38.55166 L -11.06882 37.76808 L -12.87779 36.54439 L -12.86645 36.48469" />
    <path d="M -12.44603 38.55166 L -12.90566 41.09516" />
    <path d="M -13.83306 39.23732 L -12.90566 41.09516" />
    <path d="M -15.22584 39.82489 L -13.83306 39.23732 L -14.22954 37.22836 L -15.58818 37.81464 L -16.94986 38.30331 L -18.31073 38.69448 L -19.66687 38.98824 L -19.88726 38.15218" />
    <path d="M -15.22584 39.82489 L -15.58818 37.81464 L -15.40577 37.08779" />
    <path d="M -19.66855 39.62849 L -19.66687 38.98824 L -21.01505 39.18501" />
    <path d="M -22.63135 38.92061 L -22.6399 38.80595" />
    <path d="M 34.62471 11.52106 L 32.24956 11.6717" />
    <path d="M 96.40543 31.23556 L 95.54292 31.61579 L 93.57721 31.03126 L 93.57283 31.0296" />
    <path d="M 95.54292 31.61579 L 94.49024 31.99907 L 93.60248 31.87717 L 92.02063 31.28863" />
    <path d="M 94.49024 31.99907 L 93.26981 32.37519 L 93.60248 31.87717 L 93.59855 31.45003 L 93.57721 31.03126 L 93.57699 31.02889" />
    <path d="M 93.26981 32.37519 L 91.93848 32.72845 L 89.94676 32.36787 L 88.79189 31.79745" />
    <path d="M 91.93848 32.72845 L 90.51778 33.05691 L 89.85876 32.81263 L 88.09597 31.94499" />
    <path d="M 90.51778 33.05691 L 89.02586 33.35954 L 85.86343 32.84771 L 84.9209 32.52186" />
    <path d="M 89.02586 33.35954 L 87.46562 33.63779 L 85.56899 33.68813 L 83.92035 32.66933" />
    <path d="M 87.46562 33.63779 L 85.84507 33.8914 L 85.56899 33.68813" />
    <path d="M 85.84507 33.8914 L 84.17463 34.11962" />
    <path d="M 97.74244 30.26434 L 97.55033 30.50237 L 97.07537 30.86291 L 96.40543 31.23556 L 94.60259 30.85027" />
    <path d="M 100.56304 34.94912 L 99.4039 31.58484" />
    <path d="M -72.3485 25.57299 L -42.41199 34.5286" />
    <path d="M 90.02057 31.92147 L 89.94676 32.36787 L 89.85876 32.81263 L 86.98118 32.16632" />
    <path d="M 90.02057 31.92147 L 89.39698 31.69701" />
    <path d="M 89.94676 32.36787 L 88.51662 31.85701" />
    <path d="M 89.85876 32.81263 L 87.66232 32.03374" />
    <path d="M 89.02586 33.35954 L 86.65867 32.2299" />
    <path d="M 89.02586 33.35954 L 89.85876 32.81263" />
    <path d="M 85.86343 32.84771 L 85.2579 32.46815" />
    <path d="M 85.84507 33.8914 L 82.92058 32.81118" />
    <path d="M 60.4916 37.92511 L 61.36761 34.51624" />
    <path d="M 56.33108 38.04409 L 57.03971 34.65235" />
    <path d="M 52.15284 38.10458 L 52.73296 34.72456" />
    <path d="M 96.17266 34.16161 L 99.4039 31.58484" />
    <path d="M 92.70526 34.78596 L 95.8045 32.30367" />
    <path d="M 89.11947 35.36084 L 92.05844 32.96714" />
    <path d="M -9.7052 36.88667 L -9.1825 36.50643" />
    <path d="M -9.7052 36.88667 L -9.82264 36.39477" />
    <path d="M -11.06882 37.76808 L -11.4368 36.14514" />
    <path d="M -12.44603 38.55166 L -12.87779 36.54439 L -12.90081 36.49285" />
    <path d="M -13.83306 39.23732 L -12.44603 38.55166" />
    <path d="M -13.83306 39.23732 L -15.58818 37.81464 L -15.81909 37.18596" />
    <path d="M -19.32409 38.01842 L -19.66687 38.98824" />
    <path d="M -20.68632 38.34196 L -21.01505 39.18501" />
    <path d="M -21.18349 38.46004 L -21.01505 39.18501" />
    <path d="M 90.02057 31.92147 L 89.5278 31.6775" />
    <path d="M 90.06338 31.59668 L 90.02057 31.92147" />
    <path d="M 91.93848 32.72845 L 90.02057 31.92147" />
    <path d="M 91.93848 32.72845 L 90.22313 31.57229" />
    <path d="M 93.26981 32.37519 L 90.35254 31.55244" />
    <path d="M 93.26981 32.37519 L 91.07791 31.43953" />
    <path d="M 91.51539 31.3701 L 93.60248 31.87717 L 92.32343 31.23914" />
    <path d="M 93.59855 31.45003 L 92.81814 31.15721" />
    <path d="M 93.59855 31.45003 L 92.9617 31.13318" />
    <path d="M 93.57721 31.03126 L 93.5736 31.02947" />
    <path d="M 95.05509 30.76952 L 96.40543 31.23556" />
    <path d="M 95.45845 30.69651 L 96.40543 31.23556" />
    <path d="M 96.56739 30.75939 L 96.40543 31.23556" />
    <path d="M 96.56739 30.75939 L 96.10565 30.57733" />
    <path d="M 96.56739 30.75939 L 96.20996 30.55788" />
    <path d="M 96.47176 30.50878 L 96.56739 30.75939 L 97.07537 30.86291" />
    <path d="M 95.54292 31.61579 L 94.15602 30.92879" />
    <path d="M 94.49024 31.99907 L 93.59855 31.45003" />
    <path d="M 95.54292 31.61579 L 93.59855 31.45003" />
    <path d="M 90.51778 33.05691 L 89.94676 32.36787" />
    <path d="M 87.46562 33.63779 L 85.86343 32.84771" />
    <path d="M 97.31364 30.34798 L 97.55033 30.50237" />
    <path d="M 97.17237 30.37527 L 97.55033 30.50237" />
    <path d="M 96.68687 30.46811 L 97.07537 30.86291" />
    <path d="M -14.38497 36.84535 L -14.22954 37.22836 L -12.44603 38.55166" />
    <path d="M -14.22954 37.22836 L -14.13288 36.78547" />
    <path d="M -14.22954 37.22836 L -12.87779 36.54439" />
    <path d="M -12.71293 36.44823 L -12.87779 36.54439" />
</svg>