<svg version="1.1" xmlns="http://www.w3.org/2000/svg" viewBox="-89.96462372793971 -29.202806040111522 192.2658262355901 78.6838007783967" fill="none" stroke="black" stroke-width="0.6%" vector-effect="non-scaling-stroke">
    <path d="M 33.16148 35.09333 L 33.83572 35.13365 L 34.93489 35.19215 L 37.3058 35.29279 L 37.82711 35.45809" />
    <path d="M 86.64258 33.20228 A 79 21.58903 0 0 1 37.82711 35.45809" />
    <path d="M 86.64258 33.20228 L 86.4898 33.23576 L 86.21089 33.29557 L 85.78484 33.38387 L 85.34576 33.47289 L 84.6565 33.60572 L 84.33011 33.66944 L 83.6755 33.78419 L 82.91478 33.90735 L 82.57449 33.96088 L 81.56495 34.10755 L 80.62135 34.24046 L 80.55654 34.24845 L 80.09011 34.31115 L 78.6384 34.4818 L 77.84959 34.57369 L 77.56645 34.60294 L 73.98555 34.95694 L 72.76466 35.06254 L 69.95587 35.29285 L 68.14658 35.41997 L 65.81634 35.5731 L 63.60107 35.69377 L 63.2733 35.71084 L 61.73955 35.78742 L 58.90096 35.89909 L 57.59252 35.94414 L 54.56522 36.01911 L 53.41968 36.04103 L 50.25458 36.07371 L 49.23284 36.07776 L 49.05799 36.07771 L 46.42268 36.06875 L 45.13552 36.05434 L 42.41703 36.00954 L 41.23628 35.97835 L 38.45731 35.89599 L 37.36566 35.85034 L 34.54564 35.72928 L 34.54556 35.72928 L 20.53093 39.03009 L 20.52177 39.03224 L 20.53093 44.32073 L 18.82635 44.67614 L 16.97921 44.97363 L 15.01575 45.209 L 12.9638 45.3789 L 10.85249 45.48091 L 8.71177 45.5136 L 6.57201 45.4765 L 4.46358 45.37013 L 2.41638 45.196 L 0.45948 44.95659 L 0.55964 42.77191" />
    <path d="M 20.52177 39.03224 L 20.21869 39.09543 L 18.82635 44.67614" />
    <path d="M 20.21869 39.09543 L 18.78907 39.39232 L 18.82635 44.67614" />
    <path d="M 18.78907 39.39232 L 18.08476 39.50576 L 16.97921 44.97363" />
    <path d="M 18.08476 39.50576 L 16.91268 39.69221 L 16.97921 44.97363" />
    <path d="M 16.91268 39.69221 L 15.92423 39.81069 L 15.01575 45.209" />
    <path d="M 15.92423 39.81069 L 14.91524 39.92828 L 15.01575 45.209" />
    <path d="M 14.91524 39.92828 L 14.5018 39.9641 L 15.01575 45.209" />
    <path d="M 14.5018 39.9641 L 13.2408 40.06851 L 12.9638 45.3789" />
    <path d="M 13.2408 40.06851 L 12.81599 40.09743 L 12.9638 45.3789" />
    <path d="M 12.81599 40.09743 L 11.68244 40.1522" />
    <path d="M 33.43779 35.02825 L 33.75497 35.12882" />
    <path d="M 37.82711 33.53422 L 37.82711 35.45809" />
    <path d="M 36.91922 33.24635 L 37.82711 33.53422" />
    <path d="M 36.91922 34.20828 L 36.91922 33.24635" />
    <path d="M 101.3012 31.4308 A 79 21.58903 0 0 1 88.49946 33.88725" />
    <path d="M 87.69718 33.55815 L 87.75466 33.5826 L 87.81211 33.6069 L 87.86953 33.63106 L 87.92693 33.65507 L 87.9843 33.67894 L 88.04165 33.70266 L 88.09897 33.72624 L 88.15626 33.74968 L 88.21352 33.77297 L 88.27076 33.79611 L 88.32798 33.81911 L 88.38516 33.84197 L 88.44232 33.86468 L 88.49946 33.88725" />
    <path d="M 87.3313 33.43962 L 87.35747 33.44828 L 87.38363 33.4569 L 87.40979 33.4655 L 87.43595 33.47406 L 87.46209 33.4826 L 87.48824 33.49111 L 87.51437 33.49959 L 87.5405 33.50804 L 87.56663 33.51647 L 87.59275 33.52486 L 87.61887 33.53323 L 87.64498 33.54156 L 87.67108 33.54987 L 87.69718 33.55815 L 87.65379 33.80622 L 87.56172 34.25149 L 84.6565 33.60572" />
    <path d="M 86.64258 33.20228 L 86.6919 33.21988 L 86.74119 33.23739 L 86.79047 33.2548 L 86.83973 33.27211 L 86.88897 33.28931 L 86.93819 33.30642 L 86.9874 33.32342 L 87.03658 33.34032 L 87.08575 33.35712 L 87.1349 33.37383 L 87.18403 33.39043 L 87.23314 33.40693 L 87.28223 33.42333 L 87.3313 33.43962" />
    <path d="M 101.3012 28.54499 A 79 21.58903 0 0 1 37.82711 33.53422" />
    <path d="M 101.3012 31.4308 L 101.3012 28.54499 L 65.92959 17.32926 A 29 7.92509 360 0 1 52.06904 21.85189" />
    <path d="M 87.65379 33.80622 L 86.4898 33.23576" />
    <path d="M 87.65379 33.80622 L 86.21089 33.29557" />
    <path d="M 87.56172 34.25149 L 85.78484 33.38387" />
    <path d="M 87.56172 34.25149 L 85.34576 33.47289" />
    <path d="M 86.71653 34.79899 L 84.33011 33.66944" />
    <path d="M 86.71653 34.79899 L 87.56172 34.25149" />
    <path d="M 83.6755 33.78419 L 83.52428 34.28713 L 83.22509 35.12667 L 81.56495 34.10755" />
    <path d="M 86.71653 34.79899 L 83.52428 34.28713 L 82.57449 33.96088" />
    <path d="M 83.52428 34.28713 L 82.91478 33.90735" />
    <path d="M 83.22509 35.12667 L 80.62135 34.24046" />
    <path d="M 83.50325 35.32986 L 80.55654 34.24845" />
    <path d="M 83.50325 35.32986 L 83.22509 35.12667" />
    <path d="M 81.81892 35.55627 L 80.09011 34.31115" />
    <path d="M 83.50325 35.32986 L 81.81892 35.55627 L 78.6384 34.4818" />
    <path d="M 78.92202 39.7469 L 77.84959 34.57369" />
    <path d="M 78.92202 39.7469 L 81.81892 35.55627" />
    <path d="M 74.83791 40.16884 L 77.56645 34.60294" />
    <path d="M 78.92202 39.7469 L 74.83791 40.16884 L 70.67524 40.5289 L 66.44655 40.82599 L 62.16457 41.05923 L 61.70607 41.09651 L 61.70607 39.17264 L 62.16457 39.13536 L 63.2733 35.71084" />
    <path d="M 74.83791 40.16884 L 73.98555 34.95694" />
    <path d="M 70.67524 40.5289 L 72.76466 35.06254" />
    <path d="M 70.67524 40.5289 L 69.95587 35.29285" />
    <path d="M 66.44655 40.82599 L 68.14658 35.41997" />
    <path d="M 66.44655 40.82599 L 65.81634 35.5731" />
    <path d="M 62.16457 41.05923 L 63.60107 35.69377" />
    <path d="M 62.16457 39.13536 L 62.16457 41.05923" />
    <path d="M 62.16457 39.13536 L 61.73955 35.78742" />
    <path d="M 58.02287 39.29831 L 58.90096 35.89909" />
    <path d="M 58.02287 39.29831 L 62.16457 39.13536" />
    <path d="M 58.02287 39.29831 L 57.59252 35.94414" />
    <path d="M 53.85554 39.40151 L 54.56522 36.01911" />
    <path d="M 53.85554 39.40151 L 58.02287 39.29831" />
    <path d="M 53.85554 39.40151 L 53.41968 36.04103" />
    <path d="M 49.67413 39.44468 L 50.25458 36.07371" />
    <path d="M 49.67413 39.44468 L 53.85554 39.40151" />
    <path d="M 49.67413 39.44468 L 49.23284 36.07776" />
    <path d="M 49.67413 41.36855 L 49.05799 36.07771" />
    <path d="M 49.67413 41.36855 L 49.67413 39.44468 L 50.14966 39.45882 L 50.59931 39.50342 L 50.99735 39.57592 L 51.32099 39.67218 L 51.55175 39.78669 L 51.6764 39.9129 L 51.68783 40.04358 L 51.7214 40.35419 L 52.03624 40.65278 L 52.61263 40.92064 L 53.4144 41.14099 L 54.39133 41.3 L 55.48218 41.38771 L 56.61857 41.39863 L 57.72926 41.33206 L 58.74464 41.19219 L 59.60105 40.98778 L 60.24484 40.73163 L 60.63562 40.43982 L 60.74892 40.13062 L 60.57763 39.82343 L 60.5029 39.69431 L 60.5425 39.56404 L 60.69418 39.44006 L 60.94924 39.32947 L 61.29309 39.2386 L 61.70607 39.17264" />
    <path d="M 45.87343 41.35563 L 46.42268 36.06875" />
    <path d="M 49.67413 41.36855 L 45.87343 41.35563 L 42.07934 41.2931 L 38.30051 41.18111 L 34.54556 41.01992 L 20.53093 44.32073" />
    <path d="M 45.87343 41.35563 L 45.13552 36.05434" />
    <path d="M 42.07934 41.2931 L 42.41703 36.00954" />
    <path d="M 42.07934 41.2931 L 41.23628 35.97835" />
    <path d="M 38.30051 41.18111 L 38.45731 35.89599" />
    <path d="M 38.30051 41.18111 L 37.36566 35.85034" />
    <path d="M 34.54556 41.01992 L 34.54564 35.72928" />
    <path d="M 34.54556 41.01992 L 34.54556 35.72928" />
    <path d="M 11.45874 40.20489 L 10.85249 45.48091" />
    <path d="M 11.0288 40.30615 L 10.85249 45.48091" />
    <path d="M 10.65004 40.39536 L 10.85249 45.48091" />
    <path d="M 9.13478 40.75224 L 8.71177 45.5136" />
    <path d="M 8.77938 40.83595 L 8.71177 45.5136" />
    <path d="M 8.46248 40.91059 L 8.71177 45.5136" />
    <path d="M 6.83162 41.2947 L 6.57201 45.4765" />
    <path d="M 6.54337 41.36259 L 6.57201 45.4765" />
    <path d="M 6.28395 41.42369 L 6.57201 45.4765" />
    <path d="M 4.58424 41.82402 L 4.46358 45.37013" />
    <path d="M 4.35845 41.87719 L 4.46358 45.37013" />
    <path d="M 2.6168 42.2874 L 2.41638 45.196" />
    <path d="M 2.43107 42.33114 L 2.41638 45.196" />
    <path d="M 2.2938 42.36347 L 2.41638 45.196" />
    <path d="M 0.45948 44.95659 L 0.45948 42.7955" />
    <path d="M 0.45671 42.79616 L 0.45948 44.95659" />
    <path d="M 0.3624 42.81837 L 0.45948 44.95659" />
    <path d="M 0.24645 42.84568 L 0.45948 44.95659" />
    <path d="M -3.61528 43.75522 L -3.6852 44.33318 L 0.45948 44.95659" />
    <path d="M -3.64437 43.76207 L -3.6852 44.33318" />
    <path d="M -3.68112 43.77072 L -3.6852 44.33318" />
    <path d="M -3.72686 43.7815 L -3.6852 44.33318" />
    <path d="M -3.783 43.79472 L -3.6852 44.33318" />
    <path d="M -5.08028 44.10026 L -3.6852 44.33318" />
    <path d="M 98.35101 38.5074 L 98.22098 38.81611 L 98.22098 36.89224 L 97.81441 37.18244 L 97.15682 37.43594 L 96.28941 37.63687 L 95.26656 37.77262 L 94.15238 37.83468 L 93.01672 37.81916 L 91.93074 37.72704 L 90.96254 37.56409 L 90.17279 37.34053 L 89.611 37.07036 L 89.611 38.99423 L 89.37701 38.88022 L 89.37701 36.95635 L 89.611 37.07036" />
    <path d="M 98.22098 38.81611 L 97.81441 39.10631 L 97.81441 37.18244" />
    <path d="M 97.81441 39.10631 L 97.15682 39.35981 L 97.15682 37.43594" />
    <path d="M 97.15682 39.35981 L 96.28941 39.56074 L 96.28941 37.63687" />
    <path d="M 96.28941 39.56074 L 95.26656 39.69649 L 95.26656 37.77262" />
    <path d="M 95.26656 39.69649 L 94.15238 39.75855 L 94.15238 37.83468" />
    <path d="M 94.15238 39.75855 L 93.01672 39.74303 L 93.01672 37.81916" />
    <path d="M 93.01672 39.74303 L 91.93074 39.65091 L 91.93074 37.72704" />
    <path d="M 91.93074 39.65091 L 90.96254 39.48796 L 90.96254 37.56409" />
    <path d="M 90.96254 39.48796 L 90.17279 39.2644 L 90.17279 37.34053" />
    <path d="M 90.17279 39.2644 L 89.611 38.99423" />
    <path d="M 89.37701 38.88022 L 89.05065 38.78465 L 89.05065 36.86078 L 89.37701 36.95635" />
    <path d="M 89.05065 38.78465 L 88.65057 38.71299 L 88.65057 36.78912 L 89.05065 36.86078" />
    <path d="M 88.65057 38.71299 L 88.19967 38.66934 L 88.19967 36.74547 L 88.65057 36.78912" />
    <path d="M 88.19967 38.66934 L 87.72375 38.6562 L 87.72375 36.73233 L 88.19967 36.74547" />
    <path d="M 87.72375 38.6562 L 87.25002 38.67432 L 87.25002 36.75045 L 87.72375 36.73233" />
    <path d="M 87.25002 38.67432 L 86.80558 38.72267 L 85.85524 35.01409 L 81.81892 35.55627" />
    <path d="M 86.80558 38.72267 L 82.91526 39.26436 L 81.81892 35.55627" />
    <path d="M 82.91526 39.26436 L 78.92202 39.7469" />
    <path d="M 61.70607 41.09651 L 61.29309 41.16247 L 61.29309 39.2386" />
    <path d="M 61.29309 41.16247 L 60.94924 41.25334 L 60.94924 39.32947" />
    <path d="M 60.94924 41.25334 L 60.74892 41.34019" />
    <path d="M 60.74892 42.05449 L 60.63562 42.36369 L 60.63562 40.43982" />
    <path d="M 60.63562 42.36369 L 60.24484 42.6555 L 60.24484 40.73163" />
    <path d="M 60.24484 42.6555 L 59.60105 42.91165 L 59.60105 40.98778" />
    <path d="M 59.60105 42.91165 L 58.74464 43.11606 L 58.74464 41.19219" />
    <path d="M 58.74464 43.11606 L 57.72926 43.25593 L 57.72926 41.33206" />
    <path d="M 57.72926 43.25593 L 56.61857 43.3225 L 56.61857 41.39863" />
    <path d="M 56.61857 43.3225 L 55.48218 43.31158 L 55.48218 41.38771" />
    <path d="M 55.48218 43.31158 L 54.39133 43.22387 L 54.39133 41.3" />
    <path d="M 54.39133 43.22387 L 53.4144 43.06486 L 53.4144 41.14099" />
    <path d="M 53.4144 43.06486 L 52.61263 42.84451 L 52.61263 40.92064" />
    <path d="M 52.61263 42.84451 L 52.03624 42.57665 L 52.03624 40.65278" />
    <path d="M 52.03624 42.57665 L 51.7214 42.27806 L 51.7214 40.35419" />
    <path d="M 51.7214 42.27806 L 51.68783 41.96745 L 51.6764 41.83677 L 51.6764 39.9129" />
    <path d="M 51.6764 41.83677 L 51.55175 41.71056 L 51.55175 39.78669" />
    <path d="M 51.55175 41.71056 L 51.32099 41.59605 L 51.32099 39.67218" />
    <path d="M 51.32099 41.59605 L 50.99735 41.49979 L 50.99735 39.57592" />
    <path d="M 50.99735 41.49979 L 50.59931 41.42729 L 50.59931 39.50342" />
    <path d="M 50.59931 41.42729 L 50.14966 41.38269 L 50.14966 39.45882" />
    <path d="M 50.14966 41.38269 L 49.67413 41.36855" />
    <path d="M 100.69156 36.09854 L 99.58209 36.35506 L 100.69156 32.2508 L 97.20302 33.02656 L 93.55962 33.74721 L 89.77299 34.41042 L 85.85524 35.01409" />
    <path d="M 99.58209 36.35506 L 98.45565 36.60599 L 97.20302 33.02656" />
    <path d="M 98.45565 36.60599 L 98.35101 36.62845" />
    <path d="M -23.68005 48.48099 L 36.91922 34.20828" />
    <path d="M -88.96462 27.78037 L -23.68005 48.48099 L -23.68005 -7.50218 L 52.06904 9.66849 L -13.21553 -11.03213 L -88.96462 -28.20281 L -23.68005 -7.50218" />
    <path d="M -88.96462 27.78037 L -88.96462 -28.20281" />
    <path d="M 52.06904 29.67817 L 36.91922 33.24635" />
    <path d="M 52.06904 29.67817 L 52.06904 9.66849" />
    <path d="M 89.66783 34.1652 L 87.65379 33.80622" />
    <path d="M 89.66783 34.1652 L 88.86452 33.8307" />
    <path d="M 93.48293 37.06278 L 93.48293 36.12722 L 93.04908 36.16633 L 92.66706 36.2348 L 92.3629 36.32795 L 92.15732 36.43944 L 92.06433 36.56167 L 92.09029 36.68631 L 92.2334 36.80487 L 92.48393 36.90927 L 92.82479 36.99239 L 93.23277 37.04857 L 93.68004 37.07398 L 94.13615 37.06689 L 94.57 37.02778 L 94.95202 36.95932 L 95.25618 36.86617 L 95.46176 36.75468 L 95.55474 36.63244 L 95.52879 36.5078 L 95.38567 36.38924 L 95.13515 36.28484 L 94.79428 36.20172 L 94.38631 36.14554 L 93.93903 36.12013 L 93.48293 36.12722" />
    <path d="M 93.04908 37.02328 L 93.04908 36.16633" />
    <path d="M 92.66706 36.95393 L 92.66706 36.2348" />
    <path d="M 92.3629 36.85884 L 92.3629 36.32795" />
    <path d="M 92.15732 36.74184 L 92.15732 36.43944" />
    <path d="M 95.52879 36.66655 L 95.52879 36.5078" />
    <path d="M 95.38567 36.79594 L 95.38567 36.38924" />
    <path d="M 95.13515 36.90323 L 95.13515 36.28484" />
    <path d="M 94.79428 36.98759 L 94.79428 36.20172" />
    <path d="M 94.38631 37.04434 L 94.38631 36.14554" />
    <path d="M 93.93903 37.06996 L 93.93903 36.12013" />
    <path d="M 96.57127 35.44387 L 96.57127 35.25442 L 96.71942 35.13012 L 96.97135 35.019 L 97.31262 34.9274 L 97.20302 33.02656" />
    <path d="M 96.53535 35.38477 L 96.57127 35.25442" />
    <path d="M 96.61373 35.51372 L 96.53535 35.38477" />
    <path d="M 96.80192 35.6339 L 96.61373 35.51372" />
    <path d="M 97.08914 35.73844 L 96.80192 35.6339" />
    <path d="M 97.08914 35.73844 L 97.76679 35.98797 L 98.19639 36.27568 L 98.35101 36.58353 L 98.22098 36.89224" />
    <path d="M 98.35101 38.5074 L 98.35101 36.58353" />
    <path d="M 86.80558 36.7988 L 87.25002 36.75045" />
    <path d="M 86.80558 38.72267 L 86.80558 36.7988 L 89.77299 34.41042" />
    <path d="M 82.91526 39.26436 L 85.85524 35.01409" />
    <path d="M 60.69418 40.03245 L 60.69418 39.44006" />
    <path d="M 60.5425 39.76274 L 60.5425 39.56404" />
    <path d="M 60.74892 42.05449 L 60.74892 40.13062" />
    <path d="M 51.68783 40.04358 L 51.68783 41.96745" />
    <path d="M 100.69156 32.2508 L 99.4433 31.855" />
    <path d="M 100.69156 36.09854 L 100.69156 32.2508" />
    <path d="M 98.45565 36.60599 L 100.69156 32.2508" />
    <path d="M 97.31262 34.9274 L 98.45565 36.60599" />
    <path d="M 97.31262 34.9274 L 97.31262 35.82073" />
    <path d="M 96.97135 35.69557 L 96.97135 35.019" />
    <path d="M 96.71942 35.58122 L 96.71942 35.13012" />
    <path d="M 56.78544 39.71101 L 57.19341 39.76719 L 57.53428 39.85031 L 57.78481 39.95471 L 57.92792 40.07327 L 57.95388 40.19791 L 57.86089 40.32015 L 57.65531 40.43164 L 57.35115 40.52479 L 56.96913 40.59325 L 56.53528 40.63236 L 56.07918 40.63945 L 55.63191 40.61404 L 55.22393 40.55787 L 54.88306 40.47474 L 54.63253 40.37034 L 54.48943 40.25178 L 54.46347 40.12714 L 54.55645 40.00491 L 54.76203 39.89342 L 55.06619 39.80027 L 55.44821 39.7318 L 55.88206 39.69269 L 56.33816 39.6856 L 56.78544 39.71101 Z" />
    <path d="M 56.78544 40.60981 L 56.78544 39.71101" />
    <path d="M 57.19341 40.55306 L 57.19341 39.76719" />
    <path d="M 56.33816 40.63543 L 56.33816 39.6856" />
    <path d="M 55.88206 40.62826 L 55.88206 39.69269" />
    <path d="M 55.44821 40.58875 L 55.44821 39.7318" />
    <path d="M 55.06619 40.5194 L 55.06619 39.80027" />
    <path d="M 54.76203 40.42431 L 54.76203 39.89342" />
    <path d="M 54.55645 40.30731 L 54.55645 40.00491" />
    <path d="M 57.92792 40.23203 L 57.92792 40.07327" />
    <path d="M 57.78481 40.36141 L 57.78481 39.95471" />
    <path d="M 57.53428 40.4687 L 57.53428 39.85031" />
    <path d="M -56.32234 -12.69252 L -53.66288 -11.39056 L -51.13059 -9.23349 L -48.84654 -6.32444 L -46.91995 -2.80251 L -45.44293 1.16389 L -44.48611 5.38513 L -44.09524 9.65935 L -44.28901 13.78219 L -45.05815 17.55651 L -46.36589 20.80185 L -48.1497 23.36302 L -50.32428 25.11756 L -52.78566 25.98159 L -55.41615 25.91378 L -58.18282 24.86611 L -60.85421 22.87761 L -63.29354 20.05009 L -65.37588 16.52836 L -66.9946 12.49275 L -68.06682 8.14992 L -68.53763 3.72225 L -68.38291 -0.56351 L -67.61059 -4.4879 L -66.26022 -7.84997 L -64.40095 -10.47754 L -62.12799 -12.23607 L -59.55773 -13.0355 L -56.82179 -12.83489 L -56.78613 -12.82579 L -56.75047 -12.81652 L -56.7148 -12.80709 L -56.67914 -12.79749 L -56.64346 -12.78773 L -56.60779 -12.77781 L -56.57211 -12.76772 L -56.53644 -12.75747 L -56.50075 -12.74705 L -56.46507 -12.73647 L -56.42939 -12.72573 L -56.39371 -12.71482 L -56.35802 -12.70375 L -56.32234 -12.69252 Z" />
    <path d="M 89.66783 34.1652 L 89.11052 33.7922" />
    <path d="M 91.02085 33.80909 L 89.66783 34.1652 L 88.22699 34.4955 L 86.71653 34.79899 L 85.13928 35.07719 L 83.50325 35.32986" />
    <path d="M 91.02085 33.80909 L 90.28381 33.60411" />
    <path d="M 91.02085 33.80909 L 90.46513 33.57438" />
    <path d="M 91.02085 33.80909 L 91.27458 33.43942" />
    <path d="M 92.26439 33.42903 L 91.74374 33.35952" />
    <path d="M 92.26439 33.42903 L 92.06101 33.30478" />
    <path d="M 93.13452 33.11523 L 92.26439 33.42903 L 91.02085 33.80909" />
    <path d="M 88.22699 34.4955 L 87.65379 33.80622" />
    <path d="M 88.22699 34.4955 L 87.56172 34.25149" />
    <path d="M 85.13928 35.07719 L 83.52428 34.28713" />
    <path d="M 85.13928 35.07719 L 83.22509 35.12667" />
    <path d="M 93.93204 35.60129 L 97.31262 34.9274" />
    <path d="M 90.42646 36.22566 L 93.93204 35.60129 L 93.55962 33.74721" />
    <path d="M 86.80558 36.7988 L 90.42646 36.22566 L 89.77299 34.41042" />
    <path d="M 86.80558 36.7988 L 85.85524 35.01409" />
    <path d="M 90.42646 36.22566 L 93.55962 33.74721" />
    <path d="M 93.93204 35.60129 L 97.20302 33.02656" />
</svg>